<svg xmlns="http://www.w3.org/2000/svg" xmlns:xlink="http://www.w3.org/1999/xlink" width="354.11" height="458.465" viewBox="0 0 354.11 458.465"><defs><linearGradient id="a" x1="0.5" x2="0.5" y2="1" gradientUnits="objectBoundingBox"><stop offset="0" stop-color="#fff"/><stop offset="1" stop-color="#d2e6ee"/></linearGradient></defs><g transform="translate(-1692.938 -220.717)"><g transform="translate(1692.938 276.103)"><g transform="translate(64.136 350.169)"><path d="M1808.392,914.15l-2.41-38.015,13.736-.723-1.931,39.854Z" transform="translate(-1804.175 -875.412)" fill="#fac5c2"/><g transform="translate(0 33.283)"><path d="M1807.281,931.419s-5.3,9.541-3.745,16.956l41.446.823s2.713-7.9-6.615-10.071-22.206-8.857-22.206-8.857S1810.829,934.9,1807.281,931.419Z" transform="translate(-1803.135 -929.571)" fill="#37a3a5"/><path d="M1803.454,956.933l41.445.823a8.724,8.724,0,0,0,.2-4.161l-42.034-.835A20.169,20.169,0,0,0,1803.454,956.933Z" transform="translate(-1803.065 -938.13)" fill="#f7ead5"/><path d="M1822.846,932.18a5.751,5.751,0,0,1,1.389-1.856,5.946,5.946,0,0,1,3.131-1.035,25.306,25.306,0,0,1,2.906-.147,6.258,6.258,0,0,1,3.63.871,1.009,1.009,0,0,1,.53.95.937.937,0,0,1-.589.584,4.722,4.722,0,0,1-2.7.073q-3.264-.574-6.467-1.448a13.322,13.322,0,0,1,.34,3.557,7.19,7.19,0,0,1-.788,3.242,2.672,2.672,0,0,1-.964,1.054,1.414,1.414,0,0,1-1.379.051,1.492,1.492,0,0,1-.665-1.208,3.84,3.84,0,0,1,.246-1.406A20.064,20.064,0,0,1,1822.846,932.18Z" transform="translate(-1809.972 -929.142)" fill="none" stroke="#fff" stroke-linecap="round" stroke-linejoin="round" stroke-width="0.917"/></g></g><g transform="translate(15.068 349.351)"><path d="M1729.18,912.829l-2.41-38.015,13.736-.723-1.931,39.854Z" transform="translate(-1724.963 -874.092)" fill="#fac5c2"/><g transform="translate(0 33.284)"><path d="M1728.069,930.1s-5.3,9.541-3.745,16.955l41.446.824s2.713-7.9-6.615-10.071-22.206-8.858-22.206-8.858S1731.617,933.579,1728.069,930.1Z" transform="translate(-1723.923 -928.251)" fill="#37a3a5"/><path d="M1724.242,955.613l41.445.823a8.725,8.725,0,0,0,.2-4.161l-42.034-.835A20.161,20.161,0,0,0,1724.242,955.613Z" transform="translate(-1723.853 -936.81)" fill="#f7ead5"/><path d="M1743.635,930.86a5.75,5.75,0,0,1,1.389-1.856,5.945,5.945,0,0,1,3.131-1.035,25.32,25.32,0,0,1,2.906-.147,6.257,6.257,0,0,1,3.63.871,1.011,1.011,0,0,1,.53.95.941.941,0,0,1-.59.584,4.723,4.723,0,0,1-2.7.073q-3.264-.575-6.467-1.448a13.332,13.332,0,0,1,.34,3.558,7.174,7.174,0,0,1-.788,3.242,2.672,2.672,0,0,1-.964,1.054,1.416,1.416,0,0,1-1.38.051,1.494,1.494,0,0,1-.665-1.208,3.842,3.842,0,0,1,.246-1.406A20.1,20.1,0,0,1,1743.635,930.86Z" transform="translate(-1730.76 -927.822)" fill="none" stroke="#fff" stroke-linecap="round" stroke-linejoin="round" stroke-width="0.917"/></g></g><path d="M1835.451,464.074l6,40.89,26.885,42.287-7.258,4.055-32.167-31.894-8.723-37.074Z" transform="translate(-1745.444 -368.711)" fill="#fac5c2"/><path d="M1790.977,609.471l1.318,16.113-.239,174.49-22.2.716-6.684-157.781-3.581-.239-16.47,157.781H1719.73l3.581-89.513-.955-96.2,14.8-10.264Z" transform="translate(-1707.216 -422.178)" fill="#00223d"/><path d="M1726.281,632.536l18.141-19.1,19.812.239" transform="translate(-1709.709 -425.551)" fill="none" stroke="#356493" stroke-linecap="round" stroke-linejoin="round" stroke-width="1.156"/><path d="M1789.862,646.528l1.432-2.864.239-29.838,17.9.477,9.548,14.8" transform="translate(-1733.905 -425.698)" fill="none" stroke="#356493" stroke-linecap="round" stroke-linejoin="round" stroke-width="1.156"/><path d="M1791.153,543.714a1.85,1.85,0,1,0-1.85,1.85A1.85,1.85,0,0,0,1791.153,543.714Z" transform="translate(-1732.988 -398.313)" fill="none" stroke="#356493" stroke-linecap="round" stroke-linejoin="round" stroke-width="1.156"/><path d="M1738.7,405.105s-17.663,6.732-20.084,7.905c-17.446,8.451-19.082,49.341-19.082,49.341h14.721l-1.942,79.191s41.994,8.723,73.889-.545l-4.055-72.308s12.124-.2,21.161-5.111c0,0-14.448-41.435-20.827-46.342s-30.831-9.268-30.831-9.268Z" transform="translate(-1699.529 -346.27)" fill="#37a3a5"/><path d="M1769.395,373.729l-6.4,21.85s-1.106,11.592,11.857,14.039c12.569,2.372,12.255-9.473,12.255-9.473l-.826-3.929,1.2-13.067Z" transform="translate(-1723.672 -334.331)" fill="#fac5c2"/><path d="M1771.553,377.912l.916-3.127,5.64,2.183,5.329,2.775,6.993,7.279-.655,7.122C1786.086,393.612,1773.312,390.84,1771.553,377.912Z" transform="translate(-1726.937 -334.732)" fill="#d88080"/><g transform="translate(40.26 0)"><path d="M1802.342,340.422c-1.256,10.009-6.244,29.678-16.31,29.054-10.592-.657-15.587-6.706-16.7-16.66,0,0-5.391,1.727-4.754-5.463.281-3.172,3.76-1.354,3.76-1.354s-5.108-26.31,11.454-27.85S1804.061,326.722,1802.342,340.422Z" transform="translate(-1764.522 -313.121)" fill="#fac5c2"/><path d="M1792.234,352.43a3,3,0,0,0,.9.458.817.817,0,0,0,.888-.339,1.6,1.6,0,0,0-.17-1.62,3.858,3.858,0,0,0-2.508-1.437,8.234,8.234,0,0,0-2.862-.323,3.663,3.663,0,0,0-2.584,1.456.692.692,0,0,0-.16.375.44.44,0,0,0,.3.424.935.935,0,0,0,.482-.028A7.552,7.552,0,0,1,1792.234,352.43Z" transform="translate(-1772.594 -324.973)" fill="#242638"/><path d="M1811.185,355.365a2.569,2.569,0,0,1-.889.215.69.69,0,0,1-.662-.549,1.773,1.773,0,0,1,.6-1.513,3.337,3.337,0,0,1,2.534-.749,6.491,6.491,0,0,1,2.524.408,3.2,3.2,0,0,1,1.792,2.047.742.742,0,0,1,.031.4.439.439,0,0,1-.37.333.738.738,0,0,1-.4-.149A6.056,6.056,0,0,0,1811.185,355.365Z" transform="translate(-1781.679 -326.354)" fill="#242638"/><path d="M1802.653,365.251c-.5,2.286.16,4.647.792,6.9a.9.9,0,0,1,.006.681.771.771,0,0,1-.21.216,2.8,2.8,0,0,1-1.484.557c-.764.054-1.653-.171-2.211.354" transform="translate(-1777.85 -331.104)" fill="none" stroke="#242638" stroke-miterlimit="10" stroke-width="0.679"/><path d="M1813.89,364.449c.231-1.69-.286-3.156-1.153-3.275s-1.759,1.155-1.99,2.846.286,3.156,1.153,3.275S1813.659,366.14,1813.89,364.449Z" transform="translate(-1782.092 -329.55)" fill="#242638"/><path d="M1792.382,361.194c.231-1.69-.286-3.156-1.154-3.275s-1.759,1.156-1.99,2.846.286,3.157,1.154,3.275S1792.151,362.885,1792.382,361.194Z" transform="translate(-1773.907 -328.311)" fill="#242638"/><path d="M1801.9,383.395a28.205,28.205,0,0,1-12.786-1.41s1.943,5.174,6.112,5.414S1801.9,383.395,1801.9,383.395Z" transform="translate(-1773.879 -337.472)" fill="#fff"/><path d="M1806.9,329.478c.914-.523,2.057-1.048,2.2-2.091.142-1.007-.774-1.845-1.683-2.3a6.277,6.277,0,0,1-2.544-1.614c2.118-.149,3.224-2.878,2.556-4.894a6.959,6.959,0,0,0-3.757-3.9,17.032,17.032,0,0,0-5.392-1.293,64.63,64.63,0,0,0-10.455-.321c-2.926.147-6.17.4-8.467-1.416a6.557,6.557,0,0,0-2.027-1.438,2.842,2.842,0,0,0-3.157,1.842,8.282,8.282,0,0,0-.286,3.952,4.9,4.9,0,0,0-4.233-.112c-1.263.739-1.633,2.888-.359,3.606.414.234.976.331,1.159.769.206.491-.224,1-.6,1.373a16.173,16.173,0,0,0,.05,22.866c1.4-3.543,3.354-6.839,4.883-10.327s2.639-7.292,2.2-11.075c6.351,4.93,14.833,6.392,22.852,5.806a2.456,2.456,0,0,1,1.755.3,2.407,2.407,0,0,1,.626,1.782l.467,7.175A8.776,8.776,0,0,1,1806.9,329.478Z" transform="translate(-1764.761 -310.127)" fill="#242638"/><path d="M1771.9,349.008a78.151,78.151,0,0,0,6.6-22.437c-.094.794,2.947,2.034,3.489,2.311a30.077,30.077,0,0,0,6.291,2.377c5.777,1.456,11.575,1.088,17.457,1.244a3.992,3.992,0,0,1,2.321.558,1.425,1.425,0,0,1,.3,2.1" transform="translate(-1767.328 -316.385)" fill="none" stroke="#fff" stroke-linecap="round" stroke-linejoin="round" stroke-width="0.69"/><path d="M1813.043,328.621c-2.959-1.763-6.647-1.5-10.085-1.307-5.055.282-10.319.248-14.915-1.875" transform="translate(-1773.472 -315.954)" fill="none" stroke="#fff" stroke-linecap="round" stroke-linejoin="round" stroke-width="0.69"/></g><rect width="9.865" height="8.74" rx="1.976" transform="translate(61.573 37.781) rotate(-169.629)" fill="none" stroke="#242638" stroke-miterlimit="10" stroke-width="0.855"/><rect width="9.149" height="8.74" rx="1.903" transform="translate(74.696 40.182) rotate(-169.629)" fill="none" stroke="#242638" stroke-miterlimit="10" stroke-width="0.823"/><line x2="6.521" y2="0.708" transform="translate(45.808 31.934)" fill="none" stroke="#242638" stroke-miterlimit="10" stroke-width="0.66"/><path d="M1799.912,365.344s3.281-1.036,4.191.948" transform="translate(-1737.729 -331.037)" fill="none" stroke="#242638" stroke-miterlimit="10" stroke-width="0.66"/><line x2="0.853" y2="0.26" transform="translate(75.427 36.661)" fill="none" stroke="#242638" stroke-miterlimit="10" stroke-width="0.66"/><line x1="1.602" y1="22.421" transform="translate(81.011 99.997)" fill="none" stroke="#242638" stroke-linecap="round" stroke-linejoin="round" stroke-width="1.32"/><path d="M1730.076,497.079l4.089,23.443,38.709,29.987,18.537,1.09,9,3.544-4.089,4.362h-29.986l-50.946-24.549a3.583,3.583,0,0,1-1.977-2.627l-5.959-34.978Z" transform="translate(-1702.543 -381.271)" fill="#fac5c2"/><path d="M1743.976,484.352l3,.545.545-21.263" transform="translate(-1716.443 -368.543)" fill="none" stroke="#242638" stroke-linecap="round" stroke-linejoin="round" stroke-width="1.32"/></g><g transform="translate(1867.13 220.717)"><rect width="179.917" height="457.971" fill="url(#a)"/><rect width="161.464" height="373.464" transform="translate(9.226 11.449)" fill="none" stroke="#242638" stroke-miterlimit="10" stroke-width="2.25"/><g transform="translate(13.378 17.719)"><rect width="151.776" height="15.538" fill="#242638"/><rect width="4.1" height="11.586" transform="translate(144.448 1.636)" fill="#37a3a5"/><rect width="4.1" height="11.586" transform="translate(139.323 1.636)" fill="#37a3a5"/><rect width="4.1" height="11.586" transform="translate(134.131 1.636)" fill="#37a3a5"/><rect width="4.099" height="11.586" transform="translate(128.941 1.636)" fill="#37a3a5"/><rect width="4.1" height="11.586" transform="translate(123.638 1.636)" fill="#37a3a5"/><rect width="4.1" height="11.586" transform="translate(118.445 1.636)" fill="#37a3a5"/><rect width="4.1" height="11.586" transform="translate(113.256 1.636)" fill="#37a3a5"/><rect width="32.35" height="4.294" rx="2.147" transform="translate(58.358 3.271)" fill="#fff"/><path d="M2053.167,259.959a3.275,3.275,0,1,0-3.23,3.816A3.56,3.56,0,0,0,2053.167,259.959Z" transform="translate(-2019.217 -251.917)" fill="#21587b"/><path d="M2038.145,259.959a3.275,3.275,0,1,0-3.229,3.816A3.56,3.56,0,0,0,2038.145,259.959Z" transform="translate(-2013.5 -251.917)" fill="#21587b"/><path d="M2023.123,259.959a3.275,3.275,0,1,0-3.229,3.816A3.56,3.56,0,0,0,2023.123,259.959Z" transform="translate(-2007.784 -251.917)" fill="#21587b"/></g><g transform="translate(13.378 37.755)"><rect width="151.776" height="15.538" fill="#242638"/><rect width="4.1" height="11.586" transform="translate(144.448 1.636)" fill="#37a3a5"/><rect width="4.1" height="11.586" transform="translate(139.323 1.636)" fill="#37a3a5"/><rect width="4.1" height="11.586" transform="translate(134.131 1.636)" fill="#37a3a5"/><rect width="4.099" height="11.586" transform="translate(128.941 1.636)" fill="#37a3a5"/><rect width="4.1" height="11.586" transform="translate(123.638 1.636)" fill="#37a3a5"/><rect width="32.35" height="4.293" rx="2.147" transform="translate(58.358 3.271)" fill="#fff"/><ellipse cx="3.229" cy="3.816" rx="3.229" ry="3.816" transform="translate(27.491 4.225)" fill="#21587b"/><ellipse cx="3.229" cy="3.816" rx="3.229" ry="3.816" transform="translate(18.186 4.225)" fill="#21587b"/><ellipse cx="3.229" cy="3.816" rx="3.229" ry="3.816" transform="translate(8.881 4.225)" fill="#21587b"/></g><g transform="translate(13.378 57.178)"><rect width="151.776" height="15.538" fill="#242638"/><rect width="4.1" height="11.586" transform="translate(144.448 1.636)" fill="#37a3a5"/><rect width="4.1" height="11.586" transform="translate(139.323 1.636)" fill="#37a3a5"/><rect width="4.1" height="11.586" transform="translate(134.131 1.636)" fill="#37a3a5"/><rect width="32.35" height="4.293" rx="2.147" transform="translate(58.358 3.271)" fill="#fff"/><ellipse cx="3.229" cy="3.816" rx="3.229" ry="3.816" transform="translate(27.491 4.225)" fill="#21587b"/><ellipse cx="3.229" cy="3.816" rx="3.229" ry="3.816" transform="translate(18.186 4.225)" fill="#21587b"/><ellipse cx="3.229" cy="3.816" rx="3.229" ry="3.816" transform="translate(8.881 4.225)" fill="#21587b"/></g><g transform="translate(13.378 146.387)"><rect width="151.776" height="15.538" fill="#242638"/><rect width="4.1" height="11.586" transform="translate(144.448 1.636)" fill="#37a3a5"/><rect width="4.1" height="11.586" transform="translate(139.323 1.636)" fill="#37a3a5"/><rect width="4.1" height="11.586" transform="translate(134.131 1.636)" fill="#37a3a5"/><rect width="4.099" height="11.586" transform="translate(128.941 1.636)" fill="#37a3a5"/><rect width="4.1" height="11.586" transform="translate(123.638 1.636)" fill="#37a3a5"/><rect width="4.1" height="11.586" transform="translate(118.445 1.636)" fill="#37a3a5"/><rect width="4.1" height="11.586" transform="translate(113.256 1.636)" fill="#37a3a5"/><rect width="32.35" height="4.293" rx="2.147" transform="translate(58.358 3.271)" fill="#fff"/><ellipse cx="3.229" cy="3.816" rx="3.229" ry="3.816" transform="translate(27.491 4.225)" fill="#21587b"/><ellipse cx="3.229" cy="3.816" rx="3.229" ry="3.816" transform="translate(18.186 4.225)" fill="#356493"/><ellipse cx="3.229" cy="3.816" rx="3.229" ry="3.816" transform="translate(8.881 4.225)" fill="#21587b"/></g><g transform="translate(13.378 166.423)"><rect width="151.776" height="15.538" fill="#242638"/><rect width="4.1" height="11.586" transform="translate(144.448 1.636)" fill="#37a3a5"/><rect width="4.1" height="11.586" transform="translate(139.323 1.636)" fill="#37a3a5"/><rect width="4.1" height="11.586" transform="translate(134.131 1.636)" fill="#37a3a5"/><rect width="4.099" height="11.586" transform="translate(128.941 1.636)" fill="#37a3a5"/><rect width="4.1" height="11.586" transform="translate(123.638 1.636)" fill="#37a3a5"/><rect width="32.35" height="4.293" rx="2.147" transform="translate(58.358 3.271)" fill="#fff"/><ellipse cx="3.229" cy="3.816" rx="3.229" ry="3.816" transform="translate(27.491 4.225)" fill="#21587b"/><ellipse cx="3.229" cy="3.816" rx="3.229" ry="3.816" transform="translate(18.186 4.225)" fill="#356493"/><ellipse cx="3.229" cy="3.816" rx="3.229" ry="3.816" transform="translate(8.881 4.225)" fill="#21587b"/></g><g transform="translate(13.378 185.846)"><rect width="151.776" height="15.538" fill="#242638"/><rect width="4.1" height="11.586" transform="translate(144.448 1.636)" fill="#37a3a5"/><rect width="4.1" height="11.586" transform="translate(139.323 1.636)" fill="#37a3a5"/><rect width="4.1" height="11.586" transform="translate(134.131 1.636)" fill="#37a3a5"/><rect width="32.35" height="4.294" rx="2.147" transform="translate(58.358 3.271)" fill="#fff"/><path d="M2053.167,531.369a3.275,3.275,0,1,0-3.23,3.816A3.56,3.56,0,0,0,2053.167,531.369Z" transform="translate(-2019.217 -523.328)" fill="#21587b"/><path d="M2038.145,531.369a3.275,3.275,0,1,0-3.229,3.816A3.56,3.56,0,0,0,2038.145,531.369Z" transform="translate(-2013.5 -523.328)" fill="#21587b"/><path d="M2023.123,531.369a3.275,3.275,0,1,0-3.229,3.816A3.56,3.56,0,0,0,2023.123,531.369Z" transform="translate(-2007.784 -523.328)" fill="#21587b"/></g><g transform="translate(13.378 256.518)"><rect width="151.776" height="15.538" fill="#242638"/><rect width="4.1" height="11.586" transform="translate(144.448 1.636)" fill="#37a3a5"/><rect width="4.1" height="11.586" transform="translate(139.323 1.636)" fill="#37a3a5"/><rect width="4.1" height="11.586" transform="translate(134.131 1.636)" fill="#37a3a5"/><rect width="4.099" height="11.586" transform="translate(128.941 1.636)" fill="#37a3a5"/><rect width="4.1" height="11.586" transform="translate(123.638 1.636)" fill="#37a3a5"/><rect width="4.1" height="11.586" transform="translate(118.445 1.636)" fill="#37a3a5"/><rect width="4.1" height="11.586" transform="translate(113.256 1.636)" fill="#37a3a5"/><rect width="32.35" height="4.294" rx="2.147" transform="translate(58.358 3.271)" fill="#fff"/><ellipse cx="3.229" cy="3.816" rx="3.229" ry="3.816" transform="translate(27.491 4.225)" fill="#21587b"/><ellipse cx="3.229" cy="3.816" rx="3.229" ry="3.816" transform="translate(18.186 4.225)" fill="#21587b"/><ellipse cx="3.229" cy="3.816" rx="3.229" ry="3.816" transform="translate(8.881 4.225)" fill="#21587b"/></g><g transform="translate(13.378 276.554)"><rect width="151.776" height="15.538" fill="#242638"/><rect width="4.1" height="11.586" transform="translate(144.448 1.636)" fill="#37a3a5"/><rect width="4.1" height="11.586" transform="translate(139.323 1.636)" fill="#37a3a5"/><rect width="4.1" height="11.586" transform="translate(134.131 1.636)" fill="#37a3a5"/><rect width="4.099" height="11.586" transform="translate(128.941 1.636)" fill="#37a3a5"/><rect width="4.1" height="11.586" transform="translate(123.638 1.636)" fill="#37a3a5"/><rect width="32.35" height="4.293" rx="2.147" transform="translate(58.358 3.271)" fill="#fff"/><path d="M2053.167,677.8a3.275,3.275,0,1,0-3.23,3.816A3.56,3.56,0,0,0,2053.167,677.8Z" transform="translate(-2019.217 -669.76)" fill="#21587b"/><path d="M2038.145,677.8a3.275,3.275,0,1,0-3.229,3.816A3.56,3.56,0,0,0,2038.145,677.8Z" transform="translate(-2013.5 -669.76)" fill="#21587b"/><path d="M2023.123,677.8a3.275,3.275,0,1,0-3.229,3.816A3.56,3.56,0,0,0,2023.123,677.8Z" transform="translate(-2007.784 -669.76)" fill="#21587b"/></g><g transform="translate(13.378 295.977)"><rect width="151.776" height="15.538" fill="#242638"/><rect width="4.1" height="11.586" transform="translate(144.448 1.636)" fill="#37a3a5"/><rect width="4.1" height="11.586" transform="translate(139.323 1.636)" fill="#37a3a5"/><rect width="4.1" height="11.586" transform="translate(134.131 1.636)" fill="#37a3a5"/><rect width="32.35" height="4.293" rx="2.147" transform="translate(58.358 3.271)" fill="#fff"/><path d="M2053.167,709.156a3.275,3.275,0,1,0-3.23,3.816A3.56,3.56,0,0,0,2053.167,709.156Z" transform="translate(-2019.217 -701.115)" fill="#21587b"/><path d="M2038.145,709.156a3.275,3.275,0,1,0-3.229,3.816A3.56,3.56,0,0,0,2038.145,709.156Z" transform="translate(-2013.5 -701.115)" fill="#21587b"/><path d="M2023.123,709.156a3.275,3.275,0,1,0-3.229,3.816A3.56,3.56,0,0,0,2023.123,709.156Z" transform="translate(-2007.784 -701.115)" fill="#37a3a5"/></g><g transform="translate(13.378 88.596)"><rect width="151.776" height="33.803" fill="#242638"/></g><g transform="translate(13.378 211.812)"><rect width="151.776" height="33.803" fill="#242638"/></g><g transform="translate(13.378 325.759)"><rect width="151.776" height="33.803" fill="#242638"/></g><g transform="translate(137.129 399.634)"><rect width="29.756" height="3.68" rx="1.84" fill="#242638"/><rect width="29.756" height="3.68" rx="1.84" transform="translate(0 7.565)" fill="#242638"/><rect width="29.756" height="3.68" rx="1.84" transform="translate(0 19.014)" fill="#242638"/><rect width="29.756" height="3.68" rx="1.84" transform="translate(0 26.579)" fill="#242638"/><rect width="29.756" height="3.68" rx="1.84" transform="translate(0 38.641)" fill="#242638"/><rect width="29.756" height="3.68" rx="1.84" transform="translate(0 46.206)" fill="#242638"/></g><g transform="translate(75.369 399.634)"><path d="M1.84,0H27.915a1.84,1.84,0,0,1,1.84,1.84v0a1.84,1.84,0,0,1-1.84,1.84H1.84A1.84,1.84,0,0,1,0,1.84v0A1.84,1.84,0,0,1,1.84,0Z" fill="#242638"/><path d="M1.84,0H27.915a1.84,1.84,0,0,1,1.84,1.84v0a1.84,1.84,0,0,1-1.84,1.84H1.84A1.84,1.84,0,0,1,0,1.84v0A1.84,1.84,0,0,1,1.84,0Z" transform="translate(0 7.565)" fill="#242638"/><path d="M1.84,0H27.915a1.84,1.84,0,0,1,1.84,1.84v0a1.84,1.84,0,0,1-1.84,1.84H1.84A1.84,1.84,0,0,1,0,1.84v0A1.84,1.84,0,0,1,1.84,0Z" transform="translate(0 19.014)" fill="#242638"/><path d="M1.84,0H27.915a1.84,1.84,0,0,1,1.84,1.84v0a1.84,1.84,0,0,1-1.84,1.84H1.84A1.84,1.84,0,0,1,0,1.84v0A1.84,1.84,0,0,1,1.84,0Z" transform="translate(0 26.579)" fill="#242638"/><path d="M1.84,0H27.915a1.84,1.84,0,0,1,1.84,1.84v0a1.84,1.84,0,0,1-1.84,1.84H1.84A1.84,1.84,0,0,1,0,1.84v0A1.84,1.84,0,0,1,1.84,0Z" transform="translate(0 38.641)" fill="#242638"/><path d="M1.84,0H27.915a1.84,1.84,0,0,1,1.84,1.84v0a1.84,1.84,0,0,1-1.84,1.84H1.84A1.84,1.84,0,0,1,0,1.84v0A1.84,1.84,0,0,1,1.84,0Z" transform="translate(0 46.206)" fill="#242638"/></g><g transform="translate(13.955 399.634)"><path d="M1.84,0H27.915a1.84,1.84,0,0,1,1.84,1.84v0a1.84,1.84,0,0,1-1.84,1.84H1.84A1.84,1.84,0,0,1,0,1.84v0A1.84,1.84,0,0,1,1.84,0Z" fill="#242638"/><path d="M1.84,0H27.915a1.84,1.84,0,0,1,1.84,1.84v0a1.84,1.84,0,0,1-1.84,1.84H1.84A1.84,1.84,0,0,1,0,1.84v0A1.84,1.84,0,0,1,1.84,0Z" transform="translate(0 7.565)" fill="#242638"/><path d="M1.84,0H27.915a1.84,1.84,0,0,1,1.84,1.84v0a1.84,1.84,0,0,1-1.84,1.84H1.84A1.84,1.84,0,0,1,0,1.84v0A1.84,1.84,0,0,1,1.84,0Z" transform="translate(0 19.014)" fill="#242638"/><path d="M1.84,0H27.915a1.84,1.84,0,0,1,1.84,1.84v0a1.84,1.84,0,0,1-1.84,1.84H1.84A1.84,1.84,0,0,1,0,1.84v0A1.84,1.84,0,0,1,1.84,0Z" transform="translate(0 26.579)" fill="#242638"/><path d="M1.84,0H27.916a1.84,1.84,0,0,1,1.84,1.84v0a1.84,1.84,0,0,1-1.84,1.84H1.84A1.84,1.84,0,0,1,0,1.84v0A1.84,1.84,0,0,1,1.84,0Z" transform="translate(0 38.641)" fill="#242638"/><path d="M1.84,0H27.915a1.84,1.84,0,0,1,1.84,1.84v0a1.84,1.84,0,0,1-1.84,1.84H1.84A1.84,1.84,0,0,1,0,1.84v0A1.84,1.84,0,0,1,1.84,0Z" transform="translate(0 46.206)" fill="#242638"/></g></g><path d="M1936.725,722.123c7.906,0,22.9-1.091,22.9,19.354s-2.453,55.066,10.632,55.066,12.54-18.81,12.54-52.885,1.09-32.712,5.452-32.712" transform="translate(-96.855 -186.551)" fill="none" stroke="#37a3a5" stroke-miterlimit="10" stroke-width="2.64"/><rect width="9.814" height="221.353" transform="translate(1848.593 457.063)" fill="#d4dee8"/><path d="M1936.725,728.67c6.27,0,16.9.273,16.9,11.995s-9.268,106.587,15.266,106.587,24.807-29.441,24.807-64.879-2.726-71.421,4.089-71.421" transform="translate(-96.855 -186.555)" fill="none" stroke="#21587b" stroke-miterlimit="10" stroke-width="2.64"/><rect width="9.814" height="221.353" transform="translate(1749.094 457.063)" fill="#d4dee8"/><rect width="19.082" height="116.673" transform="translate(1861.133 454.337) rotate(90)" fill="#d4dee8"/><path d="M1951.342,591.913c11.858,0,9.813,10.222,9.813,35.984s-5.861,35.37-26.852,35.37" transform="translate(-95.933 -141.256)" fill="none" stroke="#37a3a5" stroke-miterlimit="10" stroke-width="2.64"/><rect width="10.086" height="104.679" transform="translate(1855.408 551.656) rotate(90)" fill="#d4dee8"/><g transform="translate(1744.489 393.195)"><path d="M1929.048,499.152l-82.908,1.138-10.658,60.591,82.356-.323Z" transform="translate(-1802.816 -499.152)" fill="#242638"/><rect width="52.822" height="5.245" transform="translate(0 56.557) rotate(-0.786)" fill="#242638"/><path d="M1919.7,537.57a7.118,7.118,0,1,0-7.019,7.215A7.118,7.118,0,0,0,1919.7,537.57Z" transform="translate(-1829.449 -511.1)" fill="#fff"/></g><g transform="translate(1766.677 531.62)"><rect width="76.465" height="20.036" fill="#a9bdd2"/><path d="M1888.722,741.163h-60.109a3.9,3.9,0,0,1-3.885-3.885h0a3.9,3.9,0,0,1,3.885-3.885h60.109a3.9,3.9,0,0,1,3.884,3.885h0A3.9,3.9,0,0,1,1888.722,741.163Z" transform="translate(-1820.911 -726.715)" fill="#242638"/><circle cx="2.59" cy="2.59" r="2.59" transform="translate(63.755 8.042)" fill="#21587b"/><circle cx="2.59" cy="2.59" r="2.59" transform="translate(57.11 8.042)" fill="#21587b"/><path d="M1904.884,738.184a2.59,2.59,0,1,0-2.59,2.59A2.59,2.59,0,0,0,1904.884,738.184Z" transform="translate(-1849.443 -727.553)" fill="#21587b"/><path d="M1894.157,738.184a2.59,2.59,0,1,0-2.59,2.59A2.59,2.59,0,0,0,1894.157,738.184Z" transform="translate(-1845.361 -727.553)" fill="#21587b"/><circle cx="2.59" cy="2.59" r="2.59" transform="translate(36.869 8.042)" fill="#21587b"/><circle cx="2.59" cy="2.59" r="2.59" transform="translate(30.225 8.042)" fill="#21587b"/></g><g transform="translate(1766.783 510.629)"><rect width="76.465" height="20.036" fill="#a9bdd2"/><path d="M1888.893,707.278h-60.108a3.9,3.9,0,0,1-3.885-3.885h0a3.9,3.9,0,0,1,3.885-3.885h60.108a3.9,3.9,0,0,1,3.885,3.885h0A3.9,3.9,0,0,1,1888.893,707.278Z" transform="translate(-1821.083 -692.83)" fill="#242638"/><path d="M1926.839,704.3a2.59,2.59,0,1,0-2.59,2.59A2.59,2.59,0,0,0,1926.839,704.3Z" transform="translate(-1857.904 -693.667)" fill="#37a3a5"/><circle cx="2.59" cy="2.59" r="2.59" transform="translate(57.11 8.042)" fill="#37a3a5"/><path d="M1905.055,704.3a2.59,2.59,0,1,0-2.589,2.59A2.59,2.59,0,0,0,1905.055,704.3Z" transform="translate(-1849.615 -693.667)" fill="#37a3a5"/><path d="M1894.329,704.3a2.59,2.59,0,1,0-2.59,2.59A2.59,2.59,0,0,0,1894.329,704.3Z" transform="translate(-1845.533 -693.667)" fill="#37a3a5"/><circle cx="2.59" cy="2.59" r="2.59" transform="translate(36.869 8.042)" fill="#37a3a5"/><circle cx="2.59" cy="2.59" r="2.59" transform="translate(30.225 8.042)" fill="#37a3a5"/></g><line x2="76.465" transform="translate(1766.677 531.483)" fill="none" stroke="#242638" stroke-miterlimit="10" stroke-width="2.64"/></g></svg>