<?xml version="1.0" encoding="utf-8"?>
<!-- Generator: Adobe Illustrator 25.2.3, SVG Export Plug-In . SVG Version: 6.00 Build 0)  -->
<svg version="1.1" id="Capa_1" xmlns="http://www.w3.org/2000/svg" xmlns:xlink="http://www.w3.org/1999/xlink" x="0px" y="0px"
	 viewBox="0 0 220 220" enable-background="new 0 0 220 220" xml:space="preserve">
<g transform="translate(-378.843 -13447.053)">
	<g transform="translate(-53.223 13013.297)">
		<path fill="#37A3A5" d="M602.4,503.9c4.1-37.7-32.5-50.9-58.4-41.2c-26.2,9.7-32.2-6.4-69-1.8c-37.2,4.7-18.3,63.1-18.3,63.1
			s5.9,50.8,12.9,74.3c7,23.3,73.8,14.9,90.1,14.2c16.2-0.7,30.2,0.6,44.3-24.9C618,562,598.3,541.6,602.4,503.9z"/>
		<g transform="translate(432.065 433.756)">
			<g transform="translate(0 69.796)">
				<g transform="translate(0 2.901)">
					<path opacity="0.863" fill="#C1C9EE" enable-background="new    " d="M3.5,91.5c0-1.3,0-2.7,0-4c0,0,0,0,0,0
						c0-1.7,1.1-3.2,3-4.4l124.9-72.7c4.3-2.2,9.3-2.2,13.6,0l52.9,30.5c2,1.1,3.1,2.7,3.1,4.4c0,0,0,0.1,0,0.1l0,4.7
						c0,0.1,0,0.1,0,0.2c0,0.1,0,0.3,0,0.4c0,0.1,0,0.2-0.1,0.3c0,0-0.1,0.2-0.1,0.2v0.1l-0.1,0.1c0,0.1,0,0.1-0.1,0.1
						c0,0.1-0.1,0.2-0.2,0.3l0,0.1c0,0-0.1,0.1-0.1,0.1c0,0.1-0.2,0.3-0.2,0.3l-0.1,0.2l-0.1,0l-0.1,0.1c-0.1,0.1-0.3,0.3-0.5,0.5
						c0,0-0.1,0.1-0.1,0.1l-0.1,0c-0.1,0.1-0.1,0.1-0.2,0.2l-0.1,0.1c-0.1,0.1-0.1,0.1-0.2,0.2c-0.1,0.1-0.2,0.2-0.3,0.2l-0.5-0.6
						l0.4,0.7c-0.1,0-0.1,0.1-0.2,0.1L73,127.1c-0.4,0.2-0.9,0.5-1.4,0.6c-0.1,0.1-0.3,0.1-0.4,0.1l-0.1,0c-0.1,0-0.2,0.1-0.3,0.1
						c-0.3,0.1-0.7,0.2-1,0.3c-0.1,0-0.1,0-0.2,0l-0.2,0c-0.1,0-0.3,0.1-0.5,0.1c-0.3,0-0.5,0.1-0.8,0.1c-0.1,0-0.2,0-0.3,0l0,0
						h-0.1l-0.1,0c-0.4,0-0.7,0.1-1,0.1c-0.1,0-0.1,0-0.2,0l-0.8,0h0c-0.3,0-0.6,0-0.9-0.1c-0.1,0-0.2,0-0.3,0c-0.1,0-0.2,0-0.3,0
						l-0.3,0c-0.3,0-0.6-0.1-1-0.2c-0.1,0-0.2,0-0.2-0.1c-0.1,0-0.2,0-0.3-0.1l-0.5-0.1c-0.3-0.1-0.5-0.2-0.8-0.3l-0.3-0.1l-0.1,0
						c-0.5-0.2-1-0.4-1.4-0.7l-0.4-0.2v0L6.5,96.6c-2-1.1-3.1-2.7-3.1-4.4L3.5,91.5z"/>
					<path opacity="0.882" fill="#BFC7ED" enable-background="new    " d="M3,91.5c0-1.3,0-2.7,0-4c0,0,0,0,0,0c0-1.7,1.1-3.2,3-4.4
						L131,10.4c4.3-2.2,9.3-2.2,13.6,0l52.9,30.5c2,1.1,3.1,2.7,3.1,4.4c0,0,0,0.1,0,0.1l0,4.7c0,0.1,0,0.1,0,0.2c0,0.1,0,0.3,0,0.4
						c0,0.1,0,0.2-0.1,0.3c0,0-0.1,0.2-0.1,0.2v0.1l-0.1,0.1c0,0.1,0,0.1-0.1,0.1c0,0.1-0.1,0.2-0.2,0.3l0,0.1c0,0-0.1,0.1-0.1,0.1
						c0,0.1-0.2,0.3-0.2,0.3l-0.1,0.2l-0.1,0l-0.1,0.1c-0.1,0.1-0.3,0.3-0.5,0.5c0,0-0.1,0.1-0.1,0.1l-0.1,0
						c-0.1,0.1-0.1,0.1-0.2,0.2l-0.1,0.1c-0.1,0.1-0.1,0.1-0.2,0.2c-0.1,0.1-0.2,0.2-0.3,0.2l-0.5-0.6l0.4,0.7
						c-0.1,0-0.1,0.1-0.2,0.1l-125,72.8c-0.4,0.2-0.9,0.5-1.4,0.6c-0.1,0.1-0.3,0.1-0.4,0.1l-0.1,0c-0.1,0-0.2,0.1-0.3,0.1
						c-0.3,0.1-0.7,0.2-1,0.3c-0.1,0-0.1,0-0.2,0l-0.2,0c-0.1,0-0.3,0.1-0.5,0.1c-0.3,0-0.5,0.1-0.8,0.1c-0.1,0-0.2,0-0.3,0l0,0
						h-0.1l-0.1,0c-0.4,0-0.7,0.1-1,0.1c-0.1,0-0.1,0-0.2,0l-0.8,0h0c-0.3,0-0.6,0-0.9-0.1c-0.1,0-0.2,0-0.3,0c-0.1,0-0.2,0-0.3,0
						l-0.3,0c-0.3,0-0.6-0.1-1-0.2c-0.1,0-0.2,0-0.2-0.1c-0.1,0-0.2,0-0.3-0.1l-0.5-0.1c-0.3-0.1-0.5-0.2-0.8-0.3l-0.3-0.1l-0.1,0
						c-0.5-0.2-1-0.4-1.4-0.7l-0.4-0.2v0L6.1,96.6c-2-1.1-3.1-2.7-3.1-4.4L3,91.5z"/>
					<path opacity="0.902" fill="#BEC6ED" enable-background="new    " d="M2.6,91.5c0-1.3,0-2.7,0-4c0,0,0,0,0,0
						c0-1.7,1.1-3.2,3-4.4l124.9-72.7c4.3-2.2,9.3-2.2,13.6,0l52.9,30.5c2,1.1,3.1,2.7,3.1,4.4c0,0,0,0.1,0,0.1l0,4.7
						c0,0.1,0,0.1,0,0.2c0,0.1,0,0.3,0,0.4c0,0.1,0,0.2-0.1,0.3c0,0-0.1,0.2-0.1,0.2v0.1l-0.1,0.1c0,0.1,0,0.1-0.1,0.1
						c0,0.1-0.1,0.2-0.2,0.3l0,0.1c0,0-0.1,0.1-0.1,0.1c0,0.1-0.2,0.3-0.2,0.3l-0.1,0.2l-0.1,0l-0.1,0.1c-0.1,0.1-0.3,0.3-0.5,0.5
						c0,0-0.1,0.1-0.1,0.1l-0.1,0c-0.1,0.1-0.1,0.1-0.2,0.2l-0.1,0.1c-0.1,0.1-0.1,0.1-0.2,0.2c-0.1,0.1-0.2,0.2-0.3,0.2l-0.5-0.6
						l0.4,0.7c-0.1,0-0.1,0.1-0.2,0.1l-125,72.8c-0.4,0.2-0.9,0.5-1.4,0.6c-0.1,0.1-0.3,0.1-0.4,0.1l-0.1,0c-0.1,0-0.2,0.1-0.3,0.1
						c-0.3,0.1-0.7,0.2-1,0.3c-0.1,0-0.1,0-0.2,0l-0.2,0c-0.1,0-0.3,0.1-0.5,0.1c-0.3,0-0.5,0.1-0.8,0.1c-0.1,0-0.2,0-0.3,0l0,0
						h-0.1l-0.1,0c-0.4,0-0.7,0.1-1,0.1c-0.1,0-0.1,0-0.2,0l-0.8,0h0c-0.3,0-0.6,0-0.9-0.1c-0.1,0-0.2,0-0.3,0c-0.1,0-0.2,0-0.3,0
						l-0.3,0c-0.3,0-0.6-0.1-1-0.2c-0.1,0-0.2,0-0.2-0.1c-0.1,0-0.2,0-0.3-0.1l-0.5-0.1c-0.3-0.1-0.5-0.2-0.8-0.3l-0.3-0.1l-0.1,0
						c-0.5-0.2-1-0.4-1.4-0.7l-0.4-0.2v0L5.7,96.6c-2-1.1-3.1-2.7-3.1-4.4L2.6,91.5z"/>
					<path opacity="0.922" fill="#BDC5ED" enable-background="new    " d="M2.2,91.5c0-1.3,0-2.7,0-4c0,0,0,0,0,0
						c0-1.7,1.1-3.2,3-4.4l124.9-72.7c4.3-2.2,9.3-2.2,13.6,0l52.9,30.5c2,1.1,3.1,2.7,3.1,4.4c0,0,0,0.1,0,0.1l0,4.7
						c0,0.1,0,0.1,0,0.2c0,0.1,0,0.3,0,0.4c0,0.1,0,0.2-0.1,0.3c0,0-0.1,0.2-0.1,0.2v0.1l-0.1,0.1c0,0.1,0,0.1-0.1,0.1
						c0,0.1-0.1,0.2-0.2,0.3l0,0.1c0,0-0.1,0.1-0.1,0.1c0,0.1-0.2,0.3-0.2,0.3l-0.1,0.2l-0.1,0l-0.1,0.1c-0.1,0.1-0.3,0.3-0.5,0.5
						c0,0-0.1,0.1-0.1,0.1l-0.1,0c-0.1,0.1-0.1,0.1-0.2,0.2l-0.1,0.1c-0.1,0.1-0.1,0.1-0.2,0.2c-0.1,0.1-0.2,0.2-0.3,0.2l-0.5-0.6
						l0.4,0.7c-0.1,0-0.1,0.1-0.2,0.1l-125,72.8c-0.4,0.2-0.9,0.5-1.4,0.6c-0.1,0.1-0.3,0.1-0.4,0.1l-0.1,0c-0.1,0-0.2,0.1-0.3,0.1
						c-0.3,0.1-0.7,0.2-1,0.3c-0.1,0-0.1,0-0.2,0l-0.2,0c-0.1,0-0.3,0.1-0.5,0.1c-0.3,0-0.5,0.1-0.8,0.1c-0.1,0-0.2,0-0.3,0l0,0
						h-0.1l-0.1,0c-0.4,0-0.7,0.1-1,0.1c-0.1,0-0.1,0-0.2,0l-0.8,0h0c-0.3,0-0.6,0-0.9-0.1c-0.1,0-0.2,0-0.3,0c-0.1,0-0.2,0-0.3,0
						l-0.3,0c-0.3,0-0.6-0.1-1-0.2c-0.1,0-0.2,0-0.2-0.1c-0.1,0-0.2,0-0.3-0.1l-0.5-0.1c-0.3-0.1-0.5-0.2-0.8-0.3l-0.3-0.1l-0.1,0
						c-0.5-0.2-1-0.4-1.4-0.7l-0.4-0.2v0L5.3,96.6c-2-1.1-3.1-2.7-3.1-4.4V91.5z"/>
					<path opacity="0.941" fill="#BBC4EC" enable-background="new    " d="M1.8,91.5c0-1.3,0-2.7,0-4c0,0,0,0,0,0
						c0-1.7,1.1-3.2,3-4.4l124.9-72.7c4.3-2.2,9.3-2.2,13.6,0l52.9,30.5c2,1.1,3.1,2.7,3.1,4.4c0,0,0,0.1,0,0.1l0,4.7
						c0,0.1,0,0.1,0,0.2c0,0.1,0,0.3,0,0.4c0,0.1,0,0.2-0.1,0.3c0,0-0.1,0.2-0.1,0.2v0.1l-0.1,0.1c0,0.1,0,0.1-0.1,0.1
						c0,0.1-0.1,0.2-0.2,0.3l0,0.1c0,0-0.1,0.1-0.1,0.1c0,0.1-0.2,0.3-0.2,0.3l-0.1,0.2l-0.1,0l-0.1,0.1c-0.1,0.1-0.3,0.3-0.5,0.5
						c0,0-0.1,0.1-0.1,0.1l-0.1,0c-0.1,0.1-0.1,0.1-0.2,0.2l-0.1,0.1c-0.1,0.1-0.1,0.1-0.2,0.2c-0.1,0.1-0.2,0.2-0.3,0.2l-0.5-0.6
						l0.4,0.7c-0.1,0-0.1,0.1-0.2,0.1l-125,72.8c-0.4,0.2-0.9,0.5-1.4,0.6c-0.1,0.1-0.3,0.1-0.4,0.1l-0.1,0c-0.1,0-0.2,0.1-0.3,0.1
						c-0.3,0.1-0.7,0.2-1,0.3c-0.1,0-0.1,0-0.2,0l-0.2,0c-0.1,0-0.3,0.1-0.5,0.1c-0.3,0-0.5,0.1-0.8,0.1c-0.1,0-0.2,0-0.3,0l0,0
						h-0.1l-0.1,0c-0.4,0-0.7,0.1-1,0.1c-0.1,0-0.1,0-0.2,0l-0.8,0h0c-0.3,0-0.6,0-0.9-0.1c-0.1,0-0.2,0-0.3,0c-0.1,0-0.2,0-0.3,0
						l-0.3,0c-0.3,0-0.6-0.1-1-0.2c-0.1,0-0.2,0-0.2-0.1c-0.1,0-0.2,0-0.3-0.1l-0.5-0.1c-0.3-0.1-0.5-0.2-0.8-0.3l-0.3-0.1l-0.1,0
						c-0.5-0.2-1-0.4-1.4-0.7l-0.4-0.2v0L4.8,96.6c-2-1.1-3.1-2.7-3.1-4.4V91.5z"/>
					<path opacity="0.961" fill="#BAC2EC" enable-background="new    " d="M1.4,91.5c0-1.3,0-2.7,0-4c0,0,0,0,0,0
						c0-1.7,1.1-3.2,3-4.4l124.9-72.7c4.3-2.2,9.3-2.2,13.6,0l52.9,30.5c2,1.1,3.1,2.7,3.1,4.4c0,0,0,0.1,0,0.1l0,4.7
						c0,0.1,0,0.1,0,0.2c0,0.1,0,0.3,0,0.4c0,0.1,0,0.2-0.1,0.3c0,0-0.1,0.2-0.1,0.2v0.1l-0.1,0.1c0,0.1,0,0.1-0.1,0.1
						c0,0.1-0.1,0.2-0.2,0.3l0,0.1c0,0-0.1,0.1-0.1,0.1l-0.2,0.3l-0.1,0.2l-0.1,0l-0.1,0.1c-0.1,0.1-0.3,0.3-0.5,0.5
						c0,0-0.1,0.1-0.1,0.1l-0.1,0c-0.1,0.1-0.1,0.1-0.2,0.2l-0.1,0.1c-0.1,0.1-0.1,0.1-0.2,0.2c-0.1,0.1-0.2,0.2-0.3,0.2l-0.5-0.6
						l0.4,0.7c-0.1,0-0.1,0.1-0.2,0.1l-125,72.8c-0.4,0.2-0.9,0.5-1.4,0.6c-0.1,0.1-0.3,0.1-0.4,0.1l-0.1,0c-0.1,0-0.2,0.1-0.3,0.1
						c-0.3,0.1-0.7,0.2-1,0.3c-0.1,0-0.1,0-0.2,0l-0.2,0c-0.1,0-0.3,0.1-0.5,0.1c-0.3,0-0.5,0.1-0.8,0.1c-0.1,0-0.2,0-0.3,0l0,0
						h-0.1l-0.1,0c-0.4,0-0.7,0.1-1,0.1c-0.1,0-0.1,0-0.2,0l-0.8,0h0c-0.3,0-0.6,0-0.9-0.1c-0.1,0-0.2,0-0.3,0c-0.1,0-0.2,0-0.3,0
						l-0.3,0c-0.3,0-0.6-0.1-1-0.2c-0.1,0-0.2,0-0.2-0.1c-0.1,0-0.2,0-0.3-0.1l-0.5-0.1c-0.3-0.1-0.5-0.2-0.8-0.3l-0.3-0.1l-0.1,0
						c-0.5-0.2-1-0.4-1.4-0.7l-0.4-0.2v0L4.4,96.6c-2-1.1-3.1-2.7-3.1-4.4L1.4,91.5z"/>
					<path opacity="0.98" fill="#B8C1EB" enable-background="new    " d="M0.9,91.5c0-1.3,0-2.7,0-4c0,0,0,0,0,0
						c0-1.7,1.1-3.2,3-4.4l124.9-72.7c4.3-2.2,9.3-2.2,13.6,0l52.9,30.5c2,1.1,3.1,2.7,3.1,4.4c0,0,0,0.1,0,0.1l0,4.7
						c0,0.1,0,0.1,0,0.2c0,0.1,0,0.3,0,0.4c0,0.1,0,0.2-0.1,0.3c0,0-0.1,0.2-0.1,0.2v0.1l-0.1,0.1c0,0.1,0,0.1-0.1,0.1
						c0,0.1-0.1,0.2-0.2,0.3l0,0.1c0,0-0.1,0.1-0.1,0.1c0,0.1-0.2,0.3-0.2,0.3l-0.1,0.2l-0.1,0l-0.1,0.1c-0.1,0.1-0.3,0.3-0.5,0.5
						c0,0-0.1,0.1-0.1,0.1l-0.1,0c-0.1,0.1-0.1,0.1-0.2,0.2l-0.1,0.1c-0.1,0.1-0.1,0.1-0.2,0.2c-0.1,0.1-0.2,0.2-0.3,0.2l-0.5-0.6
						l0.4,0.7c-0.1,0-0.1,0.1-0.2,0.1l-125,72.8c-0.4,0.2-0.9,0.5-1.4,0.6c-0.1,0.1-0.3,0.1-0.4,0.1l-0.1,0c-0.1,0-0.2,0.1-0.3,0.1
						c-0.3,0.1-0.7,0.2-1,0.3c-0.1,0-0.1,0-0.2,0l-0.2,0c-0.1,0-0.3,0.1-0.5,0.1c-0.3,0-0.5,0.1-0.8,0.1c-0.1,0-0.2,0-0.3,0l0,0
						h-0.1l-0.1,0c-0.4,0-0.7,0.1-1,0.1c-0.1,0-0.1,0-0.2,0l-0.8,0h0c-0.3,0-0.6,0-0.9-0.1c-0.1,0-0.2,0-0.3,0c-0.1,0-0.2,0-0.3,0
						l-0.3,0c-0.3,0-0.6-0.1-1-0.2c-0.1,0-0.2,0-0.2-0.1c-0.1,0-0.2,0-0.3-0.1l-0.5-0.1c-0.3-0.1-0.5-0.2-0.8-0.3l-0.3-0.1l-0.1,0
						c-0.5-0.2-1-0.4-1.4-0.7l-0.4-0.2v0L4,96.6c-2-1.1-3.1-2.7-3.1-4.4V91.5z"/>
					<path fill="#B7C0EB" d="M0.5,91.5c0-1.3,0-2.7,0-4c0,0,0,0,0,0c0-1.7,1.1-3.2,3-4.4l124.9-72.7c4.3-2.2,9.3-2.2,13.6,0
						L195,40.9c2,1.1,3.1,2.7,3.1,4.4c0,0,0,0.1,0,0.1l0,4.7c0,0.1,0,0.1,0,0.2c0,0.1,0,0.3,0,0.4c0,0.1,0,0.2-0.1,0.3
						c0,0-0.1,0.2-0.1,0.2v0.1l-0.1,0.1c0,0.1,0,0.1-0.1,0.1c0,0.1-0.1,0.2-0.2,0.3l0,0.1c0,0-0.1,0.1-0.1,0.1
						c0,0.1-0.2,0.3-0.2,0.3l-0.1,0.2l-0.1,0l-0.1,0.1c-0.1,0.1-0.3,0.3-0.5,0.5c0,0-0.1,0.1-0.1,0.1l-0.1,0
						c-0.1,0.1-0.1,0.1-0.2,0.2l-0.1,0.1c-0.1,0.1-0.1,0.1-0.2,0.2c-0.1,0.1-0.2,0.2-0.3,0.2l-0.5-0.6l0.4,0.7
						c-0.1,0-0.1,0.1-0.2,0.1l-125,72.8c-0.4,0.2-0.9,0.5-1.4,0.6c-0.1,0.1-0.3,0.1-0.4,0.1l-0.1,0c-0.1,0-0.2,0.1-0.3,0.1
						c-0.3,0.1-0.7,0.2-1,0.3c-0.1,0-0.1,0-0.2,0l-0.2,0c-0.1,0-0.3,0.1-0.5,0.1c-0.3,0-0.5,0.1-0.8,0.1c-0.1,0-0.2,0-0.3,0l0,0H65
						l-0.1,0c-0.4,0-0.7,0.1-1,0.1c-0.1,0-0.1,0-0.2,0l-0.8,0h0c-0.3,0-0.6,0-0.9-0.1c-0.1,0-0.2,0-0.3,0c-0.1,0-0.2,0-0.3,0l-0.3,0
						c-0.3,0-0.6-0.1-1-0.2c-0.1,0-0.2,0-0.2-0.1c-0.1,0-0.2,0-0.3-0.1l-0.5-0.1c-0.3-0.1-0.5-0.2-0.8-0.3l-0.3-0.1l-0.1,0
						c-0.5-0.2-1-0.4-1.4-0.7l-0.4-0.2v0L3.6,96.6c-2-1.1-3.1-2.7-3.1-4.4L0.5,91.5z"/>
				</g>
				<path fill="#B7C0EB" d="M4,94.8c-1.8-1-2.7-2.4-2.7-3.7c0,1.6,0,3.1,0,4.7c0,1.4,0.9,2.7,2.7,3.7l52.9,30.5l0-4.7L4,94.8z"/>
				<path fill="#B7C0EB" d="M200.1,47.7c0,0.1,0,0.2,0,0.3c0,0.1,0,0.2-0.1,0.3c0,0.1,0,0.2-0.1,0.3c0,0.1-0.1,0.2-0.1,0.2
					c0,0.1-0.1,0.2-0.1,0.3c0,0.1-0.1,0.1-0.1,0.2c-0.1,0.1-0.1,0.2-0.2,0.3c0,0.1-0.1,0.1-0.1,0.2c-0.1,0.1-0.2,0.3-0.4,0.4
					c-0.1,0.1-0.1,0.1-0.2,0.2c-0.1,0.1-0.2,0.1-0.3,0.2c-0.1,0.1-0.2,0.1-0.3,0.2c-0.1,0.1-0.2,0.2-0.3,0.2
					c-0.1,0.1-0.2,0.2-0.3,0.2L69.7,125.4c-0.4,0.2-0.8,0.4-1.3,0.6c-0.1,0-0.2,0.1-0.4,0.1c-0.3,0.1-0.6,0.2-0.9,0.3
					c-0.3,0.1-0.6,0.2-0.9,0.2c-0.4,0.1-0.7,0.1-1.1,0.2c-0.1,0-0.2,0-0.3,0c-0.5,0.1-1,0.1-1.5,0.1c-0.1,0-0.2,0-0.3,0
					c-0.5,0-1,0-1.5-0.1c-0.1,0-0.2,0-0.2,0c-0.5-0.1-1-0.1-1.5-0.3c-0.1,0-0.2,0-0.2-0.1c-0.4-0.1-0.9-0.2-1.3-0.4
					c-0.1,0-0.1,0-0.2-0.1c-0.5-0.2-0.9-0.4-1.4-0.6l0,4.7c0.4,0.2,0.9,0.4,1.3,0.6c0,0,0,0,0.1,0c0.1,0,0.2,0.1,0.3,0.1
					c0.3,0.1,0.5,0.2,0.8,0.3c0.1,0,0.3,0.1,0.5,0.1c0.1,0,0.2,0,0.3,0.1c0.1,0,0.1,0,0.2,0c0.3,0.1,0.6,0.1,0.9,0.2
					c0.1,0,0.2,0,0.3,0c0.1,0,0.2,0,0.2,0c0.1,0,0.2,0,0.3,0c0.3,0,0.6,0,0.9,0.1c0.1,0,0.2,0,0.3,0h0.2c0.1,0,0.3,0,0.4,0
					c0.3,0,0.7,0,1-0.1c0,0,0.1,0,0.1,0c0.1,0,0.2,0,0.2,0c0.3,0,0.5-0.1,0.8-0.1c0.2,0,0.4-0.1,0.6-0.1c0.1,0,0.1,0,0.2,0
					c0.3-0.1,0.6-0.2,1-0.3c0.1,0,0.2-0.1,0.4-0.1c0.1,0,0.2-0.1,0.3-0.1c0.4-0.2,0.9-0.4,1.3-0.6l127.8-74.3l0.1-0.1
					c0.1,0,0.1-0.1,0.2-0.1c0.1-0.1,0.2-0.2,0.4-0.2c0.1-0.1,0.2-0.1,0.2-0.2c0.1-0.1,0.2-0.2,0.3-0.2c0,0,0,0,0,0
					c0,0,0.1-0.1,0.1-0.1c0.1-0.1,0.3-0.3,0.4-0.4c0,0,0.1-0.1,0.1-0.1c0,0,0-0.1,0.1-0.1c0.1-0.1,0.1-0.2,0.2-0.3
					c0,0,0.1-0.1,0.1-0.1c0,0,0,0,0-0.1c0.1-0.1,0.1-0.2,0.1-0.3c0,0,0.1-0.1,0.1-0.2c0,0,0,0,0,0c0-0.1,0.1-0.2,0.1-0.3
					c0-0.1,0-0.1,0-0.2c0,0,0,0,0,0c0-0.1,0-0.2,0-0.3c0-0.1,0-0.1,0-0.2c0,0,0-0.1,0-0.1c0-1.6,0-3.1,0-4.7
					C200.1,47.5,200.1,47.6,200.1,47.7z"/>
				<path fill="#FFFFFF" d="M63.7,130.7c0.1,0,0.1,0,0.2,0c0.3,0,0.7,0,1-0.1l0.1,0H65l0,0c0.1,0,0.2,0,0.3,0c0.2,0,0.5-0.1,0.8-0.1
					c0.2,0,0.3-0.1,0.5-0.1l0.2,0c0.1,0,0.1,0,0.2,0c0.3-0.1,0.7-0.2,1-0.3c0.1,0,0.2-0.1,0.3-0.1l0.1,0c0.1,0,0.2-0.1,0.4-0.1
					c0.5-0.2,0.9-0.4,1.4-0.6l127.9-74.3c0.1,0,0.1-0.1,0.2-0.1l0.1-0.1c0.1-0.1,0.2-0.1,0.3-0.2c0.1-0.1,0.1-0.1,0.2-0.2L199,54
					c0.1-0.1,0.2-0.1,0.2-0.2l0.1,0c0,0,0.1-0.1,0.1-0.1c0.2-0.2,0.3-0.3,0.5-0.5l0.1-0.1l0.1,0l0.1-0.2c0,0,0.2-0.3,0.2-0.3
					c0,0,0.1-0.1,0.1-0.1l0-0.1c0.1-0.1,0.1-0.2,0.2-0.3c0,0,0-0.1,0.1-0.1l0.1-0.1v-0.1c0-0.1,0.1-0.2,0.1-0.2
					c0-0.1,0.1-0.2,0.1-0.3c0-0.1,0-0.3,0-0.4c0-0.1,0-0.1,0-0.2l0-4.8h-1.6c0,0.1,0,0.1,0,0.2c0,0,0,0.2,0,0.2l-0.1,0.2l0,0.2
					c0,0,0,0.1-0.1,0.1c-0.1,0.1-0.1,0.2-0.1,0.3c0,0-0.1,0.1-0.1,0.1c-0.1,0.1-0.1,0.2-0.2,0.3l-0.1,0.2c-0.1,0.1-0.2,0.2-0.3,0.3
					l-0.2,0.2c0,0-0.1,0.1-0.2,0.2l-0.1,0.1c-0.1,0-0.1,0.1-0.2,0.1c-0.1,0.1-0.2,0.1-0.3,0.2c-0.1,0.1-0.2,0.2-0.3,0.2L69.3,123
					c-0.4,0.2-0.8,0.4-1.2,0.5l-0.3,0.1c-0.3,0.1-0.5,0.2-0.8,0.2l-0.2,0c-0.2,0.1-0.5,0.1-0.7,0.2c-0.3,0.1-0.7,0.1-1,0.2l-0.3,0
					c-0.4,0-0.9,0.1-1.4,0.1c-0.1,0-0.2,0-0.2,0c-0.4,0-0.9,0-1.4-0.1c0,0-0.1,0-0.2,0c-0.5-0.1-0.9-0.1-1.4-0.2l-0.3-0.1
					c-0.4-0.1-0.8-0.2-1.2-0.4c0,0-0.1,0-0.1,0c-0.5-0.2-0.9-0.4-1.3-0.6l-1.2-0.7l0,6.5l0.4,0.2c0.5,0.3,0.9,0.5,1.4,0.7l0.1,0
					l0.3,0.1c0.3,0.1,0.5,0.2,0.8,0.3l0.5,0.1c0.1,0,0.2,0,0.3,0.1c0.1,0,0.1,0,0.2,0.1c0.3,0.1,0.6,0.1,1,0.2l0.3,0
					c0.1,0,0.2,0,0.3,0c0.1,0,0.2,0,0.3,0c0.3,0,0.6,0,0.9,0.1h0L63.7,130.7z"/>
				<g transform="translate(0.021 0)">
					<path fill="#FFFFFF" d="M56.5,124.4L3.6,93.8c-2-1.1-3.1-2.7-3.1-4.4s1.1-3.2,3-4.4l127.8-74.3c4.3-2.2,9.3-2.2,13.6,0
						l52.9,30.5c2,1.1,3.1,2.7,3.1,4.4s-1.1,3.2-3,4.4L70.1,124.4C65.8,126.6,60.7,126.6,56.5,124.4z M132.2,15.8L10.7,86.4
						c-0.6,0.3-0.9,0.8-0.9,1.2s0.3,0.9,0.9,1.2l52.9,30.5c1.8,0.9,3.9,0.9,5.6,0l121.5-70.6c0.6-0.3,0.9-0.8,0.9-1.2
						s-0.3-0.8-0.9-1.2l-52.9-30.5c-0.9-0.5-1.8-0.7-2.8-0.7C134,15.1,133,15.4,132.2,15.8z"/>
					
						<linearGradient id="SVGID_1_" gradientUnits="userSpaceOnUse" x1="-569.8099" y1="422.9665" x2="-569.5753" y2="422.9665" gradientTransform="matrix(229.6991 0 0 -133.2213 130934.8203 56415.7344)">
						<stop  offset="0" style="stop-color:#F1F4FE"/>
						<stop  offset="0.58" style="stop-color:#F6F8FE"/>
						<stop  offset="1" style="stop-color:#FFFFFF"/>
					</linearGradient>
					<path fill="url(#SVGID_1_)" d="M197.4,42c3.5,2.1,3.6,5.4,0,7.4L69.7,123.7c-4,2-8.8,2-12.8,0L4,93.2c-3.5-2-3.6-5.4,0-7.4
						l127.8-74.3c4-2,8.8-2,12.8,0L197.4,42z M69.6,120l121.5-70.6c1.8-1,1.7-2.7,0-3.7l-52.9-30.5c-2-1-4.4-1-6.4,0L10.3,85.8
						c-1.8,1-1.7,2.7,0,3.7L63.2,120C65.2,121,67.6,121,69.6,120"/>
				</g>
				<g transform="translate(9.791 6.046)">
					<path fill="#12263F" d="M181.3,39.6c1.8,1,1.8,2.7,0,3.7L59.8,114c-2,1-4.4,1-6.4,0L0.5,83.4c-1.8-1-1.8-2.7,0-3.7L122,9.1
						c2-1,4.4-1,6.4,0L181.3,39.6z"/>
					<path fill="#B0C0D2" d="M122.5,77.5L149.3,62l-14.7-49.3l-6.1-3.5c-2-1-4.4-1-6.4,0L105,19L122.5,77.5z"/>
					<path fill="#B0C0D2" d="M111.3,84l6.4-3.7l-17.5-58.6l-6.4,3.7L111.3,84z"/>
				</g>
				<path fill="#FFFFFF" d="M57.6,123.2L4.4,92.5c-1.5-0.8-2.3-1.9-2.3-3.1l-1.6,0l0.7,0l-0.7,0c0,1.3,0,2.7,0,4v0.7
					c0,1.7,1.1,3.3,3.1,4.4l52.9,30.5L57.6,123.2z"/>
				<g transform="translate(181.655 15.82)">
					<g>
						<path fill="#37A3A5" d="M-23.6,7.2c0.5-0.2,1-0.2,1.4,0l13.8,8c0.2,0.1,0.4,0.3,0.3,0.6c0,0.1-0.1,0.2-0.3,0.3c0,0,0,0,0,0
							c-0.5,0.2-1,0.2-1.5,0l-13.8-8C-23.8,8-24,7.7-23.9,7.5C-23.8,7.3-23.7,7.2-23.6,7.2C-23.6,7.2-23.6,7.2-23.6,7.2"/>
					</g>
				</g>
				<path fill="#EFF1FE" d="M4,93.2c-1.8-1-2.7-2.4-2.7-3.7c0,1.6,0,3.1,0,4.7c0,1.4,0.9,2.7,2.7,3.7l52.9,30.5l0-4.7L4,93.2z"/>
				<path fill="#E4E7FB" d="M200.1,46c0,0.1,0,0.2,0,0.3c0,0.1,0,0.2-0.1,0.3c0,0.1,0,0.2-0.1,0.3s-0.1,0.2-0.1,0.2
					c0,0.1-0.1,0.2-0.1,0.3c0,0.1-0.1,0.1-0.1,0.2c-0.1,0.1-0.1,0.2-0.2,0.3c0,0.1-0.1,0.1-0.1,0.2c-0.1,0.1-0.2,0.3-0.4,0.4
					c-0.1,0-0.1,0.1-0.2,0.2c-0.1,0.1-0.2,0.1-0.3,0.2s-0.2,0.1-0.3,0.2c-0.1,0.1-0.2,0.2-0.3,0.2c-0.1,0.1-0.2,0.2-0.3,0.2
					L69.7,123.7c-0.4,0.2-0.8,0.4-1.3,0.6c-0.1,0-0.2,0.1-0.4,0.1c-0.3,0.1-0.6,0.2-0.9,0.3s-0.6,0.2-0.9,0.2
					c-0.4,0.1-0.7,0.1-1.1,0.2c-0.1,0-0.2,0-0.3,0c-0.5,0.1-1,0.1-1.5,0.1c-0.1,0-0.2,0-0.3,0c-0.5,0-1,0-1.5-0.1
					c-0.1,0-0.2,0-0.2,0c-0.5-0.1-1-0.1-1.5-0.3c-0.1,0-0.2,0-0.2-0.1c-0.4-0.1-0.9-0.2-1.3-0.4c-0.1,0-0.1,0-0.2-0.1
					c-0.5-0.2-0.9-0.4-1.4-0.6l0,4.7c0.4,0.2,0.9,0.4,1.3,0.6c0,0,0,0,0.1,0c0.1,0,0.2,0.1,0.3,0.1c0.3,0.1,0.5,0.2,0.8,0.3l0.5,0.1
					l0.3,0.1c0.1,0,0.1,0,0.2,0.1c0.3,0.1,0.6,0.1,0.9,0.2c0.1,0,0.2,0,0.3,0c0.1,0,0.2,0,0.2,0c0.1,0,0.2,0,0.3,0
					c0.3,0,0.6,0,0.9,0.1c0.1,0,0.2,0,0.3,0h0.2c0.1,0,0.3,0,0.4,0c0.3,0,0.7,0,1-0.1c0,0,0.1,0,0.1,0c0.1,0,0.2,0,0.2,0
					c0.3,0,0.5-0.1,0.8-0.1c0.2,0,0.4-0.1,0.6-0.1c0.1,0,0.1,0,0.2,0c0.3-0.1,0.6-0.2,1-0.3c0.1,0,0.2-0.1,0.4-0.1
					c0.1,0,0.2-0.1,0.3-0.1c0.4-0.2,0.9-0.4,1.3-0.6l127.8-74.3c0,0,0.1,0,0.1-0.1c0.1,0,0.1-0.1,0.2-0.1c0.1-0.1,0.2-0.2,0.4-0.2
					c0.1-0.1,0.2-0.1,0.2-0.2c0.1-0.1,0.2-0.2,0.3-0.2c0,0,0,0,0,0c0,0,0.1-0.1,0.1-0.1c0.1-0.1,0.3-0.3,0.4-0.4
					c0,0,0.1-0.1,0.1-0.1c0,0,0-0.1,0.1-0.1c0.1-0.1,0.1-0.2,0.2-0.3c0,0,0.1-0.1,0.1-0.1c0,0,0,0,0-0.1c0.1-0.1,0.1-0.2,0.1-0.3
					c0,0,0.1-0.1,0.1-0.2c0,0,0,0,0,0c0-0.1,0.1-0.2,0.1-0.3c0-0.1,0-0.1,0-0.2c0,0,0,0,0,0c0-0.1,0-0.2,0-0.3c0-0.1,0-0.1,0-0.2
					c0,0,0-0.1,0-0.1c0-1.6,0-3.1,0-4.7C200.1,45.8,200.1,45.9,200.1,46z"/>
				<g transform="translate(29.333 114.943)">
					<g>
						
							<linearGradient id="SVGID_2_" gradientUnits="userSpaceOnUse" x1="-536.6959" y1="264.7847" x2="-535.8303" y2="264.7847" gradientTransform="matrix(8.7371 0 0 -5.8733 4685.709 1551.3733)">
							<stop  offset="0.172" style="stop-color:#A068F8"/>
							<stop  offset="0.634" style="stop-color:#6975F1"/>
							<stop  offset="1" style="stop-color:#437FEC"/>
						</linearGradient>
						<path fill="url(#SVGID_2_)" d="M3.6-2.5l-6.5-3.7c-0.3-0.2-0.5,0-0.5,0.3c0,0.4,0.2,0.7,0.5,0.9l6.5,3.7
							c0.3,0.2,0.5,0,0.5-0.3C4.1-2,3.9-2.3,3.6-2.5"/>
					</g>
				</g>
			</g>
			<g transform="translate(76.002 0)">
				
					<linearGradient id="SVGID_3_" gradientUnits="userSpaceOnUse" x1="-632.2119" y1="433.6596" x2="-629.301" y2="435.2912" gradientTransform="matrix(7.8243 0 0 -9.383 4503.6929 4460.5522)">
					<stop  offset="0" style="stop-color:#FEFEFC"/>
					<stop  offset="1" style="stop-color:#E4E7FB"/>
				</linearGradient>
				<path fill="url(#SVGID_3_)" d="M-1.1,94.2c-1.1-0.6-2.4-1-3.7-1.1c-1.5-0.1-1.9,0.2-2.4-0.2c-0.1-0.1-0.1-0.1-0.2-0.2
					c0,0.1,0,0.2-0.1,0.3c-0.2,1.4-0.3,1.4-0.4,2.2c0,0.1,0,0.2,0,0.2c2,1.9,4.1,3.7,6.3,5.4C-1.2,98.7-1,96.5-1.1,94.2z"/>
				
					<linearGradient id="SVGID_4_" gradientUnits="userSpaceOnUse" x1="-609.9285" y1="493.4665" x2="-607.1682" y2="492.9333" gradientTransform="matrix(9.1343 0 0 -48.466 5351.0566 23770.2754)">
					<stop  offset="0" style="stop-color:#FEFEFC"/>
					<stop  offset="0.458" style="stop-color:#F4F6FB"/>
					<stop  offset="1" style="stop-color:#E4E7FB"/>
				</linearGradient>
				<path fill="url(#SVGID_4_)" d="M-4.8,89.9c1-0.1,2,0,3,0.1c-0.8-2.5-1.9-3.8-2.5-8.5C-4.9,77-4.1,76.9-4.9,73
					c-0.8-3.6-1.6-4-3.1-9.1C-9.1,60-9.6,58-9.3,55.4c0.1-1.6,0.6-3.2,1.3-4.6c-0.4,0.7-0.8,1.4-1.1,2.1c-0.2,0.6-0.6,2-0.6,6.2
					c-0.1,2,0,4.1,0.4,6.1c0.5,2.2,0.8,2.1,1.1,3.9c0.3,1.8,0.1,3.4-0.3,6.6c-0.2,1.3,1.1,9.8,0.8,12.9c-0.2,2.1-0.3,3.4,0.3,4.1
					c0-0.4,0.1-0.8,0.3-1.2C-6.6,90.7-5.8,90.1-4.8,89.9z"/>
				
					<linearGradient id="SVGID_5_" gradientUnits="userSpaceOnUse" x1="-645.5891" y1="366.4857" x2="-642.4359" y2="369.5298" gradientTransform="matrix(7.243 0 0 -5.0312 4127.2446 2301.7954)">
					<stop  offset="0" style="stop-color:#FEFEFC"/>
					<stop  offset="1" style="stop-color:#E4E7FB"/>
				</linearGradient>
				<path fill="url(#SVGID_5_)" d="M-4.8,93.1c1.3,0.1,2.5,0.5,3.7,1.1c0-0.2,0-0.3,0-0.5c-0.1-1.3-0.3-2.5-0.7-3.7
					c-1-0.1-2-0.2-3-0.1c-0.9,0.2-1.8,0.7-2.3,1.6c-0.2,0.4-0.2,0.8-0.3,1.2c0.1,0.1,0.1,0.1,0.2,0.2C-6.6,93.3-6.2,93-4.8,93.1z"/>
				
					<linearGradient id="SVGID_6_" gradientUnits="userSpaceOnUse" x1="-575.2767" y1="446.4729" x2="-571.8101" y2="441.335" gradientTransform="matrix(7.243 0 0 -5.0312 4127.2446 2301.7954)">
					<stop  offset="0" style="stop-color:#FEFEFC"/>
					<stop  offset="0.458" style="stop-color:#F4F6FB"/>
					<stop  offset="1" style="stop-color:#E4E7FB"/>
				</linearGradient>
				<path fill="url(#SVGID_6_)" d="M-4.8,93.1c1.3,0.1,2.5,0.5,3.7,1.1c0-0.2,0-0.3,0-0.5c-0.1-1.3-0.3-2.5-0.7-3.7
					c-1-0.1-2-0.2-3-0.1c-0.9,0.2-1.8,0.7-2.3,1.6c-0.2,0.4-0.2,0.8-0.3,1.2c0.1,0.1,0.1,0.1,0.2,0.2C-6.6,93.3-6.2,93-4.8,93.1z"/>
				
					<linearGradient id="SVGID_7_" gradientUnits="userSpaceOnUse" x1="-639.1318" y1="491.6696" x2="-637.7148" y2="490.7954" gradientTransform="matrix(59.7061 0 0 -81.181 38148.7109 39968.8438)">
					<stop  offset="0" style="stop-color:#FEFEFC"/>
					<stop  offset="1" style="stop-color:#E4E7FB"/>
				</linearGradient>
				<path fill="url(#SVGID_7_)" d="M43.7,103.5c-0.1-0.1-0.1-0.2-0.2-0.3c-1.3-1.9-2.4-4-3.3-6.2c-1.1-2.5-0.9-2.8-2.3-6.1
					c-0.7-1.5-1-2.3-1.5-3.3c-1.2-2.4-1.9-2.9-3.1-5.3c-0.5-1-1-2-1.3-3c-0.3-2.1-0.4-4.2-0.2-6.3c0-5.4,3.8-9.9,9.1-10.9
					c0.7,0,1.3,0.1,1.9,0.4c-0.7-0.7-1.4-1.3-2.1-1.9c-0.7-0.6-0.9-0.7-2.7-1.9c-4.1-2.8-4.8-3.5-6.2-4.5c-1.4-0.9-2.8-1.6-4.3-2
					c0.2,0.4,0.3,0.8,0.4,1.2c0.3,1.9-1,3.6-2.5,5.8c-0.6,0.8-1.2,1.6-1.9,2.3c-1,1.1-2.2,2-3.4,2.9c-1.5,1.1-2.3,1.6-3.3,1.8
					c-1.2,0.2-2.5,0.1-3.6-0.3c-1.4-0.3-2.7-1.1-3.6-2.3c-0.5-0.8-0.7-1.9-1.1-4c0-0.1,0.1-0.5-0.1-0.7c-0.2-0.1-0.3-0.2-0.5-0.2
					c-0.6-0.1-1.2-0.4-1.7-0.9c-0.5-0.4-1-0.9-1.2-1.5c-0.2-0.6-0.2-1.3-0.2-1.9c0-1.2,0.2-1.8-0.2-2.2c-0.1-0.1-0.3-0.1-0.6-0.4
					C3.2,51.5,3,51.3,3,51.1c0-0.2,0-0.3,0.2-0.8c0.1-0.3,0.3-0.6,0.3-1c0.1-0.4,0-0.5-0.3-1.6c-0.1-0.5-0.2-1-0.3-1.6
					C2.5,46.1,2.1,46,1.7,46c-1.4,0-2.8,0.2-4.2,0.7c-1.5,0.4-2.8,1.1-4,2.1c-0.6,0.6-1.1,1.2-1.6,2c0.6-1,1.3-1.8,1.6-1.8
					c0.4,0.1-0.6,2-0.5,2.6c0.3,2.5,0.9,4.9,1.8,7.2c1.7,3.6,6.5,1.5,9.6,5c4.1,4.8,0.6,15.2,0.3,16.2C4.2,81.4,5.1,89,4.6,91.6
					c-0.2,1-0.4,2-0.6,3c0.1,1.1,0.2,2.2,0.1,3.4c-0.1,0.9-0.2,1.7-0.3,2.6c-0.3,1.6-0.5,2.2-0.9,3.5c7.5,5.2,16,8.9,25,10.9
					c1.9-0.6,3.9-0.3,5.5,0.9c2.1,0.2,4.1,0.3,6.2,0.4c0.4-2.4,1-4.8,1.8-7.2C42.3,106.4,42.8,104.7,43.7,103.5z"/>
				
					<linearGradient id="SVGID_8_" gradientUnits="userSpaceOnUse" x1="-623.3917" y1="447.0892" x2="-619.9546" y2="448.43" gradientTransform="matrix(6.6472 0 0 -11.414 3747.5496 5468.2695)">
					<stop  offset="0" style="stop-color:#FEFEFC"/>
					<stop  offset="1" style="stop-color:#E4E7FB"/>
				</linearGradient>
				<path fill="url(#SVGID_8_)" d="M4.1,98c0.1-1.1,0-2.3-0.1-3.4c-0.1,0.8-0.3,1.5-0.4,2.3c-0.2,1-0.3,2.2-0.6,2.2
					c-0.2,0-0.3-0.8-0.8-1.8c-0.6-1-1.4-1.8-2.3-2.4c-0.3-0.2-0.7-0.4-1-0.6c0.1,2.2-0.1,4.4-0.5,6.6c1.5,1.1,3,2.2,4.5,3.3
					c0.3-1.4,0.6-2,0.9-3.5C4,99.7,4.1,98.9,4.1,98z"/>
				
					<linearGradient id="SVGID_9_" gradientUnits="userSpaceOnUse" x1="-567.9097" y1="472.6266" x2="-555.18" y2="466.4076" gradientTransform="matrix(6.6472 0 0 -11.414 3747.5496 5468.2695)">
					<stop  offset="0" style="stop-color:#FEFEFC"/>
					<stop  offset="1" style="stop-color:#E4E7FB"/>
				</linearGradient>
				<path fill="url(#SVGID_9_)" d="M4.1,98c0.1-1.1,0-2.3-0.1-3.4c-0.1,0.8-0.3,1.5-0.4,2.3c-0.2,1-0.3,2.2-0.6,2.2
					c-0.2,0-0.3-0.8-0.8-1.8c-0.6-1-1.4-1.8-2.3-2.4c-0.3-0.2-0.7-0.4-1-0.6c0.1,2.2-0.1,4.4-0.5,6.6c1.5,1.1,3,2.2,4.5,3.3
					c0.3-1.4,0.6-2,0.9-3.5C4,99.7,4.1,98.9,4.1,98z"/>
				
					<linearGradient id="SVGID_10_" gradientUnits="userSpaceOnUse" x1="-627.933" y1="493.1985" x2="-626.5663" y2="492.7086" gradientTransform="matrix(18.3761 0 0 -52.7416 11344.6846 25885.9395)">
					<stop  offset="0" style="stop-color:#FEFEFC"/>
					<stop  offset="0.458" style="stop-color:#F4F6FB"/>
					<stop  offset="1" style="stop-color:#E4E7FB"/>
				</linearGradient>
				<path fill="url(#SVGID_10_)" d="M-8,63.9c1.5,5.2,2.3,5.5,3.1,9.1c0.8,3.9-0.1,3.9,0.5,8.5c0.6,4.7,1.7,6,2.5,8.5
					c2.5,0.3,4.6,1.4,5.4,3c0.2,0.5,0.4,1.1,0.5,1.6c0.2-1,0.4-2,0.6-3C5.1,89,4.2,81.4,4.8,79.9c0.3-1,3.9-11.4-0.3-16.2
					c-3-3.5-7.9-1.4-9.6-5c-1-2.3-1.6-4.7-1.8-7.2C-7,51-6.1,49.1-6.4,49c-0.3-0.1-1,0.8-1.6,1.8c-0.7,1.4-1.2,3-1.3,4.6
					C-9.6,58-9.1,60-8,63.9z"/>
				
					<linearGradient id="SVGID_11_" gradientUnits="userSpaceOnUse" x1="-618.2162" y1="489.6736" x2="-613.6115" y2="488.3277" gradientTransform="matrix(18.3761 0 0 -52.7416 11344.6846 25885.9395)">
					<stop  offset="0" style="stop-color:#FEFEFC"/>
					<stop  offset="1" style="stop-color:#E4E7FB"/>
				</linearGradient>
				<path fill="url(#SVGID_11_)" d="M-8,63.9c1.5,5.2,2.3,5.5,3.1,9.1c0.8,3.9-0.1,3.9,0.5,8.5c0.6,4.7,1.7,6,2.5,8.5
					c2.5,0.3,4.6,1.4,5.4,3c0.2,0.5,0.4,1.1,0.5,1.6c0.2-1,0.4-2,0.6-3C5.1,89,4.2,81.4,4.8,79.9c0.3-1,3.9-11.4-0.3-16.2
					c-3-3.5-7.9-1.4-9.6-5c-1-2.3-1.6-4.7-1.8-7.2C-7,51-6.1,49.1-6.4,49c-0.3-0.1-1,0.8-1.6,1.8c-0.7,1.4-1.2,3-1.3,4.6
					C-9.6,58-9.1,60-8,63.9z"/>
				
					<linearGradient id="SVGID_12_" gradientUnits="userSpaceOnUse" x1="-625.6177" y1="442.0731" x2="-622.2421" y2="443.5315" gradientTransform="matrix(6.766 0 0 -10.501 3824.3252 5011.1611)">
					<stop  offset="0" style="stop-color:#FEFEFC"/>
					<stop  offset="1" style="stop-color:#E4E7FB"/>
				</linearGradient>
				<path fill="url(#SVGID_12_)" d="M-1.8,90c0.4,1.2,0.6,2.5,0.7,3.7c0,0.2,0,0.3,0,0.5c0.4,0.2,0.7,0.4,1,0.6
					c1,0.6,1.8,1.4,2.3,2.4c0.5,0.9,0.5,1.8,0.8,1.8c0.3,0,0.4-1.2,0.6-2.2c0.1-0.8,0.3-1.5,0.4-2.3c-0.1-0.6-0.2-1.1-0.5-1.6
					C2.8,91.4,0.7,90.3-1.8,90z"/>
				
					<linearGradient id="SVGID_13_" gradientUnits="userSpaceOnUse" x1="-587.3458" y1="483.0602" x2="-583.6353" y2="480.5995" gradientTransform="matrix(6.766 0 0 -10.501 3824.3252 5011.1611)">
					<stop  offset="0" style="stop-color:#FEFEFC"/>
					<stop  offset="0.458" style="stop-color:#F4F6FB"/>
					<stop  offset="1" style="stop-color:#E4E7FB"/>
				</linearGradient>
				<path fill="url(#SVGID_13_)" d="M-1.8,90c0.4,1.2,0.6,2.5,0.7,3.7c0,0.2,0,0.3,0,0.5c0.4,0.2,0.7,0.4,1,0.6
					c1,0.6,1.8,1.4,2.3,2.4c0.5,0.9,0.5,1.8,0.8,1.8c0.3,0,0.4-1.2,0.6-2.2c0.1-0.8,0.3-1.5,0.4-2.3c-0.1-0.6-0.2-1.1-0.5-1.6
					C2.8,91.4,0.7,90.3-1.8,90z"/>
				
					<linearGradient id="SVGID_14_" gradientUnits="userSpaceOnUse" x1="-569.018" y1="470.3913" x2="-556.5159" y2="463.6305" gradientTransform="matrix(6.766 0 0 -10.501 3824.3252 5011.1611)">
					<stop  offset="0" style="stop-color:#FEFEFC"/>
					<stop  offset="1" style="stop-color:#E4E7FB"/>
				</linearGradient>
				<path fill="url(#SVGID_14_)" d="M-1.8,90c0.4,1.2,0.6,2.5,0.7,3.7c0,0.2,0,0.3,0,0.5c0.4,0.2,0.7,0.4,1,0.6
					c1,0.6,1.8,1.4,2.3,2.4c0.5,0.9,0.5,1.8,0.8,1.8c0.3,0,0.4-1.2,0.6-2.2c0.1-0.8,0.3-1.5,0.4-2.3c-0.1-0.6-0.2-1.1-0.5-1.6
					C2.8,91.4,0.7,90.3-1.8,90z"/>
				
					<linearGradient id="SVGID_15_" gradientUnits="userSpaceOnUse" x1="-564.2095" y1="293.9756" x2="-557.6902" y2="293.9756" gradientTransform="matrix(6.369 0 0 -1.3751 3601.2605 519.5844)">
					<stop  offset="0" style="stop-color:#A068F8"/>
					<stop  offset="0.558" style="stop-color:#6975F1"/>
					<stop  offset="1" style="stop-color:#437FEC"/>
				</linearGradient>
				<path fill="url(#SVGID_15_)" d="M27.9,115c1.8,0.4,3.7,0.7,5.5,0.9C31.8,114.8,29.8,114.4,27.9,115z"/>
				
					<linearGradient id="SVGID_16_" gradientUnits="userSpaceOnUse" x1="-569.2031" y1="327.4637" x2="-555.9195" y2="275.4734" gradientTransform="matrix(6.369 0 0 -1.3751 3601.2605 519.5844)">
					<stop  offset="0" style="stop-color:#FEFEFC"/>
					<stop  offset="1" style="stop-color:#E4E7FB"/>
				</linearGradient>
				<path fill="url(#SVGID_16_)" d="M27.9,115c1.8,0.4,3.7,0.7,5.5,0.9C31.8,114.8,29.8,114.4,27.9,115z"/>
				
					<linearGradient id="SVGID_17_" gradientUnits="userSpaceOnUse" x1="10290.2197" y1="-3577.1802" x2="9733.6416" y2="-3349.3555" gradientTransform="matrix(5.200195e-02 0 0 -7.299805e-02 -493.7438 -229.8594)">
					<stop  offset="0" style="stop-color:#B7C0EB"/>
					<stop  offset="0.503" style="stop-color:#E4E7FB"/>
					<stop  offset="0.883" style="stop-color:#EFF1FE"/>
				</linearGradient>
				<path fill="url(#SVGID_17_)" d="M29.3,24.3C29.3,24.3,29.3,24.3,29.3,24.3L29.3,24.3z"/>
				
					<linearGradient id="SVGID_18_" gradientUnits="userSpaceOnUse" x1="-628.5284" y1="482.326" x2="-629.509" y2="483.0298" gradientTransform="matrix(29.4916 0 0 -23.74 18566.5273 11501.0449)">
					<stop  offset="0" style="stop-color:#B7C0EB"/>
					<stop  offset="0.503" style="stop-color:#E4E7FB"/>
					<stop  offset="0.883" style="stop-color:#EFF1FE"/>
				</linearGradient>
				<path fill="url(#SVGID_18_)" d="M23.1,50.9c1.6,0.4,2.9,0.8,4.1,1.2c-0.8-1.5-2.2-2.5-1.8-3.8c0.1-0.4,0.3-0.8,0.5-1.1
					c0.5-0.8,0.9-1,1.3-1.7c0-0.1,0.1-0.2,0.1-0.3c0.1-0.3,0.6-3,0.4-3.5c-0.6-1.1-2.9-0.9-3.8-0.1c-0.8,0.9-1.1,2.2-0.9,3.4
					c0.1,0.5-1.4,2.4-1.7,1.4c-0.7-2.1-1.6-6.6-1.4-8.8c0.1-1.6-0.2-3.1-1-4.5c-0.1-0.3-0.3-0.5-0.5-0.6c-1.2-0.6-3.1,0.4-4.2,0.6
					c-1.6,0.4-3.3,0.5-5,0.4c-1.4-0.2-4.8,0.4-5.6-1.9c-0.1,0.5-0.2,1-0.3,1.6c-0.1,0.6-0.2,2.2-0.3,3.7c0,0.7-0.1,1.3-0.3,2
					c-0.2,0.6-0.5,0.9-0.4,1.4c0.1,0.3,0.2,0.6,0.4,0.9c0.2,0.3,0.2,0.3,0.3,0.5c0.1,0.4-0.2,0.6-0.3,1c0,0.7,0,1.4,0.2,2.1
					c0.1,0.9,0,0.8,0.1,1.5c0,0,0,0,0,0c2.3,0.3,3.9,1.4,5.5,2.1C13.4,50.7,14.3,48.6,23.1,50.9z"/>
				
					<linearGradient id="SVGID_19_" gradientUnits="userSpaceOnUse" x1="1275.9498" y1="435.8451" x2="1178.1528" y2="439.1991" gradientTransform="matrix(0.293 0 0 -4.978 -335.0126 2205.252)">
					<stop  offset="0" style="stop-color:#B7C0EB"/>
					<stop  offset="0.503" style="stop-color:#E4E7FB"/>
					<stop  offset="0.883" style="stop-color:#EFF1FE"/>
				</linearGradient>
				<path fill="url(#SVGID_19_)" d="M31.4,33.3c0,0.1,0,0.1,0,0.2c0.2-0.8,0.3-1.7,0.2-2.6c0-0.6-0.1-1.2-0.2-1.7
					c0.1,0.5,0.1,1.1,0.2,1.6C31.6,31.6,31.6,32.5,31.4,33.3z"/>
				
					<linearGradient id="SVGID_20_" gradientUnits="userSpaceOnUse" x1="-158.6564" y1="-1915.7203" x2="-183.084" y2="-1782.864" gradientTransform="matrix(1.185 0 0 -0.126 229.4893 -210.2472)">
					<stop  offset="0" style="stop-color:#B7C0EB"/>
					<stop  offset="0.503" style="stop-color:#E4E7FB"/>
					<stop  offset="0.883" style="stop-color:#EFF1FE"/>
				</linearGradient>
				<path fill="url(#SVGID_20_)" d="M19.9,18.6c-0.2,0-0.4,0-0.6,0c0.3,0,0.7,0.1,1,0.1C20.2,18.6,20.1,18.6,19.9,18.6z"/>
				
					<linearGradient id="SVGID_21_" gradientUnits="userSpaceOnUse" x1="-371.1104" y1="424.3553" x2="-385.244" y2="428.3316" gradientTransform="matrix(2.048 0 0 -4.202 800.7858 1815.4929)">
					<stop  offset="0" style="stop-color:#B7C0EB"/>
					<stop  offset="0.503" style="stop-color:#E4E7FB"/>
					<stop  offset="0.883" style="stop-color:#EFF1FE"/>
				</linearGradient>
				<path fill="url(#SVGID_21_)" d="M31.2,28.1c-0.2-0.6-0.4-1.2-0.7-1.7c-0.3-0.7-0.7-1.3-1.1-1.9C30.1,25.6,30.7,26.8,31.2,28.1
					C31.2,28.1,31.2,28.1,31.2,28.1z"/>
				
					<linearGradient id="SVGID_22_" gradientUnits="userSpaceOnUse" x1="248.087" y1="-11665.4062" x2="203.4254" y2="-11001.1875" gradientTransform="matrix(0.648 0 0 -2.500153e-02 -119.4682 -260.3035)">
					<stop  offset="0" style="stop-color:#B7C0EB"/>
					<stop  offset="0.503" style="stop-color:#E4E7FB"/>
					<stop  offset="0.883" style="stop-color:#EFF1FE"/>
				</linearGradient>
				<path fill="url(#SVGID_22_)" d="M18.7,18.5c0.2,0,0.4,0,0.6,0C19.1,18.5,18.9,18.5,18.7,18.5z"/>
				
					<linearGradient id="SVGID_23_" gradientUnits="userSpaceOnUse" x1="6084.0625" y1="-18447.25" x2="5746.3584" y2="-17416.0566" gradientTransform="matrix(8.599854e-02 0 0 -1.599884e-02 -481.4712 -264.5216)">
					<stop  offset="0" style="stop-color:#B7C0EB"/>
					<stop  offset="0.503" style="stop-color:#E4E7FB"/>
					<stop  offset="0.883" style="stop-color:#EFF1FE"/>
				</linearGradient>
				<path fill="url(#SVGID_23_)" d="M20.8,18.7L20.8,18.7L20.8,18.7z"/>
				
					<linearGradient id="SVGID_24_" gradientUnits="userSpaceOnUse" x1="4126.4077" y1="138.5062" x2="4123.9219" y2="269.6796" gradientTransform="matrix(0.117 0 0 -1 -464.638 222.6268)">
					<stop  offset="0" style="stop-color:#B7C0EB"/>
					<stop  offset="0.503" style="stop-color:#E4E7FB"/>
					<stop  offset="0.883" style="stop-color:#EFF1FE"/>
				</linearGradient>
				<path fill="url(#SVGID_24_)" d="M18,18.5h0.1C18,18.5,18,18.5,18,18.5z"/>
				
					<linearGradient id="SVGID_25_" gradientUnits="userSpaceOnUse" x1="-628.972" y1="483.2112" x2="-626.0074" y2="480.1757" gradientTransform="matrix(28.5318 0 0 -23.3768 17944.873 11337.96)">
					<stop  offset="0" style="stop-color:#FEFEFC"/>
					<stop  offset="1" style="stop-color:#E4E7FB"/>
				</linearGradient>
				<path fill="url(#SVGID_25_)" d="M3.6,49.3c-0.1,0.3-0.2,0.7-0.3,1C3,50.8,2.9,50.9,3,51.1c0.1,0.3,0.3,0.4,0.6,0.7
					c0.3,0.3,0.4,0.3,0.6,0.4c0.4,0.4,0.2,0.9,0.2,2.2c-0.1,0.7,0,1.3,0.2,1.9c0.3,0.6,0.7,1.1,1.2,1.5c0.5,0.5,1,0.8,1.7,0.9
					c0.2,0,0.4,0.1,0.5,0.2c0.2,0.2,0.1,0.6,0.1,0.7c0.4,2.2,0.6,3.2,1.1,4c0.9,1.2,2.1,2,3.6,2.3c1.2,0.4,2.4,0.5,3.6,0.3
					c1-0.2,1.8-0.8,3.3-1.8c1.2-0.9,2.4-1.8,3.4-2.9c0.7-0.7,1.4-1.5,1.9-2.3c1.6-2.2,2.8-4,2.5-5.8c-0.1-0.4-0.2-0.9-0.4-1.2
					c-1.2-0.4-2.5-0.7-4.1-1.2c-8.8-2.4-9.7-0.3-14.7-2.7c-1.6-0.8-3.2-1.8-5.5-2.1c0.1,0.5,0.2,1,0.3,1.6
					C3.5,48.7,3.6,48.9,3.6,49.3z"/>
				
					<linearGradient id="SVGID_26_" gradientUnits="userSpaceOnUse" x1="-628.1036" y1="482.3787" x2="-629.118" y2="483.0928" gradientTransform="matrix(28.5318 0 0 -23.3768 17944.873 11337.96)">
					<stop  offset="0" style="stop-color:#B7C0EB"/>
					<stop  offset="0.503" style="stop-color:#E4E7FB"/>
					<stop  offset="0.883" style="stop-color:#EFF1FE"/>
				</linearGradient>
				<path fill="url(#SVGID_26_)" d="M3.6,49.3c-0.1,0.3-0.2,0.7-0.3,1C3,50.8,2.9,50.9,3,51.1c0.1,0.3,0.3,0.4,0.6,0.7
					c0.3,0.3,0.4,0.3,0.6,0.4c0.4,0.4,0.2,0.9,0.2,2.2c-0.1,0.7,0,1.3,0.2,1.9c0.3,0.6,0.7,1.1,1.2,1.5c0.5,0.5,1,0.8,1.7,0.9
					c0.2,0,0.4,0.1,0.5,0.2c0.2,0.2,0.1,0.6,0.1,0.7c0.4,2.2,0.6,3.2,1.1,4c0.9,1.2,2.1,2,3.6,2.3c1.2,0.4,2.4,0.5,3.6,0.3
					c1-0.2,1.8-0.8,3.3-1.8c1.2-0.9,2.4-1.8,3.4-2.9c0.7-0.7,1.4-1.5,1.9-2.3c1.6-2.2,2.8-4,2.5-5.8c-0.1-0.4-0.2-0.9-0.4-1.2
					c-1.2-0.4-2.5-0.7-4.1-1.2c-8.8-2.4-9.7-0.3-14.7-2.7c-1.6-0.8-3.2-1.8-5.5-2.1c0.1,0.5,0.2,1,0.3,1.6
					C3.5,48.7,3.6,48.9,3.6,49.3z"/>
				
					<linearGradient id="SVGID_27_" gradientUnits="userSpaceOnUse" x1="-633.1136" y1="485.6375" x2="-632.0326" y2="485.3207" gradientTransform="matrix(15.5911 0 0 -18.228 9600.4824 8850.373)">
					<stop  offset="0" style="stop-color:#FEFEFC"/>
					<stop  offset="1" style="stop-color:#E4E7FB"/>
				</linearGradient>
				<path fill="url(#SVGID_27_)" d="M57.3,101.9c-3,7.7-10.9,4.7-11.2,4.5c-0.8-0.5-1.4-1.1-1.9-1.9c0.3,2.6,0.4,5.2,0.3,7.8
					c0,0.8-0.1,2.1-0.3,3.8c2.9-0.2,5.8-0.6,8.6-1.1c1.6-4.3,1.7-4.4,2.1-5.3c0.8-1.4,1.5-2.8,2-4.4c0.6-1.6,0.8-3.3,0.7-4.9
					c0,0,0,0,0,0C57.6,100.9,57.5,101.4,57.3,101.9z"/>
				
					<linearGradient id="SVGID_28_" gradientUnits="userSpaceOnUse" x1="-560.8544" y1="479.3078" x2="-545.9661" y2="474.4814" gradientTransform="matrix(5.6903 0 0 -14.71 3174.6316 7111.5493)">
					<stop  offset="0" style="stop-color:#FEFEFC"/>
					<stop  offset="1" style="stop-color:#E4E7FB"/>
				</linearGradient>
				<path fill="url(#SVGID_28_)" d="M44.2,104.5c-0.2-0.3-0.4-0.7-0.6-0.9c-0.9,1.2-1.4,2.8-2.3,5.6c-0.8,2.3-1.4,4.7-1.8,7.2
					c1.5,0,3-0.1,4.5-0.2c0.2-1.7,0.3-3,0.3-3.8C44.6,109.7,44.5,107.1,44.2,104.5z"/>
				
					<linearGradient id="SVGID_29_" gradientUnits="userSpaceOnUse" x1="-610.468" y1="483.9126" x2="-607.5087" y2="483.5205" gradientTransform="matrix(5.6903 0 0 -14.71 3174.6316 7111.5493)">
					<stop  offset="0" style="stop-color:#FEFEFC"/>
					<stop  offset="1" style="stop-color:#E4E7FB"/>
				</linearGradient>
				<path fill="url(#SVGID_29_)" d="M44.2,104.5c-0.2-0.3-0.4-0.7-0.6-0.9c-0.9,1.2-1.4,2.8-2.3,5.6c-0.8,2.3-1.4,4.7-1.8,7.2
					c1.5,0,3-0.1,4.5-0.2c0.2-1.7,0.3-3,0.3-3.8C44.6,109.7,44.5,107.1,44.2,104.5z"/>
				
					<linearGradient id="SVGID_30_" gradientUnits="userSpaceOnUse" x1="-597.6085" y1="489.8792" x2="-596.5551" y2="489.9329" gradientTransform="matrix(18.4211 0 0 -46.995 11432.9062 23055.127)">
					<stop  offset="0" style="stop-color:#FEFEFC"/>
					<stop  offset="1" style="stop-color:#E4E7FB"/>
				</linearGradient>
				<path fill="url(#SVGID_30_)" d="M42.1,86.6c-1.3,7.8,0.9,10.1,2,16.5c0.1-0.1,0.1-0.2,0.2-0.2c1.3-1.3,2.9-2.2,4.6-2.6
					c2.4-0.8,8.7-2.1,8.8,0.1c0-1.3-0.7-2.6-1.7-4.8c-0.8-2-1.5-4.1-2-6.2c-0.6-2.1-0.9-4.1-1.6-7.9c-0.6-3.5-0.6-4-1.1-5.6
					c-0.5-1.9-1.2-3.7-2-5.4c-0.7-1.8-1.7-3.5-2.9-5c-1.1-1.2-2.4-2.3-3.8-3c1,1,1.9,2.1,2.7,3.3C48.2,70.1,43.5,77.8,42.1,86.6z"/>
				
					<linearGradient id="SVGID_31_" gradientUnits="userSpaceOnUse" x1="-617.7651" y1="489.7442" x2="-612.7734" y2="488.2633" gradientTransform="matrix(16.9828 0 0 -47.9377 10488.4551 23521.6289)">
					<stop  offset="0" style="stop-color:#FEFEFC"/>
					<stop  offset="1" style="stop-color:#E4E7FB"/>
				</linearGradient>
				<path fill="url(#SVGID_31_)" d="M31.6,72.9c-0.1,2.1,0,4.2,0.2,6.3c0.3,1,0.8,2.1,1.3,3c1.2,2.4,1.9,3,3.1,5.3
					c0.5,1,0.9,1.8,1.5,3.3c1.4,3.3,1.2,3.6,2.3,6.1c0.9,2.2,2,4.3,3.3,6.2c0.1,0.1,0.1,0.2,0.2,0.3c0.1-0.2,0.2-0.3,0.4-0.4
					c-1-6.5-3.3-8.7-2-16.5c1.5-8.8,6.1-16.5,3.2-20.9c-0.8-1.2-1.7-2.3-2.7-3.3c-0.6-0.3-1.2-0.4-1.9-0.4
					C35.4,63,31.5,67.6,31.6,72.9z"/>
				
					<linearGradient id="SVGID_32_" gradientUnits="userSpaceOnUse" x1="-592.5513" y1="489.9664" x2="-591.4061" y2="490.0183" gradientTransform="matrix(16.9828 0 0 -47.9377 10488.4551 23521.6289)">
					<stop  offset="0" style="stop-color:#FEFEFC"/>
					<stop  offset="1" style="stop-color:#E4E7FB"/>
				</linearGradient>
				<path fill="url(#SVGID_32_)" d="M31.6,72.9c-0.1,2.1,0,4.2,0.2,6.3c0.3,1,0.8,2.1,1.3,3c1.2,2.4,1.9,3,3.1,5.3
					c0.5,1,0.9,1.8,1.5,3.3c1.4,3.3,1.2,3.6,2.3,6.1c0.9,2.2,2,4.3,3.3,6.2c0.1,0.1,0.1,0.2,0.2,0.3c0.1-0.2,0.2-0.3,0.4-0.4
					c-1-6.5-3.3-8.7-2-16.5c1.5-8.8,6.1-16.5,3.2-20.9c-0.8-1.2-1.7-2.3-2.7-3.3c-0.6-0.3-1.2-0.4-1.9-0.4
					C35.4,63,31.5,67.6,31.6,72.9z"/>
				
					<linearGradient id="SVGID_33_" gradientUnits="userSpaceOnUse" x1="-628.2154" y1="473.8594" x2="-627.1429" y2="473.2388" gradientTransform="matrix(15.686 0 0 -9.2795 9661.9316 4416.627)">
					<stop  offset="0" style="stop-color:#FEFEFC"/>
					<stop  offset="1" style="stop-color:#E4E7FB"/>
				</linearGradient>
				<path fill="url(#SVGID_33_)" d="M48.8,100.2c-1.7,0.5-3.3,1.4-4.6,2.6c-0.1,0.1-0.2,0.2-0.2,0.2c0.1,0.4,0.1,0.9,0.2,1.4
					c0.4,0.8,1.1,1.5,1.9,1.9c0.3,0.2,8.2,3.2,11.2-4.5c0.2-0.5,0.3-1,0.3-1.5C57.6,98.1,51.3,99.4,48.8,100.2z"/>
				
					<linearGradient id="SVGID_34_" gradientUnits="userSpaceOnUse" x1="-590.7776" y1="469.612" x2="-589.5408" y2="469.882" gradientTransform="matrix(15.686 0 0 -9.2795 9661.9316 4416.627)">
					<stop  offset="0" style="stop-color:#FEFEFC"/>
					<stop  offset="1" style="stop-color:#E4E7FB"/>
				</linearGradient>
				<path fill="url(#SVGID_34_)" d="M48.8,100.2c-1.7,0.5-3.3,1.4-4.6,2.6c-0.1,0.1-0.2,0.2-0.2,0.2c0.1,0.4,0.1,0.9,0.2,1.4
					c0.4,0.8,1.1,1.5,1.9,1.9c0.3,0.2,8.2,3.2,11.2-4.5c0.2-0.5,0.3-1,0.3-1.5C57.6,98.1,51.3,99.4,48.8,100.2z"/>
				
					<linearGradient id="SVGID_35_" gradientUnits="userSpaceOnUse" x1="133.5276" y1="350.7891" x2="266.2644" y2="306.5516" gradientTransform="matrix(0.637 0 0 -1.6 -97.7139 617.5328)">
					<stop  offset="0" style="stop-color:#FEFEFC"/>
					<stop  offset="1" style="stop-color:#E4E7FB"/>
				</linearGradient>
				<path fill="url(#SVGID_35_)" d="M43.7,103.5c0.2,0.3,0.4,0.6,0.6,0.9c-0.1-0.5-0.1-0.9-0.2-1.4
					C43.9,103.2,43.8,103.4,43.7,103.5z"/>
				
					<linearGradient id="SVGID_36_" gradientUnits="userSpaceOnUse" x1="-311.1562" y1="393.7357" x2="-284.7698" y2="390.1445" gradientTransform="matrix(0.637 0 0 -1.6 -97.7139 617.5328)">
					<stop  offset="0" style="stop-color:#FEFEFC"/>
					<stop  offset="1" style="stop-color:#E4E7FB"/>
				</linearGradient>
				<path fill="url(#SVGID_36_)" d="M43.7,103.5c0.2,0.3,0.4,0.6,0.6,0.9c-0.1-0.5-0.1-0.9-0.2-1.4
					C43.9,103.2,43.8,103.4,43.7,103.5z"/>
				
					<linearGradient id="SVGID_37_" gradientUnits="userSpaceOnUse" x1="822.9507" y1="351.8171" x2="853.3983" y2="353.376" gradientTransform="matrix(0.637 0 0 -1.6 -97.7139 617.5328)">
					<stop  offset="0" style="stop-color:#FEFEFC"/>
					<stop  offset="1" style="stop-color:#E4E7FB"/>
				</linearGradient>
				<path fill="url(#SVGID_37_)" d="M43.7,103.5c0.2,0.3,0.4,0.6,0.6,0.9c-0.1-0.5-0.1-0.9-0.2-1.4
					C43.9,103.2,43.8,103.4,43.7,103.5z"/>
				
					<linearGradient id="SVGID_38_" gradientUnits="userSpaceOnUse" x1="-592.712" y1="449.4803" x2="-589.7847" y2="449.4803" gradientTransform="matrix(9.688 0 0 -6.414 5745.4766 2904.489)">
					<stop  offset="0" style="stop-color:#A068F8"/>
					<stop  offset="1" style="stop-color:#F7366B"/>
				</linearGradient>
				<path fill="url(#SVGID_38_)" d="M29.3,24.3c-2-2.9-5-4.9-8.4-5.6C24.3,19.5,27.3,21.4,29.3,24.3z"/>
				
					<linearGradient id="SVGID_39_" gradientUnits="userSpaceOnUse" x1="4646.4834" y1="-1507.255" x2="4944.6851" y2="-1507.255" gradientTransform="matrix(9.997559e-02 0 0 -0.145 -462.5811 -194.1237)">
					<stop  offset="0" style="stop-color:#A068F8"/>
					<stop  offset="1" style="stop-color:#F7366B"/>
				</linearGradient>
				<path fill="url(#SVGID_39_)" d="M29.3,24.4L29.3,24.4c0,0,0,0.1,0.1,0.1C29.4,24.5,29.4,24.4,29.3,24.4z"/>
				
					<linearGradient id="SVGID_40_" gradientUnits="userSpaceOnUse" x1="1114.2876" y1="251.6214" x2="1207.9603" y2="251.6214" gradientTransform="matrix(0.3 0 0 -1.191 -330.7308 328.3199)">
					<stop  offset="0" style="stop-color:#A068F8"/>
					<stop  offset="1" style="stop-color:#F7366B"/>
				</linearGradient>
				<path fill="url(#SVGID_40_)" d="M31.2,28.1c0.1,0.3,0.2,0.7,0.3,1C31.4,28.8,31.3,28.5,31.2,28.1z"/>
				
					<linearGradient id="SVGID_41_" gradientUnits="userSpaceOnUse" x1="6488.5566" y1="-48066.1641" x2="6861.9297" y2="-48066.1641" gradientTransform="matrix(7.598877e-02 0 0 -5.996704e-03 -489.7745 -269.6938)">
					<stop  offset="0" style="stop-color:#A068F8"/>
					<stop  offset="1" style="stop-color:#F7366B"/>
				</linearGradient>
				<path fill="url(#SVGID_41_)" d="M19.2,18.5L19.2,18.5L19.2,18.5z"/>
				
					<linearGradient id="SVGID_42_" gradientUnits="userSpaceOnUse" x1="331.7327" y1="-2930.9031" x2="383.0886" y2="-2930.9031" gradientTransform="matrix(0.552 0 0 -8.499908e-02 -179.8214 -230.4291)">
					<stop  offset="0" style="stop-color:#A068F8"/>
					<stop  offset="1" style="stop-color:#F7366B"/>
				</linearGradient>
				<path fill="url(#SVGID_42_)" d="M20.7,18.7c-0.1,0-0.2,0-0.3,0c0.2,0,0.3,0,0.5,0.1C20.8,18.7,20.7,18.7,20.7,18.7z"/>
				<path fill="#FFFFFF" d="M9.4,22.1c2.4-2.1,5.4-3.3,8.6-3.6c-2.6,0.1-5,1-7.1,2.5c-2.1,1.4-6.8,4.1-7.5,8.7
					c-0.1,0.6-0.1,1.3,0.1,1.9c0.2-0.8,0.5-1.6,0.8-2.4C5.3,26.4,7.1,24,9.4,22.1z"/>
				<path fill="#FFFFFF" d="M29.3,40.5c-0.8,1.4-1.5,2.1-1.7,3.6c0,0.4-0.1,0.8-0.3,1.2l0,0c0.3,0,3.8-6.1,4.1-11.8
					c-0.1,0.6-0.3,1.2-0.4,1.9C30.7,37.2,30.1,38.9,29.3,40.5z"/>
				
					<linearGradient id="SVGID_43_" gradientUnits="userSpaceOnUse" x1="128.1001" y1="-54663.2734" x2="168.7811" y2="-54663.2734" gradientTransform="matrix(0.7 0 0 -5.279541e-03 -86.4431 -270.0753)">
					<stop  offset="0" style="stop-color:#A068F8"/>
					<stop  offset="1" style="stop-color:#F7366B"/>
				</linearGradient>
				<path fill="url(#SVGID_43_)" d="M18.1,18.5c0.2,0,0.4,0,0.6,0C18.5,18.5,18.3,18.5,18.1,18.5z"/>
				
					<linearGradient id="SVGID_44_" gradientUnits="userSpaceOnUse" x1="-630.2765" y1="485.6979" x2="-631.1654" y2="486.2103" gradientTransform="matrix(32.5539 0 0 -32.6171 20553.8047 15882.873)">
					<stop  offset="0" style="stop-color:#B7C0EB"/>
					<stop  offset="0.503" style="stop-color:#E4E7FB"/>
					<stop  offset="0.883" style="stop-color:#EFF1FE"/>
				</linearGradient>
				<path fill="url(#SVGID_44_)" d="M9.1,33.5c1.7,0.2,3.4,0.1,5-0.4c1.2-0.3,3.1-1.3,4.2-0.6c0.2,0.2,0.4,0.4,0.5,0.6
					c0.8,1.4,1.1,3,1,4.5c-0.1,2.2,0.8,6.7,1.4,8.8c0.3,1,1.8-0.9,1.7-1.4c-0.3-1.2,0.1-2.5,0.9-3.4c0.9-0.8,3.2-1,3.8,0.1
					c0.3,0.5-0.3,3.1-0.4,3.5c0.1-0.4,0.2-0.8,0.3-1.2c0.2-1.5,1-2.1,1.7-3.6c0.8-1.6,1.3-3.3,1.6-5c0.2-0.8,0.3-1.4,0.4-1.9
					c0-0.1,0-0.1,0-0.2c0.1-0.8,0.2-1.7,0.2-2.5c-0.1-0.5-0.1-1.1-0.2-1.6c-0.1-0.4-0.2-0.7-0.3-1c0,0,0,0,0,0
					c-0.5-1.3-1-2.5-1.8-3.6c0,0-0.1-0.1-0.1-0.1c0,0,0,0,0-0.1c-2-2.9-5-4.8-8.4-5.6l-0.1,0c-0.2,0-0.3-0.1-0.5-0.1
					c-0.3,0-0.7-0.1-1-0.1l-0.1,0c-0.2,0-0.4,0-0.6,0c-0.2,0-0.4,0-0.6,0H18c-3.2,0.2-6.2,1.5-8.6,3.6c-2.3,1.9-4,4.3-5.1,7.1
					c-0.3,0.8-0.6,1.6-0.8,2.4C4.2,33.9,7.7,33.3,9.1,33.5z"/>
				<path fill="#00223D" d="M9.1,33.5c1.7,0.2,3.4,0.1,5-0.4c1.2-0.3,3.1-1.3,4.2-0.6c0.2,0.2,0.4,0.4,0.5,0.6c0.8,1.4,1.1,3,1,4.5
					c-0.1,2.2,0.8,6.7,1.4,8.8c0.3,1,1.8-0.9,1.7-1.4c-0.3-1.2,0.1-2.5,0.9-3.4c0.9-0.8,3.2-1,3.8,0.1c0.3,0.5-0.3,3.1-0.4,3.5
					c0.1-0.4,0.2-0.8,0.3-1.2c0.2-1.5,1-2.1,1.7-3.6c0.8-1.6,1.3-3.3,1.6-5c0.2-0.8,0.3-1.4,0.4-1.9c0-0.1,0-0.1,0-0.2
					c0.1-0.8,0.2-1.7,0.2-2.5c-0.1-0.5-0.1-1.1-0.2-1.6c-0.1-0.4-0.2-0.7-0.3-1c0,0,0,0,0,0c-0.5-1.3-1-2.5-1.8-3.6
					c0,0-0.1-0.1-0.1-0.1c0,0,0,0,0-0.1c-2-2.9-5-4.8-8.4-5.6l-0.1,0c-0.2,0-0.3-0.1-0.5-0.1c-0.3,0-0.7-0.1-1-0.1l-0.1,0
					c-0.2,0-0.4,0-0.6,0c-0.2,0-0.4,0-0.6,0H18c-3.2,0.2-6.2,1.5-8.6,3.6c-2.3,1.9-4,4.3-5.1,7.1c-0.3,0.8-0.6,1.6-0.8,2.4
					C4.2,33.9,7.7,33.3,9.1,33.5z"/>
			</g>
		</g>
	</g>
	<g transform="translate(411.824 13460.427)">
		<g transform="translate(0)" opacity="0">
			<g>
				<path fill="#D2E1F1" d="M115.6,28.6c-27.5-15.9-71.9-15.8-99.1,0S-10.7,70.2,16.8,86s71.8,15.9,99.1,0S143.1,44.5,115.6,28.6"/>
			</g>
		</g>
		<g transform="translate(1.992 3.537)" opacity="3.200000e-02">
			<path fill="#D2E1F1" d="M112.4,27.8c-26.8-15.5-70.1-15.5-96.7,0s-26.5,40.5,0.3,56s70.1,15.5,96.7,0S139.2,43.3,112.4,27.8"/>
		</g>
		<g transform="translate(3.984 7.074)" opacity="6.500000e-02">
			<path fill="#D2E1F1" d="M109.2,27.1C83.1,12,40.9,12,14.9,27.1s-25.8,39.5,0.3,54.6s68.3,15.1,94.3,0S135.3,42.2,109.2,27.1"/>
		</g>
		<g transform="translate(5.977 10.611)" opacity="9.700000e-02">
			<path fill="#D2E1F1" d="M106,26.3c-25.4-14.7-66.6-14.7-91.8,0S-11,64.8,14.4,79.5s66.5,14.7,91.8,0S131.4,41,106,26.3"/>
		</g>
		<g transform="translate(7.969 14.148)" opacity="0.129">
			<path fill="#D2E1F1" d="M102.8,25.5C78,11.2,38,11.2,13.4,25.5S-11.1,63,13.7,77.3s64.8,14.3,89.4,0S127.5,39.8,102.8,25.5"/>
		</g>
		<g transform="translate(9.961 17.685)" opacity="0.161">
			<path fill="#D2E1F1" d="M99.6,24.8c-24.1-13.9-63-13.9-86.9,0s-23.8,36.5,0.3,50.4s63,13.9,86.9,0S123.6,38.7,99.6,24.8"/>
		</g>
		<g transform="translate(11.953 21.222)" opacity="0.194">
			<path fill="#D2E1F1" d="M96.3,24c-23.4-13.5-61.3-13.5-84.5,0S-11.3,59.4,12.1,73s61.2,13.5,84.5,0S119.8,37.5,96.3,24"/>
		</g>
		<g transform="translate(13.945 24.76)" opacity="0.226">
			<path fill="#D2E1F1" d="M93.1,23.2c-22.7-13.1-59.5-13.1-82.1,0s-22.5,34.4,0.3,47.5s59.5,13.1,82.1,0S115.9,36.4,93.1,23.2"/>
		</g>
		<g transform="translate(15.937 28.297)" opacity="0.258">
			<path fill="#D2E1F1" d="M89.9,22.5c-22.1-12.7-57.7-12.7-79.6,0s-21.8,33.4,0.3,46.1s57.7,12.7,79.6,0S112,35.2,89.9,22.5"/>
		</g>
		<g transform="translate(17.93 31.834)" opacity="0.29">
			<path fill="#D2E1F1" d="M86.7,21.7C65.3,9.4,30.8,9.4,9.5,21.7s-21.1,32.4,0.3,44.7s55.9,12.3,77.2,0S108.1,34,86.7,21.7"/>
		</g>
		<g transform="translate(19.922 35.371)" opacity="0.323">
			<path fill="#D2E1F1" d="M83.5,20.9C62.8,9,29.3,9,8.8,20.9S-11.7,52.3,9,64.2s54.2,12,74.7,0S104.2,32.9,83.5,20.9"/>
		</g>
		<g transform="translate(21.914 38.908)" opacity="0.355">
			<path fill="#D2E1F1" d="M80.3,20.2C60.3,8.6,27.9,8.6,8,20.2s-19.8,30.3,0.2,41.9s52.4,11.6,72.3,0S100.3,31.7,80.3,20.2"/>
		</g>
		<g transform="translate(23.906 42.445)" opacity="0.387">
			<path fill="#D2E1F1" d="M77.1,19.4C57.7,8.2,26.5,8.2,7.2,19.4s-19.1,29.3,0.2,40.5s50.6,11.2,69.9,0S96.5,30.6,77.1,19.4"/>
		</g>
		<g transform="translate(25.898 45.982)" opacity="0.419">
			<path fill="#D2E1F1" d="M73.9,18.6C55.2,7.8,25,7.8,6.5,18.6S-12,46.9,6.7,57.7s48.9,10.8,67.4,0S92.6,29.4,73.9,18.6"/>
		</g>
		<g transform="translate(27.891 49.519)" opacity="0.452">
			<path fill="#D2E1F1" d="M70.7,17.9c-18-10.4-47.1-10.4-65,0s-17.8,27.3,0.2,37.6s47.1,10.4,65,0S88.7,28.3,70.7,17.9"/>
		</g>
		<g transform="translate(29.883 53.056)" opacity="0.484">
			<path fill="#D2E1F1" d="M67.5,17.1c-17.3-10-45.3-10-62.6,0s-17.1,26.2,0.2,36.2s45.3,10,62.6,0S84.8,27.1,67.5,17.1"/>
		</g>
		<g transform="translate(31.875 56.593)" opacity="0.516">
			<path fill="#D2E1F1" d="M64.3,16.3c-16.7-9.6-43.6-9.6-60.1,0s-16.5,25.2,0.2,34.8s43.6,9.6,60.1,0S80.9,25.9,64.3,16.3"/>
		</g>
		<g transform="translate(33.867 60.13)" opacity="0.548">
			<path fill="#D2E1F1" d="M61.1,15.6c-16-9.2-41.8-9.2-57.7,0S-12.4,39.7,3.6,49s41.8,9.2,57.7,0S77,24.8,61.1,15.6"/>
		</g>
		<g transform="translate(35.86 63.667)" opacity="0.581">
			<path fill="#D2E1F1" d="M57.9,14.8C42.5,6,17.8,6,2.6,14.8c-15.2,8.8-15.1,23.2,0.2,32s40,8.8,55.2,0S73.2,23.6,57.9,14.8"/>
		</g>
		<g transform="translate(37.852 67.205)" opacity="0.613">
			<path fill="#D2E1F1" d="M54.6,14C40,5.6,16.4,5.6,1.8,14S-12.6,36.2,2,44.6s38.3,8.4,52.8,0S69.3,22.5,54.6,14"/>
		</g>
		<g transform="translate(39.844 70.742)" opacity="0.645">
			<path fill="#D2E1F1" d="M51.4,13.3c-14-8.1-36.5-8-50.4,0s-13.8,21.1,0.2,29.2s36.5,8.1,50.4,0S65.4,21.3,51.4,13.3"/>
		</g>
		<g transform="translate(41.836 74.279)" opacity="0.677">
			<path fill="#D2E1F1" d="M48.2,12.5C35,4.8,13.5,4.8,0.3,12.5s-13.1,20.1,0.2,27.8s34.7,7.7,47.9,0S61.5,20.1,48.2,12.5"/>
		</g>
		<g transform="translate(43.828 77.816)" opacity="0.71">
			<path fill="#D2E1F1" d="M45,11.7c-12.6-7.3-33-7.3-45.5,0s-12.5,19.1,0.1,26.3s33,7.3,45.5,0S57.6,19,45,11.7"/>
		</g>
		<g transform="translate(45.82 81.353)" opacity="0.742">
			<path fill="#D2E1F1" d="M41.8,10.9c-11.9-6.9-31.2-6.9-43.1,0S-13,29-1.1,35.9s31.2,6.9,43,0S53.7,17.8,41.8,10.9"/>
		</g>
		<g transform="translate(47.813 84.89)" opacity="0.774">
			<path fill="#D2E1F1" d="M38.6,10.2C27.4,3.7,9.2,3.7-2,10.2s-11.1,17,0.1,23.5s29.4,6.5,40.6,0S49.9,16.7,38.6,10.2"/>
		</g>
		<g transform="translate(49.805 88.427)" opacity="0.806">
			<path fill="#D2E1F1" d="M35.4,9.4C24.8,3.3,7.7,3.3-2.8,9.4s-10.5,16,0.1,22.1s27.7,6.1,38.2,0S46,15.5,35.4,9.4"/>
		</g>
		<g transform="translate(51.797 91.964)" opacity="0.839">
			<path fill="#D2E1F1" d="M32.2,8.6c-9.9-5.7-25.9-5.7-35.7,0s-9.8,15,0.1,20.7s25.9,5.7,35.7,0S42.1,14.4,32.2,8.6"/>
		</g>
		<g transform="translate(53.789 95.501)" opacity="0.871">
			<path fill="#D2E1F1" d="M29,7.9c-9.2-5.3-24.1-5.3-33.3,0s-9.1,14,0.1,19.3s24.1,5.3,33.3,0S38.2,13.2,29,7.9"/>
		</g>
		<g transform="translate(55.781 99.038)" opacity="0.903">
			<path fill="#D2E1F1" d="M25.8,7.1c-8.5-4.9-22.4-4.9-30.9,0S-13.5,20-5,25s22.4,4.9,30.9,0S34.3,12,25.8,7.1"/>
		</g>
		<g transform="translate(57.774 102.575)" opacity="0.935">
			<path fill="#D2E1F1" d="M22.6,6.3C14.7,1.8,2,1.8-5.9,6.3s-7.8,11.9,0.1,16.5s20.6,4.5,28.4,0S30.4,10.9,22.6,6.3"/>
		</g>
		<g transform="translate(59.766 106.112)" opacity="0.968">
			<path fill="#D2E1F1" d="M19.4,5.6c-7.2-4.2-18.8-4.2-26,0s-7.1,10.9,0.1,15s18.8,4.2,26,0S26.6,9.7,19.4,5.6"/>
		</g>
		<g transform="translate(61.758 109.65)">
			<g>
				<path fill="#D2E1F1" d="M16.2,4.8C9.6,1-0.9,1-7.4,4.8s-6.4,9.9,0.1,13.6s17.1,3.8,23.5,0S22.7,8.6,16.2,4.8"/>
			</g>
		</g>
	</g>
</g>
</svg>
