<?xml version="1.0" encoding="utf-8"?>
<!-- Generator: Adobe Illustrator 25.2.3, SVG Export Plug-In . SVG Version: 6.00 Build 0)  -->
<svg version="1.1" id="Capa_1" xmlns="http://www.w3.org/2000/svg" xmlns:xlink="http://www.w3.org/1999/xlink" x="0px" y="0px"
	 viewBox="0 0 220 220" enable-background="new 0 0 220 220" xml:space="preserve">
<g transform="translate(-420.975 -452.558)">
	<path fill="#12263F" d="M615,511.1c5.1-46.7-40.2-63-72.3-51c-32.4,12.1-39.9-7.9-85.4-2.2c-46.1,5.8-22.7,78.1-22.7,78.1
		s7.3,62.9,16,91.9c8.6,28.8,91.4,18.4,111.5,17.5c20-0.9,37.4,0.8,54.8-30.9C634.3,583,609.9,557.7,615,511.1z"/>
	<g transform="translate(-424.706 102.526)">
		<g transform="translate(850.517 351.882)">
			<g transform="translate(14.932 0)">
				<g transform="translate(48.509 117.215)">
					<g transform="translate(0.003)">
						<path fill="#37474F" d="M36,53.5l17.3-10c1.8-1,2.7-2.4,2.7-3.7s0-2.4,0-2.4l-16.3-9.3c-1-0.7-1.7-1.8-1.7-3V3.8L7.7,21.3
							v21.4c0.1,1.2,0.7,2.3,1.7,3l13.6,7.9C27.1,55.6,31.9,55.6,36,53.5z"/>
					</g>
					<path fill="#263238" d="M15,46.4v2.4l-5.5-3.2c-1-0.7-1.7-1.8-1.7-3V21.3l5.8-3.3c0.1,1.5,0.2,3,0.4,4.5l-4,2.3v16.7
						c0.1,1.2,0.7,2.3,1.7,3L15,46.4z"/>
					<path fill="#455A64" d="M9.8,41.4c0.1,1.2,0.7,2.3,1.7,3l11.5,6.7c4.1,2.1,8.9,2.1,12.9,0l17.3-10c3.6-2.1,3.6-5.4,0-7.5
						l-11.5-6.7c-1-0.7-1.7-1.8-1.7-3V7.2L9.8,24.7L9.8,41.4z"/>
					<path opacity="0.15" enable-background="new    " d="M45.3,28.9L45.3,28.9l-3.5-2c-1-0.7-1.7-1.8-1.7-3V7.2L9.8,24.7v16.7
						c0.1,1.2,0.7,2.3,1.7,3l3.5,2L45.3,28.9z"/>
					<path fill="#37474F" d="M56,37.4v2.4c0,1.4-0.9,2.7-2.7,3.7L36,53.5c-1.9,1-4,1.5-6.2,1.5v-2.4c2.2,0,4.3-0.5,6.2-1.5l17.3-10
						C55.1,40.1,56,38.7,56,37.4z"/>
				</g>
				
					<linearGradient id="SVGID_1_" gradientUnits="userSpaceOnUse" x1="-586.9282" y1="491.3769" x2="-586.9282" y2="490.3769" gradientTransform="matrix(125.354 0 0 -178.3492 73644.1797 87640.4453)">
					<stop  offset="0" style="stop-color:#FFFFFF"/>
					<stop  offset="1" style="stop-color:#D2E6EE"/>
				</linearGradient>
				<path fill="url(#SVGID_1_)" d="M9.7,181.7c1.3,0.6,2.9,0.6,4.2-0.1l117-67.6c1.3-0.8,2.1-2.2,2.2-3.7V7.9
					c-0.1-1.5-0.8-2.8-2-3.7c-1.3-0.6-2.9-0.6-4.2,0.1L9.9,71.9c-1.3,0.8-2.1,2.2-2.2,3.7V178C7.8,179.5,8.5,180.8,9.7,181.7z"/>
				
					<linearGradient id="SVGID_2_" gradientUnits="userSpaceOnUse" x1="-586.7739" y1="491.3519" x2="-586.7739" y2="490.3519" gradientTransform="matrix(121.309 0 0 -175.5269 71253.3672 86251.8438)">
					<stop  offset="0" style="stop-color:#FFFFFF"/>
					<stop  offset="1" style="stop-color:#D2E6EE"/>
				</linearGradient>
				<path fill="url(#SVGID_2_)" d="M13.9,181.6l117-67.6c1.3-0.8,2.1-2.2,2.2-3.7V7.9c0-1.4-1-1.9-2.2-1.2l-117,67.5
					c-1.3,0.8-2.1,2.2-2.2,3.7v102.4C11.8,181.7,12.7,182.3,13.9,181.6z"/>
				<path fill="#37A3A5" d="M15.8,166.8V79.3c0-0.9,0.5-1.7,1.3-2.2l110.6-63.9c0.7-0.4,1.3-0.1,1.3,0.7v87.5c0,0.9-0.5,1.7-1.3,2.2
					L17.1,167.6C16.4,168,15.8,167.6,15.8,166.8z"/>
				<path fill="#27DEBF" d="M72.2,143.7c-0.2,0-0.5-0.1-0.6-0.2c-0.5-0.3-0.8-0.9-0.7-1.5c0.1-1.5,0.9-2.9,2.1-3.7l0,0
					c0.6-0.5,1.6-0.4,2.1,0.2c0.3,0.3,0.4,0.8,0.3,1.2c-0.1,1.5-0.9,2.9-2.1,3.7C72.9,143.6,72.6,143.7,72.2,143.7z M74,138.4
					c-0.3,0-0.5,0.1-0.8,0.2l0,0c-1.1,0.7-1.8,2-1.9,3.3c-0.1,0.5,0.2,1.1,0.8,1.2c0.3,0.1,0.7,0,0.9-0.2c1.1-0.7,1.8-2,1.9-3.3
					c0.1-0.4-0.1-0.8-0.5-1.1C74.3,138.5,74.1,138.4,74,138.4L74,138.4z"/>
			</g>
			<g transform="translate(38.801 17.797)">
				<g transform="translate(0 6.496)">
					<g transform="translate(2.713 1.56)">
						<path fill="#F0F0F0" d="M121.7,3.8L7.7,69.5v84c0,0.8,0.6,1.5,1.5,1.5c0.3,0,0.5-0.1,0.7-0.2l2-1.2l107.6-62
							c1.3-0.8,2-2.2,2.1-3.7L121.7,3.8z"/>
						<path fill="#E0E0E0" d="M121.2,4.6v83.2c-0.1,1.3-0.8,2.5-1.9,3.3l-107.6,62l-2,1.2c-0.1,0.1-0.3,0.1-0.5,0.1
							c-0.3,0-0.5-0.1-0.7-0.3c-0.2-0.2-0.3-0.4-0.3-0.7V69.8L121.2,4.6 M121.7,3.8L7.7,69.5v84c0,0.8,0.7,1.5,1.5,1.5l0,0
							c0.3,0,0.5-0.1,0.7-0.2l2-1.2l107.6-62c1.3-0.8,2-2.2,2.1-3.7L121.7,3.8L121.7,3.8z"/>
					</g>
					<path opacity="0.8" fill="#455A64" enable-background="new    " d="M121.7,3.8L7.7,69.5l2.7,1.6L124.4,5.3L121.7,3.8z"/>
					<path fill="#EBEBEB" d="M11.2,156.3c-0.5-0.3-0.8-0.7-0.8-1.3v-84l-2.7-1.6V153c0,0.1,0,0.2,0,0.3c0.1,0.7,0.5,1.3,1.1,1.6
						l2.2,1.3L11.2,156.3L11.2,156.3z"/>
				</g>
				<g transform="translate(0.003)">
					<path fill="#12263F" d="M7.7,76v-5.7c0-0.7,0.4-1.4,1.1-1.8L120.6,4c0.7-0.3,1.5-0.3,2.1,0l0.6,0.3c0.6,0.4,1,1.1,1.1,1.8v5.7
						L10.4,77.6L7.7,76z"/>
					<path fill="#27DEBF" d="M10.4,71.9c0-0.7,0.4-1.4,1.1-1.8L123.3,5.6c0.6-0.3,1.1-0.1,1.1,0.6v5.7L10.4,77.6L10.4,71.9z"/>
					<path opacity="0.4" fill="#37A3A5" enable-background="new    " d="M10.4,71.9c0-0.7,0.4-1.4,1.1-1.8L123.3,5.6
						c0.6-0.3,1.1-0.1,1.1,0.6v5.7L10.4,77.6L10.4,71.9z"/>
					<path fill="#12263F" d="M10.7,70.9c-0.2,0.3-0.3,0.7-0.3,1v5.7L7.7,76v-5.7c0-0.4,0.1-0.7,0.3-1L10.7,70.9z"/>
					<g transform="translate(103.729 5.985)">
						<path fill="#FAFAFA" d="M15.7,5.6c0,0.6,0.4,0.9,1,0.6c0.6-0.4,1-1,1-1.7c0-0.6-0.4-0.9-1-0.6C16.1,4.3,15.7,4.9,15.7,5.6z"/>
						<path fill="#FAFAFA" d="M11.7,7.9c0,0.6,0.4,0.9,1,0.6c0.6-0.4,1-1,1-1.7c0-0.6-0.4-0.9-1-0.6C12.1,6.6,11.7,7.2,11.7,7.9z"/>
						<path fill="#FAFAFA" d="M7.7,10.2c0,0.6,0.4,0.9,1,0.6c0.6-0.4,1-1,1-1.7c0-0.6-0.4-0.9-1-0.6C8.1,8.9,7.8,9.5,7.7,10.2z"/>
					</g>
				</g>
				<g transform="translate(2.713 11.982)">
					<path fill="#FAFAFA" d="M7.7,65.6v83.9c0,0.8,0.6,1.5,1.5,1.5c0.3,0,0.5-0.1,0.7-0.2l2-1.2l24.9-14.4V48.8L7.7,65.6L7.7,65.6z"
						/>
					<path fill="#FAFAFA" d="M38.8,50.2v81.5l80.5-46.5V3.8L38.8,50.2z"/>
					<g transform="translate(3.254 53.234)">
						<path fill="#27DEBF" d="M26.9,5.4L8.3,16.2c-0.4,0.2-0.6,0.6-0.6,1.1v1.9c0,0.4,0.3,0.6,0.6,0.4L26.9,8.8
							c0.4-0.2,0.6-0.6,0.6-1.1V5.8C27.5,5.4,27.2,5.2,26.9,5.4z"/>
						<path opacity="0.8" fill="#FAFAFA" enable-background="new    " d="M26.9,5.4L8.3,16.2c-0.4,0.2-0.6,0.6-0.6,1.1v1.9
							c0,0.4,0.3,0.6,0.6,0.4L26.9,8.8c0.4-0.2,0.6-0.6,0.6-1.1V5.8C27.5,5.4,27.2,5.2,26.9,5.4z"/>
						<path fill="#455A64" d="M31,6.2l-0.5-0.5c0.1-0.3,0.2-0.6,0.2-0.9c0-0.4-0.1-0.7-0.4-0.9c-0.2-0.1-0.5-0.1-0.7,0
							C29,4.3,28.7,5,28.7,5.7c0,0.4,0.1,0.7,0.4,0.9c0.1,0.1,0.2,0.1,0.3,0.1c0.1,0,0.3,0,0.4-0.1c0.2-0.1,0.4-0.3,0.5-0.5l0.4,0.4
							c0,0,0.1,0.1,0.1,0.1c0.1,0,0.1,0,0.2-0.1C31.1,6.4,31.1,6.3,31,6.2z M29.6,6.2c-0.1,0.1-0.2,0.1-0.2,0
							c-0.1-0.1-0.2-0.2-0.2-0.6c0-0.5,0.2-1.1,0.6-1.4c0,0,0.1,0,0.2-0.1c0,0,0.1,0,0.1,0c0.1,0.1,0.2,0.2,0.2,0.6
							C30.2,5.3,30,5.9,29.6,6.2L29.6,6.2z"/>
					</g>
					<g transform="translate(3.245 65.665)">
						<g transform="translate(0 7.024)">
							<g transform="translate(0)">
								<path fill="#455A64" d="M8.2,5.8L7.8,6c0,0,0,0,0,0V4.8c0,0,0-0.1,0-0.1l0.4-0.2c0,0,0,0,0,0L8.2,5.8
									C8.2,5.7,8.2,5.7,8.2,5.8z"/>
								<path fill="#455A64" d="M8.8,5.4L8.4,5.6c0,0,0,0,0,0V4.5c0,0,0-0.1,0-0.1l0.4-0.2c0,0,0,0,0,0L8.8,5.4
									C8.8,5.3,8.8,5.4,8.8,5.4z"/>
								<path fill="#455A64" d="M9.4,5L9,5.3c0,0,0,0,0,0V4.1C9,4.1,9,4,9,4l0.4-0.2c0,0,0,0,0,0L9.4,5C9.5,5,9.5,5,9.4,5z"/>
								<path fill="#455A64" d="M8.2,7.2L7.8,7.4c0,0,0,0,0,0V6.3c0,0,0-0.1,0-0.1L8.2,6c0,0,0,0,0,0L8.2,7.2
									C8.2,7.2,8.2,7.2,8.2,7.2z"/>
								<path fill="#455A64" d="M8.8,6.8L8.4,7.1c0,0,0,0,0,0V5.9c0,0,0-0.1,0-0.1l0.4-0.2c0,0,0,0,0,0L8.8,6.8
									C8.8,6.8,8.8,6.8,8.8,6.8z"/>
								<path fill="#455A64" d="M9.4,6.5L9,6.7c0,0,0,0,0,0V5.6c0,0,0-0.1,0-0.1l0.4-0.2c0,0,0,0,0,0L9.4,6.5
									C9.5,6.4,9.5,6.5,9.4,6.5z"/>
							</g>
							<g transform="translate(0 5.673)">
								<g transform="translate(0 0.257)">
									<path fill="#455A64" d="M8.2,5.1L7.7,4.8c0,0,0-0.1,0-0.1l0.5-0.9c0,0,0.1,0,0.1,0L8.2,5.1C8.3,5.1,8.3,5.1,8.2,5.1z"/>
								</g>
								<g transform="translate(0.207)">
									<path fill="#455A64" d="M7.8,4.7l0.7-0.4v0.3L7.8,5C7.8,5,7.7,5,7.7,4.9C7.7,4.8,7.8,4.7,7.8,4.7z"/>
									<path fill="#455A64" d="M8.6,4.2l0.2-0.1v0.3L8.6,4.5V4.2z"/>
									<path fill="#455A64" d="M9.5,3.9v1.2c0,0.1,0,0.2-0.1,0.2c-0.1,0-0.1,0-0.1-0.1v-1L9,4.3V4l0.4-0.2
										C9.4,3.8,9.5,3.8,9.5,3.9z"/>
								</g>
							</g>
							<g transform="translate(0 9.795)">
								<path fill="#455A64" d="M8.4,3.9C7.9,4.4,7.6,5.1,7.7,5.8c0.1,0.6,0.4,0.6,0.5,0.9c0,0,0,0,0,0l0.5-0.3c0,0,0,0,0-0.1
									C9,5.8,9.2,5.2,9.3,4.6C9.3,3.9,8.9,3.6,8.4,3.9z"/>
								<path fill="#455A64" d="M8.7,7.2L8.3,7.4c0,0-0.1,0-0.1,0V7c0,0,0-0.1,0.1-0.1l0.4-0.3c0,0,0.1,0,0.1,0L8.7,7.2
									C8.8,7.1,8.7,7.2,8.7,7.2z"/>
							</g>
							<path fill="#455A64" d="M8.5,4.2c-0.5,0.4-0.7,1-0.8,1.7c0,0.3,0,0.6,0.1,0.9L7.7,7.6c0,0.1,0,0.1,0.1,0.1l0.4-0.5
								c0.2,0.1,0.5,0,0.6-0.2c0.5-0.4,0.7-1.1,0.8-1.7C9.8,4.2,9.2,3.6,8.5,4.2z M8.7,6.7C8.3,6.9,8,6.6,8,6c0-0.6,0.3-1.2,0.7-1.6
								c0.4-0.2,0.7,0.1,0.7,0.7C9.5,5.7,9.2,6.3,8.7,6.7L8.7,6.7z"/>
							<path fill="#455A64" d="M8.5,19c-0.5,0.4-0.7,1-0.8,1.7c0,0.3,0,0.6,0.1,0.9l-0.1,0.8c0,0.1,0,0.1,0.1,0.1L8.2,22
								c0.2,0.1,0.5,0,0.6-0.2c0.5-0.4,0.7-1,0.8-1.7C9.8,19,9.2,18.5,8.5,19z M8.7,21.6C8.3,21.8,8,21.5,8,20.8
								c0-0.6,0.3-1.2,0.7-1.6C9.1,19,9.4,19.4,9.4,20C9.5,20.6,9.2,21.2,8.7,21.6L8.7,21.6z"/>
							<g transform="translate(0 20.277)">
								<path fill="#455A64" d="M9.2,4.2C9.2,4.5,9,4.8,8.8,5C8.6,5.1,8.4,5,8.4,4.6c0-0.3,0.1-0.6,0.4-0.8C9,3.7,9.2,3.9,9.2,4.2z"
									/>
								<path fill="#455A64" d="M9.8,4.3c0,0.2-0.1,0.4-0.3,0.6C9.4,5,9.3,4.8,9.3,4.6c0-0.2,0.1-0.4,0.3-0.6C9.7,4,9.8,4.1,9.8,4.3
									z"/>
								<path fill="#455A64" d="M9.2,6.6L8.3,7.1V5.9c0-0.3,0.1-0.5,0.3-0.6l0.3-0.1c0.2-0.1,0.3,0,0.3,0.3V6.6z"/>
								<path fill="#455A64" d="M9.6,5L9.4,5.1v1.3l0.5-0.3v-1C9.8,5,9.7,4.9,9.6,5z"/>
								<path fill="#455A64" d="M7.7,5.5c0,0.2,0.1,0.3,0.3,0.3c0.2-0.1,0.3-0.3,0.3-0.6C8.2,5,8.1,4.9,8,5C7.8,5.1,7.7,5.3,7.7,5.5
									z"/>
								<path fill="#455A64" d="M7.9,6l0.3-0.1v1.3L7.7,7.5v-1C7.7,6.2,7.8,6.1,7.9,6z"/>
							</g>
						</g>
						<g transform="translate(3.987)">
							<path fill="#E0E0E0" d="M8.2,10.1l10.9-6.3c0.3-0.2,0.5,0,0.5,0.3c0,0.4-0.2,0.7-0.5,0.9L8.2,11.3c-0.3,0.2-0.5,0-0.5-0.3
								C7.7,10.7,7.9,10.3,8.2,10.1z"/>
							<path fill="#E0E0E0" d="M8.2,15.3L19.1,9c0.3-0.2,0.5,0,0.5,0.3c0,0.4-0.2,0.7-0.5,0.9L8.2,16.4c-0.3,0.2-0.5,0-0.5-0.3
								C7.7,15.8,7.9,15.4,8.2,15.3z"/>
							<path fill="#E0E0E0" d="M8.2,20.4l10.9-6.3c0.3-0.2,0.5,0,0.5,0.3c0,0.4-0.2,0.7-0.5,0.9L8.2,21.5c-0.3,0.2-0.5,0-0.5-0.3
								C7.7,20.9,7.9,20.6,8.2,20.4z"/>
							<path fill="#E0E0E0" d="M8.2,25.5l10.9-6.3c0.3-0.2,0.5,0,0.5,0.3c0,0.4-0.2,0.7-0.5,0.9L8.2,26.6c-0.3,0.2-0.5,0-0.5-0.3
								C7.7,26,7.9,25.7,8.2,25.5z"/>
							<path fill="#E0E0E0" d="M8.2,30.6l10.9-6.3c0.3-0.2,0.5,0,0.5,0.3c0,0.4-0.2,0.7-0.5,0.9L8.2,31.8c-0.3,0.2-0.5,0-0.5-0.3
								C7.7,31.1,7.9,30.8,8.2,30.6z"/>
							<path fill="#455A64" d="M10.2,34.8l10.9-6.3c0.3-0.2,0.5,0,0.5,0.3c0,0.4-0.2,0.7-0.5,0.9l-10.9,6.3c-0.3,0.2-0.5,0-0.5-0.3
								C9.7,35.3,9.9,35,10.2,34.8z"/>
							<path fill="#E0E0E0" d="M10.2,38.2L21.1,32c0.3-0.2,0.5,0,0.5,0.3c0,0.4-0.2,0.7-0.5,0.9l-10.9,6.3c-0.3,0.2-0.5,0-0.5-0.3
								C9.7,38.8,9.9,38.4,10.2,38.2z"/>
							<path fill="#E0E0E0" d="M10.2,41.7l10.9-6.3c0.3-0.2,0.5,0,0.5,0.3c0,0.4-0.2,0.7-0.5,0.9l-10.9,6.3c-0.3,0.2-0.5,0-0.5-0.3
								C9.7,42.2,9.9,41.9,10.2,41.7z"/>
							<path fill="#E0E0E0" d="M12.3,43.9l10.9-6.3c0.3-0.2,0.5,0,0.5,0.3c0,0.4-0.2,0.7-0.5,0.9l-10.9,6.3c-0.3,0.2-0.5,0-0.5-0.3
								C11.8,44.4,12,44.1,12.3,43.9z"/>
							<g transform="translate(1.989 40.835)">
								<path fill="#455A64" d="M7.8,6l0.9-1.6c0-0.1,0-0.1,0-0.2L7.8,3.8c0,0-0.1,0.1-0.1,0.1V6C7.7,6.1,7.8,6.1,7.8,6z"/>
							</g>
							<path fill="#E0E0E0" d="M12.3,47.3l10.9-6.3c0.3-0.2,0.5,0,0.5,0.3c0,0.4-0.2,0.7-0.5,0.9l-10.9,6.3c-0.3,0.2-0.5,0-0.5-0.3
								C11.8,47.9,12,47.5,12.3,47.3z"/>
							<g transform="translate(1.989 44.28)">
								<path fill="#455A64" d="M7.8,6l0.9-1.6c0-0.1,0-0.1,0-0.2L7.8,3.8c0,0-0.1,0.1-0.1,0.1V6C7.7,6.1,7.8,6.1,7.8,6z"/>
							</g>
							<path fill="#E0E0E0" d="M12.3,50.8l10.9-6.3c0.3-0.2,0.5,0,0.5,0.3c0,0.4-0.2,0.7-0.5,0.9l-10.9,6.3c-0.3,0.2-0.5,0-0.5-0.3
								C11.8,51.3,12,51,12.3,50.8z"/>
							<g transform="translate(1.989 47.726)">
								<path fill="#455A64" d="M7.8,6l0.9-1.6c0-0.1,0-0.1,0-0.2L7.8,3.8c0,0-0.1,0.1-0.1,0.1V6C7.7,6.1,7.8,6.1,7.8,6z"/>
							</g>
							<path fill="#E0E0E0" d="M12.3,54.2L23.2,48c0.3-0.2,0.5,0,0.5,0.3c0,0.4-0.2,0.7-0.5,0.9l-10.9,6.3c-0.3,0.2-0.5,0-0.5-0.3
								C11.8,54.8,12,54.4,12.3,54.2z"/>
							<g transform="translate(1.989 51.171)">
								<path fill="#455A64" d="M7.8,6l0.9-1.6c0-0.1,0-0.1,0-0.2L7.8,3.8c0,0-0.1,0.1-0.1,0.1V6C7.7,6.1,7.8,6.1,7.8,6z"/>
							</g>
							<path fill="#E0E0E0" d="M12.3,57.7l10.9-6.3c0.3-0.2,0.5,0,0.5,0.3c0,0.4-0.2,0.7-0.5,0.9l-10.9,6.3c-0.3,0.2-0.5,0-0.5-0.3
								C11.8,58.2,12,57.9,12.3,57.7z"/>
							<g transform="translate(1.989 54.617)">
								<path fill="#455A64" d="M7.8,6l0.9-1.6c0-0.1,0-0.1,0-0.2L7.8,3.8c0,0-0.1,0.1-0.1,0.1V6C7.7,6.1,7.8,6.1,7.8,6z"/>
							</g>
							<path fill="#E0E0E0" d="M12.3,61.1l10.9-6.3c0.3-0.2,0.5,0,0.5,0.3c0,0.4-0.2,0.7-0.5,0.9l-10.9,6.3c-0.3,0.2-0.5,0-0.5-0.3
								C11.8,61.6,12,61.3,12.3,61.1z"/>
							<g transform="translate(1.989 58.062)">
								<path fill="#455A64" d="M7.8,6l0.9-1.6c0-0.1,0-0.1,0-0.2L7.8,3.8c0,0-0.1,0.1-0.1,0.1V6C7.7,6.1,7.8,6.1,7.8,6z"/>
							</g>
							<path fill="#E0E0E0" d="M12.3,64.6l10.9-6.3c0.3-0.2,0.5,0,0.5,0.3c0,0.4-0.2,0.7-0.5,0.9l-10.9,6.3c-0.3,0.2-0.5,0-0.5-0.3
								C11.8,65.1,12,64.8,12.3,64.6z"/>
							<g transform="translate(1.989 61.507)">
								<path fill="#455A64" d="M7.8,6l0.9-1.6c0-0.1,0-0.1,0-0.2L7.8,3.8c0,0-0.1,0.1-0.1,0.1V6C7.7,6.1,7.8,6.1,7.8,6z"/>
							</g>
							<path fill="#E0E0E0" d="M12.3,68l10.9-6.3c0.3-0.2,0.5,0,0.5,0.3c0,0.4-0.2,0.7-0.5,0.9l-10.9,6.3c-0.3,0.2-0.5,0-0.5-0.3
								C11.8,68.5,12,68.2,12.3,68z"/>
							<g transform="translate(1.989 64.953)">
								<path fill="#455A64" d="M7.8,6l0.9-1.6c0-0.1,0-0.1,0-0.2L7.8,3.8c0,0-0.1,0.1-0.1,0.1V6C7.7,6.1,7.8,6.1,7.8,6z"/>
							</g>
						</g>
					</g>
					<g transform="translate(33.089 4.198)">
						<g transform="translate(0 22.395)">
							<path fill="#F0F0F0" d="M8.2,34.8L44,14.2c0.3-0.2,0.5-0.5,0.5-0.9V4.2c0-0.3-0.2-0.5-0.5-0.3L8.2,24.5
								c-0.3,0.2-0.5,0.5-0.5,0.9v9.1C7.7,34.9,8,35,8.2,34.8z"/>
							<g transform="translate(2.32 19.528)">
								<g transform="translate(1.211 2.783)">
									<path fill="#455A64" d="M7.8,6.1C7.8,6.1,7.8,6.1,7.8,6.1l0.2-1L7.7,5.3c0,0,0,0,0,0c0,0,0,0,0,0V5.1c0,0,0,0,0,0
										c0,0,0,0,0,0l0.5-0.3c0,0,0,0,0,0c0,0,0,0,0,0v0.2c0,0,0,0.1,0,0.1L8,6c0,0,0,0,0,0c0,0,0,0,0,0L7.8,6.1
										C7.8,6.1,7.8,6.1,7.8,6.1C7.8,6.1,7.8,6.1,7.8,6.1z"/>
									<path fill="#455A64" d="M8.7,4.4c0,0,0.1,0,0.1,0c0,0,0.1,0,0.1,0c0,0,0,0.1,0.1,0.1c0,0.1,0,0.1,0,0.2c0,0,0,0.1,0,0.1
										S9,5,9,5c0,0.1,0,0.1,0,0.2c0,0.1,0,0.1-0.1,0.2c0,0.1-0.1,0.1-0.1,0.2c0,0-0.1,0.1-0.1,0.1c0,0-0.1,0-0.1,0
										c0,0-0.1,0-0.1,0c0,0,0-0.1-0.1-0.1c0-0.1,0-0.1,0-0.2c0,0,0-0.1,0-0.1s0-0.1,0-0.2c0-0.1,0-0.1,0-0.2c0-0.1,0-0.1,0.1-0.2
										c0-0.1,0.1-0.1,0.1-0.2C8.6,4.5,8.6,4.5,8.7,4.4z M8.8,5.1c0-0.1,0-0.2,0-0.3c0,0,0,0,0-0.1c0,0,0,0,0-0.1c0,0,0,0,0,0
										c0,0,0,0-0.1,0c0,0,0,0-0.1,0c0,0,0,0,0,0.1c0,0,0,0,0,0.1c0,0,0,0.1,0,0.1c0,0.1,0,0.2,0,0.3c0,0,0,0,0,0.1c0,0,0,0,0,0.1
										c0,0,0,0,0,0c0,0,0,0,0.1,0c0,0,0,0,0.1,0c0,0,0,0,0-0.1C8.8,5.2,8.8,5.2,8.8,5.1C8.8,5.2,8.8,5.1,8.8,5.1z"/>
									<path fill="#455A64" d="M9.4,4.2c0,0,0,0.1,0,0.1c0,0,0,0.1,0,0.1c0,0,0,0.1,0,0.1c0,0,0,0.1-0.1,0.1c0,0,0,0-0.1,0.1
										c0,0,0,0-0.1,0c0,0,0,0-0.1,0c0,0,0,0,0-0.1c0,0,0-0.1,0-0.1c0,0,0,0,0-0.1s0,0,0-0.1c0,0,0-0.1,0-0.1c0,0,0-0.1,0-0.1
										c0,0,0-0.1,0.1-0.1c0,0,0,0,0.1-0.1c0,0,0,0,0.1,0c0,0,0,0,0.1,0C9.4,4.1,9.4,4.1,9.4,4.2C9.4,4.2,9.4,4.2,9.4,4.2z
										 M9.7,3.9C9.7,3.9,9.7,3.9,9.7,3.9C9.7,3.8,9.7,3.8,9.7,3.9l0.1-0.1c0,0,0,0,0,0c0,0,0,0,0,0v0c0,0,0,0,0,0L9.3,5.2
										c0,0,0,0,0,0c0,0,0,0,0,0L9.2,5.3c0,0,0,0,0,0c0,0,0,0,0,0v0c0,0,0,0,0,0L9.7,3.9z M9.2,4.5C9.2,4.5,9.2,4.5,9.2,4.5
										C9.2,4.6,9.3,4.6,9.2,4.5C9.3,4.5,9.3,4.5,9.2,4.5C9.3,4.5,9.3,4.5,9.2,4.5c0.1-0.1,0.1-0.1,0.1-0.2c0,0,0,0,0-0.1
										c0,0,0,0,0,0c0,0,0,0,0,0c0,0,0,0,0,0.1C9.2,4.4,9.2,4.5,9.2,4.5L9.2,4.5z M10,4.5c0,0,0,0.1,0,0.1c0,0,0,0.1,0,0.1
										c0,0,0,0.1,0,0.1c0,0,0,0.1-0.1,0.1c0,0,0,0-0.1,0.1c0,0,0,0-0.1,0c0,0,0,0-0.1,0c0,0,0,0,0-0.1c0,0,0-0.1,0-0.1
										c0,0,0,0,0-0.1s0,0,0-0.1c0,0,0-0.1,0-0.1c0,0,0-0.1,0-0.1c0,0,0-0.1,0.1-0.1c0,0,0,0,0.1-0.1c0,0,0,0,0.1,0c0,0,0,0,0.1,0
										C9.9,4.4,9.9,4.4,10,4.5C9.9,4.5,10,4.5,10,4.5L10,4.5z M9.7,4.8C9.7,4.8,9.7,4.8,9.7,4.8C9.8,4.9,9.8,4.9,9.7,4.8
										C9.8,4.8,9.8,4.8,9.7,4.8C9.8,4.8,9.8,4.8,9.7,4.8c0.1-0.1,0.1-0.1,0.1-0.2c0,0,0,0,0-0.1c0,0,0,0,0,0c0,0,0,0,0,0
										c0,0,0,0,0,0.1C9.7,4.7,9.7,4.7,9.7,4.8L9.7,4.8z"/>
								</g>
								<path fill="#455A64" d="M9,6.1L8.7,5.5C8.3,6.2,8,7,7.8,7.8l0.6,0C8.5,7.1,8.7,6.6,9,6.1z"/>
								<path fill="#455A64" d="M10,5V4C9.5,4.4,9,4.9,8.7,5.5L9,6.1C9.3,5.6,9.6,5.2,10,5z"/>
								<path fill="#455A64" d="M8.3,8.6c0-0.3,0-0.6,0.1-0.9l-0.6,0C7.8,8.2,7.7,8.6,7.7,9c0,0.4,0,0.7,0.1,1l0.6-0.6
									C8.3,9.1,8.3,8.9,8.3,8.6z"/>
								<path fill="#27DEBF" d="M12.3,5.2c-0.1-0.5-0.4-1-0.8-1.3C11,3.7,10.5,3.7,10,4V5c0.3-0.2,0.7-0.2,1-0.1
									c0.3,0.2,0.6,0.6,0.6,1c0.1,0.3,0.1,0.5,0.1,0.8c0,0.3,0,0.6-0.1,0.9c-0.1,0.6-0.3,1.2-0.6,1.7c-0.2,0.4-0.6,0.8-1,1.1
									c-0.3,0.2-0.7,0.2-1,0.1c-0.3-0.2-0.6-0.6-0.6-1L7.8,10c0.1,0.5,0.4,1,0.8,1.3c0.4,0.2,1,0.2,1.4-0.1c0.6-0.4,1-0.9,1.4-1.5
									c0.4-0.7,0.7-1.5,0.8-2.3c0.1-0.4,0.1-0.8,0.1-1.2C12.4,5.9,12.3,5.6,12.3,5.2z"/>
							</g>
							<path fill="#455A64" d="M18.2,22.2l10.9-6.3c0.3-0.2,0.5,0,0.5,0.3c0,0.4-0.2,0.7-0.5,0.9l-10.9,6.3c-0.3,0.2-0.5,0-0.5-0.3
								C17.7,22.7,17.9,22.4,18.2,22.2z"/>
							<path fill="#E0E0E0" d="M18.2,24.5L37,13.6c0.3-0.2,0.5,0,0.5,0.3c0,0.4-0.2,0.7-0.5,0.9L18.2,25.7c-0.3,0.2-0.5,0-0.5-0.3
								C17.7,25,17.9,24.7,18.2,24.5z"/>
						</g>
						<g transform="translate(38.782)">
							<path fill="#F0F0F0" d="M8.2,34.8L44,14.2c0.3-0.2,0.5-0.5,0.5-0.9V4.2c0-0.3-0.2-0.5-0.5-0.3L8.2,24.5
								c-0.3,0.2-0.5,0.5-0.5,0.9v9.1C7.7,34.9,7.9,35,8.2,34.8z"/>
							<g transform="translate(2.643 19.339)">
								<g transform="translate(1.18 2.765)">
									<path fill="#455A64" d="M7.7,5.5c0-0.1,0-0.1,0-0.2c0-0.1,0-0.1,0.1-0.2C7.8,5,7.9,5,7.9,4.9c0,0,0.1-0.1,0.1-0.1
										c0,0,0.1,0,0.1,0c0,0,0.1,0,0.1,0c0,0,0.1,0.1,0.1,0.1c0,0.1,0,0.1,0,0.2c0,0,0,0.1,0,0.1c0,0,0,0.1,0,0.1s0,0.1,0,0.1
										s0,0.1,0,0.1L8.1,6c0,0,0,0,0,0c0,0,0,0,0,0L7.9,6.1c0,0,0,0,0,0c0,0,0,0,0,0c0,0,0,0,0,0c0,0,0,0,0,0c0,0,0,0,0,0L8,5.7
										c0,0-0.1,0-0.1,0c0,0-0.1,0-0.1,0c0,0,0-0.1-0.1-0.1C7.7,5.6,7.7,5.5,7.7,5.5z M8.1,5.2C8.1,5.2,8.1,5.2,8.1,5.2
										C8.1,5.1,8.1,5.1,8.1,5.2C8.1,5.1,8,5.1,8,5.1c0,0,0,0,0,0c0,0,0,0,0,0.1c0,0,0,0,0,0.1c0,0,0,0,0,0.1c0,0,0,0,0,0.1
										c0,0,0,0,0,0c0,0,0,0,0,0c0,0,0,0,0,0c0,0,0,0,0,0c0,0,0,0,0-0.1C8.1,5.3,8.1,5.3,8.1,5.2C8.1,5.2,8.1,5.2,8.1,5.2z"/>
									<path fill="#455A64" d="M8.8,4.4c0,0,0.1,0,0.1,0c0,0,0.1,0,0.1,0c0,0,0,0.1,0.1,0.1c0,0.1,0,0.1,0,0.2c0,0,0,0.1,0,0.1
										s0,0.1,0,0.1c0,0.1,0,0.1,0,0.2C9,5.2,9,5.3,9,5.4c0,0.1-0.1,0.1-0.1,0.2c0,0-0.1,0.1-0.1,0.1c0,0-0.1,0-0.1,0
										c0,0-0.1,0-0.1,0c0,0,0-0.1-0.1-0.1c0-0.1,0-0.1,0-0.2c0,0,0-0.1,0-0.1s0-0.1,0-0.2c0-0.1,0-0.1,0-0.2c0-0.1,0-0.1,0.1-0.2
										c0-0.1,0.1-0.1,0.1-0.2C8.7,4.5,8.7,4.5,8.8,4.4z M8.9,5.1c0-0.1,0-0.2,0-0.3c0,0,0,0,0-0.1c0,0,0,0,0-0.1c0,0,0,0,0,0
										c0,0,0,0-0.1,0c0,0,0,0-0.1,0c0,0,0,0,0,0.1c0,0,0,0,0,0.1c0,0,0,0.1,0,0.1c0,0.1,0,0.2,0,0.3c0,0,0,0,0,0.1c0,0,0,0,0,0.1
										c0,0,0,0,0,0c0,0,0,0,0.1,0c0,0,0,0,0.1,0c0,0,0,0,0-0.1C8.9,5.2,8.9,5.2,8.9,5.1C8.9,5.2,8.9,5.1,8.9,5.1z"/>
									<path fill="#455A64" d="M9.5,4.2c0,0,0,0.1,0,0.1c0,0,0,0.1,0,0.1c0,0,0,0.1,0,0.1c0,0,0,0.1-0.1,0.1c0,0,0,0-0.1,0.1
										c0,0,0,0-0.1,0c0,0,0,0-0.1,0c0,0,0,0,0-0.1c0,0,0-0.1,0-0.1c0,0,0,0,0-0.1s0,0,0-0.1c0,0,0-0.1,0-0.1c0,0,0-0.1,0-0.1
										c0,0,0-0.1,0.1-0.1c0,0,0,0,0.1-0.1c0,0,0,0,0.1,0c0,0,0,0,0.1,0C9.5,4.1,9.5,4.1,9.5,4.2C9.5,4.2,9.5,4.2,9.5,4.2z
										 M9.8,3.9C9.8,3.9,9.8,3.9,9.8,3.9C9.8,3.8,9.8,3.8,9.8,3.9l0.1-0.1c0,0,0,0,0,0c0,0,0,0,0,0v0c0,0,0,0,0,0L9.4,5.2
										c0,0,0,0,0,0c0,0,0,0,0,0L9.3,5.3c0,0,0,0,0,0c0,0,0,0,0,0v0c0,0,0,0,0,0L9.8,3.9z M9.3,4.5C9.3,4.5,9.3,4.5,9.3,4.5
										C9.3,4.6,9.3,4.6,9.3,4.5C9.4,4.5,9.4,4.5,9.3,4.5C9.4,4.5,9.4,4.5,9.3,4.5c0.1-0.1,0.1-0.1,0.1-0.2c0,0,0,0,0-0.1
										c0,0,0,0,0,0c0,0,0,0,0,0c0,0,0,0,0,0.1C9.3,4.4,9.3,4.4,9.3,4.5L9.3,4.5z M10,4.5c0,0,0,0.1,0,0.1c0,0,0,0.1,0,0.1
										c0,0,0,0.1,0,0.1c0,0,0,0.1-0.1,0.1c0,0,0,0-0.1,0.1c0,0,0,0-0.1,0c0,0,0,0-0.1,0c0,0,0,0,0-0.1c0,0,0-0.1,0-0.1
										c0,0,0,0,0-0.1s0,0,0-0.1c0,0,0-0.1,0-0.1c0,0,0-0.1,0-0.1c0,0,0-0.1,0.1-0.1c0,0,0,0,0.1-0.1c0,0,0,0,0.1,0c0,0,0,0,0.1,0
										C10,4.4,10,4.4,10,4.5C10,4.5,10,4.5,10,4.5L10,4.5z M9.8,4.8C9.8,4.8,9.8,4.8,9.8,4.8C9.8,4.9,9.8,4.9,9.8,4.8
										C9.9,4.8,9.9,4.8,9.8,4.8C9.9,4.8,9.9,4.8,9.8,4.8c0.1-0.1,0.1-0.1,0.1-0.2c0,0,0,0,0-0.1c0,0,0,0,0,0c0,0,0,0,0,0
										c0,0,0,0,0,0.1C9.8,4.7,9.8,4.7,9.8,4.8L9.8,4.8z"/>
								</g>
								<path fill="#455A64" d="M10,5V4C9.5,4.4,9,4.9,8.7,5.5L9,6.1C9.3,5.6,9.6,5.2,10,5z"/>
								<path fill="#27DEBF" d="M12.3,5.2c-0.1-0.5-0.4-1-0.8-1.3C11,3.7,10.5,3.7,10,4V5c0.3-0.2,0.7-0.2,1-0.1
									c0.3,0.2,0.6,0.6,0.6,1c0.1,0.3,0.1,0.5,0.1,0.8c0,0.3,0,0.6-0.1,0.9c-0.1,0.6-0.3,1.2-0.6,1.7c-0.2,0.4-0.6,0.8-1,1.1
									c-0.3,0.2-0.7,0.2-1,0.1c-0.3-0.2-0.6-0.6-0.6-1C8.3,9.1,8.3,8.9,8.3,8.6c0-0.3,0-0.6,0.1-0.9C8.5,7.2,8.7,6.6,9,6.1
									L8.7,5.5C8.3,6.2,8,7,7.8,7.8C7.8,8.2,7.7,8.6,7.7,9c0,0.4,0,0.7,0.1,1c0.1,0.5,0.4,1,0.8,1.3c0.4,0.2,1,0.2,1.4-0.1
									c0.6-0.4,1-0.9,1.4-1.5l0,0c0.4-0.7,0.7-1.5,0.8-2.3c0.1-0.4,0.1-0.8,0.1-1.2C12.4,5.9,12.3,5.6,12.3,5.2z"/>
							</g>
							<path fill="#455A64" d="M18.5,22l10.9-6.3c0.3-0.2,0.5,0,0.5,0.3c0,0.4-0.2,0.7-0.5,0.9l-10.9,6.3c-0.3,0.2-0.5,0-0.5-0.3
								C18,22.5,18.2,22.2,18.5,22z"/>
							<path fill="#E0E0E0" d="M18.5,24.3l18.8-10.9c0.3-0.2,0.5,0,0.5,0.3c0,0.4-0.2,0.7-0.5,0.9L18.5,25.5c-0.3,0.2-0.5,0-0.5-0.3
								C18,24.8,18.2,24.5,18.5,24.3z"/>
						</g>
					</g>
					<g transform="translate(33.089 21.423)">
						<path fill="#455A64" d="M11.9,42.5l7.6-4.4c0.3-0.2,0.5,0,0.5,0.3c0,0.4-0.2,0.7-0.5,0.9l-7.6,4.4c-0.3,0.2-0.5,0-0.5-0.3
							C11.4,43,11.6,42.7,11.9,42.5z"/>
						<path fill="#E0E0E0" d="M83,4.3L83,4.3 M82.8,4.4v58.3c0,0.2-0.1,0.4-0.3,0.5L8.2,106.1V47.8c0-0.2,0.1-0.4,0.3-0.5l0.9-0.5
							c0.5-0.3,0.8-0.8,0.8-1.3v-3.4c0-0.2,0.1-0.4,0.3-0.5l10.7-6.2v3.1c0,0.4,0.3,0.8,0.7,0.9c0,0,0,0,0.1,0
							c0.2,0,0.3-0.1,0.5-0.1L82.8,4.4 M21.4,35.3L21.4,35.3 M83,3.8c-0.1,0-0.2,0-0.2,0.1l-60.6,35c-0.1,0-0.2,0.1-0.2,0.1
							c-0.2,0-0.3-0.1-0.3-0.4v-3.4c0-0.2-0.1-0.4-0.3-0.4c-0.1,0-0.2,0-0.2,0.1l-10.9,6.3c-0.3,0.2-0.5,0.5-0.5,0.9v3.4
							c0,0.4-0.2,0.7-0.5,0.9l-0.9,0.5c-0.3,0.2-0.5,0.5-0.5,0.9v58.5c0,0.2,0.1,0.4,0.3,0.4c0.1,0,0.2,0,0.2-0.1l74.5-43
							c0.3-0.2,0.5-0.5,0.5-0.9V4.2C83.3,3.9,83.2,3.8,83,3.8L83,3.8z"/>
						<g transform="translate(4.255 39.072)">
							<path fill="#E0E0E0" d="M8.3,11.3c-0.1,0-0.2,0-0.3-0.1c-0.2-0.1-0.3-0.3-0.3-0.6V8.4C7.7,8,8,7.5,8.4,7.3l5.9-3.4
								c0.2-0.2,0.6-0.1,0.8,0.1c0.1,0.1,0.1,0.3,0.1,0.4v2.2c0,0.5-0.3,0.9-0.7,1.1l-5.9,3.4C8.5,11.2,8.4,11.3,8.3,11.3z M8.6,7.7
								C8.4,7.9,8.2,8.1,8.2,8.4v2.2c0,0.1,0,0.1,0,0.1s0.1,0,0.1,0l5.9-3.4c0.2-0.2,0.4-0.4,0.4-0.7V4.4c0-0.1,0-0.1,0-0.1
								s-0.1,0-0.1,0L8.6,7.7z"/>
							<path fill="#E0E0E0" d="M9,8.6l3.9-2.2c0.2-0.1,0.4,0,0.4,0.2c0,0.2-0.1,0.5-0.4,0.6L9,9.4c-0.2,0.1-0.4,0-0.4-0.2
								C8.6,9,8.8,8.8,9,8.6z"/>
							<g transform="translate(5.99 1.789)">
								<path fill="#455A64" d="M7.7,4.2L8,4.7c0,0,0,0,0,0l0.3-0.8c0,0,0-0.1,0-0.1L7.7,4.2C7.7,4.2,7.7,4.2,7.7,4.2z"/>
							</g>
						</g>
						<g transform="translate(3.467 26.667)">
							<g transform="translate(0 41.34)">
								<path fill="#27DEBF" d="M8.2,3.9c0.3-0.2,0.5,0,0.5,0.3c0,0.4-0.2,0.7-0.5,0.9c-0.3,0.2-0.5,0-0.5-0.3
									C7.7,4.4,7.9,4,8.2,3.9z"/>
							</g>
							<g transform="translate(3.978 36.747)">
								<path fill="#27DEBF" d="M8.2,3.8c0.3-0.2,0.5,0,0.5,0.3c0,0.4-0.2,0.7-0.5,0.9c-0.3,0.2-0.5,0-0.5-0.3
									C7.7,4.4,7.9,4,8.2,3.8z"/>
							</g>
							<g transform="translate(7.956 34.45)">
								<path fill="#27DEBF" d="M8.2,3.9c0.3-0.2,0.5,0,0.5,0.3c0,0.4-0.2,0.7-0.5,0.9c-0.3,0.2-0.5,0-0.5-0.3
									C7.7,4.4,7.9,4,8.2,3.9z"/>
							</g>
							<g transform="translate(11.934 33.162)">
								<path fill="#27DEBF" d="M8.2,3.8c0.3-0.2,0.5,0,0.5,0.3c0,0.4-0.2,0.7-0.5,0.9c-0.3,0.2-0.5,0-0.5-0.3
									C7.7,4.4,7.9,4,8.2,3.8z"/>
							</g>
							<g transform="translate(15.916 29.027)">
								<path fill="#27DEBF" d="M8.2,3.8c0.3-0.2,0.5,0,0.5,0.3c0,0.4-0.2,0.7-0.5,0.9c-0.3,0.2-0.5,0-0.5-0.3
									C7.7,4.4,7.9,4,8.2,3.8z"/>
							</g>
							<g transform="translate(19.89 27.56)">
								<path fill="#27DEBF" d="M8.2,3.8c0.3-0.2,0.5,0,0.5,0.3c0,0.4-0.2,0.7-0.5,0.9c-0.3,0.2-0.5,0-0.5-0.3
									C7.7,4.4,7.9,4,8.2,3.8z"/>
							</g>
							<g transform="translate(23.867 22.967)">
								<path fill="#27DEBF" d="M8.2,3.9c0.3-0.2,0.5,0,0.5,0.3c0,0.4-0.2,0.7-0.5,0.9c-0.3,0.2-0.5,0-0.5-0.3
									C7.7,4.4,7.9,4,8.2,3.9z"/>
							</g>
							<g transform="translate(27.846 21.819)">
								<path fill="#27DEBF" d="M8.2,3.8c0.3-0.2,0.5,0,0.5,0.3c0,0.4-0.2,0.7-0.5,0.9c-0.3,0.2-0.5,0-0.5-0.3
									C7.7,4.4,7.9,4,8.2,3.8z"/>
							</g>
							<g transform="translate(31.824 9.187)">
								<path fill="#27DEBF" d="M8.2,3.9c0.3-0.2,0.5,0,0.5,0.3c0,0.4-0.2,0.7-0.5,0.9c-0.3,0.2-0.5,0-0.5-0.3
									C7.7,4.4,7.9,4,8.2,3.9z"/>
							</g>
							<g transform="translate(35.802 16.077)">
								<path fill="#27DEBF" d="M8.2,3.9c0.3-0.2,0.5,0,0.5,0.3c0,0.4-0.2,0.7-0.5,0.9c-0.3,0.2-0.5,0-0.5-0.3
									C7.7,4.4,7.9,4,8.2,3.9z"/>
							</g>
							<g transform="translate(39.78 16.077)">
								<path fill="#27DEBF" d="M8.2,3.9c0.3-0.2,0.5,0,0.5,0.3c0,0.4-0.2,0.7-0.5,0.9c-0.3,0.2-0.5,0-0.5-0.3
									C7.7,4.4,7.9,4,8.2,3.9z"/>
							</g>
							<g transform="translate(43.758 16.077)">
								<path fill="#27DEBF" d="M8.2,3.8c0.3-0.2,0.5,0,0.5,0.3c0,0.4-0.2,0.7-0.5,0.9c-0.3,0.2-0.5,0-0.5-0.3
									C7.7,4.4,7.9,4,8.2,3.8z"/>
							</g>
							<g transform="translate(47.736 9.187)">
								<path fill="#27DEBF" d="M8.2,3.9c0.3-0.2,0.5,0,0.5,0.3c0,0.4-0.2,0.7-0.5,0.9c-0.3,0.2-0.5,0-0.5-0.3
									C7.7,4.4,7.9,4,8.2,3.9z"/>
							</g>
							<g transform="translate(51.714 7.867)">
								<path fill="#27DEBF" d="M8.2,3.8c0.3-0.2,0.5,0,0.5,0.3c0,0.4-0.2,0.7-0.5,0.9c-0.3,0.2-0.5,0-0.5-0.3
									C7.7,4.4,7.9,4,8.2,3.8z"/>
							</g>
							<g transform="translate(55.706 2.297)">
								<path fill="#27DEBF" d="M8.2,3.9c0.3-0.2,0.5,0,0.5,0.3c0,0.4-0.2,0.7-0.5,0.9c-0.3,0.2-0.5,0-0.5-0.3
									C7.7,4.4,7.9,4,8.2,3.9z"/>
							</g>
							<g transform="translate(59.458 2.122)">
								<ellipse transform="matrix(0.5 -0.8661 0.8661 0.5 0.2219 9.613)" fill="#27DEBF" cx="8.4" cy="4.6" rx="0.7" ry="0.4"/>
							</g>
							<g transform="translate(63.436 2.122)">
								<ellipse transform="matrix(0.5 -0.8661 0.8661 0.5 0.2219 9.613)" fill="#27DEBF" cx="8.4" cy="4.6" rx="0.7" ry="0.4"/>
							</g>
							<g transform="translate(67.626)">
								<path fill="#27DEBF" d="M8.2,3.8c0.3-0.2,0.5,0,0.5,0.3c0,0.4-0.2,0.7-0.5,0.9c-0.3,0.2-0.5,0-0.5-0.3
									C7.7,4.4,7.9,4,8.2,3.8z"/>
							</g>
							<g transform="translate(0.378 0.537)">
								<path fill="#27DEBF" d="M7.8,45.4c-0.1,0-0.1-0.1-0.1-0.1c0,0,0-0.1,0-0.1l4-4.6c0,0,0,0,0,0l3.9-2.3l4-1.3l4-4.1
									c0,0,0,0,0,0l3.9-1.5l4-4.6c0,0,0,0,0.1,0l3.9-1.1l4-12.6c0,0,0.1-0.1,0.1-0.1c0,0,0.1,0,0.1,0.1l3.9,6.8l3.9,0l3.9,0
									l3.9-6.8c0,0,0,0,0.1-0.1l3.9-1.3l4-5.5c0,0,0.1-0.1,0.1-0.1h7.9l4-2.3c0.1,0,0.1,0,0.2,0c0,0.1,0,0.1,0,0.2l-4,2.3
									c0,0,0,0-0.1,0h-7.9l-3.9,5.5c0,0,0,0-0.1,0l-3.9,1.3l-4,6.9c0,0-0.1,0.1-0.1,0.1l0,0l-4,0l-4,0l0,0c0,0-0.1,0-0.1-0.1
									l-3.8-6.6l-3.9,12.4c0,0,0,0.1-0.1,0.1L31.8,27l-4,4.6c0,0,0,0-0.1,0l-4,1.5l-4,4.1c0,0,0,0-0.1,0l-4,1.3l-3.9,2.3L7.8,45.4
									C7.9,45.4,7.9,45.4,7.8,45.4z"/>
							</g>
						</g>
						<g transform="translate(3.467 24.37)">
							<path fill="#E0E0E0" d="M8.2,50.6c-0.1,0-0.2-0.1-0.2-0.2c0-0.1,0-0.2,0.1-0.2l67.6-39c0.1-0.1,0.3,0,0.3,0.1
								c0.1,0.1,0,0.3-0.1,0.3l-67.6,39C8.3,50.6,8.3,50.6,8.2,50.6z"/>
							<g transform="translate(0 41.341)">
								<path fill="#27DEBF" d="M8.2,3.9c0.3-0.2,0.5,0,0.5,0.3c0,0.4-0.2,0.7-0.5,0.9c-0.3,0.2-0.5,0-0.5-0.3
									C7.7,4.4,7.9,4,8.2,3.9z"/>
							</g>
							<g transform="translate(3.978 34.45)">
								<path fill="#27DEBF" d="M8.2,3.8c0.3-0.2,0.5,0,0.5,0.3c0,0.4-0.2,0.7-0.5,0.9c-0.3,0.2-0.5,0-0.5-0.3
									C7.7,4.4,7.9,4,8.2,3.8z"/>
							</g>
							<g transform="translate(7.744 33.416)">
								<ellipse transform="matrix(0.5 -0.8661 0.8661 0.5 0.2219 9.613)" fill="#27DEBF" cx="8.4" cy="4.6" rx="0.7" ry="0.4"/>
							</g>
							<g transform="translate(11.934 25.263)">
								<path fill="#27DEBF" d="M8.2,3.9c0.3-0.2,0.5,0,0.5,0.3c0,0.4-0.2,0.7-0.5,0.9c-0.3,0.2-0.5,0-0.5-0.3
									C7.7,4.4,7.9,4,8.2,3.9z"/>
							</g>
							<g transform="translate(15.916 27.56)">
								<path fill="#27DEBF" d="M8.2,3.8c0.3-0.2,0.5,0,0.5,0.3c0,0.4-0.2,0.7-0.5,0.9c-0.3,0.2-0.5,0-0.5-0.3
									C7.7,4.4,7.9,4,8.2,3.8z"/>
							</g>
							<g transform="translate(19.891 26.412)">
								<path fill="#27DEBF" d="M8.2,3.8c0.3-0.2,0.5,0,0.5,0.3c0,0.4-0.2,0.7-0.5,0.9c-0.3,0.2-0.5,0-0.5-0.3
									C7.7,4.4,7.9,4,8.2,3.8z"/>
							</g>
							<g transform="translate(23.867 22.967)">
								<path fill="#27DEBF" d="M8.2,3.9c0.3-0.2,0.5,0,0.5,0.3c0,0.4-0.2,0.7-0.5,0.9c-0.3,0.2-0.5,0-0.5-0.3
									C7.7,4.4,7.9,4,8.2,3.9z"/>
							</g>
							<g transform="translate(27.846 18.373)">
								<path fill="#27DEBF" d="M8.2,3.9c0.3-0.2,0.5,0,0.5,0.3c0,0.4-0.2,0.7-0.5,0.9c-0.3,0.2-0.5,0-0.5-0.3
									C7.7,4.4,7.9,4,8.2,3.9z"/>
							</g>
							<g transform="translate(31.824 17.225)">
								<path fill="#27DEBF" d="M8.2,3.9c0.3-0.2,0.5,0,0.5,0.3c0,0.4-0.2,0.7-0.5,0.9c-0.3,0.2-0.5,0-0.5-0.3
									C7.7,4.4,7.9,4,8.2,3.9z"/>
							</g>
							<g transform="translate(35.802 13.78)">
								<path fill="#27DEBF" d="M8.2,3.8c0.3-0.2,0.5,0,0.5,0.3c0,0.4-0.2,0.7-0.5,0.9c-0.3,0.2-0.5,0-0.5-0.3
									C7.7,4.4,7.9,4,8.2,3.8z"/>
							</g>
							<g transform="translate(39.78 13.78)">
								<path fill="#27DEBF" d="M8.2,3.9c0.3-0.2,0.5,0,0.5,0.3c0,0.4-0.2,0.7-0.5,0.9c-0.3,0.2-0.5,0-0.5-0.3
									C7.7,4.4,7.9,4,8.2,3.9z"/>
							</g>
							<g transform="translate(43.758 4.593)">
								<path fill="#27DEBF" d="M8.2,3.9c0.3-0.2,0.5,0,0.5,0.3c0,0.4-0.2,0.7-0.5,0.9c-0.3,0.2-0.5,0-0.5-0.3
									C7.7,4.4,7.9,4,8.2,3.9z"/>
							</g>
							<g transform="translate(47.736 9.154)">
								<path fill="#27DEBF" d="M8.2,3.9c0.3-0.2,0.5,0,0.5,0.3c0,0.4-0.2,0.7-0.5,0.9c-0.3,0.2-0.5,0-0.5-0.3
									C7.7,4.4,7.9,4,8.2,3.9z"/>
							</g>
							<g transform="translate(51.714 4.593)">
								<path fill="#27DEBF" d="M8.2,3.9c0.3-0.2,0.5,0,0.5,0.3c0,0.4-0.2,0.7-0.5,0.9c-0.3,0.2-0.5,0-0.5-0.3
									C7.7,4.4,7.9,4,8.2,3.9z"/>
							</g>
							<g transform="translate(55.691 2.297)">
								<path fill="#27DEBF" d="M8.2,3.8c0.3-0.2,0.5,0,0.5,0.3c0,0.4-0.2,0.7-0.5,0.9c-0.3,0.2-0.5,0-0.5-0.3
									C7.7,4.4,7.9,4,8.2,3.8z"/>
							</g>
							<g transform="translate(59.669 2.296)">
								<path fill="#27DEBF" d="M8.2,3.8c0.3-0.2,0.5,0,0.5,0.3c0,0.4-0.2,0.7-0.5,0.9c-0.3,0.2-0.5,0-0.5-0.3
									C7.7,4.4,7.9,4,8.2,3.8z"/>
							</g>
							<g transform="translate(63.648)">
								<path fill="#27DEBF" d="M8.2,3.8c0.3-0.2,0.5,0,0.5,0.3c0,0.4-0.2,0.7-0.5,0.9c-0.3,0.2-0.5,0-0.5-0.3
									C7.7,4.4,7.9,4,8.2,3.8z"/>
							</g>
							<g transform="translate(67.626)">
								<path fill="#27DEBF" d="M8.2,3.8c0.3-0.2,0.5,0,0.5,0.3c0,0.4-0.2,0.7-0.5,0.9c-0.3,0.2-0.5,0-0.5-0.3
									C7.7,4.4,7.9,4,8.2,3.8z"/>
							</g>
							<g transform="translate(0.389 0.537)">
								<path fill="#27DEBF" d="M7.8,45.4C7.8,45.4,7.8,45.4,7.8,45.4c-0.1-0.1-0.1-0.1-0.1-0.2c0,0,0,0,0,0l4-6.9
									c0,0,0-0.1,0.1-0.1l3.9-0.8l4-8.3c0-0.1,0.1-0.1,0.2-0.1c0,0,0,0,0,0l3.9,2.3l3.9-1.1l4-3.4l4-4.6c0,0,0,0,0.1,0l4-1.1
									l4-3.4c0,0,0.1,0,0.1,0h3.9l3.9-9.1c0,0,0.1-0.1,0.1-0.1c0,0,0.1,0,0.1,0l3.9,4.5l3.9-4.5c0,0,0,0,0,0l4-2.3c0,0,0,0,0.1,0
									h3.9l3.9-2.3c0,0,0,0,0.1,0h4c0.1,0,0.1,0.1,0.1,0.1S75.5,4,75.5,4h-3.9l-3.9,2.3c0,0,0,0-0.1,0h-3.9l-3.9,2.3l-4,4.6
									c0,0.1-0.1,0.1-0.2,0c0,0,0,0,0,0l-3.9-4.4l-3.9,9c0,0-0.1,0.1-0.1,0.1h-3.9l-3.9,3.4c0,0,0,0,0,0l-3.9,1.1l-4,4.6l-4,3.5
									c0,0,0,0,0,0l-4,1.2c0,0-0.1,0-0.1,0l-3.9-2.2l-3.9,8.2c0,0,0,0.1-0.1,0.1l-3.9,0.8L7.8,45.4C7.9,45.3,7.9,45.4,7.8,45.4z"
									/>
							</g>
							<g opacity="0.3">
								<g transform="translate(0 41.341)">
									<path d="M8.2,3.9c0.3-0.2,0.5,0,0.5,0.3c0,0.4-0.2,0.7-0.5,0.9c-0.3,0.2-0.5,0-0.5-0.3C7.7,4.4,7.9,4,8.2,3.9z"/>
								</g>
								<g transform="translate(3.978 34.45)">
									<path d="M8.2,3.8c0.3-0.2,0.5,0,0.5,0.3c0,0.4-0.2,0.7-0.5,0.9c-0.3,0.2-0.5,0-0.5-0.3C7.7,4.4,7.9,4,8.2,3.8z"/>
								</g>
								<g transform="translate(7.744 33.416)">
									<ellipse transform="matrix(0.5 -0.8661 0.8661 0.5 0.2219 9.613)" cx="8.4" cy="4.6" rx="0.7" ry="0.4"/>
								</g>
								<g transform="translate(11.934 25.263)">
									<path d="M8.2,3.9c0.3-0.2,0.5,0,0.5,0.3c0,0.4-0.2,0.7-0.5,0.9c-0.3,0.2-0.5,0-0.5-0.3C7.7,4.4,7.9,4,8.2,3.9z"/>
								</g>
								<g transform="translate(15.916 27.56)">
									<path d="M8.2,3.8c0.3-0.2,0.5,0,0.5,0.3c0,0.4-0.2,0.7-0.5,0.9c-0.3,0.2-0.5,0-0.5-0.3C7.7,4.4,7.9,4,8.2,3.8z"/>
								</g>
								<g transform="translate(19.891 26.412)">
									<path d="M8.2,3.8c0.3-0.2,0.5,0,0.5,0.3c0,0.4-0.2,0.7-0.5,0.9c-0.3,0.2-0.5,0-0.5-0.3C7.7,4.4,7.9,4,8.2,3.8z"/>
								</g>
								<g transform="translate(23.867 22.967)">
									<path d="M8.2,3.9c0.3-0.2,0.5,0,0.5,0.3c0,0.4-0.2,0.7-0.5,0.9c-0.3,0.2-0.5,0-0.5-0.3C7.7,4.4,7.9,4,8.2,3.9z"/>
								</g>
								<g transform="translate(27.846 18.373)">
									<path d="M8.2,3.9c0.3-0.2,0.5,0,0.5,0.3c0,0.4-0.2,0.7-0.5,0.9c-0.3,0.2-0.5,0-0.5-0.3C7.7,4.4,7.9,4,8.2,3.9z"/>
								</g>
								<g transform="translate(31.824 17.225)">
									<path d="M8.2,3.9c0.3-0.2,0.5,0,0.5,0.3c0,0.4-0.2,0.7-0.5,0.9c-0.3,0.2-0.5,0-0.5-0.3C7.7,4.4,7.9,4,8.2,3.9z"/>
								</g>
								<g transform="translate(35.802 13.78)">
									<path d="M8.2,3.8c0.3-0.2,0.5,0,0.5,0.3c0,0.4-0.2,0.7-0.5,0.9c-0.3,0.2-0.5,0-0.5-0.3C7.7,4.4,7.9,4,8.2,3.8z"/>
								</g>
								<g transform="translate(39.78 13.78)">
									<path d="M8.2,3.9c0.3-0.2,0.5,0,0.5,0.3c0,0.4-0.2,0.7-0.5,0.9c-0.3,0.2-0.5,0-0.5-0.3C7.7,4.4,7.9,4,8.2,3.9z"/>
								</g>
								<g transform="translate(43.758 4.593)">
									<path d="M8.2,3.9c0.3-0.2,0.5,0,0.5,0.3c0,0.4-0.2,0.7-0.5,0.9c-0.3,0.2-0.5,0-0.5-0.3C7.7,4.4,7.9,4,8.2,3.9z"/>
								</g>
								<g transform="translate(47.736 9.154)">
									<path d="M8.2,3.9c0.3-0.2,0.5,0,0.5,0.3c0,0.4-0.2,0.7-0.5,0.9c-0.3,0.2-0.5,0-0.5-0.3C7.7,4.4,7.9,4,8.2,3.9z"/>
								</g>
								<g transform="translate(51.714 4.593)">
									<path d="M8.2,3.9c0.3-0.2,0.5,0,0.5,0.3c0,0.4-0.2,0.7-0.5,0.9c-0.3,0.2-0.5,0-0.5-0.3C7.7,4.4,7.9,4,8.2,3.9z"/>
								</g>
								<g transform="translate(55.691 2.297)">
									<path d="M8.2,3.8c0.3-0.2,0.5,0,0.5,0.3c0,0.4-0.2,0.7-0.5,0.9c-0.3,0.2-0.5,0-0.5-0.3C7.7,4.4,7.9,4,8.2,3.8z"/>
								</g>
								<g transform="translate(59.669 2.296)">
									<path d="M8.2,3.8c0.3-0.2,0.5,0,0.5,0.3c0,0.4-0.2,0.7-0.5,0.9c-0.3,0.2-0.5,0-0.5-0.3C7.7,4.4,7.9,4,8.2,3.8z"/>
								</g>
								<g transform="translate(63.648)">
									<path d="M8.2,3.8c0.3-0.2,0.5,0,0.5,0.3c0,0.4-0.2,0.7-0.5,0.9c-0.3,0.2-0.5,0-0.5-0.3C7.7,4.4,7.9,4,8.2,3.8z"/>
								</g>
								<g transform="translate(67.626)">
									<path d="M8.2,3.8c0.3-0.2,0.5,0,0.5,0.3c0,0.4-0.2,0.7-0.5,0.9c-0.3,0.2-0.5,0-0.5-0.3C7.7,4.4,7.9,4,8.2,3.8z"/>
								</g>
								<g transform="translate(0.389 0.537)">
									<path d="M7.8,45.4C7.8,45.4,7.8,45.4,7.8,45.4c-0.1-0.1-0.1-0.1-0.1-0.2c0,0,0,0,0,0l4-6.9c0,0,0-0.1,0.1-0.1l3.9-0.8
										l4-8.3c0-0.1,0.1-0.1,0.2-0.1c0,0,0,0,0,0l3.9,2.3l3.9-1.1l4-3.4l4-4.6c0,0,0,0,0.1,0l4-1.1l4-3.4c0,0,0.1,0,0.1,0h3.9
										l3.9-9.1c0,0,0.1-0.1,0.1-0.1c0,0,0.1,0,0.1,0l3.9,4.5l3.9-4.5c0,0,0,0,0,0l4-2.3c0,0,0,0,0.1,0h3.9l3.9-2.3c0,0,0,0,0.1,0
										h4c0.1,0,0.1,0.1,0.1,0.1S75.5,4,75.5,4h-3.9l-3.9,2.3c0,0,0,0-0.1,0h-3.9l-3.9,2.3l-4,4.6c0,0.1-0.1,0.1-0.2,0
										c0,0,0,0,0,0l-3.9-4.4l-3.9,9c0,0-0.1,0.1-0.1,0.1h-3.9l-3.9,3.4c0,0,0,0,0,0l-3.9,1.1l-4,4.6l-4,3.5c0,0,0,0,0,0l-4,1.2
										c0,0-0.1,0-0.1,0l-3.9-2.2l-3.9,8.2c0,0,0,0.1-0.1,0.1l-3.9,0.8L7.8,45.4C7.9,45.3,7.9,45.4,7.8,45.4z"/>
								</g>
							</g>
							<g transform="translate(0 22.082)">
								<path fill="#E0E0E0" d="M10.3,6.1l3.9-2.2c0.2-0.1,0.4,0,0.4,0.2c0,0.2-0.1,0.5-0.4,0.6l-3.9,2.2c-0.2,0.1-0.4,0-0.4-0.2
									C10,6.4,10.1,6.2,10.3,6.1z"/>
								<g transform="translate(0 3.182)">
									<path fill="#27DEBF" d="M8.2,3.8c0.3-0.2,0.5,0,0.5,0.3c0,0.4-0.2,0.7-0.5,0.9c-0.3,0.2-0.5,0-0.5-0.3
										C7.7,4.4,7.9,4,8.2,3.8z"/>
									<path opacity="0.3" enable-background="new    " d="M8.2,3.8c0.3-0.2,0.5,0,0.5,0.3c0,0.4-0.2,0.7-0.5,0.9
										c-0.3,0.2-0.5,0-0.5-0.3C7.7,4.4,7.9,4,8.2,3.8z"/>
								</g>
							</g>
							<g transform="translate(0 24.372)">
								<path fill="#E0E0E0" d="M10.3,6.1l3.9-2.2c0.2-0.1,0.4,0,0.4,0.2c0,0.2-0.1,0.5-0.4,0.6l-3.9,2.2c-0.2,0.1-0.4,0-0.4-0.2
									C10,6.4,10.1,6.2,10.3,6.1z"/>
								<g transform="translate(0 3.188)">
									<path fill="#27DEBF" d="M8.2,3.8c0.3-0.2,0.5,0,0.5,0.3c0,0.4-0.2,0.7-0.5,0.9c-0.3,0.2-0.5,0-0.5-0.3
										C7.7,4.4,7.9,4,8.2,3.8z"/>
								</g>
							</g>
						</g>
						<g transform="translate(3.856 56.6)">
							<g transform="translate(0 13.808)">
								<g transform="translate(0 0.466)">
									<path fill="#27DEBF" d="M7.8,15.5c-0.1,0-0.1-0.1-0.1-0.1c0,0,0-0.1,0-0.1l2-2.1l2-0.3l2-2.6l2,0.3l1.9-1.8l2-1.2l2-2.8
										l2,0.6l1.9-1.7c0.1,0,0.1,0,0.2,0c0,0,0,0.1,0,0.2l-2,1.8l-2-0.6l-2,2.7l-2,1.2l-2,1.8l-2-0.3l-2,2.6l-2,0.3L7.8,15.5
										C7.9,15.5,7.9,15.5,7.8,15.5z"/>
								</g>
								<g transform="translate(0.259 2.045)">
									<path fill="#455A64" d="M8.4,7.2C8.4,7.2,8.4,7.2,8.4,7.2c0.1-0.1,0.1-0.1,0.1-0.1C8.6,7.1,8.7,7,8.8,7
										c0.1,0,0.2,0,0.2,0.1c0.1,0.1,0.1,0.2,0.2,0.3c0,0.1,0.1,0.3,0.1,0.4c0,0.2,0,0.3-0.1,0.5c0,0.1-0.1,0.3-0.2,0.4
										C8.9,8.8,8.9,8.9,8.8,9C8.7,9.1,8.6,9.2,8.5,9.3C8.4,9.3,8.3,9.4,8.2,9.4c-0.1,0-0.2,0-0.2-0.1C7.9,9.2,7.8,9.1,7.8,9
										c0-0.1-0.1-0.3-0.1-0.4c0-0.1,0-0.2,0-0.3c0-0.1,0-0.2,0.1-0.2c0-0.1,0-0.2,0.1-0.2s0.1-0.1,0.1-0.2l0.5-1.5c0,0,0,0,0-0.1
										c0,0,0-0.1,0.1-0.1L8.7,6c0,0,0,0,0,0c0,0,0,0,0,0c0,0,0,0,0,0.1c0,0,0,0,0,0c0,0,0,0,0,0L8.4,7.2z M8,8.5
										c0,0.1,0,0.2,0,0.2c0,0.1,0.1,0.1,0.1,0.2c0,0,0.1,0.1,0.1,0.1c0.1,0,0.1,0,0.2-0.1c0.1,0,0.1-0.1,0.2-0.2
										c0.1-0.1,0.1-0.2,0.1-0.2c0-0.1,0.1-0.2,0.1-0.3c0-0.1,0-0.2,0-0.3c0-0.1,0-0.2,0-0.2c0-0.1-0.1-0.1-0.1-0.2
										c0,0-0.1-0.1-0.1-0.1c-0.1,0-0.1,0-0.2,0.1c-0.1,0-0.1,0.1-0.2,0.2C8.2,7.8,8.2,7.9,8.1,7.9C8.1,8,8,8.1,8,8.2
										C8,8.3,8,8.4,8,8.5L8,8.5z"/>
									<path fill="#455A64" d="M9.7,7.8c0,0,0,0.1,0,0.1c0,0,0,0.1,0.1,0.1c0,0,0.1,0,0.1,0c0.1,0,0.2,0,0.2-0.1
										c0.1,0,0.1-0.1,0.2-0.1c0.1-0.1,0.1-0.1,0.1-0.2c0-0.1,0.1-0.2,0.1-0.2c0-0.1,0-0.2,0-0.3c0-0.1,0-0.2,0-0.2
										c0,0-0.1-0.1-0.1-0.1c0,0-0.1,0-0.1,0c-0.1,0-0.1,0-0.2,0.1L10,6.9c0,0,0,0-0.1,0c0,0,0,0,0-0.1V6.7c0,0,0-0.1,0-0.1
										c0,0,0-0.1,0-0.1l0.5-1.2L9.6,5.9c0,0,0,0-0.1,0c0,0,0,0,0-0.1V5.6c0,0,0-0.1,0-0.1c0,0,0-0.1,0.1-0.1l1.1-0.7
										c0,0,0,0,0.1,0c0,0,0,0,0,0.1V5c0,0,0,0.1,0,0.1c0,0,0,0.1,0,0.1l-0.5,1.2c0.1,0,0.2-0.1,0.3-0.1c0.1,0,0.1,0,0.2,0.1
										c0.1,0.1,0.1,0.1,0.1,0.2c0,0.1,0.1,0.2,0,0.4c0,0.1,0,0.3-0.1,0.4c0,0.1-0.1,0.3-0.2,0.4c-0.1,0.1-0.1,0.2-0.2,0.3
										c-0.1,0.1-0.2,0.2-0.3,0.2C10.1,8.4,10,8.4,9.9,8.4c-0.1,0-0.2,0-0.2,0c-0.1,0-0.1-0.1-0.1-0.2c0-0.1,0-0.2,0-0.3
										c0,0,0-0.1,0-0.1c0,0,0,0,0-0.1L9.7,7.8C9.7,7.7,9.7,7.7,9.7,7.8C9.7,7.7,9.7,7.8,9.7,7.8z"/>
									<path fill="#455A64" d="M11.4,6.8c0,0,0,0.1,0,0.1c0,0,0,0.1,0.1,0.1c0,0,0.1,0,0.1,0c0.1,0,0.2,0,0.2-0.1
										c0.1,0,0.1-0.1,0.2-0.1c0.1-0.1,0.1-0.1,0.1-0.2c0-0.1,0.1-0.2,0.1-0.2c0-0.1,0-0.2,0-0.3c0-0.1,0-0.2,0-0.2
										c0,0-0.1-0.1-0.1-0.1c0,0-0.1,0-0.1,0c-0.1,0-0.1,0-0.2,0.1l-0.2,0.1c0,0,0,0-0.1,0c0,0,0,0,0-0.1V5.7c0,0,0-0.1,0-0.1
										c0,0,0-0.1,0-0.1l0.5-1.2l-0.8,0.5c0,0,0,0-0.1,0c0,0,0,0,0-0.1V4.6c0,0,0-0.1,0-0.1c0,0,0-0.1,0.1-0.1l1.1-0.7
										c0,0,0,0,0.1,0c0,0,0,0,0,0.1V4c0,0,0,0.1,0,0.1c0,0,0,0.1,0,0.1L12,5.4c0.1,0,0.2-0.1,0.3-0.1c0.1,0,0.1,0,0.2,0.1
										c0.1,0.1,0.1,0.1,0.1,0.2c0,0.1,0.1,0.2,0,0.4c0,0.1,0,0.3-0.1,0.4c0,0.1-0.1,0.3-0.2,0.4c-0.1,0.1-0.1,0.2-0.2,0.3
										c-0.1,0.1-0.2,0.2-0.3,0.2c-0.1,0.1-0.2,0.1-0.3,0.1c-0.1,0-0.2,0-0.2,0c-0.1,0-0.1-0.1-0.1-0.2c0-0.1,0-0.2,0-0.3
										c0,0,0-0.1,0-0.1c0,0,0,0,0-0.1L11.4,6.8C11.4,6.7,11.4,6.7,11.4,6.8C11.4,6.7,11.4,6.8,11.4,6.8z"/>
								</g>
								<g transform="translate(0.129 3.764)">
									<path fill="#E0E0E0" d="M8.1,13.8l17.2-10c0.2-0.1,0.4,0,0.4,0.2c0,0.2-0.1,0.5-0.4,0.6l-17.2,10c-0.2,0.1-0.4,0-0.4-0.2
										C7.7,14.1,7.9,13.9,8.1,13.8z"/>
								</g>
								<g transform="translate(0.129)">
									<path fill="#E0E0E0" d="M8.1,6.1l3.9-2.2c0.2-0.1,0.4,0,0.4,0.2c0,0.2-0.1,0.5-0.4,0.6L8.1,6.8c-0.2,0.1-0.4,0-0.4-0.2
										C7.7,6.4,7.9,6.2,8.1,6.1z"/>
								</g>
							</g>
							<g transform="translate(0 26.384)">
								<path fill="#27DEBF" d="M7.8,17.2C7.8,17.2,7.8,17.2,7.8,17.2C7.7,17.1,7.7,17,7.8,17l2-2.1l2-0.3l2-1.8l1.9-0.5l2-4l2,1
									l2-1.7l0,0l1.9-0.4l2-3.4c0-0.1,0.1-0.1,0.2,0c0.1,0,0.1,0.1,0,0.2l-2,3.5l-2,0.4l-2,1.8l-2-1l-2,3.9l-2,0.5l-2,1.8l-2,0.3
									L7.8,17.2C7.9,17.2,7.9,17.2,7.8,17.2z"/>
								<g opacity="0.3">
									<path d="M7.8,17.2C7.8,17.2,7.8,17.2,7.8,17.2C7.7,17.1,7.7,17,7.8,17l2-2.1l2-0.3l2-1.8l1.9-0.5l2-4l2,1l2-1.7l0,0
										l1.9-0.4l2-3.4c0-0.1,0.1-0.1,0.2,0c0.1,0,0.1,0.1,0,0.2l-2,3.5l-2,0.4l-2,1.8l-2-1l-2,3.9l-2,0.5l-2,1.8l-2,0.3L7.8,17.2
										C7.9,17.2,7.9,17.2,7.8,17.2z"/>
								</g>
								<g transform="translate(0.193 3.718)">
									<path fill="#455A64" d="M8.7,8.6c0,0,0,0.1,0,0.1c0,0,0,0.1-0.1,0.1L8.5,8.8c0,0,0,0-0.1,0c0,0,0,0,0-0.1V6.3L7.9,7.1
										c0,0,0,0-0.1,0.1c0,0,0,0-0.1,0L7.7,7c0,0,0-0.1,0-0.1c0,0,0-0.1,0-0.1l0.6-1.1c0,0,0,0,0-0.1c0,0,0,0,0,0l0.1-0.1
										c0,0,0,0,0.1,0c0,0,0,0,0,0.1L8.7,8.6z"/>
									<path fill="#455A64" d="M9.9,6.3C10,6.2,10,6.1,10.1,6c0-0.1,0-0.2,0-0.4c0-0.1,0-0.2-0.1-0.3c-0.1-0.1-0.2-0.1-0.3,0
										c-0.1,0-0.1,0.1-0.2,0.1c0,0.1-0.1,0.1-0.1,0.2c0,0.1-0.1,0.1-0.1,0.2c0,0.1,0,0.2,0,0.2c0,0,0,0.1,0,0.1c0,0,0,0,0,0.1
										L9.1,6.3c0,0,0,0,0,0c0,0,0,0,0-0.1c0-0.1,0-0.2,0-0.4c0-0.1,0.1-0.3,0.1-0.4c0.1-0.1,0.1-0.2,0.2-0.4
										C9.5,5.1,9.6,5,9.7,4.9C9.8,4.8,9.9,4.8,10,4.8c0.1,0,0.1,0,0.2,0.1C10.3,5,10.3,5,10.3,5.1c0,0.1,0,0.2,0,0.3
										c0,0.1,0,0.2,0,0.3c0,0.1,0,0.2,0,0.2c0,0.1-0.1,0.2-0.1,0.3c0,0.1-0.1,0.2-0.1,0.3L9.5,7.8l0.9-0.5c0,0,0,0,0.1,0
										c0,0,0,0,0,0.1v0.2c0,0,0,0.1,0,0.1c0,0,0,0.1-0.1,0.1L9.1,8.4c0,0,0,0-0.1,0c0,0,0,0,0-0.1V8.2c0,0,0-0.1,0-0.1
										c0,0,0-0.1,0-0.1L9.9,6.3z"/>
									<path fill="#455A64" d="M12.2,4.7c0,0.1,0,0.3,0,0.4s0,0.2,0,0.4c0,0.2,0,0.3,0,0.5c0,0.2-0.1,0.3-0.1,0.5
										c-0.1,0.1-0.1,0.3-0.2,0.4c-0.1,0.1-0.2,0.2-0.3,0.3c-0.1,0.1-0.2,0.1-0.3,0.1c-0.1,0-0.2-0.1-0.2-0.1
										c-0.1-0.1-0.1-0.2-0.1-0.3c0-0.2,0-0.3,0-0.5c0-0.1,0-0.3,0-0.4s0-0.2,0-0.4c0-0.2,0-0.3,0-0.5c0-0.2,0.1-0.3,0.1-0.5
										c0.1-0.1,0.1-0.3,0.2-0.4C11.2,4,11.4,4,11.5,3.9c0.1-0.1,0.2-0.1,0.3-0.1c0.1,0,0.2,0.1,0.2,0.1c0.1,0.1,0.1,0.2,0.1,0.3
										C12.2,4.4,12.2,4.5,12.2,4.7z M11,6.1c0,0.2,0,0.4,0.1,0.6c0.1,0.1,0.2,0.1,0.3,0c0.2-0.1,0.3-0.2,0.3-0.4
										C11.9,6.1,12,5.8,12,5.6c0-0.1,0-0.3,0-0.4s0-0.2,0-0.4c0-0.2,0-0.4-0.1-0.6c-0.1-0.1-0.2-0.1-0.3,0
										c-0.2,0.1-0.3,0.2-0.3,0.4C11.1,4.9,11,5.1,11,5.4c0,0.1,0,0.3,0,0.4S11,6,11,6.1L11,6.1z"/>
								</g>
								<g transform="translate(0.129 4.957)">
									<path fill="#E0E0E0" d="M8.1,13.8l17.2-10c0.2-0.1,0.4,0,0.4,0.2c0,0.2-0.1,0.5-0.4,0.6l-17.2,10c-0.2,0.1-0.4,0-0.4-0.2
										C7.7,14.1,7.9,13.9,8.1,13.8z"/>
								</g>
								<g transform="translate(0.129 1.193)">
									<path fill="#E0E0E0" d="M8.1,6.1l3.9-2.2c0.2-0.1,0.4,0,0.4,0.2c0,0.2-0.1,0.5-0.4,0.6L8.1,6.8c-0.2,0.1-0.4,0-0.4-0.2
										C7.7,6.4,7.9,6.2,8.1,6.1z"/>
								</g>
							</g>
							<g transform="translate(23.868)">
								<g transform="translate(0 0.467)">
									<path fill="#27DEBF" d="M7.8,15.5c-0.1,0-0.1-0.1-0.1-0.1c0,0,0-0.1,0-0.1l2-1.6l2-2.3l2-0.3l1.9-0.4l2-2.4l2,0.4l2-3.1
										l2,0l1.9-1.7c0.1,0,0.1,0,0.2,0c0,0,0,0.1,0,0.2l-2,1.8l-2,0l-2,3.2l-2-0.4l-2,2.3l-2,0.5l-2,0.3l-2,2.2L7.8,15.5
										C7.9,15.5,7.9,15.5,7.8,15.5z"/>
								</g>
								<g transform="translate(0.259 2.119)">
									<path fill="#455A64" d="M8.4,7.1C8.4,7.1,8.4,7.1,8.4,7.1c0.1-0.1,0.1-0.1,0.1-0.1C8.6,7,8.7,7,8.8,7C8.9,7,8.9,7,9,7.1
										c0.1,0.1,0.1,0.2,0.2,0.3c0,0.1,0.1,0.3,0.1,0.4c0,0.2,0,0.3-0.1,0.5c0,0.1-0.1,0.3-0.2,0.4C8.9,8.7,8.9,8.8,8.8,9
										C8.7,9.1,8.6,9.1,8.5,9.2C8.4,9.3,8.3,9.3,8.2,9.3c-0.1,0-0.2,0-0.2-0.1C7.9,9.1,7.8,9.1,7.8,9c0-0.1-0.1-0.3-0.1-0.4
										c0-0.1,0-0.2,0-0.3c0-0.1,0-0.2,0-0.2c0-0.1,0-0.2,0.1-0.2s0.1-0.1,0.1-0.2l0.5-1.5c0,0,0,0,0-0.1c0,0,0-0.1,0.1-0.1
										l0.2-0.1c0,0,0,0,0,0c0,0,0,0,0,0c0,0,0,0,0,0.1c0,0,0,0,0,0c0,0,0,0,0,0L8.4,7.1z M8,8.4c0,0.1,0,0.2,0,0.2
										c0,0.1,0.1,0.1,0.1,0.2c0,0,0.1,0.1,0.1,0.1c0.1,0,0.1,0,0.2-0.1c0.1,0,0.1-0.1,0.2-0.2c0.1-0.1,0.1-0.2,0.1-0.2
										c0-0.1,0.1-0.2,0.1-0.3c0-0.1,0-0.2,0-0.3c0-0.1,0-0.2,0-0.2c0-0.1-0.1-0.1-0.1-0.2c0,0-0.1-0.1-0.1-0.1
										c-0.1,0-0.1,0-0.2,0.1c-0.1,0-0.1,0.1-0.2,0.2C8.2,7.7,8.2,7.8,8.1,7.9C8.1,7.9,8,8,8,8.1C8,8.2,8,8.3,8,8.4L8,8.4z"/>
									<path fill="#455A64" d="M10.4,6.4c0.1-0.1,0.1-0.2,0.1-0.3c0-0.1,0-0.2,0-0.4c0-0.1,0-0.2-0.1-0.3c-0.1-0.1-0.2-0.1-0.3,0
										c-0.1,0-0.1,0.1-0.2,0.1c0,0.1-0.1,0.1-0.1,0.2c0,0.1-0.1,0.1-0.1,0.2c0,0.1,0,0.2,0,0.2c0,0,0,0.1,0,0.1c0,0,0,0,0,0.1
										L9.6,6.4c0,0,0,0,0,0c0,0,0,0,0-0.1c0-0.1,0-0.2,0-0.4c0-0.1,0.1-0.3,0.1-0.4c0.1-0.1,0.1-0.2,0.2-0.4
										C10,5.2,10.1,5.1,10.2,5c0.1-0.1,0.2-0.1,0.3-0.1c0.1,0,0.1,0,0.2,0.1c0.1,0.1,0.1,0.1,0.1,0.2c0,0.1,0,0.2,0,0.3
										c0,0.1,0,0.2,0,0.3c0,0.1,0,0.2,0,0.2c0,0.1-0.1,0.2-0.1,0.3c0,0.1-0.1,0.2-0.1,0.3L9.9,7.9l0.9-0.5c0,0,0,0,0.1,0
										c0,0,0,0,0,0.1v0.2c0,0,0,0.1,0,0.1c0,0,0,0.1-0.1,0.1L9.5,8.6c0,0,0,0-0.1,0c0,0,0,0,0-0.1V8.3c0,0,0-0.1,0-0.1
										c0,0,0-0.1,0-0.1L10.4,6.4z"/>
									<path fill="#455A64" d="M12.4,3.8C12.4,3.8,12.4,3.8,12.4,3.8C12.4,3.8,12.4,3.8,12.4,3.8L12.4,4c0,0,0,0.1,0,0.1
										c0,0,0,0.1,0,0.1l-0.6,2.9c0,0,0,0.1,0,0.1c0,0,0,0.1-0.1,0.1l-0.1,0.1c0,0,0,0,0,0c0,0,0,0,0-0.1c0,0,0,0,0,0c0,0,0,0,0,0
										l0.6-2.9l-1,0.6c0,0,0,0-0.1,0c0,0,0,0,0-0.1V4.6c0,0,0-0.1,0-0.1c0,0,0-0.1,0.1-0.1L12.4,3.8z"/>
								</g>
								<g transform="translate(0.129 3.764)">
									<path fill="#E0E0E0" d="M8.1,13.8l17.2-10c0.2-0.1,0.4,0,0.4,0.2c0,0.2-0.1,0.5-0.4,0.6l-17.2,10c-0.2,0.1-0.4,0-0.4-0.2
										C7.7,14.1,7.9,13.9,8.1,13.8z"/>
								</g>
								<g transform="translate(0.129)">
									<path fill="#E0E0E0" d="M8.1,6.1l3.9-2.2c0.2-0.1,0.4,0,0.4,0.2c0,0.2-0.1,0.5-0.4,0.6L8.1,6.8c-0.2,0.1-0.4,0-0.4-0.2
										C7.7,6.4,7.9,6.2,8.1,6.1z"/>
								</g>
							</g>
							<g transform="translate(23.868 13.768)">
								<g transform="translate(0 0.474)">
									<path fill="#27DEBF" d="M7.8,15.5c-0.1,0-0.1-0.1-0.1-0.1c0,0,0,0,0-0.1l2-3.3l2,0.4l1.9-0.5l2-2.4l2-0.5l2-3.6l2.1,0.6
										l1.9-0.4l2-1.7c0,0,0.1,0,0.2,0c0,0,0,0,0,0c0,0.1,0,0.1,0,0.2c0,0,0,0,0,0l-2,1.8l0,0l-2,0.4l-1.9-0.6l-2,3.5l-2,0.5
										l-2,2.4l0,0l-2,0.6h0l-1.9-0.4l-1.9,3.2C7.9,15.5,7.9,15.5,7.8,15.5z"/>
								</g>
								<g transform="translate(0 0.474)" opacity="0.3">
									<path d="M7.8,15.5c-0.1,0-0.1-0.1-0.1-0.1c0,0,0,0,0-0.1l2-3.3l2,0.4l1.9-0.5l2-2.4l2-0.5l2-3.6l2.1,0.6l1.9-0.4l2-1.7
										c0,0,0.1,0,0.2,0c0,0,0,0,0,0c0,0.1,0,0.1,0,0.2c0,0,0,0,0,0l-2,1.8l0,0l-2,0.4l-1.9-0.6l-2,3.5l-2,0.5l-2,2.4l0,0l-2,0.6
										h0l-1.9-0.4l-1.9,3.2C7.9,15.5,7.9,15.5,7.8,15.5z"/>
								</g>
								<g transform="translate(0.234 3.095)">
									<path fill="#455A64" d="M8.5,7.1C8.5,7.1,8.5,7.1,8.5,7.1L8.5,7.1C8.4,7.2,8.3,7.2,8.2,7.2c-0.1,0-0.2,0-0.2-0.1
										C7.9,7.1,7.8,7,7.8,6.9c0-0.1-0.1-0.3-0.1-0.4c0-0.2,0-0.3,0.1-0.5c0-0.1,0.1-0.3,0.2-0.4C8,5.5,8.1,5.4,8.2,5.3
										C8.2,5.2,8.3,5.1,8.4,5C8.5,5,8.6,4.9,8.7,4.9C8.8,4.9,8.9,5,9,5C9,5.1,9.1,5.2,9.1,5.3c0.1,0.2,0.1,0.4,0,0.6
										c0,0.1,0,0.2-0.1,0.3S9,6.3,9,6.4S9,6.6,8.9,6.6L8.4,8.1c0,0,0,0,0,0.1c0,0,0,0.1-0.1,0.1L8.1,8.4c0,0,0,0,0,0
										c0,0,0,0,0-0.1c0,0,0,0,0,0c0,0,0,0,0,0L8.5,7.1z M8.9,5.8c0-0.1,0-0.2,0-0.2c0-0.1,0-0.1-0.1-0.2c0,0-0.1-0.1-0.1-0.1
										c-0.1,0-0.1,0-0.2,0.1c-0.1,0-0.1,0.1-0.2,0.2C8.2,5.7,8.2,5.7,8.1,5.8C8.1,5.9,8,6,8,6.1c0,0.1,0,0.2,0,0.3
										c0,0.1,0,0.2,0,0.2c0,0.1,0,0.1,0.1,0.2c0,0,0.1,0.1,0.1,0.1c0.1,0,0.1,0,0.2-0.1c0.1,0,0.1-0.1,0.2-0.2
										c0.1-0.1,0.1-0.1,0.1-0.2c0-0.1,0.1-0.2,0.1-0.3C8.9,6,8.9,5.9,8.9,5.8L8.9,5.8z"/>
									<path fill="#455A64" d="M9.7,6.8c0,0,0,0.1,0,0.1c0,0,0,0.1,0.1,0.1c0,0,0.1,0,0.1,0c0.1,0,0.2,0,0.2-0.1
										c0.1,0,0.1-0.1,0.2-0.1c0.1-0.1,0.1-0.1,0.1-0.2c0-0.1,0.1-0.2,0.1-0.2c0-0.1,0-0.2,0-0.3c0-0.1,0-0.2,0-0.2
										c0,0-0.1-0.1-0.1-0.1c0,0-0.1,0-0.1,0c-0.1,0-0.1,0-0.2,0.1L9.9,5.9c0,0,0,0-0.1,0c0,0,0,0,0-0.1V5.7c0,0,0-0.1,0-0.1
										c0,0,0-0.1,0-0.1l0.5-1.2L9.5,4.9c0,0,0,0-0.1,0c0,0,0,0,0-0.1V4.6c0,0,0-0.1,0-0.1c0,0,0-0.1,0.1-0.1l1.1-0.7
										c0,0,0,0,0.1,0c0,0,0,0,0,0.1V4c0,0,0,0.1,0,0.1c0,0,0,0.1,0,0.1l-0.5,1.2c0.1,0,0.2-0.1,0.3-0.1c0.1,0,0.1,0,0.2,0.1
										c0.1,0.1,0.1,0.1,0.1,0.2c0,0.1,0.1,0.2,0,0.4c0,0.1,0,0.3-0.1,0.4c0,0.1-0.1,0.3-0.2,0.4c-0.1,0.1-0.1,0.2-0.2,0.3
										c-0.1,0.1-0.2,0.2-0.3,0.2C10,7.4,9.9,7.4,9.8,7.4c-0.1,0-0.2,0-0.2,0c-0.1,0-0.1-0.1-0.1-0.2c0-0.1,0-0.2,0-0.3
										c0,0,0-0.1,0-0.1c0,0,0,0,0-0.1L9.7,6.8C9.6,6.7,9.6,6.7,9.7,6.8C9.6,6.7,9.6,6.8,9.7,6.8z"/>
								</g>
								<g transform="translate(0.129 3.764)">
									<path fill="#E0E0E0" d="M8.1,13.8l17.2-10c0.2-0.1,0.4,0,0.4,0.2c0,0.2-0.1,0.5-0.4,0.6l-17.2,10c-0.2,0.1-0.4,0-0.4-0.2
										C7.7,14.1,7.9,13.9,8.1,13.8z"/>
								</g>
								<g transform="translate(0.129)">
									<path fill="#E0E0E0" d="M8.1,6.1l3.9-2.2c0.2-0.1,0.4,0,0.4,0.2c0,0.2-0.1,0.5-0.4,0.6L8.1,6.8c-0.2,0.1-0.4,0-0.4-0.2
										C7.7,6.4,7.9,6.2,8.1,6.1z"/>
								</g>
							</g>
						</g>
						<g transform="translate(49.843 37.974)">
							<g transform="translate(0 8.068)">
								<path fill="#27DEBF" d="M11.6,4.2c0.7-0.5,1.5-0.5,2.3-0.2l-2.3,6.1V4.2z"/>
								<path fill="#27DEBF" d="M9.3,6.6c0.5-1,1.3-1.8,2.3-2.4v5.9L9.3,6.6z"/>
								<path fill="#27DEBF" d="M7.9,10.4c0.2-1.3,0.7-2.6,1.4-3.8l2.3,3.5L7.9,10.4z"/>
								<path opacity="0.3" enable-background="new    " d="M9.3,6.6c-0.7,1.2-1.2,2.4-1.4,3.8l3.7-0.3V4.2
									C10.6,4.8,9.8,5.6,9.3,6.6z"/>
								<path fill="#27DEBF" d="M13.8,4c0.7,0.5,1.3,1.3,1.4,2.2l-3.7,4L13.8,4z"/>
								<path fill="#27DEBF" d="M7.9,14.1c-0.1-0.6-0.2-1.1-0.2-1.7c0-0.7,0.1-1.3,0.2-1.9l3.7-0.3L7.9,14.1z"/>
								<path fill="#27DEBF" d="M15.2,9.8c-0.2,1.3-0.7,2.6-1.4,3.8l-2.3-3.5L15.2,9.8z"/>
								<path fill="#27DEBF" d="M11.6,16.1c-0.7,0.5-1.5,0.5-2.3,0.2l2.3-6.1V16.1z"/>
								<path fill="#27DEBF" d="M7.9,14.1l3.7-4l-2.3,6.1C8.6,15.8,8,15,7.9,14.1z"/>
								<path fill="#27DEBF" d="M15.2,6.2c0.1,0.6,0.2,1.1,0.2,1.7c0,0.7-0.1,1.3-0.2,1.9l-3.7,0.3L15.2,6.2z"/>
								<path fill="#27DEBF" d="M13.8,13.6c-0.5,1-1.3,1.8-2.3,2.4v-5.9L13.8,13.6z"/>
								<g transform="translate(0.733 13.036)">
									<path fill="#455A64" d="M8.9,6.1l3.9-2.2c0.2-0.1,0.4,0,0.4,0.2c0,0.2-0.1,0.5-0.4,0.6L8.9,6.8c-0.2,0.1-0.4,0-0.4-0.2
										C8.6,6.4,8.7,6.2,8.9,6.1z"/>
									<path fill="#E0E0E0" d="M8.1,8.9l5.6-3.2c0.2-0.1,0.4,0,0.4,0.2c0,0.2-0.1,0.5-0.4,0.6L8.1,9.6c-0.2,0.1-0.4,0-0.4-0.2
										C7.7,9.2,7.9,9,8.1,8.9z"/>
									<path fill="#E0E0E0" d="M8.1,11.2l5.6-3.2c0.2-0.1,0.4,0,0.4,0.2c0,0.2-0.1,0.5-0.4,0.6l-5.6,3.2c-0.2,0.1-0.4,0-0.4-0.2
										C7.7,11.5,7.9,11.3,8.1,11.2z"/>
									<path fill="#E0E0E0" d="M8.1,13.5l5.6-3.2c0.2-0.1,0.4,0,0.4,0.2c0,0.2-0.1,0.5-0.4,0.6l-5.6,3.2c-0.2,0.1-0.4,0-0.4-0.2
										C7.7,13.8,7.9,13.6,8.1,13.5z"/>
								</g>
							</g>
							<g transform="translate(13.923)">
								<path fill="#27DEBF" d="M11.6,4.2c0.7-0.5,1.5-0.5,2.3-0.2l-2.3,6.1V4.2z"/>
								<path fill="#27DEBF" d="M9.3,6.6c0.5-1,1.3-1.8,2.3-2.4v5.9L9.3,6.6z"/>
								<path fill="#27DEBF" d="M7.9,10.4c0.2-1.3,0.7-2.6,1.4-3.8l2.3,3.5L7.9,10.4z"/>
								<path fill="#27DEBF" d="M13.8,4c0.7,0.5,1.3,1.3,1.4,2.2l-3.7,4L13.8,4z"/>
								<path fill="#27DEBF" d="M7.9,14.1c-0.1-0.6-0.2-1.1-0.2-1.7c0-0.7,0.1-1.3,0.2-1.9l3.7-0.3L7.9,14.1z"/>
								<path fill="#27DEBF" d="M15.2,9.8c-0.2,1.3-0.7,2.6-1.4,3.8l-2.3-3.5L15.2,9.8z"/>
								<path fill="#27DEBF" d="M11.6,16.1c-0.7,0.5-1.5,0.5-2.3,0.2l2.3-6.1V16.1z"/>
								<path fill="#27DEBF" d="M7.9,14.1l3.7-4l-2.3,6.1C8.6,15.8,8,15,7.9,14.1z"/>
								<path opacity="0.3" enable-background="new    " d="M9.3,6.6c-0.7,1.2-1.2,2.4-1.4,3.8c-0.1,0.6-0.2,1.3-0.2,1.9
									c0,0.6,0.1,1.2,0.2,1.7C8,15,8.6,15.7,9.3,16.2l2.3-6.1V4.2C10.6,4.8,9.8,5.6,9.3,6.6z"/>
								<path fill="#27DEBF" d="M15.2,6.2c0.1,0.6,0.2,1.1,0.2,1.7c0,0.7-0.1,1.3-0.2,1.9l-3.7,0.3L15.2,6.2z"/>
								<path fill="#27DEBF" d="M13.8,13.6c-0.5,1-1.3,1.8-2.3,2.4v-5.9L13.8,13.6z"/>
								<g transform="translate(0.733 13.066)">
									<path fill="#455A64" d="M8.9,6.1l3.9-2.2c0.2-0.1,0.4,0,0.4,0.2c0,0.2-0.1,0.5-0.4,0.6L8.9,6.8c-0.2,0.1-0.4,0-0.4-0.2
										C8.6,6.4,8.7,6.2,8.9,6.1z"/>
									<path fill="#E0E0E0" d="M8.1,8.9l5.6-3.2c0.2-0.1,0.4,0,0.4,0.2c0,0.2-0.1,0.5-0.4,0.6L8.1,9.6c-0.2,0.1-0.4,0-0.4-0.2
										C7.7,9.2,7.9,9,8.1,8.9z"/>
									<path fill="#E0E0E0" d="M8.1,11.2l5.6-3.2c0.2-0.1,0.4,0,0.4,0.2c0,0.2-0.1,0.5-0.4,0.6l-5.6,3.2c-0.2,0.1-0.4,0-0.4-0.2
										C7.7,11.5,7.9,11.3,8.1,11.2z"/>
									<path fill="#E0E0E0" d="M8.1,13.5l5.6-3.2c0.2-0.1,0.4,0,0.4,0.2c0,0.2-0.1,0.5-0.4,0.6l-5.6,3.2c-0.2,0.1-0.4,0-0.4-0.2
										C7.7,13.8,7.9,13.6,8.1,13.5z"/>
								</g>
							</g>
						</g>
					</g>
				</g>
			</g>
			<g transform="translate(62.41 163.614)">
				<g transform="translate(41.16)">
					<g transform="translate(5.482)">
						<path fill="#27DEBF" d="M40.8,9.4c0-2.1-1.1-4-2.8-5.2c-0.6-0.5-1.4-0.6-2.1-0.3l0,0C32.7,5.6,9.7,20.3,8.2,21.1l0,0
							c-0.3,0.2-0.5,0.6-0.5,0.9c0,1,0.5,2,1.4,2.6c0.3,0.2,0.7,0.3,1.1,0.1l0,0c2.3-1.3,25.1-11,29.7-13.5l0,0
							C40.5,10.9,40.9,10.2,40.8,9.4z"/>
						<path opacity="0.1" enable-background="new    " d="M39.9,6.3c-0.5-0.8-1.1-1.5-1.9-2c-0.6-0.5-1.4-0.6-2.1-0.3
							C35.9,4,35.8,4,35.9,4c-3,1.5-20.1,12.5-25.9,16l0,0l-0.2,0.1l-0.1,0l-0.1,0.1l-0.2,0.1l0,0c-0.6,0.4-1,0.6-1.2,0.7l0,0
							c0,0-0.1,0.1-0.1,0.1c-0.2,0.2-0.3,0.5-0.3,0.8c0,0.1,0,0.2,0,0.3c0,0,0,0.1,0,0.1c0,0.1,0,0.1,0,0.2s0,0.1,0,0.2
							s0,0.1,0.1,0.2c0,0,0,0.1,0.1,0.1c0,0,0,0,0,0L39.9,6.3z"/>
						<path fill="#27DEBF" d="M9.1,24.7c-0.9-0.6-1.4-1.6-1.4-2.6c0-0.9,0.7-1.3,1.5-0.8c0.9,0.6,1.4,1.6,1.4,2.6
							C10.6,24.8,9.9,25.2,9.1,24.7z"/>
					</g>
					<path fill="#37474F" d="M7.7,25.3c0,0.8,0.4,1.6,1.1,2c0.2,0.2,0.5,0.2,0.8,0.1l0,0l0,0l0,0l5.6-3l0,0l0,0
						c0.2-0.2,0.4-0.4,0.4-0.7c0-0.8-0.4-1.6-1.1-2c-0.2-0.2-0.5-0.2-0.8-0.1l0,0l-5.6,3l0,0C7.8,24.7,7.7,25,7.7,25.3z"/>
					<path fill="#263238" d="M8.1,24.6c-0.2,0.2-0.4,0.4-0.4,0.7c0,0.3,0.1,0.6,0.2,0.9l7.2-3.8c-0.2-0.2-0.4-0.5-0.6-0.6
						c-0.2-0.2-0.5-0.2-0.8-0.1L8.1,24.6L8.1,24.6z"/>
				</g>
				<g transform="translate(0 12.516)">
					<path fill="#12263F" d="M56,17.7c0-3.6-2.4-7.1-7.1-9.9c-9.4-5.4-24.7-5.4-34.2,0c-4.7,2.7-7.1,6.3-7.1,9.9l0,0v6.6
						c0,3.6,2.4,7.1,7.1,9.9c9.4,5.4,24.7,5.4,34.2,0c4.7-2.7,7.1-6.3,7.1-9.9V17.7L56,17.7z M16,9.9c10-5,21.8-5,31.8,0
						c3.8,2.2,5.9,5,5.9,7.8s-2.1,5.6-5.9,7.8c-10,5-21.8,5-31.8,0c-3.8-2.2-5.9-5-5.9-7.8S12.1,12.1,16,9.9z"/>
					<path opacity="0.3" fill="#FFFFFF" enable-background="new    " d="M14.8,27.6c9.4,5.4,24.7,5.4,34.2,0s9.4-14.3,0-19.7
						s-24.7-5.4-34.2,0S5.4,22.1,14.8,27.6z M10,17.7c0-2.9,2.1-5.6,5.9-7.8c10-5,21.8-5,31.8,0c3.8,2.2,5.9,5,5.9,7.8
						s-2.1,5.6-5.9,7.8c-10,5-21.8,5-31.8,0C12.1,23.4,10,20.6,10,17.7L10,17.7z"/>
					<g transform="translate(2.334 2.335)">
						<path fill="#27DEBF" d="M7.7,15.4c0,1.2,0.3,2.3,0.9,3.3c1.2-1.9,2.9-3.5,5-4.5c10-5,21.8-5,31.8,0c2,1.1,3.7,2.6,5,4.5
							c0.6-1,0.9-2.1,0.9-3.3c0-2.9-2.1-5.6-5.9-7.8c-10-5-21.8-5-31.8,0C9.8,9.7,7.7,12.5,7.7,15.4z"/>
						<path opacity="0.1" fill="#37A3A5" enable-background="new    " d="M7.7,15.4c0,1.2,0.3,2.3,0.9,3.3c1.2-1.9,2.9-3.5,5-4.5
							c10-5,21.8-5,31.8,0c2,1.1,3.7,2.6,5,4.5c0.6-1,0.9-2.1,0.9-3.3c0-2.9-2.1-5.6-5.9-7.8c-10-5-21.8-5-31.8,0
							C9.8,9.7,7.7,12.5,7.7,15.4z"/>
					</g>
					<path opacity="0.4" fill="#FFFFFF" enable-background="new    " d="M16,12.9c10-5,21.8-5,31.8,0c3.1,1.8,5.1,4,5.7,6.3
						c-0.6,2.3-2.6,4.5-5.7,6.3c-10,5-21.8,5-31.8,0c-3.1-1.8-5.1-4-5.7-6.3C10.8,16.9,12.8,14.7,16,12.9z"/>
					<path opacity="0.1" enable-background="new    " d="M26.2,31.3v6.6c-4-0.5-7.9-1.7-11.4-3.7c-4.7-2.7-7.1-6.3-7.1-9.9v-6.6
						c0-0.7,0.1-1.5,0.3-2.2l0,0c-1.1,4.2,1.1,8.7,6.8,12C18.3,29.5,22.2,30.8,26.2,31.3z"/>
				</g>
			</g>
			<g transform="translate(152.757 62.947)">
				<g transform="translate(17.138 44.618)">
					<g transform="translate(17.881 50.653)">
						<path fill="#263238" d="M15.9,9.1c0.3,0.1,0.3,0.7,0.4,1.8c0,0.8,0.2,2.3-0.8,2.5c-1.1,0.3-2.2,0.1-3-0.7
							c-0.8-1-1.3-1.9-2.3-3.1c-1-0.9-1.8-2.1-2.3-3.5c-0.3-1.3,0-1.9,0.9-2.2c1.2-0.5,3.1,1.3,4.1,1.5C13.6,5.7,15.6,8.9,15.9,9.1z
							"/>
					</g>
					<g transform="translate(22.379 54.349)">
						<path fill="#FFA8A7" d="M11.4,4.3l0,1.3c-1,0.6-2.3,0.6-3.4,0C8,5.6,7.7,3.8,7.7,3.8L11.4,4.3z"/>
					</g>
					<g transform="translate(0 63.401)">
						<path fill="#263238" d="M22.8,3.8C23,4.5,23.2,5.2,23.3,6c0.2,0.9,0.3,1.9,0.1,2.8c-0.3,0.6-1.4,1-3.1,0.9
							c-1.4,0.1-2.8,0.6-4.1,1.3c-1.6,0.6-3.4,0.9-5.1,0.7C9.6,11.5,8,10.6,7.8,9.9c-0.2-0.6,0.1-1.3,3.7-2.7c0,0,5-1.5,6.8-3.4
							L22.8,3.8z"/>
					</g>
					<g transform="translate(10.619 61.952)">
						<path fill="#FFA8A7" d="M12.2,3.8c0,0,0,1,0,1.6s-0.7,1.4-2.4,1.3c-1.2-0.1-2.1-0.4-2-1.4l0-1.4L12.2,3.8z"/>
					</g>
					<g transform="translate(6.867)">
						<path fill="#F6F6F6" d="M28.2,40.9c-0.2-2.4-0.7-4.7-1.4-7c0,0,0.6-6,1-11.7C28.4,16.1,28.2,10,27.3,4c0,0-18.9-1.7-19.4,5.4
							s0.2,25.3,0.4,28.4s0.6,5.9,1.2,11c0.5,5,2,16.9,2,16.9c1.4,0.7,3,0.7,4.4,0c0,0,1.7-14.2,1.7-17.8c-0.1-2.7-0.5-5.3-1.2-7.9
							c0,0,0.5-5.9,1-11s0.9-7.6,1-9.8l0.4-0.2c0,0,0.2,8.8,0.4,12s0.6,6.2,1.4,12c0.7,5.1,2.8,15.8,2.8,15.8
							c1.1,0.8,2.6,0.8,3.6-0.1C27,58.7,28.7,45.3,28.2,40.9z"/>
					</g>
					<g transform="translate(17.493 11.077)">
						<path fill="#455A64" d="M7.7,8.1c2.6-1.2,5.1-2.7,7.3-4.4c-1.4,1.9-3.2,3.4-5.3,4.4c0,0-1.3,10.9-1.3,10.7L8.1,8.1L7.7,8.1z"
							/>
					</g>
				</g>
				<path fill="#FFA8A7" d="M39,23.2l0.7,6.5l6.2-0.3l-0.7-7.6L39,23.2z"/>
				<g transform="translate(0 14.562)">
					<path fill="#37474F" d="M48.2,11.1c2.3-0.1,3.5,0.2,4.5,2.2s1.4,7.9,1.8,10.9s0.4,5.2-0.8,5.5c-2,0.3-4.1,0.4-6.1,0.4
						L48.2,11.1z"/>
					<path fill="#455A64" d="M52,14.5c-0.6-2.2-2.7-3.6-5-3.4c-0.5,0.1-1,0.2-1.5,0.3c-0.3,1.1-3.3,1.8-6.2,1.1
						c-0.9,0.2-3.7,0.8-4.4,1c-2.1,0.7-2.9,2.7-3.2,9.5c0,0,0.2,15.3,0.1,18.3c4.2,1.8,8.9,2.3,13.4,1.6c6.2-1.2,7-3.7,7-3.7l-0.9-7
						C51.3,32.1,52.8,18.6,52,14.5z"/>
					<path fill="#37474F" d="M39.2,10.8l0,0.4c1.2,0.3,2.5,0.3,3.8,0c2-0.4,2.4-1,2.4-1l0-0.5c0,0,0.5-0.2,0.8,0.6
						c0.1,0.3,0.2,0.6,0.3,0.9c0,0,0.2,1.4-2.1,2.1c-2,0.6-4.1,0.4-5.9-0.6l-0.9,0.2c0,0,0.8-1.8,1-2.2c0.1-0.2,0.3-0.3,0.6-0.3
						L39.2,10.8z"/>
					<g transform="translate(0.463)">
						<path fill="#455A64" d="M19.9,3.8L7.7,10.2l6.1,16.6l11.4-6.4L19.9,3.8z"/>
						<path fill="#F5F5F5" d="M19.4,5.4L9.1,10.8L14.5,25l9.6-5.4L19.4,5.4z"/>
						<path opacity="0.15" enable-background="new    " d="M17.2,6.9L17,6.4c-0.1-0.3-1-0.1-1.9,0.4l-1.8,0.9
							c-0.9,0.5-1.6,1.1-1.5,1.4L12,9.6L17.2,6.9z"/>
						<g transform="translate(3.03 0.974)">
							<path fill="#27DEBF" d="M14,3.9c-0.1-0.2-0.4-0.1-0.8,0.1l-0.7,0.4c0,0-0.4-1.1-2.1-0.3s-1.3,2-1.3,2L8.4,6.5
								C8,6.7,7.7,7,7.7,7.2l0.1,0.3l6.3-3.3C14.1,4.3,14,4.1,14,3.9z"/>
							<path fill="#27DEBF" d="M13.3,4.7c-0.6,0.3-0.8,0.4-0.6,0.9C12.8,6,13,6.4,13,6.4l-2.8,1.5c0,0-0.2-0.6-0.3-0.9
								S9.6,6.6,9.2,6.8L9,6.7l4.4-2.2L13.3,4.7z"/>
							<path opacity="0.3" enable-background="new    " d="M13.3,4.7c-0.6,0.3-0.8,0.4-0.6,0.9C12.8,6,13,6.4,13,6.4l-2.8,1.5
								c0,0-0.2-0.6-0.3-0.9S9.6,6.6,9.2,6.8L9,6.7l4.4-2.2L13.3,4.7z"/>
							<path fill="#27DEBF" d="M14.3,6l-0.2-0.5c-0.1-0.3-1-0.1-1.9,0.4l-1.8,0.9C9.4,7.3,8.8,7.9,8.9,8.2l0.2,0.5L14.3,6z"/>
						</g>
					</g>
					<g transform="translate(13.148 9.71)">
						<path fill="#FFA8A7" d="M21.8,3.8c-2.8,0.2-4,0.8-6.1,4.6C13.4,12.5,9,20,8.4,20.9c-0.8,1.4-0.9,3.1-0.3,4.5
							c0.6,1.1,2.6,1.6,4.9-0.9c2.7-3,7.7-10.4,7.7-10.4S25,8.5,21.8,3.8z"/>
					</g>
					<path fill="#FFA8A7" d="M22.5,36.1c-2.2-0.3-7.2-7.1-8.6-9.4c-1.1-1.8-2.6-3.4-4.4-4.6c-2.3-1.7-2-4.3-1-6.7
						c0.3-0.8,1.5-0.3,1.5-0.3l0.4,1.1l0.7,2c0.5,0.4,0.8,0.6,0.8,0.5c0.1-0.3-0.4-1.3-0.3-2.4c0-1.3,0.9-0.5,1.2,0
						c0.4,0.7,0.7,1.4,1,2.2c0.5,1.2,0.3,2.4,0.8,3.2s8.1,8,8.1,8L22.5,36.1z"/>
					<path fill="#37474F" d="M35.5,13.3c-2.1-0.2-4.1,0.7-5.4,2.3c-1.6,2.1-8,13.3-8,13.3l-3.6-3.2c-1.4,0.9-2.4,2.3-2.7,3.9
						c1,1.5,2.1,3,3.2,4.4c1.5,1.7,3.2,2.8,4.6,2.3s2.8-1.6,5.8-5.7s6.2-9,6.2-9S37.7,16.8,35.5,13.3z"/>
				</g>
				<g transform="translate(25.529 11.419)">
					<path fill="#F28F8F" d="M9.1,3.8c0,0-1.5,2.3-1.4,2.6S9,6.8,9,6.8L9.1,3.8z"/>
				</g>
				<g transform="translate(25.793 9.253)">
					<path fill="#263238" d="M9.5,7.4c-1,0-1.8-0.8-1.8-1.8c0-1,0.8-1.8,1.8-1.8c1,0,1.8,0.8,1.8,1.8C11.4,6.6,10.6,7.4,9.5,7.4z
						 M9.5,4.2c-0.8,0-1.4,0.6-1.4,1.4S8.8,7,9.5,7C10.3,7,11,6.4,11,5.6c0,0,0,0,0,0C11,4.8,10.3,4.2,9.5,4.2L9.5,4.2z"/>
				</g>
				<g transform="translate(26.783 4.657)">
					<path fill="#FFA8A7" d="M12.1,4.1c-3.1,0.7-4,2-4.3,7c-0.3,5.2,0.2,6.8,0.9,7.5c0.5,0.5,3,0.6,4.3,0.2c1.6-0.4,5.2-1.7,6.9-4.3
						c2-3.1,2.5-7.2,0.4-8.9C17.3,3.1,13.4,3.8,12.1,4.1z"/>
				</g>
				<path fill="#F28F8F" d="M39,23.5l-0.1-1c-1,0.5-2.1,0.8-3.2,0.7C36.7,23.6,37.9,23.7,39,23.5z"/>
				<path fill="#263238" d="M33.7,14.5l5.5,0.7L39,15.6l-5.3-0.7L33.7,14.5z"/>
				<g transform="translate(25.1)">
					<path fill="#263238" d="M9,10.7c0.2,0,0.5,0,0.7,0c-0.2,0.5,0,1,0.4,1.3c0.4,0.3,0.9,0.3,1.4,0.2c-0.2,0.3-0.2,0.6-0.2,1
						c0.2,0.7,0.9,1.2,1.6,1.2c0,0.7,0,1.4,0.8,1.8c0,0,0.5-1.9,2.1-1.7s1.8,2.3,0.8,3.6s-2,0.8-2,0.8c0.1,0,0.1,0.7,0.2,0.8
						c0.1,0.4,0.2,0.7,0.4,1c0.3,0.7,0.8,1.3,1.5,1.7c0.8,0.7,1.9,1,2.9,0.8c0.9-0.2,1.7-0.8,2.1-1.7c0.1-0.2,0.2-0.4,0.3-0.6
						c0.2-0.2,0.5-0.3,0.8-0.3c1.2-0.4,1.9-1.7,1.5-3c0-0.1-0.1-0.2-0.1-0.3c1.1-0.3,1.8-1.5,1.5-2.6c-0.1-0.4-0.4-0.8-0.7-1.1
						c0.9-0.6,1.4-1.7,1.1-2.8c-0.3-0.9-1-1.5-1.8-1.8c-0.6-0.2-0.4-0.3-0.6-0.9c-0.4-1.2-1.6-1.9-2.8-1.5c0,0,0,0,0,0
						c-0.2-0.8-0.8-1.5-1.6-1.7c-0.4-0.1-0.7-0.1-1.1,0c-0.3,0.1-0.8,0.3-0.9,0.6c-0.3-0.3-0.4-0.7-0.8-1c-1-0.8-2.5-0.6-3.3,0.5
						C13.1,4.8,13,4.9,13,5c-0.6-0.6-1.4-0.9-2.2-0.9c-0.8,0-1.6,0.5-2,1.2C8.4,6,8.5,6.9,9.1,7.6c-0.5,0.2-0.9,0.6-1.2,1
						C7.6,9.1,7.7,9.8,8,10.2c0.2,0.2,0.4,0.4,0.6,0.5C8.8,10.7,8.9,10.7,9,10.7z"/>
					<g transform="translate(4.908 11.211)">
						<path fill="#263238" d="M8.8,5.9l0.1-2.2c-0.6,0-1.1,0.5-1.1,1.1C7.7,5.4,8.2,5.9,8.8,5.9L8.8,5.9z"/>
					</g>
				</g>
			</g>
		</g>
	</g>
</g>
</svg>
