<svg xmlns="http://www.w3.org/2000/svg" xmlns:xlink="http://www.w3.org/1999/xlink" width="282.126" height="212.674" viewBox="0 0 282.126 212.674"><defs><linearGradient id="a" x1="0.5" x2="0.5" y2="1" gradientUnits="objectBoundingBox"><stop offset="0" stop-color="#fff"/><stop offset="1" stop-color="#d2e6ee"/></linearGradient></defs><g transform="translate(-286.551 -427.627)"><g transform="translate(61.444 346.593)"><g transform="translate(225.107 81.034)"><g transform="translate(6.411 71.042)"><path d="M232.932,225.6l-.166-.309v1.428l.01-.005c-.057,2.335,1.446,4.68,4.525,6.458l14.513,8.4,6.061-3.5-14.513-8.4a4.337,4.337,0,0,1-1.719-1.651c-3.243-.225-5.756-1.911-8.068-4A6.128,6.128,0,0,0,232.932,225.6Z" transform="translate(-232.766 -175.367)" fill="#137476"/><path d="M275.822,170.44c-6.046-3.491-15.883-3.491-21.929,0l-14.433,8.333a9.752,9.752,0,0,0-3.761,3.562c2.372,2.185,4.628,4.6,8.277,4.234-.976-1.438-.463-3.137,1.546-4.3l14.432-8.333a10.857,10.857,0,0,1,9.808,0l9.3,5.346,6.062-3.5Z" transform="translate(-233.243 -166.213)" fill="#12263f"/><path d="M259.247,199.166a11.81,11.81,0,0,0-2.363-1.762l-11.512-6.647a4.618,4.618,0,0,1-1.546-1.365c-3.649.369-5.9-2.049-8.277-4.234a6.13,6.13,0,0,0-.577,1.407l-.2-.226v1.555h0c-.015,2.3,1.494,4.61,4.532,6.364l11.511,6.647c1.772,1.023,2.375,2.465,1.824,3.778C255.04,204.068,256.916,201.126,259.247,199.166Z" transform="translate(-233.093 -169.036)" fill="#137476"/><path d="M261.063,205.146a7.041,7.041,0,0,0-1.986-3.254c-2.331,1.96-4.206,4.9-6.6,5.515a4.1,4.1,0,0,1-1.824,1.883l-13.195,7.618a9.784,9.784,0,0,0-3.726,3.512c2.312,2.089,4.825,3.775,8.068,4-.729-1.373-.158-2.928,1.719-4.011l13.194-7.618c3-1.729,4.5-4,4.53-6.268l.005.006v-1.6Z" transform="translate(-232.923 -171.762)" fill="#12263f"/><g transform="translate(0.017 4.302)"><path d="M239.314,192.811l11.511,6.646a3.635,3.635,0,0,1,2,2.508c.157-1.129-.507-2.29-2-3.153l-11.511-6.647c-2.881-1.663-4.373-3.824-4.509-6.008C234.657,188.557,236.149,190.983,239.314,192.811Z" transform="translate(-233.113 -173.501)" fill="#fff"/><path d="M251.817,239.489l-14.513-8.4c-2.881-1.663-4.373-3.825-4.508-6.009-.149,2.4,1.343,4.826,4.508,6.653l14.513,8.4,6.061-3.5-.558-.322Z" transform="translate(-232.786 -179.842)" fill="#fff"/><path d="M280.581,177.556l-9.3-5.347a10.854,10.854,0,0,0-9.808,0l-14.432,8.333c-1.494.862-2.158,2.023-2,3.153a3.638,3.638,0,0,1,2-2.509l14.432-8.333a10.854,10.854,0,0,1,9.808,0l9.3,5.347,6.062-3.5-.56-.321Z" transform="translate(-234.778 -171.038)" fill="#fff"/><path d="M258.223,211.049l-13.194,7.619c-1.494.862-2.158,2.023-2,3.153a3.636,3.636,0,0,1,2-2.508l13.194-7.618c3.165-1.827,4.657-4.254,4.508-6.653C262.6,207.225,261.1,209.386,258.223,211.049Z" transform="translate(-234.451 -176.577)" fill="#fff"/></g><path d="M251.814,230.494,237.3,222.1c-6.046-3.491-6.046-9.17,0-12.661l13.195-7.618c2.7-1.561,2.7-4.1,0-5.662l-11.511-6.647c-6.046-3.491-6.046-9.17,0-12.661l14.433-8.333c6.046-3.491,15.883-3.491,21.929,0l9.3,5.347-6.061,3.5-9.3-5.346a10.854,10.854,0,0,0-9.808,0l-14.432,8.333c-2.7,1.561-2.7,4.1,0,5.662l11.512,6.647c6.046,3.491,6.046,9.17,0,12.661l-13.194,7.618c-2.7,1.561-2.7,4.1,0,5.662l14.513,8.4Z" transform="translate(-232.766 -165.9)" fill="url(#a)"/><g transform="translate(17.214 59.776)"><path d="M262.446,237.435l-.006.005a.932.932,0,0,0-1.038.054l-6.681,3.857a3.076,3.076,0,0,0-1.392,2.412,1,1,0,0,0,.362.863l7.162,4.187,8.644-7.269Z" transform="translate(-253.329 -237.307)" fill="#12263f"/><path d="M269.872,242.433l-6.681,3.857A3.078,3.078,0,0,0,261.8,248.7c0,.888.624,1.248,1.392.8l6.681-3.857a3.076,3.076,0,0,0,1.393-2.411C271.265,242.349,270.641,241.989,269.872,242.433Z" transform="translate(-254.709 -238.111)" fill="#5793ce"/></g></g><path d="M284.729,167.794l-.006,0a.931.931,0,0,0-1.037.054L277,171.709a3.078,3.078,0,0,0-1.393,2.412,1,1,0,0,0,.362.864l7.163,4.186,8.644-7.269Z" transform="translate(-233.334 -95.145)" fill="#12263f"/><g transform="translate(45.73)"><path d="M317.976,224.107l-34.7-19.788c-1.269-.732-1.11-2.012.356-2.859L303.6,189.933a5.5,5.5,0,0,1,4.952-.205l34.7,19.788c1.269.732,1.11,2.012-.355,2.859L322.927,223.9A5.5,5.5,0,0,1,317.976,224.107Z" transform="translate(-280.172 -98.658)" fill="#efefef"/><path d="M345.908,187.331h0V106.316L313.7,97.886l-5.932-3.425a5.906,5.906,0,0,0-5.312.22l-5.534,3.2-17.178-.009,5.086,78.208a1.54,1.54,0,0,0,.912,1.423l32.14,24.251a5.9,5.9,0,0,0,5.312-.22l21.419-12.367A2.1,2.1,0,0,0,345.908,187.331Z" transform="translate(-279.737 -83.135)" fill="url(#a)"/><path d="M305.3,93.936a6.122,6.122,0,0,0-2.848.747l-5.534,3.2-17.178-.009V179.1a1.54,1.54,0,0,0,.912,1.424l37.227,21.227a4.809,4.809,0,0,0,2.465.527l.384-81.741Z" transform="translate(-279.736 -83.136)" fill="url(#a)"/><path d="M325.713,206.907a6.049,6.049,0,0,0,4.246-.049v-82.3h-4.246Z" transform="translate(-287.225 -88.124)" fill="#12263f"/><path d="M317.881,118.446,280.654,97.219c-1.361-.786-1.19-2.16.382-3.067l21.419-12.367a5.906,5.906,0,0,1,5.312-.22l37.227,21.228c1.361.786,1.19,2.159-.382,3.067l-21.419,12.367A5.908,5.908,0,0,1,317.881,118.446Z" transform="translate(-279.735 -81.034)" fill="url(#a)"/><path d="M344.613,107.091l-21.419,12.367a5.906,5.906,0,0,1-5.312.22L280.654,98.451a2.041,2.041,0,0,1-.679-.6,1.427,1.427,0,0,0,.679,2.11l37.227,21.228a5.908,5.908,0,0,0,5.312-.22L344.613,108.6c1.222-.706,1.593-1.691,1.061-2.464A2.97,2.97,0,0,1,344.613,107.091Z" transform="translate(-279.735 -83.773)" fill="#fafdff"/><g transform="translate(13.984 6.868)"><path d="M321.656,111.179,296.871,96.811c-.638-.367-.558-1.01.178-1.435l10.023-5.787a2.766,2.766,0,0,1,2.486-.1l24.785,14.367c.637.367.557,1.01-.179,1.435l-10.023,5.787A2.761,2.761,0,0,1,321.656,111.179Z" transform="translate(-296.441 -89.239)" fill="#12263f"/><g transform="translate(10.339 6.341)"><path d="M310.287,98.691l-1.436-.829c-.088-.051-.077-.14.025-.2l1.386-.8a.383.383,0,0,1,.344-.014l1.436.83c.088.051.077.14-.025.2l-1.386.8A.38.38,0,0,1,310.287,98.691Z" transform="translate(-308.791 -96.814)" fill="#d4ecff"/><path d="M316.019,101.987l-1.437-.829c-.088-.051-.077-.14.025-.2l1.386-.8a.383.383,0,0,1,.344-.014l1.436.829c.088.051.077.141-.025.2l-1.386.8A.383.383,0,0,1,316.019,101.987Z" transform="translate(-309.725 -97.351)" fill="#d4ecff"/><path d="M321.751,105.283l-1.436-.83c-.088-.05-.077-.14.024-.2l1.387-.8a.383.383,0,0,1,.344-.014l1.436.829c.088.051.077.14-.025.2l-1.387.8A.381.381,0,0,1,321.751,105.283Z" transform="translate(-310.658 -97.888)" fill="#d4ecff"/><path d="M327.482,108.579l-1.436-.83c-.089-.051-.077-.14.024-.2l1.387-.8a.38.38,0,0,1,.344-.014l1.436.829c.089.051.077.14-.024.2l-1.387.8A.382.382,0,0,1,327.482,108.579Z" transform="translate(-311.592 -98.425)" fill="#d4ecff"/></g><path d="M296.871,96.811l.029.018a1.787,1.787,0,0,1,.149-.1l10.023-5.787a2.766,2.766,0,0,1,2.486-.1l24.755,14.351c.588-.42.619-.993.03-1.333L309.559,89.487a2.766,2.766,0,0,0-2.486.1l-10.023,5.787C296.314,95.8,296.233,96.444,296.871,96.811Z" transform="translate(-296.441 -89.239)" fill="#137476"/></g><g transform="translate(46.205 36.353)"><path d="M336.367,141.571l14.092-8.069a3.439,3.439,0,0,0,1.436-2.743v-5.039c0-1.057-.643-1.544-1.436-1.086L336.367,132.7a3.435,3.435,0,0,0-1.436,2.743v5.039C334.931,141.542,335.573,142.029,336.367,141.571Z" transform="translate(-334.931 -124.461)" fill="#12263f"/><path d="M351.226,124.486a1.4,1.4,0,0,1,.361,1.048v5.039a3.436,3.436,0,0,1-1.436,2.743l-14.092,8.069a1.027,1.027,0,0,1-.7.152.857.857,0,0,0,1.076.038l14.092-8.069a3.439,3.439,0,0,0,1.436-2.743v-5.039C351.964,125.005,351.665,124.561,351.226,124.486Z" transform="translate(-335.001 -124.465)" fill="#fff"/><g transform="translate(5.361 6.14)"><path d="M341.648,137.776l1.292-.747a.748.748,0,0,0,.313-.6v-1.38c0-.231-.14-.337-.313-.237l-1.292.746a.751.751,0,0,0-.313.6v1.38C341.335,137.771,341.475,137.876,341.648,137.776Z" transform="translate(-341.335 -132.282)" fill="#fff"/><path d="M346.811,134.8l1.293-.747a.75.75,0,0,0,.313-.6V132.07c0-.23-.141-.336-.313-.236l-1.293.746a.751.751,0,0,0-.312.6v1.38C346.5,134.79,346.639,134.9,346.811,134.8Z" transform="translate(-342.176 -131.796)" fill="#fff"/></g></g><g transform="translate(46.205 72.769)"><path d="M336.367,185.073,350.459,177a3.439,3.439,0,0,0,1.436-2.743v-5.039c0-1.057-.643-1.544-1.436-1.086L336.367,176.2a3.438,3.438,0,0,0-1.436,2.744v5.039C334.931,185.044,335.573,185.531,336.367,185.073Z" transform="translate(-334.931 -167.963)" fill="#173d7a"/><path d="M351.226,167.988a1.4,1.4,0,0,1,.361,1.048v5.039a3.439,3.439,0,0,1-1.436,2.744l-14.092,8.068a1.032,1.032,0,0,1-.7.152.857.857,0,0,0,1.076.038l14.092-8.069a3.439,3.439,0,0,0,1.436-2.743v-5.039C351.964,168.507,351.665,168.063,351.226,167.988Z" transform="translate(-335.001 -167.967)" fill="#fff"/><g transform="translate(5.361 6.14)"><path d="M341.648,181.278l1.292-.747a.748.748,0,0,0,.313-.6v-1.38c0-.231-.14-.337-.313-.237l-1.292.747a.747.747,0,0,0-.313.6v1.38C341.335,181.273,341.475,181.378,341.648,181.278Z" transform="translate(-341.335 -175.784)" fill="#396caa"/><path d="M346.811,178.3l1.293-.747a.75.75,0,0,0,.313-.6v-1.381c0-.23-.141-.336-.313-.236l-1.293.746a.751.751,0,0,0-.312.6v1.38C346.5,178.291,346.639,178.4,346.811,178.3Z" transform="translate(-342.176 -175.298)" fill="#fff"/></g></g><g transform="translate(46.205 90.977)"><path d="M336.367,206.824l14.092-8.069a3.439,3.439,0,0,0,1.436-2.743v-5.039c0-1.057-.643-1.544-1.436-1.086l-14.092,8.069a3.435,3.435,0,0,0-1.436,2.743v5.039C334.931,206.8,335.573,207.281,336.367,206.824Z" transform="translate(-334.931 -189.714)" fill="#173d7a"/><path d="M351.226,189.739a1.4,1.4,0,0,1,.361,1.048v5.039a3.436,3.436,0,0,1-1.436,2.743l-14.092,8.069a1.032,1.032,0,0,1-.7.151.857.857,0,0,0,1.076.038l14.092-8.069a3.439,3.439,0,0,0,1.436-2.743v-5.039C351.964,190.258,351.665,189.814,351.226,189.739Z" transform="translate(-335.001 -189.718)" fill="#fff"/><g transform="translate(5.361 6.14)"><path d="M341.648,203.029l1.292-.747a.748.748,0,0,0,.313-.6V200.3c0-.231-.14-.337-.313-.237l-1.292.747a.748.748,0,0,0-.313.6v1.38C341.335,203.024,341.475,203.129,341.648,203.029Z" transform="translate(-341.335 -197.535)" fill="#396caa"/><path d="M346.811,200.048l1.293-.747a.75.75,0,0,0,.313-.6v-1.381c0-.23-.141-.336-.313-.236l-1.293.746a.751.751,0,0,0-.312.6v1.38C346.5,200.042,346.639,200.148,346.811,200.048Z" transform="translate(-342.176 -197.049)" fill="#fff"/></g></g><g transform="translate(46.205 54.561)"><path d="M336.367,163.322l14.092-8.069a3.439,3.439,0,0,0,1.436-2.743V147.47c0-1.057-.643-1.544-1.436-1.086l-14.092,8.068a3.44,3.44,0,0,0-1.436,2.744v5.039C334.931,163.293,335.573,163.78,336.367,163.322Z" transform="translate(-334.931 -146.212)" fill="#12263f"/><path d="M351.226,146.237a1.4,1.4,0,0,1,.361,1.048v5.039a3.439,3.439,0,0,1-1.436,2.744l-14.092,8.068a1.028,1.028,0,0,1-.7.152.857.857,0,0,0,1.076.038l14.092-8.069a3.439,3.439,0,0,0,1.436-2.743v-5.039C351.964,146.756,351.665,146.312,351.226,146.237Z" transform="translate(-335.001 -146.216)" fill="#fff"/><g transform="translate(5.361 6.14)"><path d="M341.648,159.527l1.292-.747a.748.748,0,0,0,.313-.6V156.8c0-.231-.14-.337-.313-.237l-1.292.747a.748.748,0,0,0-.313.6v1.38C341.335,159.522,341.475,159.627,341.648,159.527Z" transform="translate(-341.335 -154.033)" fill="#fff"/><path d="M346.811,156.546l1.293-.747a.75.75,0,0,0,.313-.6v-1.381c0-.23-.141-.336-.313-.236l-1.293.746a.751.751,0,0,0-.312.6v1.38C346.5,156.541,346.639,156.646,346.811,156.546Z" transform="translate(-342.176 -153.547)" fill="#fff"/></g></g><g transform="translate(1.605 19.662)"><path d="M315.482,133.164l-32.512-18.771a3.156,3.156,0,0,1-1.318-2.517v-6.2c0-.97.59-1.416,1.318-1l32.512,18.771a3.157,3.157,0,0,1,1.318,2.517v6.2C316.8,133.138,316.21,133.584,315.482,133.164Z" transform="translate(-281.653 -104.522)" fill="#21587b"/><path d="M314.857,131.428l-30.645-17.692a1.6,1.6,0,0,1-.668-1.277V107.8c0-.492.3-.718.668-.5l30.645,17.692a1.6,1.6,0,0,1,.669,1.277v4.661C315.526,131.415,315.226,131.641,314.857,131.428Z" transform="translate(-281.961 -104.96)" fill="#d4ecff" opacity="0.4"/><path d="M290.955,115.729l-4.573-2.641a1.554,1.554,0,0,1-.65-1.24h0c0-.478.291-.7.65-.491l4.573,2.64a1.554,1.554,0,0,1,.65,1.241h0C291.6,115.717,291.314,115.936,290.955,115.729Z" transform="translate(-282.317 -105.623)" fill="#d4ecff"/><path d="M296.335,117.976c0,.478-.336.671-.749.433a1.657,1.657,0,0,1-.75-1.3c0-.478.336-.672.75-.433A1.657,1.657,0,0,1,296.335,117.976Z" transform="translate(-283.8 -106.485)" fill="#137476"/><path d="M299.494,119.8c0,.478-.336.671-.75.433a1.658,1.658,0,0,1-.749-1.3c0-.478.336-.672.749-.433A1.656,1.656,0,0,1,299.494,119.8Z" transform="translate(-284.315 -106.783)" fill="#137476"/><path d="M302.653,121.624c0,.478-.336.672-.75.433a1.656,1.656,0,0,1-.749-1.3c0-.478.336-.671.749-.432A1.654,1.654,0,0,1,302.653,121.624Z" transform="translate(-284.829 -107.08)" fill="#d4ecff"/><path d="M305.812,123.447c0,.478-.336.672-.75.433a1.657,1.657,0,0,1-.749-1.3c0-.478.336-.671.749-.433A1.657,1.657,0,0,1,305.812,123.447Z" transform="translate(-285.344 -107.377)" fill="#137476"/><path d="M319.029,132.324l-1.54-.889a1,1,0,0,1-.416-.8v-1.63c0-.307.186-.448.416-.315l1.54.889a1,1,0,0,1,.417.8v1.63C319.446,132.316,319.26,132.457,319.029,132.324Z" transform="translate(-287.422 -108.451)" fill="#137476"/></g><g transform="translate(1.605 30.594)"><path d="M315.482,146.223l-32.512-18.771a3.156,3.156,0,0,1-1.318-2.517v-6.2c0-.97.59-1.416,1.318-1l32.512,18.771a3.154,3.154,0,0,1,1.318,2.517v6.2C316.8,146.2,316.21,146.643,315.482,146.223Z" transform="translate(-281.653 -117.582)" fill="#21587b"/><path d="M314.857,144.488l-30.645-17.693a1.6,1.6,0,0,1-.668-1.277v-4.66c0-.492.3-.719.668-.506l30.645,17.693a1.6,1.6,0,0,1,.669,1.277v4.66C315.526,144.474,315.226,144.7,314.857,144.488Z" transform="translate(-281.961 -118.02)" fill="#d4ecff" opacity="0.4"/><path d="M290.955,128.788l-4.573-2.64a1.556,1.556,0,0,1-.65-1.241h0c0-.478.291-.7.65-.491l4.573,2.64a1.554,1.554,0,0,1,.65,1.241h0C291.6,128.776,291.314,129,290.955,128.788Z" transform="translate(-282.317 -118.682)" fill="#d4ecff"/><path d="M296.335,131.035c0,.478-.336.672-.749.433a1.656,1.656,0,0,1-.75-1.3c0-.478.336-.671.75-.433A1.658,1.658,0,0,1,296.335,131.035Z" transform="translate(-283.8 -119.545)" fill="#fff"/><path d="M299.494,132.859c0,.478-.336.671-.75.433a1.658,1.658,0,0,1-.749-1.3c0-.478.336-.671.749-.433A1.657,1.657,0,0,1,299.494,132.859Z" transform="translate(-284.315 -119.842)" fill="#137476"/><path d="M302.653,134.683c0,.478-.336.671-.75.433a1.658,1.658,0,0,1-.749-1.3c0-.478.336-.672.749-.433A1.656,1.656,0,0,1,302.653,134.683Z" transform="translate(-284.829 -120.139)" fill="#d4ecff"/><path d="M305.812,136.507c0,.479-.336.672-.75.433a1.655,1.655,0,0,1-.749-1.3c0-.478.336-.672.749-.433A1.654,1.654,0,0,1,305.812,136.507Z" transform="translate(-285.344 -120.436)" fill="#137476"/><path d="M319.029,145.383l-1.54-.889a1,1,0,0,1-.416-.8v-1.63c0-.306.186-.448.416-.315l1.54.889a1,1,0,0,1,.417.8v1.63C319.446,145.375,319.26,145.516,319.029,145.383Z" transform="translate(-287.422 -121.511)" fill="#137476"/></g><g transform="translate(1.605 41.526)"><path d="M315.482,159.283l-32.512-18.771a3.157,3.157,0,0,1-1.318-2.518v-6.2c0-.971.59-1.416,1.318-1l32.512,18.771a3.156,3.156,0,0,1,1.318,2.517v6.2C316.8,159.257,316.21,159.7,315.482,159.283Z" transform="translate(-281.653 -130.641)" fill="#21587b"/><path d="M314.857,157.547l-30.645-17.693a1.6,1.6,0,0,1-.668-1.277v-4.661c0-.492.3-.718.668-.506L314.857,151.1a1.6,1.6,0,0,1,.669,1.277v4.66C315.526,157.534,315.226,157.76,314.857,157.547Z" transform="translate(-281.961 -131.079)" fill="#d4ecff" opacity="0.4"/><path d="M290.955,141.847l-4.573-2.64a1.554,1.554,0,0,1-.65-1.24h0c0-.478.291-.7.65-.491l4.573,2.641a1.552,1.552,0,0,1,.65,1.24h0C291.6,141.835,291.314,142.055,290.955,141.847Z" transform="translate(-282.317 -131.742)" fill="#d4ecff"/><path d="M296.335,144.094c0,.479-.336.672-.749.433a1.656,1.656,0,0,1-.75-1.3c0-.478.336-.671.75-.433A1.659,1.659,0,0,1,296.335,144.094Z" transform="translate(-283.8 -132.604)" fill="#fff"/><path d="M299.494,145.918c0,.478-.336.672-.75.433a1.657,1.657,0,0,1-.749-1.3c0-.478.336-.671.749-.433A1.657,1.657,0,0,1,299.494,145.918Z" transform="translate(-284.315 -132.901)" fill="#137476"/><path d="M302.653,147.742c0,.478-.336.672-.75.433a1.657,1.657,0,0,1-.749-1.3c0-.478.336-.671.749-.433A1.657,1.657,0,0,1,302.653,147.742Z" transform="translate(-284.829 -133.198)" fill="#d4ecff"/><path d="M305.812,149.566c0,.478-.336.671-.75.433a1.658,1.658,0,0,1-.749-1.3c0-.478.336-.672.749-.433A1.656,1.656,0,0,1,305.812,149.566Z" transform="translate(-285.344 -133.495)" fill="#137476"/><path d="M319.029,158.443l-1.54-.89a1,1,0,0,1-.416-.8v-1.63c0-.306.186-.448.416-.315l1.54.89a1,1,0,0,1,.417.8v1.63C319.446,158.434,319.26,158.575,319.029,158.443Z" transform="translate(-287.422 -134.57)" fill="#137476"/></g><g transform="translate(1.605 52.458)"><path d="M315.482,172.342l-32.512-18.771a3.156,3.156,0,0,1-1.318-2.517v-6.2c0-.97.59-1.416,1.318-1l32.512,18.771a3.156,3.156,0,0,1,1.318,2.518v6.2C316.8,172.316,316.21,172.762,315.482,172.342Z" transform="translate(-281.653 -143.7)" fill="#21587b"/><path d="M314.857,170.606l-30.645-17.692a1.6,1.6,0,0,1-.668-1.277v-4.661c0-.492.3-.718.668-.5l30.645,17.692a1.6,1.6,0,0,1,.669,1.277V170.1C315.526,170.593,315.226,170.819,314.857,170.606Z" transform="translate(-281.961 -144.138)" fill="#d4ecff" opacity="0.4"/><path d="M290.955,154.907l-4.573-2.64a1.557,1.557,0,0,1-.65-1.241h0c0-.478.291-.7.65-.491l4.573,2.64a1.552,1.552,0,0,1,.65,1.24h0C291.6,154.894,291.314,155.114,290.955,154.907Z" transform="translate(-282.317 -144.801)" fill="#d4ecff"/><path d="M296.335,157.154c0,.478-.336.671-.749.433a1.657,1.657,0,0,1-.75-1.3c0-.478.336-.672.75-.433A1.657,1.657,0,0,1,296.335,157.154Z" transform="translate(-283.8 -145.663)" fill="#137476"/><path d="M299.494,158.978c0,.478-.336.671-.75.432a1.656,1.656,0,0,1-.749-1.3c0-.478.336-.672.749-.433A1.656,1.656,0,0,1,299.494,158.978Z" transform="translate(-284.315 -145.961)" fill="#137476"/><path d="M302.653,160.8c0,.478-.336.672-.75.433a1.657,1.657,0,0,1-.749-1.3c0-.478.336-.671.749-.433A1.657,1.657,0,0,1,302.653,160.8Z" transform="translate(-284.829 -146.258)" fill="#d4ecff"/><path d="M305.812,162.625c0,.478-.336.672-.75.433a1.657,1.657,0,0,1-.749-1.3c0-.478.336-.671.749-.433A1.657,1.657,0,0,1,305.812,162.625Z" transform="translate(-285.344 -146.555)" fill="#137476"/><path d="M319.029,171.5l-1.54-.89a1,1,0,0,1-.416-.8v-1.63c0-.307.186-.448.416-.316l1.54.89a1,1,0,0,1,.417.8v1.63C319.446,171.494,319.26,171.635,319.029,171.5Z" transform="translate(-287.422 -147.629)" fill="#d4ecff"/></g><g transform="translate(1.605 63.39)"><path d="M315.482,185.4,282.971,166.63a3.156,3.156,0,0,1-1.318-2.517v-6.2c0-.97.59-1.416,1.318-1l32.512,18.771a3.157,3.157,0,0,1,1.318,2.518v6.2C316.8,185.376,316.21,185.821,315.482,185.4Z" transform="translate(-281.653 -156.759)" fill="#21587b"/><path d="M314.857,183.666l-30.645-17.693a1.6,1.6,0,0,1-.668-1.277v-4.66c0-.492.3-.719.668-.506l30.645,17.693a1.6,1.6,0,0,1,.669,1.277v4.66C315.526,183.652,315.226,183.878,314.857,183.666Z" transform="translate(-281.961 -157.197)" fill="#d4ecff" opacity="0.4"/><path d="M290.955,167.966l-4.573-2.64a1.556,1.556,0,0,1-.65-1.241h0c0-.478.291-.7.65-.491l4.573,2.64a1.555,1.555,0,0,1,.65,1.241h0C291.6,167.954,291.314,168.173,290.955,167.966Z" transform="translate(-282.317 -157.86)" fill="#d4ecff"/><path d="M296.335,170.213c0,.478-.336.671-.749.433a1.657,1.657,0,0,1-.75-1.3c0-.478.336-.671.75-.433A1.659,1.659,0,0,1,296.335,170.213Z" transform="translate(-283.8 -158.722)" fill="#137476"/><path d="M299.494,172.037c0,.478-.336.671-.75.433a1.658,1.658,0,0,1-.749-1.3c0-.478.336-.672.749-.433A1.656,1.656,0,0,1,299.494,172.037Z" transform="translate(-284.315 -159.02)" fill="#fff"/><path d="M302.653,173.861c0,.478-.336.671-.75.433a1.658,1.658,0,0,1-.749-1.3c0-.478.336-.672.749-.433A1.656,1.656,0,0,1,302.653,173.861Z" transform="translate(-284.829 -159.317)" fill="#d4ecff"/><path d="M305.812,175.685c0,.479-.336.672-.75.433a1.657,1.657,0,0,1-.749-1.3c0-.478.336-.671.749-.432A1.654,1.654,0,0,1,305.812,175.685Z" transform="translate(-285.344 -159.614)" fill="#fff"/><path d="M319.029,184.561l-1.54-.889a1,1,0,0,1-.416-.8v-1.63c0-.307.186-.448.416-.315l1.54.889a1,1,0,0,1,.417.8v1.63C319.446,184.553,319.26,184.694,319.029,184.561Z" transform="translate(-287.422 -160.688)" fill="#d4ecff"/></g><g transform="translate(1.605 74.323)"><path d="M315.482,198.461,282.971,179.69a3.157,3.157,0,0,1-1.318-2.518v-6.2c0-.971.59-1.416,1.318-1l32.512,18.771a3.156,3.156,0,0,1,1.318,2.517v6.2C316.8,198.435,316.21,198.881,315.482,198.461Z" transform="translate(-281.653 -169.819)" fill="#21587b"/><path d="M314.857,196.725l-30.645-17.693a1.6,1.6,0,0,1-.668-1.277v-4.66c0-.492.3-.718.668-.506l30.645,17.693a1.6,1.6,0,0,1,.669,1.277v4.66C315.526,196.712,315.226,196.938,314.857,196.725Z" transform="translate(-281.961 -170.257)" fill="#d4ecff" opacity="0.4"/><path d="M290.955,181.025l-4.573-2.64a1.554,1.554,0,0,1-.65-1.24h0c0-.478.291-.7.65-.491l4.573,2.641a1.552,1.552,0,0,1,.65,1.24h0C291.6,181.013,291.314,181.233,290.955,181.025Z" transform="translate(-282.317 -170.92)" fill="#d4ecff"/><path d="M296.335,183.272c0,.478-.336.672-.749.433a1.655,1.655,0,0,1-.75-1.3c0-.478.336-.671.75-.433A1.658,1.658,0,0,1,296.335,183.272Z" transform="translate(-283.8 -171.782)" fill="#137476"/><path d="M299.494,185.1c0,.478-.336.672-.75.433a1.657,1.657,0,0,1-.749-1.3c0-.478.336-.671.749-.433A1.657,1.657,0,0,1,299.494,185.1Z" transform="translate(-284.315 -172.079)" fill="#137476"/><path d="M302.653,186.92c0,.478-.336.671-.75.433a1.658,1.658,0,0,1-.749-1.3c0-.478.336-.672.749-.433A1.657,1.657,0,0,1,302.653,186.92Z" transform="translate(-284.829 -172.376)" fill="#d4ecff"/><path d="M305.812,188.744c0,.478-.336.671-.75.433a1.658,1.658,0,0,1-.749-1.3c0-.478.336-.672.749-.433A1.656,1.656,0,0,1,305.812,188.744Z" transform="translate(-285.344 -172.673)" fill="#173d7a"/><path d="M319.029,197.621l-1.54-.89a1,1,0,0,1-.416-.8v-1.63c0-.306.186-.448.416-.315l1.54.89a1,1,0,0,1,.417.8v1.63C319.446,197.612,319.26,197.753,319.029,197.621Z" transform="translate(-287.422 -173.748)" fill="#173d7a"/></g><g transform="translate(1.605 85.255)"><path d="M315.482,211.52l-32.512-18.771a3.156,3.156,0,0,1-1.318-2.517v-6.2c0-.97.59-1.416,1.318-1l32.512,18.771a3.156,3.156,0,0,1,1.318,2.517v6.2C316.8,211.494,316.21,211.94,315.482,211.52Z" transform="translate(-281.653 -182.878)" fill="#21587b"/><path d="M314.857,209.784l-30.645-17.692a1.6,1.6,0,0,1-.668-1.277v-4.661c0-.492.3-.718.668-.5l30.645,17.692a1.6,1.6,0,0,1,.669,1.277v4.661C315.526,209.771,315.226,210,314.857,209.784Z" transform="translate(-281.961 -183.316)" fill="#d4ecff" opacity="0.4"/><path d="M290.955,194.085l-4.573-2.641a1.554,1.554,0,0,1-.65-1.24h0c0-.478.291-.7.65-.491l4.573,2.64a1.552,1.552,0,0,1,.65,1.24h0C291.6,194.073,291.314,194.292,290.955,194.085Z" transform="translate(-282.317 -183.979)" fill="#d4ecff"/><path d="M297.074,196.8c0,.9-.634,1.268-1.416.817a3.129,3.129,0,0,1-1.415-2.452c0-.9.634-1.269,1.415-.818A3.129,3.129,0,0,1,297.074,196.8Z" transform="translate(-283.704 -184.714)" fill="#fff"/><path d="M303.876,200.867c0,.478-.336.672-.749.433a1.656,1.656,0,0,1-.75-1.3c0-.478.336-.671.75-.433A1.658,1.658,0,0,1,303.876,200.867Z" transform="translate(-285.029 -185.58)" fill="#173d7a"/><path d="M307.035,202.691c0,.478-.336.671-.749.433a1.657,1.657,0,0,1-.75-1.3c0-.478.336-.671.75-.433A1.659,1.659,0,0,1,307.035,202.691Z" transform="translate(-285.543 -185.877)" fill="#d4ecff"/><path d="M310.194,204.515c0,.478-.336.671-.75.433a1.658,1.658,0,0,1-.749-1.3c0-.478.336-.672.749-.433A1.656,1.656,0,0,1,310.194,204.515Z" transform="translate(-286.058 -186.174)" fill="#173d7a"/><path d="M319.029,210.68l-1.54-.89a1,1,0,0,1-.416-.8v-1.63c0-.307.186-.448.416-.316l1.54.89a1,1,0,0,1,.417.8v1.63C319.446,210.672,319.26,210.813,319.029,210.68Z" transform="translate(-287.422 -186.807)" fill="#d4ecff"/></g></g><g transform="translate(98.044 30.049)"><path d="M380.469,260l-34.7-19.787c-1.269-.733-1.11-2.013.355-2.859l19.967-11.528a5.5,5.5,0,0,1,4.951-.206l34.7,19.788c1.269.733,1.11,2.013-.355,2.859L385.42,259.8A5.5,5.5,0,0,1,380.469,260Z" transform="translate(-342.665 -134.554)" fill="#efefef"/><path d="M408.4,223.226h0V142.212l-32.207-8.43-5.932-3.425a5.906,5.906,0,0,0-5.312.22l-5.535,3.2-17.178-.01,5.086,78.208a1.539,1.539,0,0,0,.913,1.423l32.14,24.252a5.906,5.906,0,0,0,5.312-.22l21.419-12.367A2.1,2.1,0,0,0,408.4,223.226Z" transform="translate(-342.23 -119.031)" fill="url(#a)"/><path d="M367.8,129.831a6.132,6.132,0,0,0-2.848.747l-5.535,3.2-17.178-.01V215a1.538,1.538,0,0,0,.912,1.423l37.227,21.227a4.809,4.809,0,0,0,2.465.527l.384-81.74Z" transform="translate(-342.229 -119.032)" fill="url(#a)"/><path d="M388.206,242.8a6.049,6.049,0,0,0,4.246-.049v-82.3h-4.246Z" transform="translate(-349.717 -124.02)" fill="#12263f"/><path d="M380.375,154.341l-37.227-21.228c-1.361-.786-1.19-2.159.382-3.066l21.419-12.367a5.906,5.906,0,0,1,5.312-.22l37.227,21.228c1.361.786,1.19,2.159-.382,3.066l-21.419,12.367A5.906,5.906,0,0,1,380.375,154.341Z" transform="translate(-342.228 -116.93)" fill="url(#a)"/><path d="M407.106,142.987l-21.419,12.367a5.906,5.906,0,0,1-5.312.22l-37.227-21.228a2.042,2.042,0,0,1-.679-.6,1.426,1.426,0,0,0,.679,2.109l37.227,21.228a5.906,5.906,0,0,0,5.312-.22l21.419-12.367c1.221-.7,1.593-1.69,1.061-2.464A2.97,2.97,0,0,1,407.106,142.987Z" transform="translate(-342.228 -119.669)" fill="#fafdff"/><g transform="translate(13.984 6.867)"><path d="M384.149,147.075l-24.785-14.367c-.637-.367-.557-1.01.179-1.435l10.023-5.787a2.761,2.761,0,0,1,2.486-.1l24.785,14.367c.637.368.557,1.011-.179,1.436l-10.023,5.787A2.766,2.766,0,0,1,384.149,147.075Z" transform="translate(-358.934 -125.134)" fill="#12263f"/><g transform="translate(10.339 6.342)"><path d="M372.78,134.587l-1.436-.83c-.088-.05-.077-.14.025-.2l1.386-.8a.383.383,0,0,1,.344-.014l1.436.829c.088.051.077.14-.025.2l-1.386.8A.383.383,0,0,1,372.78,134.587Z" transform="translate(-371.284 -132.71)" fill="#d4ecff"/><path d="M378.512,137.883l-1.436-.83c-.088-.051-.077-.14.025-.2l1.386-.8a.38.38,0,0,1,.344-.014l1.437.829c.088.051.077.14-.025.2l-1.386.8A.383.383,0,0,1,378.512,137.883Z" transform="translate(-372.218 -133.247)" fill="#d4ecff"/><path d="M384.244,141.179l-1.437-.83c-.088-.051-.077-.14.024-.2l1.387-.8a.385.385,0,0,1,.344-.014l1.436.83c.088.051.077.14-.025.2l-1.387.8A.381.381,0,0,1,384.244,141.179Z" transform="translate(-373.151 -133.784)" fill="#d4ecff"/><path d="M389.975,144.474l-1.436-.829c-.089-.051-.077-.14.024-.2l1.387-.8a.382.382,0,0,1,.344-.014l1.436.83c.089.051.077.14-.024.2l-1.387.8A.383.383,0,0,1,389.975,144.474Z" transform="translate(-374.085 -134.32)" fill="#d4ecff"/></g><path d="M359.363,132.707l.029.017c.049-.034.094-.069.15-.1l10.023-5.787a2.764,2.764,0,0,1,2.486-.1l24.755,14.35c.588-.42.619-.993.03-1.333l-24.785-14.367a2.761,2.761,0,0,0-2.486.1l-10.023,5.787C358.807,131.7,358.726,132.34,359.363,132.707Z" transform="translate(-358.934 -125.134)" fill="#137476"/></g><g transform="translate(46.204 36.353)"><path d="M398.859,177.466l14.092-8.068a3.439,3.439,0,0,0,1.436-2.743v-5.04c0-1.057-.643-1.543-1.436-1.085L398.859,168.6a3.438,3.438,0,0,0-1.436,2.744v5.039C397.423,177.438,398.066,177.924,398.859,177.466Z" transform="translate(-397.423 -160.357)" fill="#12263f"/><path d="M413.719,160.381a1.407,1.407,0,0,1,.361,1.049v5.039a3.437,3.437,0,0,1-1.436,2.743l-14.092,8.069a1.037,1.037,0,0,1-.7.152.857.857,0,0,0,1.076.037l14.092-8.068a3.44,3.44,0,0,0,1.436-2.743v-5.04C414.457,160.9,414.158,160.456,413.719,160.381Z" transform="translate(-397.493 -160.361)" fill="#fff"/><g transform="translate(5.362 6.14)"><path d="M404.141,173.672l1.292-.747a.748.748,0,0,0,.313-.6v-1.381c0-.23-.14-.337-.313-.236l-1.292.746a.748.748,0,0,0-.313.6v1.38C403.828,173.666,403.968,173.772,404.141,173.672Z" transform="translate(-403.828 -168.177)" fill="#fff"/><path d="M409.3,170.69l1.293-.746a.75.75,0,0,0,.312-.6v-1.38c0-.23-.14-.337-.312-.237l-1.293.747a.75.75,0,0,0-.312.6v1.381C408.992,170.685,409.132,170.791,409.3,170.69Z" transform="translate(-404.669 -167.691)" fill="#fff"/></g></g><g transform="translate(46.204 72.769)"><path d="M398.859,220.968l14.092-8.068a3.439,3.439,0,0,0,1.436-2.744v-5.039c0-1.057-.643-1.543-1.436-1.085L398.859,212.1a3.437,3.437,0,0,0-1.436,2.743v5.04C397.423,220.94,398.066,221.426,398.859,220.968Z" transform="translate(-397.423 -203.859)" fill="#173d7a"/><path d="M413.719,203.883a1.407,1.407,0,0,1,.361,1.049v5.039a3.437,3.437,0,0,1-1.436,2.743l-14.092,8.069a1.037,1.037,0,0,1-.7.151.857.857,0,0,0,1.076.037l14.092-8.068a3.439,3.439,0,0,0,1.436-2.744V205.12C414.457,204.4,414.158,203.957,413.719,203.883Z" transform="translate(-397.493 -203.863)" fill="#fff"/><g transform="translate(5.362 6.14)"><path d="M404.141,217.174l1.292-.747a.748.748,0,0,0,.313-.6v-1.381c0-.23-.14-.337-.313-.237l-1.292.747a.748.748,0,0,0-.313.6v1.381C403.828,217.168,403.968,217.274,404.141,217.174Z" transform="translate(-403.828 -211.679)" fill="#396caa"/><path d="M409.3,214.192l1.293-.746a.75.75,0,0,0,.312-.6v-1.381c0-.23-.14-.337-.312-.237l-1.293.747a.75.75,0,0,0-.312.6v1.381C408.992,214.187,409.132,214.293,409.3,214.192Z" transform="translate(-404.669 -211.193)" fill="#fff"/></g></g><g transform="translate(46.204 90.977)"><path d="M398.859,242.719l14.092-8.068a3.439,3.439,0,0,0,1.436-2.744v-5.039c0-1.057-.643-1.543-1.436-1.085l-14.092,8.068a3.437,3.437,0,0,0-1.436,2.743v5.04C397.423,242.691,398.066,243.177,398.859,242.719Z" transform="translate(-397.423 -225.61)" fill="#12263f"/><path d="M413.719,225.634a1.407,1.407,0,0,1,.361,1.049v5.039a3.437,3.437,0,0,1-1.436,2.743l-14.092,8.069a1.037,1.037,0,0,1-.7.152.857.857,0,0,0,1.076.037l14.092-8.068a3.439,3.439,0,0,0,1.436-2.744v-5.039C414.457,226.154,414.158,225.709,413.719,225.634Z" transform="translate(-397.493 -225.614)" fill="#fff"/><g transform="translate(5.362 6.14)"><path d="M404.141,238.924l1.292-.746a.748.748,0,0,0,.313-.6V236.2c0-.23-.14-.336-.313-.237l-1.292.747a.748.748,0,0,0-.313.6v1.381C403.828,238.919,403.968,239.025,404.141,238.924Z" transform="translate(-403.828 -233.43)" fill="#fff"/><path d="M409.3,235.943l1.293-.746a.75.75,0,0,0,.312-.6v-1.381c0-.23-.14-.337-.312-.237l-1.293.747a.75.75,0,0,0-.312.6v1.381C408.992,235.938,409.132,236.044,409.3,235.943Z" transform="translate(-404.669 -232.944)" fill="#fff"/></g></g><g transform="translate(46.204 54.561)"><path d="M398.859,199.217l14.092-8.068a3.439,3.439,0,0,0,1.436-2.743v-5.04c0-1.057-.643-1.543-1.436-1.085l-14.092,8.068a3.438,3.438,0,0,0-1.436,2.744v5.039C397.423,199.189,398.066,199.675,398.859,199.217Z" transform="translate(-397.423 -182.108)" fill="#12263f"/><path d="M413.719,182.132a1.407,1.407,0,0,1,.361,1.049v5.039a3.437,3.437,0,0,1-1.436,2.743l-14.092,8.068a1.033,1.033,0,0,1-.7.152.857.857,0,0,0,1.076.037l14.092-8.068a3.439,3.439,0,0,0,1.436-2.743v-5.04C414.457,182.652,414.158,182.206,413.719,182.132Z" transform="translate(-397.493 -182.112)" fill="#fff"/><g transform="translate(5.362 6.14)"><path d="M404.141,195.423l1.292-.747a.748.748,0,0,0,.313-.6V192.7c0-.23-.14-.337-.313-.236l-1.292.746a.748.748,0,0,0-.313.6v1.381C403.828,195.417,403.968,195.523,404.141,195.423Z" transform="translate(-403.828 -189.928)" fill="#fff"/><path d="M409.3,192.441l1.293-.746a.75.75,0,0,0,.312-.6v-1.38c0-.23-.14-.337-.312-.237l-1.293.747a.75.75,0,0,0-.312.6v1.381C408.992,192.436,409.132,192.542,409.3,192.441Z" transform="translate(-404.669 -189.442)" fill="#fff"/></g></g><g transform="translate(1.605 19.662)"><path d="M377.975,169.06l-32.512-18.771a3.157,3.157,0,0,1-1.318-2.518v-6.2c0-.971.59-1.416,1.318-1l32.512,18.771a3.156,3.156,0,0,1,1.318,2.517v6.2C379.293,169.034,378.7,169.48,377.975,169.06Z" transform="translate(-344.146 -140.418)" fill="#21587b"/><path d="M377.35,167.324,346.7,149.631a1.6,1.6,0,0,1-.669-1.277v-4.66c0-.492.3-.718.669-.506l30.645,17.693a1.6,1.6,0,0,1,.669,1.277v4.66C378.019,167.311,377.719,167.537,377.35,167.324Z" transform="translate(-344.454 -140.856)" fill="#d4ecff" opacity="0.4"/><path d="M353.448,151.624l-4.573-2.64a1.554,1.554,0,0,1-.65-1.24h0c0-.478.291-.7.65-.491l4.573,2.64a1.557,1.557,0,0,1,.65,1.241h0C354.1,151.612,353.806,151.832,353.448,151.624Z" transform="translate(-344.81 -141.519)" fill="#d4ecff"/><path d="M358.828,153.871c0,.478-.336.672-.75.433a1.657,1.657,0,0,1-.749-1.3c0-.478.336-.671.749-.433A1.657,1.657,0,0,1,358.828,153.871Z" transform="translate(-346.293 -142.381)" fill="#137476"/><path d="M361.987,155.7c0,.478-.336.672-.75.433a1.657,1.657,0,0,1-.749-1.3c0-.478.336-.671.749-.433A1.657,1.657,0,0,1,361.987,155.7Z" transform="translate(-346.808 -142.678)" fill="#137476"/><path d="M365.146,157.519c0,.478-.336.672-.75.433a1.659,1.659,0,0,1-.749-1.3c0-.478.336-.671.749-.433A1.657,1.657,0,0,1,365.146,157.519Z" transform="translate(-347.322 -142.975)" fill="#d4ecff"/><path d="M368.3,159.343c0,.478-.335.671-.749.433a1.658,1.658,0,0,1-.749-1.3c0-.478.336-.672.749-.433A1.655,1.655,0,0,1,368.3,159.343Z" transform="translate(-347.837 -143.272)" fill="#137476"/><path d="M381.522,168.22l-1.54-.89a1,1,0,0,1-.416-.8V164.9c0-.306.186-.448.416-.315l1.54.89a1,1,0,0,1,.417.8v1.63C381.939,168.211,381.753,168.352,381.522,168.22Z" transform="translate(-349.915 -144.347)" fill="#137476"/></g><g transform="translate(1.605 30.594)"><path d="M377.975,182.119l-32.512-18.771a3.156,3.156,0,0,1-1.318-2.517v-6.2c0-.97.59-1.416,1.318-1l32.512,18.771a3.156,3.156,0,0,1,1.318,2.517v6.2C379.293,182.093,378.7,182.539,377.975,182.119Z" transform="translate(-344.146 -153.477)" fill="#21587b"/><path d="M377.35,180.383,346.7,162.691a1.6,1.6,0,0,1-.669-1.277v-4.661c0-.492.3-.718.669-.5L377.35,173.94a1.6,1.6,0,0,1,.669,1.277v4.661C378.019,180.37,377.719,180.6,377.35,180.383Z" transform="translate(-344.454 -153.915)" fill="#d4ecff" opacity="0.4"/><path d="M353.448,164.684l-4.573-2.641a1.554,1.554,0,0,1-.65-1.24h0c0-.478.291-.7.65-.491l4.573,2.64a1.554,1.554,0,0,1,.65,1.24h0C354.1,164.671,353.806,164.891,353.448,164.684Z" transform="translate(-344.81 -154.578)" fill="#d4ecff"/><path d="M358.828,166.931c0,.478-.336.671-.75.433a1.658,1.658,0,0,1-.749-1.3c0-.478.336-.672.749-.433A1.656,1.656,0,0,1,358.828,166.931Z" transform="translate(-346.293 -155.44)" fill="#fff"/><path d="M361.987,168.755c0,.478-.336.671-.75.432a1.656,1.656,0,0,1-.749-1.3c0-.479.336-.672.749-.433A1.656,1.656,0,0,1,361.987,168.755Z" transform="translate(-346.808 -155.738)" fill="#137476"/><path d="M365.146,170.578c0,.478-.336.672-.75.433a1.657,1.657,0,0,1-.749-1.3c0-.478.336-.671.749-.433A1.657,1.657,0,0,1,365.146,170.578Z" transform="translate(-347.322 -156.035)" fill="#d4ecff"/><path d="M368.3,172.4c0,.478-.335.672-.749.433a1.657,1.657,0,0,1-.749-1.3c0-.478.336-.671.749-.433A1.656,1.656,0,0,1,368.3,172.4Z" transform="translate(-347.837 -156.332)" fill="#137476"/><path d="M381.522,181.279l-1.54-.89a1,1,0,0,1-.416-.8v-1.63c0-.307.186-.448.416-.316l1.54.89a1,1,0,0,1,.417.8v1.63C381.939,181.271,381.753,181.412,381.522,181.279Z" transform="translate(-349.915 -157.406)" fill="#137476"/></g><g transform="translate(1.605 41.526)"><path d="M377.975,195.178l-32.512-18.771a3.156,3.156,0,0,1-1.318-2.517v-6.2c0-.97.59-1.416,1.318-1l32.512,18.771a3.157,3.157,0,0,1,1.318,2.518v6.2C379.293,195.153,378.7,195.6,377.975,195.178Z" transform="translate(-344.146 -166.536)" fill="#21587b"/><path d="M377.35,193.443,346.7,175.75a1.6,1.6,0,0,1-.669-1.277v-4.66c0-.492.3-.719.669-.506L377.35,187a1.6,1.6,0,0,1,.669,1.277v4.661C378.019,193.429,377.719,193.655,377.35,193.443Z" transform="translate(-344.454 -166.974)" fill="#d4ecff" opacity="0.4"/><path d="M353.448,177.743l-4.573-2.64a1.556,1.556,0,0,1-.65-1.241h0c0-.478.291-.7.65-.491l4.573,2.64a1.556,1.556,0,0,1,.65,1.241h0C354.1,177.731,353.806,177.95,353.448,177.743Z" transform="translate(-344.81 -167.637)" fill="#d4ecff"/><path d="M358.828,179.99c0,.478-.336.671-.75.433a1.658,1.658,0,0,1-.749-1.3c0-.478.336-.671.749-.433A1.657,1.657,0,0,1,358.828,179.99Z" transform="translate(-346.293 -168.499)" fill="#fff"/><path d="M361.987,181.814c0,.478-.336.671-.75.433a1.659,1.659,0,0,1-.749-1.3c0-.478.336-.672.749-.433A1.656,1.656,0,0,1,361.987,181.814Z" transform="translate(-346.808 -168.797)" fill="#137476"/><path d="M365.146,183.638c0,.478-.336.671-.75.433a1.659,1.659,0,0,1-.749-1.3c0-.478.336-.672.749-.433A1.656,1.656,0,0,1,365.146,183.638Z" transform="translate(-347.322 -169.094)" fill="#d4ecff"/><path d="M368.3,185.462c0,.478-.335.672-.749.433a1.657,1.657,0,0,1-.749-1.3c0-.478.336-.671.749-.432A1.653,1.653,0,0,1,368.3,185.462Z" transform="translate(-347.837 -169.391)" fill="#137476"/><path d="M381.522,194.338l-1.54-.889a1,1,0,0,1-.416-.8v-1.63c0-.307.186-.448.416-.315l1.54.889a1,1,0,0,1,.417.8v1.63C381.939,194.33,381.753,194.471,381.522,194.338Z" transform="translate(-349.915 -170.465)" fill="#137476"/></g><g transform="translate(1.605 52.458)"><path d="M377.975,208.238l-32.512-18.771a3.155,3.155,0,0,1-1.318-2.517v-6.2c0-.971.59-1.416,1.318-1l32.512,18.771a3.156,3.156,0,0,1,1.318,2.517v6.2C379.293,208.212,378.7,208.658,377.975,208.238Z" transform="translate(-344.146 -179.596)" fill="#5793ce"/><path d="M377.35,206.5,346.7,188.809a1.6,1.6,0,0,1-.669-1.277v-4.66c0-.492.3-.718.669-.506l30.645,17.693a1.6,1.6,0,0,1,.669,1.277V206C378.019,206.489,377.719,206.715,377.35,206.5Z" transform="translate(-344.454 -180.034)" fill="#d4ecff" opacity="0.4"/><path d="M353.448,190.8l-4.573-2.64a1.555,1.555,0,0,1-.65-1.241h0c0-.478.291-.7.65-.491l4.573,2.641a1.554,1.554,0,0,1,.65,1.24h0C354.1,190.79,353.806,191.01,353.448,190.8Z" transform="translate(-344.81 -180.697)" fill="#d4ecff"/><path d="M358.828,193.049c0,.478-.336.672-.75.433a1.657,1.657,0,0,1-.749-1.3c0-.478.336-.671.749-.433A1.657,1.657,0,0,1,358.828,193.049Z" transform="translate(-346.293 -181.559)" fill="#173d7a"/><path d="M361.987,194.873c0,.478-.336.672-.75.433a1.657,1.657,0,0,1-.749-1.3c0-.478.336-.671.749-.433A1.657,1.657,0,0,1,361.987,194.873Z" transform="translate(-346.808 -181.856)" fill="#173d7a"/><path d="M365.146,196.7c0,.478-.336.671-.75.433a1.659,1.659,0,0,1-.749-1.3c0-.478.336-.672.749-.433A1.657,1.657,0,0,1,365.146,196.7Z" transform="translate(-347.322 -182.153)" fill="#d4ecff"/><path d="M368.3,198.521c0,.478-.335.671-.749.433a1.658,1.658,0,0,1-.749-1.3c0-.478.336-.672.749-.433A1.655,1.655,0,0,1,368.3,198.521Z" transform="translate(-347.837 -182.45)" fill="#173d7a"/><path d="M381.522,207.4l-1.54-.89a1,1,0,0,1-.416-.8v-1.63c0-.306.186-.448.416-.315l1.54.89a1,1,0,0,1,.417.8v1.63C381.939,207.389,381.753,207.53,381.522,207.4Z" transform="translate(-349.915 -183.525)" fill="#d4ecff"/></g><g transform="translate(1.605 63.39)"><path d="M377.975,221.3l-32.512-18.771a3.156,3.156,0,0,1-1.318-2.517v-6.2c0-.97.59-1.416,1.318-1l32.512,18.771a3.156,3.156,0,0,1,1.318,2.517v6.2C379.293,221.271,378.7,221.717,377.975,221.3Z" transform="translate(-344.146 -192.655)" fill="#5793ce"/><path d="M377.35,219.561,346.7,201.869a1.6,1.6,0,0,1-.669-1.277V195.93c0-.492.3-.718.669-.5l30.645,17.692a1.6,1.6,0,0,1,.669,1.277v4.661C378.019,219.548,377.719,219.774,377.35,219.561Z" transform="translate(-344.454 -193.093)" fill="#d4ecff" opacity="0.4"/><path d="M353.448,203.862l-4.573-2.641a1.554,1.554,0,0,1-.65-1.24h0c0-.478.291-.7.65-.491l4.573,2.64a1.554,1.554,0,0,1,.65,1.24h0C354.1,203.85,353.806,204.069,353.448,203.862Z" transform="translate(-344.81 -193.756)" fill="#d4ecff"/><path d="M358.828,206.109c0,.478-.336.671-.75.433a1.658,1.658,0,0,1-.749-1.3c0-.478.336-.672.749-.433A1.656,1.656,0,0,1,358.828,206.109Z" transform="translate(-346.293 -194.618)" fill="#173d7a"/><path d="M361.987,207.933c0,.477-.336.671-.75.432a1.656,1.656,0,0,1-.749-1.3c0-.478.336-.672.749-.433A1.654,1.654,0,0,1,361.987,207.933Z" transform="translate(-346.808 -194.916)" fill="#fff"/><path d="M365.146,209.757c0,.478-.336.672-.75.433a1.657,1.657,0,0,1-.749-1.3c0-.478.336-.671.749-.433A1.657,1.657,0,0,1,365.146,209.757Z" transform="translate(-347.322 -195.213)" fill="#d4ecff"/><path d="M368.3,211.58c0,.478-.335.672-.749.433a1.657,1.657,0,0,1-.749-1.3c0-.478.336-.671.749-.433A1.656,1.656,0,0,1,368.3,211.58Z" transform="translate(-347.837 -195.51)" fill="#fff"/><path d="M381.522,220.457l-1.54-.89a1,1,0,0,1-.416-.8v-1.63c0-.307.186-.448.416-.316l1.54.89a1,1,0,0,1,.417.8v1.63C381.939,220.449,381.753,220.59,381.522,220.457Z" transform="translate(-349.915 -196.584)" fill="#d4ecff"/></g><g transform="translate(1.605 74.322)"><path d="M377.975,234.356l-32.512-18.771a3.156,3.156,0,0,1-1.318-2.517v-6.2c0-.97.59-1.416,1.318-1l32.512,18.771a3.157,3.157,0,0,1,1.318,2.518v6.2C379.293,234.33,378.7,234.776,377.975,234.356Z" transform="translate(-344.146 -205.714)" fill="#5793ce"/><path d="M377.35,232.621,346.7,214.928a1.6,1.6,0,0,1-.669-1.277v-4.66c0-.492.3-.719.669-.506l30.645,17.693a1.6,1.6,0,0,1,.669,1.277v4.661C378.019,232.607,377.719,232.833,377.35,232.621Z" transform="translate(-344.454 -206.152)" fill="#d4ecff" opacity="0.4"/><path d="M353.448,216.921l-4.573-2.64a1.557,1.557,0,0,1-.65-1.241h0c0-.478.291-.7.65-.491l4.573,2.64a1.556,1.556,0,0,1,.65,1.241h0C354.1,216.909,353.806,217.128,353.448,216.921Z" transform="translate(-344.81 -206.815)" fill="#d4ecff"/><path d="M358.828,219.169c0,.478-.336.672-.75.433a1.658,1.658,0,0,1-.749-1.3c0-.478.336-.671.749-.433A1.657,1.657,0,0,1,358.828,219.169Z" transform="translate(-346.293 -207.678)" fill="#173d7a"/><path d="M361.987,220.992c0,.478-.336.671-.75.433a1.658,1.658,0,0,1-.749-1.3c0-.478.336-.672.749-.433A1.656,1.656,0,0,1,361.987,220.992Z" transform="translate(-346.808 -207.975)" fill="#173d7a"/><path d="M365.146,222.816c0,.478-.336.671-.75.432a1.656,1.656,0,0,1-.749-1.3c0-.478.336-.672.749-.433A1.654,1.654,0,0,1,365.146,222.816Z" transform="translate(-347.322 -208.272)" fill="#d4ecff"/><path d="M368.3,224.639c0,.478-.335.672-.749.433a1.657,1.657,0,0,1-.749-1.3c0-.478.336-.671.749-.433A1.656,1.656,0,0,1,368.3,224.639Z" transform="translate(-347.837 -208.569)" fill="#173d7a"/><path d="M381.522,233.516l-1.54-.889a1,1,0,0,1-.416-.8V230.2c0-.307.186-.448.416-.315l1.54.889a1,1,0,0,1,.417.8v1.63C381.939,233.508,381.753,233.649,381.522,233.516Z" transform="translate(-349.915 -209.643)" fill="#173d7a"/></g><g transform="translate(1.605 85.255)"><path d="M377.975,247.416l-32.512-18.771a3.157,3.157,0,0,1-1.318-2.518v-6.2c0-.97.59-1.416,1.318-1L377.975,237.7a3.156,3.156,0,0,1,1.318,2.517v6.2C379.293,247.39,378.7,247.835,377.975,247.416Z" transform="translate(-344.146 -218.774)" fill="#5793ce"/><path d="M377.35,245.68,346.7,227.987a1.6,1.6,0,0,1-.669-1.277v-4.66c0-.492.3-.718.669-.506l30.645,17.693a1.6,1.6,0,0,1,.669,1.277v4.66C378.019,245.667,377.719,245.893,377.35,245.68Z" transform="translate(-344.454 -219.212)" fill="#d4ecff" opacity="0.4"/><path d="M353.448,229.98l-4.573-2.64a1.556,1.556,0,0,1-.65-1.241h0c0-.478.291-.7.65-.491l4.573,2.64a1.557,1.557,0,0,1,.65,1.241h0C354.1,229.968,353.806,230.187,353.448,229.98Z" transform="translate(-344.81 -219.875)" fill="#d4ecff"/><path d="M359.567,232.692c0,.9-.634,1.269-1.416.818a3.132,3.132,0,0,1-1.416-2.453c0-.9.635-1.269,1.416-.817A3.129,3.129,0,0,1,359.567,232.692Z" transform="translate(-346.197 -220.61)" fill="#fff"/><path d="M366.369,236.763c0,.478-.336.671-.749.433a1.657,1.657,0,0,1-.75-1.3c0-.478.336-.672.75-.433A1.657,1.657,0,0,1,366.369,236.763Z" transform="translate(-347.522 -221.476)" fill="#173d7a"/><path d="M369.528,238.587c0,.478-.336.671-.749.432a1.654,1.654,0,0,1-.75-1.3c0-.478.336-.671.75-.432A1.656,1.656,0,0,1,369.528,238.587Z" transform="translate(-348.036 -221.773)" fill="#d4ecff"/><path d="M372.687,240.411c0,.478-.336.672-.75.433a1.657,1.657,0,0,1-.749-1.3c0-.478.336-.671.749-.433A1.657,1.657,0,0,1,372.687,240.411Z" transform="translate(-348.551 -222.07)" fill="#173d7a"/><path d="M381.522,246.575l-1.54-.889a1,1,0,0,1-.416-.8v-1.63c0-.306.186-.448.416-.315l1.54.889a1,1,0,0,1,.417.8v1.63C381.939,246.567,381.753,246.708,381.522,246.575Z" transform="translate(-349.915 -222.703)" fill="#d4ecff"/></g></g><g transform="translate(145.809 30.768)"><g transform="translate(4.79)"><path d="M425.229,134.863l-1.4-.809v-2.016a7.514,7.514,0,0,0-3.4-5.881l-10.624-6.1c-1.873-1.081-3.4-.2-3.4,1.961v21.736l-1.4-20.529v-2.016c0-3.055,2.152-4.3,4.8-2.77l10.624,6.1a10.618,10.618,0,0,1,4.8,8.309Z" transform="translate(-405.01 -117.789)" fill="url(#a)"/></g><path d="M419.782,137.686l4.79-2.759-.969-3.36-1.341-3.377s-2.3-2.572-2.48-2.623-6.451-3.618-6.451-3.618l-5.23-3.767-2.491.086-4.63,2.659,3.326,1.38s1.885.936,2.315,1.05a16.706,16.706,0,0,1,2.327,1.9c.039.025,2.278.924,2.278.924l.485-.079,4.074,2.86,1.315.582.709,1.138,1.087,3.036Z" transform="translate(-399.564 -117.853)" fill="url(#a)"/><path d="M405.693,144.511l-4.79,2.758s-.31-22.805-.31-22.844,1.048-1.5,1.048-1.5l2.6-.506,2.058,1.563-.648-.267-.276.162.318.506Z" transform="translate(-399.501 -118.542)" fill="#137476"/><g transform="translate(0 2.759)"><path d="M419.507,138.159l-1.4-.809v-2.017a7.513,7.513,0,0,0-3.4-5.88l-10.624-6.1c-1.873-1.081-3.4-.2-3.4,1.961v21.735l-1.4-.809V124.507c0-3.054,2.152-4.3,4.8-2.769l10.624,6.1a10.618,10.618,0,0,1,4.8,8.309Z" transform="translate(-399.288 -121.084)" fill="#12263f"/></g></g><g transform="translate(150.358 40.33)"><path d="M443.346,291.078l-24.327-13.871c-.89-.514-.779-1.411.249-2l14-8.081a3.857,3.857,0,0,1,3.471-.144l24.327,13.872c.89.513.779,1.41-.249,2l-14,8.081A3.855,3.855,0,0,1,443.346,291.078Z" transform="translate(-406.952 -151.596)" fill="#efefef"/><path d="M470.894,235.508h0V154.494l-32.207-8.43-5.933-3.425a5.9,5.9,0,0,0-5.311.22l-5.535,3.2-17.178-.01,5.087,78.208a1.539,1.539,0,0,0,.912,1.423l32.14,24.252a5.906,5.906,0,0,0,5.312-.22L469.6,237.341A2.1,2.1,0,0,0,470.894,235.508Z" transform="translate(-404.723 -131.313)" fill="url(#a)"/><path d="M430.289,142.113a6.131,6.131,0,0,0-2.847.747l-5.535,3.2-17.178-.01v81.233a1.541,1.541,0,0,0,.912,1.423l37.227,21.227a4.809,4.809,0,0,0,2.465.527l.384-81.74Z" transform="translate(-404.722 -131.314)" fill="url(#a)"/><path d="M450.7,255.085a6.053,6.053,0,0,0,4.246-.049v-82.3H450.7Z" transform="translate(-412.211 -136.302)" fill="#12263f"/><path d="M442.867,166.623,405.64,145.4c-1.361-.786-1.19-2.159.382-3.066l21.419-12.367a5.9,5.9,0,0,1,5.311-.22l37.228,21.228c1.361.786,1.19,2.159-.382,3.066L448.18,166.4A5.906,5.906,0,0,1,442.867,166.623Z" transform="translate(-404.721 -129.212)" fill="url(#a)"/><path d="M469.6,155.269,448.18,167.636a5.906,5.906,0,0,1-5.312.22L405.64,146.629a2.041,2.041,0,0,1-.679-.6,1.426,1.426,0,0,0,.679,2.109l37.227,21.228a5.906,5.906,0,0,0,5.312-.22L469.6,156.775c1.221-.7,1.593-1.69,1.061-2.464A2.968,2.968,0,0,1,469.6,155.269Z" transform="translate(-404.721 -131.951)" fill="#fafdff"/><g transform="translate(13.984 6.867)"><path d="M446.642,159.357l-24.785-14.367c-.637-.367-.557-1.01.179-1.435l10.023-5.787a2.761,2.761,0,0,1,2.486-.1l24.784,14.367c.638.367.557,1.01-.178,1.435l-10.023,5.787A2.766,2.766,0,0,1,446.642,159.357Z" transform="translate(-421.427 -137.416)" fill="#12263f"/><g transform="translate(10.339 6.342)"><path d="M435.273,146.869l-1.437-.83c-.088-.05-.077-.14.025-.2l1.386-.8a.383.383,0,0,1,.344-.014l1.436.829c.088.051.077.14-.025.2l-1.386.8A.383.383,0,0,1,435.273,146.869Z" transform="translate(-433.777 -144.992)" fill="#d4ecff"/><path d="M441,150.165l-1.436-.83c-.088-.051-.077-.14.025-.2l1.386-.8a.38.38,0,0,1,.344-.014l1.436.829c.088.051.077.14-.025.2l-1.386.8A.382.382,0,0,1,441,150.165Z" transform="translate(-434.711 -145.529)" fill="#d4ecff"/><path d="M446.737,153.46l-1.437-.829c-.088-.051-.077-.14.024-.2l1.387-.8a.385.385,0,0,1,.344-.014l1.436.83c.089.051.078.14-.024.2l-1.387.8A.381.381,0,0,1,446.737,153.46Z" transform="translate(-435.644 -146.066)" fill="#d4ecff"/><path d="M452.468,156.756l-1.436-.829c-.089-.051-.077-.14.024-.2l1.387-.8a.382.382,0,0,1,.344-.014l1.436.83c.089.05.077.14-.024.2l-1.387.8A.38.38,0,0,1,452.468,156.756Z" transform="translate(-436.578 -146.602)" fill="#d4ecff"/></g><path d="M421.856,144.989l.029.017c.049-.034.094-.069.15-.1l10.023-5.787a2.761,2.761,0,0,1,2.486-.1l24.755,14.35c.588-.42.619-.992.029-1.332l-24.784-14.367a2.761,2.761,0,0,0-2.486.1l-10.023,5.787C421.3,143.979,421.219,144.622,421.856,144.989Z" transform="translate(-421.427 -137.416)" fill="#137476"/></g><g transform="translate(46.204 36.353)"><path d="M461.352,189.748l14.092-8.068a3.439,3.439,0,0,0,1.436-2.743V173.9c0-1.057-.643-1.543-1.436-1.085l-14.092,8.068a3.437,3.437,0,0,0-1.437,2.743v5.039C459.916,189.72,460.559,190.206,461.352,189.748Z" transform="translate(-459.916 -172.639)" fill="#12263f"/><path d="M476.212,172.663a1.407,1.407,0,0,1,.361,1.049v5.039a3.437,3.437,0,0,1-1.437,2.743l-14.092,8.068a1.033,1.033,0,0,1-.7.152.857.857,0,0,0,1.076.037l14.092-8.068a3.439,3.439,0,0,0,1.436-2.743V173.9C476.95,173.183,476.651,172.738,476.212,172.663Z" transform="translate(-459.986 -172.643)" fill="#fff"/><g transform="translate(5.362 6.14)"><path d="M466.634,185.954l1.293-.747a.748.748,0,0,0,.313-.6v-1.381c0-.23-.14-.337-.313-.237l-1.293.747a.748.748,0,0,0-.313.6v1.381C466.321,185.948,466.461,186.054,466.634,185.954Z" transform="translate(-466.321 -180.459)" fill="#137476"/><path d="M471.8,182.972l1.293-.746a.75.75,0,0,0,.312-.6v-1.38c0-.23-.14-.337-.312-.237l-1.293.747a.75.75,0,0,0-.313.6v1.381C471.484,182.967,471.625,183.073,471.8,182.972Z" transform="translate(-467.162 -179.973)" fill="#fff"/></g></g><g transform="translate(46.204 72.769)"><path d="M461.352,233.25l14.092-8.068a3.439,3.439,0,0,0,1.436-2.744V217.4c0-1.057-.643-1.543-1.436-1.085l-14.092,8.068a3.437,3.437,0,0,0-1.437,2.743v5.04C459.916,233.222,460.559,233.708,461.352,233.25Z" transform="translate(-459.916 -216.141)" fill="#12263f"/><path d="M476.212,216.165a1.407,1.407,0,0,1,.361,1.049v5.039A3.437,3.437,0,0,1,475.136,225l-14.092,8.069a1.037,1.037,0,0,1-.7.151.857.857,0,0,0,1.076.037l14.092-8.068a3.439,3.439,0,0,0,1.436-2.744V217.4C476.95,216.685,476.651,216.24,476.212,216.165Z" transform="translate(-459.986 -216.145)" fill="#fff"/><g transform="translate(5.362 6.14)"><path d="M466.634,229.455l1.293-.746a.748.748,0,0,0,.313-.6v-1.381c0-.23-.14-.337-.313-.236l-1.293.746a.748.748,0,0,0-.313.6v1.381C466.321,229.45,466.461,229.556,466.634,229.455Z" transform="translate(-466.321 -223.961)" fill="#137476"/><path d="M471.8,226.474l1.293-.746a.75.75,0,0,0,.312-.6v-1.38c0-.23-.14-.337-.312-.237l-1.293.747a.75.75,0,0,0-.313.6v1.381C471.484,226.469,471.625,226.575,471.8,226.474Z" transform="translate(-467.162 -223.475)" fill="#fff"/></g></g><g transform="translate(46.204 90.977)"><path d="M461.352,255l14.092-8.068a3.441,3.441,0,0,0,1.436-2.744v-5.039c0-1.057-.643-1.543-1.436-1.085l-14.092,8.068a3.437,3.437,0,0,0-1.437,2.743v5.04C459.916,254.973,460.559,255.459,461.352,255Z" transform="translate(-459.916 -237.892)" fill="#12263f"/><path d="M476.212,237.916a1.407,1.407,0,0,1,.361,1.049V244a3.437,3.437,0,0,1-1.437,2.743l-14.092,8.068a1.033,1.033,0,0,1-.7.152.857.857,0,0,0,1.076.037l14.092-8.068a3.441,3.441,0,0,0,1.436-2.744v-5.039C476.95,238.436,476.651,237.991,476.212,237.916Z" transform="translate(-459.986 -237.896)" fill="#fff"/><g transform="translate(5.362 6.14)"><path d="M466.634,251.207l1.293-.746a.748.748,0,0,0,.313-.6v-1.381c0-.23-.14-.337-.313-.236l-1.293.746a.748.748,0,0,0-.313.6v1.381C466.321,251.2,466.461,251.307,466.634,251.207Z" transform="translate(-466.321 -245.712)" fill="#137476"/><path d="M471.8,248.225l1.293-.746a.75.75,0,0,0,.312-.6V245.5c0-.23-.14-.336-.312-.237l-1.293.747a.75.75,0,0,0-.313.6v1.381C471.484,248.22,471.625,248.326,471.8,248.225Z" transform="translate(-467.162 -245.226)" fill="#fff"/><path d="M470.651,259.329l1.293-.746a.75.75,0,0,0,.312-.6V256.6c0-.23-.14-.336-.312-.236l-1.293.746a.75.75,0,0,0-.313.6v1.381C470.338,259.324,470.479,259.43,470.651,259.329Z" transform="translate(-466.975 -247.035)" fill="#fff"/></g></g><g transform="translate(46.204 54.561)"><path d="M461.352,211.5l14.092-8.068a3.439,3.439,0,0,0,1.436-2.743v-5.04c0-1.057-.643-1.543-1.436-1.085l-14.092,8.068a3.437,3.437,0,0,0-1.437,2.743v5.04C459.916,211.471,460.559,211.957,461.352,211.5Z" transform="translate(-459.916 -194.39)" fill="#12263f"/><path d="M476.212,194.414a1.407,1.407,0,0,1,.361,1.049V200.5a3.437,3.437,0,0,1-1.437,2.743l-14.092,8.069a1.037,1.037,0,0,1-.7.151.857.857,0,0,0,1.076.037l14.092-8.068a3.439,3.439,0,0,0,1.436-2.743v-5.04C476.95,194.934,476.651,194.489,476.212,194.414Z" transform="translate(-459.986 -194.394)" fill="#fff"/><g transform="translate(5.362 6.14)"><path d="M466.634,207.7l1.293-.746a.748.748,0,0,0,.313-.6V204.98c0-.23-.14-.337-.313-.236l-1.293.746a.748.748,0,0,0-.313.6v1.381C466.321,207.7,466.461,207.8,466.634,207.7Z" transform="translate(-466.321 -202.21)" fill="#137476"/><path d="M471.8,204.723l1.293-.746a.75.75,0,0,0,.312-.6V202c0-.23-.14-.337-.312-.237l-1.293.747a.75.75,0,0,0-.313.6v1.381C471.484,204.718,471.625,204.824,471.8,204.723Z" transform="translate(-467.162 -201.724)" fill="#fff"/></g></g><g transform="translate(1.605 19.662)"><path d="M440.468,181.342l-32.512-18.771a3.157,3.157,0,0,1-1.318-2.518v-6.2c0-.971.59-1.416,1.318-1l32.512,18.771a3.156,3.156,0,0,1,1.318,2.517v6.2C441.786,181.316,441.2,181.762,440.468,181.342Z" transform="translate(-406.639 -152.7)" fill="#21587b"/><path d="M439.843,179.606,409.2,161.913a1.6,1.6,0,0,1-.669-1.277v-4.661c0-.492.3-.718.669-.506l30.645,17.693a1.6,1.6,0,0,1,.669,1.277v4.66C440.512,179.593,440.212,179.819,439.843,179.606Z" transform="translate(-406.947 -153.138)" fill="#d4ecff" opacity="0.4"/><path d="M415.941,163.906l-4.573-2.64a1.552,1.552,0,0,1-.65-1.24h0c0-.479.29-.7.65-.491l4.573,2.64a1.557,1.557,0,0,1,.65,1.241h0C416.59,163.894,416.3,164.114,415.941,163.906Z" transform="translate(-407.303 -153.801)" fill="#d4ecff"/><path d="M421.321,166.154c0,.478-.336.672-.75.433a1.657,1.657,0,0,1-.749-1.3c0-.478.336-.671.749-.432A1.654,1.654,0,0,1,421.321,166.154Z" transform="translate(-408.786 -154.663)" fill="#137476"/><path d="M424.48,167.977c0,.478-.336.672-.75.433a1.657,1.657,0,0,1-.749-1.3c0-.478.336-.671.749-.433A1.657,1.657,0,0,1,424.48,167.977Z" transform="translate(-409.301 -154.96)" fill="#137476"/><path d="M427.639,169.8c0,.478-.336.671-.75.433a1.658,1.658,0,0,1-.749-1.3c0-.478.336-.671.749-.433A1.657,1.657,0,0,1,427.639,169.8Z" transform="translate(-409.815 -155.257)" fill="#d4ecff"/><path d="M430.8,171.625c0,.478-.335.671-.749.433a1.656,1.656,0,0,1-.749-1.3c0-.478.335-.672.749-.433A1.655,1.655,0,0,1,430.8,171.625Z" transform="translate(-410.33 -155.554)" fill="#137476"/><path d="M444.015,180.5l-1.54-.89a1,1,0,0,1-.417-.8v-1.63c0-.306.187-.448.417-.315l1.54.89a1,1,0,0,1,.417.8v1.63C444.432,180.493,444.245,180.634,444.015,180.5Z" transform="translate(-412.408 -156.629)" fill="#137476"/></g><g transform="translate(1.605 30.594)"><path d="M440.468,194.4,407.957,175.63a3.156,3.156,0,0,1-1.318-2.518v-6.2c0-.97.59-1.416,1.318-1l32.512,18.771a3.156,3.156,0,0,1,1.318,2.517v6.2C441.786,194.375,441.2,194.821,440.468,194.4Z" transform="translate(-406.639 -165.759)" fill="#21587b"/><path d="M439.843,192.665,409.2,174.973a1.6,1.6,0,0,1-.669-1.277v-4.661c0-.492.3-.718.669-.5l30.645,17.692a1.6,1.6,0,0,1,.669,1.277v4.661C440.512,192.652,440.212,192.878,439.843,192.665Z" transform="translate(-406.947 -166.197)" fill="#d4ecff" opacity="0.4"/><path d="M415.941,176.966l-4.573-2.641a1.552,1.552,0,0,1-.65-1.24h0c0-.478.29-.7.65-.491l4.573,2.64a1.555,1.555,0,0,1,.65,1.241h0C416.59,176.953,416.3,177.173,415.941,176.966Z" transform="translate(-407.303 -166.86)" fill="#d4ecff"/><path d="M421.321,179.213c0,.478-.336.671-.75.433a1.659,1.659,0,0,1-.749-1.3c0-.478.336-.672.749-.433A1.656,1.656,0,0,1,421.321,179.213Z" transform="translate(-408.786 -167.722)" fill="#fff"/><path d="M424.48,181.037c0,.478-.336.671-.75.432a1.656,1.656,0,0,1-.749-1.3c0-.478.336-.671.749-.432A1.656,1.656,0,0,1,424.48,181.037Z" transform="translate(-409.301 -168.02)" fill="#137476"/><path d="M427.639,182.86c0,.478-.336.672-.75.433a1.657,1.657,0,0,1-.749-1.3c0-.478.336-.671.749-.433A1.657,1.657,0,0,1,427.639,182.86Z" transform="translate(-409.815 -168.317)" fill="#d4ecff"/><path d="M430.8,184.684c0,.478-.335.672-.749.433a1.655,1.655,0,0,1-.749-1.3c0-.478.335-.671.749-.433A1.656,1.656,0,0,1,430.8,184.684Z" transform="translate(-410.33 -168.614)" fill="#137476"/><path d="M444.015,193.561l-1.54-.89a1,1,0,0,1-.417-.8v-1.63c0-.307.187-.448.417-.316l1.54.89a1,1,0,0,1,.417.8v1.63C444.432,193.553,444.245,193.694,444.015,193.561Z" transform="translate(-412.408 -169.688)" fill="#137476"/></g><g transform="translate(1.605 41.526)"><path d="M440.468,207.46l-32.512-18.771a3.156,3.156,0,0,1-1.318-2.517v-6.2c0-.97.59-1.416,1.318-1l32.512,18.771a3.157,3.157,0,0,1,1.318,2.518v6.2C441.786,207.435,441.2,207.88,440.468,207.46Z" transform="translate(-406.639 -178.818)" fill="#21587b"/><path d="M439.843,205.725,409.2,188.032a1.6,1.6,0,0,1-.669-1.277v-4.66c0-.492.3-.719.669-.506l30.645,17.693a1.6,1.6,0,0,1,.669,1.277v4.661C440.512,205.711,440.212,205.937,439.843,205.725Z" transform="translate(-406.947 -179.256)" fill="#d4ecff" opacity="0.4"/><path d="M415.941,190.025l-4.573-2.64a1.555,1.555,0,0,1-.65-1.241h0c0-.478.29-.7.65-.491l4.573,2.64a1.556,1.556,0,0,1,.65,1.241h0C416.59,190.013,416.3,190.232,415.941,190.025Z" transform="translate(-407.303 -179.919)" fill="#d4ecff"/><path d="M421.321,192.272c0,.478-.336.671-.75.433a1.658,1.658,0,0,1-.749-1.3c0-.478.336-.671.749-.433A1.657,1.657,0,0,1,421.321,192.272Z" transform="translate(-408.786 -180.782)" fill="#fff"/><path d="M424.48,194.1c0,.478-.336.671-.75.433a1.658,1.658,0,0,1-.749-1.3c0-.478.336-.672.749-.433A1.656,1.656,0,0,1,424.48,194.1Z" transform="translate(-409.301 -181.079)" fill="#137476"/><path d="M427.639,195.92c0,.478-.336.671-.75.432a1.656,1.656,0,0,1-.749-1.3c0-.478.336-.672.749-.433A1.656,1.656,0,0,1,427.639,195.92Z" transform="translate(-409.815 -181.376)" fill="#d4ecff"/><path d="M430.8,197.744c0,.478-.335.672-.749.433a1.654,1.654,0,0,1-.749-1.3c0-.478.335-.671.749-.432A1.653,1.653,0,0,1,430.8,197.744Z" transform="translate(-410.33 -181.673)" fill="#137476"/><path d="M444.015,206.62l-1.54-.889a1,1,0,0,1-.417-.8V203.3c0-.307.187-.448.417-.315l1.54.889a1,1,0,0,1,.417.8v1.63C444.432,206.612,444.245,206.753,444.015,206.62Z" transform="translate(-412.408 -182.747)" fill="#137476"/></g><g transform="translate(1.605 52.458)"><path d="M440.468,220.52l-32.512-18.771a3.154,3.154,0,0,1-1.318-2.517v-6.2c0-.97.59-1.416,1.318-1l32.512,18.771a3.156,3.156,0,0,1,1.318,2.517v6.2C441.786,220.494,441.2,220.939,440.468,220.52Z" transform="translate(-406.639 -191.878)" fill="#21587b"/><path d="M439.843,218.784,409.2,201.091a1.6,1.6,0,0,1-.669-1.277v-4.66c0-.492.3-.718.669-.506l30.645,17.693a1.6,1.6,0,0,1,.669,1.277v4.66C440.512,218.771,440.212,219,439.843,218.784Z" transform="translate(-406.947 -192.316)" fill="#d4ecff" opacity="0.4"/><path d="M415.941,203.084l-4.573-2.64a1.554,1.554,0,0,1-.65-1.241h0c0-.478.29-.7.65-.491l4.573,2.64a1.557,1.557,0,0,1,.65,1.241h0C416.59,203.072,416.3,203.292,415.941,203.084Z" transform="translate(-407.303 -192.978)" fill="#d4ecff"/><path d="M421.321,205.332c0,.478-.336.672-.75.433a1.657,1.657,0,0,1-.749-1.3c0-.478.336-.671.749-.433A1.657,1.657,0,0,1,421.321,205.332Z" transform="translate(-408.786 -193.841)" fill="#137476"/><path d="M424.48,207.155c0,.478-.336.672-.75.433a1.657,1.657,0,0,1-.749-1.3c0-.478.336-.671.749-.433A1.657,1.657,0,0,1,424.48,207.155Z" transform="translate(-409.301 -194.138)" fill="#137476"/><path d="M427.639,208.979c0,.478-.336.671-.75.433a1.658,1.658,0,0,1-.749-1.3c0-.478.336-.672.749-.433A1.656,1.656,0,0,1,427.639,208.979Z" transform="translate(-409.815 -194.435)" fill="#d4ecff"/><path d="M430.8,210.8c0,.478-.335.671-.749.433a1.656,1.656,0,0,1-.749-1.3c0-.478.335-.672.749-.433A1.655,1.655,0,0,1,430.8,210.8Z" transform="translate(-410.33 -194.732)" fill="#137476"/><path d="M444.015,219.68l-1.54-.89a1,1,0,0,1-.417-.8v-1.63c0-.306.187-.448.417-.315l1.54.889a1,1,0,0,1,.417.8v1.63C444.432,219.671,444.245,219.812,444.015,219.68Z" transform="translate(-412.408 -195.807)" fill="#d4ecff"/></g><g transform="translate(1.605 63.39)"><path d="M440.468,233.579l-32.512-18.771a3.157,3.157,0,0,1-1.318-2.518v-6.2c0-.97.59-1.416,1.318-1l32.512,18.771a3.156,3.156,0,0,1,1.318,2.517v6.2C441.786,233.553,441.2,234,440.468,233.579Z" transform="translate(-406.639 -204.937)" fill="#21587b"/><path d="M439.843,231.843,409.2,214.151a1.6,1.6,0,0,1-.669-1.277v-4.661c0-.492.3-.718.669-.506L439.843,225.4a1.6,1.6,0,0,1,.669,1.277v4.661C440.512,231.83,440.212,232.056,439.843,231.843Z" transform="translate(-406.947 -205.375)" fill="#d4ecff" opacity="0.4"/><path d="M415.941,216.144l-4.573-2.641a1.552,1.552,0,0,1-.65-1.24h0c0-.478.29-.7.65-.491l4.573,2.64a1.554,1.554,0,0,1,.65,1.24h0C416.59,216.131,416.3,216.351,415.941,216.144Z" transform="translate(-407.303 -206.038)" fill="#d4ecff"/><path d="M421.321,218.391c0,.478-.336.671-.75.433a1.659,1.659,0,0,1-.749-1.3c0-.478.336-.672.749-.433A1.656,1.656,0,0,1,421.321,218.391Z" transform="translate(-408.786 -206.9)" fill="#137476"/><path d="M424.48,220.214c0,.478-.336.672-.75.433a1.657,1.657,0,0,1-.749-1.3c0-.478.336-.671.749-.433A1.657,1.657,0,0,1,424.48,220.214Z" transform="translate(-409.301 -207.197)" fill="#fff"/><path d="M427.639,222.038c0,.478-.336.672-.75.433a1.657,1.657,0,0,1-.749-1.3c0-.478.336-.671.749-.433A1.657,1.657,0,0,1,427.639,222.038Z" transform="translate(-409.815 -207.495)" fill="#d4ecff"/><path d="M430.8,223.862c0,.478-.335.672-.749.433a1.656,1.656,0,0,1-.749-1.3c0-.478.335-.671.749-.433A1.656,1.656,0,0,1,430.8,223.862Z" transform="translate(-410.33 -207.792)" fill="#fff"/><path d="M444.015,232.739l-1.54-.89a1,1,0,0,1-.417-.8v-1.63c0-.307.187-.448.417-.316l1.54.89a1,1,0,0,1,.417.8v1.63C444.432,232.731,444.245,232.871,444.015,232.739Z" transform="translate(-412.408 -208.866)" fill="#d4ecff"/></g><g transform="translate(1.605 74.322)"><path d="M440.468,246.638l-32.512-18.771a3.156,3.156,0,0,1-1.318-2.517v-6.2c0-.97.59-1.416,1.318-1l32.512,18.771a3.157,3.157,0,0,1,1.318,2.518v6.2C441.786,246.612,441.2,247.058,440.468,246.638Z" transform="translate(-406.639 -217.996)" fill="#21587b"/><path d="M439.843,244.9,409.2,227.21a1.6,1.6,0,0,1-.669-1.277v-4.66c0-.492.3-.719.669-.506l30.645,17.692a1.6,1.6,0,0,1,.669,1.277V244.4C440.512,244.889,440.212,245.116,439.843,244.9Z" transform="translate(-406.947 -218.434)" fill="#d4ecff" opacity="0.4"/><path d="M415.941,229.2l-4.573-2.64a1.555,1.555,0,0,1-.65-1.241h0c0-.478.29-.7.65-.491l4.573,2.64a1.556,1.556,0,0,1,.65,1.241h0C416.59,229.191,416.3,229.41,415.941,229.2Z" transform="translate(-407.303 -219.097)" fill="#d4ecff"/><path d="M421.321,231.451c0,.478-.336.671-.75.433a1.659,1.659,0,0,1-.749-1.3c0-.478.336-.671.749-.433A1.657,1.657,0,0,1,421.321,231.451Z" transform="translate(-408.786 -219.96)" fill="#137476"/><path d="M424.48,233.274c0,.478-.336.671-.75.433a1.658,1.658,0,0,1-.749-1.3c0-.478.336-.672.749-.433A1.656,1.656,0,0,1,424.48,233.274Z" transform="translate(-409.301 -220.257)" fill="#137476"/><path d="M427.639,235.1c0,.478-.336.671-.75.433a1.658,1.658,0,0,1-.749-1.3c0-.478.336-.672.749-.433A1.656,1.656,0,0,1,427.639,235.1Z" transform="translate(-409.815 -220.554)" fill="#d4ecff"/><path d="M430.8,236.921c0,.478-.335.672-.749.433a1.655,1.655,0,0,1-.749-1.3c0-.478.335-.671.749-.433A1.656,1.656,0,0,1,430.8,236.921Z" transform="translate(-410.33 -220.851)" fill="#137476"/><path d="M444.015,245.8l-1.54-.889a1,1,0,0,1-.417-.8v-1.63c0-.307.187-.448.417-.315l1.54.889a1,1,0,0,1,.417.8v1.63C444.432,245.79,444.245,245.931,444.015,245.8Z" transform="translate(-412.408 -221.925)" fill="#137476"/></g><g transform="translate(1.605 85.255)"><path d="M440.468,259.7l-32.512-18.771a3.154,3.154,0,0,1-1.318-2.517v-6.2c0-.97.59-1.416,1.318-1l32.512,18.771a3.154,3.154,0,0,1,1.318,2.517v6.2C441.786,259.672,441.2,260.117,440.468,259.7Z" transform="translate(-406.639 -231.056)" fill="#21587b"/><path d="M439.843,257.962,409.2,240.269a1.6,1.6,0,0,1-.669-1.277v-4.66c0-.492.3-.718.669-.506l30.645,17.693a1.6,1.6,0,0,1,.669,1.277v4.66C440.512,257.949,440.212,258.175,439.843,257.962Z" transform="translate(-406.947 -231.494)" fill="#d4ecff" opacity="0.4"/><path d="M415.941,242.262l-4.573-2.64a1.554,1.554,0,0,1-.65-1.241h0c0-.478.29-.7.65-.491l4.573,2.64a1.557,1.557,0,0,1,.65,1.241h0C416.59,242.25,416.3,242.47,415.941,242.262Z" transform="translate(-407.303 -232.157)" fill="#d4ecff"/><path d="M422.06,244.974c0,.9-.634,1.269-1.416.818a3.131,3.131,0,0,1-1.416-2.453c0-.9.635-1.269,1.416-.817A3.128,3.128,0,0,1,422.06,244.974Z" transform="translate(-408.69 -232.892)" fill="#fff"/><path d="M428.862,249.045c0,.478-.336.671-.749.433a1.657,1.657,0,0,1-.75-1.3c0-.478.336-.672.75-.433A1.657,1.657,0,0,1,428.862,249.045Z" transform="translate(-410.015 -233.758)" fill="#137476"/><path d="M432.021,250.869c0,.479-.336.672-.75.433a1.655,1.655,0,0,1-.749-1.3c0-.478.336-.672.749-.433A1.654,1.654,0,0,1,432.021,250.869Z" transform="translate(-410.529 -234.055)" fill="#d4ecff"/><path d="M435.18,252.692c0,.478-.336.672-.75.433a1.657,1.657,0,0,1-.749-1.3c0-.478.336-.671.749-.433A1.657,1.657,0,0,1,435.18,252.692Z" transform="translate(-411.044 -234.352)" fill="#137476"/><path d="M444.015,258.858l-1.54-.89a1,1,0,0,1-.417-.8v-1.63c0-.306.187-.448.417-.315l1.54.889a1,1,0,0,1,.417.8v1.63C444.432,258.849,444.245,258.99,444.015,258.858Z" transform="translate(-412.408 -234.985)" fill="#d4ecff"/></g></g><g transform="translate(0 62.049)"><path d="M298.955,319.335,226.491,277.5c-2.05-1.184-1.792-3.251.574-4.617L276.408,244.4c2.367-1.366,5.948-1.515,8-.331l72.464,41.837c2.049,1.184,1.792,3.251-.574,4.618L306.952,319C304.585,320.37,301,320.519,298.955,319.335Z" transform="translate(-225.107 -169.509)" fill="#efefef"/><path d="M385.788,197.441,313.324,155.6a2.923,2.923,0,0,0-2.455-.3l0-.008-.131.049-.032.013-2.619,1,2.351,1.151c-.011.043-.024.084-.033.127l-11.8,53.728c-.591,2.689.592,5.828,2.642,7.012l70.721,40.831-.252,3,2.862-1.109a4.024,4.024,0,0,0,2.05-2.916l11.8-53.728C389.021,201.764,387.838,198.625,385.788,197.441Z" transform="translate(-237.054 -155.156)" fill="#21587b"/><path d="M386.6,197.441,314.137,155.6a2.923,2.923,0,0,0-2.455-.3l0-.008-.131.049-.032.013-2.619,1,2.351,1.151c-.011.043-.024.084-.033.127l-7.779,35.41L338.9,220.671l49.992-20.342A5.624,5.624,0,0,0,386.6,197.441Z" transform="translate(-237.867 -155.156)" fill="#137476"/><path d="M398.457,214l5.517-2.348a6.912,6.912,0,0,0-2.235-5.524l-8.732,3.673Z" transform="translate(-252.456 -163.46)" fill="#37a3a5"/><path d="M368.32,262.117,295.856,220.28c-2.05-1.184-3.233-4.323-2.643-7.012l11.8-53.728c.591-2.689,2.732-3.909,4.782-2.726l72.464,41.837c2.05,1.184,3.233,4.323,2.642,7.012l-11.8,53.728C372.511,262.08,370.369,263.3,368.32,262.117Z" transform="translate(-236.176 -155.353)" fill="url(#a)"/><path d="M385.795,198.349l-72.464-41.837a2.866,2.866,0,0,0-2.854-.124,2.976,2.976,0,0,1,2.158.379L385.1,198.6c2.05,1.184,3.233,4.323,2.642,7.012l-11.8,53.727a4.082,4.082,0,0,1-1.928,2.85,3.734,3.734,0,0,0,2.623-3.1l11.8-53.727C389.028,202.672,387.845,199.533,385.795,198.349Z" transform="translate(-239.013 -155.305)" fill="#fff"/><path d="M367.329,258.888l-68.151-39.328c-1.875-1.082-2.958-3.955-2.418-6.416l10.8-49.165c.54-2.46,2.5-3.577,4.375-2.494l68.151,39.328c1.876,1.083,2.958,3.955,2.418,6.416l-10.8,49.165C371.163,258.853,369.2,259.97,367.329,258.888Z" transform="translate(-236.756 -156.12)" fill="#fff"/><path d="M367.329,258.888l-68.151-39.328c-1.875-1.082-2.958-3.955-2.418-6.416l10.8-49.165c.54-2.46,2.5-3.577,4.375-2.494l68.151,39.328c1.876,1.083,2.958,3.955,2.418,6.416l-10.8,49.165C371.163,258.853,369.2,259.97,367.329,258.888Z" transform="translate(-236.756 -156.12)" fill="#12263f"/><path d="M367.923,258.661l-68.151-39.328c-1.876-1.082-2.958-3.955-2.418-6.416l10.8-49.165a3.773,3.773,0,0,1,1.717-2.588,3.468,3.468,0,0,0-2.31,2.829l-10.8,49.165c-.54,2.46.542,5.333,2.418,6.416L367.329,258.9a2.62,2.62,0,0,0,2.658.094A2.72,2.72,0,0,1,367.923,258.661Z" transform="translate(-236.756 -156.135)" fill="#5793ce"/><path d="M358.252,277.278l-9.906-1.308-63.94-36.917c-2.05-1.184-5.631-1.035-8,.331L231.1,265.534l-5.99-.79v3.4h.006a2.334,2.334,0,0,0,1.375,2.1l72.464,41.837c2.05,1.184,5.63,1.035,8-.332L356.3,283.269c1.331-.768,1.995-1.759,1.956-2.69h0Z" transform="translate(-225.107 -168.692)" fill="#21587b"/><path d="M255.722,253.872,231.1,268.078l-5.99-.79v3.4h.006a2.334,2.334,0,0,0,1.375,2.1l72.464,41.837a7.5,7.5,0,0,0,4.128.773Z" transform="translate(-225.107 -171.236)" fill="#137476"/><path d="M227.769,270.249l-2.659-.351v3.4h.006a2.334,2.334,0,0,0,1.375,2.1l1.277.737Z" transform="translate(-225.107 -173.846)" fill="#37a3a5"/><path d="M314.2,325.292a9.279,9.279,0,0,0,6.795-.422v-7.58H314.2Z" transform="translate(-239.618 -181.566)" fill="#37a3a5"/><path d="M298.955,307.589l-72.464-41.837c-2.05-1.184-1.792-3.251.574-4.618l49.343-28.478c2.367-1.367,5.948-1.515,8-.332l72.464,41.836c2.049,1.184,1.792,3.251-.574,4.617l-49.343,28.479C304.585,308.623,301,308.772,298.955,307.589Z" transform="translate(-225.107 -167.596)" fill="url(#a)"/><path d="M356.3,283.684l-49.343,28.479c-2.367,1.366-5.948,1.515-8,.331l-72.464-41.837a2.691,2.691,0,0,1-1.274-1.394,2.191,2.191,0,0,0,1.274,2.635l72.464,41.837c2.05,1.184,5.63,1.036,8-.332L356.3,284.925c1.591-.918,2.223-2.153,1.848-3.224A3.851,3.851,0,0,1,356.3,283.684Z" transform="translate(-225.108 -173.743)" fill="#fff"/><g transform="translate(28.747 66.506)"><path d="M262.9,254.919l-3.279-1.894c-.263-.152-.23-.417.074-.593l3.871-2.234a1.138,1.138,0,0,1,1.026-.043l3.279,1.893c.264.152.23.418-.074.594l-3.87,2.234A1.145,1.145,0,0,1,262.9,254.919Z" transform="translate(-259.448 -237.12)" fill="#21587b"/><path d="M268.953,258.411l-3.279-1.893c-.264-.152-.23-.417.074-.593l3.87-2.234a1.14,1.14,0,0,1,1.027-.043l3.279,1.893c.263.152.23.418-.074.594l-3.87,2.234A1.145,1.145,0,0,1,268.953,258.411Z" transform="translate(-260.433 -237.688)" fill="#21587b"/><path d="M275,261.9l-3.279-1.894c-.263-.152-.23-.417.075-.593l3.87-2.234a1.141,1.141,0,0,1,1.026-.043l3.279,1.894c.264.152.23.417-.074.593l-3.87,2.234A1.142,1.142,0,0,1,275,261.9Z" transform="translate(-261.418 -238.257)" fill="#21587b"/><path d="M283.367,259.089l-3.279-1.893c-.264-.152-.23-.418.074-.593l3.249-1.875a1.14,1.14,0,0,1,1.027-.043l3.278,1.893c.264.152.23.418-.074.593l-3.249,1.875A1.141,1.141,0,0,1,283.367,259.089Z" transform="translate(-262.781 -237.857)" fill="#21587b"/><path d="M289.415,262.581l-3.279-1.893c-.263-.152-.23-.418.075-.594l3.248-1.875a1.14,1.14,0,0,1,1.027-.043l3.279,1.893c.263.152.23.418-.074.593l-3.249,1.875A1.14,1.14,0,0,1,289.415,262.581Z" transform="translate(-263.766 -238.426)" fill="#21587b"/><path d="M295.464,266.073l-3.279-1.893c-.264-.152-.23-.418.074-.594l3.249-1.875a1.14,1.14,0,0,1,1.027-.043l3.278,1.893c.264.152.23.418-.074.594l-3.248,1.875A1.14,1.14,0,0,1,295.464,266.073Z" transform="translate(-264.751 -238.995)" fill="#21587b"/><path d="M301.512,269.565l-3.279-1.893c-.263-.152-.23-.418.074-.593l3.248-1.876a1.142,1.142,0,0,1,1.027-.043l3.279,1.894c.263.151.23.417-.074.593l-3.249,1.875A1.139,1.139,0,0,1,301.512,269.565Z" transform="translate(-265.737 -239.564)" fill="#21587b"/><path d="M307.561,273.057l-3.279-1.893c-.264-.152-.23-.418.074-.593L307.6,268.7a1.145,1.145,0,0,1,1.027-.043l3.278,1.893c.264.152.23.417-.074.593l-3.249,1.875A1.138,1.138,0,0,1,307.561,273.057Z" transform="translate(-266.722 -240.133)" fill="#21587b"/><path d="M313.609,276.55l-3.279-1.893c-.263-.152-.23-.418.074-.593l3.248-1.876a1.145,1.145,0,0,1,1.027-.043l3.279,1.894c.263.152.23.417-.074.593l-3.249,1.876A1.145,1.145,0,0,1,313.609,276.55Z" transform="translate(-267.707 -240.701)" fill="#21587b"/><path d="M319.658,280.042l-3.279-1.893c-.264-.152-.23-.417.074-.593l3.249-1.876a1.142,1.142,0,0,1,1.027-.042l3.278,1.893c.264.152.23.417-.074.593L320.686,280A1.145,1.145,0,0,1,319.658,280.042Z" transform="translate(-268.692 -241.27)" fill="#21587b"/><path d="M325.706,283.534l-3.279-1.894c-.263-.151-.23-.417.075-.593l3.248-1.876a1.142,1.142,0,0,1,1.027-.042l3.279,1.893c.263.152.23.418-.074.593l-3.249,1.876A1.142,1.142,0,0,1,325.706,283.534Z" transform="translate(-269.678 -241.839)" fill="#21587b"/><path d="M331.755,287.026l-3.279-1.894c-.263-.152-.23-.417.074-.593l3.249-1.875a1.14,1.14,0,0,1,1.027-.043l3.278,1.893c.264.152.23.418-.074.593l-3.248,1.876A1.142,1.142,0,0,1,331.755,287.026Z" transform="translate(-270.663 -242.408)" fill="#21587b"/><path d="M337.8,290.518l-3.278-1.893c-.264-.152-.231-.418.074-.594l3.248-1.875a1.14,1.14,0,0,1,1.027-.043l3.279,1.893c.263.152.23.418-.074.594l-3.249,1.875A1.142,1.142,0,0,1,337.8,290.518Z" transform="translate(-271.648 -242.977)" fill="#21587b"/><path d="M292.279,257.436,289,255.543c-.263-.152-.23-.417.074-.593l3.249-1.876a1.142,1.142,0,0,1,1.027-.042l3.278,1.893c.264.151.23.417-.074.593l-3.248,1.876A1.145,1.145,0,0,1,292.279,257.436Z" transform="translate(-264.233 -237.588)" fill="#21587b"/><path d="M286.14,253.891,282.861,252c-.263-.152-.23-.418.074-.593l3.249-1.876a1.145,1.145,0,0,1,1.027-.043l3.279,1.894c.263.152.23.417-.074.593l-3.249,1.875A1.14,1.14,0,0,1,286.14,253.891Z" transform="translate(-263.233 -237.011)" fill="#21587b"/><path d="M279.255,249.916l-7.061-4.077c-.264-.152-.23-.418.074-.593l3.248-1.876a1.145,1.145,0,0,1,1.027-.043l7.062,4.077c.263.152.23.418-.074.594l-3.249,1.875A1.14,1.14,0,0,1,279.255,249.916Z" transform="translate(-261.495 -236.008)" fill="#21587b"/><path d="M283.812,245.749l-5.731-3.308c-.263-.152-.23-.418.074-.594l3.249-1.875a1.14,1.14,0,0,1,1.027-.043l5.731,3.308c.263.152.23.418-.074.594l-3.249,1.875A1.14,1.14,0,0,1,283.812,245.749Z" transform="translate(-262.454 -235.454)" fill="#21587b"/><path d="M298.328,260.928l-3.278-1.894c-.264-.151-.23-.417.074-.593l3.248-1.876a1.142,1.142,0,0,1,1.027-.042l3.279,1.893c.263.152.23.418-.074.593l-3.249,1.876A1.145,1.145,0,0,1,298.328,260.928Z" transform="translate(-265.218 -238.157)" fill="#21587b"/><path d="M304.376,264.42l-3.279-1.894c-.264-.151-.23-.417.074-.593l3.249-1.875a1.139,1.139,0,0,1,1.027-.043l3.278,1.893c.264.152.23.418-.074.593l-3.248,1.876A1.143,1.143,0,0,1,304.376,264.42Z" transform="translate(-266.203 -238.726)" fill="#21587b"/><path d="M310.424,267.912l-3.279-1.893c-.263-.152-.23-.418.074-.594l3.248-1.875a1.14,1.14,0,0,1,1.027-.043l3.279,1.893c.263.152.23.418-.074.594l-3.249,1.875A1.142,1.142,0,0,1,310.424,267.912Z" transform="translate(-267.188 -239.294)" fill="#21587b"/><path d="M316.473,271.4l-3.279-1.893c-.263-.152-.23-.418.074-.594l3.249-1.875a1.14,1.14,0,0,1,1.027-.043l3.278,1.893c.264.152.23.418-.074.594l-3.248,1.875A1.14,1.14,0,0,1,316.473,271.4Z" transform="translate(-268.174 -239.863)" fill="#21587b"/><path d="M322.522,274.9,319.243,273c-.264-.152-.23-.418.074-.593l3.248-1.876a1.142,1.142,0,0,1,1.027-.043l3.279,1.893c.263.152.23.418-.074.593l-3.249,1.875A1.139,1.139,0,0,1,322.522,274.9Z" transform="translate(-269.159 -240.432)" fill="#21587b"/><path d="M328.57,278.388l-3.279-1.893c-.263-.152-.23-.418.074-.593l3.249-1.876a1.142,1.142,0,0,1,1.027-.043l3.279,1.893c.263.152.23.417-.075.593l-3.248,1.875A1.14,1.14,0,0,1,328.57,278.388Z" transform="translate(-270.144 -241.001)" fill="#21587b"/><path d="M334.618,281.88l-3.278-1.893c-.264-.151-.23-.418.074-.593l3.248-1.876a1.145,1.145,0,0,1,1.027-.043l3.279,1.894c.264.151.23.417-.074.593l-3.249,1.876A1.142,1.142,0,0,1,334.618,281.88Z" transform="translate(-271.129 -241.57)" fill="#21587b"/><path d="M340.667,285.372l-3.279-1.893c-.263-.152-.23-.418.074-.593l3.249-1.876a1.145,1.145,0,0,1,1.027-.043l3.279,1.894c.263.151.23.417-.075.593l-3.248,1.876A1.142,1.142,0,0,1,340.667,285.372Z" transform="translate(-272.114 -242.139)" fill="#21587b"/><path d="M346.716,288.865l-3.278-1.894c-.264-.152-.23-.417.074-.593l3.249-1.876a1.14,1.14,0,0,1,1.026-.042l3.279,1.893c.264.152.23.418-.074.593l-3.249,1.876A1.145,1.145,0,0,1,346.716,288.865Z" transform="translate(-273.1 -242.707)" fill="#21587b"/><path d="M356.714,294.638l-7.154-4.13c-.263-.152-.23-.418.074-.593l3.248-1.876A1.142,1.142,0,0,1,353.91,288l7.154,4.13c.264.152.23.418-.074.593l-3.249,1.876A1.142,1.142,0,0,1,356.714,294.638Z" transform="translate(-274.097 -243.283)" fill="#21587b"/><path d="M368.708,287.964l-6.038-3.486c-.263-.152-.23-.418.074-.594l3.249-1.875a1.14,1.14,0,0,1,1.027-.043l6.038,3.486c.263.152.23.418-.074.594l-3.249,1.875A1.14,1.14,0,0,1,368.708,287.964Z" transform="translate(-276.232 -242.301)" fill="#21587b"/><path d="M308.92,260.244l-3.278-1.893c-.264-.151-.23-.418.074-.593l3.249-1.876a1.143,1.143,0,0,1,1.026-.043l3.279,1.894c.264.152.23.417-.074.593l-3.249,1.876A1.142,1.142,0,0,1,308.92,260.244Z" transform="translate(-266.943 -238.046)" fill="#21587b"/><path d="M302.721,256.665l-3.278-1.893c-.264-.152-.23-.417.074-.593l3.249-1.876a1.143,1.143,0,0,1,1.026-.043l3.279,1.894c.264.152.23.417-.074.593l-3.249,1.876A1.142,1.142,0,0,1,302.721,256.665Z" transform="translate(-265.934 -237.463)" fill="#21587b"/><path d="M296.522,253.086l-3.279-1.893c-.264-.152-.23-.418.074-.593l3.249-1.876a1.145,1.145,0,0,1,1.027-.043l3.278,1.894c.264.151.23.417-.074.593l-3.249,1.876A1.14,1.14,0,0,1,296.522,253.086Z" transform="translate(-264.924 -236.88)" fill="#21587b"/><path d="M290.323,249.508l-3.279-1.894c-.264-.151-.23-.418.074-.593l3.249-1.876a1.145,1.145,0,0,1,1.027-.043L294.672,247c.264.152.23.417-.074.593l-3.249,1.876A1.143,1.143,0,0,1,290.323,249.508Z" transform="translate(-263.914 -236.297)" fill="#21587b"/><path d="M314.968,263.737l-3.279-1.894c-.263-.152-.23-.417.074-.593l3.249-1.876a1.142,1.142,0,0,1,1.027-.042l3.279,1.893c.263.151.23.417-.074.593L316,263.694A1.145,1.145,0,0,1,314.968,263.737Z" transform="translate(-267.928 -238.614)" fill="#21587b"/><path d="M321.017,267.229l-3.278-1.894c-.264-.152-.23-.417.074-.593l3.249-1.875a1.14,1.14,0,0,1,1.027-.043l3.278,1.893c.264.152.23.418-.074.593l-3.249,1.876A1.142,1.142,0,0,1,321.017,267.229Z" transform="translate(-268.914 -239.183)" fill="#21587b"/><path d="M327.065,270.721l-3.279-1.893c-.263-.152-.23-.418.074-.594l3.249-1.875a1.14,1.14,0,0,1,1.027-.043l3.279,1.893c.263.152.23.418-.074.593l-3.249,1.876A1.142,1.142,0,0,1,327.065,270.721Z" transform="translate(-269.899 -239.752)" fill="#21587b"/><path d="M333.114,274.213l-3.278-1.893c-.264-.152-.23-.418.074-.594l3.249-1.875a1.14,1.14,0,0,1,1.027-.043l3.278,1.893c.264.152.23.418-.074.594l-3.249,1.875A1.142,1.142,0,0,1,333.114,274.213Z" transform="translate(-270.884 -240.321)" fill="#21587b"/><path d="M339.162,277.705l-3.279-1.893c-.263-.152-.23-.418.074-.594l3.249-1.875a1.14,1.14,0,0,1,1.027-.043l3.279,1.893c.263.152.23.418-.074.594l-3.249,1.875A1.14,1.14,0,0,1,339.162,277.705Z" transform="translate(-271.869 -240.89)" fill="#21587b"/><path d="M345.211,281.2l-3.279-1.893c-.264-.152-.23-.418.074-.593l3.249-1.876a1.14,1.14,0,0,1,1.027-.043l3.278,1.893c.264.152.23.418-.074.593l-3.249,1.875A1.138,1.138,0,0,1,345.211,281.2Z" transform="translate(-272.855 -241.458)" fill="#21587b"/><path d="M351.259,284.689,347.98,282.8c-.263-.152-.23-.418.074-.593l3.249-1.876a1.142,1.142,0,0,1,1.027-.043l3.279,1.893c.263.152.23.417-.074.593l-3.249,1.875A1.14,1.14,0,0,1,351.259,284.689Z" transform="translate(-273.84 -242.027)" fill="#21587b"/><path d="M357.308,288.181l-3.279-1.893c-.264-.152-.23-.418.074-.593l3.249-1.876a1.145,1.145,0,0,1,1.027-.043l3.278,1.893c.264.152.23.417-.074.593l-3.248,1.875A1.14,1.14,0,0,1,357.308,288.181Z" transform="translate(-274.825 -242.596)" fill="#21587b"/><path d="M363.356,291.674l-3.279-1.893c-.263-.152-.23-.418.074-.593l3.248-1.876a1.145,1.145,0,0,1,1.027-.043l3.279,1.894c.263.151.23.417-.074.593l-3.249,1.876A1.145,1.145,0,0,1,363.356,291.674Z" transform="translate(-275.81 -243.165)" fill="#21587b"/><path d="M305.735,251.607l-3.278-1.893c-.264-.152-.23-.418.074-.594l3.249-1.875a1.139,1.139,0,0,1,1.027-.043l3.278,1.893c.264.152.23.418-.074.594l-3.249,1.875A1.142,1.142,0,0,1,305.735,251.607Z" transform="translate(-266.424 -236.639)" fill="#21587b"/><path d="M299.716,248.132l-3.279-1.893c-.263-.152-.23-.418.075-.594l3.248-1.875a1.142,1.142,0,0,1,1.027-.043l3.279,1.893c.263.152.23.418-.074.594l-3.249,1.875A1.14,1.14,0,0,1,299.716,248.132Z" transform="translate(-265.444 -236.073)" fill="#21587b"/><path d="M293.7,244.657l-3.279-1.893c-.263-.152-.23-.418.074-.593l3.249-1.876a1.145,1.145,0,0,1,1.027-.043l3.278,1.894c.264.152.23.417-.074.593l-3.248,1.876A1.142,1.142,0,0,1,293.7,244.657Z" transform="translate(-264.464 -235.507)" fill="#21587b"/><path d="M287.679,241.183,284.4,239.29c-.264-.152-.23-.417.074-.593l3.248-1.875a1.14,1.14,0,0,1,1.027-.043l3.279,1.893c.263.152.23.418-.074.593l-3.249,1.876A1.145,1.145,0,0,1,287.679,241.183Z" transform="translate(-263.484 -234.941)" fill="#21587b"/><path d="M293.868,237.854l-3.279-1.894c-.263-.152-.23-.417.074-.593l1.074-.62a1.145,1.145,0,0,1,1.027-.043l3.279,1.894c.263.152.23.417-.074.593l-1.074.62A1.145,1.145,0,0,1,293.868,237.854Z" transform="translate(-264.492 -234.603)" fill="#21587b"/><path d="M301.722,242.388l-3.279-1.893c-.263-.152-.23-.418.075-.593l1.073-.62a1.14,1.14,0,0,1,1.027-.043l3.279,1.893c.263.152.23.418-.074.594l-1.074.619A1.14,1.14,0,0,1,301.722,242.388Z" transform="translate(-265.771 -235.342)" fill="#21587b"/><path d="M307.715,245.848l-3.278-1.893c-.264-.152-.23-.418.074-.593l1.074-.62a1.142,1.142,0,0,1,1.027-.043l3.278,1.893c.264.152.23.418-.074.594l-1.074.62A1.142,1.142,0,0,1,307.715,245.848Z" transform="translate(-266.747 -235.905)" fill="#21587b"/><path d="M313.709,249.309l-3.279-1.894c-.263-.151-.23-.417.074-.593l1.074-.62a1.142,1.142,0,0,1,1.027-.042l3.279,1.893c.263.152.23.418-.074.593l-1.074.62A1.145,1.145,0,0,1,313.709,249.309Z" transform="translate(-267.723 -236.469)" fill="#21587b"/><path d="M319.7,252.769l-3.279-1.893c-.263-.152-.23-.418.074-.594l1.074-.619a1.139,1.139,0,0,1,1.027-.043l3.279,1.893c.263.152.23.418-.074.593l-1.074.62A1.14,1.14,0,0,1,319.7,252.769Z" transform="translate(-268.7 -237.032)" fill="#21587b"/><path d="M353.162,272.087l-3.279-1.893c-.263-.152-.23-.418.074-.594l1.074-.619a1.139,1.139,0,0,1,1.027-.043l3.279,1.893c.263.152.23.418-.074.594l-1.074.619A1.14,1.14,0,0,1,353.162,272.087Z" transform="translate(-274.15 -240.179)" fill="#21587b"/><path d="M359.156,275.547l-3.278-1.893c-.264-.152-.23-.418.074-.593l1.074-.62a1.142,1.142,0,0,1,1.027-.043l3.278,1.893c.264.152.23.418-.074.594l-1.074.619A1.14,1.14,0,0,1,359.156,275.547Z" transform="translate(-275.126 -240.743)" fill="#21587b"/><path d="M365.149,279.008l-3.279-1.894c-.263-.152-.23-.417.074-.593l1.074-.62a1.145,1.145,0,0,1,1.027-.043l3.279,1.894c.263.152.23.417-.074.593l-1.074.62A1.145,1.145,0,0,1,365.149,279.008Z" transform="translate(-276.102 -241.306)" fill="#21587b"/><path d="M371.142,282.468l-3.279-1.893c-.263-.152-.23-.418.074-.594l1.073-.619a1.14,1.14,0,0,1,1.027-.043l3.279,1.893c.263.152.23.418-.074.593l-1.074.62A1.142,1.142,0,0,1,371.142,282.468Z" transform="translate(-277.078 -241.87)" fill="#21587b"/><path d="M311.783,255.1l-3.279-1.893c-.263-.152-.23-.418.074-.594l3.249-1.875a1.14,1.14,0,0,1,1.027-.043l3.279,1.893c.263.152.23.418-.074.594l-3.249,1.875A1.14,1.14,0,0,1,311.783,255.1Z" transform="translate(-267.41 -237.207)" fill="#21587b"/><path d="M317.832,258.591l-3.279-1.893c-.264-.152-.23-.418.074-.594l3.249-1.875a1.139,1.139,0,0,1,1.027-.043l3.278,1.893c.264.152.23.418-.074.594l-3.249,1.875A1.138,1.138,0,0,1,317.832,258.591Z" transform="translate(-268.395 -237.776)" fill="#21587b"/><path d="M323.88,262.083,320.6,260.19c-.263-.152-.23-.418.074-.593l3.249-1.876a1.142,1.142,0,0,1,1.027-.043l3.279,1.894c.263.152.23.417-.074.593l-3.249,1.875A1.139,1.139,0,0,1,323.88,262.083Z" transform="translate(-269.38 -238.345)" fill="#21587b"/><path d="M329.929,265.575l-3.279-1.893c-.264-.151-.23-.418.074-.593l3.249-1.876a1.145,1.145,0,0,1,1.027-.043l3.278,1.894c.264.152.23.417-.074.593l-3.249,1.875A1.138,1.138,0,0,1,329.929,265.575Z" transform="translate(-270.365 -238.914)" fill="#21587b"/><path d="M335.977,269.068l-3.279-1.894c-.263-.151-.23-.418.074-.593l3.248-1.876a1.145,1.145,0,0,1,1.027-.043l3.279,1.894c.263.152.23.417-.074.593L337,269.025A1.145,1.145,0,0,1,335.977,269.068Z" transform="translate(-271.351 -239.483)" fill="#21587b"/><path d="M342.026,272.56l-3.279-1.894c-.264-.152-.23-.417.074-.593l3.249-1.876a1.142,1.142,0,0,1,1.027-.042l3.278,1.893c.264.152.23.417-.074.593l-3.248,1.876A1.145,1.145,0,0,1,342.026,272.56Z" transform="translate(-272.336 -240.052)" fill="#21587b"/><path d="M348.074,276.052l-3.279-1.894c-.263-.152-.23-.417.074-.593l3.248-1.876a1.142,1.142,0,0,1,1.027-.042l3.279,1.893c.263.152.23.418-.074.593l-3.249,1.876A1.142,1.142,0,0,1,348.074,276.052Z" transform="translate(-273.321 -240.62)" fill="#21587b"/><path d="M354.123,279.544l-3.279-1.893c-.263-.152-.23-.418.074-.594l3.249-1.875a1.14,1.14,0,0,1,1.027-.043l3.278,1.893c.264.152.23.418-.074.593l-3.248,1.876A1.142,1.142,0,0,1,354.123,279.544Z" transform="translate(-274.306 -241.189)" fill="#21587b"/><path d="M360.171,283.036l-3.278-1.893c-.264-.152-.231-.418.074-.594l3.248-1.875a1.14,1.14,0,0,1,1.027-.043l3.279,1.893c.263.152.23.418-.074.594l-3.249,1.875A1.142,1.142,0,0,1,360.171,283.036Z" transform="translate(-275.292 -241.758)" fill="#21587b"/><path d="M275.962,254.814l-9.656-5.575c-.264-.152-.23-.417.074-.593l3.249-1.875a1.138,1.138,0,0,1,1.026-.043l9.656,5.574c.264.152.23.418-.074.594l-3.248,1.875A1.14,1.14,0,0,1,275.962,254.814Z" transform="translate(-260.536 -236.561)" fill="#21587b"/><path d="M350.27,297.716l-9.656-5.575c-.263-.152-.23-.418.074-.593l3.249-1.876a1.142,1.142,0,0,1,1.027-.043l9.656,5.575c.263.151.23.418-.074.593l-3.249,1.876A1.145,1.145,0,0,1,350.27,297.716Z" transform="translate(-272.64 -243.549)" fill="#21587b"/><path d="M327.322,292.11l-3.278-1.893c-.264-.152-.23-.418.074-.594l3.87-2.234a1.145,1.145,0,0,1,1.027-.043l3.278,1.894c.264.152.23.417-.074.593l-3.87,2.234A1.142,1.142,0,0,1,327.322,292.11Z" transform="translate(-269.941 -243.178)" fill="#21587b"/><path d="M283.015,266.53l-5.244-3.027c-.263-.152-.23-.418.074-.594l3.87-2.234a1.145,1.145,0,0,1,1.027-.043l5.244,3.028c.263.151.23.417-.074.593l-3.87,2.234A1.14,1.14,0,0,1,283.015,266.53Z" transform="translate(-262.404 -238.826)" fill="#21587b"/><path d="M321.111,288.525l-5.243-3.027c-.264-.152-.23-.418.074-.594l3.87-2.234a1.145,1.145,0,0,1,1.027-.043l5.243,3.028c.264.151.23.418-.074.593l-3.87,2.234A1.14,1.14,0,0,1,321.111,288.525Z" transform="translate(-268.609 -242.409)" fill="#21587b"/><path d="M291.742,271.568l-5.244-3.027c-.264-.151-.23-.418.074-.593l3.87-2.234a1.14,1.14,0,0,1,1.027-.043l5.244,3.027c.263.152.23.418-.074.594l-3.871,2.234A1.141,1.141,0,0,1,291.742,271.568Z" transform="translate(-263.825 -239.647)" fill="#21587b"/><path d="M291.546,265.715l22.8,13.162a.313.313,0,0,1,0,.592l-3.947,2.279a1.132,1.132,0,0,1-1.024,0l-22.8-13.162Z" transform="translate(-263.867 -239.671)" fill="#21587b"/><path d="M344.387,299.373l3.652,2.108c.215.125.188.342-.06.486l-1.584.914a.936.936,0,0,1-.841.035l-3.652-2.109c-.216-.125-.189-.342.06-.486l1.583-.914A.935.935,0,0,1,344.387,299.373Z" transform="translate(-272.855 -245.139)" fill="#21587b"/><path d="M338.288,295.851l3.652,2.109c.216.125.188.342-.06.486l-1.583.914a.938.938,0,0,1-.842.035l-3.652-2.109c-.216-.125-.188-.342.06-.486l1.584-.914A.936.936,0,0,1,338.288,295.851Z" transform="translate(-271.861 -244.566)" fill="#21587b"/><path d="M332.24,292.359l3.652,2.109c.215.125.188.342-.061.486l-1.583.914a.936.936,0,0,1-.841.034l-3.652-2.108c-.216-.125-.189-.342.06-.486l1.583-.914A.938.938,0,0,1,332.24,292.359Z" transform="translate(-270.876 -243.997)" fill="#21587b"/><path d="M341.628,293.923l3.652,2.109c.216.125.189.342-.06.486l-1.583.914a.935.935,0,0,1-.842.035l-3.652-2.109c-.215-.125-.188-.342.061-.485l1.583-.914A.934.934,0,0,1,341.628,293.923Z" transform="translate(-272.405 -244.252)" fill="#21587b"/></g><g transform="translate(89.165 41.616)"><path d="M360.726,222.389l-27.273-15.746.351-1.773,27.273,15.746Z" transform="translate(-331.92 -204.87)" fill="#21587b"/><path d="M350.66,226.889,331.621,215.9l.351-1.773,19.038,10.992Z" transform="translate(-331.621 -206.378)" fill="#21587b"/><path d="M349.007,220.779l-16.47-9.509.351-1.773,16.47,9.509Z" transform="translate(-331.771 -205.624)" fill="#21587b"/><path d="M363.515,229.155,355.28,224.4l.351-1.773,8.235,4.755Z" transform="translate(-335.475 -207.763)" fill="#21587b"/></g><g transform="translate(100.788 39.789)"><path d="M347.624,204.457a1.027,1.027,0,0,1-1.481.455,1.287,1.287,0,0,1-.53-1.616,1.028,1.028,0,0,1,1.481-.456A1.289,1.289,0,0,1,347.624,204.457Z" transform="translate(-345.506 -202.688)" fill="#fff"/><path d="M351.861,206.9a1.027,1.027,0,0,1-1.48.456,1.289,1.289,0,0,1-.531-1.617,1.027,1.027,0,0,1,1.481-.455A1.288,1.288,0,0,1,351.861,206.9Z" transform="translate(-346.196 -203.086)" fill="#fff"/><path d="M356.1,209.35a1.028,1.028,0,0,1-1.481.455,1.288,1.288,0,0,1-.531-1.616,1.028,1.028,0,0,1,1.481-.456A1.29,1.29,0,0,1,356.1,209.35Z" transform="translate(-346.886 -203.485)" fill="#fff"/><path d="M360.336,211.8a1.028,1.028,0,0,1-1.481.456,1.289,1.289,0,0,1-.53-1.617,1.027,1.027,0,0,1,1.48-.456A1.289,1.289,0,0,1,360.336,211.8Z" transform="translate(-347.577 -203.883)" fill="#fff"/></g></g><g transform="translate(92.918 20.461)"><g transform="translate(4.79)"><path d="M362.046,122.551l-1.4-.809v-2.017a7.515,7.515,0,0,0-3.4-5.88l-10.625-6.1c-1.872-1.081-3.395-.2-3.395,1.96v2.017l-1.4-.809V108.9c0-3.054,2.152-4.3,4.8-2.769l10.625,6.1a10.618,10.618,0,0,1,4.8,8.309Z" transform="translate(-341.827 -105.476)" fill="url(#a)"/></g><path d="M356.6,125.374l4.79-2.759-.969-3.361-1.341-3.376s-2.3-2.572-2.48-2.624-6.451-3.618-6.451-3.618l-5.23-3.767-2.491.085-4.63,2.66,3.326,1.38s1.885.936,2.315,1.05a16.671,16.671,0,0,1,2.328,1.9c.038.025,2.277.923,2.277.923l.486-.079,4.073,2.859,1.316.583.708,1.138,1.088,3.036Z" transform="translate(-336.381 -105.54)" fill="url(#a)"/><path d="M342.51,112.479l-4.79,2.759s-.31-3.086-.31-3.125,1.047-1.505,1.047-1.505l2.6-.5,2.058,1.562-.648-.266-.276.162.318.506Z" transform="translate(-336.318 -106.23)" fill="#137476"/><g transform="translate(0 2.759)"><path d="M356.324,125.847l-1.4-.809V123.02a7.514,7.514,0,0,0-3.395-5.88l-10.625-6.1c-1.872-1.081-3.394-.2-3.394,1.96v2.017l-1.4-.81v-2.016c0-3.055,2.151-4.3,4.8-2.77l10.625,6.1a10.621,10.621,0,0,1,4.8,8.309Z" transform="translate(-336.105 -108.772)" fill="#12263f"/></g></g><g transform="translate(158.86 36.922)"><g transform="translate(4.803)"><path d="M422.973,125.735l-1.036-.594q-.654.439-1.321.861l2.357,1.352a7.513,7.513,0,0,1,3.4,5.881v2.016l1.4.81v-2.017A10.618,10.618,0,0,0,422.973,125.735Z" transform="translate(-420.616 -125.141)" fill="url(#a)"/></g><path d="M424.667,129.428s-2.3-2.572-2.48-2.623c-.061-.018-.855-.458-1.861-1.023-1.5.969-3.045,1.862-4.587,2.692l2.452,1.721,1.315.582.709,1.138,1.087,3.036.885,3.972,4.79-2.758-.968-3.362Z" transform="translate(-415.018 -125.245)" fill="url(#a)"/><g transform="translate(0 2.827)"><path d="M417.249,130.664a7.513,7.513,0,0,1,3.4,5.881v2.016l1.4.809v-2.016a10.618,10.618,0,0,0-4.8-8.309l-.917-.527q-.727.4-1.453.785Z" transform="translate(-414.878 -128.518)" fill="#12263f"/></g></g></g><g transform="translate(431.027 154.798)"><g transform="translate(59.642 6.812)"><g transform="translate(6.975 5.901)"><rect width="4.036" height="8.71" transform="translate(9.301 5.505) rotate(129.199)" fill="#21587b"/><path d="M559.7,194.073a3.155,3.155,0,0,0,1.8-2.212c.146-.9-.426-1.364-1.277-1.041a3.152,3.152,0,0,0-1.8,2.212C558.273,193.93,558.845,194.4,559.7,194.073Z" transform="translate(-551.933 -185.377)" fill="#21587b"/></g><rect width="6.54" height="8.897" transform="translate(11.497 5.893) rotate(129.199)" fill="#21587b"/><path d="M554.554,185.42l2.284,1.863a5.222,5.222,0,0,1-2.551,3.127L552,188.548A5.225,5.225,0,0,1,554.554,185.42Z" transform="translate(-543.917 -178.613)" fill="#37a3a5"/><path d="M552.688,189.446a5.112,5.112,0,0,0,2.923-3.584c.236-1.456-.691-2.212-2.069-1.688a5.107,5.107,0,0,0-2.922,3.584C550.384,189.214,551.31,189.97,552.688,189.446Z" transform="translate(-543.685 -178.383)" fill="#21587b"/><path d="M544.449,182.727a5.113,5.113,0,0,0,2.923-3.585c.236-1.456-.691-2.211-2.069-1.688a5.113,5.113,0,0,0-2.923,3.585C542.145,182.495,543.07,183.25,544.449,182.727Z" transform="translate(-542.343 -177.289)" fill="#21587b"/><ellipse cx="1.85" cy="1.068" rx="1.85" ry="1.068" transform="translate(0.536 3.56) rotate(-50.802)" fill="#d4ecff"/><path d="M559.877,191.342c.331.27.655.147.723-.275a1.48,1.48,0,0,0-.476-1.251c-.331-.27-.655-.146-.722.275A1.478,1.478,0,0,0,559.877,191.342Z" transform="translate(-545.12 -179.306)" fill="#d4ecff"/></g><path d="M482.162,249.873a6.1,6.1,0,0,1-3.149-.9l-7.677-4.546a.489.489,0,1,1,.5-.842l7.68,4.548a4.916,4.916,0,0,0,5.075.111,5.7,5.7,0,0,0,2.815-4.983c.01-5.024-.543-11.256-1.129-17.855-1.827-20.59-3.9-43.928,9.088-47.251,5.743-1.471,10.131-3.027,13.656-4.278,10.15-3.6,13.95-4.951,24.437,4.8a.489.489,0,1,1-.666.716c-10.053-9.348-13.426-8.151-23.444-4.6-3.544,1.257-7.954,2.823-13.741,4.3-12.182,3.117-10.148,26.016-8.355,46.218.588,6.622,1.143,12.876,1.133,17.943a6.677,6.677,0,0,1-3.312,5.833A5.891,5.891,0,0,1,482.162,249.873Z" transform="translate(-471.096 -169.482)" fill="#00223d"/><g transform="translate(23.926)"><ellipse cx="15.866" cy="9.16" rx="15.866" ry="9.16" transform="translate(4.218 70)" fill="#efefef"/><g transform="translate(9.145 6.457)"><path d="M531.456,258.474a2.45,2.45,0,0,1,1.382,2.449,4.122,4.122,0,0,1-.2,1.2,2.015,2.015,0,0,1-2.7.828c-1.487-.588-4.791-3.692-4.915-5.723C524.788,253.45,529.1,257.469,531.456,258.474Z" transform="translate(-512.949 -189.696)" fill="#00223d"/><path d="M520.4,265.923a10.942,10.942,0,0,1,.183,2.575,2.8,2.8,0,0,1-2.738,1.066c-1.529-.184-5.929-1.7-6.91-4.6-1.519-4.5,8.493.337,8.493.337Z" transform="translate(-510.631 -190.903)" fill="#00223d"/><path d="M517.068,224.537l-.34,33.969a2.379,2.379,0,0,0,1.85,2.355c.129.022.266.039.414.052a2.117,2.117,0,0,0,2.018-.835,2.493,2.493,0,0,0,.454-1.371l.434-14.5,2.166-12.965,3,22.947a1.983,1.983,0,0,0,.823,1.511,2.293,2.293,0,0,0,1.365.37,2.51,2.51,0,0,0,1.816-.894,1.822,1.822,0,0,0,.434-1.229l-1.187-13.806-.442-17.611Z" transform="translate(-511.6 -184.303)" fill="#21587b"/><path d="M521.864,188.605l.537,3.095a1.418,1.418,0,0,1-1.159,1.349c-1.179.293-1.544-.468-1.544-.468l-.533-3.486Z" transform="translate(-511.997 -178.777)" fill="#ffc2b0"/><ellipse cx="4.483" cy="5.035" rx="4.483" ry="5.035" transform="matrix(0.715, -0.699, 0.699, 0.715, 0, 6.271)" fill="#ffc2b0"/><path d="M521.1,192.1c.081-.033,5-3.2,6.822.114,2.967,5.407,2.792,22.812,1.855,25.066-.866,2.087-3.031,3.626-4.548,4.492a9.083,9.083,0,0,1-4.414,1.256c-1.538.013-4.487-1.355-4.38-3.365.492-9.247-.325-17.041-1.08-24.6C515.359,195.057,516.3,194.042,521.1,192.1Z" transform="translate(-511.377 -179.118)" fill="#37a3a5"/><path d="M525.49,232.936l3,22.947a1.983,1.983,0,0,0,.823,1.511,2.172,2.172,0,0,0,.255.144c-.621-.466-2.437-19.727-2.773-21.87S525.49,232.936,525.49,232.936Z" transform="translate(-513.028 -185.998)" fill="#00223d"/></g><path d="M502.9,191.771l-2.674-8.758,1.412-.586,3.152,6.863Z" transform="translate(-499.767 -171.313)" fill="#ffc2b0"/><path d="M534.924,183.569l-2-9.118-1.6.018.6,7.562Z" transform="translate(-504.832 -170.014)" fill="#ffc2b0"/><path d="M513.409,194.922s-4.8.959-7.86-4.635a.76.76,0,0,0-1.267-.134,3.922,3.922,0,0,0-.8,3.126c1.488,5.467,9.564,6.675,11.015,9.846S513.409,194.922,513.409,194.922Z" transform="translate(-500.282 -172.526)" fill="#37a3a5"/><path d="M525.951,189.661s3.8.293,4.352-3a25.191,25.191,0,0,0,.383-3.292.665.665,0,0,1,.747-.646c.911.114,2.321.385,2.513,1,.286.912.823,5.384-2.935,12.246C528.549,200.46,525.951,189.661,525.951,189.661Z" transform="translate(-503.957 -171.361)" fill="#37a3a5"/><path d="M532.487,173.609l-.037-1.04a2.137,2.137,0,0,0-.311-1.038l-1.054-1.731-.275-.347a.8.8,0,0,0-1.053-.18l-.242.152a.994.994,0,0,0-.464.907l.545,1.48-.689-.134a.245.245,0,0,0-.288.2h0a.245.245,0,0,0,.15.27l1.126.455,1.022,1.447Z" transform="translate(-504.391 -169.151)" fill="#ffc2b0"/><path d="M500.1,182.2l-.319-.99a2.136,2.136,0,0,1-.06-1.082l.4-1.986.141-.419a.8.8,0,0,1,.93-.527l.28.061a1,1,0,0,1,.744.695l-.011,1.577.6-.36a.245.245,0,0,1,.337.088h0a.244.244,0,0,1-.049.3l-.9.809-.529,1.92Z" transform="translate(-499.678 -170.459)" fill="#ffc2b0"/><path d="M516.077,202.854c.438,2-.791,17.5,3.21,21.344-1.538.013-4.487-1.355-4.38-3.365a122.873,122.873,0,0,0-.367-17c-1.569-2.033-5.885-3.327-8.586-5.933C506.153,197.955,515.644,200.877,516.077,202.854Z" transform="translate(-500.7 -173.833)" fill="#00223d"/><path d="M523.408,191.189l-.684-.7a5.561,5.561,0,0,1-2.027,1.348,10.552,10.552,0,0,1-1.618.335l-.439,1.212S522.219,193.126,523.408,191.189Z" transform="translate(-502.767 -172.626)" fill="#fff"/><path d="M517.008,185.549a.577.577,0,0,1-.531,0c-.291-.153-.763-1.31-1.368-1.226-.947.132-2.316,2.12-4.022-.652-.887-1.441-.367-2.218-.8-3.036,0,0,.152.445,3.866-1.823s6.751.5,7.693,2.076,1.553,4.668-.885,6.41a5.852,5.852,0,0,1-3.059-.445c-.054-.218.643-.568.249-1.078A.817.817,0,0,0,517.008,185.549Z" transform="translate(-501.406 -170.585)" fill="#00223d"/></g></g></g></g></svg>