<?xml version="1.0" encoding="utf-8"?>
<!-- Generator: Adobe Illustrator 25.2.3, SVG Export Plug-In . SVG Version: 6.00 Build 0)  -->
<svg version="1.1" id="Capa_1" xmlns="http://www.w3.org/2000/svg" xmlns:xlink="http://www.w3.org/1999/xlink" x="0px" y="0px"
	 viewBox="0 0 1037.9 393.6" style="enable-background:new 0 0 1037.9 393.6;" xml:space="preserve">
<style type="text/css">
	.st0{fill:#091C30;}
	.st1{fill:#21587B;}
	.st2{enable-background:new    ;}
	.st3{fill:none;stroke:#37A3A5;stroke-width:5;stroke-miterlimit:10;stroke-dasharray:12,3;}
	.st4{fill:none;stroke:#091C30;stroke-width:5;stroke-miterlimit:10;}
	.st5{fill:none;stroke:#21587B;stroke-width:5;stroke-miterlimit:10;}
</style>
<g transform="translate(-602.699 -859.396)">
	<g transform="translate(604.667 922.504)">
		<path class="st0" d="M117.4,54.4v42.5c0.2,1.1-0.5,2.1-1.6,2.2c-0.2,0-0.4,0-0.6,0c-5.5,0-10.9,0-16.4,0H61.9
			c-7.2,0-14.3,0-21.5,0c-0.4,0-0.8,0.2-0.9,0.6c-3.7,7.8-13.1,11.1-20.9,7.4c-2.2-1.1-4.2-2.6-5.7-4.6c-0.7-0.9-1.3-1.9-1.8-2.9
			c-0.1-0.3-0.4-0.5-0.8-0.5c-2.7,0-5.5,0-8.2,0c-1.1,0.1-2.1-0.6-2.2-1.7c0,0,0,0,0,0c0-0.2,0-0.4,0-0.5V12
			c-0.1-1.1,0.6-2.1,1.7-2.2c0.2,0,0.3,0,0.5,0c2.7,0,5.4,0,8.1,0c0.3,0,0.7-0.2,0.8-0.5c2.3-5.2,7.2-8.7,12.8-9.2
			c6.2-0.6,12.3,2.5,15.3,8c0.1,0.2,0.3,0.4,0.3,0.7c0.2,0.9,0.8,1,1.6,1c6.5,0,12.9,0,19.4,0h54.6c1.6,0,2.3,0.7,2.3,2.3
			c0,8.4,0,16.9,0,25.3C117.4,43,117.4,48.7,117.4,54.4L117.4,54.4z M113.5,95.3V13.6H41.1v81.6L113.5,95.3z M13.6,54.3L13.6,54.3
			l0,4.8c0,6.2,0,12.3,0,18.5c0,4.9,0,9.8,0,14.8c-0.1,2.4,0.5,4.8,1.8,6.9c2.3,3.9,6.7,6,11.2,5.5c6.1-0.6,10.7-5.7,10.7-11.8V16.2
			c0-0.8,0-1.5-0.1-2.3c-0.9-6.1-6.3-10.5-12.4-10c-4.4,0.2-8.3,2.9-10.1,7c-0.8,1.8-1.1,3.8-1,5.8C13.6,29.2,13.6,41.8,13.6,54.3
			L13.6,54.3z M9.8,95.2V13.6H4.7c-0.8,0-0.8,0-0.8,0.8v80.9L9.8,95.2z"/>
		<path class="st0" d="M86.1,42.8H66.9c-1.1,0.1-2.1-0.6-2.2-1.7c0-0.2,0-0.3,0-0.5c0-6.4,0-12.7,0-19.1c-0.1-1.1,0.7-2,1.7-2.1
			c0,0,0,0,0,0c0.1,0,0.2,0,0.4,0c8.9,0,17.8,0,26.6,0c3.9,0,7.9,0,11.8,0c1.1-0.2,2.1,0.6,2.3,1.7c0,0.2,0,0.4,0,0.6v18.8
			c0.2,1.1-0.6,2.1-1.7,2.3c0,0,0,0,0,0c-0.2,0-0.4,0-0.6,0c-5.7,0-11.3,0-17,0L86.1,42.8L86.1,42.8z M68.6,39h13
			c7.1,0,14.2,0,21.4,0c0.5,0,0.7-0.1,0.7-0.7c0-4.8,0-9.6,0-14.4c0-0.4-0.1-0.6-0.6-0.6c-4.6,0-9.2,0-13.9,0H68.6L68.6,39z"/>
		<path class="st0" d="M95.6,52.7c0-0.7,0-1.4,0.1-2.1c0.3-2.2,2.1-3.8,4.3-3.9c1.1-0.1,2.1-0.1,3.2,0c2.3,0.1,4.2,1.9,4.4,4.2
			c0.1,1.2,0.1,2.3,0,3.5c-0.2,2.3-2,4-4.2,4.2c-1.2,0.1-2.5,0.1-3.7,0c-2.3-0.3-4-2.2-4-4.5C95.7,53.6,95.7,53.1,95.6,52.7
			L95.6,52.7z M101.6,54.8L101.6,54.8c0.4,0,0.9,0,1.3,0c0.5,0,0.9-0.3,0.9-0.8c0,0,0,0,0,0c0,0,0-0.1,0-0.1c0-0.8,0-1.6,0-2.4
			c0-0.5-0.3-0.9-0.8-0.9c-0.1,0-0.1,0-0.2,0c-0.8,0-1.6,0-2.4,0c-0.6,0-0.9,0.3-0.9,1c0,0.8,0,1.5,0,2.3c-0.1,0.5,0.3,0.9,0.8,1
			c0.1,0,0.1,0,0.2,0C100.9,54.8,101.3,54.8,101.6,54.8L101.6,54.8z"/>
		<path class="st0" d="M64.4,52.6c0-0.8,0.1-1.5,0.2-2.3c0.4-2,2.1-3.5,4.1-3.6c1.1-0.1,2.3-0.1,3.4,0c2.5,0.2,4.4,2.2,4.3,4.7
			c0,0.8,0,1.6,0,2.4c0.1,2.4-1.7,4.5-4.1,4.7c-1.5,0.2-3,0.1-4.5-0.2c-1.9-0.5-3.3-2.2-3.4-4.2C64.4,53.7,64.4,53.2,64.4,52.6
			L64.4,52.6z M70.5,50.6L70.5,50.6c-0.5,0-0.9,0-1.4,0c-0.4,0-0.8,0.3-0.9,0.7c0,0,0,0.1,0,0.1c0,0.8,0,1.7,0,2.5
			c0,0.4,0.3,0.8,0.7,0.8c0,0,0,0,0,0c0,0,0.1,0,0.1,0c0.9,0,1.8,0,2.7,0c0.4,0,0.7-0.3,0.8-0.7c0,0,0,0,0-0.1c0-0.9,0-1.8,0-2.7
			c0-0.4-0.3-0.7-0.7-0.8c0,0,0,0,0,0c0,0-0.1,0-0.1,0C71.3,50.5,70.9,50.5,70.5,50.6L70.5,50.6z"/>
		<path class="st0" d="M92,52.6c0,0.7,0,1.3,0,2c-0.3,2.2-2,3.8-4.2,4c-1.2,0.1-2.5,0.1-3.7,0c-2.2-0.3-3.9-2.1-3.9-4.3
			c0-1.1,0-2.2,0-3.3c0.2-2.4,2.1-4.2,4.5-4.3c1.1-0.1,2.3-0.1,3.4,0c2.3,0.2,4,2.1,4.1,4.4C92.1,51.6,92,52.1,92,52.6L92,52.6z
			 M86.1,50.6L86.1,50.6l-1.1,0c0,0-0.1,0-0.1,0c-0.6,0-0.9,0.3-0.9,0.9c0,0.8,0,1.6,0,2.4c0,0.4,0.3,0.8,0.7,0.9c0,0,0.1,0,0.1,0
			c0.9,0,1.7,0,2.6,0c0.4,0,0.8-0.3,0.8-0.7v0c0-0.9,0-1.8,0-2.7c0-0.4-0.3-0.7-0.7-0.8c0,0-0.1,0-0.1,0
			C86.9,50.5,86.5,50.6,86.1,50.6L86.1,50.6z"/>
		<path class="st0" d="M101.6,89.8c-0.9,0-1.8-0.1-2.6-0.3c-1.8-0.4-3.1-2-3.2-3.8c-0.2-1.3-0.1-2.7,0-4c0.2-2.1,1.9-3.7,4-3.9
			c1.2-0.1,2.5-0.1,3.7,0c2.2,0.2,4,2,4.1,4.3c0.1,1.2,0.1,2.4,0,3.6c-0.3,2.3-2.2,4-4.5,4L101.6,89.8L101.6,89.8z M101.6,85.8
			c0.4,0,0.9,0,1.3,0c0.5,0,0.9-0.3,0.9-0.8c0,0,0-0.1,0-0.1c0-0.8,0-1.6,0-2.4c0-0.5-0.3-0.9-0.8-0.9c0,0,0,0,0,0c0,0-0.1,0-0.1,0
			c-0.8,0-1.7,0-2.5,0c-0.4,0-0.8,0.3-0.9,0.7v0.1c0,0.8,0,1.7,0,2.5c0,0.4,0.3,0.8,0.7,0.9c0,0,0,0,0,0c0,0,0.1,0,0.1,0
			C100.8,85.9,101.2,85.9,101.6,85.8L101.6,85.8z"/>
		<path class="st0" d="M70.4,74.2c-0.8,0-1.7-0.1-2.5-0.2c-2-0.5-3.4-2.3-3.5-4.3c0-0.9,0-1.9,0-2.8c0-2.6,2.1-4.6,4.7-4.6h0
			c1.2,0,2.3,0,3.5,0.1c2,0.3,3.6,2,3.7,4.1c0.1,1.2,0.1,2.4,0,3.6c-0.2,2.2-2,4-4.3,4.1C71.5,74.1,71,74.1,70.4,74.2L70.4,74.2z
			 M70.4,70.3h1.2c0.6,0,0.9-0.3,0.9-0.9c0-0.8,0-1.5,0-2.3c0-0.7-0.3-1-1-1c-0.8,0-1.6,0-2.4,0c-0.5,0-0.9,0.3-0.9,0.7
			c0,0,0,0.1,0,0.1c0,0.8,0,1.7,0,2.5c0,0.4,0.3,0.8,0.7,0.9c0,0,0,0,0,0c0,0,0.1,0,0.1,0C69.6,70.3,70,70.3,70.4,70.3z"/>
		<path class="st0" d="M85.8,89.7c-1.2,0.2-2.5-0.1-3.5-0.7c-1.3-0.8-2.1-2.2-2.2-3.7c0-1,0-2,0-3c0-2.3,1.7-4.2,4-4.5
			c1.4-0.1,2.7-0.1,4.1,0c2.2,0.3,3.8,2.2,3.9,4.4c0,1,0,2,0,3.1c-0.1,2.4-2,4.3-4.4,4.4C87.1,89.7,86.6,89.7,85.8,89.7z M88.2,83.7
			c0-0.4,0-0.8,0-1.2c0-0.5-0.3-0.9-0.8-0.9c0,0-0.1,0-0.1,0c-0.8,0-1.7,0-2.5,0c-0.4,0-0.8,0.3-0.9,0.7c0,0,0,0,0,0
			c0,0,0,0.1,0,0.1c0,0.9,0,1.7,0,2.5c0,0.4,0.3,0.8,0.7,0.8c0,0,0,0,0,0c0,0,0.1,0,0.1,0c0.9,0,1.7,0,2.6,0c0.4,0,0.8-0.3,0.8-0.7
			c0,0,0-0.1,0-0.1C88.2,84.6,88.2,84.1,88.2,83.7L88.2,83.7z"/>
		<path class="st0" d="M101.7,74.1c-1.1,0.1-2.3,0-3.4-0.5c-1.4-0.6-2.4-2-2.5-3.5c-0.1-1.4-0.1-2.7,0-4.1c0.3-2.2,2.2-3.8,4.5-3.9
			c0.9,0,1.7,0,2.6,0c2.5-0.1,4.6,1.8,4.8,4.3c0.1,1.2,0.1,2.4-0.1,3.6c-0.3,2.2-2.1,3.9-4.3,4C102.7,74.2,102.2,74.1,101.7,74.1z
			 M101.6,70.3h1.2c0.6,0,0.9-0.3,0.9-0.9c0-0.8,0-1.6,0-2.4c0-0.5-0.3-0.9-0.8-0.9c0,0-0.1,0-0.1,0c-0.8,0-1.7,0-2.5,0
			c-0.5,0-0.9,0.3-0.9,0.8c0,0,0,0.1,0,0.1c0,0.8,0,1.6,0,2.4c0,0.4,0.3,0.8,0.7,0.9c0,0,0.1,0,0.1,0
			C100.8,70.3,101.2,70.3,101.6,70.3L101.6,70.3z"/>
		<path class="st0" d="M70.3,89.9c-1.1-0.1-2.1-0.3-3.1-0.6c-1.7-0.6-2.8-2.2-2.8-4c-0.1-1.3,0-2.5,0.1-3.8c0.3-2,1.9-3.5,3.9-3.7
			c1.3-0.1,2.7-0.1,4,0c2.2,0.3,3.9,2.2,3.9,4.4c0,1,0,1.9,0,2.9c-0.1,2.5-2.1,4.5-4.7,4.5h-1.4L70.3,89.9z M72.5,83.8L72.5,83.8
			v-1.3c0-0.4-0.3-0.8-0.7-0.8c0,0,0,0,0,0c0,0-0.1,0-0.1,0c-0.9,0-1.7,0-2.6,0c-0.4,0-0.8,0.3-0.8,0.7c0,0,0,0,0,0c0,0,0,0.1,0,0.1
			c0,0.9,0,1.7,0,2.5c0,0.4,0.3,0.8,0.7,0.8c0,0,0.1,0,0.1,0c0.9,0,1.7,0,2.6,0c0.4,0,0.8-0.3,0.8-0.7c0,0,0,0,0,0c0,0,0-0.1,0-0.1
			C72.5,84.6,72.5,84.2,72.5,83.8L72.5,83.8z"/>
		<path class="st0" d="M86,74.1c-1.2,0.2-2.4-0.1-3.5-0.6c-1.4-0.8-2.4-2.2-2.4-3.9c0-1,0-2,0-3c0.1-2.5,2.1-4.5,4.6-4.5
			c1.2,0,2.3,0,3.5,0.1c2.2,0.3,3.9,2.2,3.9,4.4c0,0.9,0,1.9,0,2.8c0,2.5-2,4.5-4.5,4.6C87,74.2,86.5,74.1,86,74.1z M88.2,68.2
			c0-0.4,0-0.8,0-1.2c0-0.5-0.3-0.9-0.7-0.9c-0.1,0-0.1,0-0.2,0c-0.8,0-1.6,0-2.4,0C84.4,66,84,66.3,84,66.8c0,0.1,0,0.2,0,0.2
			c0,0.7,0,1.4,0,2c-0.1,0.9,0.4,1.3,1.2,1.3c0.7,0,1.5,0,2.2-0.1c0.4,0,0.8-0.3,0.8-0.7c0,0,0,0,0,0c0,0,0-0.1,0-0.1
			C88.2,69,88.2,68.6,88.2,68.2L88.2,68.2z"/>
	</g>
	<g transform="translate(604.667 1043.88)">
		<path class="st0" d="M117.4,54.4v42.5c0.2,1.1-0.5,2.1-1.6,2.2c-0.2,0-0.4,0-0.6,0c-5.5,0-10.9,0-16.4,0H61.9
			c-7.2,0-14.3,0-21.5,0c-0.4,0-0.8,0.2-0.9,0.6c-3.7,7.8-13.1,11.1-20.9,7.4c-2.2-1.1-4.2-2.6-5.7-4.6c-0.7-0.9-1.3-1.9-1.8-2.9
			c-0.1-0.3-0.4-0.5-0.8-0.5c-2.7,0-5.5,0-8.2,0c-1.1,0.1-2.1-0.6-2.2-1.7c0,0,0,0,0,0c0-0.2,0-0.4,0-0.5V12
			c-0.1-1.1,0.6-2.1,1.7-2.2c0.2,0,0.3,0,0.5,0c2.7,0,5.4,0,8.1,0c0.3,0,0.7-0.2,0.8-0.5c2.3-5.2,7.2-8.7,12.8-9.2
			c6.2-0.6,12.3,2.5,15.3,8c0.1,0.2,0.3,0.4,0.3,0.7c0.2,0.9,0.8,1,1.6,1c6.5,0,12.9,0,19.4,0h54.6c1.6,0,2.3,0.7,2.3,2.3
			c0,8.4,0,16.9,0,25.3C117.4,43,117.4,48.7,117.4,54.4L117.4,54.4z M113.5,95.3V13.6H41.1v81.6L113.5,95.3z M13.6,54.3L13.6,54.3
			l0,4.8c0,6.2,0,12.3,0,18.5c0,4.9,0,9.8,0,14.8c-0.1,2.4,0.5,4.8,1.8,6.9c2.3,3.9,6.7,6,11.2,5.5c6.1-0.6,10.7-5.7,10.7-11.8V16.2
			c0-0.8,0-1.5-0.1-2.3c-0.9-6.1-6.3-10.5-12.4-10c-4.4,0.2-8.3,2.9-10.1,7c-0.8,1.8-1.1,3.8-1,5.8C13.6,29.2,13.6,41.8,13.6,54.3
			L13.6,54.3z M9.8,95.2V13.6H4.7c-0.8,0-0.8,0-0.8,0.8v80.9L9.8,95.2z"/>
		<path class="st0" d="M86.1,42.8H66.9c-1.1,0.1-2.1-0.6-2.2-1.7c0-0.2,0-0.3,0-0.5c0-6.4,0-12.7,0-19.1c-0.1-1.1,0.7-2,1.7-2.1
			c0,0,0,0,0,0c0.1,0,0.2,0,0.4,0c8.9,0,17.8,0,26.6,0c3.9,0,7.9,0,11.8,0c1.1-0.2,2.1,0.6,2.3,1.7c0,0.2,0,0.4,0,0.6v18.8
			c0.2,1.1-0.6,2.1-1.7,2.3c-0.2,0-0.4,0-0.6,0c-5.7,0-11.3,0-17,0L86.1,42.8L86.1,42.8z M68.6,39h13c7.1,0,14.2,0,21.4,0
			c0.5,0,0.7-0.1,0.7-0.7c0-4.8,0-9.6,0-14.4c0-0.4-0.1-0.6-0.6-0.6c-4.6,0-9.2,0-13.9,0H68.6L68.6,39z"/>
		<path class="st0" d="M95.6,52.6c0-0.7,0-1.4,0.1-2.1c0.3-2.2,2.1-3.8,4.3-3.9c1.1-0.1,2.1-0.1,3.2,0c2.3,0.1,4.2,1.9,4.4,4.2
			c0.1,1.2,0.1,2.3,0,3.5c-0.2,2.3-2,4-4.2,4.2c-1.2,0.1-2.5,0.1-3.7,0c-2.3-0.3-4-2.2-4-4.5C95.7,53.6,95.7,53.1,95.6,52.6
			L95.6,52.6z M101.6,54.8L101.6,54.8c0.4,0,0.9,0,1.3,0c0.5,0,0.9-0.3,0.9-0.8c0,0,0-0.1,0-0.1c0-0.8,0-1.6,0-2.4
			c0-0.5-0.3-0.9-0.8-0.9c-0.1,0-0.1,0-0.2,0c-0.8,0-1.6,0-2.4,0c-0.6,0-0.9,0.3-0.9,0.9c0,0.8,0,1.5,0,2.3c-0.1,0.5,0.3,0.9,0.8,1
			c0.1,0,0.1,0,0.2,0C100.9,54.8,101.3,54.8,101.6,54.8L101.6,54.8z"/>
		<path class="st0" d="M64.4,52.6c0-0.8,0.1-1.5,0.2-2.3c0.4-2,2.1-3.5,4.1-3.6c1.1-0.1,2.3-0.1,3.4,0c2.5,0.2,4.4,2.2,4.3,4.7
			c0,0.8,0,1.6,0,2.4c0.1,2.4-1.7,4.5-4.1,4.7c-1.5,0.2-3,0.1-4.5-0.2c-1.9-0.5-3.3-2.2-3.4-4.2C64.4,53.7,64.4,53.2,64.4,52.6
			L64.4,52.6z M70.5,50.6L70.5,50.6c-0.5,0-0.9,0-1.4,0c-0.4,0-0.8,0.3-0.9,0.7c0,0,0,0,0,0c0,0,0,0.1,0,0.1c0,0.8,0,1.7,0,2.5
			c0,0.4,0.3,0.8,0.7,0.8c0,0,0,0,0,0c0,0,0.1,0,0.1,0c0.9,0,1.8,0,2.7,0c0.4,0,0.7-0.3,0.8-0.7c0,0,0,0,0-0.1c0-0.9,0-1.8,0-2.7
			c0-0.4-0.3-0.7-0.7-0.8c0,0,0,0,0,0h-0.1C71.3,50.5,70.9,50.5,70.5,50.6L70.5,50.6z"/>
		<path class="st0" d="M92,52.6c0,0.7,0,1.3,0,2c-0.3,2.2-2,3.8-4.2,4c-1.2,0.1-2.5,0.1-3.7,0c-2.2-0.3-3.9-2.1-3.9-4.3
			c0-1.1,0-2.2,0-3.3c0.2-2.4,2.1-4.2,4.5-4.3c1.1-0.1,2.3-0.1,3.4,0c2.3,0.2,4,2.1,4.1,4.4C92.1,51.6,92,52.1,92,52.6L92,52.6z
			 M86.1,50.6L86.1,50.6l-1.1,0c0,0-0.1,0-0.1,0c-0.6,0-0.9,0.3-0.9,0.9c0,0.8,0,1.6,0,2.4c0,0.4,0.3,0.8,0.7,0.9c0,0,0.1,0,0.1,0
			c0.9,0,1.7,0,2.6,0c0.4,0,0.8-0.3,0.8-0.7c0,0,0,0,0,0v0c0-0.9,0-1.8,0-2.7c0-0.4-0.3-0.7-0.7-0.8c0,0,0,0,0,0c0,0-0.1,0-0.1,0
			C86.9,50.6,86.5,50.6,86.1,50.6L86.1,50.6z"/>
		<path class="st0" d="M101.6,89.8c-0.9,0-1.8-0.1-2.6-0.3c-1.8-0.4-3.1-2-3.2-3.8c-0.2-1.3-0.1-2.7,0-4c0.2-2.1,1.9-3.7,4-3.9
			c1.2-0.1,2.5-0.1,3.7,0c2.2,0.2,4,2,4.1,4.3c0.1,1.2,0.1,2.4,0,3.6c-0.3,2.3-2.2,4-4.5,4L101.6,89.8L101.6,89.8z M101.6,85.8
			c0.4,0,0.9,0,1.3,0c0.5,0,0.9-0.3,0.9-0.8c0,0,0,0,0,0c0,0,0-0.1,0-0.1c0-0.8,0-1.6,0-2.4c0-0.5-0.3-0.9-0.8-0.9c0,0-0.1,0-0.1,0
			c-0.8,0-1.7,0-2.5,0c-0.4,0-0.8,0.3-0.9,0.7c0,0,0,0,0,0v0.1c0,0.8,0,1.7,0,2.5c0,0.4,0.3,0.8,0.8,0.9c0,0,0.1,0,0.1,0
			C100.8,85.9,101.2,85.9,101.6,85.8L101.6,85.8z"/>
		<path class="st0" d="M70.4,74.2c-0.8,0-1.7-0.1-2.5-0.2c-2-0.5-3.4-2.3-3.5-4.3c0-0.9,0-1.9,0-2.8c0-2.6,2.1-4.6,4.7-4.6h0
			c1.2,0,2.3,0,3.5,0.1c2,0.3,3.6,2,3.7,4.1c0.1,1.2,0.1,2.4,0,3.6c-0.2,2.2-2,4-4.3,4.1C71.5,74.1,71,74.1,70.4,74.2L70.4,74.2z
			 M70.4,70.3h1.2c0.6,0,0.9-0.3,0.9-0.9c0-0.8,0-1.5,0-2.3c0-0.7-0.3-1-1-1c-0.8,0-1.6,0-2.4,0c-0.5,0-0.9,0.3-0.9,0.7c0,0,0,0,0,0
			c0,0,0,0.1,0,0.1c0,0.8,0,1.7,0,2.5c0,0.4,0.3,0.8,0.7,0.9c0,0,0,0,0,0c0,0,0.1,0,0.1,0C69.6,70.3,70,70.3,70.4,70.3z"/>
		<path class="st0" d="M85.8,89.7c-1.2,0.2-2.5-0.1-3.5-0.7c-1.3-0.8-2.1-2.2-2.2-3.7c0-1,0-2,0-3c0-2.3,1.7-4.2,4-4.5
			c1.4-0.1,2.7-0.1,4.1,0c2.2,0.3,3.8,2.2,3.9,4.4c0,1,0,2.1,0,3.1c-0.1,2.4-2,4.3-4.4,4.4C87.1,89.7,86.6,89.7,85.8,89.7z
			 M88.2,83.7c0-0.4,0-0.8,0-1.2c0-0.5-0.3-0.9-0.8-0.9c0,0,0,0,0,0c0,0-0.1,0-0.1,0c-0.8,0-1.7,0-2.5,0c-0.4,0-0.8,0.3-0.9,0.7
			c0,0,0,0.1,0,0.1c0,0.8,0,1.7,0,2.5c0,0.4,0.3,0.8,0.7,0.8c0,0,0,0,0,0c0,0,0.1,0,0.1,0c0.9,0,1.7,0,2.6,0c0.4,0,0.8-0.3,0.8-0.7
			c0,0,0-0.1,0-0.1C88.2,84.6,88.2,84.1,88.2,83.7L88.2,83.7z"/>
		<path class="st0" d="M101.7,74.1c-1.1,0.1-2.3,0-3.4-0.5c-1.4-0.6-2.4-2-2.5-3.5c-0.1-1.4-0.1-2.7,0-4.1c0.3-2.2,2.2-3.8,4.5-3.9
			c0.9,0,1.7,0,2.6,0c2.5-0.1,4.6,1.8,4.8,4.3c0.1,1.2,0.1,2.4-0.1,3.6c-0.3,2.2-2.1,3.9-4.3,4C102.7,74.2,102.2,74.1,101.7,74.1z
			 M101.6,70.3h1.2c0.6,0,0.9-0.3,0.9-0.9c0-0.8,0-1.6,0-2.4c0-0.5-0.3-0.9-0.8-0.9c0,0,0,0,0,0c0,0-0.1,0-0.1,0c-0.8,0-1.7,0-2.5,0
			c-0.5,0-0.9,0.3-0.9,0.8c0,0,0,0,0,0c0,0,0,0.1,0,0.1c0,0.8,0,1.6,0,2.4c0,0.4,0.3,0.8,0.7,0.9c0,0,0.1,0,0.1,0
			C100.8,70.3,101.2,70.3,101.6,70.3L101.6,70.3z"/>
		<path class="st0" d="M70.3,89.9c-1.1-0.1-2.1-0.3-3.1-0.6c-1.7-0.6-2.8-2.2-2.8-4c-0.1-1.3,0-2.5,0.1-3.8c0.3-2,1.9-3.5,3.9-3.7
			c1.3-0.1,2.7-0.1,4,0c2.2,0.3,3.9,2.2,3.9,4.4c0,1,0,1.9,0,2.9c-0.1,2.5-2.1,4.5-4.7,4.5h-1.4L70.3,89.9z M72.5,83.8L72.5,83.8
			v-1.3c0-0.4-0.3-0.8-0.7-0.8c0,0-0.1,0-0.1,0c-0.9,0-1.7,0-2.6,0c-0.4,0-0.8,0.3-0.8,0.7c0,0,0,0,0,0c0,0,0,0.1,0,0.1
			c0,0.9,0,1.7,0,2.5c0,0.4,0.3,0.8,0.7,0.8c0,0,0.1,0,0.1,0c0.9,0,1.7,0,2.6,0c0.4,0,0.8-0.3,0.8-0.7c0,0,0,0,0,0c0,0,0-0.1,0-0.1
			C72.5,84.6,72.5,84.2,72.5,83.8L72.5,83.8z"/>
		<path class="st0" d="M86,74.1c-1.2,0.2-2.4,0-3.5-0.6c-1.4-0.8-2.4-2.2-2.4-3.9c0-1,0-2,0-3c0.1-2.5,2.1-4.5,4.6-4.5
			c1.2,0,2.3,0,3.5,0.1c2.2,0.3,3.9,2.2,3.9,4.4c0,0.9,0,1.9,0,2.8c0,2.5-2,4.5-4.5,4.6C87,74.2,86.5,74.1,86,74.1z M88.2,68.2
			c0-0.4,0-0.8,0-1.2c0-0.5-0.3-0.9-0.7-0.9c-0.1,0-0.1,0-0.2,0c-0.8,0-1.6,0-2.4,0C84.4,66,84,66.3,84,66.8c0,0.1,0,0.2,0,0.2
			c0,0.7,0,1.4,0,2c-0.1,0.9,0.4,1.3,1.2,1.3c0.7,0,1.5,0,2.2-0.1c0.4,0,0.8-0.3,0.8-0.7c0,0,0,0,0,0c0,0,0-0.1,0-0.1
			C88.2,69,88.2,68.6,88.2,68.2z"/>
	</g>
	<g transform="translate(1490.152 1045.2)">
		<path class="st1" d="M117.4,54.4v42.5c0.2,1.1-0.5,2.1-1.6,2.2c0,0,0,0,0,0c-0.2,0-0.4,0-0.6,0c-5.5,0-10.9,0-16.4,0H61.9
			c-7.2,0-14.3,0-21.5,0c-0.4,0-0.8,0.2-0.9,0.6c-3.7,7.8-13.1,11.1-20.9,7.4c-2.2-1.1-4.2-2.6-5.7-4.6c-0.7-0.9-1.3-1.9-1.8-2.9
			c-0.1-0.3-0.4-0.5-0.8-0.5c-2.7,0-5.5,0-8.2,0c-1.1,0.1-2.1-0.6-2.2-1.7c0,0,0,0,0,0c0-0.2,0-0.4,0-0.5V12
			c-0.1-1.1,0.6-2.1,1.7-2.2c0.2,0,0.3,0,0.5,0c2.7,0,5.4,0,8.1,0c0.3,0,0.7-0.2,0.8-0.5c2.3-5.2,7.2-8.7,12.8-9.2
			c6.2-0.6,12.3,2.5,15.3,8c0.1,0.2,0.3,0.4,0.3,0.7c0.2,0.9,0.8,1,1.6,1c6.5,0,12.9,0,19.4,0h54.6c1.6,0,2.3,0.7,2.3,2.3
			c0,8.4,0,16.9,0,25.3C117.4,43,117.4,48.7,117.4,54.4L117.4,54.4z M113.5,95.3V13.6H41.1v81.6L113.5,95.3z M13.6,54.3L13.6,54.3
			l0,4.8c0,6.2,0,12.3,0,18.5c0,4.9,0,9.8,0,14.8c-0.1,2.4,0.5,4.8,1.8,6.9c2.3,3.9,6.7,6,11.2,5.5c6.1-0.6,10.7-5.7,10.7-11.8V16.2
			c0-0.8,0-1.5-0.1-2.3c-0.9-6.1-6.3-10.5-12.4-10c-4.4,0.2-8.3,2.9-10.1,7c-0.8,1.8-1.1,3.8-1,5.8C13.6,29.2,13.6,41.8,13.6,54.3
			L13.6,54.3z M9.8,95.2V13.6H4.7c-0.8,0-0.8,0-0.8,0.8v80.9L9.8,95.2z"/>
		<path class="st1" d="M86.1,42.8H66.9c-1.1,0.1-2.1-0.6-2.2-1.7c0,0,0,0,0,0c0-0.2,0-0.3,0-0.5c0-6.4,0-12.7,0-19.1
			c-0.1-1.1,0.7-2,1.7-2.1c0.1,0,0.3,0,0.4,0c8.9,0,17.8,0,26.6,0c3.9,0,7.9,0,11.8,0c1.1-0.2,2.1,0.6,2.3,1.7c0,0,0,0,0,0
			c0,0.2,0,0.4,0,0.6v18.8c0.2,1.1-0.6,2.1-1.7,2.3c0,0,0,0,0,0c-0.2,0-0.4,0-0.6,0c-5.7,0-11.3,0-17,0L86.1,42.8L86.1,42.8z
			 M68.6,39h13c7.1,0,14.2,0,21.4,0c0.5,0,0.7-0.1,0.7-0.7c0-4.8,0-9.6,0-14.4c0-0.4-0.1-0.6-0.6-0.6c-4.6,0-9.2,0-13.9,0H68.6
			L68.6,39z"/>
		<path class="st1" d="M95.6,52.6c0-0.7,0.1-1.4,0.1-2.1c0.3-2.2,2.1-3.8,4.3-3.9c1.1-0.1,2.1-0.1,3.2,0c2.3,0.1,4.2,1.9,4.4,4.2
			c0.1,1.2,0.1,2.3,0,3.5c-0.2,2.3-2,4-4.2,4.2c-1.2,0.1-2.5,0.1-3.7,0c-2.3-0.3-4-2.2-4-4.5C95.7,53.6,95.7,53.1,95.6,52.6
			L95.6,52.6z M101.6,54.8L101.6,54.8c0.4,0,0.9,0,1.3,0c0.5,0,0.9-0.3,0.9-0.8c0,0,0,0,0,0v-0.1c0-0.8,0-1.6,0-2.4
			c0-0.5-0.3-0.9-0.8-0.9c0,0,0,0,0,0c-0.1,0-0.1,0-0.2,0c-0.8,0-1.6,0-2.4,0c-0.6,0-0.9,0.3-0.9,0.9c0,0.8,0,1.5,0,2.3
			c-0.1,0.5,0.3,0.9,0.8,1c0.1,0,0.1,0,0.2,0C100.9,54.8,101.3,54.8,101.6,54.8L101.6,54.8z"/>
		<path class="st1" d="M64.4,52.6c0-0.8,0.1-1.5,0.2-2.3c0.4-2,2.1-3.5,4.1-3.6c1.1-0.1,2.3-0.1,3.4,0c2.5,0.2,4.4,2.2,4.3,4.7
			c0,0.8,0,1.6,0,2.4c0.1,2.4-1.7,4.5-4.1,4.7c-1.5,0.2-3,0.1-4.5-0.2c-1.9-0.5-3.3-2.2-3.4-4.2C64.4,53.7,64.4,53.2,64.4,52.6
			L64.4,52.6z M70.5,50.6L70.5,50.6c-0.5,0-0.9,0-1.4,0c-0.4,0-0.8,0.3-0.9,0.7c0,0,0,0,0,0c0,0,0,0.1,0,0.1c0,0.8,0,1.7,0,2.5
			c0,0.4,0.3,0.8,0.7,0.8c0,0,0.1,0,0.1,0c0.9,0,1.8,0,2.7,0c0.4,0,0.7-0.3,0.8-0.7c0,0,0,0,0-0.1c0-0.9,0-1.8,0-2.7
			c0-0.4-0.3-0.7-0.7-0.8c0,0-0.1,0-0.1,0C71.3,50.5,70.9,50.6,70.5,50.6L70.5,50.6z"/>
		<path class="st1" d="M92,52.6c0,0.7,0,1.3,0,2c-0.3,2.2-2,3.8-4.2,4c-1.2,0.1-2.5,0.1-3.7,0c-2.2-0.3-3.9-2.1-3.9-4.3
			c0-1.1,0-2.2,0-3.3c0.2-2.4,2.1-4.2,4.5-4.3c1.1-0.1,2.3-0.1,3.4,0c2.3,0.2,4,2.1,4.1,4.4C92.1,51.6,92,52.1,92,52.6L92,52.6z
			 M86.1,50.6L86.1,50.6l-1.1,0c0,0-0.1,0-0.1,0c-0.6,0-0.9,0.3-0.9,0.9c0,0.8,0,1.6,0,2.4c0,0.4,0.3,0.8,0.7,0.9c0,0,0.1,0,0.1,0
			c0.9,0,1.7,0,2.6,0c0.4,0,0.8-0.3,0.8-0.7c0,0,0,0,0,0v0c0-0.9,0-1.8,0-2.7c0-0.4-0.3-0.7-0.7-0.8c0,0-0.1,0-0.1,0
			C86.9,50.6,86.5,50.6,86.1,50.6L86.1,50.6z"/>
		<path class="st1" d="M101.6,89.8c-0.9,0-1.8-0.1-2.6-0.3c-1.8-0.4-3.1-2-3.2-3.8c-0.1-1.3-0.1-2.7,0-4c0.2-2.1,1.9-3.7,4-3.9
			c1.2-0.1,2.5-0.1,3.7,0c2.2,0.2,4,2,4.1,4.3c0.1,1.2,0.1,2.4,0,3.6c-0.3,2.3-2.2,4-4.5,4L101.6,89.8L101.6,89.8z M101.6,85.8
			c0.4,0,0.9,0,1.3,0c0.5,0,0.9-0.3,0.9-0.8c0,0,0,0,0,0c0,0,0-0.1,0-0.1c0-0.8,0-1.6,0-2.4c0-0.5-0.3-0.9-0.8-0.9c0,0-0.1,0-0.1,0
			c-0.8,0-1.7,0-2.5,0c-0.4,0-0.8,0.3-0.9,0.7c0,0,0,0,0,0c0,0,0,0.1,0,0.1c0,0.8,0,1.7,0,2.5c0,0.4,0.3,0.8,0.8,0.9
			c0,0,0.1,0,0.1,0C100.9,85.9,101.3,85.8,101.6,85.8L101.6,85.8z"/>
		<path class="st1" d="M70.4,74.2c-0.8,0-1.7-0.1-2.5-0.2c-2-0.5-3.4-2.3-3.5-4.3c0-0.9,0-1.9,0-2.8c0-2.6,2.1-4.6,4.7-4.6l0,0h0
			c1.2,0,2.3,0,3.5,0.1c2,0.3,3.6,2,3.7,4.1c0.1,1.2,0.1,2.4,0,3.6c-0.2,2.2-2,4-4.3,4.1C71.5,74.1,71,74.1,70.4,74.2L70.4,74.2z
			 M70.4,70.3h1.2c0.6,0,0.9-0.3,0.9-0.9c0-0.8,0-1.5,0-2.3c0-0.7-0.3-1-1-1c-0.8,0-1.6,0-2.4,0c-0.5,0-0.9,0.3-0.9,0.7
			c0,0,0,0.1,0,0.1c0,0.8,0,1.7,0,2.5c0,0.4,0.3,0.8,0.7,0.9c0,0,0.1,0,0.1,0C69.6,70.3,70,70.3,70.4,70.3z"/>
		<path class="st1" d="M85.8,89.7c-1.2,0.2-2.5-0.1-3.5-0.7c-1.3-0.8-2.1-2.2-2.2-3.7c0-1,0-2,0-3c0-2.3,1.7-4.2,4-4.5
			c1.4-0.1,2.7-0.1,4.1,0c2.2,0.3,3.8,2.2,3.9,4.4c0,1,0,2,0,3.1c-0.1,2.4-2,4.3-4.4,4.4C87.1,89.7,86.6,89.7,85.8,89.7z M88.2,83.7
			c0-0.4,0-0.8,0-1.2c0-0.5-0.3-0.9-0.8-0.9c0,0,0,0,0,0c0,0-0.1,0-0.1,0c-0.8,0-1.7,0-2.5,0c-0.4,0-0.8,0.3-0.9,0.7
			c0,0,0,0.1,0,0.1c0,0.9,0,1.7,0,2.5c0,0.4,0.3,0.8,0.7,0.8c0,0,0,0,0,0c0,0,0.1,0,0.1,0c0.9,0,1.7,0,2.6,0c0.4,0,0.8-0.3,0.8-0.7
			V85C88.2,84.6,88.2,84.1,88.2,83.7z"/>
		<path class="st1" d="M101.7,74.1c-1.1,0.1-2.3,0-3.4-0.5c-1.4-0.6-2.4-2-2.5-3.5c-0.1-1.4-0.1-2.7,0-4.1c0.3-2.2,2.2-3.8,4.5-3.9
			c0.9,0,1.7,0,2.6,0c2.5-0.1,4.6,1.8,4.8,4.3c0.1,1.2,0.1,2.4-0.1,3.6c-0.3,2.2-2.1,3.9-4.3,4C102.7,74.2,102.2,74.1,101.7,74.1z
			 M101.6,70.3h1.2c0.6,0,0.9-0.3,0.9-0.9c0-0.8,0-1.6,0-2.4c0-0.5-0.3-0.9-0.8-0.9c0,0,0,0,0,0c0,0-0.1,0-0.1,0c-0.8,0-1.7,0-2.5,0
			c-0.5,0-0.9,0.3-0.9,0.8c0,0,0,0.1,0,0.1c0,0.8,0,1.6,0,2.4c0,0.4,0.3,0.8,0.7,0.9c0,0,0.1,0,0.1,0
			C100.8,70.3,101.2,70.3,101.6,70.3L101.6,70.3z"/>
		<path class="st1" d="M70.3,89.9c-1.1-0.1-2.1-0.3-3.1-0.6c-1.7-0.6-2.8-2.2-2.8-4c-0.1-1.3,0-2.5,0.1-3.8c0.3-2,1.9-3.5,3.9-3.7
			c1.3-0.1,2.7-0.1,4,0c2.2,0.3,3.9,2.2,3.9,4.4c0,1,0,1.9,0,2.9c-0.1,2.5-2.1,4.5-4.7,4.5h-1.4L70.3,89.9z M72.5,83.8L72.5,83.8
			v-1.3c0-0.4-0.3-0.8-0.7-0.8c0,0-0.1,0-0.1,0c-0.9,0-1.7,0-2.6,0c-0.4,0-0.8,0.3-0.8,0.7c0,0,0,0.1,0,0.1c0,0.8,0,1.7,0,2.5
			c0,0.4,0.3,0.8,0.7,0.8c0,0,0,0,0,0c0,0,0.1,0,0.1,0c0.9,0,1.7,0,2.6,0c0.4,0,0.8-0.3,0.8-0.7c0,0,0-0.1,0-0.1
			C72.5,84.6,72.5,84.2,72.5,83.8L72.5,83.8z"/>
		<path class="st1" d="M86,74.1c-1.2,0.2-2.4-0.1-3.5-0.6c-1.4-0.8-2.4-2.2-2.4-3.9c0-1,0-2,0-3c0.1-2.5,2.1-4.5,4.6-4.5
			c1.2,0,2.3,0,3.5,0.1c2.2,0.3,3.9,2.2,3.9,4.4c0,0.9,0,1.9,0,2.8c0,2.5-2,4.5-4.5,4.6C87,74.2,86.5,74.1,86,74.1z M88.2,68.2
			c0-0.4,0-0.8,0-1.2c0-0.5-0.3-0.9-0.7-0.9c-0.1,0-0.1,0-0.2,0c-0.8,0-1.6,0-2.4,0C84.4,66,84,66.3,84,66.8c0,0.1,0,0.2,0,0.2
			c0,0.7,0,1.4,0,2c-0.1,0.9,0.4,1.3,1.2,1.3c0.7,0,1.5,0,2.2-0.1c0.4,0,0.8-0.3,0.8-0.7c0,0,0-0.1,0-0.1
			C88.2,69,88.2,68.6,88.2,68.2L88.2,68.2z"/>
	</g>
	<g transform="translate(824.41 895.54)">
		<path class="st0" d="M94.9,56.3h4.1c1.1,0,2,0.8,2.1,1.9c0,0,0,0,0,0v0.1c0,1.3,0,2.6,0,3.9v0.5h7.3c2.2-0.1,4.1,1.6,4.2,3.8
			c0,0.1,0,0.3,0,0.4v25.2c0.1,2.2-1.7,4-3.9,4.1c0,0,0,0,0,0h-2v5.1c0,2.3,0,4.5-0.1,6.8c0,1.1-0.8,2-1.9,2c0,0,0,0,0,0h-9.6
			c-1.1,0-2-0.8-2-1.9c0-0.1,0-0.1,0-0.2v-4.4H20.6c0,0.2,0,0.3,0,0.4v3.8c0.1,1.1-0.7,2.1-1.8,2.1c0,0,0,0,0,0c-0.1,0-0.2,0-0.3,0
			H9.1c-1.1,0.1-2-0.7-2.1-1.8c0-0.1,0-0.2,0-0.3V96.2H5.9c-1,0-2,0-3-0.2c-1.7-0.4-3-2-2.9-3.8V66.9c-0.1-2.2,1.5-4.1,3.7-4.2
			c0,0,0,0,0,0c0.2,0,0.3,0,0.5,0h7.8v-4.3c-0.1-1.1,0.8-2,1.9-2.1c0.1,0,0.1,0,0.2,0H19V2.1c-0.1-1.1,0.7-2,1.8-2.1c0,0,0,0,0,0
			c1.1-0.1,2,0.7,2.1,1.8L23,2c0,0.5,0,1,0,1.5v52.8h4.6c1.1,0,2,0.8,2,1.9c0,0,0,0,0,0c0,0,0,0.1,0,0.1v4.3h55.1c0-0.1,0-0.3,0-0.4
			c0-1.2,0-2.5,0-3.7c-0.1-1.2,0.8-2.2,1.9-2.3c0.1,0,0.2,0,0.4,0c1.3,0.1,2.6,0,3.8,0c0,0,0.1,0,0.1,0V2.1C90.8,1,91.7,0.1,92.8,0
			c0.3,0,0.5,0,0.8,0.1c0.9,0.3,1.4,1.2,1.3,2.1v16.1c0,1.2,0,2.3,0,3.5c0,0.4,0,0.7,0,1.1v33L94.9,56.3z M4,92.2h104.6V66.7H4V92.2
			z M102.8,96.2H11v3.4h91.8L102.8,96.2z M16.1,60.3v2.4h9.6v-2.4H16.1z M97.1,60.3h-8.4v2.4h8.4L97.1,60.3z M11,106h5.6v-2.4H11
			V106z M102.8,103.6h-5.6v2.4h5.6V103.6z"/>
		<path class="st0" d="M56.7,2.4c6,0,11.9,1.5,17.1,4.3c2.9,1.6,5.6,3.6,8,6c0.9,0.7,1,2,0.3,2.8c-0.3,0.3-0.6,0.5-1,0.7
			c-0.7,0.2-1.5,0-2-0.5c-1.9-1.9-4.1-3.6-6.4-4.9c-3.5-2.1-7.4-3.4-11.5-4c-9.8-1.4-19.7,1.8-26.8,8.8c-0.6,0.7-1.6,1-2.5,0.6
			c-1-0.5-1.4-1.7-0.9-2.6c0,0,0,0,0,0c0.1-0.2,0.2-0.4,0.4-0.5c1.4-1.5,3-2.8,4.7-3.9c3.5-2.5,7.5-4.3,11.7-5.4
			C50.7,2.7,53.7,2.4,56.7,2.4z"/>
		<path class="st0" d="M56.4,13.5c4.4,0,8.7,0.9,12.7,2.9c2.7,1.3,5.2,3.1,7.4,5.3c0.8,0.7,0.9,2,0.2,2.8c0,0-0.1,0.1-0.1,0.1
			c-0.8,0.8-2.1,0.7-2.9-0.1l0,0c-9.4-9.3-24.5-9.3-33.8,0c-0.7,0.8-2,0.9-2.8,0.2c-0.8-0.7-0.9-2-0.2-2.8c0.1-0.1,0.1-0.2,0.2-0.2
			c1.8-1.8,3.9-3.3,6.1-4.6c3.5-2,7.5-3.1,11.5-3.4C55.3,13.6,56,13.5,56.4,13.5z"/>
		<path class="st0" d="M70.8,33.9c-0.5,0-1-0.2-1.4-0.6c-6.9-6.9-18.1-7-25.1-0.1c-0.6,0.7-1.5,0.9-2.3,0.6c-1-0.4-1.5-1.5-1.1-2.5
			c0.1-0.3,0.3-0.6,0.5-0.8c1.1-1,2.2-1.9,3.4-2.8c3.2-2.1,6.8-3.4,10.6-3.6c5.7-0.4,11.3,1.5,15.6,5.2c0.4,0.3,0.8,0.7,1.2,1.1
			c0.6,0.6,0.8,1.5,0.4,2.3C72.3,33.5,71.5,33.9,70.8,33.9z"/>
		<path class="st0" d="M69.1,87.4H36.3c-1,0.1-1.9-0.5-2.1-1.5c0-0.2-0.1-0.4-0.1-0.6V74.4c0-0.8,0-1.5,0-2.3
			c0.1-0.9,0.8-1.6,1.7-1.7l62,0h4c1.1-0.1,2.2,0.7,2.3,1.8c0,0,0,0,0,0c0,0.2,0,0.3,0,0.5v12.4c0.1,1.1-0.7,2.1-1.8,2.3
			c-0.2,0-0.3,0-0.5,0L69.1,87.4L69.1,87.4z M100.2,74.4H38.1v9h62.1V74.4z"/>
		<path class="st0" d="M29.6,78.9v6.4c0,1.1-0.8,2.1-1.9,2.1c0,0,0,0,0,0h-0.1c-1.1,0-2-0.9-2-2v-0.1c0-1.9,0-3.7,0-5.6
			c0-2.4,0-4.8,0-7.3c0-1.1,0.8-2,1.9-2.1c1.1,0,2,0.8,2.1,1.9c0,0.1,0,0.2,0,0.2c0,1.6,0,3.2,0,4.8L29.6,78.9L29.6,78.9z"/>
		<path class="st0" d="M23,78.9v6.4c0,1.1-0.8,2-1.9,2c-1.1,0-2-0.8-2-1.9l0,0l0,0v-13c0-1.1,0.8-2,1.9-2c1.1,0,2,0.8,2,1.9
			c0,0,0,0.1,0,0.1C23,74.6,23,76.7,23,78.9z"/>
		<path class="st0" d="M57.2,76.8c0.5,0,1,0.1,1.6,0.2c0.9,0.3,1.5,1.2,1.4,2.1c-0.1,1-0.9,1.7-1.8,1.7c-0.8,0-1.5,0-2.3,0
			c-1.1-0.1-1.9-1-1.8-2v0c0-1,0.9-1.9,1.9-1.9L57.2,76.8L57.2,76.8z"/>
		<path class="st0" d="M76.9,76.9c0.5,0,1,0,1.5,0.1c1.1,0.3,1.7,1.3,1.4,2.4c-0.2,0.8-1,1.4-1.8,1.5c-0.9,0-1.7,0-2.6-0.1
			c-1-0.2-1.6-1.1-1.5-2.1c0.1-1,0.9-1.7,1.9-1.7L76.9,76.9L76.9,76.9z"/>
		<path class="st0" d="M47.3,80.9c-0.4,0-0.7,0-1.1,0c-1.1-0.1-1.9-1-1.9-2.1c0.1-1,0.9-1.9,2-1.9h1.9c1.1,0,2,0.8,2,1.9
			c0,1.1-0.8,2-1.9,2C48,80.9,47.6,80.9,47.3,80.9L47.3,80.9z"/>
		<path class="st0" d="M67,76.9h1c1,0,1.9,0.8,2,1.9c0.1,1.1-0.7,2-1.8,2.1c-0.8,0.1-1.7,0.1-2.5,0c-1-0.1-1.8-1-1.7-2
			c0-1,0.9-1.9,1.9-1.9L67,76.9L67,76.9z"/>
		<path class="st0" d="M86.8,76.9c0.5,0,1,0,1.5,0.1c0.9,0.2,1.5,1,1.5,1.9c0,1-0.8,1.9-1.9,1.9c-0.7,0-1.4,0-2.1,0
			c-1.1,0-2-0.9-2-2c0-1.1,0.9-2,2-2l0,0L86.8,76.9L86.8,76.9z"/>
	</g>
	<path class="st0" d="M1031.5,940.6c5.7-9.1,13.2-15.1,23.6-17.4c19.3-4.4,38.5,7.6,42.9,26.9c0.1,0.6,0.3,1.2,0.4,1.8
		c0.1,1.7,1.4,3.1,3.1,3.4c12.7,3.5,20.2,16.6,16.7,29.4c-2.2,8.1-8.6,14.5-16.7,16.7c-2.2,0.6-4.4,0.9-6.6,0.9
		c-26.7,0.1-53.4,0.1-80.2,0c-10.6,0-20.1-7.6-22.9-18.2c-2.6-10.2,2.3-21.7,11.6-26.6c2.4-1.3,3.6-2.4,4.1-5.5
		c1.8-11.4,12.7-16.8,23.2-11.8C1030.8,940.3,1031.1,940.4,1031.5,940.6z M1054.8,998.2c13.5,0,27,0.1,40.5,0
		c11-0.1,19.8-9.1,19.7-20.1c-0.1-9.1-6.3-17-15.2-19.2c-3.3-0.7-4.8-2.2-5.3-5.5c-1.9-13.2-11.9-23.9-25-26.5
		c-13.3-2.7-26.9,3.3-33.9,14.9c-2.1,3.3-3.6,3.7-7,2c-5.8-3.1-13-1-16.1,4.8c-1,1.8-1.5,3.9-1.4,6c0.1,2.8-1.1,4.2-3.6,5.3
		c-9,3.6-14.1,13.2-12,22.7c1.8,9.1,10.1,15.8,19.8,15.8C1028.4,998.2,1041.6,998.2,1054.8,998.2z"/>
	<path class="st0" d="M1361.7,940.6c5.7-9.1,13.3-15.1,23.6-17.4c19.3-4.4,38.5,7.6,42.9,26.9c0.1,0.6,0.3,1.2,0.4,1.8
		c0.1,1.7,1.4,3.1,3.1,3.4c12.7,3.5,20.2,16.6,16.7,29.4c-2.2,8.1-8.6,14.5-16.7,16.7c-2.2,0.6-4.4,0.9-6.6,0.9
		c-26.7,0.1-53.4,0.1-80.2,0c-10.6,0-20.1-7.6-22.9-18.2c-2.6-10.2,2.3-21.7,11.6-26.6c2.4-1.3,3.6-2.4,4.1-5.5
		c1.8-11.4,12.7-16.8,23.2-11.8C1360.9,940.3,1361.2,940.4,1361.7,940.6z M1385,998.2c13.5,0,27,0.1,40.5,0
		c11-0.1,19.8-9.1,19.7-20.1c-0.1-9.1-6.3-17-15.2-19.2c-3.3-0.7-4.8-2.2-5.3-5.5c-1.9-13.2-11.9-23.9-25-26.5
		c-13.3-2.7-26.9,3.3-33.9,14.9c-2.1,3.3-3.6,3.7-7,2c-5.8-3.1-13-1-16.1,4.8c-1,1.8-1.5,3.9-1.4,6c0.1,2.8-1.1,4.2-3.6,5.3
		c-9,3.6-14.1,13.2-12,22.7c1.8,9.1,10.1,15.8,19.8,15.8C1358.6,998.2,1371.8,998.2,1385,998.2L1385,998.2z"/>
	<g transform="translate(1181.997 928.189)">
		<g transform="translate(0 48.22)">
			<path class="st0" d="M7.6,54.2c-2.2-0.7-4.2-1.6-5.7-3.5c-1.2-1.6-1.9-3.5-1.9-5.5c0-4,0-8.1,0-12.1c0.1-2.2,0.9-4.3,2.3-6
				C0.3,24.8-0.1,22,0,19c0.1-3.2,0-6.4,0-9.6c-0.2-5,3.8-9.2,8.8-9.4C9,0,9.2,0,9.4,0C39.3,0,69.1,0,99,0c5-0.2,9.2,3.7,9.4,8.7
				c0,0.2,0,0.5,0,0.7c0,3.4,0,6.9,0,10.3c0.2,2.7-0.6,5.4-2.4,7.4c2.4,2.6,2.5,5.7,2.4,9c-0.1,3.5,0.2,7-0.2,10.4
				c-0.5,4-3,6.5-6.9,7.5c-0.2,0.1-0.3,0.2-0.5,0.3L7.6,54.2z M54.2,30.2c-14.8,0-29.6,0-44.5,0c-2.7,0-3.7,1.4-3.8,3.6
				c-0.1,3.6-0.1,7.1,0,10.7c0,2.6,1.3,3.7,3.9,3.7c3.5,0,7,0,10.4,0c12.7,0,25.4,0,38.1,0c13.4,0,26.7,0,40.1,0
				c2.8,0,3.9-1.2,3.9-3.9c0-3.2,0-6.5,0-9.7c0-3-0.9-4.4-4.3-4.4C83.5,30.2,68.9,30.2,54.2,30.2z M54.1,24c14.9,0,29.7,0,44.6,0
				c2.6,0,3.7-1.1,3.7-3.7c0-3.5,0-7,0-10.4c0-2.8-1.1-3.9-3.9-3.9c-7.6,0-15.2,0-22.9,0C63,6,50.3,6,37.7,6C28.4,6,19.1,6,9.9,6
				C7.2,6,6,7.2,6,9.9c0,3.4,0,6.8,0,10.2c0,2.6,1,4.1,4.1,4C24.8,24,39.4,24,54.1,24z"/>
			<path class="st0" d="M81.2,42.1c-4,0-8,0-12,0c-1.5,0.1-2.8-1.1-2.9-2.6c0-0.1,0-0.3,0-0.4c0-1.6,1.3-2.9,2.9-2.9
				c0,0,0.1,0,0.1,0c8,0,16,0,24,0c1.6-0.1,2.9,1.2,3,2.8c0,0.1,0,0.2,0,0.3c0,1.6-1.2,2.9-2.7,2.9c-0.1,0-0.2,0-0.3,0
				C89.2,42.1,85.2,42.1,81.2,42.1L81.2,42.1z"/>
			<path class="st0" d="M12.1,39.1c0-1.6,1.3-2.9,2.9-3c1.7,0.1,3,1.4,3,3.1c-0.1,1.6-1.4,2.9-3,2.8c-1.6,0-2.8-1.2-2.9-2.7
				C12.1,39.3,12.1,39.2,12.1,39.1z"/>
			<path class="st0" d="M81.4,12.1c3.9,0,7.8,0,11.7,0c2.1,0,3.2,1.1,3.2,3c0,1.7-1.3,2.9-3.3,2.9c-7.8,0-15.6,0-23.4,0
				c-1.6,0.2-3.1-1-3.3-2.6c0-0.1,0-0.3,0-0.4c0-1.8,1.2-2.9,3.2-2.9C73.5,12.1,77.4,12.1,81.4,12.1z"/>
			<path class="st0" d="M12.2,14.9c0-1.5,1.3-2.8,2.8-2.8c0.1,0,0.2,0,0.3,0c1.5,0.1,2.7,1.4,2.8,2.9c-0.1,1.7-1.4,3-3.1,3
				C13.3,18,12.1,16.6,12.2,14.9C12.2,14.9,12.2,14.9,12.2,14.9z"/>
		</g>
		<path class="st0" d="M7.6,54.2c-2.2-0.7-4.2-1.6-5.7-3.5c-1.2-1.6-1.9-3.5-1.9-5.5c0-4,0-8.1,0-12.1c0.1-2.2,0.9-4.3,2.3-6
			C0.3,24.8-0.1,22,0,19c0.1-3.2,0-6.4,0-9.6c-0.2-5,3.8-9.2,8.8-9.4C9,0,9.2,0,9.4,0C39.3,0,69.1,0,99,0c5-0.2,9.2,3.7,9.4,8.7
			c0,0.2,0,0.5,0,0.7c0,3.4,0,6.9,0,10.3c0.2,2.7-0.6,5.4-2.4,7.4c2.4,2.6,2.5,5.7,2.4,9c-0.1,3.5,0.2,7-0.2,10.4
			c-0.5,4-3,6.5-6.9,7.5c-0.2,0.1-0.3,0.2-0.5,0.3L7.6,54.2z M54.2,30.2c-14.8,0-29.6,0-44.5,0c-2.7,0-3.7,1.4-3.8,3.6
			c-0.1,3.6-0.1,7.1,0,10.7c0,2.6,1.3,3.7,3.9,3.7c3.5,0,7,0,10.4,0c12.7,0,25.4,0,38.1,0c13.4,0,26.7,0,40.1,0
			c2.8,0,3.9-1.2,3.9-3.9c0-3.2,0-6.5,0-9.7c0-3-0.9-4.4-4.3-4.4C83.5,30.2,68.9,30.2,54.2,30.2L54.2,30.2z M54.1,24
			c14.9,0,29.7,0,44.6,0c2.6,0,3.7-1.1,3.7-3.7c0-3.5,0-7,0-10.4c0-2.8-1.1-3.9-3.9-3.9c-7.6,0-15.2,0-22.9,0C63,6,50.3,6,37.7,6
			C28.4,6,19.1,6,9.9,6C7.2,6,6,7.2,6,9.9c0,3.4,0,6.8,0,10.2c0,2.6,1,4.1,4.1,4C24.8,24,39.4,24,54.1,24L54.1,24z"/>
		<path class="st0" d="M81.2,42.1c-4,0-8,0-12,0c-1.5,0.1-2.8-1.1-2.9-2.6c0-0.1,0-0.3,0-0.4c0-1.6,1.3-2.9,2.9-2.9c0,0,0.1,0,0.1,0
			c8,0,16,0,24,0c1.6-0.1,2.9,1.2,3,2.8c0,0.1,0,0.2,0,0.3c0,1.6-1.2,2.9-2.7,2.9c-0.1,0-0.2,0-0.3,0C89.2,42.1,85.2,42.1,81.2,42.1
			L81.2,42.1z"/>
		<path class="st0" d="M12.1,39.1c0-1.6,1.3-2.9,2.9-3c1.7,0.1,3,1.4,3,3.1c-0.1,1.6-1.4,2.9-3,2.8c-1.6,0-2.8-1.2-2.9-2.7
			C12.1,39.3,12.1,39.2,12.1,39.1z"/>
		<path class="st0" d="M81.4,12.1c3.9,0,7.8,0,11.7,0c2.1,0,3.2,1.1,3.2,3c0,1.7-1.3,2.9-3.3,2.9c-7.8,0-15.6,0-23.4,0
			c-1.6,0.2-3.1-1-3.3-2.6c0-0.1,0-0.3,0-0.4c0-1.8,1.2-2.9,3.2-2.9C73.5,12.1,77.4,12.1,81.4,12.1z"/>
		<path class="st0" d="M12.2,14.9c0-1.5,1.3-2.8,2.8-2.8c0.1,0,0.2,0,0.3,0c1.5,0.1,2.7,1.4,2.8,2.9c-0.1,1.7-1.4,3-3.1,3
			C13.3,18,12.1,16.6,12.2,14.9C12.2,14.9,12.2,14.9,12.2,14.9z"/>
	</g>
	<g transform="translate(1549.084 932.746)">
		<path class="st1" d="M52.1,47.6v12.8c0,8.7,0,17.4,0,26.2c0,5.1-3.4,8.3-8.4,8.3c-11.8,0-23.6,0-35.3,0c-4.3,0.2-8-3.1-8.3-7.5
			c0-0.1,0-0.2,0-0.2C0,86.4,0,85.7,0,85C0,60,0,34.9,0,9.8c0-1.5,0.2-3,0.6-4.5C1.5,2.1,4.4,0,7.6,0C19.9,0,32.1,0,44.3,0
			c4.5,0,7.7,3.5,7.7,8.3c0.1,12.7,0,25.4,0,38.1C52.1,46.8,52.1,47.2,52.1,47.6z M47.3,8.8H4.9v66.9h42.5L47.3,8.8z M29.8,83.3
			c-0.1-2.1-1.9-3.7-4-3.6c-2.1,0.1-3.7,1.9-3.6,4c0.1,2,1.7,3.5,3.7,3.6C28.1,87.3,29.8,85.5,29.8,83.3z"/>
	</g>
	<g transform="translate(958.661 1054.271)">
		<path class="st0" d="M52.1,47.6c0,4.3,0,8.5,0,12.8c0,8.7,0,17.4,0,26.2c0,5.1-3.4,8.3-8.4,8.3c-11.8,0-23.6,0-35.3,0
			c-4.3,0.2-8-3.1-8.3-7.5c0-0.1,0-0.2,0-0.2C0,86.4,0,85.7,0,85C0,60,0,34.9,0,9.8c0-1.5,0.2-3,0.6-4.5C1.5,2.1,4.4,0,7.6,0
			C19.9,0,32.1,0,44.3,0c4.5,0,7.7,3.5,7.7,8.3c0.1,12.7,0,25.4,0,38.1L52.1,47.6z M47.3,8.8H4.9v66.9h42.5V8.8z M29.8,83.3
			c-0.1-2.1-1.9-3.7-4-3.5c-2.1,0.1-3.7,1.9-3.5,4c0.1,2,1.7,3.5,3.7,3.6C28.1,87.3,29.8,85.5,29.8,83.3L29.8,83.3z"/>
	</g>
	<g class="st2">
		<path class="st0" d="M654.3,882.7h6.8v2.6h-10.1v-15.6h3.2V882.7z"/>
		<path class="st0" d="M672,882.1h-5.7l-1.1,3.2h-3.4l5.8-15.6h3l5.9,15.6h-3.4L672,882.1z M667.2,879.5h3.9l-2-5.9L667.2,879.5z"/>
		<path class="st0" d="M690.7,885.3h-3.2l-6.3-10.3v10.3H678v-15.6h3.2l6.3,10.3v-10.3h3.2V885.3z"/>
	</g>
	<g class="st2">
		<path class="st0" d="M616.1,1208.1h-4.4v11.8h-2.9v-11.8h-4.3v-2.4h11.6V1208.1z"/>
		<path class="st0" d="M622.4,1220.2c-1.5,0-2.8-0.5-3.8-1.4c-1-1-1.5-2.2-1.5-3.8v-0.3c0-1.1,0.2-2,0.6-2.8s1-1.5,1.7-1.9
			s1.6-0.7,2.6-0.7c1.4,0,2.6,0.5,3.4,1.4s1.2,2.2,1.2,3.9v1.2h-6.7c0.1,0.7,0.4,1.2,0.8,1.7s1,0.6,1.7,0.6c1.1,0,1.9-0.4,2.5-1.2
			l1.4,1.6c-0.4,0.6-1,1.1-1.7,1.4S623.3,1220.2,622.4,1220.2z M622.1,1211.5c-0.6,0-1,0.2-1.4,0.6c-0.3,0.4-0.6,0.9-0.7,1.6h3.9
			v-0.2c0-0.6-0.2-1.1-0.5-1.5C623.2,1211.7,622.7,1211.5,622.1,1211.5z"/>
		<path class="st0" d="M631.4,1220h-2.8v-15h2.8V1220z"/>
		<path class="st0" d="M638.6,1220.2c-1.5,0-2.8-0.5-3.8-1.4c-1-1-1.5-2.2-1.5-3.8v-0.3c0-1.1,0.2-2,0.6-2.8s1-1.5,1.7-1.9
			s1.6-0.7,2.6-0.7c1.4,0,2.6,0.5,3.4,1.4s1.2,2.2,1.2,3.9v1.2h-6.7c0.1,0.7,0.4,1.2,0.8,1.7s1,0.6,1.7,0.6c1.1,0,1.9-0.4,2.5-1.2
			l1.4,1.6c-0.4,0.6-1,1.1-1.7,1.4S639.4,1220.2,638.6,1220.2z M638.2,1211.5c-0.6,0-1,0.2-1.4,0.6c-0.3,0.4-0.6,0.9-0.7,1.6h3.9
			v-0.2c0-0.6-0.2-1.1-0.5-1.5C639.3,1211.7,638.8,1211.5,638.2,1211.5z M638.5,1205h3.1l-2.7,3h-2.3L638.5,1205z"/>
		<path class="st0" d="M645.3,1220v-8.5h-1.6v-2.1h1.6v-0.9c0-1.2,0.3-2.1,1-2.8c0.7-0.7,1.6-1,2.9-1c0.4,0,0.9,0.1,1.4,0.2l0,2.2
			c-0.2-0.1-0.5-0.1-0.9-0.1c-1.1,0-1.6,0.5-1.6,1.5v0.8h2.1v2.1h-2.1v8.5H645.3z"/>
		<path class="st0" d="M651.2,1214.6c0-1,0.2-2,0.6-2.8c0.4-0.8,1-1.5,1.7-1.9c0.8-0.4,1.6-0.7,2.6-0.7c1.4,0,2.6,0.4,3.5,1.3
			c0.9,0.9,1.4,2.1,1.5,3.6l0,0.7c0,1.6-0.5,2.9-1.4,3.9c-0.9,1-2.1,1.5-3.6,1.5s-2.7-0.5-3.6-1.5s-1.4-2.3-1.4-4V1214.6z
			 M654.1,1214.8c0,1,0.2,1.8,0.6,2.3c0.4,0.5,0.9,0.8,1.6,0.8c0.7,0,1.2-0.3,1.6-0.8c0.4-0.5,0.6-1.4,0.6-2.5c0-1-0.2-1.7-0.6-2.3
			c-0.4-0.5-0.9-0.8-1.6-0.8c-0.7,0-1.2,0.3-1.6,0.8C654.2,1212.8,654.1,1213.7,654.1,1214.8z"/>
		<path class="st0" d="M665.6,1209.4l0.1,1.2c0.8-0.9,1.8-1.4,3-1.4c1.1,0,2,0.3,2.5,1s0.8,1.6,0.8,2.9v6.8h-2.8v-6.8
			c0-0.6-0.1-1-0.4-1.3c-0.3-0.3-0.7-0.4-1.3-0.4c-0.8,0-1.4,0.3-1.8,1v7.5h-2.8v-10.6H665.6z"/>
		<path class="st0" d="M673.7,1214.6c0-1,0.2-2,0.6-2.8c0.4-0.8,1-1.5,1.7-1.9c0.8-0.4,1.6-0.7,2.6-0.7c1.4,0,2.6,0.4,3.5,1.3
			c0.9,0.9,1.4,2.1,1.5,3.6l0,0.7c0,1.6-0.5,2.9-1.4,3.9c-0.9,1-2.1,1.5-3.6,1.5s-2.7-0.5-3.6-1.5s-1.4-2.3-1.4-4V1214.6z
			 M676.6,1214.8c0,1,0.2,1.8,0.6,2.3c0.4,0.5,0.9,0.8,1.6,0.8c0.7,0,1.2-0.3,1.6-0.8c0.4-0.5,0.6-1.4,0.6-2.5c0-1-0.2-1.7-0.6-2.3
			c-0.4-0.5-0.9-0.8-1.6-0.8c-0.7,0-1.2,0.3-1.6,0.8C676.8,1212.8,676.6,1213.7,676.6,1214.8z"/>
		<path class="st0" d="M691.2,1217.1c0-0.3-0.2-0.6-0.5-0.8s-0.9-0.4-1.6-0.5c-2.5-0.5-3.8-1.6-3.8-3.2c0-0.9,0.4-1.7,1.2-2.3
			c0.8-0.6,1.8-0.9,3.1-0.9c1.3,0,2.4,0.3,3.2,0.9c0.8,0.6,1.2,1.5,1.2,2.5h-2.8c0-0.4-0.1-0.7-0.4-1c-0.3-0.3-0.7-0.4-1.2-0.4
			c-0.5,0-0.8,0.1-1.1,0.3c-0.3,0.2-0.4,0.5-0.4,0.8c0,0.3,0.1,0.6,0.4,0.8c0.3,0.2,0.8,0.4,1.5,0.5s1.3,0.3,1.8,0.5
			c1.5,0.5,2.2,1.5,2.2,2.8c0,1-0.4,1.7-1.2,2.3c-0.8,0.6-1.9,0.9-3.2,0.9c-0.9,0-1.7-0.2-2.4-0.5c-0.7-0.3-1.2-0.7-1.6-1.3
			s-0.6-1.1-0.6-1.8h2.7c0,0.5,0.2,0.9,0.6,1.2c0.3,0.3,0.8,0.4,1.4,0.4c0.5,0,0.9-0.1,1.2-0.3
			C691.1,1217.7,691.2,1217.4,691.2,1217.1z"/>
		<path class="st0" d="M704.1,1220h-2.9v-14.2h2.9V1220z"/>
		<path class="st0" d="M709.7,1215v5h-2.9v-14.2h5.5c1.1,0,2,0.2,2.8,0.6s1.4,0.9,1.9,1.7c0.4,0.7,0.7,1.5,0.7,2.5
			c0,1.4-0.5,2.5-1.4,3.3c-1,0.8-2.3,1.2-4,1.2H709.7z M709.7,1212.6h2.6c0.8,0,1.4-0.2,1.8-0.5c0.4-0.4,0.6-0.9,0.6-1.6
			c0-0.7-0.2-1.3-0.6-1.7s-1-0.7-1.7-0.7h-2.7V1212.6z"/>
	</g>
	<g class="st2">
		<path class="st0" d="M615.7,1237.2c0,1.4-0.2,2.6-0.7,3.7s-1.2,1.9-2.1,2.4s-2,0.9-3.2,0.9c-1.2,0-2.2-0.3-3.2-0.8
			s-1.6-1.4-2.1-2.4s-0.8-2.3-0.8-3.6v-0.7c0-1.4,0.3-2.6,0.8-3.7s1.2-1.9,2.1-2.5s2-0.9,3.2-0.9s2.2,0.3,3.2,0.9s1.6,1.4,2.1,2.5
			s0.8,2.3,0.8,3.7V1237.2z M612.7,1236.5c0-1.5-0.3-2.6-0.8-3.4s-1.3-1.2-2.3-1.2c-1,0-1.7,0.4-2.3,1.1s-0.8,1.9-0.8,3.4v0.7
			c0,1.5,0.3,2.6,0.8,3.4s1.3,1.2,2.3,1.2c1,0,1.7-0.4,2.3-1.2s0.8-1.9,0.8-3.4V1236.5z"/>
		<path class="st0" d="M618.4,1244v-8.5h-1.6v-2.1h1.6v-0.9c0-1.2,0.3-2.1,1-2.8s1.6-1,2.9-1c0.4,0,0.9,0.1,1.4,0.2l0,2.2
			c-0.2-0.1-0.5-0.1-0.9-0.1c-1.1,0-1.6,0.5-1.6,1.5v0.8h2.1v2.1h-2.1v8.5H618.4z"/>
		<path class="st0" d="M624.8,1230.7c0-0.4,0.1-0.8,0.4-1s0.7-0.4,1.2-0.4c0.5,0,0.9,0.1,1.2,0.4s0.4,0.6,0.4,1
			c0,0.4-0.1,0.8-0.4,1.1s-0.7,0.4-1.1,0.4s-0.9-0.1-1.1-0.4S624.8,1231.1,624.8,1230.7z M627.8,1244H625v-10.6h2.8V1244z"/>
		<path class="st0" d="M634.5,1241.9c0.5,0,0.9-0.1,1.3-0.4s0.5-0.7,0.5-1.1h2.6c0,0.7-0.2,1.4-0.6,2s-0.9,1.1-1.6,1.4
			s-1.4,0.5-2.2,0.5c-1.5,0-2.7-0.5-3.6-1.4s-1.3-2.3-1.3-4v-0.2c0-1.6,0.4-2.9,1.3-3.9s2.1-1.5,3.6-1.5c1.3,0,2.4,0.4,3.2,1.1
			s1.2,1.8,1.2,3h-2.6c0-0.5-0.2-1-0.5-1.3s-0.8-0.5-1.3-0.5c-0.7,0-1.2,0.2-1.5,0.7s-0.5,1.3-0.5,2.3v0.3c0,1.1,0.2,1.9,0.5,2.3
			S633.8,1241.9,634.5,1241.9z"/>
		<path class="st0" d="M640.5,1230.7c0-0.4,0.1-0.8,0.4-1s0.7-0.4,1.2-0.4c0.5,0,0.9,0.1,1.2,0.4s0.4,0.6,0.4,1
			c0,0.4-0.1,0.8-0.4,1.1s-0.7,0.4-1.1,0.4s-0.9-0.1-1.1-0.4S640.5,1231.1,640.5,1230.7z M643.5,1244h-2.8v-10.6h2.8V1244z"/>
		<path class="st0" d="M648.5,1233.4l0.1,1.2c0.8-0.9,1.8-1.4,3-1.4c1.1,0,2,0.3,2.5,1s0.8,1.6,0.8,2.9v6.8h-2.8v-6.8
			c0-0.6-0.1-1-0.4-1.3s-0.7-0.4-1.3-0.4c-0.8,0-1.4,0.3-1.8,1v7.5h-2.8v-10.6H648.5z"/>
		<path class="st0" d="M663.2,1244c-0.1-0.3-0.2-0.6-0.3-0.9c-0.7,0.8-1.6,1.1-2.7,1.1c-1,0-1.9-0.3-2.6-0.9s-1-1.4-1-2.3
			c0-1.1,0.4-2,1.2-2.6s2-0.9,3.6-0.9h1.3v-0.6c0-0.5-0.1-0.9-0.4-1.2s-0.6-0.4-1.2-0.4c-0.5,0-0.8,0.1-1.1,0.3s-0.4,0.5-0.4,0.9
			h-2.8c0-0.6,0.2-1.2,0.6-1.7s0.9-0.9,1.6-1.2s1.5-0.4,2.3-0.4c1.3,0,2.3,0.3,3.1,1s1.1,1.6,1.1,2.8v4.6c0,1,0.1,1.8,0.4,2.3v0.2
			H663.2z M660.9,1242c0.4,0,0.8-0.1,1.2-0.3s0.6-0.4,0.8-0.7v-1.8h-1.1c-1.4,0-2.2,0.5-2.3,1.5l0,0.2c0,0.4,0.1,0.6,0.4,0.9
			S660.4,1242,660.9,1242z"/>
		<path class="st0" d="M675.9,1241.6h6.2v2.4H673v-14.2h2.9V1241.6z"/>
		<path class="st0" d="M683.2,1238.6c0-1,0.2-2,0.6-2.8s1-1.5,1.7-1.9s1.6-0.7,2.6-0.7c1.4,0,2.6,0.4,3.5,1.3s1.4,2.1,1.5,3.6l0,0.7
			c0,1.6-0.5,2.9-1.4,3.9s-2.1,1.5-3.6,1.5s-2.7-0.5-3.6-1.5s-1.4-2.3-1.4-4V1238.6z M686,1238.8c0,1,0.2,1.8,0.6,2.3
			s0.9,0.8,1.6,0.8c0.7,0,1.2-0.3,1.6-0.8c0.4-0.5,0.6-1.4,0.6-2.5c0-1-0.2-1.7-0.6-2.3s-0.9-0.8-1.6-0.8c-0.7,0-1.2,0.3-1.6,0.8
			S686,1237.7,686,1238.8z"/>
		<path class="st0" d="M699.3,1241.9c0.5,0,0.9-0.1,1.3-0.4s0.5-0.7,0.5-1.1h2.6c0,0.7-0.2,1.4-0.6,2s-0.9,1.1-1.6,1.4
			s-1.4,0.5-2.2,0.5c-1.5,0-2.7-0.5-3.6-1.4s-1.3-2.3-1.3-4v-0.2c0-1.6,0.4-2.9,1.3-3.9s2.1-1.5,3.6-1.5c1.3,0,2.4,0.4,3.2,1.1
			s1.2,1.8,1.2,3h-2.6c0-0.5-0.2-1-0.5-1.3s-0.8-0.5-1.3-0.5c-0.7,0-1.2,0.2-1.5,0.7s-0.5,1.3-0.5,2.3v0.3c0,1.1,0.2,1.9,0.5,2.3
			S698.6,1241.9,699.3,1241.9z"/>
		<path class="st0" d="M711.5,1244c-0.1-0.3-0.2-0.6-0.3-0.9c-0.7,0.8-1.6,1.1-2.7,1.1c-1,0-1.9-0.3-2.6-0.9s-1-1.4-1-2.3
			c0-1.1,0.4-2,1.2-2.6s2-0.9,3.6-0.9h1.3v-0.6c0-0.5-0.1-0.9-0.4-1.2s-0.6-0.4-1.2-0.4c-0.5,0-0.8,0.1-1.1,0.3s-0.4,0.5-0.4,0.9
			h-2.8c0-0.6,0.2-1.2,0.6-1.7s0.9-0.9,1.6-1.2s1.5-0.4,2.3-0.4c1.3,0,2.3,0.3,3.1,1s1.1,1.6,1.1,2.8v4.6c0,1,0.1,1.8,0.4,2.3v0.2
			H711.5z M709.1,1242c0.4,0,0.8-0.1,1.2-0.3s0.6-0.4,0.8-0.7v-1.8H710c-1.4,0-2.2,0.5-2.3,1.5l0,0.2c0,0.4,0.1,0.6,0.4,0.9
			S708.7,1242,709.1,1242z"/>
		<path class="st0" d="M719,1244h-2.8v-15h2.8V1244z"/>
	</g>
	<g class="st2">
		<path class="st0" d="M1516.7,1207.5h-4.6v12.4h-3.1v-12.4h-4.5v-2.5h12.2V1207.5z"/>
		<path class="st0" d="M1523.4,1220.2c-1.6,0-3-0.5-4-1.5c-1-1-1.5-2.3-1.5-4v-0.3c0-1.1,0.2-2.1,0.6-3c0.4-0.9,1-1.6,1.8-2
			c0.8-0.5,1.7-0.7,2.7-0.7c1.5,0,2.7,0.5,3.6,1.4c0.9,1,1.3,2.3,1.3,4.1v1.2h-7.1c0.1,0.7,0.4,1.3,0.9,1.7c0.5,0.4,1.1,0.7,1.8,0.7
			c1.1,0,2-0.4,2.7-1.2l1.5,1.6c-0.4,0.6-1,1.1-1.8,1.5C1525.2,1220,1524.3,1220.2,1523.4,1220.2z M1523.1,1211.1
			c-0.6,0-1.1,0.2-1.4,0.6s-0.6,1-0.7,1.7h4.1v-0.2c0-0.7-0.2-1.2-0.5-1.5S1523.7,1211.1,1523.1,1211.1z"/>
		<path class="st0" d="M1532.8,1220h-3v-15.8h3V1220z"/>
		<path class="st0" d="M1540.3,1220.2c-1.6,0-3-0.5-4-1.5c-1-1-1.5-2.3-1.5-4v-0.3c0-1.1,0.2-2.1,0.6-3c0.4-0.9,1-1.6,1.8-2
			c0.8-0.5,1.7-0.7,2.7-0.7c1.5,0,2.7,0.5,3.6,1.4c0.9,1,1.3,2.3,1.3,4.1v1.2h-7.1c0.1,0.7,0.4,1.3,0.9,1.7c0.5,0.4,1.1,0.7,1.8,0.7
			c1.1,0,2-0.4,2.7-1.2l1.5,1.6c-0.4,0.6-1,1.1-1.8,1.5C1542.1,1220,1541.3,1220.2,1540.3,1220.2z M1540,1211.1
			c-0.6,0-1.1,0.2-1.4,0.6s-0.6,1-0.7,1.7h4.1v-0.2c0-0.7-0.2-1.2-0.5-1.5S1540.6,1211.1,1540,1211.1z M1540.3,1204.2h3.2l-2.8,3.2
			h-2.4L1540.3,1204.2z"/>
		<path class="st0" d="M1547.4,1220v-8.9h-1.7v-2.2h1.7v-0.9c0-1.2,0.4-2.2,1.1-2.9c0.7-0.7,1.7-1,3-1c0.4,0,0.9,0.1,1.5,0.2l0,2.3
			c-0.2-0.1-0.5-0.1-0.9-0.1c-1.1,0-1.7,0.5-1.7,1.6v0.9h2.2v2.2h-2.2v8.9H1547.4z"/>
		<path class="st0" d="M1553.6,1214.3c0-1.1,0.2-2.1,0.6-2.9s1-1.5,1.8-2c0.8-0.5,1.7-0.7,2.8-0.7c1.5,0,2.7,0.5,3.7,1.4
			c0.9,0.9,1.5,2.2,1.6,3.7l0,0.8c0,1.7-0.5,3.1-1.4,4.1c-1,1-2.2,1.5-3.8,1.5s-2.9-0.5-3.8-1.5c-1-1-1.4-2.4-1.4-4.2V1214.3z
			 M1556.6,1214.5c0,1.1,0.2,1.9,0.6,2.4c0.4,0.6,1,0.8,1.7,0.8c0.7,0,1.3-0.3,1.7-0.8s0.6-1.4,0.6-2.6c0-1-0.2-1.8-0.6-2.4
			c-0.4-0.6-1-0.9-1.7-0.9c-0.7,0-1.3,0.3-1.7,0.8C1556.8,1212.5,1556.6,1213.4,1556.6,1214.5z"/>
		<path class="st0" d="M1568.7,1208.9l0.1,1.3c0.8-1,1.9-1.5,3.2-1.5c1.2,0,2.1,0.3,2.6,1s0.9,1.7,0.9,3.1v7.2h-3v-7.1
			c0-0.6-0.1-1.1-0.4-1.4c-0.3-0.3-0.7-0.4-1.4-0.4c-0.8,0-1.5,0.4-1.9,1.1v7.8h-3v-11.1H1568.7z"/>
		<path class="st0" d="M1577.3,1214.3c0-1.1,0.2-2.1,0.6-2.9s1-1.5,1.8-2c0.8-0.5,1.7-0.7,2.8-0.7c1.5,0,2.7,0.5,3.7,1.4
			s1.5,2.2,1.6,3.7l0,0.8c0,1.7-0.5,3.1-1.4,4.1c-1,1-2.2,1.5-3.8,1.5s-2.9-0.5-3.8-1.5c-1-1-1.4-2.4-1.4-4.2V1214.3z
			 M1580.2,1214.5c0,1.1,0.2,1.9,0.6,2.4c0.4,0.6,1,0.8,1.7,0.8c0.7,0,1.3-0.3,1.7-0.8c0.4-0.6,0.6-1.4,0.6-2.6c0-1-0.2-1.8-0.6-2.4
			c-0.4-0.6-1-0.9-1.7-0.9c-0.7,0-1.3,0.3-1.7,0.8C1580.4,1212.5,1580.2,1213.4,1580.2,1214.5z"/>
		<path class="st0" d="M1595.6,1216.9c0-0.4-0.2-0.6-0.5-0.9c-0.4-0.2-0.9-0.4-1.7-0.6c-2.6-0.6-4-1.7-4-3.4c0-1,0.4-1.8,1.2-2.5
			c0.8-0.7,1.9-1,3.2-1c1.4,0,2.5,0.3,3.4,1c0.8,0.7,1.3,1.5,1.3,2.6h-3c0-0.4-0.1-0.8-0.4-1.1c-0.3-0.3-0.7-0.4-1.3-0.4
			c-0.5,0-0.9,0.1-1.2,0.3c-0.3,0.2-0.4,0.5-0.4,0.9c0,0.3,0.2,0.6,0.5,0.8c0.3,0.2,0.8,0.4,1.6,0.5c0.7,0.1,1.4,0.3,1.9,0.5
			c1.6,0.6,2.3,1.6,2.3,3c0,1-0.4,1.8-1.3,2.5c-0.9,0.6-2,0.9-3.4,0.9c-0.9,0-1.8-0.2-2.5-0.5c-0.7-0.3-1.3-0.8-1.7-1.4
			c-0.4-0.6-0.6-1.2-0.6-1.9h2.8c0,0.5,0.2,0.9,0.6,1.2c0.4,0.3,0.8,0.4,1.5,0.4c0.6,0,1-0.1,1.3-0.3
			C1595.5,1217.5,1595.6,1217.3,1595.6,1216.9z"/>
		<path class="st0" d="M1609.1,1220h-3.1V1205h3.1V1220z"/>
		<path class="st0" d="M1615,1214.7v5.3h-3.1V1205h5.8c1.1,0,2.1,0.2,3,0.6c0.9,0.4,1.5,1,2,1.7c0.5,0.8,0.7,1.6,0.7,2.6
			c0,1.5-0.5,2.6-1.5,3.5c-1,0.8-2.4,1.3-4.2,1.3H1615z M1615,1212.2h2.7c0.8,0,1.4-0.2,1.9-0.6c0.4-0.4,0.6-0.9,0.6-1.6
			c0-0.7-0.2-1.3-0.6-1.8c-0.4-0.5-1-0.7-1.8-0.7h-2.8V1212.2z"/>
	</g>
	<g class="st2">
		<path class="st0" d="M1502.2,1242c-0.1,1.6-0.7,2.9-1.8,3.8c-1.1,0.9-2.5,1.4-4.2,1.4c-1.9,0-3.4-0.6-4.5-1.9
			c-1.1-1.3-1.6-3.1-1.6-5.3v-0.9c0-1.4,0.3-2.7,0.8-3.8s1.2-1.9,2.2-2.5c0.9-0.6,2-0.9,3.3-0.9c1.7,0,3.1,0.5,4.2,1.4
			c1.1,0.9,1.7,2.2,1.8,3.9h-3.1c-0.1-1-0.3-1.7-0.8-2.1c-0.5-0.4-1.2-0.7-2.1-0.7c-1,0-1.8,0.4-2.3,1.1c-0.5,0.7-0.8,1.9-0.8,3.4
			v1.1c0,1.6,0.2,2.8,0.7,3.5c0.5,0.7,1.3,1.1,2.3,1.1c1,0,1.7-0.2,2.1-0.7c0.5-0.4,0.7-1.1,0.8-2H1502.2z"/>
		<path class="st0" d="M1503.6,1241.3c0-1.1,0.2-2.1,0.6-2.9s1-1.5,1.8-2c0.8-0.5,1.7-0.7,2.8-0.7c1.5,0,2.7,0.5,3.7,1.4
			c0.9,0.9,1.5,2.2,1.6,3.7l0,0.8c0,1.7-0.5,3.1-1.4,4.1c-1,1-2.2,1.5-3.8,1.5s-2.9-0.5-3.8-1.5c-1-1-1.4-2.4-1.4-4.2V1241.3z
			 M1506.5,1241.5c0,1.1,0.2,1.9,0.6,2.4c0.4,0.6,1,0.8,1.7,0.8c0.7,0,1.3-0.3,1.7-0.8s0.6-1.4,0.6-2.6c0-1-0.2-1.8-0.6-2.4
			c-0.4-0.6-1-0.9-1.7-0.9c-0.7,0-1.3,0.3-1.7,0.8C1506.7,1239.5,1506.5,1240.4,1506.5,1241.5z"/>
		<path class="st0" d="M1518.6,1235.9l0.1,1.3c0.8-1,1.9-1.5,3.2-1.5c1.2,0,2.1,0.3,2.6,1s0.9,1.7,0.9,3.1v7.2h-3v-7.1
			c0-0.6-0.1-1.1-0.4-1.4c-0.3-0.3-0.7-0.4-1.4-0.4c-0.8,0-1.5,0.4-1.9,1.1v7.8h-3v-11.1H1518.6z"/>
		<path class="st0" d="M1531.8,1243.4l2.1-7.5h3.1l-3.7,11.1h-2.8l-3.7-11.1h3.1L1531.8,1243.4z"/>
		<path class="st0" d="M1543.4,1247.2c-1.6,0-3-0.5-4-1.5c-1-1-1.5-2.3-1.5-4v-0.3c0-1.1,0.2-2.1,0.6-3c0.4-0.9,1-1.6,1.8-2
			c0.8-0.5,1.7-0.7,2.7-0.7c1.5,0,2.7,0.5,3.6,1.4c0.9,1,1.3,2.3,1.3,4.1v1.2h-7.1c0.1,0.7,0.4,1.3,0.9,1.7c0.5,0.4,1.1,0.7,1.8,0.7
			c1.1,0,2-0.4,2.7-1.2l1.5,1.6c-0.4,0.6-1,1.1-1.8,1.5C1545.1,1247,1544.3,1247.2,1543.4,1247.2z M1543,1238.1
			c-0.6,0-1.1,0.2-1.4,0.6c-0.4,0.4-0.6,1-0.7,1.7h4.1v-0.2c0-0.7-0.2-1.2-0.5-1.5S1543.7,1238.1,1543,1238.1z"/>
		<path class="st0" d="M1552.4,1235.9l0.1,1.3c0.8-1,1.9-1.5,3.2-1.5c1.2,0,2.1,0.3,2.6,1s0.9,1.7,0.9,3.1v7.2h-3v-7.1
			c0-0.6-0.1-1.1-0.4-1.4c-0.3-0.3-0.7-0.4-1.4-0.4c-0.8,0-1.5,0.4-1.9,1.1v7.8h-3v-11.1H1552.4z"/>
		<path class="st0" d="M1566,1244.8c0.5,0,1-0.2,1.3-0.5s0.5-0.7,0.5-1.2h2.8c0,0.8-0.2,1.4-0.6,2.1c-0.4,0.6-1,1.1-1.7,1.5
			c-0.7,0.3-1.5,0.5-2.3,0.5c-1.6,0-2.8-0.5-3.8-1.5c-0.9-1-1.4-2.4-1.4-4.2v-0.2c0-1.7,0.5-3.1,1.4-4.1s2.2-1.5,3.7-1.5
			c1.4,0,2.5,0.4,3.3,1.2c0.8,0.8,1.3,1.8,1.3,3.2h-2.8c0-0.6-0.2-1-0.5-1.4c-0.3-0.4-0.8-0.5-1.4-0.5c-0.7,0-1.2,0.3-1.6,0.8
			c-0.4,0.5-0.5,1.3-0.5,2.4v0.3c0,1.1,0.2,2,0.5,2.5S1565.3,1244.8,1566,1244.8z"/>
		<path class="st0" d="M1572.3,1233c0-0.4,0.1-0.8,0.4-1.1c0.3-0.3,0.7-0.4,1.2-0.4c0.5,0,0.9,0.1,1.2,0.4s0.5,0.7,0.5,1.1
			c0,0.5-0.2,0.8-0.5,1.1c-0.3,0.3-0.7,0.4-1.2,0.4s-0.9-0.1-1.2-0.4C1572.5,1233.8,1572.3,1233.5,1572.3,1233z M1575.5,1247h-3
			v-11.1h3V1247z"/>
		<path class="st0" d="M1577.4,1241.3c0-1.1,0.2-2.1,0.6-2.9s1-1.5,1.8-2c0.8-0.5,1.7-0.7,2.8-0.7c1.5,0,2.7,0.5,3.7,1.4
			c0.9,0.9,1.5,2.2,1.6,3.7l0,0.8c0,1.7-0.5,3.1-1.4,4.1c-1,1-2.2,1.5-3.8,1.5s-2.9-0.5-3.8-1.5c-1-1-1.4-2.4-1.4-4.2V1241.3z
			 M1580.4,1241.5c0,1.1,0.2,1.9,0.6,2.4c0.4,0.6,1,0.8,1.7,0.8c0.7,0,1.3-0.3,1.7-0.8s0.6-1.4,0.6-2.6c0-1-0.2-1.8-0.6-2.4
			c-0.4-0.6-1-0.9-1.7-0.9c-0.7,0-1.3,0.3-1.7,0.8C1580.6,1239.5,1580.4,1240.4,1580.4,1241.5z"/>
		<path class="st0" d="M1592.5,1235.9l0.1,1.3c0.8-1,1.9-1.5,3.2-1.5c1.2,0,2.1,0.3,2.6,1s0.9,1.7,0.9,3.1v7.2h-3v-7.1
			c0-0.6-0.1-1.1-0.4-1.4c-0.3-0.3-0.7-0.4-1.4-0.4c-0.8,0-1.5,0.4-1.9,1.1v7.8h-3v-11.1H1592.5z"/>
		<path class="st0" d="M1608,1247c-0.1-0.3-0.2-0.6-0.3-1c-0.7,0.8-1.7,1.2-2.8,1.2c-1.1,0-2-0.3-2.7-0.9c-0.7-0.6-1.1-1.4-1.1-2.4
			c0-1.2,0.4-2.1,1.3-2.7c0.9-0.6,2.1-0.9,3.8-1h1.4v-0.6c0-0.5-0.1-0.9-0.4-1.2c-0.3-0.3-0.7-0.5-1.2-0.5c-0.5,0-0.9,0.1-1.2,0.4
			c-0.3,0.2-0.4,0.6-0.4,1h-3c0-0.6,0.2-1.2,0.6-1.8c0.4-0.5,1-1,1.7-1.3c0.7-0.3,1.5-0.5,2.4-0.5c1.4,0,2.5,0.3,3.3,1
			c0.8,0.7,1.2,1.7,1.2,2.9v4.8c0,1.1,0.2,1.8,0.4,2.4v0.2H1608z M1605.5,1244.9c0.4,0,0.8-0.1,1.2-0.3c0.4-0.2,0.6-0.5,0.8-0.8
			v-1.9h-1.1c-1.5,0-2.3,0.5-2.4,1.5l0,0.2c0,0.4,0.1,0.7,0.4,0.9S1605.1,1244.9,1605.5,1244.9z"/>
		<path class="st0" d="M1615.9,1247h-3v-15.8h3V1247z"/>
		<path class="st0" d="M1623.5,1247.2c-1.6,0-3-0.5-4-1.5c-1-1-1.5-2.3-1.5-4v-0.3c0-1.1,0.2-2.1,0.6-3c0.4-0.9,1-1.6,1.8-2
			c0.8-0.5,1.7-0.7,2.7-0.7c1.5,0,2.7,0.5,3.6,1.4c0.9,1,1.3,2.3,1.3,4.1v1.2h-7.1c0.1,0.7,0.4,1.3,0.9,1.7c0.5,0.4,1.1,0.7,1.8,0.7
			c1.1,0,2-0.4,2.7-1.2l1.5,1.6c-0.4,0.6-1,1.1-1.8,1.5C1625.2,1247,1624.4,1247.2,1623.5,1247.2z M1623.1,1238.1
			c-0.6,0-1.1,0.2-1.4,0.6c-0.4,0.4-0.6,1-0.7,1.7h4.1v-0.2c0-0.7-0.2-1.2-0.5-1.5S1623.8,1238.1,1623.1,1238.1z"/>
		<path class="st0" d="M1635.7,1243.9c0-0.4-0.2-0.6-0.5-0.9c-0.4-0.2-0.9-0.4-1.7-0.6c-2.6-0.6-4-1.7-4-3.4c0-1,0.4-1.8,1.2-2.5
			c0.8-0.7,1.9-1,3.2-1c1.4,0,2.5,0.3,3.4,1c0.8,0.7,1.3,1.5,1.3,2.6h-3c0-0.4-0.1-0.8-0.4-1.1c-0.3-0.3-0.7-0.4-1.3-0.4
			c-0.5,0-0.9,0.1-1.2,0.3c-0.3,0.2-0.4,0.5-0.4,0.9c0,0.3,0.2,0.6,0.5,0.8c0.3,0.2,0.8,0.4,1.6,0.5c0.7,0.1,1.4,0.3,1.9,0.5
			c1.6,0.6,2.3,1.6,2.3,3c0,1-0.4,1.8-1.3,2.5c-0.9,0.6-2,0.9-3.4,0.9c-0.9,0-1.8-0.2-2.5-0.5c-0.7-0.3-1.3-0.8-1.7-1.4
			c-0.4-0.6-0.6-1.2-0.6-1.9h2.8c0,0.5,0.2,0.9,0.6,1.2s0.8,0.4,1.5,0.4c0.6,0,1-0.1,1.3-0.3
			C1635.6,1244.5,1635.7,1244.3,1635.7,1243.9z"/>
	</g>
	<g class="st2">
		<path class="st0" d="M909.7,1207.5h-4.6v12.4h-3.1v-12.4h-4.5v-2.5h12.2V1207.5z"/>
		<path class="st0" d="M916.4,1220.2c-1.6,0-3-0.5-4-1.5c-1-1-1.5-2.3-1.5-4v-0.3c0-1.1,0.2-2.1,0.6-3c0.4-0.9,1-1.6,1.8-2
			c0.8-0.5,1.7-0.7,2.7-0.7c1.5,0,2.7,0.5,3.6,1.4c0.9,1,1.3,2.3,1.3,4.1v1.2h-7.1c0.1,0.7,0.4,1.3,0.9,1.7c0.5,0.4,1.1,0.7,1.8,0.7
			c1.1,0,2-0.4,2.7-1.2l1.5,1.6c-0.4,0.6-1,1.1-1.8,1.5C918.2,1220,917.3,1220.2,916.4,1220.2z M916.1,1211.1
			c-0.6,0-1.1,0.2-1.4,0.6s-0.6,1-0.7,1.7h4.1v-0.2c0-0.7-0.2-1.2-0.5-1.5S916.7,1211.1,916.1,1211.1z"/>
		<path class="st0" d="M925.8,1220h-3v-15.8h3V1220z"/>
		<path class="st0" d="M933.3,1220.2c-1.6,0-3-0.5-4-1.5c-1-1-1.5-2.3-1.5-4v-0.3c0-1.1,0.2-2.1,0.6-3c0.4-0.9,1-1.6,1.8-2
			c0.8-0.5,1.7-0.7,2.7-0.7c1.5,0,2.7,0.5,3.6,1.4c0.9,1,1.3,2.3,1.3,4.1v1.2h-7.1c0.1,0.7,0.4,1.3,0.9,1.7c0.5,0.4,1.1,0.7,1.8,0.7
			c1.1,0,2-0.4,2.7-1.2l1.5,1.6c-0.4,0.6-1,1.1-1.8,1.5C935.1,1220,934.2,1220.2,933.3,1220.2z M933,1211.1c-0.6,0-1.1,0.2-1.4,0.6
			s-0.6,1-0.7,1.7h4.1v-0.2c0-0.7-0.2-1.2-0.5-1.5S933.6,1211.1,933,1211.1z M933.2,1204.2h3.2l-2.8,3.2h-2.4L933.2,1204.2z"/>
		<path class="st0" d="M940.4,1220v-8.9h-1.7v-2.2h1.7v-0.9c0-1.2,0.4-2.2,1.1-2.9c0.7-0.7,1.7-1,3-1c0.4,0,0.9,0.1,1.5,0.2l0,2.3
			c-0.2-0.1-0.5-0.1-0.9-0.1c-1.1,0-1.7,0.5-1.7,1.6v0.9h2.2v2.2h-2.2v8.9H940.4z"/>
		<path class="st0" d="M946.6,1214.3c0-1.1,0.2-2.1,0.6-2.9s1-1.5,1.8-2c0.8-0.5,1.7-0.7,2.8-0.7c1.5,0,2.7,0.5,3.7,1.4
			s1.5,2.2,1.6,3.7l0,0.8c0,1.7-0.5,3.1-1.4,4.1c-1,1-2.2,1.5-3.8,1.5s-2.9-0.5-3.8-1.5c-1-1-1.4-2.4-1.4-4.2V1214.3z M949.6,1214.5
			c0,1.1,0.2,1.9,0.6,2.4c0.4,0.6,1,0.8,1.7,0.8c0.7,0,1.3-0.3,1.7-0.8s0.6-1.4,0.6-2.6c0-1-0.2-1.8-0.6-2.4c-0.4-0.6-1-0.9-1.7-0.9
			c-0.7,0-1.3,0.3-1.7,0.8C949.8,1212.5,949.6,1213.4,949.6,1214.5z"/>
		<path class="st0" d="M961.7,1208.9l0.1,1.3c0.8-1,1.9-1.5,3.2-1.5c1.2,0,2.1,0.3,2.6,1s0.9,1.7,0.9,3.1v7.2h-3v-7.1
			c0-0.6-0.1-1.1-0.4-1.4c-0.3-0.3-0.7-0.4-1.4-0.4c-0.8,0-1.5,0.4-1.9,1.1v7.8h-3v-11.1H961.7z"/>
		<path class="st0" d="M970.3,1214.3c0-1.1,0.2-2.1,0.6-2.9s1-1.5,1.8-2c0.8-0.5,1.7-0.7,2.8-0.7c1.5,0,2.7,0.5,3.7,1.4
			s1.5,2.2,1.6,3.7l0,0.8c0,1.7-0.5,3.1-1.4,4.1c-1,1-2.2,1.5-3.8,1.5s-2.9-0.5-3.8-1.5c-1-1-1.4-2.4-1.4-4.2V1214.3z M973.2,1214.5
			c0,1.1,0.2,1.9,0.6,2.4c0.4,0.6,1,0.8,1.7,0.8c0.7,0,1.3-0.3,1.7-0.8s0.6-1.4,0.6-2.6c0-1-0.2-1.8-0.6-2.4c-0.4-0.6-1-0.9-1.7-0.9
			c-0.7,0-1.3,0.3-1.7,0.8C973.4,1212.5,973.2,1213.4,973.2,1214.5z"/>
		<path class="st0" d="M988.6,1216.9c0-0.4-0.2-0.6-0.5-0.9c-0.4-0.2-0.9-0.4-1.7-0.6c-2.6-0.6-4-1.7-4-3.4c0-1,0.4-1.8,1.2-2.5
			c0.8-0.7,1.9-1,3.2-1c1.4,0,2.5,0.3,3.4,1c0.8,0.7,1.3,1.5,1.3,2.6h-3c0-0.4-0.1-0.8-0.4-1.1c-0.3-0.3-0.7-0.4-1.3-0.4
			c-0.5,0-0.9,0.1-1.2,0.3c-0.3,0.2-0.4,0.5-0.4,0.9c0,0.3,0.2,0.6,0.5,0.8c0.3,0.2,0.8,0.4,1.6,0.5c0.7,0.1,1.4,0.3,1.9,0.5
			c1.6,0.6,2.3,1.6,2.3,3c0,1-0.4,1.8-1.3,2.5c-0.9,0.6-2,0.9-3.4,0.9c-0.9,0-1.8-0.2-2.5-0.5c-0.7-0.3-1.3-0.8-1.7-1.4
			c-0.4-0.6-0.6-1.2-0.6-1.9h2.8c0,0.5,0.2,0.9,0.6,1.2s0.8,0.4,1.5,0.4c0.6,0,1-0.1,1.3-0.3
			C988.5,1217.5,988.6,1217.3,988.6,1216.9z"/>
		<path class="st0" d="M1002.1,1220H999V1205h3.1V1220z"/>
		<path class="st0" d="M1008,1214.7v5.3h-3.1V1205h5.8c1.1,0,2.1,0.2,3,0.6c0.9,0.4,1.5,1,2,1.7c0.5,0.8,0.7,1.6,0.7,2.6
			c0,1.5-0.5,2.6-1.5,3.5c-1,0.8-2.4,1.3-4.2,1.3H1008z M1008,1212.2h2.7c0.8,0,1.4-0.2,1.9-0.6c0.4-0.4,0.6-0.9,0.6-1.6
			c0-0.7-0.2-1.3-0.6-1.8s-1-0.7-1.8-0.7h-2.8V1212.2z"/>
	</g>
	<g class="st2">
		<path class="st0" d="M901,1239.9c0,1.5-0.3,2.8-0.8,3.9s-1.3,2-2.2,2.6s-2.1,0.9-3.3,0.9c-1.2,0-2.3-0.3-3.3-0.9
			c-1-0.6-1.7-1.4-2.3-2.5c-0.5-1.1-0.8-2.4-0.8-3.8v-0.7c0-1.5,0.3-2.8,0.8-3.9c0.5-1.1,1.3-2,2.2-2.6c1-0.6,2.1-0.9,3.3-0.9
			s2.3,0.3,3.3,0.9c1,0.6,1.7,1.5,2.2,2.6c0.5,1.1,0.8,2.4,0.8,3.9V1239.9z M897.9,1239.2c0-1.6-0.3-2.8-0.8-3.6s-1.4-1.2-2.4-1.2
			c-1,0-1.8,0.4-2.4,1.2c-0.6,0.8-0.8,2-0.9,3.5v0.7c0,1.5,0.3,2.7,0.8,3.5c0.6,0.8,1.4,1.3,2.4,1.3c1,0,1.8-0.4,2.4-1.2
			c0.6-0.8,0.8-2,0.8-3.5V1239.2z"/>
		<path class="st0" d="M903.9,1247v-8.9h-1.7v-2.2h1.7v-0.9c0-1.2,0.4-2.2,1.1-2.9c0.7-0.7,1.7-1,3-1c0.4,0,0.9,0.1,1.5,0.2l0,2.3
			c-0.2-0.1-0.5-0.1-0.9-0.1c-1.1,0-1.7,0.5-1.7,1.6v0.9h2.2v2.2h-2.2v8.9H903.9z"/>
		<path class="st0" d="M910.6,1233c0-0.4,0.1-0.8,0.4-1.1c0.3-0.3,0.7-0.4,1.2-0.4c0.5,0,0.9,0.1,1.2,0.4s0.5,0.7,0.5,1.1
			c0,0.5-0.2,0.8-0.5,1.1s-0.7,0.4-1.2,0.4s-0.9-0.1-1.2-0.4C910.7,1233.8,910.6,1233.5,910.6,1233z M913.7,1247h-3v-11.1h3V1247z"
			/>
		<path class="st0" d="M920.8,1244.8c0.5,0,1-0.2,1.3-0.5s0.5-0.7,0.5-1.2h2.8c0,0.8-0.2,1.4-0.6,2.1c-0.4,0.6-1,1.1-1.7,1.5
			c-0.7,0.3-1.5,0.5-2.3,0.5c-1.6,0-2.8-0.5-3.8-1.5c-0.9-1-1.4-2.4-1.4-4.2v-0.2c0-1.7,0.5-3.1,1.4-4.1s2.2-1.5,3.7-1.5
			c1.4,0,2.5,0.4,3.3,1.2c0.8,0.8,1.3,1.8,1.3,3.2h-2.8c0-0.6-0.2-1-0.5-1.4c-0.3-0.4-0.8-0.5-1.4-0.5c-0.7,0-1.2,0.3-1.6,0.8
			c-0.4,0.5-0.5,1.3-0.5,2.4v0.3c0,1.1,0.2,2,0.5,2.5S920.1,1244.8,920.8,1244.8z"/>
		<path class="st0" d="M927.1,1233c0-0.4,0.1-0.8,0.4-1.1c0.3-0.3,0.7-0.4,1.2-0.4c0.5,0,0.9,0.1,1.2,0.4s0.5,0.7,0.5,1.1
			c0,0.5-0.2,0.8-0.5,1.1s-0.7,0.4-1.2,0.4s-0.9-0.1-1.2-0.4C927.2,1233.8,927.1,1233.5,927.1,1233z M930.2,1247h-3v-11.1h3V1247z"
			/>
		<path class="st0" d="M935.4,1235.9l0.1,1.3c0.8-1,1.9-1.5,3.2-1.5c1.2,0,2.1,0.3,2.6,1s0.9,1.7,0.9,3.1v7.2h-3v-7.1
			c0-0.6-0.1-1.1-0.4-1.4c-0.3-0.3-0.7-0.4-1.4-0.4c-0.8,0-1.5,0.4-1.9,1.1v7.8h-3v-11.1H935.4z"/>
		<path class="st0" d="M950.9,1247c-0.1-0.3-0.2-0.6-0.3-1c-0.7,0.8-1.7,1.2-2.8,1.2c-1.1,0-2-0.3-2.7-0.9s-1.1-1.4-1.1-2.4
			c0-1.2,0.4-2.1,1.3-2.7c0.9-0.6,2.1-0.9,3.8-1h1.4v-0.6c0-0.5-0.1-0.9-0.4-1.2c-0.3-0.3-0.7-0.5-1.2-0.5c-0.5,0-0.9,0.1-1.2,0.4
			s-0.4,0.6-0.4,1h-3c0-0.6,0.2-1.2,0.6-1.8c0.4-0.5,1-1,1.7-1.3c0.7-0.3,1.5-0.5,2.4-0.5c1.4,0,2.5,0.3,3.3,1
			c0.8,0.7,1.2,1.7,1.2,2.9v4.8c0,1.1,0.2,1.8,0.4,2.4v0.2H950.9z M948.4,1244.9c0.4,0,0.8-0.1,1.2-0.3c0.4-0.2,0.6-0.5,0.8-0.8
			v-1.9h-1.1c-1.5,0-2.3,0.5-2.4,1.5l0,0.2c0,0.4,0.1,0.7,0.4,0.9S948,1244.9,948.4,1244.9z"/>
		<path class="st0" d="M967.2,1238.7c-0.4-0.1-0.8-0.1-1.1-0.1c-1.1,0-1.9,0.4-2.2,1.1v7.3h-3v-11.1h2.8l0.1,1.3
			c0.6-1,1.4-1.5,2.5-1.5c0.3,0,0.6,0,0.9,0.1L967.2,1238.7z"/>
		<path class="st0" d="M973.7,1247.2c-1.6,0-3-0.5-4-1.5c-1-1-1.5-2.3-1.5-4v-0.3c0-1.1,0.2-2.1,0.6-3c0.4-0.9,1-1.6,1.8-2
			c0.8-0.5,1.7-0.7,2.7-0.7c1.5,0,2.7,0.5,3.6,1.4c0.9,1,1.3,2.3,1.3,4.1v1.2h-7.1c0.1,0.7,0.4,1.3,0.9,1.7c0.5,0.4,1.1,0.7,1.8,0.7
			c1.1,0,2-0.4,2.7-1.2l1.5,1.6c-0.4,0.6-1,1.1-1.8,1.5C975.4,1247,974.6,1247.2,973.7,1247.2z M973.3,1238.1
			c-0.6,0-1.1,0.2-1.4,0.6s-0.6,1-0.7,1.7h4.1v-0.2c0-0.7-0.2-1.2-0.5-1.5S974,1238.1,973.3,1238.1z"/>
		<path class="st0" d="M979.5,1241.3c0-1.1,0.2-2.1,0.6-2.9s1-1.5,1.8-2c0.8-0.5,1.7-0.7,2.8-0.7c1.5,0,2.7,0.5,3.7,1.4
			s1.5,2.2,1.6,3.7l0,0.8c0,1.7-0.5,3.1-1.4,4.1c-1,1-2.2,1.5-3.8,1.5s-2.9-0.5-3.8-1.5c-1-1-1.4-2.4-1.4-4.2V1241.3z M982.4,1241.5
			c0,1.1,0.2,1.9,0.6,2.4c0.4,0.6,1,0.8,1.7,0.8c0.7,0,1.3-0.3,1.7-0.8s0.6-1.4,0.6-2.6c0-1-0.2-1.8-0.6-2.4c-0.4-0.6-1-0.9-1.7-0.9
			c-0.7,0-1.3,0.3-1.7,0.8C982.6,1239.5,982.4,1240.4,982.4,1241.5z"/>
		<path class="st0" d="M994.6,1235.9l0.1,1.2c0.8-1,1.8-1.4,3.2-1.4c1.4,0,2.4,0.6,2.9,1.7c0.8-1.1,1.9-1.7,3.3-1.7
			c1.2,0,2.1,0.4,2.7,1.1c0.6,0.7,0.9,1.8,0.9,3.2v7.1h-3v-7.1c0-0.6-0.1-1.1-0.4-1.4c-0.2-0.3-0.7-0.4-1.3-0.4
			c-0.9,0-1.5,0.4-1.8,1.3l0,7.6h-3v-7.1c0-0.6-0.1-1.1-0.4-1.4s-0.7-0.4-1.3-0.4c-0.8,0-1.4,0.3-1.8,1v7.8h-3v-11.1H994.6z"/>
		<path class="st0" d="M1013.5,1233.2v2.7h1.9v2.2h-1.9v5.5c0,0.4,0.1,0.7,0.2,0.9s0.5,0.3,0.9,0.3c0.3,0,0.6,0,0.9-0.1v2.2
			c-0.6,0.2-1.2,0.3-1.8,0.3c-2.1,0-3.1-1-3.2-3.1v-6h-1.6v-2.2h1.6v-2.7H1013.5z"/>
		<path class="st0" d="M1023.5,1247c-0.1-0.3-0.2-0.6-0.3-1c-0.7,0.8-1.7,1.2-2.8,1.2c-1.1,0-2-0.3-2.7-0.9s-1.1-1.4-1.1-2.4
			c0-1.2,0.4-2.1,1.3-2.7c0.9-0.6,2.1-0.9,3.8-1h1.4v-0.6c0-0.5-0.1-0.9-0.4-1.2c-0.3-0.3-0.7-0.5-1.2-0.5c-0.5,0-0.9,0.1-1.2,0.4
			s-0.4,0.6-0.4,1h-3c0-0.6,0.2-1.2,0.6-1.8c0.4-0.5,1-1,1.7-1.3c0.7-0.3,1.5-0.5,2.4-0.5c1.4,0,2.5,0.3,3.3,1
			c0.8,0.7,1.2,1.7,1.2,2.9v4.8c0,1.1,0.2,1.8,0.4,2.4v0.2H1023.5z M1021.1,1244.9c0.4,0,0.8-0.1,1.2-0.3c0.4-0.2,0.6-0.5,0.8-0.8
			v-1.9h-1.1c-1.5,0-2.3,0.5-2.4,1.5l0,0.2c0,0.4,0.1,0.7,0.4,0.9S1020.6,1244.9,1021.1,1244.9z"/>
	</g>
	<g class="st2">
		<path class="st0" d="M1249.5,1216.1c0-0.6-0.2-1-0.6-1.3c-0.4-0.3-1.1-0.6-2.2-1c-1.1-0.3-1.9-0.7-2.5-1c-1.7-0.9-2.5-2.1-2.5-3.7
			c0-0.8,0.2-1.5,0.7-2.2c0.5-0.6,1.1-1.1,2-1.5c0.9-0.4,1.8-0.5,2.9-0.5c1.1,0,2,0.2,2.9,0.6c0.8,0.4,1.5,0.9,1.9,1.6
			c0.5,0.7,0.7,1.5,0.7,2.4h-3.1c0-0.7-0.2-1.2-0.6-1.6c-0.4-0.4-1-0.6-1.8-0.6c-0.8,0-1.3,0.2-1.8,0.5c-0.4,0.3-0.6,0.7-0.6,1.3
			c0,0.5,0.2,0.9,0.7,1.2c0.5,0.3,1.2,0.6,2.2,0.9c1.8,0.5,3,1.2,3.8,2s1.2,1.8,1.2,2.9c0,1.3-0.5,2.3-1.5,3c-1,0.7-2.3,1.1-3.9,1.1
			c-1.1,0-2.2-0.2-3.1-0.6c-0.9-0.4-1.7-1-2.2-1.7c-0.5-0.7-0.7-1.6-0.7-2.5h3.1c0,1.6,1,2.5,3,2.5c0.7,0,1.3-0.1,1.7-0.4
			C1249.3,1217,1249.5,1216.6,1249.5,1216.1z"/>
		<path class="st0" d="M1254.1,1214.3c0-1.1,0.2-2.1,0.6-2.9s1-1.5,1.8-2c0.8-0.5,1.7-0.7,2.8-0.7c1.5,0,2.7,0.5,3.7,1.4
			c0.9,0.9,1.5,2.2,1.6,3.7l0,0.8c0,1.7-0.5,3.1-1.4,4.1c-1,1-2.2,1.5-3.8,1.5s-2.9-0.5-3.8-1.5c-1-1-1.4-2.4-1.4-4.2V1214.3z
			 M1257,1214.5c0,1.1,0.2,1.9,0.6,2.4c0.4,0.6,1,0.8,1.7,0.8c0.7,0,1.3-0.3,1.7-0.8s0.6-1.4,0.6-2.6c0-1-0.2-1.8-0.6-2.4
			c-0.4-0.6-1-0.9-1.7-0.9c-0.7,0-1.3,0.3-1.7,0.8C1257.2,1212.5,1257,1213.4,1257,1214.5z"/>
		<path class="st0" d="M1267.2,1220v-8.9h-1.7v-2.2h1.7v-0.9c0-1.2,0.4-2.2,1.1-2.9c0.7-0.7,1.7-1,3-1c0.4,0,0.9,0.1,1.5,0.2l0,2.3
			c-0.2-0.1-0.5-0.1-0.9-0.1c-1.1,0-1.7,0.5-1.7,1.6v0.9h2.2v2.2h-2.2v8.9H1267.2z"/>
		<path class="st0" d="M1277.5,1206.2v2.7h1.9v2.2h-1.9v5.5c0,0.4,0.1,0.7,0.2,0.9s0.5,0.3,0.9,0.3c0.3,0,0.6,0,0.9-0.1v2.2
			c-0.6,0.2-1.2,0.3-1.8,0.3c-2.1,0-3.1-1-3.2-3.1v-6h-1.6v-2.2h1.6v-2.7H1277.5z"/>
		<path class="st0" d="M1290.7,1215.9l1.5-7.1h2.9l-2.8,11.1h-2.5l-2.1-7l-2.1,7h-2.5l-2.8-11.1h2.9l1.4,7.1l2-7.1h2.1
			L1290.7,1215.9z"/>
		<path class="st0" d="M1302.9,1220c-0.1-0.3-0.2-0.6-0.3-1c-0.7,0.8-1.7,1.2-2.8,1.2c-1.1,0-2-0.3-2.7-0.9
			c-0.7-0.6-1.1-1.4-1.1-2.4c0-1.2,0.4-2.1,1.3-2.7c0.9-0.6,2.1-0.9,3.8-1h1.4v-0.6c0-0.5-0.1-0.9-0.4-1.2c-0.3-0.3-0.7-0.5-1.2-0.5
			c-0.5,0-0.9,0.1-1.2,0.4c-0.3,0.2-0.4,0.6-0.4,1h-3c0-0.6,0.2-1.2,0.6-1.8c0.4-0.5,1-1,1.7-1.3c0.7-0.3,1.5-0.5,2.4-0.5
			c1.4,0,2.5,0.3,3.3,1c0.8,0.7,1.2,1.7,1.2,2.9v4.8c0,1.1,0.2,1.8,0.4,2.4v0.2H1302.9z M1300.4,1217.9c0.4,0,0.8-0.1,1.2-0.3
			c0.4-0.2,0.6-0.5,0.8-0.8v-1.9h-1.1c-1.5,0-2.3,0.5-2.4,1.5l0,0.2c0,0.4,0.1,0.7,0.4,0.9S1300,1217.9,1300.4,1217.9z"/>
		<path class="st0" d="M1313.9,1211.7c-0.4-0.1-0.8-0.1-1.1-0.1c-1.1,0-1.9,0.4-2.2,1.1v7.3h-3v-11.1h2.8l0.1,1.3
			c0.6-1,1.4-1.5,2.5-1.5c0.3,0,0.6,0,0.9,0.1L1313.9,1211.7z"/>
		<path class="st0" d="M1320.5,1220.2c-1.6,0-3-0.5-4-1.5c-1-1-1.5-2.3-1.5-4v-0.3c0-1.1,0.2-2.1,0.6-3c0.4-0.9,1-1.6,1.8-2
			c0.8-0.5,1.7-0.7,2.7-0.7c1.5,0,2.7,0.5,3.6,1.4c0.9,1,1.3,2.3,1.3,4.1v1.2h-7.1c0.1,0.7,0.4,1.3,0.9,1.7c0.5,0.4,1.1,0.7,1.8,0.7
			c1.1,0,2-0.4,2.7-1.2l1.5,1.6c-0.4,0.6-1,1.1-1.8,1.5C1322.2,1220,1321.4,1220.2,1320.5,1220.2z M1320.1,1211.1
			c-0.6,0-1.1,0.2-1.4,0.6c-0.4,0.4-0.6,1-0.7,1.7h4.1v-0.2c0-0.7-0.2-1.2-0.5-1.5S1320.8,1211.1,1320.1,1211.1z"/>
		<path class="st0" d="M1335.4,1220h-3.1V1205h3.1V1220z"/>
		<path class="st0" d="M1341.3,1214.7v5.3h-3.1V1205h5.8c1.1,0,2.1,0.2,3,0.6c0.9,0.4,1.5,1,2,1.7c0.5,0.8,0.7,1.6,0.7,2.6
			c0,1.5-0.5,2.6-1.5,3.5c-1,0.8-2.4,1.3-4.2,1.3H1341.3z M1341.3,1212.2h2.7c0.8,0,1.4-0.2,1.9-0.6c0.4-0.4,0.6-0.9,0.6-1.6
			c0-0.7-0.2-1.3-0.6-1.8s-1-0.7-1.8-0.7h-2.8V1212.2z"/>
	</g>
	<g class="st2">
		<path class="st0" d="M1253.3,1247.2c-1.6,0-3-0.5-4-1.5c-1-1-1.5-2.3-1.5-4v-0.3c0-1.1,0.2-2.1,0.6-3c0.4-0.9,1-1.6,1.8-2
			c0.8-0.5,1.7-0.7,2.7-0.7c1.5,0,2.7,0.5,3.6,1.4c0.9,1,1.3,2.3,1.3,4.1v1.2h-7.1c0.1,0.7,0.4,1.3,0.9,1.7c0.5,0.4,1.1,0.7,1.8,0.7
			c1.1,0,2-0.4,2.7-1.2l1.5,1.6c-0.4,0.6-1,1.1-1.8,1.5C1255.1,1247,1254.2,1247.2,1253.3,1247.2z M1253,1238.1
			c-0.6,0-1.1,0.2-1.4,0.6c-0.4,0.4-0.6,1-0.7,1.7h4.1v-0.2c0-0.7-0.2-1.2-0.5-1.5S1253.6,1238.1,1253,1238.1z"/>
		<path class="st0" d="M1262.3,1235.9l0.1,1.3c0.8-1,1.9-1.5,3.2-1.5c1.2,0,2.1,0.3,2.6,1s0.9,1.7,0.9,3.1v7.2h-3v-7.1
			c0-0.6-0.1-1.1-0.4-1.4c-0.3-0.3-0.7-0.4-1.4-0.4c-0.8,0-1.5,0.4-1.9,1.1v7.8h-3v-11.1H1262.3z"/>
		<path class="st0" d="M1279.7,1247h-3v-15.8h3V1247z"/>
		<path class="st0" d="M1288.5,1247c-0.1-0.3-0.2-0.6-0.3-1c-0.7,0.8-1.7,1.2-2.8,1.2c-1.1,0-2-0.3-2.7-0.9
			c-0.7-0.6-1.1-1.4-1.1-2.4c0-1.2,0.4-2.1,1.3-2.7c0.9-0.6,2.1-0.9,3.8-1h1.4v-0.6c0-0.5-0.1-0.9-0.4-1.2c-0.3-0.3-0.7-0.5-1.2-0.5
			c-0.5,0-0.9,0.1-1.2,0.4c-0.3,0.2-0.4,0.6-0.4,1h-3c0-0.6,0.2-1.2,0.6-1.8c0.4-0.5,1-1,1.7-1.3c0.7-0.3,1.5-0.5,2.4-0.5
			c1.4,0,2.5,0.3,3.3,1c0.8,0.7,1.2,1.7,1.2,2.9v4.8c0,1.1,0.2,1.8,0.4,2.4v0.2H1288.5z M1286.1,1244.9c0.4,0,0.8-0.1,1.2-0.3
			c0.4-0.2,0.6-0.5,0.8-0.8v-1.9h-1.1c-1.5,0-2.3,0.5-2.4,1.5l0,0.2c0,0.4,0.1,0.7,0.4,0.9S1285.6,1244.9,1286.1,1244.9z"/>
		<path class="st0" d="M1301.3,1235.9l0.1,1.3c0.8-1,1.9-1.5,3.2-1.5c1.2,0,2.1,0.3,2.6,1s0.9,1.7,0.9,3.1v7.2h-3v-7.1
			c0-0.6-0.1-1.1-0.4-1.4c-0.3-0.3-0.7-0.4-1.4-0.4c-0.8,0-1.5,0.4-1.9,1.1v7.8h-3v-11.1H1301.3z"/>
		<path class="st0" d="M1317,1245.9c-0.7,0.9-1.7,1.3-3,1.3c-1.2,0-2.1-0.3-2.7-1c-0.6-0.7-0.9-1.7-1-3v-7.3h3v7.2
			c0,1.2,0.5,1.7,1.6,1.7c1,0,1.7-0.3,2.1-1v-7.9h3v11.1h-2.8L1317,1245.9z"/>
		<path class="st0" d="M1332.1,1241.5c0,1.8-0.4,3.2-1.1,4.2c-0.8,1-1.8,1.5-3.2,1.5c-1.2,0-2.2-0.5-2.9-1.4l-0.1,1.2h-2.7v-15.8h3
			v5.7c0.7-0.8,1.6-1.2,2.7-1.2c1.4,0,2.4,0.5,3.2,1.5c0.8,1,1.2,2.4,1.2,4.2V1241.5z M1329.1,1241.3c0-1.1-0.2-1.9-0.5-2.5
			c-0.4-0.5-0.9-0.8-1.6-0.8c-0.9,0-1.6,0.4-1.9,1.2v4.4c0.4,0.8,1,1.2,2,1.2c1,0,1.6-0.5,1.9-1.4
			C1329.1,1242.9,1329.1,1242.2,1329.1,1241.3z"/>
		<path class="st0" d="M1339,1247.2c-1.6,0-3-0.5-4-1.5c-1-1-1.5-2.3-1.5-4v-0.3c0-1.1,0.2-2.1,0.6-3c0.4-0.9,1-1.6,1.8-2
			c0.8-0.5,1.7-0.7,2.7-0.7c1.5,0,2.7,0.5,3.6,1.4c0.9,1,1.3,2.3,1.3,4.1v1.2h-7.1c0.1,0.7,0.4,1.3,0.9,1.7c0.5,0.4,1.1,0.7,1.8,0.7
			c1.1,0,2-0.4,2.7-1.2l1.5,1.6c-0.4,0.6-1,1.1-1.8,1.5C1340.8,1247,1340,1247.2,1339,1247.2z M1338.7,1238.1
			c-0.6,0-1.1,0.2-1.4,0.6c-0.4,0.4-0.6,1-0.7,1.7h4.1v-0.2c0-0.7-0.2-1.2-0.5-1.5S1339.3,1238.1,1338.7,1238.1z"/>
	</g>
	<g class="st2">
		<path class="st0" d="M1547.2,879.3v5.3h-3.1v-14.9h5.8c1.1,0,2.1,0.2,3,0.6c0.9,0.4,1.5,1,2,1.7c0.5,0.8,0.7,1.6,0.7,2.6
			c0,1.5-0.5,2.6-1.5,3.5c-1,0.8-2.4,1.3-4.2,1.3H1547.2z M1547.2,876.8h2.7c0.8,0,1.4-0.2,1.9-0.6c0.4-0.4,0.6-0.9,0.6-1.6
			c0-0.7-0.2-1.3-0.6-1.8s-1-0.7-1.8-0.7h-2.8V876.8z"/>
		<path class="st0" d="M1565.4,880.6c0-0.6-0.2-1-0.6-1.3c-0.4-0.3-1.1-0.6-2.2-1c-1.1-0.3-1.9-0.7-2.5-1c-1.7-0.9-2.5-2.1-2.5-3.7
			c0-0.8,0.2-1.5,0.7-2.2c0.5-0.6,1.1-1.1,2-1.5c0.9-0.4,1.8-0.5,2.9-0.5c1.1,0,2,0.2,2.9,0.6c0.8,0.4,1.5,0.9,1.9,1.6
			c0.5,0.7,0.7,1.5,0.7,2.4h-3.1c0-0.7-0.2-1.2-0.6-1.6c-0.4-0.4-1-0.6-1.8-0.6c-0.8,0-1.3,0.2-1.8,0.5c-0.4,0.3-0.6,0.7-0.6,1.3
			c0,0.5,0.2,0.9,0.7,1.2c0.5,0.3,1.2,0.6,2.2,0.9c1.8,0.5,3,1.2,3.8,2s1.2,1.8,1.2,2.9c0,1.3-0.5,2.3-1.5,3c-1,0.7-2.3,1.1-3.9,1.1
			c-1.1,0-2.2-0.2-3.1-0.6c-0.9-0.4-1.7-1-2.2-1.7c-0.5-0.7-0.7-1.6-0.7-2.5h3.1c0,1.6,1,2.5,3,2.5c0.7,0,1.3-0.1,1.7-0.4
			C1565.2,881.6,1565.4,881.1,1565.4,880.6z"/>
		<path class="st0" d="M1581.8,872.1h-4.6v12.4h-3.1v-12.4h-4.5v-2.5h12.2V872.1z"/>
		<path class="st0" d="M1595.7,884.5h-3.1l-6-9.8v9.8h-3.1v-14.9h3.1l6,9.8v-9.8h3.1V884.5z"/>
	</g>
	<g class="st2">
		<path class="st0" d="M909.7,875.5h-2.2v4.9h-2.8v-13.5h5c1.6,0,2.8,0.4,3.7,1.1c0.9,0.7,1.3,1.7,1.3,3c0,0.9-0.2,1.7-0.6,2.3
			c-0.4,0.6-1,1.1-1.8,1.5l2.9,5.5v0.1h-3L909.7,875.5z M907.5,873.2h2.2c0.7,0,1.2-0.2,1.6-0.5s0.6-0.8,0.6-1.5
			c0-0.6-0.2-1.1-0.5-1.5c-0.4-0.4-0.9-0.5-1.7-0.5h-2.2V873.2z"/>
		<path class="st0" d="M921.3,880.6c-1.5,0-2.7-0.5-3.6-1.4c-0.9-0.9-1.4-2.1-1.4-3.6v-0.3c0-1,0.2-1.9,0.6-2.7
			c0.4-0.8,0.9-1.4,1.7-1.8c0.7-0.4,1.5-0.6,2.4-0.6c1.4,0,2.5,0.4,3.2,1.3c0.8,0.9,1.2,2.1,1.2,3.7v1.1H919
			c0.1,0.7,0.3,1.2,0.8,1.6c0.4,0.4,1,0.6,1.7,0.6c1,0,1.8-0.4,2.4-1.1l1.3,1.5c-0.4,0.6-0.9,1-1.6,1.3S922.1,880.6,921.3,880.6z
			 M921,872.3c-0.5,0-1,0.2-1.3,0.5s-0.5,0.9-0.6,1.5h3.7v-0.2c0-0.6-0.2-1.1-0.5-1.4S921.6,872.3,921,872.3z"/>
		<path class="st0" d="M926.5,875.3c0-1.6,0.4-2.8,1.1-3.7s1.7-1.4,2.9-1.4c1,0,1.8,0.4,2.4,1.1v-5.1h2.7v14.2h-2.4l-0.1-1.1
			c-0.7,0.8-1.5,1.3-2.6,1.3c-1.2,0-2.1-0.5-2.8-1.4C926.9,878.3,926.5,877,926.5,875.3z M929.2,875.5c0,0.9,0.2,1.7,0.5,2.2
			c0.3,0.5,0.8,0.8,1.4,0.8c0.8,0,1.4-0.3,1.8-1v-4c-0.3-0.7-0.9-1-1.7-1C929.9,872.4,929.2,873.4,929.2,875.5z"/>
		<path class="st0" d="M951.4,875.5c0,1.5-0.4,2.8-1.1,3.7c-0.7,0.9-1.7,1.4-2.8,1.4c-1,0-1.8-0.4-2.5-1.1v4.7h-2.7v-13.9h2.5l0.1,1
			c0.6-0.8,1.5-1.2,2.5-1.2c1.2,0,2.2,0.5,2.9,1.4s1,2.2,1,3.8V875.5z M948.7,875.3c0-0.9-0.2-1.7-0.5-2.2c-0.3-0.5-0.8-0.8-1.4-0.8
			c-0.8,0-1.4,0.3-1.7,1v4.1c0.3,0.7,0.9,1,1.8,1C948.1,878.4,948.7,877.4,948.7,875.3z"/>
		<path class="st0" d="M958.7,872.9c-0.4,0-0.7-0.1-1-0.1c-1,0-1.7,0.3-2,1v6.6h-2.7v-10h2.5l0.1,1.2c0.5-0.9,1.3-1.4,2.2-1.4
			c0.3,0,0.6,0,0.8,0.1L958.7,872.9z"/>
		<path class="st0" d="M960,867.8c0-0.4,0.1-0.7,0.4-1c0.3-0.3,0.6-0.4,1.1-0.4c0.5,0,0.8,0.1,1.1,0.4s0.4,0.6,0.4,1
			c0,0.4-0.1,0.7-0.4,1c-0.3,0.3-0.6,0.4-1.1,0.4s-0.8-0.1-1.1-0.4S960,868.2,960,867.8z M962.8,880.4h-2.7v-10h2.7V880.4z"/>
		<path class="st0" d="M968.8,877.1l1.9-6.8h2.8l-3.4,10h-2.6l-3.4-10h2.8L968.8,877.1z"/>
		<path class="st0" d="M980.3,880.4c-0.1-0.2-0.2-0.5-0.3-0.9c-0.6,0.7-1.5,1.1-2.5,1.1c-1,0-1.8-0.3-2.4-0.9s-1-1.3-1-2.2
			c0-1.1,0.4-1.9,1.2-2.4c0.8-0.6,1.9-0.9,3.4-0.9h1.2v-0.6c0-0.5-0.1-0.8-0.4-1.1c-0.2-0.3-0.6-0.4-1.1-0.4c-0.5,0-0.8,0.1-1.1,0.3
			c-0.3,0.2-0.4,0.5-0.4,0.9h-2.7c0-0.6,0.2-1.1,0.5-1.6c0.4-0.5,0.9-0.9,1.5-1.2c0.7-0.3,1.4-0.4,2.2-0.4c1.2,0,2.2,0.3,2.9,0.9
			c0.7,0.6,1.1,1.5,1.1,2.6v4.4c0,1,0.1,1.7,0.4,2.2v0.2H980.3z M978.1,878.5c0.4,0,0.8-0.1,1.1-0.3c0.3-0.2,0.6-0.4,0.7-0.7v-1.7
			h-1c-1.3,0-2.1,0.5-2.1,1.4l0,0.2c0,0.3,0.1,0.6,0.4,0.8C977.4,878.4,977.7,878.5,978.1,878.5z"/>
		<path class="st0" d="M984.3,875.3c0-1.6,0.4-2.8,1.1-3.7c0.7-0.9,1.7-1.4,2.9-1.4c1,0,1.8,0.4,2.4,1.1v-5.1h2.7v14.2h-2.4
			l-0.1-1.1c-0.7,0.8-1.5,1.3-2.6,1.3c-1.2,0-2.1-0.5-2.8-1.4C984.6,878.3,984.3,877,984.3,875.3z M987,875.5c0,0.9,0.2,1.7,0.5,2.2
			s0.8,0.8,1.4,0.8c0.8,0,1.4-0.3,1.8-1v-4c-0.3-0.7-0.9-1-1.7-1C987.6,872.4,987,873.4,987,875.5z"/>
		<path class="st0" d="M1001.2,880.4c-0.1-0.2-0.2-0.5-0.3-0.9c-0.6,0.7-1.5,1.1-2.5,1.1c-1,0-1.8-0.3-2.4-0.9s-1-1.3-1-2.2
			c0-1.1,0.4-1.9,1.2-2.4c0.8-0.6,1.9-0.9,3.4-0.9h1.2v-0.6c0-0.5-0.1-0.8-0.4-1.1c-0.2-0.3-0.6-0.4-1.1-0.4c-0.5,0-0.8,0.1-1.1,0.3
			c-0.3,0.2-0.4,0.5-0.4,0.9h-2.7c0-0.6,0.2-1.1,0.5-1.6c0.4-0.5,0.9-0.9,1.5-1.2c0.7-0.3,1.4-0.4,2.2-0.4c1.2,0,2.2,0.3,2.9,0.9
			c0.7,0.6,1.1,1.5,1.1,2.6v4.4c0,1,0.1,1.7,0.4,2.2v0.2H1001.2z M999,878.5c0.4,0,0.8-0.1,1.1-0.3c0.3-0.2,0.6-0.4,0.7-0.7v-1.7h-1
			c-1.3,0-2.1,0.5-2.1,1.4l0,0.2c0,0.3,0.1,0.6,0.4,0.8C998.3,878.4,998.6,878.5,999,878.5z"/>
	</g>
	<g class="st2">
		<path class="st0" d="M1265.8,881.4h-3.1v-14.9h3.1V881.4z"/>
		<path class="st0" d="M1271.2,870.3l0.1,1.3c0.8-1,1.9-1.5,3.2-1.5c1.2,0,2.1,0.3,2.6,1s0.9,1.7,0.9,3.1v7.2h-3v-7.1
			c0-0.6-0.1-1.1-0.4-1.4c-0.3-0.3-0.7-0.4-1.4-0.4c-0.8,0-1.5,0.4-1.9,1.1v7.8h-3v-11.1H1271.2z"/>
		<path class="st0" d="M1283.8,867.6v2.7h1.9v2.2h-1.9v5.5c0,0.4,0.1,0.7,0.2,0.9s0.5,0.3,0.9,0.3c0.3,0,0.6,0,0.9-0.1v2.2
			c-0.6,0.2-1.2,0.3-1.8,0.3c-2.1,0-3.1-1-3.2-3.1v-6h-1.6v-2.2h1.6v-2.7H1283.8z"/>
		<path class="st0" d="M1292.5,881.6c-1.6,0-3-0.5-4-1.5c-1-1-1.5-2.3-1.5-4v-0.3c0-1.1,0.2-2.1,0.6-3c0.4-0.9,1-1.6,1.8-2
			c0.8-0.5,1.7-0.7,2.7-0.7c1.5,0,2.7,0.5,3.6,1.4c0.9,1,1.3,2.3,1.3,4.1v1.2h-7.1c0.1,0.7,0.4,1.3,0.9,1.7c0.5,0.4,1.1,0.7,1.8,0.7
			c1.1,0,2-0.4,2.7-1.2l1.5,1.6c-0.4,0.6-1,1.1-1.8,1.5C1294.2,881.4,1293.4,881.6,1292.5,881.6z M1292.1,872.5
			c-0.6,0-1.1,0.2-1.4,0.6s-0.6,1-0.7,1.7h4.1v-0.2c0-0.7-0.2-1.2-0.5-1.5S1292.8,872.5,1292.1,872.5z"/>
		<path class="st0" d="M1304.9,873.1c-0.4-0.1-0.8-0.1-1.1-0.1c-1.1,0-1.9,0.4-2.2,1.1v7.3h-3v-11.1h2.8l0.1,1.3
			c0.6-1,1.4-1.5,2.5-1.5c0.3,0,0.6,0,0.9,0.1L1304.9,873.1z"/>
		<path class="st0" d="M1309.1,870.3l0.1,1.3c0.8-1,1.9-1.5,3.2-1.5c1.2,0,2.1,0.3,2.6,1s0.9,1.7,0.9,3.1v7.2h-3v-7.1
			c0-0.6-0.1-1.1-0.4-1.4c-0.3-0.3-0.7-0.4-1.4-0.4c-0.8,0-1.5,0.4-1.9,1.1v7.8h-3v-11.1H1309.1z"/>
		<path class="st0" d="M1323.2,881.6c-1.6,0-3-0.5-4-1.5c-1-1-1.5-2.3-1.5-4v-0.3c0-1.1,0.2-2.1,0.6-3c0.4-0.9,1-1.6,1.8-2
			c0.8-0.5,1.7-0.7,2.7-0.7c1.5,0,2.7,0.5,3.6,1.4s1.3,2.3,1.3,4.1v1.2h-7.1c0.1,0.7,0.4,1.3,0.9,1.7c0.5,0.4,1.1,0.7,1.8,0.7
			c1.1,0,2-0.4,2.7-1.2l1.5,1.6c-0.4,0.6-1,1.1-1.8,1.5C1325,881.4,1324.2,881.6,1323.2,881.6z M1322.9,872.5
			c-0.6,0-1.1,0.2-1.4,0.6c-0.4,0.4-0.6,1-0.7,1.7h4.1v-0.2c0-0.7-0.2-1.2-0.5-1.5S1323.5,872.5,1322.9,872.5z"/>
		<path class="st0" d="M1333,867.6v2.7h1.9v2.2h-1.9v5.5c0,0.4,0.1,0.7,0.2,0.9s0.5,0.3,0.9,0.3c0.3,0,0.6,0,0.9-0.1v2.2
			c-0.6,0.2-1.2,0.3-1.8,0.3c-2.1,0-3.1-1-3.2-3.1v-6h-1.6v-2.2h1.6v-2.7H1333z"/>
	</g>
	<line class="st3" x1="760.8" y1="867" x2="760.8" y2="1178.1"/>
	<line class="st3" x1="1141.1" y1="867" x2="1141.1" y2="1178.1"/>
	<line class="st3" x1="1465.2" y1="867" x2="1465.2" y2="1178.1"/>
	<line class="st4" x1="722.1" y1="976.9" x2="824.4" y2="976.9"/>
	<line class="st4" x1="937" y1="977.3" x2="995.1" y2="977.3"/>
	<line class="st4" x1="1118.9" y1="977.3" x2="1184" y2="977.3"/>
	<line class="st4" x1="1288.6" y1="977.3" x2="1321.2" y2="977.3"/>
	<line class="st5" x1="1449" y1="977.3" x2="1549.1" y2="977.3"/>
	<path class="st5" d="M1424.9,1002.1v82h65.3"/>
	<path class="st4" d="M984.7,1057.5v-41.4h22.8v-16.9"/>
	<path class="st4" d="M722.1,1088.1h149.6v-89.8"/>
</g>
</svg>
