<?xml version="1.0" encoding="utf-8"?>
<!-- Generator: Adobe Illustrator 25.2.3, SVG Export Plug-In . SVG Version: 6.00 Build 0)  -->
<svg version="1.1" id="Capa_1" xmlns="http://www.w3.org/2000/svg" xmlns:xlink="http://www.w3.org/1999/xlink" x="0px" y="0px"
	 viewBox="0 0 867.1 371.9" style="enable-background:new 0 0 867.1 371.9;" xml:space="preserve">
<style type="text/css">
	.st0{enable-background:new    ;}
	.st1{fill:#37A3A5;}
	.st2{fill:none;stroke:#12263F;stroke-width:4;stroke-miterlimit:10;}
	.st3{fill:none;stroke:#12263F;stroke-width:2;stroke-miterlimit:10;}
	.st4{fill:#37A3A5;stroke:#12263F;stroke-width:3;stroke-miterlimit:10;}
	.st5{fill:#12263F;}
	.st6{fill:#12263F;stroke:#000000;stroke-width:0.5;stroke-miterlimit:10;}
</style>
<g id="Grupo_56638" transform="translate(628.914 -148.277)">
	<g class="st0">
		<path class="st1" d="M-282.3,270.6l22.6-74.9h22.8l-34.7,99.5H-293l-34.5-99.5h22.8L-282.3,270.6z"/>
		<path class="st1" d="M-146.7,247.8c0,9.8-1.7,18.4-5.2,25.8c-3.5,7.4-8.4,13.1-14.9,17.1c-6.4,4-13.8,6-22.2,6
			c-8.2,0-15.6-2-22.1-5.9c-6.5-4-11.5-9.6-15-17c-3.6-7.4-5.4-15.8-5.4-25.4v-4.9c0-9.8,1.8-18.4,5.3-25.9
			c3.5-7.5,8.5-13.2,15-17.2c6.4-4,13.8-6,22.1-6c8.3,0,15.7,2,22.1,6c6.4,4,11.4,9.7,15,17.2c3.5,7.5,5.3,16.1,5.3,25.8V247.8z
			 M-167.5,243.3c0-10.4-1.9-18.4-5.6-23.8c-3.7-5.4-9.1-8.1-16-8.1c-6.9,0-12.2,2.7-15.9,8c-3.7,5.4-5.6,13.2-5.7,23.5v4.9
			c0,10.2,1.9,18,5.6,23.7c3.7,5.6,9.1,8.4,16.1,8.4c6.9,0,12.2-2.7,15.9-8.1s5.6-13.3,5.6-23.6V243.3z"/>
		<path class="st1" d="M-110,295.3h-20.5v-99.5h20.5V295.3z"/>
		<path class="st1" d="M-70.5,260.2v35.1H-91v-99.5h38.8c7.5,0,14,1.4,19.7,4.1s10,6.6,13.1,11.7c3.1,5,4.6,10.8,4.6,17.2
			c0,9.8-3.3,17.4-10,23.1c-6.7,5.6-15.9,8.4-27.7,8.4H-70.5z M-70.5,243.6h18.3c5.4,0,9.6-1.3,12.4-3.8c2.8-2.6,4.3-6.2,4.3-10.9
			c0-4.9-1.4-8.8-4.3-11.8s-6.8-4.6-11.9-4.6h-18.8V243.6z"/>
	</g>
	<line id="Línea_1622" class="st2" x1="-582.1" y1="334.6" x2="213.4" y2="334.6"/>
	<line id="Línea_1623" class="st3" x1="-582.1" y1="310.8" x2="-582.1" y2="358"/>
	<circle id="Elipse_4072" class="st4" cx="-582.1" cy="334.6" r="6.9"/>
	<line id="Línea_1624" class="st3" x1="-467" y1="310.8" x2="-467" y2="358"/>
	<circle id="Elipse_4073" class="st4" cx="-467" cy="334.6" r="6.9"/>
	<line id="Línea_1625" class="st3" x1="-353.2" y1="310.8" x2="-353.2" y2="358"/>
	<circle id="Elipse_4074" class="st4" cx="-353.2" cy="334.6" r="6.9"/>
	<line id="Línea_1626" class="st3" x1="-240.9" y1="310.8" x2="-240.9" y2="358"/>
	<circle id="Elipse_4075" class="st4" cx="-240.9" cy="334.6" r="6.9"/>
	<line id="Línea_1627" class="st3" x1="-126.8" y1="310.8" x2="-126.8" y2="358"/>
	<circle id="Elipse_4076" class="st4" cx="-126.8" cy="334.6" r="6.9"/>
	<line id="Línea_1628" class="st3" x1="-14.6" y1="310.8" x2="-14.6" y2="358"/>
	<circle id="Elipse_4077" class="st4" cx="-14.6" cy="334.6" r="6.9"/>
	<line id="Línea_1629" class="st3" x1="100.3" y1="310.8" x2="100.3" y2="358"/>
	<circle id="Elipse_4078" class="st4" cx="100.3" cy="334.6" r="6.9"/>
	<line id="Línea_1630" class="st3" x1="210.5" y1="310.8" x2="210.5" y2="358"/>
	<circle id="Elipse_4079" class="st4" cx="210.5" cy="334.6" r="6.9"/>
	<g id="Grupo_56631" transform="translate(-624.754 375.302)">
		<path id="Trazado_122972" class="st5" d="M84.1,39v30.4c0.1,0.8-0.4,1.5-1.2,1.6c-0.2,0-0.3,0-0.5,0c-3.9,0-7.8,0-11.8,0H44.3
			c-5.1,0-10.2,0-15.4,0c-0.3,0-0.5,0.1-0.6,0.4c-2.7,5.6-9.4,8-14.9,5.3c-1.6-0.8-3-1.9-4.1-3.3c-0.5-0.7-0.9-1.4-1.3-2.1
			C7.9,71.1,7.7,71,7.5,71c-2,0-3.9,0-5.9,0c-0.8,0.1-1.5-0.4-1.6-1.2c0-0.1,0-0.3,0-0.4V8.6C-0.1,7.8,0.5,7.1,1.2,7
			c0.1,0,0.2,0,0.4,0c1.9,0,3.9,0,5.8,0C7.7,7,7.9,6.9,8,6.6c1.6-3.7,5.1-6.2,9.1-6.6c4.5-0.4,8.8,1.8,10.9,5.8
			c0.1,0.1,0.2,0.3,0.2,0.5C28.4,6.9,28.9,7,29.4,7c4.6,0,9.2,0,13.9,0h39.1c1.2,0,1.7,0.5,1.7,1.7c0,6,0,12.1,0,18.1
			C84.1,30.8,84.1,34.9,84.1,39L84.1,39z M81.3,68.2V9.8H29.4v58.5L81.3,68.2z M9.8,38.9L9.8,38.9c0,1.1,0,2.3,0,3.4
			c0,4.4,0,8.8,0,13.2c0,3.5,0,7.1,0,10.6c-0.1,1.7,0.4,3.5,1.3,4.9c1.7,2.8,4.8,4.3,8,3.9c4.4-0.4,7.7-4.1,7.6-8.5
			c0-2.8,0-5.6,0-8.5c0-2.7,0-5.4,0-8.1V22.9c0-3.7,0-7.5,0-11.2c0-0.5,0-1.1-0.1-1.6c-0.6-4.4-4.5-7.5-8.9-7.2
			c-3.2,0.1-6,2.1-7.2,5c-0.6,1.3-0.8,2.7-0.7,4.1C9.8,20.9,9.8,29.9,9.8,38.9L9.8,38.9z M7,68.2V9.7H3.4c-0.6,0-0.6,0-0.6,0.6v57.9
			L7,68.2z"/>
		<path id="Trazado_122973" class="st5" d="M61.6,30.7H47.9c-0.8,0.1-1.5-0.5-1.6-1.2c0-0.1,0-0.2,0-0.3c0-4.6,0-9.1,0-13.7
			c-0.1-0.8,0.5-1.4,1.2-1.5c0.1,0,0.2,0,0.3,0c6.4,0,12.7,0,19.1,0c2.8,0,5.6,0,8.5,0c0.8-0.1,1.5,0.4,1.6,1.2c0,0.1,0,0.3,0,0.4
			c0,4.5,0,9,0,13.5c0.1,0.8-0.4,1.5-1.2,1.6c-0.1,0-0.3,0-0.4,0c-4.1,0-8.1,0-12.2,0L61.6,30.7L61.6,30.7z M49.1,27.9h9.3
			c5.1,0,10.2,0,15.3,0c0.4,0,0.5-0.1,0.5-0.5c0-3.4,0-6.9,0-10.3c0-0.3-0.1-0.4-0.4-0.4c-3.3,0-6.6,0-9.9,0c-4.7,0-9.4,0-14.2,0
			h-0.6L49.1,27.9z"/>
		<path id="Trazado_122974" class="st5" d="M68.5,37.7c0-0.5,0-1,0.1-1.5c0.2-1.6,1.5-2.7,3.1-2.8c0.8-0.1,1.5-0.1,2.3,0
			c1.7,0.1,3,1.4,3.1,3c0.1,0.8,0.1,1.7,0,2.5c-0.1,1.6-1.4,2.9-3,3c-0.9,0.1-1.8,0.1-2.6,0c-1.6-0.2-2.9-1.6-2.9-3.2
			C68.5,38.4,68.5,38.1,68.5,37.7L68.5,37.7z M72.8,39.3L72.8,39.3c0.3,0,0.6,0,0.9,0c0.3,0,0.6-0.2,0.6-0.6c0,0,0-0.1,0-0.1
			c0-0.6,0-1.1,0-1.7c0-0.3-0.2-0.6-0.6-0.7c0,0-0.1,0-0.1,0c-0.6,0-1.1,0-1.7,0c-0.5,0-0.7,0.2-0.7,0.7c0,0.5,0,1.1,0,1.6
			c0,0.4,0.2,0.7,0.6,0.7c0,0,0.1,0,0.1,0C72.3,39.3,72.5,39.3,72.8,39.3L72.8,39.3z"/>
		<path id="Trazado_122975" class="st5" d="M46.1,37.7c0-0.6,0.1-1.1,0.1-1.7c0.3-1.4,1.5-2.5,3-2.6c0.8-0.1,1.6-0.1,2.4,0
			c1.8,0.1,3.1,1.6,3.1,3.3c0,0.6,0,1.2,0,1.7c0.1,1.7-1.2,3.2-2.9,3.4c-1.1,0.1-2.2,0.1-3.2-0.1c-1.4-0.3-2.4-1.6-2.4-3
			C46.1,38.5,46.1,38.1,46.1,37.7L46.1,37.7z M50.5,36.2L50.5,36.2c-0.3,0-0.6,0-1,0c-0.3,0-0.6,0.2-0.6,0.5c0,0,0,0.1,0,0.1
			c0,0.6,0,1.2,0,1.8c0,0.3,0.2,0.6,0.5,0.6c0,0,0,0,0.1,0c0.6,0,1.3,0,1.9,0c0.3,0,0.5-0.2,0.5-0.5c0,0,0,0,0,0c0-0.6,0-1.3,0-1.9
			c0-0.3-0.2-0.5-0.5-0.5c0,0,0,0-0.1,0C51.1,36.2,50.8,36.2,50.5,36.2L50.5,36.2z"/>
		<path id="Trazado_122976" class="st5" d="M65.9,37.7c0,0.5,0,0.9,0,1.4c-0.2,1.6-1.5,2.8-3,2.9c-0.9,0.1-1.8,0.1-2.7,0
			c-1.6-0.2-2.8-1.5-2.8-3.1c0-0.8,0-1.6,0-2.4c0.1-1.7,1.5-3,3.2-3c0.8-0.1,1.6,0,2.4,0c1.6,0.2,2.9,1.5,2.9,3.2
			C65.9,37,65.9,37.4,65.9,37.7L65.9,37.7z M61.6,36.2L61.6,36.2l-0.8,0c0,0-0.1,0-0.1,0c-0.5,0-0.7,0.2-0.7,0.6c0,0.6,0,1.2,0,1.7
			c0,0.3,0.2,0.6,0.5,0.6c0,0,0.1,0,0.1,0c0.6,0,1.2,0,1.9,0c0.3,0,0.5-0.2,0.6-0.5c0,0,0,0,0,0c0-0.6,0-1.3,0-1.9
			c0-0.3-0.2-0.5-0.5-0.6c0,0-0.1,0-0.1,0C62.3,36.2,61.9,36.2,61.6,36.2L61.6,36.2z"/>
		<path id="Trazado_122977" class="st5" d="M72.8,64.3c-0.6,0-1.3-0.1-1.9-0.2c-1.3-0.3-2.2-1.4-2.3-2.7c-0.1-1-0.1-1.9,0-2.9
			c0.2-1.5,1.4-2.7,2.9-2.8c0.9-0.1,1.8-0.1,2.7,0c1.6,0.2,2.8,1.4,2.9,3.1c0.1,0.9,0.1,1.7,0,2.6c-0.2,1.6-1.6,2.9-3.3,2.9
			C73.5,64.3,73.1,64.3,72.8,64.3L72.8,64.3z M72.8,61.5c0.3,0,0.6,0,0.9,0c0.3,0,0.6-0.2,0.6-0.6c0,0,0,0,0-0.1c0-0.6,0-1.2,0-1.7
			c0-0.3-0.2-0.6-0.6-0.6c0,0-0.1,0-0.1,0c-0.6,0-1.2,0-1.8,0c-0.3,0-0.6,0.2-0.6,0.5c0,0,0,0,0,0.1c0,0.6,0,1.2,0,1.8
			c0,0.3,0.2,0.6,0.5,0.6c0,0,0.1,0,0.1,0C72.2,61.5,72.5,61.5,72.8,61.5L72.8,61.5z"/>
		<path id="Trazado_122978" class="st5" d="M50.4,53.2c-0.6,0-1.2-0.1-1.8-0.2c-1.4-0.3-2.5-1.6-2.5-3.1c0-0.7,0-1.4,0-2
			c0-1.8,1.5-3.3,3.3-3.3c0,0,0,0,0,0c0.8,0,1.7,0,2.5,0.1c1.5,0.2,2.6,1.4,2.7,2.9c0.1,0.9,0.1,1.7,0,2.6c-0.2,1.6-1.5,2.8-3.1,2.9
			C51.2,53.1,50.8,53.1,50.4,53.2L50.4,53.2z M50.4,50.4L50.4,50.4h0.4c0.2,0,0.3,0,0.4,0c0.4,0,0.6-0.2,0.6-0.7c0-0.6,0-1.1,0-1.7
			c0-0.5-0.2-0.7-0.7-0.7c-0.6,0-1.1,0-1.7,0c-0.3,0-0.6,0.2-0.6,0.5c0,0,0,0.1,0,0.1c0,0.6,0,1.2,0,1.8c0,0.3,0.2,0.6,0.5,0.6
			c0,0,0.1,0,0.1,0C49.8,50.4,50.1,50.4,50.4,50.4z"/>
		<path id="Trazado_122979" class="st5" d="M61.5,64.3c-0.9,0.1-1.8-0.1-2.5-0.5c-0.9-0.6-1.5-1.6-1.6-2.6c0-0.7,0-1.4,0-2.2
			c0-1.6,1.2-3,2.9-3.2c1-0.1,1.9-0.1,2.9,0c1.6,0.2,2.7,1.5,2.8,3.1c0,0.7,0,1.5,0,2.2c-0.1,1.7-1.5,3.1-3.2,3.1
			C62.4,64.3,62,64.3,61.5,64.3z M63.2,60c0-0.3,0-0.6,0-0.9c0-0.3-0.2-0.6-0.5-0.6c0,0-0.1,0-0.1,0c-0.6,0-1.2,0-1.8,0
			c-0.3,0-0.6,0.2-0.6,0.5c0,0,0,0.1,0,0.1c0,0.6,0,1.2,0,1.8c0,0.3,0.2,0.6,0.5,0.6c0,0,0.1,0,0.1,0c0.6,0,1.2,0,1.9,0
			c0.3,0,0.6-0.2,0.6-0.5c0,0,0-0.1,0-0.1C63.2,60.6,63.2,60.3,63.2,60z"/>
		<path id="Trazado_122980" class="st5" d="M72.8,53.1c-0.8,0.1-1.7,0-2.4-0.3c-1-0.5-1.7-1.4-1.8-2.5c-0.1-1-0.1-1.9,0-2.9
			c0.2-1.6,1.6-2.7,3.2-2.8c0.6,0,1.2,0,1.9,0c1.8-0.1,3.3,1.3,3.4,3.1c0.1,0.9,0.1,1.7,0,2.6c-0.2,1.6-1.5,2.8-3.1,2.8
			C73.6,53.1,73.2,53.1,72.8,53.1z M72.8,50.4L72.8,50.4c0.3,0,0.6,0,0.9,0c0.4,0,0.7-0.2,0.7-0.6c0-0.6,0-1.2,0-1.7
			c0-0.3-0.2-0.6-0.6-0.6c0,0-0.1,0-0.1,0c-0.6,0-1.2,0-1.8,0c-0.3,0-0.6,0.2-0.6,0.6c0,0,0,0.1,0,0.1c0,0.6,0,1.2,0,1.7
			c0,0.3,0.2,0.6,0.5,0.6c0,0,0.1,0,0.1,0C72.2,50.4,72.5,50.4,72.8,50.4L72.8,50.4z"/>
		<path id="Trazado_122981" class="st5" d="M50.4,64.4c-0.8-0.1-1.5-0.2-2.2-0.4c-1.2-0.4-2-1.6-2-2.9c-0.1-0.9,0-1.8,0.1-2.7
			c0.2-1.4,1.4-2.5,2.8-2.6c1-0.1,1.9-0.1,2.9,0c1.6,0.2,2.8,1.6,2.8,3.2c0,0.7,0,1.4,0,2.1c0,1.8-1.5,3.3-3.3,3.2h-1L50.4,64.4z
			 M51.9,60L51.9,60c0-0.3,0-0.6,0-0.9c0-0.3-0.2-0.6-0.5-0.6c0,0,0,0-0.1,0c-0.6,0-1.2,0-1.9,0c-0.3,0-0.6,0.2-0.6,0.5
			c0,0,0,0,0,0.1c0,0.6,0,1.2,0,1.8c0,0.3,0.2,0.6,0.5,0.6c0,0,0.1,0,0.1,0c0.6,0,1.2,0,1.9,0c0.3,0,0.6-0.2,0.6-0.5
			c0,0,0-0.1,0-0.1C51.9,60.6,51.9,60.3,51.9,60L51.9,60z"/>
		<path id="Trazado_122982" class="st5" d="M61.6,53.1c-0.9,0.1-1.7,0-2.5-0.4c-1-0.5-1.7-1.6-1.7-2.8c0-0.7,0-1.4,0-2.1
			c0-1.8,1.5-3.2,3.3-3.2c0.8,0,1.7,0,2.5,0.1c1.6,0.2,2.8,1.6,2.8,3.2c0,0.7,0,1.4,0,2c0,1.8-1.4,3.2-3.2,3.3
			C62.3,53.1,62,53.1,61.6,53.1z M63.2,48.9c0-0.3,0-0.6,0-0.9c0-0.3-0.2-0.6-0.5-0.7c0,0-0.1,0-0.1,0c-0.6,0-1.1,0-1.7,0
			c-0.3,0-0.6,0.2-0.7,0.5c0,0.1,0,0.1,0,0.2c0,0.5,0,1,0,1.5c-0.1,0.6,0.3,0.9,0.9,0.9c0.5,0,1.1,0,1.6,0c0.3,0,0.6-0.2,0.6-0.5
			c0,0,0-0.1,0-0.1C63.2,49.4,63.2,49.2,63.2,48.9z"/>
	</g>
	<g id="lWWqn9.tif" transform="translate(-500.587 374.652)">
		<g id="Grupo_56632">
			<path id="Trazado_122983" class="st5" d="M32.7,75.2c-1.1-0.3-2.1-0.7-3.1-1.2c-2.6-1.4-4.1-4.2-3.8-7.2c0.1-3.1,2-5.8,4.9-6.8
				c2.8-1.2,6.1-0.7,8.3,1.4c0.2,0.2,0.4,0.4,0.6,0.6l12.3-7.1c-0.5-1.5-0.5-3-0.2-4.5c0-0.2-0.1-0.4-0.2-0.5
				c-1.2-0.7-2.3-1.3-3.5-2c-5.8,7.9-17,9.6-24.9,3.8c-1.5-1.1-2.8-2.4-3.9-3.9c-1.2,0.7-2.3,1.3-3.5,2c-0.1,0.2-0.2,0.4-0.2,0.6
				c0.3,1.3,0.3,2.6-0.1,3.9c-0.1,0.5,0.1,0.7,0.4,0.9c2.6,1.5,5.2,3,7.8,4.5c0.3,0.2,0.5,0.3,0.9,0.5L23,63l-9.3-5.4
				c-1.1,1.2-2.5,2-4.1,2.4c-4.1,0.9-8.2-1.6-9.4-5.6c-1.1-4.1,1.2-8.3,5.2-9.6c0.7-0.2,0.8-0.5,0.8-1.2c0-4,0-8,0-12
				c0.1-0.4-0.2-0.8-0.6-0.9c0,0,0,0,0,0c-3.4-1-5.7-4.2-5.6-7.8c0.1-3.6,2.7-6.7,6.3-7.5c2.3-0.5,4.8,0,6.6,1.6
				c0.2,0.2,0.4,0.3,0.6,0.5l5.8-3.3c2.1-1.2,4.2-2.4,6.3-3.6c0.4-0.1,0.5-0.5,0.4-0.9c0,0,0,0,0,0c-1-4.2,1.6-8.5,5.8-9.5
				c0.1,0,0.3-0.1,0.4-0.1c4.3-0.8,8.4,2,9.2,6.2c0,0.2,0.1,0.5,0.1,0.7c0.1,0.9,0,1.8-0.2,2.7c-0.1,0.4,0,0.7,0.4,0.9
				c3.9,2.2,7.8,4.5,11.7,6.8c0.3,0.2,0.6,0.2,0.8-0.1c2.3-2.1,5.7-2.6,8.5-1.2c2.9,1.2,4.8,4.2,4.6,7.3c0,3.1-1.9,5.9-4.8,7
				c-2.8,1.3-6.1,0.8-8.3-1.3c-0.2-0.2-0.5-0.4-0.7-0.7l-3.6,2.1c1,2.3,1.5,4.8,1.4,7.3c0,2.5-0.6,5-1.7,7.2l3.8,2.1
				c1.1-1.3,2.7-2.2,4.3-2.6v-11H61v4.3c0,2,0,4,0,6c-0.1,0.4,0.2,0.7,0.6,0.8c0,0,0,0,0,0c3.6,1,6,4.5,5.7,8.2
				c-0.3,3.6-3,6.6-6.6,7.1c-2.3,0.4-4.7-0.3-6.4-1.8c-0.2-0.2-0.4-0.4-0.7-0.6c-2.6,1.5-5.2,3-7.8,4.5c-1.3,0.8-2.7,1.6-4,2.3
				c-0.3,0.1-0.5,0.5-0.4,0.9c0,0,0,0,0,0c1.1,4.2-1.5,8.5-5.7,9.5C35.4,75,35.2,75,35,75.1c-0.1,0-0.2,0.1-0.3,0.1L32.7,75.2z
				 M18.8,28c3.6-5.1,8.4-8,14.6-8s11.1,2.7,14.8,7.6c1.1-0.6,2.2-1.2,3.2-1.8c0.2-0.2,0.3-0.4,0.2-0.7c-0.3-1.4-0.3-2.8,0.1-4.2
				c0.1-0.3,0-0.6-0.2-0.8c0,0,0,0-0.1,0c-1.2-0.7-2.5-1.4-3.7-2.1c-2.7-1.6-5.5-3.2-8.2-4.8c-3.1,3.3-8.2,3.5-11.5,0.4
				c-0.1-0.1-0.3-0.3-0.4-0.4c-4,2.3-8,4.6-12,7c-0.2,0.1-0.2,0.4-0.2,0.6c0.5,1.6,0.5,3.4,0,5c0,0.2,0,0.4,0.2,0.5
				C16.7,26.9,17.7,27.4,18.8,28L18.8,28z M17.3,31c-1.2-0.7-2.4-1.3-3.6-1.9c-0.1-0.1-0.4,0.1-0.6,0.1c-1,0.5-2.1,1.1-3.1,1.7
				c-0.2,0.1-0.5,0.4-0.5,0.6c0,4.2,0,8.5,0,12.7c0,0.2,0.2,0.4,0.4,0.6c1.4,0.4,2.6,1.1,3.6,2.1c0.1,0.1,0.3,0.2,0.5,0.1
				c1.2-0.6,2.4-1.3,3.5-2C15.6,39.8,15.5,36.1,17.3,31L17.3,31z M38.3,37.7c-0.1-1.3-0.1-2.7-0.3-4c0-0.2-0.3-0.5-0.5-0.5
				c-2.6,0-5.2,0-7.8,0c-0.2,0.1-0.4,0.3-0.5,0.5c0,2.6,0,5.1,0,7.7c0,0.4,0.2,0.6,0.6,0.6c2.5,0,5.1,0,7.6,0c0.4,0,0.6-0.1,0.6-0.6
				C38.1,40.2,38.2,39,38.3,37.7L38.3,37.7z M3.3,23.2c0,2.5,2.1,4.6,4.6,4.6c2.5,0,4.6-2.1,4.6-4.6c0-2.5-2.1-4.6-4.6-4.6
				C5.4,18.6,3.3,20.7,3.3,23.2L3.3,23.2z M64,23.2c0-2.5-2-4.6-4.6-4.6c0,0-0.1,0-0.1,0c-2.5,0-4.6,2.1-4.5,4.7c0,0,0,0,0,0
				c0,2.5,2.1,4.6,4.7,4.5c0,0,0,0,0,0C62,27.8,64,25.7,64,23.2L64,23.2z M64,52.3c0-2.5-2-4.6-4.6-4.6c0,0,0,0,0,0
				c-2.5,0-4.6,2-4.6,4.5c-0.1,2.5,2,4.7,4.5,4.7c0,0,0.1,0,0.1,0C61.9,57,64,54.9,64,52.3L64,52.3z M12.5,52.4
				c0.1-2.5-2-4.7-4.5-4.7c-2.5,0-4.6,1.9-4.7,4.4c-0.1,2.6,1.9,4.7,4.5,4.8c0,0,0,0,0,0C10.4,57,12.5,55,12.5,52.4L12.5,52.4z
				 M33.7,3.3c-2.5,0-4.6,2-4.6,4.5c0,0,0,0.1,0,0.1c0,2.5,2,4.6,4.5,4.6c0,0,0.1,0,0.1,0c2.5,0,4.6-2,4.6-4.6c0,0,0,0,0,0
				C38.3,5.4,36.3,3.3,33.7,3.3C33.7,3.3,33.7,3.3,33.7,3.3L33.7,3.3z M33.6,71.9c2.5,0,4.6-2,4.6-4.5c0,0,0,0,0,0
				c0-2.5-2-4.6-4.5-4.6c-2.5-0.1-4.6,1.9-4.7,4.5c0,0,0,0.1,0,0.1C29,69.8,31,71.9,33.6,71.9C33.6,71.9,33.6,71.9,33.6,71.9
				L33.6,71.9z M41.5,41.2c2-0.3,4-1.1,5.7-2.3c1.1-0.9,1.2-1.8,0-2.7c-1.1-0.7-2.2-1.3-3.3-1.8c-0.7-0.3-1.5-0.5-2.3-0.7L41.5,41.2
				z M37.4,29.7c-0.4-2-1.2-3.9-2.3-5.5c-1-1.2-2-1.3-2.8,0c-0.8,1.4-1.5,2.8-2,4.3c-0.1,0.4-0.3,0.8-0.3,1.2L37.4,29.7z M37.4,45.4
				h-7.5c0.4,2.1,1.2,4,2.5,5.7c0.9,1,1.7,1,2.6,0C36.2,49.4,37,47.5,37.4,45.4L37.4,45.4z M25.8,41.3v-7.5
				c-0.5,0.1-0.9,0.2-1.4,0.4c-1.6,0.4-3.1,1.1-4.4,2.2c-0.9,0.8-1,1.6,0,2.4C21.7,40.1,23.7,41,25.8,41.3L25.8,41.3z M39.2,24.4
				c0,0.1,0,0.2,0,0.3c0.5,1.8,1.1,3.5,1.6,5.2c0.1,0.2,0.3,0.4,0.6,0.4c1.7,0.5,3.3,1.1,5,1.6c0.1,0,0.2,0.1,0.5,0.1
				C45.4,28.6,42.7,25.9,39.2,24.4L39.2,24.4z M39.2,50.7c3-0.9,6.8-4.7,7.5-7.5c-1.4,0.5-2.8,0.9-4.3,1.3c-1,0.1-1.9,0.9-2,1.9
				C40.2,47.8,39.7,49.3,39.2,50.7L39.2,50.7z M20.5,32c1.9-0.5,3.7-1,5.5-1.6c0.2-0.1,0.4-0.3,0.4-0.5c0.4-1.3,0.8-2.7,1.2-4
				c0.1-0.5,0.4-0.9,0.6-1.5C24.7,25.8,22,28.5,20.5,32L20.5,32z M20.5,43.2c1.5,3.4,4.2,6.1,7.6,7.5c-0.5-1.9-1.1-3.8-1.6-5.6
				c-0.1-0.2-0.2-0.3-0.4-0.4C24.2,44.2,22.4,43.7,20.5,43.2L20.5,43.2z"/>
		</g>
	</g>
	<g id="jmGXMg.tif" transform="translate(-391.505 375.248)">
		<g id="Grupo_56633">
			<path id="Trazado_122984" class="st5" d="M49.3,49.8l3.9,3.6c5.3-2.7,10.1-1.9,13,2.3c2.6,3.8,2,9-1.4,12.1
				c-3.4,3.1-8.6,3.2-12.1,0.2c-3.9-3.3-4.4-9-1.3-13l-3.9-3.6c-6.6,4.5-13.2,4.5-19.8,0l-4.1,3.8c0.6,1.4,1.1,2.8,1.4,4.2
				c0.7,3.8-1.2,7.7-4.6,9.5c-3.4,1.8-7.5,1.4-10.4-1.1C7,65.5,5.9,61.2,7.5,57.4c1.6-3.7,5.3-6,9.3-5.6c1.6,0.1,3.1,0.7,4.4,1.6
				c0.2,0.1,0.6,0.2,0.8,0.1c1.3-1.2,2.6-2.4,3.9-3.6c-4-4.3-5.4-10.5-3.5-16.2c-1.7-0.5-3.3-1.1-5-1.6c-0.2,0-0.5,0.2-0.7,0.5
				c-1.8,2.4-4.6,3.9-7.6,3.8c-4.3-0.1-7.9-3-8.9-7.2c-0.9-4.1,1-8.3,4.7-10.2c3.2-1.8,7.2-1.5,10,0.9c2.9,2.2,4.2,5.9,3.3,9.4
				c0,0.1,0,0.2-0.1,0.3c0,0.1,0,0.1,0,0.2l5.2,1.7c2.6-4.9,7.5-8.1,13-8.6v-4.4c-5-0.7-8.5-5.3-7.9-10.4C29,3.3,33.1-0.2,37.9,0
				c4.6,0.1,8.4,3.6,8.9,8.2c0.5,5-3,9.5-7.9,10.2v4.4c2.7,0.3,5.3,1.2,7.6,2.7c2.3,1.5,4.1,3.6,5.4,6.1L57,30
				c-0.1-1-0.3-1.9-0.3-2.8c0-4.8,3.6-8.8,8.3-9.3c4.8-0.4,9.1,2.9,10,7.6c0.8,4.2-1.5,8.4-5.4,10.1c-3.9,1.7-8.4,0.5-11-2.9
				c-0.2-0.4-0.7-0.6-1.1-0.4c0,0,0,0,0,0c-1.5,0.5-3.1,1-4.6,1.5C54.7,39.5,53.3,45.5,49.3,49.8z M51.2,38.8
				c-0.1-7.5-6.2-13.6-13.7-13.5C30,25.4,24,31.5,24,39c0.1,7.5,6.3,13.5,13.7,13.4C45.2,52.3,51.2,46.2,51.2,38.8L51.2,38.8z
				 M37.6,2.5c-3.8,0-6.8,3-6.8,6.8c0,3.7,3,6.7,6.7,6.8c3.8,0,6.8-3,6.8-6.8C44.4,5.5,41.4,2.5,37.6,2.5L37.6,2.5z M59.2,27.1
				c0,3.7,3,6.8,6.7,6.8c3.7,0,6.8-3,6.8-6.7c0-3.7-3-6.8-6.7-6.8C62.3,20.3,59.2,23.3,59.2,27.1L59.2,27.1z M16,27.1
				c0-3.7-3-6.8-6.7-6.8c-3.7,0-6.8,3-6.8,6.7c0,3.7,3,6.8,6.7,6.8C12.9,33.9,16,30.9,16,27.1L16,27.1z M16,54.2
				c-3.7,0-6.7,3-6.8,6.7c0,3.8,3,6.8,6.7,6.9c3.7,0,6.8-3,6.8-6.7C22.8,57.3,19.8,54.3,16,54.2L16,54.2z M58.6,67.8
				c3.8,0,6.8-3.1,6.8-6.8c-0.1-3.7-3.1-6.7-6.8-6.7c-3.7,0-6.7,3.1-6.8,6.8C51.8,64.8,54.8,67.8,58.6,67.8L58.6,67.8z"/>
			<path id="Trazado_122985" class="st5" d="M44.7,33.1l1.7,1.7L36.1,45.2l-6-6l1.7-1.5l4.2,4.3L44.7,33.1z"/>
			<path id="Trazado_122986" class="st5" d="M41.9,9.3c0,2.4-1.9,4.3-4.3,4.3c0,0,0,0,0,0c-2.4,0-4.3-1.9-4.3-4.3c0,0,0,0,0,0
				c0-2.4,1.9-4.3,4.2-4.3c0,0,0.1,0,0.1,0C40,4.9,41.9,6.9,41.9,9.3C41.9,9.2,41.9,9.3,41.9,9.3z M37.6,11.1c1,0,1.8-0.8,1.9-1.8
				c0-1-0.8-1.8-1.9-1.9c-1,0-1.8,0.8-1.8,1.8C35.8,10.2,36.6,11,37.6,11.1L37.6,11.1z"/>
			<path id="Trazado_122987" class="st5" d="M66,22.8c2.4,0,4.3,1.9,4.3,4.3c0,0,0,0,0,0c0,2.4-1.9,4.3-4.3,4.3c0,0,0,0,0,0
				c-2.4,0-4.3-1.9-4.3-4.2c0,0,0,0,0,0C61.6,24.8,63.5,22.9,66,22.8C65.9,22.8,65.9,22.8,66,22.8z M67.8,27.1c0-1-0.9-1.8-1.9-1.8
				c-1,0-1.8,0.8-1.8,1.8c0,1,0.8,1.8,1.8,1.9C67,28.9,67.8,28.1,67.8,27.1L67.8,27.1z"/>
			<path id="Trazado_122988" class="st5" d="M9.3,22.8c2.4,0,4.3,2,4.2,4.3c0,0,0,0,0,0c0,2.4-1.9,4.3-4.3,4.3c0,0-0.1,0-0.1,0
				c-2.4-0.1-4.3-2-4.2-4.4C5,24.7,6.9,22.8,9.3,22.8C9.3,22.8,9.3,22.8,9.3,22.8z M9.3,25.3c-1,0-1.8,0.9-1.9,1.9
				c0,1,0.9,1.8,1.9,1.8c1,0,1.8-0.8,1.8-1.8C11.1,26.1,10.3,25.3,9.3,25.3L9.3,25.3z"/>
			<path id="Trazado_122989" class="st5" d="M20.3,61.1c0,2.4-1.9,4.3-4.3,4.3c0,0,0,0,0,0c-2.4,0-4.3-1.9-4.3-4.3c0,0,0-0.1,0-0.1
				c0-2.4,2-4.3,4.3-4.2c0,0,0,0,0,0C18.5,56.7,20.4,58.7,20.3,61.1C20.3,61.1,20.3,61.1,20.3,61.1z M17.9,61c0-1-0.9-1.8-1.9-1.8
				c-1,0-1.8,0.8-1.8,1.8c0,1,0.8,1.8,1.8,1.9C17,62.9,17.9,62,17.9,61z"/>
			<path id="Trazado_122990" class="st5" d="M58.5,65.3c-2.4,0-4.3-1.9-4.3-4.3c0,0,0,0,0,0c0-2.4,1.9-4.3,4.3-4.3c0,0,0,0,0,0
				c2.4,0,4.3,1.9,4.3,4.2c0,0,0,0,0,0C62.9,63.4,61,65.3,58.5,65.3C58.6,65.3,58.6,65.3,58.5,65.3z M60.4,61.1c0-1-0.8-1.9-1.8-1.9
				c-1,0-1.8,0.8-1.9,1.9c0,1,0.8,1.8,1.8,1.8C59.5,62.9,60.4,62.1,60.4,61.1L60.4,61.1z"/>
		</g>
	</g>
	<g id="fdJcr5.tif" transform="translate(-281.153 379.483)">
		<g id="Grupo_56634">
			<path id="Trazado_122991" class="st6" d="M79.4,45.5h-7.9c-0.3,1.2-0.6,2.4-0.9,3.5c-0.9,2.9-2.1,5.7-3.8,8.2
				c-0.4,0.4-0.4,0.9,0,1.3c0,0,0.1,0.1,0.2,0.1c1.7,1.6,3.3,3.3,4.9,4.8l-8.3,8.3l-5.3-5.5c-3.8,2.6-8.1,4.4-12.6,5.3v7.9H33.9
				v-7.9c-4.5-0.9-8.7-2.6-12.5-5.2l-5.5,5.6l-8.3-8.3l5.5-5.5c-2.6-3.8-4.4-8.1-5.2-12.5H0V33.9h7.8c0.5-1.8,1-3.6,1.7-5.4
				c0.9-2.2,2-4.2,3.2-6.3c0.3-0.6,0.4-0.9-0.1-1.4c-1.7-1.6-3.3-3.3-4.9-4.8l8.3-8.3l5.4,5.5c3.8-2.6,8.1-4.4,12.6-5.3V0h11.7v7.9
				c4.5,0.9,8.7,2.6,12.5,5.2l5.5-5.6l8.3,8.4c-1.5,1.5-3.1,3.1-4.7,4.7c-0.5,0.3-0.7,1-0.4,1.6c0,0.1,0.1,0.2,0.2,0.2
				c2.1,3.2,3.6,6.8,4.3,10.5c0.1,0.8,0.5,1,1.2,1c2.3-0.1,4.6,0,6.9,0L79.4,45.5z M64.5,58.2c3.1-4.2,5.1-9,5.9-14.1H78v-8.9h-7.7
				c-0.8-5.1-2.8-9.9-5.8-14.1l5.4-5.4l-6.3-6.2L58.2,15c-4.2-3.1-9-5.1-14.1-5.9V1.4h-8.9v7.7c-5.1,0.8-10,2.8-14.2,6l-5.2-5.4
				L9.5,16l5.2,5.1c-1.2,2.3-2.6,4.5-3.5,6.8s-1.5,4.8-2.3,7.4H1.4v8.9h7.7c0.8,5.1,2.8,10,5.9,14.1l-5.4,5.4l6.3,6.2l5.4-5.4
				c4.2,3.1,9,5.1,14.1,5.8V78h8.9v-7.7c5.1-0.8,10-2.8,14.2-5.9l5.2,5.4l6.3-6.3L64.5,58.2z"/>
			<path id="Trazado_122992" class="st5" d="M61.2,39.8c0,3,0,6,0,9c0,1.9-0.6,2.5-2.5,2.6c-1.4,0-2.9-0.3-4.1,0.1
				c-1.2,0.4-2,1.7-3.1,2.6c-7.6,6.4-18.9,5.6-25.6-1.6c-0.6-0.7-1.5-1.1-2.4-1c-1.1,0.1-2.3,0.1-3.4,0c-1.1,0.1-2-0.7-2.1-1.8
				c0-0.1,0-0.2,0-0.4c0-6.3,0-12.6,0-19c-0.1-1.1,0.7-2,1.7-2.2c0.1,0,0.3,0,0.4,0c1.3,0,2.6,0.1,3.9,0c0.5,0,1-0.3,1.4-0.6
				c6.8-7.7,18.6-8.5,26.3-1.7c0.6,0.6,1.2,1.2,1.8,1.8c0.3,0.3,0.8,0.5,1.3,0.6c1.3,0.1,2.7,0,4,0c1.1-0.1,2.1,0.6,2.2,1.7
				c0,0.2,0,0.3,0,0.5C61.3,33.5,61.2,36.6,61.2,39.8z M39.7,49.9c6.3,0,12.5,0,18.8,0c1.4,0,1.4,0,1.4-1.5c0-5.9,0-11.8,0-17.7
				c0-1.3,0-1.3-1.4-1.3c-12.5,0-25.1,0-37.6,0c-0.9,0-1.3,0.3-1.3,1.2c0,6,0,12,0,18c0,1,0.3,1.3,1.3,1.3
				C27.1,49.9,33.4,49.9,39.7,49.9L39.7,49.9z M52.3,28c-7.3-8.2-20-6.5-24.9,0H52.3z M27.2,51.4c6.2,7.4,18.9,7.3,24.9,0H27.2z"/>
			<path id="Trazado_122993" class="st5" d="M26.9,41.6l-1.5,2.1l-1.2-1.4l2-1.5l-0.2-0.3h-2.5V39h2.5l0.2-0.3l-2-1.4l0.2-0.4
				l1.3-0.8l1.3,1.7l0.3-0.2v-2.5h1.4v2.5l0.3,0.1l1.6-2.1l0.9,1.4l0.3,0.1l-2,1.5L30,39h2.5v1.4h-2.8l2,2.1l-1.2,0.7l-1.8-1.7v2.7
				h-1.4v-2.4L26.9,41.6z"/>
			<path id="Trazado_122994" class="st5" d="M47.5,37.2l1.3-1.3l1.7,2l0.3-0.2v-2.5h1.4V38l2.2-2l0.9,1l-1.9,2c0.9,0,1.5,0,2.1,0
				c0.5,0,0.7,0.1,0.7,0.7s-0.2,0.8-0.7,0.8c-0.7,0-1.3,0-1.9,0.2l2,1.7l-1.2,1L54,43.5l-1.5-2.1l-0.3,0.2v2.6h-1.4v-2.8l-1.9,2.2
				l-1-1.4l1.8-1.5l-0.2-0.3H47V39h2.4l0.1-0.2L47.5,37.2z"/>
			<path id="Trazado_122995" class="st5" d="M41.8,39h2.5v1.4h-2.5l-0.2,0.3l2.3,1.5l-1.4,1.2l-1.5-2l-0.4,0.2l-0.1,2.5h-1.3
				l-0.1-2.7l-2,1.9l-1-1.3l1.8-1.5l-0.1-0.2h-2.5V39h2.7l-2-2.1l1.1-1.1l1.6,2l0.2-0.1v-2.5h1.4v2.5l0.2,0.1l1.4-2l0.4,0.1l0.7,1
				l0.3,0.2l-2,1.5L41.8,39z"/>
		</g>
	</g>
	<g id="Group_54360" transform="translate(-167.53 376.258)">
		<path id="Path_116867" class="st5" d="M63.4,37.6h2.8c0.7,0,1.3,0.5,1.4,1.3c0,0,0,0,0,0c0,0,0,0.1,0,0.1c0,0.9,0,1.7,0,2.6v0.3
			h4.9c1.5-0.1,2.7,1.1,2.8,2.5c0,0,0,0,0,0c0,0.1,0,0.2,0,0.3v16.9c0,1.5-1.1,2.7-2.6,2.7c0,0,0,0,0,0c0,0-0.1,0-0.1,0h-1.2v3.4
			c0,1.5,0,3,0,4.5c0,0.7-0.6,1.3-1.3,1.3c0,0,0,0,0,0h-6.4c-0.7,0-1.3-0.5-1.4-1.2c0,0,0,0,0,0c0,0,0-0.1,0-0.1v-2.9H13.8
			c0,0.1,0,0.2,0,0.3V72c0.1,0.7-0.5,1.4-1.2,1.4c0,0,0,0,0,0c-0.1,0-0.1,0-0.2,0H6.1c-0.7,0.1-1.4-0.5-1.4-1.2c0-0.1,0-0.1,0-0.2
			v-7.8H4c-0.7,0-1.3,0-2-0.1c-1.2-0.3-2-1.3-2-2.5V44.7c-0.1-1.5,1-2.7,2.5-2.8c0,0,0,0,0,0c0.1,0,0.2,0,0.3,0h5.2V39
			c0-0.7,0.5-1.3,1.2-1.4c0,0,0,0,0,0h3.4V1.4c-0.1-0.7,0.5-1.3,1.2-1.4c0,0,0,0,0,0c0.7-0.1,1.4,0.5,1.4,1.2c0,0,0,0,0,0v0.1
			c0,0.3,0,0.7,0,1v35.3h3.1c0.7,0,1.3,0.5,1.4,1.3c0,0,0,0,0,0v3h36.8c0-0.1,0-0.2,0-0.3c0-0.8,0-1.6,0-2.4
			c-0.1-0.8,0.5-1.5,1.3-1.5c0.1,0,0.2,0,0.2,0c0.9,0,1.7,0,2.6,0l0.1,0V1.4C60.7,0.7,61.2,0,62,0c0.2,0,0.4,0,0.5,0.1
			c0.6,0.2,0.9,0.8,0.9,1.4v10.7c0,0.8,0,1.5,0,2.3c0,0.2,0,0.5,0,0.7v22L63.4,37.6z M2.7,61.6h69.9v-17H2.7V61.6z M68.6,64.2H7.4
			v2.3h61.3L68.6,64.2z M10.7,40.2v1.6h6.4v-1.6H10.7z M64.9,40.2h-5.6v1.6h5.6V40.2z M7.4,70.8h3.7v-1.6H7.4V70.8z M68.6,69.2h-3.7
			v1.6h3.7V69.2z"/>
		<path id="Path_116868" class="st5" d="M37.9,1.6c4,0,7.9,1,11.4,2.9c2,1.1,3.8,2.4,5.4,4c0.6,0.5,0.7,1.3,0.2,1.9c0,0,0,0,0,0
			c-0.2,0.2-0.4,0.4-0.7,0.4c-0.5,0.2-1,0-1.4-0.4c-1.3-1.3-2.7-2.4-4.3-3.3c-2.4-1.4-5-2.3-7.7-2.7C34.3,3.5,27.7,5.7,23,10.3
			c-0.4,0.5-1.1,0.6-1.6,0.4c-0.7-0.3-0.9-1.1-0.6-1.8c0.1-0.1,0.2-0.3,0.3-0.4c1-1,2-1.8,3.1-2.6c2.4-1.7,5-2.9,7.8-3.6
			C33.9,1.8,35.9,1.6,37.9,1.6z"/>
		<path id="Path_116869" class="st5" d="M37.6,9c2.9,0,5.8,0.6,8.5,1.9c1.8,0.9,3.5,2.1,4.9,3.5c0.5,0.5,0.6,1.3,0.1,1.9
			c0,0,0,0,0,0l-0.1,0.1c-0.5,0.5-1.4,0.5-1.9-0.1c0,0,0,0,0,0l0,0c-6.3-6.2-16.3-6.2-22.6,0c-0.5,0.5-1.3,0.6-1.9,0.1
			c-0.5-0.5-0.6-1.3-0.1-1.9c0,0,0.1-0.1,0.1-0.1c1.2-1.2,2.6-2.2,4.1-3.1c2.4-1.3,5-2.1,7.7-2.3C37,9.1,37.4,9,37.6,9z"/>
		<path id="Path_116870" class="st5" d="M47.3,22.7c-0.4,0-0.7-0.1-0.9-0.4c-4.6-4.6-12.1-4.6-16.8-0.1c-0.4,0.4-1,0.6-1.6,0.4
			c-0.7-0.3-1-1-0.8-1.7c0,0,0,0,0,0c0.1-0.2,0.2-0.4,0.3-0.5c0.7-0.7,1.5-1.3,2.3-1.8c2.1-1.4,4.6-2.3,7.1-2.4
			c3.8-0.3,7.6,1,10.4,3.5c0.3,0.2,0.5,0.5,0.8,0.7c0.4,0.4,0.5,1,0.3,1.5C48.3,22.4,47.8,22.7,47.3,22.7z"/>
		<path id="Path_116876" class="st5" d="M46.2,58.3H24.3c-0.7,0.1-1.3-0.4-1.4-1c0-0.1,0-0.3,0-0.4v-7.3c0-0.5,0-1,0-1.6
			c0.1-0.6,0.6-1.1,1.2-1.1l41.4,0H68c0.8-0.1,1.4,0.4,1.5,1.2c0,0,0,0,0,0c0,0.1,0,0.2,0,0.3v8.3c0.1,0.7-0.4,1.4-1.2,1.5
			c0,0,0,0,0,0c-0.1,0-0.2,0-0.3,0L46.2,58.3L46.2,58.3z M66.9,49.7H25.4v6h41.5V49.7z"/>
		<path id="Path_116877" class="st5" d="M19.8,52.7v4.3c0,0.7-0.5,1.4-1.3,1.4h0c-0.7,0-1.3-0.6-1.3-1.3v0c0-1.2,0-2.5,0-3.7
			c0-1.6,0-3.2,0-4.9c0-0.7,0.5-1.4,1.2-1.4c0,0,0,0,0,0c0.7,0,1.4,0.5,1.4,1.2c0,0,0,0,0,0c0,0.1,0,0.1,0,0.2c0,1.1,0,2.1,0,3.2
			L19.8,52.7L19.8,52.7z"/>
		<path id="Path_116878" class="st5" d="M15.4,52.7V57c0,0.7-0.6,1.3-1.3,1.4c-0.7,0-1.3-0.6-1.4-1.3l0,0v-8.7
			c0-0.7,0.5-1.3,1.3-1.4c0.7,0,1.3,0.5,1.4,1.3c0,0,0,0,0,0v0.1C15.4,49.8,15.4,51.2,15.4,52.7z"/>
		<path id="Path_116880" class="st5" d="M38.2,51.3c0.3,0,0.7,0,1,0.1c0.6,0.2,1,0.8,0.9,1.4c-0.1,0.6-0.6,1.1-1.2,1.2
			c-0.5,0-1,0-1.5,0c-0.7,0-1.2-0.7-1.2-1.4l0,0c0-0.7,0.6-1.2,1.3-1.3L38.2,51.3L38.2,51.3z"/>
		<path id="Path_116881" class="st5" d="M51.4,51.3c0.3,0,0.7,0,1,0.1c0.6,0.2,1,0.8,1,1.4c-0.1,0.6-0.6,1.1-1.3,1.2
			c-0.6,0-1.2,0-1.7-0.1c-0.7-0.1-1.1-0.8-1-1.4c0.1-0.6,0.6-1.1,1.3-1.1L51.4,51.3L51.4,51.3z"/>
		<path id="Path_116882" class="st5" d="M31.6,54c-0.2,0-0.5,0-0.7,0c-0.7,0-1.3-0.7-1.3-1.4c0,0,0,0,0,0c0-0.7,0.6-1.3,1.3-1.3h1.3
			c0.7,0,1.3,0.6,1.3,1.3c0,0,0,0,0,0c0,0.7-0.6,1.3-1.3,1.3C32,54,31.8,54,31.6,54L31.6,54z"/>
		<path id="Path_116883" class="st5" d="M44.8,51.4h0.7c0.7,0,1.3,0.6,1.3,1.3c0,0.7-0.5,1.3-1.2,1.4c-0.6,0-1.1,0-1.7,0
			c-0.7-0.1-1.2-0.7-1.1-1.4c0-0.7,0.6-1.2,1.3-1.3L44.8,51.4L44.8,51.4z"/>
		<path id="Path_116884" class="st5" d="M57.9,51.3c0.3,0,0.7,0,1,0.1c0.6,0.2,1,0.7,1,1.3c0,0.7-0.6,1.3-1.2,1.3
			c-0.5,0-0.9,0-1.4,0c-0.7,0-1.3-0.6-1.3-1.3c0,0,0,0,0,0c0-0.7,0.6-1.3,1.3-1.3L57.9,51.3L57.9,51.3z"/>
	</g>
	<g id="sG6ua8.tif" transform="translate(-57.395 386.321)">
		<g id="Grupo_56635">
			<path id="Trazado_122996" class="st5" d="M64.8,32.2v-30c0-1.8,0.5-2.2,2.3-2.2c5.4,0,10.9,0,16.3,0c1.6,0,2.2,0.5,2.2,2.2
				c0,20,0,40,0,60c0,1.7-0.5,2.2-2.2,2.2H66.9c-1.6,0-2.1-0.5-2.1-2.1L64.8,32.2z M68.3,24.2c-0.3,0-0.6,0-0.9,0.1
				c-0.3,0.2-0.5,0.5-0.6,0.8c0,0.3,0.3,0.6,0.6,0.8c0.3,0.1,0.5,0.1,0.8,0.1c2.3,0,4.6,0,6.9,0h2.6c1.5,0,3.1,0,4.6,0
				c0.6,0,1.2-0.1,1.2-0.8c0-0.8-0.6-0.9-1.2-0.9h-0.3 M68,21.2c-0.6,0-1.2,0.1-1.2,0.9c0,0.8,0.6,0.9,1.2,0.9c2.4,0,4.7,0,7.1,0
				c2.4,0,4.8,0,7.2,0c0.6,0,1.2-0.1,1.3-0.8c0-0.8-0.6-0.9-1.2-0.9 M75.1,29c1.6,0,3.2,0,4.7,0c0.9,0,1.9,0,2.8,0
				c0.3,0,0.6-0.5,0.9-0.8c-0.3-0.3-0.6-0.6-1-0.9c-0.2-0.1-0.5,0-0.7,0h-13c-0.5-0.1-0.9,0-1.4,0c-0.3,0.1-0.7,0.5-0.7,0.8
				s0.4,0.6,0.7,0.8c0.2,0.1,0.5,0,0.7,0 M75.1,19.9c2.4,0,4.8,0,7.2,0c0.6,0,1.2-0.1,1.3-0.8s-0.6-0.9-1.2-0.9c-4.8,0-9.6,0-14.4,0
				c-0.6,0-1.2,0.1-1.2,0.9s0.6,0.8,1.2,0.8 M67.7,6.7c-0.3,0-0.6,0.3-0.9,0.4c0.3,0.1,0.6,0.4,0.9,0.4c2.5,0,5,0,7.5,0
				c2.5,0,5,0,7.6,0c0.3,0,0.6-0.2,0.9-0.4C83.3,7,83,6.7,82.7,6.7 M67.6,4.1c-0.3,0-0.6,0.3-0.9,0.4c0.3,0.1,0.6,0.4,0.9,0.4
				c5,0,10,0,15,0c0.3,0,0.6-0.3,0.9-0.4c-0.3-0.1-0.6-0.4-0.9-0.4c-2.5,0-5,0-7.5,0 M75.2,52.8c1,0,1.8-0.9,1.9-1.9
				c0-1-0.8-1.9-1.9-1.9c0,0,0,0,0,0c-1,0-1.8,0.8-1.9,1.9C73.3,52,74.1,52.8,75.2,52.8C75.2,52.8,75.2,52.8,75.2,52.8L75.2,52.8z
				 M75.3,55.9l-0.4,0c-0.3,0.3-0.5,0.7-0.6,1.1c-0.1,0.4,0.2,0.8,0.6,0.8c0.1,0,0.2,0,0.3,0c0.4-0.2,0.7-0.5,0.8-0.9
				C76.1,56.6,75.6,56.3,75.3,55.9L75.3,55.9z"/>
			<path id="Trazado_122997" class="st5" d="M27.2,45.7v-4.5h-1.1c-7.1,0-14.2,0-21.2,0c-2,0-2.6-0.6-2.6-2.6v-36
				c0-2,0.6-2.6,2.6-2.6h53.7c2,0,2.6,0.6,2.6,2.6v36c0,2-0.6,2.6-2.6,2.6c-7.1,0-14.1,0-21.1,0h-1.2v4.5c1.1,0,2.2,0,3.3,0
				c1.4,0,2.6,1.2,2.6,2.6c0,0.1,0,0.1,0,0.2H21.3c-0.1-1.4,1.1-2.7,2.5-2.7c0,0,0.1,0,0.1,0C25,45.6,26.1,45.7,27.2,45.7z
				 M31.8,1.7H5.5C4.2,1.7,4,1.8,4,3.2v31.3c0,1.4,0.1,1.5,1.5,1.5H58c1.4,0,1.6-0.1,1.6-1.6V3.3c0-1.4-0.1-1.6-1.6-1.6H31.8z
				 M57.4,38.4c-0.5-0.3-0.8-0.6-1-0.6c-0.3,0.1-0.5,0.4-0.7,0.6c0.2,0.2,0.4,0.6,0.7,0.6C56.6,39.1,56.9,38.8,57.4,38.4L57.4,38.4z
				"/>
			<path id="Trazado_122998" class="st5" d="M0.1,63.3c0.1-0.3,0.2-0.5,0.3-0.8C2.2,58.8,4,55,5.8,51.3c0.2-0.5,0.6-0.8,1.1-0.7
				c16.6,0,33.2,0,49.8,0c0.4,0,0.7,0.2,0.9,0.5c2,4,4,8.1,6,12.2L0.1,63.3z M2.4,62.1H61c0-0.1,0-0.2,0-0.2
				c-1.6-3.2-3.1-6.4-4.7-9.7c-0.2-0.3-0.5-0.4-0.9-0.4c-15.8,0-31.6,0-47.4,0c-0.5,0-0.9,0.2-1,0.7c-0.6,1.3-1.3,2.6-1.9,3.9
				C4.2,58.2,3.3,60.1,2.4,62.1L2.4,62.1z"/>
			<path id="Trazado_122999" class="st5" d="M0,64.7v-0.9h63.5l0.1,0.9H0z"/>
			<path id="Trazado_123000" class="st5" d="M14.8,61.6c0-0.9,0.5-1.1,1.3-1.1c10.5,0,21,0,31.5,0c0.8,0,1.3,0.2,1.2,1.1L14.8,61.6z
				"/>
			<path id="Trazado_123001" class="st5" d="M35.2,56.4c0.7-0.1,1.4,0,2,0c0.3,0.1,0.5,0.6,0.7,0.9l-0.2,0.2h-1.6
				C35.1,57.6,35.1,57.6,35.2,56.4z"/>
			<path id="Trazado_123002" class="st5" d="M35,55.5l-0.1-1.1h2.6l0.2,1.1H35z"/>
			<path id="Trazado_123003" class="st5" d="M33,56.4v1.1h-2.5v-1.1H33z"/>
			<path id="Trazado_123004" class="st5" d="M33,55.5h-2.5v-1.1H33V55.5z"/>
			<path id="Trazado_123005" class="st5" d="M33,52.3v1.1h-2.5v-1.1H33z"/>
			<path id="Trazado_123006" class="st5" d="M34.8,53.5l-0.1-1.1h2.6l0.2,1.1H34.8z"/>
			<path id="Trazado_123007" class="st5" d="M39,52.3c0.7-0.1,1.4,0,2.1,0c0.3,0.1,0.6,0.6,0.9,0.9l-0.2,0.2c-0.7,0.1-1.4,0-2.1,0
				c-0.3-0.1-0.6-0.6-0.9-0.9L39,52.3z"/>
			<path id="Trazado_123008" class="st5" d="M46.1,53.5c-0.7,0.1-1.4,0-2.1,0c-0.4-0.1-0.6-0.6-0.9-1l0.2-0.2c0.7-0.1,1.4,0,2.1,0
				c0.4,0.1,0.6,0.6,0.9,0.9L46.1,53.5z"/>
			<path id="Trazado_123009" class="st5" d="M50.3,53.5c-0.7,0.1-1.4,0-2.1,0c-0.4-0.1-0.6-0.6-1.1-1C49.5,52,50,52.2,50.3,53.5z"/>
			<path id="Trazado_123010" class="st5" d="M51.7,52.4c3-0.2,2.5-0.2,2.9,1.1C51.7,53.6,52.1,53.7,51.7,52.4z"/>
			<path id="Trazado_123011" class="st5" d="M7.9,55.5c0.4-1.3,0.8-1.4,2.9-1.1C10.5,55.7,10.5,55.7,7.9,55.5z"/>
			<path id="Trazado_123012" class="st5" d="M44.7,56.4c0.7-0.1,1.4,0,2,0c0.3,0.1,0.6,0.6,0.9,0.9l-0.2,0.2c-0.7,0.1-1.4,0-2.1,0
				c-0.3-0.1-0.6-0.6-0.9-0.9L44.7,56.4z"/>
			<path id="Trazado_123013" class="st5" d="M40.3,57.5l-0.2-1c1.7-0.5,2.6-0.3,2.8,1H40.3z"/>
			<path id="Trazado_123014" class="st5" d="M14.6,56.5c-0.4,1.2-0.7,1.3-2.9,1C12,56.2,12.5,56.1,14.6,56.5z"/>
			<path id="Trazado_123015" class="st5" d="M28.7,54.4l-0.1,1.1H26v-1.1H28.7z"/>
			<path id="Trazado_123016" class="st5" d="M26.1,53.4l0.1-1.1h2.6l-0.1,1.1H26.1z"/>
			<path id="Trazado_123017" class="st5" d="M42.6,55.5c-0.5,0-0.7,0.1-0.9,0.1c-0.6,0-1.3,0-2,0l-0.3-1.2c0.7-0.1,1.5,0,2.2,0
				C41.9,54.4,42.2,55,42.6,55.5z"/>
			<path id="Trazado_123018" class="st5" d="M20.3,52.3c-0.3,1.3,0.2,1.3-2.8,1.2c0-0.8,0.3-1.3,1.2-1.2
				C19.2,52.3,19.7,52.3,20.3,52.3z"/>
			<path id="Trazado_123019" class="st5" d="M51.1,55.5c-2.5,0.2-2.5,0.2-2.8-1C50,53.9,50.9,54.2,51.1,55.5z"/>
			<path id="Trazado_123020" class="st5" d="M55.6,55.5c-2.9,0.2-2.5,0.2-2.9-1.1C54.9,54.1,55.2,54.2,55.6,55.5z"/>
			<path id="Trazado_123021" class="st5" d="M24.6,52.3c0,1-0.4,1.4-1.3,1.2c-0.5,0-1,0-1.5,0c0-0.8,0.1-1.3,1.1-1.2
				C23.5,52.3,24.1,52.3,24.6,52.3z"/>
			<path id="Trazado_123022" class="st5" d="M7,57.5c0.4-1.3,0.7-1.4,2.9-1.1C9.6,57.7,9.6,57.7,7,57.5z"/>
			<path id="Trazado_123023" class="st5" d="M21.3,55.5c0-1,0.3-1.3,1.2-1.2c0.5,0,1,0,1.6,0c0.1,0.9-0.2,1.4-1.2,1.2
				C22.3,55.5,21.8,55.5,21.3,55.5z"/>
			<path id="Trazado_123024" class="st5" d="M16.1,57.6c0-1,0.4-1.3,1.3-1.2c0.5,0,1,0,1.5,0c0,0.9-0.3,1.3-1.2,1.2
				C17.2,57.5,16.6,57.5,16.1,57.6z"/>
			<path id="Trazado_123025" class="st5" d="M13.3,53.5c0-1,0.4-1.3,1.3-1.2c0.5,0,1,0,1.5,0c0,0.9-0.3,1.4-1.3,1.2
				C14.3,53.5,13.8,53.5,13.3,53.5z"/>
			<path id="Trazado_123026" class="st5" d="M8.9,53.5c0.4-1.4,0.6-1.5,3-1.1c-0.2,0.7-0.4,1.3-1.4,1.1C10,53.5,9.5,53.5,8.9,53.5z"
				/>
			<path id="Trazado_123027" class="st5" d="M16.7,55.5c0.3-1.3-0.2-1.3,2.8-1.2c0,0.8-0.3,1.3-1.2,1.2
				C17.8,55.5,17.3,55.5,16.7,55.5z"/>
			<path id="Trazado_123028" class="st5" d="M12.5,55.5c0.3-1.3-0.1-1.3,2.9-1.2c0,0.9-0.4,1.3-1.4,1.2C13.5,55.5,13,55.5,12.5,55.5
				z"/>
			<path id="Trazado_123029" class="st5" d="M49,56.5c2.3-0.4,2.7-0.2,2.8,1C49.5,57.8,49.3,57.7,49,56.5z"/>
			<path id="Trazado_123030" class="st5" d="M56.6,57.5c-2.1,0.4-2.5,0.2-2.9-1C55.4,56,56.3,56.3,56.6,57.5z"/>
			<path id="Trazado_123031" class="st5" d="M50.6,60.5c0.7-0.1,1.4,0,2.1,0c0.3,0.1,0.6,0.6,0.8,0.9l-0.1,0.2c-0.7,0.1-1.4,0-2.1,0
				c-0.3-0.1-0.6-0.6-0.9-0.9L50.6,60.5z"/>
			<path id="Trazado_123032" class="st5" d="M46.8,55.5c-0.5,0-1.1,0-1.6,0c-0.8,0.1-1.2-0.2-1.2-1.1C45.7,54,46.6,54.2,46.8,55.5z"
				/>
			<path id="Trazado_123033" class="st5" d="M23.6,56.4c-0.3,1.4-0.5,1.5-2.8,1.1c-0.1-0.9,0.3-1.3,1.2-1.1
				C22.5,56.4,23,56.4,23.6,56.4z"/>
			<path id="Trazado_123034" class="st5" d="M58.6,61.6c-2.4,0.3-2.5,0.2-2.9-1C57.4,60.1,58.2,60.4,58.6,61.6z"/>
			<path id="Trazado_123035" class="st5" d="M13,60.5c-0.4,1.4-0.7,1.5-2.9,1.1c0-0.9,0.4-1.2,1.3-1.1C12,60.5,12.5,60.5,13,60.5z"
				/>
			<path id="Trazado_123036" class="st5" d="M7.9,60.6C7.6,61.8,7,62,5,61.5C5.4,60.3,5.8,60.2,7.9,60.6z"/>
			<path id="Trazado_123037" class="st5" d="M25.8,56.4h2.6l-0.1,1.1h-2.5V56.4z"/>
			<path id="Trazado_123038" class="st5" d="M35.4,59.5l-0.1-1.1c0.7,0,1.5,0,2.2,0c0.3,0,0.4,0.6,0.8,1.1H35.4z"/>
			<path id="Trazado_123039" class="st5" d="M30.5,58.5c0.1,0,0.3-0.1,0.4-0.1c0.7,0,1.3,0,2,0v1.1c-0.2,0-0.3,0.1-0.4,0.1
				c-0.7,0-1.3,0-2,0L30.5,58.5z"/>
			<path id="Trazado_123040" class="st5" d="M10.9,59.6c0.3-1.3-0.1-1.3,2.8-1.1c0,0.8-0.3,1.2-1.2,1.1C12,59.6,11.5,59.6,10.9,59.6
				z"/>
			<path id="Trazado_123041" class="st5" d="M48.1,59.6c-0.5,0-1.1,0-1.6,0c-0.8,0.1-1.2-0.3-1.1-1.2c0.7-0.1,1.4,0,2.1,0
				c0.3,0.1,0.5,0.6,0.8,0.9L48.1,59.6z"/>
			<path id="Trazado_123042" class="st5" d="M49.8,58.5c2.5-0.3,2.6-0.2,2.8,1C50.7,59.9,50.1,59.7,49.8,58.5z"/>
			<path id="Trazado_123043" class="st5" d="M20.2,59.6c0.2-1.3,0.7-1.5,2.8-1.1c0,0.8-0.3,1.2-1.2,1.1
				C21.2,59.6,20.7,59.6,20.2,59.6z"/>
			<path id="Trazado_123044" class="st5" d="M15.4,59.6c0.2-1.3,0.5-1.4,2.8-1.1c0,0.8-0.3,1.2-1.2,1.1C16.5,59.6,16,59.6,15.4,59.6
				z"/>
			<path id="Trazado_123045" class="st5" d="M43.4,59.6c-0.7,0.1-1.4,0-2.1,0c-0.3-0.1-0.6-0.5-0.9-0.9
				C42.5,58.1,43.2,58.3,43.4,59.6z"/>
			<path id="Trazado_123046" class="st5" d="M54.7,58.5c2.4-0.3,2.5-0.2,2.9,1C55.6,59.9,55,59.7,54.7,58.5z"/>
			<path id="Trazado_123047" class="st5" d="M6,59.5c0.3-1.2,0.7-1.4,2.9-1C8.6,59.7,8.2,59.9,6,59.5z"/>
			<path id="Trazado_123048" class="st5" d="M28.2,58.5l-0.1,1.1h-2.6l0.1-1.1H28.2z"/>
		</g>
	</g>
	<g id="BTEedh.tif" transform="translate(65.238 379.026)">
		<g id="Grupo_56636">
			<path id="Trazado_123049" class="st5" d="M65.3,36.7c0.6-8.4-1.5-15.9-6.8-22.4c-2,1.3-3.2,1.2-5-0.5c-5.1-5-12.1-7.7-19.3-7.4
				c-7,0.1-13.7,3.1-18.5,8.2c-0.8,0.8-1.5,1.6-2.7,1.5c-0.9-0.1-1.7-0.3-2.5-0.6c-4.5,6.1-6.3,13.3-5.8,21C6.1,37,6.2,37,6.2,38.5
				c0,4.6,0,9.2,0,13.8c0,1.3-0.3,1.6-1.6,1.4c-2.5-0.3-4.5-2.4-4.5-5c-0.1-2.3,0-4.6,0-6.9c0-1.1,0.4-2.1,1-2.9
				c0.2-0.4,0.4-0.8,0.4-1.2c0.2-3,0-6.1,0.5-9.1c1.1-8.4,5.5-16,12.2-21.2C19,3.3,25,0.8,31.3,0.2c12-1.1,22,3,29.7,12.3
				c5,6,7.6,13.6,7.5,21.4c0,0.8,0,1.5,0,2.3c-0.2,1.2,0.1,2.4,0.8,3.4c0.4,0.7,0.7,1.5,0.6,2.4c0.1,2.2,0.1,4.4,0,6.6
				c0,2.8-2.2,5-5,5.2c-0.9,0-1.2-0.3-1.2-1.2c0-4.9,0-9.7,0-14.6C63.9,37,64.1,36.9,65.3,36.7z"/>
			<path id="Trazado_123050" class="st5" d="M19.6,45.3c0,2.8,0,5.7,0,8.5c0.1,2.8-2.2,5.2-5,5.3c-0.1,0-0.1,0-0.2,0
				c-2.9,0-5.2-2.4-5.2-5.2c0,0,0-0.1,0-0.1c0-5.7,0-11.4,0-17.1c0-2.7,2.1-5,4.8-5.2c2.6-0.2,4.9,1.5,5.5,4
				c0.1,0.5,0.1,1.1,0.1,1.6c0,1.4,0,2.7,0,4.1L19.6,45.3z"/>
			<path id="Trazado_123051" class="st5" d="M50.5,45.3c0-2.8,0-5.7,0-8.5c-0.1-2.9,2.1-5.3,5-5.4c0.1,0,0.1,0,0.2,0
				c2.9,0,5.2,2.4,5.2,5.3c0,0,0,0.1,0,0.1c0,5.7,0,11.4,0,17c0,2.6-1.9,4.9-4.6,5.2c-2.6,0.3-5.1-1.4-5.7-4c-0.1-0.5-0.1-1-0.1-1.5
				C50.5,50.9,50.5,48.1,50.5,45.3L50.5,45.3z"/>
			<path id="Trazado_123052" class="st5" d="M51.5,67.4c4.8-1.7,9-4.9,11.7-9.3c0.1-0.1,0.1-0.2,0.2-0.3c0.5-0.8,1-1,1.5-0.7
				c0.5,0.3,0.6,0.9,0.1,1.7c-2.7,4.6-7,8.2-12.1,10c-0.7,0.2-1.3,0.7-1.6,1.4c-0.5,1.3-1.8,2.2-3.2,2.2c-1.8,0.1-3.6,0.1-5.4,0
				c-2-0.1-3.5-1.8-3.5-3.7c0-2,1.6-3.7,3.6-3.7c1.8,0,3.5-0.1,5.3,0C49.6,65.1,50.9,66,51.5,67.4z"/>
		</g>
	</g>
	<g id="Zh26Q6.tif" transform="translate(182.752 383.728)">
		<g id="Grupo_56637">
			<path id="Trazado_123053" class="st5" d="M0,18.6c0.4-1.9,0.8-4.7,1.5-7.3c0.7-2.7,7.4-7.4,10-7.1C12.3,4.4,13,5,13.4,5.8
				c1.6,3,3,6.1,4.2,9.2c0.2,1.1-0.3,2.2-1.1,3c-1.8,1.1-3.6,2-5.6,2.7c-1.3,0.3-2.2,1.7-1.8,3.1c0,0.1,0,0.1,0.1,0.2
				c1.9,8.5,5.6,16.4,11,23.2c0.5,0.6,2.1,0.8,3,0.5c2-0.7,3.9-1.6,5.7-2.6c1.7-0.9,2.8-0.4,3.6,1.2c1.4,2.8,2.8,5.7,4.3,8.5
				c1,1.8,0.4,2.8-1.3,3.8c-8.5,5.2-14.6,2.4-20.5-4.9C7.7,44.9,3.5,34.1,0.4,23C0.1,21.6,0,20.1,0,18.6z"/>
			<path id="Trazado_123054" class="st5" d="M53.1,44.9L50,43.7C53.9,23.2,49.1,13.1,30.8,3l1.1-3C47.6,3.8,61,25.4,53.1,44.9z"/>
			<path id="Trazado_123055" class="st5" d="M28.3,10l1.1-3.4C43.5,10.9,51.9,28.7,46,42.3l-3.1-1.1C45.7,25.4,41.6,16.6,28.3,10z"
				/>
			<path id="Trazado_123056" class="st5" d="M39.1,40.1l-3.2-1.1c2.4-9.8-0.9-17.1-10.2-21.9l1-3.2C36.8,16.2,43.7,30.4,39.1,40.1z"
				/>
			<path id="Trazado_123057" class="st5" d="M23,24.1l1.3-3.3c7,2.2,10.4,9.4,7.8,16.6l-3.3-1.2C29.7,30.7,28.2,26.5,23,24.1z"/>
		</g>
	</g>
	<g class="st0">
		<path class="st5" d="M-624.1,488.2h-3.2v-15.6h3.2V488.2z"/>
		<path class="st5" d="M-617.9,482.7v5.5h-3.2v-15.6h6.1c1.2,0,2.2,0.2,3.1,0.6s1.6,1,2.1,1.8c0.5,0.8,0.7,1.7,0.7,2.7
			c0,1.5-0.5,2.7-1.6,3.6c-1,0.9-2.5,1.3-4.4,1.3H-617.9z M-617.9,480.1h2.9c0.9,0,1.5-0.2,1.9-0.6c0.4-0.4,0.7-1,0.7-1.7
			c0-0.8-0.2-1.4-0.7-1.9s-1.1-0.7-1.9-0.7h-3V480.1z"/>
		<path class="st5" d="M-598.2,482.7v5.5h-3.2v-15.6h6.1c1.2,0,2.2,0.2,3.1,0.6s1.6,1,2.1,1.8c0.5,0.8,0.7,1.7,0.7,2.7
			c0,1.5-0.5,2.7-1.6,3.6c-1,0.9-2.5,1.3-4.4,1.3H-598.2z M-598.2,480.1h2.9c0.9,0,1.5-0.2,1.9-0.6c0.4-0.4,0.7-1,0.7-1.7
			c0-0.8-0.2-1.4-0.7-1.9s-1.1-0.7-1.9-0.7h-3V480.1z"/>
		<path class="st5" d="M-584.4,477.8c0.8-1,1.9-1.5,3.1-1.5c2.5,0,3.8,1.5,3.8,4.4v7.4h-3.1v-7.4c0-0.7-0.1-1.2-0.4-1.5
			c-0.3-0.3-0.8-0.5-1.4-0.5c-0.9,0-1.6,0.4-2,1.1v8.3h-3.1v-16.5h3.1V477.8z"/>
		<path class="st5" d="M-575.6,482.3c0-1.2,0.2-2.2,0.7-3.1c0.4-0.9,1.1-1.6,1.9-2.1c0.8-0.5,1.8-0.7,2.9-0.7c1.6,0,2.8,0.5,3.8,1.4
			c1,1,1.5,2.3,1.7,3.9l0,0.8c0,1.8-0.5,3.2-1.5,4.3c-1,1.1-2.3,1.6-4,1.6s-3-0.5-4-1.6s-1.5-2.5-1.5-4.4V482.3z M-572.5,482.5
			c0,1.1,0.2,1.9,0.6,2.5c0.4,0.6,1,0.9,1.8,0.9c0.8,0,1.3-0.3,1.8-0.9c0.4-0.6,0.6-1.5,0.6-2.8c0-1.1-0.2-1.9-0.6-2.5
			c-0.4-0.6-1-0.9-1.8-0.9c-0.8,0-1.3,0.3-1.8,0.9C-572.3,480.3-572.5,481.2-572.5,482.5z"/>
		<path class="st5" d="M-559.8,476.6l0.1,1.3c0.8-1,1.9-1.6,3.3-1.6c1.2,0,2.1,0.4,2.8,1.1s0.9,1.8,0.9,3.2v7.5h-3.1v-7.4
			c0-0.7-0.1-1.1-0.4-1.4c-0.3-0.3-0.8-0.4-1.4-0.4c-0.9,0-1.5,0.4-2,1.1v8.2h-3.1v-11.6H-559.8z"/>
		<path class="st5" d="M-545,488.4c-1.7,0-3.1-0.5-4.2-1.6c-1.1-1-1.6-2.4-1.6-4.2v-0.3c0-1.2,0.2-2.2,0.7-3.1
			c0.5-0.9,1.1-1.6,1.9-2.1c0.8-0.5,1.8-0.7,2.8-0.7c1.6,0,2.8,0.5,3.8,1.5s1.4,2.4,1.4,4.3v1.3h-7.4c0.1,0.8,0.4,1.4,0.9,1.8
			s1.1,0.7,1.9,0.7c1.2,0,2.1-0.4,2.8-1.3l1.5,1.7c-0.5,0.7-1.1,1.2-1.9,1.5C-543.2,488.2-544.1,488.4-545,488.4z M-545.4,478.8
			c-0.6,0-1.1,0.2-1.5,0.6c-0.4,0.4-0.6,1-0.7,1.8h4.3V481c0-0.7-0.2-1.2-0.6-1.6C-544.2,479-544.7,478.8-545.4,478.8z"/>
	</g>
	<g class="st0">
		<path class="st5" d="M-495.3,488.2h-3.2l-6.3-10.3v10.3h-3.2v-15.6h3.2l6.3,10.3v-10.3h3.2V488.2z"/>
		<path class="st5" d="M-487.3,488.4c-1.7,0-3.1-0.5-4.2-1.6c-1.1-1-1.6-2.4-1.6-4.2v-0.3c0-1.2,0.2-2.2,0.7-3.1
			c0.5-0.9,1.1-1.6,1.9-2.1c0.8-0.5,1.8-0.7,2.8-0.7c1.6,0,2.8,0.5,3.8,1.5s1.4,2.4,1.4,4.3v1.3h-7.4c0.1,0.8,0.4,1.4,0.9,1.8
			s1.1,0.7,1.9,0.7c1.2,0,2.1-0.4,2.8-1.3l1.5,1.7c-0.5,0.7-1.1,1.2-1.9,1.5C-485.5,488.2-486.3,488.4-487.3,488.4z M-487.7,478.8
			c-0.6,0-1.1,0.2-1.5,0.6c-0.4,0.4-0.6,1-0.7,1.8h4.3V481c0-0.7-0.2-1.2-0.6-1.6C-486.5,479-487,478.8-487.7,478.8z"/>
		<path class="st5" d="M-477,473.7v2.9h2v2.3h-2v5.8c0,0.4,0.1,0.7,0.2,0.9c0.2,0.2,0.5,0.3,0.9,0.3c0.3,0,0.6,0,0.9-0.1v2.4
			c-0.6,0.2-1.2,0.3-1.9,0.3c-2.2,0-3.3-1.1-3.3-3.3v-6.3h-1.7v-2.3h1.7v-2.9H-477z"/>
		<path class="st5" d="M-463.2,484l1.5-7.4h3l-3,11.6h-2.6l-2.2-7.3l-2.2,7.3h-2.6l-3-11.6h3l1.5,7.4l2.1-7.4h2.2L-463.2,484z"/>
		<path class="st5" d="M-457.6,482.3c0-1.2,0.2-2.2,0.7-3.1c0.4-0.9,1.1-1.6,1.9-2.1c0.8-0.5,1.8-0.7,2.9-0.7c1.6,0,2.8,0.5,3.8,1.4
			c1,1,1.5,2.3,1.7,3.9l0,0.8c0,1.8-0.5,3.2-1.5,4.3c-1,1.1-2.3,1.6-4,1.6s-3-0.5-4-1.6s-1.5-2.5-1.5-4.4V482.3z M-454.5,482.5
			c0,1.1,0.2,1.9,0.6,2.5c0.4,0.6,1,0.9,1.8,0.9c0.8,0,1.3-0.3,1.8-0.9c0.4-0.6,0.6-1.5,0.6-2.8c0-1.1-0.2-1.9-0.6-2.5
			c-0.4-0.6-1-0.9-1.8-0.9c-0.8,0-1.3,0.3-1.8,0.9C-454.3,480.3-454.5,481.2-454.5,482.5z"/>
		<path class="st5" d="M-438.2,479.5c-0.4-0.1-0.8-0.1-1.1-0.1c-1.2,0-1.9,0.4-2.3,1.2v7.6h-3.1v-11.6h2.9l0.1,1.4
			c0.6-1.1,1.5-1.6,2.6-1.6c0.3,0,0.7,0,1,0.1L-438.2,479.5z"/>
		<path class="st5" d="M-432.5,483.5l-1.1,1.1v3.5h-3.1v-16.5h3.1v9.1l0.6-0.8l3-3.5h3.7l-4.2,4.8l4.6,6.8h-3.6L-432.5,483.5z"/>
	</g>
	<g class="st0">
		<path class="st5" d="M-277.8,481.4h-6.2v4.2h7.3v2.6h-10.5v-15.6h10.5v2.6h-7.2v3.7h6.2V481.4z"/>
		<path class="st5" d="M-272.2,476.6l0.1,1.3c0.8-1,1.9-1.6,3.3-1.6c1.2,0,2.1,0.4,2.8,1.1s0.9,1.8,0.9,3.2v7.5h-3.1v-7.4
			c0-0.7-0.1-1.1-0.4-1.4c-0.3-0.3-0.8-0.4-1.4-0.4c-0.9,0-1.5,0.4-2,1.1v8.2h-3.1v-11.6H-272.2z"/>
		<path class="st5" d="M-257.9,485.9c0.6,0,1-0.2,1.4-0.5c0.4-0.3,0.5-0.7,0.6-1.3h2.9c0,0.8-0.2,1.5-0.6,2.2
			c-0.4,0.7-1,1.2-1.7,1.5c-0.7,0.4-1.5,0.5-2.4,0.5c-1.7,0-3-0.5-3.9-1.6c-1-1.1-1.4-2.5-1.4-4.4v-0.2c0-1.8,0.5-3.2,1.4-4.3
			c1-1.1,2.3-1.6,3.9-1.6c1.5,0,2.6,0.4,3.5,1.2c0.9,0.8,1.3,1.9,1.3,3.3h-2.9c0-0.6-0.2-1.1-0.6-1.5c-0.4-0.4-0.8-0.6-1.4-0.6
			c-0.7,0-1.3,0.3-1.6,0.8c-0.4,0.5-0.6,1.4-0.6,2.6v0.3c0,1.2,0.2,2.1,0.5,2.6S-258.6,485.9-257.9,485.9z"/>
		<path class="st5" d="M-251.7,482.3c0-1.2,0.2-2.2,0.7-3.1c0.4-0.9,1.1-1.6,1.9-2.1c0.8-0.5,1.8-0.7,2.9-0.7c1.6,0,2.8,0.5,3.8,1.4
			c1,1,1.5,2.3,1.7,3.9l0,0.8c0,1.8-0.5,3.2-1.5,4.3c-1,1.1-2.3,1.6-4,1.6s-3-0.5-4-1.6s-1.5-2.5-1.5-4.4V482.3z M-248.6,482.5
			c0,1.1,0.2,1.9,0.6,2.5c0.4,0.6,1,0.9,1.8,0.9c0.8,0,1.3-0.3,1.8-0.9c0.4-0.6,0.6-1.5,0.6-2.8c0-1.1-0.2-1.9-0.6-2.5
			c-0.4-0.6-1-0.9-1.8-0.9c-0.8,0-1.3,0.3-1.8,0.9C-248.4,480.3-248.6,481.2-248.6,482.5z"/>
		<path class="st5" d="M-239.3,482.3c0-1.8,0.4-3.3,1.2-4.3c0.8-1.1,1.9-1.6,3.3-1.6c1.1,0,2.1,0.4,2.8,1.3v-5.9h3.1v16.5h-2.8
			l-0.2-1.2c-0.8,1-1.8,1.5-3,1.5c-1.4,0-2.5-0.5-3.3-1.6C-238.9,485.7-239.3,484.2-239.3,482.3z M-236.2,482.5
			c0,1.1,0.2,1.9,0.6,2.5c0.4,0.6,0.9,0.9,1.7,0.9c1,0,1.6-0.4,2-1.2v-4.6c-0.4-0.8-1.1-1.2-2-1.2
			C-235.5,478.9-236.2,480.1-236.2,482.5z"/>
		<path class="st5" d="M-226.4,473.6c0-0.5,0.2-0.8,0.5-1.1s0.7-0.5,1.3-0.5c0.5,0,1,0.2,1.3,0.5c0.3,0.3,0.5,0.7,0.5,1.1
			c0,0.5-0.2,0.9-0.5,1.2c-0.3,0.3-0.7,0.5-1.3,0.5c-0.5,0-0.9-0.2-1.3-0.5C-226.3,474.4-226.4,474-226.4,473.6z M-223.1,488.2h-3.1
			v-11.6h3.1V488.2z"/>
		<path class="st5" d="M-217.7,476.6l0.1,1.3c0.8-1,1.9-1.6,3.3-1.6c1.2,0,2.1,0.4,2.8,1.1s0.9,1.8,0.9,3.2v7.5h-3.1v-7.4
			c0-0.7-0.1-1.1-0.4-1.4c-0.3-0.3-0.8-0.4-1.4-0.4c-0.9,0-1.5,0.4-2,1.1v8.2h-3.1v-11.6H-217.7z"/>
		<path class="st5" d="M-208.7,482.3c0-1.8,0.4-3.2,1.3-4.3s2-1.6,3.4-1.6c1.3,0,2.3,0.4,3,1.3l0.1-1.1h2.8v11.2
			c0,1-0.2,1.9-0.7,2.7s-1.1,1.3-1.9,1.7s-1.8,0.6-2.9,0.6c-0.9,0-1.7-0.2-2.5-0.5c-0.8-0.3-1.4-0.8-1.8-1.3l1.4-1.9
			c0.8,0.9,1.7,1.3,2.8,1.3c0.8,0,1.5-0.2,1.9-0.7c0.5-0.4,0.7-1.1,0.7-1.9v-0.6c-0.7,0.8-1.7,1.2-2.8,1.2c-1.4,0-2.5-0.5-3.4-1.6
			c-0.9-1.1-1.3-2.5-1.3-4.3V482.3z M-205.6,482.5c0,1.1,0.2,1.9,0.6,2.5c0.4,0.6,1,0.9,1.7,0.9c0.9,0,1.6-0.4,2-1.1v-4.9
			c-0.4-0.7-1.1-1.1-2-1.1c-0.7,0-1.3,0.3-1.8,0.9C-205.4,480.4-205.6,481.3-205.6,482.5z"/>
	</g>
	<g class="st0">
		<path class="st5" d="M-152.9,482.5h-2.6v5.7h-3.2v-15.6h5.8c1.8,0,3.3,0.4,4.3,1.2c1,0.8,1.5,2,1.5,3.5c0,1.1-0.2,2-0.7,2.7
			c-0.5,0.7-1.2,1.3-2.1,1.7l3.4,6.4v0.2h-3.5L-152.9,482.5z M-155.4,479.8h2.6c0.8,0,1.4-0.2,1.9-0.6c0.4-0.4,0.7-1,0.7-1.7
			c0-0.7-0.2-1.3-0.6-1.7s-1.1-0.6-1.9-0.6h-2.6V479.8z"/>
		<path class="st5" d="M-145.3,482.3c0-1.2,0.2-2.2,0.7-3.1c0.4-0.9,1.1-1.6,1.9-2.1s1.8-0.7,2.9-0.7c1.6,0,2.8,0.5,3.8,1.4
			s1.5,2.3,1.7,3.9l0,0.8c0,1.8-0.5,3.2-1.5,4.3c-1,1.1-2.3,1.6-4,1.6s-3-0.5-4-1.6s-1.5-2.5-1.5-4.4V482.3z M-142.2,482.5
			c0,1.1,0.2,1.9,0.6,2.5c0.4,0.6,1,0.9,1.8,0.9c0.8,0,1.3-0.3,1.8-0.9c0.4-0.6,0.6-1.5,0.6-2.8c0-1.1-0.2-1.9-0.6-2.5
			c-0.4-0.6-1-0.9-1.8-0.9c-0.8,0-1.3,0.3-1.8,0.9C-142,480.3-142.2,481.2-142.2,482.5z"/>
		<path class="st5" d="M-125.4,487c-0.8,0.9-1.8,1.4-3.2,1.4c-1.2,0-2.2-0.4-2.9-1.1s-1-1.8-1-3.1v-7.6h3.1v7.5
			c0,1.2,0.6,1.8,1.7,1.8c1.1,0,1.8-0.4,2.2-1.1v-8.2h3.1v11.6h-2.9L-125.4,487z"/>
		<path class="st5" d="M-116.4,473.7v2.9h2v2.3h-2v5.8c0,0.4,0.1,0.7,0.2,0.9c0.2,0.2,0.5,0.3,0.9,0.3c0.3,0,0.6,0,0.9-0.1v2.4
			c-0.6,0.2-1.2,0.3-1.9,0.3c-2.2,0-3.3-1.1-3.3-3.3v-6.3h-1.7v-2.3h1.7v-2.9H-116.4z"/>
		<path class="st5" d="M-107.3,488.4c-1.7,0-3.1-0.5-4.2-1.6c-1.1-1-1.6-2.4-1.6-4.2v-0.3c0-1.2,0.2-2.2,0.7-3.1
			c0.5-0.9,1.1-1.6,1.9-2.1c0.8-0.5,1.8-0.7,2.8-0.7c1.6,0,2.8,0.5,3.8,1.5s1.4,2.4,1.4,4.3v1.3h-7.4c0.1,0.8,0.4,1.4,0.9,1.8
			s1.1,0.7,1.9,0.7c1.2,0,2.1-0.4,2.8-1.3l1.5,1.7c-0.5,0.7-1.1,1.2-1.9,1.5C-105.4,488.2-106.3,488.4-107.3,488.4z M-107.7,478.8
			c-0.6,0-1.1,0.2-1.5,0.6s-0.6,1-0.7,1.8h4.3V481c0-0.7-0.2-1.2-0.6-1.6C-106.5,479-107,478.8-107.7,478.8z"/>
		<path class="st5" d="M-94.2,479.5c-0.4-0.1-0.8-0.1-1.1-0.1c-1.2,0-1.9,0.4-2.3,1.2v7.6h-3.1v-11.6h2.9l0.1,1.4
			c0.6-1.1,1.5-1.6,2.6-1.6c0.3,0,0.7,0,1,0.1L-94.2,479.5z"/>
	</g>
	<g class="st0">
		<path class="st5" d="M71.9,488.2h-3.2v-6.7h-6.3v6.7h-3.2v-15.6h3.2v6.3h6.3v-6.3h3.2V488.2z"/>
		<path class="st5" d="M79.9,488.4c-1.7,0-3.1-0.5-4.2-1.6c-1.1-1-1.6-2.4-1.6-4.2v-0.3c0-1.2,0.2-2.2,0.7-3.1
			c0.5-0.9,1.1-1.6,1.9-2.1c0.8-0.5,1.8-0.7,2.8-0.7c1.6,0,2.8,0.5,3.8,1.5s1.4,2.4,1.4,4.3v1.3h-7.4c0.1,0.8,0.4,1.4,0.9,1.8
			s1.1,0.7,1.9,0.7c1.2,0,2.1-0.4,2.8-1.3l1.5,1.7c-0.5,0.7-1.1,1.2-1.9,1.5C81.7,488.2,80.8,488.4,79.9,488.4z M79.5,478.8
			c-0.6,0-1.1,0.2-1.5,0.6c-0.4,0.4-0.6,1-0.7,1.8h4.3V481c0-0.7-0.2-1.2-0.6-1.6S80.2,478.8,79.5,478.8z"/>
		<path class="st5" d="M93.1,488.2c-0.1-0.3-0.2-0.6-0.3-1c-0.8,0.8-1.7,1.3-2.9,1.3c-1.1,0-2.1-0.3-2.8-1c-0.7-0.7-1.1-1.5-1.1-2.5
			c0-1.2,0.5-2.2,1.4-2.8s2.2-1,4-1h1.4v-0.7c0-0.5-0.1-1-0.4-1.3c-0.3-0.3-0.7-0.5-1.3-0.5c-0.5,0-0.9,0.1-1.2,0.4
			c-0.3,0.3-0.4,0.6-0.4,1h-3.1c0-0.7,0.2-1.3,0.6-1.9s1-1,1.8-1.3c0.8-0.3,1.6-0.5,2.6-0.5c1.4,0,2.6,0.4,3.4,1.1
			c0.8,0.7,1.3,1.7,1.3,3v5c0,1.1,0.2,1.9,0.5,2.5v0.2H93.1z M90.6,486c0.5,0,0.9-0.1,1.3-0.3c0.4-0.2,0.7-0.5,0.9-0.8v-2h-1.2
			c-1.6,0-2.4,0.5-2.5,1.6l0,0.2c0,0.4,0.1,0.7,0.4,1S90.1,486,90.6,486z"/>
		<path class="st5" d="M97.7,482.3c0-1.8,0.4-3.3,1.2-4.3c0.8-1.1,1.9-1.6,3.3-1.6c1.1,0,2.1,0.4,2.8,1.3v-5.9h3.1v16.5h-2.8
			l-0.2-1.2c-0.8,1-1.8,1.5-3,1.5c-1.4,0-2.5-0.5-3.3-1.6C98.1,485.7,97.7,484.2,97.7,482.3z M100.8,482.5c0,1.1,0.2,1.9,0.6,2.5
			s0.9,0.9,1.7,0.9c1,0,1.6-0.4,2-1.2v-4.6c-0.4-0.8-1.1-1.2-2-1.2C101.6,478.9,100.8,480.1,100.8,482.5z"/>
		<path class="st5" d="M116.9,485c0-0.4-0.2-0.7-0.6-0.9c-0.4-0.2-1-0.4-1.8-0.6c-2.8-0.6-4.1-1.8-4.1-3.5c0-1,0.4-1.9,1.3-2.6
			c0.9-0.7,2-1,3.4-1c1.5,0,2.7,0.3,3.5,1c0.9,0.7,1.3,1.6,1.3,2.7h-3.1c0-0.4-0.1-0.8-0.4-1.1c-0.3-0.3-0.7-0.4-1.3-0.4
			c-0.5,0-0.9,0.1-1.2,0.4s-0.4,0.5-0.4,0.9c0,0.3,0.2,0.6,0.5,0.8c0.3,0.2,0.9,0.4,1.6,0.5c0.8,0.2,1.4,0.3,2,0.5
			c1.6,0.6,2.5,1.6,2.5,3.1c0,1.1-0.5,1.9-1.4,2.6c-0.9,0.7-2.1,1-3.5,1c-1,0-1.8-0.2-2.6-0.5c-0.8-0.3-1.3-0.8-1.8-1.4
			c-0.4-0.6-0.6-1.3-0.6-2h2.9c0,0.6,0.2,1,0.6,1.3s0.9,0.4,1.5,0.4c0.6,0,1-0.1,1.3-0.3C116.7,485.6,116.9,485.3,116.9,485z"/>
		<path class="st5" d="M127.2,488.4c-1.7,0-3.1-0.5-4.2-1.6c-1.1-1-1.6-2.4-1.6-4.2v-0.3c0-1.2,0.2-2.2,0.7-3.1
			c0.5-0.9,1.1-1.6,1.9-2.1c0.8-0.5,1.8-0.7,2.8-0.7c1.6,0,2.8,0.5,3.8,1.5s1.4,2.4,1.4,4.3v1.3h-7.4c0.1,0.8,0.4,1.4,0.9,1.8
			s1.1,0.7,1.9,0.7c1.2,0,2.1-0.4,2.8-1.3l1.5,1.7c-0.5,0.7-1.1,1.2-1.9,1.5C129.1,488.2,128.2,488.4,127.2,488.4z M126.9,478.8
			c-0.6,0-1.1,0.2-1.5,0.6c-0.4,0.4-0.6,1-0.7,1.8h4.3V481c0-0.7-0.2-1.2-0.6-1.6S127.6,478.8,126.9,478.8z"/>
		<path class="st5" d="M137.5,473.7v2.9h2v2.3h-2v5.8c0,0.4,0.1,0.7,0.2,0.9s0.5,0.3,0.9,0.3c0.3,0,0.6,0,0.9-0.1v2.4
			c-0.6,0.2-1.2,0.3-1.9,0.3c-2.2,0-3.3-1.1-3.3-3.3v-6.3h-1.7v-2.3h1.7v-2.9H137.5z"/>
	</g>
	<g class="st0">
		<path class="st5" d="M197.4,484.3l3.5-11.8h3.6l-5.4,15.6h-3.4l-5.4-15.6h3.6L197.4,484.3z"/>
		<path class="st5" d="M204.8,482.3c0-1.2,0.2-2.2,0.7-3.1s1.1-1.6,1.9-2.1c0.8-0.5,1.8-0.7,2.9-0.7c1.6,0,2.8,0.5,3.8,1.4
			c1,1,1.5,2.3,1.7,3.9l0,0.8c0,1.8-0.5,3.2-1.5,4.3c-1,1.1-2.3,1.6-4,1.6s-3-0.5-4-1.6s-1.5-2.5-1.5-4.4V482.3z M207.9,482.5
			c0,1.1,0.2,1.9,0.6,2.5c0.4,0.6,1,0.9,1.8,0.9c0.8,0,1.3-0.3,1.8-0.9s0.6-1.5,0.6-2.8c0-1.1-0.2-1.9-0.6-2.5
			c-0.4-0.6-1-0.9-1.8-0.9c-0.8,0-1.3,0.3-1.8,0.9S207.9,481.2,207.9,482.5z"/>
		<path class="st5" d="M221.4,488.2h-3.2v-15.6h3.2V488.2z"/>
		<path class="st5" d="M227.6,482.7v5.5h-3.2v-15.6h6.1c1.2,0,2.2,0.2,3.1,0.6s1.6,1,2.1,1.8c0.5,0.8,0.7,1.7,0.7,2.7
			c0,1.5-0.5,2.7-1.6,3.6c-1,0.9-2.5,1.3-4.4,1.3H227.6z M227.6,480.1h2.9c0.9,0,1.5-0.2,2-0.6c0.4-0.4,0.7-1,0.7-1.7
			c0-0.8-0.2-1.4-0.7-1.9s-1.1-0.7-1.9-0.7h-3V480.1z"/>
	</g>
	<g class="st0">
		<path class="st5" d="M-26.4,482.7v5.5h-3.2v-15.6h6.1c1.2,0,2.2,0.2,3.1,0.6s1.6,1,2.1,1.8c0.5,0.8,0.7,1.7,0.7,2.7
			c0,1.5-0.5,2.7-1.6,3.6c-1,0.9-2.5,1.3-4.4,1.3H-26.4z M-26.4,480.1h2.9c0.9,0,1.5-0.2,1.9-0.6s0.7-1,0.7-1.7
			c0-0.8-0.2-1.4-0.7-1.9s-1.1-0.7-1.9-0.7h-3V480.1z"/>
		<path class="st5" d="M-3.2,483c-0.1,1.7-0.7,3-1.9,4s-2.6,1.5-4.4,1.5c-2,0-3.6-0.7-4.7-2c-1.1-1.3-1.7-3.2-1.7-5.6v-1
			c0-1.5,0.3-2.8,0.8-4c0.5-1.1,1.3-2,2.3-2.6c1-0.6,2.1-0.9,3.4-0.9c1.8,0,3.3,0.5,4.4,1.5c1.1,1,1.7,2.3,1.9,4.1h-3.2
			c-0.1-1-0.4-1.7-0.8-2.2c-0.5-0.5-1.2-0.7-2.2-0.7c-1.1,0-1.9,0.4-2.4,1.2c-0.5,0.8-0.8,2-0.8,3.6v1.2c0,1.7,0.3,2.9,0.8,3.7
			s1.3,1.2,2.4,1.2c1,0,1.7-0.2,2.2-0.7c0.5-0.5,0.8-1.2,0.8-2.1H-3.2z"/>
	</g>
	<g class="st0">
		<path class="st5" d="M-387.2,483c-0.1,1.7-0.7,3-1.9,4c-1.1,1-2.6,1.5-4.4,1.5c-2,0-3.6-0.7-4.7-2c-1.1-1.3-1.7-3.2-1.7-5.6v-1
			c0-1.5,0.3-2.8,0.8-4c0.5-1.1,1.3-2,2.3-2.6c1-0.6,2.1-0.9,3.4-0.9c1.8,0,3.3,0.5,4.4,1.5c1.1,1,1.7,2.3,1.9,4.1h-3.2
			c-0.1-1-0.4-1.7-0.8-2.2c-0.5-0.5-1.2-0.7-2.2-0.7c-1.1,0-1.9,0.4-2.4,1.2c-0.5,0.8-0.8,2-0.8,3.6v1.2c0,1.7,0.3,2.9,0.8,3.7
			c0.5,0.8,1.3,1.2,2.4,1.2c1,0,1.7-0.2,2.2-0.7c0.5-0.5,0.8-1.2,0.8-2.1H-387.2z"/>
		<path class="st5" d="M-382.2,477.8c0.8-1,1.9-1.5,3.1-1.5c2.5,0,3.8,1.5,3.8,4.4v7.4h-3.1v-7.4c0-0.7-0.1-1.2-0.4-1.5
			c-0.3-0.3-0.8-0.5-1.4-0.5c-0.9,0-1.6,0.4-2,1.1v8.3h-3.1v-16.5h3.1V477.8z"/>
		<path class="st5" d="M-366.2,488.2c-0.1-0.3-0.2-0.6-0.3-1c-0.8,0.8-1.7,1.3-2.9,1.3c-1.1,0-2.1-0.3-2.8-1
			c-0.7-0.7-1.1-1.5-1.1-2.5c0-1.2,0.5-2.2,1.4-2.8s2.2-1,4-1h1.4v-0.7c0-0.5-0.1-1-0.4-1.3c-0.3-0.3-0.7-0.5-1.3-0.5
			c-0.5,0-0.9,0.1-1.2,0.4c-0.3,0.3-0.4,0.6-0.4,1h-3.1c0-0.7,0.2-1.3,0.6-1.9c0.4-0.6,1-1,1.8-1.3c0.8-0.3,1.6-0.5,2.6-0.5
			c1.4,0,2.6,0.4,3.4,1.1c0.8,0.7,1.3,1.7,1.3,3v5c0,1.1,0.2,1.9,0.5,2.5v0.2H-366.2z M-368.8,486c0.5,0,0.9-0.1,1.3-0.3
			c0.4-0.2,0.7-0.5,0.9-0.8v-2h-1.2c-1.6,0-2.4,0.5-2.5,1.6l0,0.2c0,0.4,0.1,0.7,0.4,1C-369.6,485.9-369.3,486-368.8,486z"/>
		<path class="st5" d="M-358.3,476.6l0.1,1.3c0.8-1,1.9-1.6,3.3-1.6c1.2,0,2.1,0.4,2.8,1.1s0.9,1.8,0.9,3.2v7.5h-3.1v-7.4
			c0-0.7-0.1-1.1-0.4-1.4c-0.3-0.3-0.8-0.4-1.4-0.4c-0.9,0-1.5,0.4-2,1.1v8.2h-3.1v-11.6H-358.3z"/>
		<path class="st5" d="M-346,476.6l0.1,1.3c0.8-1,1.9-1.6,3.3-1.6c1.2,0,2.1,0.4,2.8,1.1s0.9,1.8,0.9,3.2v7.5h-3.1v-7.4
			c0-0.7-0.1-1.1-0.4-1.4c-0.3-0.3-0.8-0.4-1.4-0.4c-0.9,0-1.5,0.4-2,1.1v8.2h-3.1v-11.6H-346z"/>
		<path class="st5" d="M-331.2,488.4c-1.7,0-3.1-0.5-4.2-1.6c-1.1-1-1.6-2.4-1.6-4.2v-0.3c0-1.2,0.2-2.2,0.7-3.1
			c0.5-0.9,1.1-1.6,1.9-2.1c0.8-0.5,1.8-0.7,2.8-0.7c1.6,0,2.8,0.5,3.8,1.5s1.4,2.4,1.4,4.3v1.3h-7.4c0.1,0.8,0.4,1.4,0.9,1.8
			s1.1,0.7,1.9,0.7c1.2,0,2.1-0.4,2.8-1.3l1.5,1.7c-0.5,0.7-1.1,1.2-1.9,1.5C-329.3,488.2-330.2,488.4-331.2,488.4z M-331.5,478.8
			c-0.6,0-1.1,0.2-1.5,0.6c-0.4,0.4-0.6,1-0.7,1.8h4.3V481c0-0.7-0.2-1.2-0.6-1.6C-330.4,479-330.9,478.8-331.5,478.8z"/>
		<path class="st5" d="M-321.4,488.2h-3.1v-16.5h3.1V488.2z"/>
	</g>
	<g class="st0">
		<path class="st5" d="M-377,510.1c0-0.6-0.2-1.1-0.6-1.4c-0.4-0.3-1.2-0.7-2.3-1c-1.1-0.4-2-0.7-2.7-1.1c-1.8-1-2.7-2.3-2.7-3.9
			c0-0.8,0.2-1.6,0.7-2.3c0.5-0.7,1.2-1.2,2.1-1.6s1.9-0.6,3-0.6c1.1,0,2.1,0.2,3,0.6c0.9,0.4,1.6,1,2,1.7s0.7,1.6,0.7,2.5h-3.2
			c0-0.7-0.2-1.3-0.7-1.7c-0.5-0.4-1.1-0.6-1.9-0.6c-0.8,0-1.4,0.2-1.8,0.5c-0.4,0.3-0.7,0.8-0.7,1.3c0,0.5,0.3,0.9,0.8,1.3
			c0.5,0.3,1.3,0.7,2.3,1c1.8,0.6,3.2,1.2,4,2.1s1.3,1.8,1.3,3.1c0,1.4-0.5,2.4-1.5,3.2c-1,0.8-2.4,1.2-4.1,1.2
			c-1.2,0-2.3-0.2-3.3-0.7c-1-0.4-1.7-1-2.3-1.8c-0.5-0.8-0.8-1.7-0.8-2.7h3.2c0,1.7,1,2.6,3.1,2.6c0.8,0,1.4-0.2,1.8-0.5
			C-377.2,511.1-377,510.6-377,510.1z"/>
		<path class="st5" d="M-366.4,514.4c-1.7,0-3.1-0.5-4.2-1.6c-1.1-1-1.6-2.4-1.6-4.2v-0.3c0-1.2,0.2-2.2,0.7-3.1
			c0.5-0.9,1.1-1.6,1.9-2.1c0.8-0.5,1.8-0.7,2.8-0.7c1.6,0,2.8,0.5,3.8,1.5s1.4,2.4,1.4,4.3v1.3h-7.4c0.1,0.8,0.4,1.4,0.9,1.8
			s1.1,0.7,1.9,0.7c1.2,0,2.1-0.4,2.8-1.3l1.5,1.7c-0.5,0.7-1.1,1.2-1.9,1.5C-364.6,514.2-365.4,514.4-366.4,514.4z M-366.8,504.8
			c-0.6,0-1.1,0.2-1.5,0.6c-0.4,0.4-0.6,1-0.7,1.8h4.3V507c0-0.7-0.2-1.2-0.6-1.6C-365.6,505-366.1,504.8-366.8,504.8z"/>
		<path class="st5" d="M-356.2,499.7v2.9h2v2.3h-2v5.8c0,0.4,0.1,0.7,0.2,0.9c0.2,0.2,0.5,0.3,0.9,0.3c0.3,0,0.6,0,0.9-0.1v2.4
			c-0.6,0.2-1.2,0.3-1.9,0.3c-2.2,0-3.3-1.1-3.3-3.3v-6.3h-1.7v-2.3h1.7v-2.9H-356.2z"/>
		<path class="st5" d="M-345.5,513c-0.8,0.9-1.8,1.4-3.2,1.4c-1.2,0-2.2-0.4-2.9-1.1s-1-1.8-1-3.1v-7.6h3.1v7.5
			c0,1.2,0.6,1.8,1.7,1.8c1.1,0,1.8-0.4,2.2-1.1v-8.2h3.1v11.6h-2.9L-345.5,513z"/>
		<path class="st5" d="M-329.7,508.5c0,1.8-0.4,3.2-1.2,4.3c-0.8,1.1-1.9,1.6-3.3,1.6c-1.2,0-2.1-0.4-2.8-1.2v5.5h-3.1v-16.1h2.9
			l0.1,1.1c0.8-0.9,1.7-1.4,2.9-1.4c1.4,0,2.5,0.5,3.3,1.6s1.2,2.5,1.2,4.4V508.5z M-332.8,508.3c0-1.1-0.2-1.9-0.6-2.5
			c-0.4-0.6-0.9-0.9-1.7-0.9c-1,0-1.6,0.4-2,1.1v4.8c0.4,0.8,1.1,1.1,2,1.1C-333.5,511.9-332.8,510.7-332.8,508.3z"/>
	</g>
</g>
</svg>
