<?xml version="1.0" encoding="utf-8"?>
<!-- Generator: Adobe Illustrator 25.2.3, SVG Export Plug-In . SVG Version: 6.00 Build 0)  -->
<svg version="1.1" id="Capa_1" xmlns="http://www.w3.org/2000/svg" xmlns:xlink="http://www.w3.org/1999/xlink" x="0px" y="0px"
	 viewBox="0 0 198.6 213.5" style="enable-background:new 0 0 198.6 213.5;" xml:space="preserve">
<style type="text/css">
	.st0{fill:#12263F;}
	.st1{fill:url(#Trazado_81271_1_);}
	.st2{fill:url(#Trazado_81272_1_);}
	.st3{fill:url(#Trazado_81273_1_);}
	.st4{fill:#FFFFFF;}
	.st5{fill:#00223D;}
	.st6{fill:#21587B;}
	.st7{clip-path:url(#SVGID_2_);}
	.st8{fill:url(#Trazado_81286_1_);}
	.st9{fill:#37A3A5;}
	.st10{fill:#A9EBFF;}
	.st11{fill:url(#Trazado_81291_1_);}
	.st12{fill:url(#Trazado_81296_1_);}
	.st13{opacity:0.2;fill:#FFFFFF;enable-background:new    ;}
	.st14{opacity:0.4;fill:#FFFFFF;enable-background:new    ;}
	.st15{opacity:0.8;fill:#FFFFFF;enable-background:new    ;}
	.st16{fill:url(#Trazado_81310_1_);}
	.st17{fill:url(#Trazado_81311_1_);}
	.st18{fill:url(#Trazado_81312_1_);}
</style>
<g id="Grupo_56643" transform="translate(-356.333 -447.227)">
	<path id="Trazado_1035" class="st0" d="M546.6,507.3c5.1-46.7-40.2-63-72.3-51c-32.4,12.1-39.9-7.9-85.4-2.2
		c-46.1,5.8-22.7,78.1-22.7,78.1s7.3,62.9,16,91.9c8.6,28.8,91.4,18.4,111.5,17.5c20-0.9,37.4,0.8,54.8-30.9
		C565.9,579.2,541.5,553.9,546.6,507.3z"/>
	<g id="Grupo_33069" transform="translate(356.333 447.227)">
		<g id="Grupo_33052" transform="translate(71.93 35.969)">
			<g id="Grupo_33046">
				
					<linearGradient id="Trazado_81271_1_" gradientUnits="userSpaceOnUse" x1="-679.4268" y1="451.4791" x2="-680.2178" y2="452.5381" gradientTransform="matrix(120.131 0 0 -69.35 81626.0938 31349.752)">
					<stop  offset="0" style="stop-color:#FFFFFF"/>
					<stop  offset="1" style="stop-color:#D2E6EE"/>
				</linearGradient>
				<path id="Trazado_81271" class="st1" d="M6.3,69.4l-66.9-38.6L-7.5,0l66.9,38.6L6.3,69.4z"/>
				
					<linearGradient id="Trazado_81272_1_" gradientUnits="userSpaceOnUse" x1="-674.1981" y1="451.7064" x2="-673.1981" y2="451.7064" gradientTransform="matrix(53.192 0 0 -72.165 35868.25 32672.1094)">
					<stop  offset="0" style="stop-color:#FFFFFF"/>
					<stop  offset="1" style="stop-color:#D2E6EE"/>
				</linearGradient>
				<path id="Trazado_81272" class="st2" d="M59.5,80.1V38.6L6.3,69.4v41.5L59.5,80.1z"/>
				
					<linearGradient id="Trazado_81273_1_" gradientUnits="userSpaceOnUse" x1="-676.3293" y1="452.0852" x2="-675.3293" y2="452.0852" gradientTransform="matrix(66.939 0 0 -80.097 45212.1562 36281.4336)">
					<stop  offset="0" style="stop-color:#FFFFFF"/>
					<stop  offset="1" style="stop-color:#D2E6EE"/>
				</linearGradient>
				<path id="Trazado_81273" class="st3" d="M-60.6,30.7v41.5l66.9,38.6V69.4L-60.6,30.7z"/>
			</g>
			<g id="Grupo_33051" transform="translate(12.181 21.015)">
				<g id="Grupo_33047">
					<path id="Trazado_81274" class="st4" d="M-31.7,0l-29,16.7v9l8.6,5v-9l29-16.7L-31.7,0z"/>
					<path id="Trazado_81275" class="st4" d="M-13.3,10.6l-29,16.7v9l8.6,5v-9l29-16.7L-13.3,10.6z"/>
					<path id="Trazado_81276" class="st4" d="M5.2,21.3l-29,16.7v9l8.6,5v-9l29-16.7L5.2,21.3z"/>
				</g>
				<g id="Grupo_33048">
					<path id="Trazado_81277" class="st5" d="M-31.7,0v3.6l5.5,3.1l3.1-1.8L-31.7,0z"/>
					<path id="Trazado_81278" class="st5" d="M-57.5,23.8l-3.1,1.9l8.6,5v-3.7L-57.5,23.8z"/>
					<path id="Trazado_81279" class="st6" d="M-31.7,0l-29,16.7v9l3.1-1.9v-5.3l25.9-14.9L-31.7,0z"/>
				</g>
				<g id="Grupo_33049" transform="translate(18.408 10.623)">
					<path id="Trazado_81280" class="st5" d="M-31.7,0v3.6l5.5,3.1l3.1-1.8L-31.7,0z"/>
					<path id="Trazado_81281" class="st5" d="M-57.5,23.8l-3.1,1.9l8.6,5v-3.7L-57.5,23.8z"/>
					<path id="Trazado_81282" class="st6" d="M-31.7,0l-29,16.7v9l3.1-1.9v-5.3l25.9-14.9L-31.7,0z"/>
				</g>
				<g id="Grupo_33050" transform="translate(36.837 21.26)">
					<path id="Trazado_81283" class="st5" d="M-31.7,0v3.6l5.5,3.1l3.1-1.8L-31.7,0z"/>
					<path id="Trazado_81284" class="st5" d="M-57.5,23.8l-3.1,1.9l8.6,5v-3.7L-57.5,23.8z"/>
					<path id="Trazado_81285" class="st6" d="M-31.7,0l-29,16.7v9l3.1-1.9v-5.3l25.9-14.9L-31.7,0z"/>
				</g>
			</g>
		</g>
		<g id="Grupo_33060" transform="translate(0 0)">
			<g>
				<defs>
					<path id="SVGID_1_" d="M-2.5,15.7l-54.1,95.8c-7.9,14-3.7,31.8,9.6,40.8l82.9,56c7.1,4.8,15.9,6.4,24.2,4.5l112.5-26.1
						c14-3.2,23.9-15.7,23.9-30l0.2-94.5c0-14.5-10.1-27.1-24.2-30.2L31,0.7C17.8-2.2,4.2,3.9-2.5,15.7z"/>
				</defs>
				<clipPath id="SVGID_2_">
					<use xlink:href="#SVGID_1_"  style="overflow:visible;"/>
				</clipPath>
				<g id="Grupo_33059" class="st7">
					<g id="Grupo_33058" transform="translate(147.308 94.324)">
						<g id="Grupo_33054">
							<g id="Grupo_33053">
								
									<linearGradient id="Trazado_81286_1_" gradientUnits="userSpaceOnUse" x1="-788.2143" y1="419.5133" x2="-786.9593" y2="418.6663" gradientTransform="matrix(34.9 0 0 -35.622 25944.625 13910.1641)">
									<stop  offset="0" style="stop-color:#FFFFFF"/>
									<stop  offset="1" style="stop-color:#D2E6EE"/>
								</linearGradient>
								<path id="Trazado_81286" class="st8" d="M-25.8,55.8L9.1,35.6V20.1l-34.9,20.1V55.8z"/>
								<path id="Trazado_81287" class="st9" d="M-25.8,40.3L9.1,20.1L-25.7,0l-34.9,20.1L-25.8,40.3z"/>
								<path id="Trazado_81288" class="st4" d="M-25.8,33l22.3-12.9L-25.7,7.3L-48,20.2L-25.8,33z"/>
								<path id="Trazado_81289" class="st5" d="M-25.7,9.6l20.3,11.7l2-1.2L-25.7,7.3L-48,20.2l2,1.2L-25.7,9.6z"/>
								<path id="Trazado_81290" class="st10" d="M-25.7,0.8L8.5,20.5l0.7-0.4L-25.8,0l-34.9,20.1l0.7,0.4L-25.7,0.8z"/>
								
									<linearGradient id="Trazado_81291_1_" gradientUnits="userSpaceOnUse" x1="-801.3" y1="406.4821" x2="-799.9611" y2="406.0861" gradientTransform="matrix(34.895 0 0 -35.622 25905.9258 13910.1641)">
									<stop  offset="0" style="stop-color:#FFFFFF"/>
									<stop  offset="1" style="stop-color:#D2E6EE"/>
								</linearGradient>
								<path id="Trazado_81291" class="st11" d="M-60.6,35.6l34.9,20.1V40.3l-34.9-20.1V35.6z"/>
							</g>
							<path id="Trazado_81292" class="st5" d="M-25.8,39.5L8.5,19.8l0.7,0.4l-34.9,20.1l-34.9-20.1l0.7-0.4L-25.8,39.5z"/>
						</g>
						<path id="Trazado_81293" class="st4" d="M-19,43L1.2,31.2l17.1,13.7l1.4,11.8v10.7l60.6,36.9l16.8,9.9l-2.6,7.7l-11.7,4.7
							l-16.2-4.8L45,107.4L9.1,87.5l-10-7.7l-0.6-16.4l-1.3-9.9L-19,43z"/>
						<g id="Grupo_33055" transform="translate(40.585 11.876)">
							<path id="Trazado_81294" class="st4" d="M41.4,117.4c10.7,0,19.4-8.7,19.4-19.4V2.6c0-1.5-1.2-2.6-2.6-2.6
								c-1.5,0-2.6,1.2-2.6,2.6l0,0V98c0,7.8-6.3,14.1-14.1,14.1c-2.5,0-4.9-0.7-7-1.9l-68.6-39.6c-3.1-1.8-5-5.1-5-8.6V49.9
								c0-5.5-2.9-10.5-7.6-13.2l-9.8-5.7c-1.3-0.7-2.9-0.3-3.6,1s-0.3,2.9,1,3.6l9.8,5.7c3.1,1.8,5,5.1,5,8.6V62
								c0,5.5,2.9,10.5,7.6,13.2l68.6,39.6C34.7,116.5,38,117.4,41.4,117.4z"/>
						</g>
						<path id="Trazado_81295" class="st4" d="M0.2,32.2c0.7-1.3,2.4-1.7,3.6-1l9.8,5.7c4.7,2.7,7.6,7.8,7.6,13.2v12.1
							c0,3.6,1.9,6.9,5,8.6l72.4,41.8c1.8,1,3.7,1.6,5.8,1.8c-0.2,1.8-0.1,3.5-0.3,5.3c-2.9-0.2-5.6-1.1-8.1-2.6L23.7,75.5
							c-4.7-2.7-7.6-7.8-7.6-13.2V50.1c0-3.6-1.9-6.9-5-8.6l-9.8-5.7C-0.1,35.1-0.5,33.5,0.2,32.2C0.2,32.2,0.2,32.2,0.2,32.2z"/>
						
							<linearGradient id="Trazado_81296_1_" gradientUnits="userSpaceOnUse" x1="-814.3888" y1="394.6977" x2="-812.7198" y2="394.6977" gradientTransform="matrix(35.4943 0 0 -111.365 26511.6543 44027.5508)">
							<stop  offset="0" style="stop-color:#3A9BD5"/>
							<stop  offset="1" style="stop-color:#2573BA"/>
						</linearGradient>
						<path id="Trazado_81296" class="st12" d="M89.6,127.7l8-10.1l1.1-11.9V76.9l-0.1-51.6l21.1,3.6V19c0-1.5,1.2-2.6,2.6-2.6
							c1.5,0,2.6,1.2,2.6,2.6v81.5c0,6.9-3.7,13.4-9.7,16.8c-1.1,0.6-2.2,1.1-3.4,1.5l0,0L89.6,127.7z"/>
						<g id="Grupo_33056" transform="translate(40.585 11.876)">
							<path id="Trazado_81297" class="st9" d="M41.4,117.4c10.7,0,19.4-8.7,19.4-19.4V2.6c0-1.5-1.2-2.6-2.6-2.6
								c-1.5,0-2.6,1.2-2.6,2.6l0,0V98c0,7.8-6.3,14.1-14.1,14.1c-2.5,0-4.9-0.7-7-1.9l-68.6-39.6c-3.1-1.8-5-5.1-5-8.6V49.9
								c0-5.5-2.9-10.5-7.6-13.2l-9.8-5.7c-1.3-0.7-2.9-0.3-3.6,1s-0.3,2.9,1,3.6l9.8,5.7c3.1,1.8,5,5.1,5,8.6V62
								c0,5.5,2.9,10.5,7.6,13.2l68.6,39.6C34.7,116.5,38,117.4,41.4,117.4z"/>
						</g>
						<g id="Grupo_33057" transform="translate(3.802 27.492)">
							<path id="Trazado_81298" class="st13" d="M-36.9,20.9l3.6,2.1v-7.2l-3.6-2.1V20.9z"/>
							<path id="Trazado_81299" class="st14" d="M-42.8,17.4l3.6,2.1v-7.2l-3.6-2.1V17.4z"/>
							<path id="Trazado_81300" class="st15" d="M-48.8,14l3.6,2.1V8.9l-3.6-2.1V14z"/>
							<path id="Trazado_81301" class="st4" d="M-54.7,10.6l3.6,2.1V5.5l-3.6-2.1V10.6z"/>
							<path id="Trazado_81302" class="st4" d="M-60.6,7.2l3.6,2.1V2.1L-60.6,0V7.2z"/>
						</g>
					</g>
				</g>
			</g>
		</g>
		<g id="Grupo_33061" transform="translate(86.966 98.271)">
			<path id="Trazado_81304" class="st4" d="M-33.2,18.5c0.1,2.7,1.5,5.1,3.8,6.5c2.1,1.2,3.8,0.2,3.8-2.2c-0.1-2.7-1.5-5.1-3.8-6.5
				C-31.5,15.2-33.2,16.1-33.2,18.5z"/>
			
				<ellipse id="Elipse_3404" transform="matrix(0.866 -0.5 0.5 0.866 -12.1762 -19.865)" class="st4" cx="-43.2" cy="12.8" rx="3.1" ry="5.3"/>
			<path id="Trazado_81305" class="st4" d="M-60.6,2.7c0.1,2.7,1.5,5.1,3.8,6.5c2.1,1.2,3.8,0.2,3.8-2.2c-0.1-2.7-1.5-5.1-3.8-6.5
				C-59-0.7-60.6,0.3-60.6,2.7z"/>
			<path id="Trazado_81306" class="st6" d="M-31.3,15.9c-0.2,0.5-0.3,1-0.3,1.5c0.1,2.7,1.5,5.1,3.8,6.5c0.6,0.3,1.2,0.5,1.9,0.5
				c-0.6,1.3-1.9,1.6-3.5,0.7c-2.2-1.5-3.6-3.9-3.8-6.5C-33.2,16.9-32.4,16-31.3,15.9z"/>
			<path id="Trazado_81307" class="st6" d="M-45,8c-0.2,0.5-0.3,1-0.3,1.5c0.1,2.7,1.5,5.1,3.8,6.5c0.6,0.3,1.2,0.5,1.9,0.5
				c-0.6,1.3-1.9,1.6-3.5,0.7c-2.2-1.4-3.6-3.9-3.8-6.5C-46.9,9-46.1,8-45,8z"/>
			<path id="Trazado_81308" class="st6" d="M-58.7,0C-58.9,0.5-59,1-59,1.5c0.1,2.7,1.5,5.1,3.8,6.5c0.6,0.3,1.2,0.5,1.9,0.5
				c-0.6,1.3-1.9,1.6-3.5,0.7c-2.2-1.5-3.6-3.9-3.8-6.5C-60.6,1.1-59.9,0.1-58.7,0z"/>
		</g>
		<g id="Grupo_33068" transform="translate(172.157 2.863)">
			<g id="Grupo_33062">
				
					<linearGradient id="Trazado_81310_1_" gradientUnits="userSpaceOnUse" x1="-774.3738" y1="480.0123" x2="-775.1648" y2="481.0713" gradientTransform="matrix(55.899 0 0 -32.271 43257.0469 15508.9404)">
					<stop  offset="0" style="stop-color:#FFFFFF"/>
					<stop  offset="1" style="stop-color:#D2E6EE"/>
				</linearGradient>
				<path id="Trazado_81310" class="st16" d="M-29.5,32.3l-31.1-18L-35.9,0l31.1,18L-29.5,32.3z"/>
				
					<linearGradient id="Trazado_81311_1_" gradientUnits="userSpaceOnUse" x1="-762.5005" y1="480.4178" x2="-761.5005" y2="480.4178" gradientTransform="matrix(24.751 0 0 -33.58 18843.1562 16167.1953)">
					<stop  offset="0" style="stop-color:#FFFFFF"/>
					<stop  offset="1" style="stop-color:#D2E6EE"/>
				</linearGradient>
				<path id="Trazado_81311" class="st17" d="M-4.7,37.3V18l-24.8,14.3v19.3L-4.7,37.3z"/>
				
					<linearGradient id="Trazado_81312_1_" gradientUnits="userSpaceOnUse" x1="-767.0807" y1="481.2318" x2="-766.0807" y2="481.2318" gradientTransform="matrix(31.148 0 0 -37.271 23832.3945 17968.9141)">
					<stop  offset="0" style="stop-color:#FFFFFF"/>
					<stop  offset="1" style="stop-color:#D2E6EE"/>
				</linearGradient>
				<path id="Trazado_81312" class="st18" d="M-60.6,14.3v19.3l31.1,18V32.3L-60.6,14.3z"/>
			</g>
			<g id="Grupo_33067" transform="translate(5.668 9.778)">
				<g id="Grupo_33063">
					<path id="Trazado_81313" class="st4" d="M-47.2,0l-13.5,7.8V12l4,2.3v-4.2l13.5-7.8L-47.2,0z"/>
					<path id="Trazado_81314" class="st4" d="M-38.6,4.9l-13.5,7.8v4.2l4,2.3V15l13.5-7.8L-38.6,4.9z"/>
					<path id="Trazado_81315" class="st4" d="M-30,9.9l-13.5,7.8v4.2l4,2.3V20l13.5-7.8L-30,9.9z"/>
				</g>
				<g id="Grupo_33064">
					<path id="Trazado_81316" class="st6" d="M-47.2,0v1.7l2.6,1.5l1.4-0.8L-47.2,0z"/>
					<path id="Trazado_81317" class="st6" d="M-59.2,11.1l-1.5,0.9l4,2.3v-1.7L-59.2,11.1z"/>
					<path id="Trazado_81318" class="st5" d="M-47.2,0l-13.5,7.8V12l1.5-0.9V8.6l12-7L-47.2,0z"/>
				</g>
				<g id="Grupo_33065" transform="translate(8.566 4.943)">
					<path id="Trazado_81319" class="st6" d="M-47.2,0v1.7l2.6,1.5l1.4-0.8L-47.2,0z"/>
					<path id="Trazado_81320" class="st6" d="M-59.2,11.1l-1.5,0.9l4,2.3v-1.7L-59.2,11.1z"/>
					<path id="Trazado_81321" class="st5" d="M-47.2,0l-13.5,7.8V12l1.5-0.9V8.6l12-7L-47.2,0z"/>
				</g>
				<g id="Grupo_33066" transform="translate(17.141 9.893)">
					<path id="Trazado_81322" class="st6" d="M-47.2,0v1.7l2.6,1.5l1.4-0.8L-47.2,0z"/>
					<path id="Trazado_81323" class="st6" d="M-59.2,11.1l-1.5,0.9l4,2.3v-1.7L-59.2,11.1z"/>
					<path id="Trazado_81324" class="st5" d="M-47.2,0l-13.5,7.8V12l1.5-0.9V8.6l12-7L-47.2,0z"/>
				</g>
			</g>
		</g>
	</g>
</g>
</svg>
