<?xml version="1.0" encoding="utf-8"?>
<!-- Generator: Adobe Illustrator 25.2.3, SVG Export Plug-In . SVG Version: 6.00 Build 0)  -->
<svg version="1.1" id="Capa_1" xmlns="http://www.w3.org/2000/svg" xmlns:xlink="http://www.w3.org/1999/xlink" x="0px" y="0px"
	 viewBox="0 0 622.3 147.9" style="enable-background:new 0 0 622.3 147.9;" xml:space="preserve">
<style type="text/css">
	.st0{fill:none;stroke:#12263F;stroke-width:4;stroke-miterlimit:10;}
	.st1{fill:#091C30;}
	.st2{enable-background:new    ;}
	.st3{fill:#37A3A5;}
</style>
<g id="Grupo_56653" transform="translate(-355.468 -1378.03)">
	<line id="Línea_1642" class="st0" x1="490.8" y1="1425.3" x2="560.5" y2="1425.3"/>
	<line id="Línea_1643" class="st0" x1="624.8" y1="1425.3" x2="694.5" y2="1425.3"/>
	<g id="Grupo_56652" transform="translate(431.595 1397.058)">
		<path id="Path_122972" class="st1" d="M61.3,28.4v22.2c0.1,0.6-0.3,1.1-0.8,1.2c-0.1,0-0.2,0-0.3,0c-2.9,0-5.7,0-8.6,0H32.3
			c-3.7,0-7.5,0-11.2,0c-0.2,0-0.4,0.1-0.5,0.3c-1.9,4.1-6.8,5.8-10.9,3.9c-1.2-0.6-2.2-1.4-3-2.4c-0.3-0.5-0.7-1-0.9-1.5
			c-0.1-0.2-0.2-0.3-0.4-0.2c-1.4,0-2.9,0-4.3,0c-0.6,0.1-1.1-0.3-1.1-0.9c0,0,0,0,0,0c0-0.1,0-0.2,0-0.3V6.2
			c-0.1-0.6,0.3-1.1,0.9-1.2c0,0,0,0,0,0c0.1,0,0.2,0,0.3,0c1.4,0,2.8,0,4.2,0c0.2,0,0.3-0.1,0.4-0.3C7,2.1,9.5,0.3,12.5,0
			c3.3-0.3,6.4,1.3,8,4.2c0.1,0.1,0.1,0.2,0.2,0.3C20.7,5,21,5.1,21.4,5.1c3.4,0,6.7,0,10.1,0H60c0.8,0,1.2,0.4,1.2,1.2
			c0,4.4,0,8.8,0,13.2C61.2,22.5,61.2,25.4,61.3,28.4L61.3,28.4z M59.2,49.7V7.1H21.4v42.6L59.2,49.7z M7.1,28.3L7.1,28.3l0,2.5
			c0,3.2,0,6.4,0,9.6c0,2.6,0,5.1,0,7.7c-0.1,1.3,0.3,2.5,0.9,3.6c1.2,2,3.5,3.1,5.8,2.8c3.2-0.3,5.6-3,5.6-6.2v-40
			c0-0.4,0-0.8-0.1-1.2c-0.5-3.2-3.3-5.5-6.5-5.2c-2.3,0.1-4.4,1.5-5.3,3.6c-0.4,1-0.6,2-0.5,3C7.1,15.2,7.1,21.8,7.1,28.3L7.1,28.3
			z M5.1,49.7V7.1H2.5C2,7.1,2,7.1,2,7.5v42.2L5.1,49.7z"/>
		<path id="Path_122973" class="st1" d="M44.9,22.4h-10c-0.6,0.1-1.1-0.3-1.1-0.9c0-0.1,0-0.2,0-0.2c0-3.3,0-6.6,0-10
			c-0.1-0.5,0.3-1,0.9-1.1c0,0,0,0,0,0c0.1,0,0.1,0,0.2,0c4.6,0,9.3,0,13.9,0c2.1,0,4.1,0,6.2,0c0.6-0.1,1.1,0.3,1.2,0.9
			c0,0.1,0,0.2,0,0.3v9.8c0.1,0.6-0.3,1.1-0.9,1.2c-0.1,0-0.2,0-0.3,0c-3,0-5.9,0-8.9,0L44.9,22.4L44.9,22.4z M35.8,20.3h6.8
			c3.7,0,7.4,0,11.1,0c0.3,0,0.3-0.1,0.3-0.3c0-2.5,0-5,0-7.5c0-0.2-0.1-0.3-0.3-0.3c-2.4,0-4.8,0-7.2,0H35.8L35.8,20.3z"/>
		<path id="Path_122974" class="st1" d="M49.9,27.5c0-0.4,0-0.7,0.1-1.1c0.2-1.1,1.1-2,2.3-2c0.6,0,1.1,0,1.7,0c1.2,0,2.2,1,2.3,2.2
			c0.1,0.6,0.1,1.2,0,1.8c-0.1,1.2-1,2.1-2.2,2.2c-0.6,0.1-1.3,0-1.9,0c-1.2-0.1-2.1-1.2-2.1-2.4C49.9,27.9,49.9,27.7,49.9,27.5
			L49.9,27.5z M53,28.6L53,28.6c0.2,0,0.5,0,0.7,0c0.2,0,0.4-0.2,0.5-0.4c0,0,0,0,0,0c0,0,0,0,0-0.1c0-0.4,0-0.8,0-1.2
			c0-0.2-0.2-0.5-0.4-0.5c0,0-0.1,0-0.1,0c-0.4,0-0.8,0-1.2,0c-0.3,0-0.5,0.2-0.5,0.5c0,0.4,0,0.8,0,1.2c0,0.3,0.2,0.5,0.4,0.5
			c0,0,0.1,0,0.1,0L53,28.6L53,28.6z"/>
		<path id="Path_122975" class="st1" d="M33.6,27.5c0-0.4,0-0.8,0.1-1.2c0.2-1,1.1-1.8,2.1-1.9c0.6,0,1.2,0,1.8,0
			c1.3,0.1,2.3,1.2,2.3,2.4c0,0.4,0,0.8,0,1.3c0.1,1.3-0.9,2.4-2.1,2.5c-0.8,0.1-1.6,0.1-2.4-0.1c-1-0.2-1.7-1.1-1.7-2.2
			C33.6,28,33.6,27.7,33.6,27.5L33.6,27.5z M36.8,26.4L36.8,26.4c-0.2,0-0.5,0-0.7,0c-0.2,0-0.4,0.1-0.4,0.4c0,0,0,0.1,0,0.1
			c0,0.4,0,0.9,0,1.3c0,0.2,0.2,0.4,0.4,0.4c0,0,0,0,0,0c0,0,0,0,0,0c0.5,0,0.9,0,1.4,0c0.2,0,0.4-0.2,0.4-0.4c0,0,0,0,0,0
			c0,0,0,0,0,0c0-0.5,0-0.9,0-1.4c0-0.2-0.1-0.4-0.3-0.4h-0.1C37.2,26.4,37,26.4,36.8,26.4L36.8,26.4z"/>
		<path id="Path_122976" class="st1" d="M48,27.5c0,0.3,0,0.7,0,1c-0.1,1.1-1.1,2-2.2,2.1c-0.6,0.1-1.3,0-2,0
			c-1.1-0.1-2-1.1-2.1-2.2c0-0.6,0-1.1,0-1.7c0.1-1.2,1.1-2.2,2.3-2.2c0.6,0,1.2,0,1.8,0c1.2,0.1,2.1,1.1,2.1,2.3
			C48,26.9,48,27.2,48,27.5L48,27.5z M44.9,26.4L44.9,26.4h-0.6c0,0,0,0-0.1,0c-0.3,0-0.5,0.1-0.5,0.5c0,0.4,0,0.8,0,1.3
			c0,0.2,0.1,0.4,0.4,0.5c0,0,0,0,0.1,0c0.5,0,0.9,0,1.4,0c0.2,0,0.4-0.2,0.4-0.4c0,0,0,0,0,0c0-0.5,0-0.9,0-1.4
			c0-0.2-0.2-0.4-0.4-0.4c0,0,0,0,0,0c0,0,0,0-0.1,0C45.4,26.4,45.1,26.4,44.9,26.4L44.9,26.4z"/>
		<path id="Path_122977" class="st1" d="M53,46.8c-0.5,0-0.9-0.1-1.4-0.2c-0.9-0.2-1.6-1-1.7-2c-0.1-0.7-0.1-1.4,0-2.1
			c0.1-1.1,1-1.9,2.1-2c0.6-0.1,1.3-0.1,1.9,0c1.2,0.1,2.1,1.1,2.1,2.2c0.1,0.6,0,1.3,0,1.9c-0.1,1.2-1.2,2.1-2.4,2.1L53,46.8
			L53,46.8z M53,44.8c0.2,0,0.5,0,0.7,0c0.2,0,0.4-0.2,0.5-0.4c0,0,0,0,0-0.1c0-0.4,0-0.8,0-1.3c0-0.2-0.2-0.4-0.4-0.5h-0.1
			c-0.4,0-0.9,0-1.3,0c-0.2,0-0.4,0.2-0.5,0.4c0,0,0,0,0,0c0,0.4,0,0.9,0,1.3c0,0.2,0.2,0.4,0.4,0.5c0,0,0.1,0,0.1,0
			C52.6,44.8,52.8,44.8,53,44.8L53,44.8z"/>
		<path id="Path_122978" class="st1" d="M36.7,38.7c-0.4,0-0.9-0.1-1.3-0.1c-1-0.3-1.8-1.2-1.8-2.2c0-0.5,0-1,0-1.5
			c0-1.3,1.1-2.4,2.4-2.4h0c0.6,0,1.2,0,1.8,0.1c1.1,0.2,1.9,1,2,2.1c0,0.6,0,1.3,0,1.9c-0.1,1.2-1.1,2.1-2.2,2.1
			C37.3,38.7,37,38.7,36.7,38.7L36.7,38.7z M36.7,36.7h0.6c0.3,0,0.5-0.2,0.5-0.5c0-0.4,0-0.8,0-1.2c0-0.4-0.1-0.5-0.5-0.5
			c-0.4,0-0.8,0-1.2,0c-0.2,0-0.4,0.1-0.5,0.4c0,0,0,0,0,0.1c0,0.4,0,0.9,0,1.3c0,0.2,0.1,0.4,0.4,0.4c0,0,0,0,0,0c0,0,0,0,0.1,0
			C36.3,36.7,36.5,36.7,36.7,36.7L36.7,36.7z"/>
		<path id="Path_122979" class="st1" d="M44.8,46.8c-0.6,0.1-1.3,0-1.8-0.4c-0.7-0.4-1.1-1.1-1.2-1.9c0-0.5,0-1,0-1.6
			c0-1.2,0.9-2.2,2.1-2.3c0.7-0.1,1.4-0.1,2.1,0c1.1,0.2,2,1.1,2,2.3c0,0.5,0,1.1,0,1.6c-0.1,1.2-1.1,2.2-2.3,2.3
			C45.4,46.8,45.2,46.8,44.8,46.8z M46,43.7c0-0.2,0-0.4,0-0.6c0-0.2-0.2-0.4-0.4-0.5c0,0,0,0,0,0c0,0,0,0-0.1,0c-0.4,0-0.9,0-1.3,0
			c-0.2,0-0.4,0.1-0.5,0.4c0,0,0,0,0,0c0,0,0,0,0,0.1c0,0.4,0,0.9,0,1.3c0,0.2,0.1,0.4,0.4,0.4c0,0,0,0,0.1,0c0.5,0,0.9,0,1.4,0
			c0.2,0,0.4-0.2,0.4-0.4c0,0,0,0,0-0.1C46,44.1,46,43.9,46,43.7z"/>
		<path id="Path_122980" class="st1" d="M53,38.7c-0.6,0.1-1.2,0-1.8-0.2c-0.7-0.3-1.2-1-1.3-1.8c-0.1-0.7-0.1-1.4,0-2.1
			c0.2-1.2,1.2-2,2.3-2c0.5,0,0.9,0,1.4,0c1.3-0.1,2.4,1,2.5,2.3c0.1,0.6,0,1.3,0,1.9c-0.1,1.2-1.1,2-2.3,2.1
			C53.6,38.7,53.3,38.7,53,38.7z M53,36.7h0.7c0.3,0,0.5-0.1,0.5-0.5c0-0.4,0-0.8,0-1.3c0-0.2-0.2-0.4-0.4-0.5c0,0,0,0-0.1,0
			c-0.4,0-0.9,0-1.3,0c-0.2,0-0.4,0.2-0.5,0.4c0,0,0,0,0,0c0,0,0,0,0,0.1c0,0.4,0,0.8,0,1.3c0,0.2,0.2,0.4,0.4,0.5c0,0,0,0,0,0
			c0,0,0,0,0.1,0C52.6,36.7,52.8,36.7,53,36.7L53,36.7z"/>
		<path id="Path_122981" class="st1" d="M36.7,46.9c-0.6,0-1.1-0.1-1.6-0.3c-0.9-0.3-1.5-1.2-1.4-2.1c0-0.7,0-1.3,0.1-2
			c0.2-1,1-1.8,2.1-1.9c0.7-0.1,1.4-0.1,2.1,0c1.2,0.2,2,1.1,2,2.3c0,0.5,0,1,0,1.5c0,1.3-1.1,2.4-2.4,2.4L36.7,46.9L36.7,46.9z
			 M37.8,43.7L37.8,43.7V43c0-0.2-0.1-0.4-0.4-0.4c0,0,0,0,0,0c0,0,0,0-0.1,0c-0.5,0-0.9,0-1.4,0c-0.2,0-0.4,0.2-0.4,0.4v0
			c0,0.4,0,0.9,0,1.3c0,0.2,0.1,0.4,0.4,0.4c0,0,0,0,0,0c0,0,0,0,0.1,0c0.5,0,0.9,0,1.4,0c0.2,0,0.4-0.1,0.4-0.4c0,0,0,0,0-0.1
			C37.8,44.1,37.8,43.9,37.8,43.7L37.8,43.7z"/>
		<path id="Path_122982" class="st1" d="M44.9,38.7c-0.6,0.1-1.3,0-1.8-0.3c-0.7-0.4-1.2-1.2-1.3-2c0-0.5,0-1,0-1.5
			c0-1.3,1.1-2.4,2.4-2.4c0.6,0,1.2,0,1.8,0.1c1.2,0.2,2,1.1,2,2.3c0,0.5,0,1,0,1.5c0,1.3-1,2.4-2.3,2.4
			C45.4,38.7,45.1,38.7,44.9,38.7z M46,35.6c0-0.2,0-0.4,0-0.6c0-0.2-0.1-0.4-0.4-0.5c0,0-0.1,0-0.1,0c-0.4,0-0.8,0-1.2,0
			c-0.2,0-0.5,0.1-0.5,0.4c0,0,0,0,0,0c0,0,0,0.1,0,0.1c0,0.4,0,0.7,0,1.1c-0.1,0.5,0.2,0.7,0.6,0.7c0.4,0,0.8,0,1.2,0
			c0.2,0,0.4-0.2,0.4-0.4c0,0,0,0,0-0.1C46,36,46,35.8,46,35.6L46,35.6z"/>
	</g>
	<g class="st2">
		<path class="st1" d="M556.8,1499.2h-3.2v-15.6h3.2V1499.2z"/>
		<path class="st1" d="M562.5,1487.6l0.1,1.3c0.8-1,1.9-1.6,3.3-1.6c1.2,0,2.1,0.4,2.8,1.1s0.9,1.8,0.9,3.2v7.5h-3.1v-7.4
			c0-0.7-0.1-1.1-0.4-1.4c-0.3-0.3-0.8-0.4-1.4-0.4c-0.9,0-1.5,0.4-2,1.1v8.2h-3.1v-11.6H562.5z"/>
		<path class="st1" d="M575.7,1484.7v2.9h2v2.3h-2v5.8c0,0.4,0.1,0.7,0.2,0.9c0.2,0.2,0.5,0.3,0.9,0.3c0.3,0,0.6,0,0.9-0.1v2.4
			c-0.6,0.2-1.2,0.3-1.9,0.3c-2.2,0-3.3-1.1-3.3-3.3v-6.3h-1.7v-2.3h1.7v-2.9H575.7z"/>
		<path class="st1" d="M584.7,1499.4c-1.7,0-3.1-0.5-4.2-1.6c-1.1-1-1.6-2.4-1.6-4.2v-0.3c0-1.2,0.2-2.2,0.7-3.1
			c0.5-0.9,1.1-1.6,1.9-2.1c0.8-0.5,1.8-0.7,2.8-0.7c1.6,0,2.8,0.5,3.8,1.5s1.4,2.4,1.4,4.3v1.3h-7.4c0.1,0.8,0.4,1.4,0.9,1.8
			s1.1,0.7,1.9,0.7c1.2,0,2.1-0.4,2.8-1.3l1.5,1.7c-0.5,0.7-1.1,1.2-1.9,1.5C586.6,1499.2,585.7,1499.4,584.7,1499.4z M584.4,1489.9
			c-0.6,0-1.1,0.2-1.5,0.6c-0.4,0.4-0.6,1-0.7,1.8h4.3v-0.2c0-0.7-0.2-1.2-0.6-1.6C585.5,1490.1,585,1489.9,584.4,1489.9z"/>
		<path class="st1" d="M597.8,1490.5c-0.4-0.1-0.8-0.1-1.1-0.1c-1.2,0-1.9,0.4-2.3,1.2v7.6h-3.1v-11.6h2.9l0.1,1.4
			c0.6-1.1,1.5-1.6,2.6-1.6c0.3,0,0.7,0,1,0.1L597.8,1490.5z"/>
		<path class="st1" d="M602.1,1487.6l0.1,1.3c0.8-1,1.9-1.6,3.3-1.6c1.2,0,2.1,0.4,2.8,1.1s0.9,1.8,0.9,3.2v7.5h-3.1v-7.4
			c0-0.7-0.1-1.1-0.4-1.4c-0.3-0.3-0.8-0.4-1.4-0.4c-0.9,0-1.5,0.4-2,1.1v8.2h-3.1v-11.6H602.1z"/>
		<path class="st1" d="M617,1499.4c-1.7,0-3.1-0.5-4.2-1.6c-1.1-1-1.6-2.4-1.6-4.2v-0.3c0-1.2,0.2-2.2,0.7-3.1
			c0.5-0.9,1.1-1.6,1.9-2.1c0.8-0.5,1.8-0.7,2.8-0.7c1.6,0,2.8,0.5,3.8,1.5s1.4,2.4,1.4,4.3v1.3h-7.4c0.1,0.8,0.4,1.4,0.9,1.8
			s1.1,0.7,1.9,0.7c1.2,0,2.1-0.4,2.8-1.3l1.5,1.7c-0.5,0.7-1.1,1.2-1.9,1.5C618.8,1499.2,617.9,1499.4,617,1499.4z M616.6,1489.9
			c-0.6,0-1.1,0.2-1.5,0.6c-0.4,0.4-0.6,1-0.7,1.8h4.3v-0.2c0-0.7-0.2-1.2-0.6-1.6C617.8,1490.1,617.3,1489.9,616.6,1489.9z"/>
		<path class="st1" d="M627.2,1484.7v2.9h2v2.3h-2v5.8c0,0.4,0.1,0.7,0.2,0.9c0.2,0.2,0.5,0.3,0.9,0.3c0.3,0,0.6,0,0.9-0.1v2.4
			c-0.6,0.2-1.2,0.3-1.9,0.3c-2.2,0-3.3-1.1-3.3-3.3v-6.3h-1.7v-2.3h1.7v-2.9H627.2z"/>
	</g>
	<g id="Group_56632" transform="translate(552.833 1378.03)">
		<path id="Path_122983" class="st1" d="M39.7,91.2c-1.3-0.4-2.6-0.8-3.8-1.4c-4.5-2.7-6-8.5-3.3-13.1c1.1-1.8,2.7-3.2,4.6-4
			c3.4-1.5,7.3-0.8,10,1.7c0.2,0.2,0.5,0.4,0.8,0.7l14.9-8.6c-0.6-1.8-0.6-3.7-0.2-5.5c0-0.2-0.1-0.4-0.3-0.6
			c-1.4-0.8-2.8-1.6-4.2-2.4c-7.1,9.6-20.6,11.6-30.2,4.6c-1.8-1.3-3.4-2.9-4.7-4.7c-1.4,0.8-2.8,1.6-4.2,2.4
			c-0.2,0.2-0.2,0.5-0.2,0.7c0.4,1.6,0.4,3.2-0.1,4.8c-0.2,0.6,0.1,0.8,0.5,1c3.2,1.8,6.3,3.6,9.5,5.5c0.3,0.2,0.7,0.4,1.1,0.6
			l-2,3.4L16.7,70c-1.3,1.4-3.1,2.4-5,2.9C6.5,74,1.4,70.8,0.2,65.6c-1.1-4.8,1.7-9.7,6.4-11.2c0.8-0.3,1-0.6,1-1.4
			c0-4.8,0-9.7,0-14.5c0.1-0.5-0.2-1-0.8-1.1l0,0c-5.1-1.5-7.9-6.8-6.4-11.9c1-3.4,3.8-5.9,7.2-6.6c2.8-0.7,5.8,0.1,8,1.9
			c0.2,0.2,0.5,0.4,0.7,0.6l7-4c2.5-1.5,5.1-3,7.6-4.4c0.4-0.2,0.7-0.7,0.5-1.1l0,0c-1.2-5.1,1.9-10.3,7-11.5c0.2,0,0.3-0.1,0.5-0.1
			c5.2-1,10.2,2.4,11.2,7.6c0,0,0,0,0,0c0.1,0.3,0.1,0.6,0.1,0.8c0.1,1.1,0,2.2-0.2,3.3c-0.1,0.5-0.1,0.8,0.4,1.1
			c4.7,2.7,9.5,5.4,14.2,8.2c0.3,0.2,0.7,0.2,1-0.1c2.8-2.6,6.9-3.2,10.3-1.5c4.8,2.2,6.9,7.9,4.6,12.7c-1,2.1-2.7,3.8-4.9,4.8
			c-3.4,1.5-7.3,0.9-10.1-1.6c-0.3-0.2-0.6-0.5-0.9-0.8L60.4,37c1.2,2.8,1.8,5.8,1.8,8.9c-0.1,3-0.7,6-2,8.8l4.6,2.5
			c1.4-1.6,3.2-2.6,5.3-3.1V40.8h4V46c0,2.4,0,4.9,0,7.3c-0.1,0.5,0.2,0.9,0.7,1h0c5.1,1.5,8,6.8,6.5,11.8c-1,3.6-4,6.2-7.7,6.8
			c-2.8,0.5-5.7-0.3-7.8-2.2c-0.3-0.2-0.5-0.5-0.8-0.7c-3.2,1.8-6.3,3.7-9.5,5.5c-1.6,0.9-3.2,1.9-4.9,2.8c-0.4,0.2-0.6,0.6-0.5,1v0
			c1.3,5.1-1.8,10.3-6.9,11.6c0,0,0,0,0,0c-0.3,0.1-0.5,0.1-0.8,0.2c-0.1,0-0.3,0.1-0.4,0.2L39.7,91.2z M22.8,34
			c4.3-6.2,10.2-9.7,17.7-9.8s13.5,3.2,17.9,9.3c1.3-0.7,2.6-1.4,3.9-2.2c0.2-0.2,0.3-0.5,0.3-0.9c-0.4-1.7-0.4-3.4,0.2-5.1
			c0.2-0.3,0-0.8-0.3-1c0,0-0.1,0-0.1,0c-1.5-0.8-3-1.7-4.5-2.6c-3.3-1.9-6.7-3.9-10-5.8c-3.7,4-9.9,4.2-13.9,0.5
			c-0.2-0.2-0.3-0.3-0.5-0.5c-4.9,2.8-9.7,5.6-14.6,8.5c-0.2,0.2-0.3,0.4-0.3,0.7c0.6,2,0.6,4.1,0,6c0,0.2,0,0.5,0.2,0.6
			C20.2,32.6,21.5,33.3,22.8,34L22.8,34z M21,37.6c-1.5-0.8-2.9-1.6-4.3-2.4c-0.2-0.1-0.5,0.1-0.7,0.2c-1.3,0.7-2.5,1.3-3.7,2
			c-0.3,0.1-0.6,0.5-0.6,0.7c0,5.1,0,10.3,0,15.4c0,0.3,0.2,0.5,0.5,0.7c1.7,0.5,3.2,1.4,4.4,2.6c0.2,0.1,0.4,0.2,0.6,0.1
			c1.5-0.8,2.9-1.6,4.3-2.4C18.9,48.3,18.8,43.8,21,37.6L21,37.6z M46.4,45.7c-0.1-1.6-0.2-3.2-0.3-4.9c0-0.2-0.4-0.6-0.6-0.6
			c-3.2,0-6.3,0-9.5,0c-0.3,0.1-0.5,0.3-0.6,0.6c0,3.1,0,6.2,0,9.3c0,0.5,0.2,0.7,0.8,0.7c3.1,0,6.2,0,9.2,0c0.5,0,0.7-0.2,0.8-0.7
			C46.2,48.8,46.3,47.3,46.4,45.7L46.4,45.7z M4,28.2c-3.1,0-5.6-2.5-5.6-5.6c0-3.1,2.5-5.6,5.6-5.6c3.1,0,5.6,2.5,5.6,5.6
			C9.6,25.7,7.1,28.2,4,28.2L4,28.2z M77.6,28.2c0-3.1-2.5-5.6-5.6-5.6c0,0-0.1,0-0.1,0c-3.1,0.1-5.5,2.6-5.5,5.7c0,0,0,0,0,0v0
			c0,3.1,2.6,5.6,5.7,5.5h0C75.1,33.8,77.6,31.2,77.6,28.2L77.6,28.2z M77.6,63.5c0-3.1-2.5-5.6-5.5-5.6h0c-3.1,0-5.6,2.5-5.6,5.6
			c0,3,2.4,5.5,5.5,5.6H72C75.1,69.1,77.6,66.6,77.6,63.5L77.6,63.5z M15.2,63.6c0.1-3.1-2.4-5.6-5.5-5.7c-3.1-0.1-5.6,2.4-5.7,5.5
			C4,66.5,6.4,69,9.4,69.1h0C12.6,69.2,15.1,66.7,15.2,63.6L15.2,63.6z M40.8,4c-3.1-0.1-5.6,2.4-5.6,5.4c0,0,0,0,0,0v0.1
			c0,3.1,2.4,5.6,5.5,5.6c0.1,0,0.1,0,0.2,0c3.1,0,5.5-2.5,5.5-5.5c0,0,0,0,0,0l0,0C46.4,6.6,44,4.1,40.9,4c0,0,0,0,0,0L40.8,4
			L40.8,4z M40.7,87.2c3.1,0,5.6-2.4,5.6-5.5c0,0,0,0,0,0v0c0-3.1-2.5-5.6-5.6-5.6c-3,0-5.5,2.4-5.6,5.4c0,0.1,0,0.1,0,0.2
			C35.2,84.7,37.6,87.2,40.7,87.2L40.7,87.2L40.7,87.2z M50.3,50.1c2.5-0.4,4.8-1.3,6.9-2.8c1.3-1.1,1.4-2.2,0-3.2
			c-1.3-0.8-2.6-1.6-4.1-2.1c-0.9-0.3-1.8-0.6-2.8-0.8L50.3,50.1z M45.3,36.1c-0.4-2.4-1.4-4.7-2.8-6.7c-1.2-1.5-2.4-1.6-3.4,0
			c-0.9,1.7-1.8,3.4-2.5,5.2c-0.2,0.5-0.3,1-0.4,1.5L45.3,36.1z M45.3,55.1h-9.1c0.5,2.5,1.5,4.9,3,6.9c1.1,1.3,2.1,1.2,3.1,0
			C43.9,60,44.9,57.6,45.3,55.1L45.3,55.1z M31.3,50.2v-9.1c-0.6,0.2-1.2,0.3-1.7,0.4c-1.9,0.5-3.7,1.4-5.3,2.6
			c-1.1,1-1.2,1.9,0,2.9C26.3,48.6,28.7,49.7,31.3,50.2L31.3,50.2z M47.5,29.6c0,0.1,0,0.3,0,0.4c0.6,2.1,1.3,4.2,2,6.4
			c0.1,0.3,0.4,0.5,0.7,0.5c2,0.7,4.1,1.3,6.1,1.9c0.1,0,0.3,0.1,0.6,0.1C55.1,34.8,51.7,31.4,47.5,29.6L47.5,29.6z M47.6,61.5
			c3.6-1.1,8.2-5.7,9.1-9.1c-1.7,0.6-3.4,1.1-5.2,1.6c-1.3,0.1-2.3,1.1-2.4,2.3C48.7,58.1,48.2,59.8,47.6,61.5L47.6,61.5z
			 M24.8,38.8c2.3-0.6,4.5-1.3,6.7-1.9c0.3-0.1,0.5-0.4,0.5-0.6c0.5-1.6,0.9-3.2,1.4-4.9c0.2-0.6,0.4-1.1,0.7-1.8
			C30,31.3,26.6,34.6,24.8,38.8L24.8,38.8z M24.8,52.4c1.8,4.1,5,7.4,9.2,9.2c-0.6-2.3-1.3-4.6-1.9-6.8c-0.1-0.2-0.3-0.4-0.5-0.4
			C29.4,53.7,27.1,53.1,24.8,52.4L24.8,52.4z"/>
	</g>
	<g id="Grupo_56654" transform="translate(688.408 1400.805)">
		<g id="RNGu9o">
			<g id="Grupo_56653-2">
				<path id="Trazado_123067" class="st1" d="M35.7,40.8H5.9c-0.8,0-1.2-0.4-1.2-1.2c0-10.1,0-20.3,0-30.4c0-1.5,0-3.1,0.1-4.6
					C5,3,5.9,1.5,7.3,0.8C8.2,0.2,9.1,0,10.1,0c17.1,0,34.1,0,51.2,0c2.1-0.1,4.1,1.2,4.9,3.1c0.3,0.7,0.5,1.4,0.5,2.2
					c0,11.4,0,22.9,0,34.3c0,0.8-0.4,1.1-1.2,1.1C55.6,40.8,45.6,40.8,35.7,40.8L35.7,40.8z M64.7,38.8v-0.7c0-9.5,0-18.9,0-28.4
					c0-1.4,0.1-2.8,0-4.2c0-0.9-0.3-1.8-0.9-2.4C63.2,2.4,62.2,2,61.2,2c-17,0-33.9,0-50.9,0c-0.2,0-0.4,0-0.6,0
					c-1.6,0.1-2.9,1.4-3,3c-0.1,1.6,0,3.3,0,4.9v28.8H64.7z"/>
				<path id="Trazado_123068" class="st1" d="M42.7,45.1c0-1.2,1-2.1,2.1-2.1c0.1,0,0.1,0,0.2,0c5.3,0,10.6,0,15.8,0h9.2
					c1,0,1.3,0.3,1.3,1.3c0,1.2,0,2.4,0,3.6c0,2-1.6,3.6-3.6,3.6c-0.2,0-0.5,0-0.7,0H3.9c-1.8,0.1-3.5-1.1-3.8-2.9
					C0,48.2,0,47.6,0,47c0-0.9,0-1.9,0-2.8c0-0.8,0.3-1.1,1.1-1.1c2.2,0,4.4,0,6.6,0c5.9,0,11.8,0,17.7,0c0.5,0,1,0.1,1.5,0.3
					c0.6,0.3,0.9,0.8,1,1.4c0,0.3,0.2,0.4,0.4,0.4c1.2,0,2.3,0,3.5,0c1.6,0,3.3,0,4.9,0C38.7,45.1,40.7,45.1,42.7,45.1z M25.9,45
					H6.3c-1.2,0-2.5,0-3.7,0c-0.6,0-0.6,0-0.6,0.6c0,0.7,0.1,1.3,0,2c-0.1,1,0.7,1.9,1.6,2c0.1,0,0.2,0,0.3,0c21.2,0,42.3,0,63.5,0
					c0.1,0,0.3,0,0.4,0c0.8,0,1.4-0.5,1.5-1.3c0.1-1.1,0-2.2,0-3.4c-1.1,0-2.2,0-3.2,0c-2.1,0-4.2,0-6.4,0c-4.3,0-8.6,0-12.9,0
					c-0.6,0-1.2,0-1.9,0c-0.2,0-0.4,0-0.4,0.3c-0.1,1-1,1.8-2.1,1.7c-4.8,0-9.7,0-14.5,0c-1.1,0.1-2-0.7-2.1-1.8
					C26,45.2,25.9,45.1,25.9,45L25.9,45z"/>
				<path id="Trazado_123069" class="st1" d="M35.5,34.8H10.1c-0.9,0-1.3-0.3-1.3-1.2c0-8.2,0-16.3,0-24.5c0-1.1,0-2.2,0-3.3
					c0-0.6,0.4-1.1,1-1.1c0,0,0,0,0,0c0.1,0,0.3,0,0.4,0c5.7,0,11.4,0,17.1,0c2.1,0,4.1,0,6.2,0c2.3,0,4.6,0,6.9,0
					c6.9,0,13.8,0,20.7,0c0.6-0.1,1.1,0.4,1.2,1c0,0.1,0,0.2,0,0.2c0,9.3,0,18.5,0,27.8c0,0.9-0.4,1.2-1.3,1.2
					C52.4,34.8,44,34.8,35.5,34.8z M60.2,6.6H10.8v26.2h49.4V6.6z"/>
			</g>
		</g>
	</g>
	<g id="KylTfb" transform="translate(355.468 1415.153)">
		<g id="Grupo_56655">
			<path id="Trazado_123070" class="st1" d="M5.4,72.9c-0.8,0-1.5,0-2.1,0C1.6,73,0.1,71.8,0,70.1c0-0.2,0-0.4,0-0.6
				c0-14.1,0-28.2,0-42.3c-0.2-1.6,1-3,2.5-3.2c0.2,0,0.4,0,0.6,0c1.4,0,2.7,0,4.1,0c0.1,0,0.2,0,0.5-0.1c-2.3-3.1-3.2-7-2.6-10.8
				c0.6-3.8,2.9-7.2,6.2-9.2c5.1-3.2,11.8-2.7,16.3,1.3c5.3,4.8,5.9,10.7,2,18.7c1.8,0,3.4,0,5.1,0c1.6-0.2,3.1,1,3.2,2.6
				c0,0.2,0,0.4,0,0.6c0,14,0,28,0,42c0.2,1.7-1,3.3-2.8,3.5c-0.2,0-0.5,0-0.7,0c-0.6,0-1.2,0-1.9,0v1.5c0,7.3,0,14.6,0,21.8
				c0,2.2-1.1,3.4-3.3,3.4c-6.9,0-13.8,0-20.7,0c-2.2,0-3.3-1.2-3.3-3.4c0-7.3,0-14.6,0-21.8L5.4,72.9z M6,66.9h1.3
				c3.1,0,4.1,1,4.1,4.1v22.6H16v-1.5c0-6.3,0-12.7,0-19c0-2.1,1.1-3.4,3-3.4c1.9,0,3,1.3,3,3.5c0,6.2,0,12.4,0,18.6v1.8h4.8V92
				c0-7.3,0-14.6,0-21.8c-0.2-1.7,1.1-3.2,2.7-3.3c0.2,0,0.3,0,0.5,0c0.7,0,1.3,0,2.1,0V30.1H6L6,66.9z M11,15.7
				c-0.1,4.2,3.3,7.6,7.5,7.7c0.1,0,0.1,0,0.2,0c4.3,0,7.7-3.4,7.7-7.7c0,0,0,0,0,0C26.3,11.4,22.8,8,18.6,8C14.4,8,11,11.5,11,15.7
				L11,15.7z"/>
			<path id="Trazado_123071" class="st3" d="M58.8,11c0-2.6,0-5.2,0-7.8C58.7,1.5,60,0.1,61.6,0c0.1,0,0.1,0,0.2,0
				c1.7,0.1,3,1.5,3,3.2c0,5.2,0,10.4,0,15.5c0.1,1.7-1.1,3.2-2.8,3.3c-0.1,0-0.1,0-0.2,0c-1.6,0-2.9-1.3-2.9-2.9c0-0.1,0-0.2,0-0.3
				C58.8,16.2,58.8,13.6,58.8,11z"/>
			<path id="Trazado_123072" class="st3" d="M54,13.7c0,1.7,0,3.4,0,5.1c0.1,1.6-1.1,3.1-2.7,3.2c-0.1,0-0.2,0-0.2,0
				c-1.7,0-3-1.5-3-3.2c0,0,0,0,0,0c0-3.5,0-6.9,0-10.4c0-1.7,1.3-3.1,3-3.1c0,0,0.1,0,0.1,0c1.6,0,2.9,1.3,2.9,3c0,0,0,0.1,0,0.1
				C54,10.2,54,12,54,13.7L54,13.7z"/>
			<path id="Trazado_123073" class="st3" d="M37.5,16.3c0-0.9,0-1.8,0-2.7c0-1.6,1.3-2.8,2.8-2.8c0,0,0.1,0,0.1,0
				c1.6,0,2.9,1.3,3,2.9c0.1,1.8,0.1,3.6,0,5.4c0,1.7-1.4,3-3,3c-1.6,0-3-1.4-2.9-3c0,0,0,0,0-0.1C37.4,18.1,37.4,17.2,37.5,16.3
				L37.5,16.3z"/>
			<path id="Trazado_123074" class="st1" d="M15.4,110.8c-0.2-0.1-0.3-0.2-0.3-0.3c0-0.6,0.1-1.2,0.2-1.8c0.2,0.1,0.6,0.1,0.7,0.2
				c0.4,0.6,0.2,1.4-0.4,1.7C15.5,110.8,15.5,110.8,15.4,110.8z"/>
		</g>
	</g>
	<g id="KylTfb-2" transform="translate(764.598 1415.153)">
		<g id="Grupo_56656">
			<path id="Trazado_123075" class="st1" d="M59.4,74.4c0,7.3,0,14.6,0,21.8c0,2.2-1.1,3.4-3.3,3.4c-6.9,0-13.8,0-20.7,0
				c-2.2,0-3.3-1.2-3.3-3.4c0-7.3,0-14.6,0-21.8v-1.5c-0.7,0-1.3,0-1.9,0c-1.7,0.2-3.3-1-3.5-2.7c0-0.2,0-0.5,0-0.7c0-14,0-28,0-42
				c-0.2-1.6,1-3.1,2.6-3.3c0.2,0,0.4,0,0.6,0c1.7,0,3.4,0,5.1,0c-4-8-3.3-13.9,2-18.7c4.6-4,11.2-4.5,16.3-1.3
				c3.3,2,5.6,5.4,6.2,9.2c0.7,3.8-0.3,7.7-2.6,10.8c0.3,0,0.4,0.1,0.5,0.1c1.4,0,2.7,0,4.1,0c1.6-0.2,3,0.9,3.2,2.5
				c0,0.2,0,0.4,0,0.7c0,14.1,0,28.2,0,42.3c0.2,1.7-1,3.1-2.7,3.3c-0.2,0-0.4,0-0.6,0c-0.7,0-1.3,0-2.1,0L59.4,74.4z M58.8,30.1
				H32.7v36.7c0.7,0,1.4,0,2.1,0c1.7-0.1,3.1,1.1,3.2,2.8c0,0.2,0,0.3,0,0.5c0,7.3,0,14.6,0,21.8v1.5h4.8v-1.8c0-6.2,0-12.4,0-18.6
				c0-2.2,1.1-3.5,3-3.5c1.8,0,3,1.3,3,3.4c0,6.3,0,12.7,0,19v1.5h4.7V70.9c0-3.1,1-4.1,4.1-4.1h1.3L58.8,30.1z M46.2,8
				c-4.3,0-7.7,3.4-7.8,7.7c0,4.3,3.5,7.7,7.7,7.7c0,0,0,0,0,0c4.2,0.1,7.6-3.3,7.7-7.5c0-0.1,0-0.1,0-0.2C53.8,11.5,50.4,8,46.2,8z
				"/>
			<path id="Trazado_123076" class="st3" d="M5.9,11c0-2.6,0-5.2,0-7.8C6,1.5,4.8,0.1,3.2,0C3.1,0,3,0,3,0C1.3,0.1,0,1.5,0,3.2
				c0,5.2,0,10.4,0,15.5c-0.1,1.7,1.1,3.2,2.8,3.3c0.1,0,0.1,0,0.2,0c1.6,0,2.9-1.3,2.9-2.9c0-0.1,0-0.2,0-0.3
				C5.9,16.2,5.9,13.6,5.9,11z"/>
			<path id="Trazado_123077" class="st3" d="M10.7,13.7c0,1.7,0,3.4,0,5.1c-0.1,1.6,1.1,3.1,2.7,3.2c0.1,0,0.2,0,0.2,0
				c1.7,0,3-1.5,3-3.2c0,0,0,0,0,0c0-3.5,0-6.9,0-10.4c0-1.7-1.3-3.1-3-3.1c0,0-0.1,0-0.1,0c-1.6,0-2.9,1.3-2.9,3c0,0,0,0.1,0,0.1
				C10.7,10.2,10.7,12,10.7,13.7L10.7,13.7z"/>
			<path id="Trazado_123078" class="st3" d="M27.3,16.3c0-0.9,0-1.8,0-2.7c0-1.6-1.3-2.8-2.8-2.8c0,0-0.1,0-0.1,0
				c-1.6,0-2.9,1.3-3,2.9c-0.1,1.8-0.1,3.6,0,5.4c0,1.7,1.4,3,3,3c1.6,0,3-1.4,2.9-3c0,0,0,0,0-0.1C27.4,18.1,27.4,17.2,27.3,16.3
				L27.3,16.3z"/>
			<path id="Trazado_123079" class="st1" d="M49.3,110.8c0.2-0.1,0.3-0.2,0.3-0.3c0-0.6-0.1-1.2-0.2-1.8c-0.2,0.1-0.6,0.1-0.7,0.2
				c-0.4,0.6-0.2,1.4,0.4,1.7C49.3,110.8,49.3,110.8,49.3,110.8z"/>
		</g>
	</g>
	<g id="tUOQmM.tif" transform="translate(881.667 1396.026)">
		<g id="Grupo_56657">
			<path id="Trazado_123080" class="st3" d="M96.1,27.7c-0.7,0.6-1.3,1.5-2.1,1.7c-1.7,0.5-3-0.7-3.2-2.6c-0.2-2.3-0.6-4.6-1.2-6.9
				C86.3,9.9,76.2,3.8,65.8,5.7c-2.4,0.4-3.8-0.3-4.1-2c-0.3-1.7,0.8-2.8,3.1-3.3C65.4,0.2,66,0.1,66.6,0h5.7
				c0.2,0.1,0.5,0.2,0.7,0.2c10.8,1.8,18,7.9,21.7,18.1c0.5,1.8,1,3.6,1.4,5.4L96.1,27.7z"/>
			<path id="Trazado_123081" class="st1" d="M72.5,35.5c-1.8,1-4,1.4-6,1c-3.8-0.7-6.5-4-6.6-7.8c0.2-1.1-0.5-2.1-1.6-2.3
				c0,0,0,0,0,0c-15.9-5.1-30.4-3-42.9,8.5c-7.6,7-10.8,15.9-9.8,26.2c0.4,4,1.7,7.8,3.7,11.3c0.6,1.1,0.9,2.4,0.6,3.6
				c-0.7,3.6-1.4,7.2-2.1,10.9c1.6-0.1,3-0.2,4.4-0.3c2.9-0.3,5.9-0.7,8.8-0.9c0.9,0,1.7,0.2,2.5,0.6c10.9,5.8,23.8,6.6,35.4,2.2
				c1.1-0.5,2.5-0.2,3.3,0.8c0.7,0.9,0.8,2.1,0.1,3c-0.4,0.5-1,1-1.6,1.2c-6,2.3-12.4,3.3-18.8,3.1c-7-0.3-13.9-2-20.1-5.2
				c-1.2-0.6-2.9-0.1-4.3,0c-4.1,0.4-8.1,0.8-12.2,1.2c-2.6,0.2-3.7-1.1-3.2-3.7c0.8-4.3,1.6-8.5,2.4-12.8c0.1-0.7,0-1.3-0.2-2
				C-3.8,59.1,0,41.4,12.5,30.2c9.4-8.4,20.5-12.1,33-11.7c5.5,0.2,10.9,1.3,16,3.4c0.6,0.3,1.4,0.2,1.9-0.2c2.8-2,6.6-2.1,9.4-0.1
				c2.9,1.9,4.2,5.4,3.4,8.8c-0.2,0.6,0,1.4,0.5,1.8c7.6,8.1,11.2,17.7,10.3,28.8c-0.7,7.3-3.6,14.3-8.3,19.9
				c-0.8,1.2-2.5,1.5-3.7,0.7c-0.1-0.1-0.2-0.1-0.2-0.2c-1.3-1-1.3-2.5-0.1-4c4.8-5.7,7.3-12.9,7.2-20.3
				C81.5,48.6,78.2,41.6,72.5,35.5z M68.1,25.5c-1.6-0.1-2.9,1.1-2.9,2.7c0,0.1,0,0.2,0,0.2c0,1.6,1.3,2.9,2.9,2.9c0,0,0,0,0,0
				c1.6,0,2.9-1.2,3-2.8c0-1.6-1.2-2.9-2.8-3C68.2,25.5,68.2,25.5,68.1,25.5L68.1,25.5z"/>
			<path id="Trazado_123082" class="st1" d="M39.1,67.6c-5.5,0-9.4-4.2-9.4-10c0-5.8,4-9.9,9.5-9.9c5.5,0,9.5,4.2,9.4,9.9
				C48.6,63.3,44.6,67.6,39.1,67.6z M42.8,57.7c-0.2-0.9-0.4-1.9-0.7-2.8c-0.4-1.2-1.6-2-2.9-2c-1.3-0.1-2.5,0.6-3,1.8
				c-1,1.8-0.9,4.1,0.1,5.9c0.8,1.6,2.7,2.2,4.3,1.4c0.6-0.3,1-0.8,1.4-1.3C42.3,59.8,42.6,58.8,42.8,57.7L42.8,57.7z"/>
			<path id="Trazado_123083" class="st3" d="M66.6,61.3c0,1.1,0,2,0,2.9c0,1.6-1.2,2.9-2.8,3c-1.6,0-2.9-1.3-2.9-2.9c0,0,0,0,0,0
				c0-4.6,0-9.1,0-13.7c0-1.5,1.2-2.8,2.7-2.9c0.1,0,0.1,0,0.2,0c1.7,0,3.5,0,5.2,0c3.6,0,6.5,3,6.4,6.6c0,0,0,0,0,0.1
				c0,3.9-2.5,6.7-6.3,6.9C68.4,61.3,67.6,61.3,66.6,61.3z M66.7,56.4c1-0.3,1.9-0.6,2.7-1.1c0.3-0.5,0.3-1.1,0-1.6
				c-0.9-0.5-1.8-0.8-2.7-1.1L66.7,56.4z"/>
			<path id="Trazado_123084" class="st1" d="M20,57.4c1-2.7,1.9-5,2.8-7.4c0.7-1.9,2.1-2.6,3.7-2c1.5,0.5,2.3,2.1,1.8,3.5
				c0,0.1-0.1,0.3-0.2,0.4c-1.8,4.5-3.6,9-5.4,13.5c-0.4,1.2-1.5,2-2.7,2c-1.3,0-2.4-0.9-2.7-2.1c-1.8-4.5-3.6-9-5.4-13.5
				c-0.7-1.4-0.1-3.1,1.2-3.8c0.1-0.1,0.3-0.1,0.4-0.2c1.6-0.6,3,0.1,3.7,1.9C18.1,52.2,19,54.6,20,57.4z"/>
			<path id="Trazado_123085" class="st3" d="M68.1,9.7c10.1,0,18.5,8,18.8,18.1c0.1,2.6-1.8,4.1-3.8,3.2c-1.1-0.5-1.7-1.7-1.6-2.9
				c-0.1-5.7-3.8-10.7-9.2-12.4c-2.2-0.7-4.5-0.8-6.8-0.4c-1.4,0.4-2.9-0.4-3.3-1.8s0.4-2.9,1.8-3.3c0.1,0,0.3-0.1,0.4-0.1
				c0.6-0.1,1.2-0.2,1.8-0.3C66.8,9.7,67.5,9.7,68.1,9.7z"/>
			<path id="Trazado_123086" class="st3" d="M57.5,57.4c0,2.2,0,4.4,0,6.6c0.2,1.6-1,3-2.6,3.2c-0.1,0-0.2,0-0.2,0
				c-1.7,0-2.8-1.3-2.8-3.2c0-4.4,0-8.9,0-13.3c-0.1-1.7,1.1-3.1,2.8-3.2c0,0,0.1,0,0.1,0c1.6,0,2.8,1.3,2.8,3.2
				C57.5,53,57.5,55.2,57.5,57.4z"/>
			<path id="Trazado_123087" class="st1" d="M68.5,89c-1.5,0-2.7-1.1-2.7-2.6c0,0,0,0,0,0c0-1.5,1.2-2.7,2.7-2.7
				c1.5,0,2.7,1.1,2.7,2.6C71.3,87.8,70,89,68.5,89z"/>
		</g>
	</g>
</g>
</svg>
