<?xml version="1.0" encoding="utf-8"?>
<!-- Generator: Adobe Illustrator 25.2.3, SVG Export Plug-In . SVG Version: 6.00 Build 0)  -->
<svg version="1.1" id="Capa_1" xmlns="http://www.w3.org/2000/svg" xmlns:xlink="http://www.w3.org/1999/xlink" x="0px" y="0px"
	 viewBox="0 0 818.4 555.4" style="enable-background:new 0 0 818.4 555.4;" xml:space="preserve">
<style type="text/css">
	.st0{fill:none;stroke:#12263F;stroke-width:4;stroke-miterlimit:10;}
	.st1{fill:#12263F;}
	.st2{enable-background:new    ;}
	.st3{fill:#FFFFFF;}
	.st4{fill:none;stroke:#37A3A5;stroke-width:6;stroke-miterlimit:10;}
</style>
<g id="Grupo_56651" transform="translate(-137.457 -1206.905)">
	<line id="Línea_1631" class="st0" x1="137.5" y1="1342.4" x2="918.8" y2="1342.4"/>
	<line id="Línea_1632" class="st0" x1="299.7" y1="1342.4" x2="299.7" y2="1315.7"/>
	<line id="Línea_1633" class="st0" x1="222.8" y1="1369" x2="222.8" y2="1342.4"/>
	<line id="Línea_1634" class="st0" x1="840.6" y1="1369" x2="840.6" y2="1342.4"/>
	<line id="Línea_1635" class="st0" x1="672.3" y1="1342.4" x2="672.3" y2="1315.7"/>
	<line id="Línea_1636" class="st0" x1="559.3" y1="1369" x2="559.3" y2="1342.4"/>
	<line id="Línea_1637" class="st0" x1="137.5" y1="1629.3" x2="918.8" y2="1629.3"/>
	<line id="Línea_1638" class="st0" x1="299.7" y1="1629.3" x2="299.7" y2="1602.6"/>
	<line id="Línea_1639" class="st0" x1="222.8" y1="1655.9" x2="222.8" y2="1629.3"/>
	<line id="Línea_1640" class="st0" x1="512" y1="1655.9" x2="512" y2="1629.3"/>
	<line id="Línea_1641" class="st0" x1="840.6" y1="1629.3" x2="840.6" y2="1602.6"/>
	<g id="Grupo_56646" transform="translate(157.336 1207.013)">
		<path id="Trazado_123058" class="st1" d="M67.1,74.5c1.4-1.5,3.7-1.5,5.1-0.2c0.1,0.1,0.2,0.2,0.3,0.3c1,1.1,1.8,2.3,3.6,2.3
			c0.8,0,1.2,0.9,1.1,1.6c0,0.8-0.5,1.5-1.3,1.6c-1.7,0.3-3.4-0.3-4.5-1.6c-1.7-2-1.7-2-3.4,0.2c-1.2,1.6-3.4,2-5,0.9
			c-0.2-0.1-0.3-0.2-0.4-0.4c-0.6-0.6-1.2-1.2-1.7-1.9c-0.4-0.5-0.7-0.5-1.1-0.1c-0.6,0.8-1.2,1.5-1.9,2.2c-0.5,0.4-1,0.7-1.7,0.7
			c-2.2,0.3-3.6-1-4.8-2.6c-0.5-0.7-1-0.8-1.5-0.1c-0.2,0.3-0.4,0.6-0.7,0.8c-0.9,1.2-2,2.2-3.7,1.9c-1.3-0.2-2.4-0.9-3.2-2
			c-1.3-1.5-1.3-1.5-2.6,0c-1,1.2-1.9,2.3-3.7,2c-1.1-0.2-2.1-0.7-2.8-1.5c-0.6-0.6-1.4-1.7-1.8-1.6c-0.7,0.2-1.2,1.2-1.8,1.8
			c-0.5,0.8-1.4,1.2-2.3,1.3c-1.6,0-3.1-0.7-4.1-2c-1.4-1.5-1.4-1.4-2.8,0c-2.8,2.9-6,5.1-10.3,5.4C4.9,84,0,79.9,0,74.8
			c0-4.1,1.4-8,4-11.1c1.3-1.9,3.8-2.4,5.7-1.3c1,0.5,2.1,0.5,3.1,0c2.5-1.2,4.6-3.2,5.7-5.8c2.8-5.4,4.1-11.5,3.9-17.6
			c-0.1-2.9-0.2-5.9-1.6-8.5c-1.1-2.1-2.4-4.2-5.4-3.5c-0.1,0-0.2-0.1-0.3-0.1c-2.2-0.3-3.3-1.7-3.9-3.6c-1-3.3-1-6.7-0.1-10
			c1.1-4.7,5.8-7.7,10.5-6.6c0,0,0,0,0.1,0c3.4,0.8,6.3,2.9,8,6c3.6,6,5.1,12.6,5.4,19.5c0.2,6.4-0.3,12.8-1.7,19
			c-1.2,6.4-3.4,12.6-6.5,18.3c-0.9,1.5-1.8,3-2.8,4.5c0.4,0.5,0.9,0.9,1.3,1.4s0.7,1,1.1,1.6c0.9-1,1.5-1.7,2.1-2.3
			c1.3-1.6,3.7-1.8,5.3-0.5c0.2,0.2,0.4,0.4,0.6,0.6c0.6,0.6,1.2,1.3,1.8,2c0.7-0.8,1.2-1.4,1.8-2.1c2.1-2.1,4.6-1.9,6.4,0.5
			c0.4,0.5,0.9,1,1.4,1.6c0.6-0.6,1-1.2,1.5-1.7c1.9-2.4,4.7-2.3,6.6,0c0.5,0.6,1,1.1,1.6,1.6c0.7-0.8,1.3-1.5,1.9-2.1
			c1.4-1.6,3.9-1.7,5.4-0.3c0.2,0.2,0.4,0.4,0.6,0.6c0.5,0.6,1.1,1.2,1.7,1.8C65.8,75.9,66.4,75.2,67.1,74.5z M27.6,16.2
			c-1.4-2.8-3.1-5.2-6.4-6c-2.8-0.9-5.9,0.6-6.8,3.5c-0.1,0.4-0.2,0.8-0.2,1.2c-0.2,2.2-0.2,4.3,0,6.5c0.1,0.5,0.2,1,0.4,1.4
			c0.2,0.6,0.8,0.9,1.4,0.8c0,0,0,0,0,0c2.3-0.4,4.2,0.7,5.7,2.3c2.8,3,3.8,6.6,4,10.5c0.4,4.6,0.1,9.1-1,13.6
			c-1.2,4.1-2.5,8.2-5.2,11.6c-2,2.5-4.5,4.5-7.9,4.7c-1.1,0-2.1-0.2-3.1-0.6c-0.6-0.4-1.4-0.2-1.9,0.3c-1.7,2-2.4,4.5-3,7
			c-0.9,3,0.9,6.2,3.9,7c0.2,0,0.3,0.1,0.5,0.1c2.5,0.6,5.1-0.1,7-1.7c3.8-3,6.8-6.7,9-11c2.9-5.5,4.9-11.4,6-17.5
			c1-4.7,1.5-9.5,1.5-14.3C31.8,28.9,30.5,22.3,27.6,16.2z"/>
		<g id="RNGu9o" transform="translate(63.82)">
			<g id="Grupo_56645">
				<path id="Trazado_123059" class="st1" d="M75.4,86.1H12.5c-1.7,0-2.5-0.8-2.5-2.5c0-21.4,0-42.8,0-64.2c0-3.2-0.1-6.5,0.2-9.7
					c0.3-3.6,2.3-6.2,5.3-8.1C17.3,0.5,19.3,0,21.4,0c36,0,72.1,0,108.1,0c4.5-0.2,8.7,2.5,10.4,6.6c0.7,1.4,1,3,1,4.6
					c0.1,24.2,0.1,48.3,0,72.5c0,1.7-0.8,2.4-2.5,2.4L75.4,86.1L75.4,86.1z M136.8,81.9v-1.5c0-20,0-39.9,0-59.9
					c0-2.9,0.1-5.9,0.1-8.8c0.1-1.9-0.6-3.7-1.8-5.1c-1.5-1.6-3.6-2.4-5.7-2.4c-35.8,0-71.7,0-107.5,0c-0.4,0-0.8,0-1.2,0
					c-3.4,0.3-6.1,3-6.4,6.3c-0.2,3.4-0.1,6.9-0.1,10.3c0,19.7,0,39.4,0,59.1v1.8L136.8,81.9z"/>
				<path id="Trazado_123060" class="st1" d="M90.2,95.3c0.5-3.1,2-4.4,4.9-4.4c11.2,0,22.3,0,33.5,0c6.5,0,13,0,19.5,0
					c2.2,0,2.8,0.6,2.7,2.8c0,2.6-0.1,5.1,0,7.7c0,4.2-3.4,7.5-7.6,7.5c-0.5,0-1,0-1.5,0H8.3c-4.2,0-7.3-2.3-8.1-6
					c-0.2-1.2-0.3-2.5-0.2-3.7c0-2,0-4,0.1-6c0-1.7,0.7-2.4,2.4-2.4c4.7,0,9.3,0.1,14,0.1c12.5,0,24.9-0.1,37.4,0
					c1.1,0,2.1,0.2,3.1,0.6c1.2,0.5,2,1.7,2.1,3c0.1,0.6,0.3,0.8,0.8,0.7c2.5,0,4.9,0,7.4,0c3.5,0,6.9,0,10.4,0
					C81.8,95.3,85.9,95.3,90.2,95.3z M54.7,95.1H5.5c-1.3,0-1.4,0-1.4,1.4c0,1.4,0.2,2.8,0,4.2c-0.2,2.1,1.4,3.9,3.5,4.1
					c0.2,0,0.4,0,0.6,0c44.7-0.1,89.4-0.1,134.2,0c0.3,0,0.6,0,0.9,0c1.6,0.1,3-1.1,3.2-2.6c0.2-2.3,0-4.6,0-7.1c-2.3,0-4.6,0-6.8,0
					c-4.5,0-9,0.1-13.5,0.1c-9.1,0-18.1,0-27.2,0c-1.3,0-2.6,0-3.9,0c-0.5,0-0.8,0.1-0.9,0.7c-0.2,2.2-2.2,3.8-4.4,3.7
					c-10.2,0-20.5,0-30.7,0c-2.3,0.2-4.3-1.6-4.4-3.8C54.8,95.5,54.8,95.4,54.7,95.1L54.7,95.1z"/>
				<path id="Trazado_123061" class="st1" d="M75.1,73.6H21.3c-1.9,0-2.7-0.7-2.7-2.6c0-17.3,0-34.5,0-51.8c0-2.3,0-4.7,0-7
					c-0.1-1.2,0.8-2.3,2-2.4c0,0,0,0,0,0c0.3,0,0.6,0,0.9,0c12,0,24,0,36,0c4.4,0,8.8,0.1,13.1,0.1c4.8,0,9.7-0.1,14.5-0.1
					c14.5,0,29.1,0,43.6,0c1.3-0.1,2.4,0.8,2.5,2c0,0.2,0,0.3,0,0.5c0,19.6,0,39.1,0,58.7c0,1.9-0.8,2.6-2.8,2.6
					C110.8,73.6,92.9,73.6,75.1,73.6z M127.2,13.9H22.8v55.4h104.4L127.2,13.9z"/>
			</g>
		</g>
	</g>
	<g id="Grupo_56648" transform="translate(159.762 1493.582)">
		<path id="Trazado_123062" class="st1" d="M67.1,74.5c1.4-1.5,3.7-1.5,5.1-0.2c0.1,0.1,0.2,0.2,0.3,0.3c1,1.1,1.8,2.3,3.6,2.3
			c0.8,0,1.2,0.9,1.1,1.6c0,0.8-0.5,1.5-1.3,1.6c-1.7,0.3-3.4-0.3-4.5-1.6c-1.7-2-1.7-2-3.4,0.2c-1.2,1.6-3.4,2-5,0.9
			c-0.2-0.1-0.3-0.2-0.4-0.4c-0.6-0.6-1.2-1.2-1.7-1.9c-0.4-0.5-0.7-0.5-1.1-0.1c-0.6,0.8-1.2,1.5-1.9,2.2c-0.5,0.4-1,0.7-1.7,0.7
			c-2.2,0.3-3.6-1-4.8-2.6c-0.5-0.7-1-0.8-1.5-0.1c-0.2,0.3-0.4,0.6-0.7,0.8c-0.9,1.2-2,2.2-3.7,1.9c-1.3-0.2-2.4-0.9-3.2-2
			c-1.3-1.5-1.3-1.5-2.6,0c-1,1.2-1.9,2.3-3.7,2c-1.1-0.2-2.1-0.7-2.8-1.5c-0.6-0.6-1.4-1.7-1.8-1.6c-0.7,0.2-1.2,1.2-1.8,1.8
			c-0.5,0.8-1.4,1.2-2.3,1.3c-1.6,0-3.1-0.7-4.1-2c-1.4-1.5-1.4-1.4-2.8,0c-2.8,2.9-6,5.1-10.3,5.4C4.9,84,0,79.9,0,74.8
			c0-4.1,1.4-8,4-11.1c1.3-1.9,3.8-2.4,5.7-1.3c1,0.5,2.1,0.5,3.1,0c2.5-1.2,4.6-3.2,5.7-5.8c2.8-5.4,4.1-11.5,3.9-17.6
			c-0.1-2.9-0.2-5.9-1.6-8.5c-1.1-2.1-2.4-4.2-5.4-3.5c-0.1,0-0.2-0.1-0.3-0.1c-2.2-0.3-3.3-1.7-3.9-3.6c-1-3.3-1-6.7-0.1-10
			c1.1-4.7,5.8-7.7,10.5-6.6c0,0,0,0,0.1,0c3.4,0.8,6.3,2.9,8,6c3.6,6,5.1,12.6,5.4,19.5c0.2,6.4-0.3,12.8-1.7,19
			c-1.2,6.4-3.4,12.6-6.5,18.3c-0.9,1.5-1.9,3-2.8,4.5c0.4,0.5,0.9,0.9,1.3,1.4s0.7,1,1.1,1.6c0.9-1,1.5-1.7,2.1-2.3
			c1.3-1.6,3.7-1.8,5.3-0.5c0.2,0.2,0.4,0.4,0.6,0.6c0.6,0.6,1.2,1.3,1.8,2c0.7-0.8,1.2-1.5,1.8-2.1c2.1-2.1,4.6-1.9,6.4,0.5
			c0.4,0.5,0.9,1,1.4,1.6c0.6-0.6,1-1.2,1.5-1.7c1.9-2.4,4.7-2.3,6.6,0c0.5,0.6,1,1.1,1.6,1.6c0.7-0.8,1.3-1.5,1.9-2.1
			c1.4-1.6,3.9-1.7,5.4-0.3c0.2,0.2,0.4,0.4,0.6,0.6c0.5,0.6,1.1,1.2,1.7,1.8C65.8,75.9,66.4,75.2,67.1,74.5z M27.6,16.2
			c-1.4-2.8-3.2-5.2-6.4-6.1c-2.8-0.9-5.9,0.6-6.8,3.5c-0.1,0.4-0.2,0.8-0.2,1.2c-0.2,2.2-0.2,4.3,0,6.5c0.1,0.5,0.2,1,0.4,1.4
			c0.2,0.6,0.8,0.9,1.4,0.8c0,0,0,0,0,0c2.3-0.4,4.2,0.7,5.7,2.3c2.8,3,3.8,6.6,4,10.5c0.4,4.6,0.1,9.1-1,13.6
			c-1.2,4.1-2.5,8.2-5.2,11.6c-2,2.5-4.5,4.5-7.9,4.7c-1.1,0-2.1-0.2-3.1-0.6c-0.6-0.4-1.4-0.2-1.9,0.3c-1.7,2-2.4,4.5-3,7
			c-0.9,3,0.9,6.2,3.9,7C7.6,79.9,7.8,80,8,80c2.5,0.6,5.1-0.1,7-1.7c3.8-3,6.8-6.7,9-11c2.9-5.5,4.9-11.4,6-17.5
			c1-4.7,1.5-9.5,1.5-14.3C31.8,28.9,30.5,22.3,27.6,16.2z"/>
		<g id="RNGu9o-2" transform="translate(63.824)">
			<g id="Grupo_56647">
				<path id="Trazado_123063" class="st1" d="M75.4,86.1H12.5c-1.7,0-2.5-0.8-2.5-2.5c0-21.4,0-42.8,0-64.2c0-3.2-0.1-6.5,0.2-9.7
					c0.3-3.6,2.3-6.2,5.3-8.1C17.3,0.5,19.3,0,21.4,0c36,0,72.1,0,108.1,0c4.5-0.2,8.7,2.5,10.4,6.6c0.7,1.4,1,3,1,4.6
					c0.1,24.2,0.1,48.3,0,72.5c0,1.7-0.8,2.4-2.5,2.4L75.4,86.1L75.4,86.1z M136.8,81.9v-1.5c0-20,0-39.9,0-59.9
					c0-2.9,0.1-5.9,0.1-8.8c0.1-1.9-0.6-3.7-1.8-5.1c-1.5-1.6-3.6-2.4-5.7-2.4c-35.8,0-71.7,0-107.5,0c-0.4,0-0.8,0-1.2,0
					c-3.4,0.3-6.1,3-6.4,6.3c-0.2,3.4-0.1,6.9-0.1,10.3v60.9L136.8,81.9z"/>
				<path id="Trazado_123064" class="st1" d="M90.1,95.3c0.5-3.1,2-4.4,4.9-4.4c11.2,0,22.3,0,33.5,0h19.5c2.2,0,2.8,0.6,2.7,2.8
					c0,2.6-0.1,5.1,0,7.7c0,4.2-3.4,7.5-7.6,7.5c-0.5,0-1,0-1.5,0H8.3c-4.2,0-7.3-2.3-8.1-6c-0.2-1.2-0.3-2.5-0.2-3.7c0-2,0-4,0.1-6
					c0-1.7,0.7-2.4,2.4-2.4c4.7,0,9.3,0.1,14,0.1c12.5,0,24.9-0.1,37.4,0c1.1,0,2.1,0.2,3.1,0.6c1.2,0.5,2,1.7,2.1,3
					c0.1,0.6,0.3,0.8,0.9,0.7c2.5,0,4.9,0,7.4,0c3.5,0,6.9,0,10.4,0L90.1,95.3z M54.7,95.1H5.5c-1.3,0-1.4,0-1.4,1.4
					c0,1.4,0.2,2.8,0,4.2c-0.2,2.4,1.7,4.1,4.1,4.1c44.7-0.1,89.4-0.1,134.2,0c0.3,0,0.6,0,0.9,0c1.6,0.1,3-1.1,3.2-2.6
					c0.2-2.3,0-4.6,0-7.1c-2.3,0-4.6,0-6.8,0c-4.5,0-9,0.1-13.5,0.1c-9.1,0-18.1,0-27.2,0c-1.3,0-2.6,0-3.9,0
					c-0.5,0-0.8,0.1-0.9,0.7c-0.2,2.2-2.2,3.8-4.4,3.7c-10.2,0-20.5,0-30.7,0c-2.3,0.2-4.3-1.6-4.4-3.8
					C54.8,95.5,54.8,95.3,54.7,95.1L54.7,95.1z"/>
				<path id="Trazado_123065" class="st1" d="M75.1,73.6H21.3c-1.9,0-2.7-0.7-2.7-2.6c0-17.3,0-34.5,0-51.8c0-2.3,0-4.7,0-7
					c-0.1-1.2,0.8-2.3,2-2.4c0,0,0,0,0,0c0.3,0,0.6,0,0.9,0c12,0,24,0,36,0c4.4,0,8.8,0.1,13.1,0.1c4.8,0,9.7-0.1,14.5-0.1
					c14.5,0,29.1,0,43.6,0c1.3-0.1,2.4,0.8,2.5,2c0,0.2,0,0.3,0,0.5V71c0,1.9-0.8,2.6-2.8,2.6L75.1,73.6z M127.2,13.9H22.8v55.4
					h104.4V13.9z"/>
			</g>
		</g>
	</g>
	<g id="Grupo_56649" transform="translate(594.821 1206.905)">
		<path id="Path_122972" class="st1" d="M129.4,59.9v46.8c0.2,1.2-0.6,2.3-1.8,2.5c-0.2,0-0.5,0-0.7,0c-6,0-12.1,0-18.1,0H68.3
			c-7.9,0-15.8,0-23.7,0c-0.4,0-0.8,0.2-1,0.6c-4.1,8.6-14.4,12.3-23,8.2c-2.5-1.2-4.6-2.9-6.3-5.1c-0.7-1-1.4-2.1-2-3.2
			c-0.1-0.3-0.5-0.6-0.9-0.5c-3,0-6,0-9.1,0c-1.2,0.2-2.3-0.7-2.4-1.8c0-0.2,0-0.4,0-0.6V13.2c-0.2-1.2,0.7-2.3,1.9-2.5
			c0.2,0,0.4,0,0.6,0c3,0,6,0,9,0c0.4,0,0.7-0.2,0.8-0.5c2.5-5.7,7.9-9.5,14.1-10.1c6.9-0.7,13.5,2.8,16.8,8.9
			c0.2,0.2,0.3,0.5,0.4,0.7c0.2,1,0.9,1.1,1.8,1.1c7.1,0,14.2,0,21.3,0h60.2c1.8,0,2.6,0.8,2.6,2.6c0,9.3,0,18.6,0,27.9
			C129.4,47.4,129.4,53.7,129.4,59.9L129.4,59.9z M125.1,105V15H45.2v90L125.1,105z M15,59.9L15,59.9l0,5.3c0,6.8,0,13.6,0,20.3
			c0,5.4,0,10.9,0,16.3c-0.1,2.7,0.6,5.3,2,7.6c2.5,4.3,7.4,6.6,12.3,6c6.7-0.6,11.8-6.3,11.8-13V17.9c0-0.8,0-1.7-0.2-2.5
			C40,8.7,34,3.8,27.2,4.3C22.4,4.5,18,7.5,16.1,12c-0.9,2-1.3,4.2-1.1,6.4C15,32.2,15,46,15,59.9L15,59.9z M10.8,104.9V15H5.2
			c-0.9,0-0.9,0-0.9,0.9v89.1L10.8,104.9z"/>
		<path id="Path_122973" class="st1" d="M94.8,47.2H73.7c-1.2,0.1-2.3-0.7-2.4-1.9c0-0.2,0-0.3,0-0.5c0-7,0-14,0-21
			c-0.1-1.2,0.7-2.2,1.9-2.3c0,0,0,0,0,0c0.1,0,0.3,0,0.4,0c9.8,0,19.6,0,29.4,0c4.3,0,8.7,0,13,0c1.2-0.2,2.3,0.7,2.5,1.9
			c0,0,0,0,0,0c0,0.2,0,0.4,0,0.6v20.7c0.2,1.2-0.7,2.3-1.9,2.5c0,0,0,0,0,0c-0.2,0-0.4,0-0.6,0c-6.2,0-12.5,0-18.7,0L94.8,47.2
			L94.8,47.2z M75.5,42.9h14.4c7.8,0,15.7,0,23.5,0c0.6,0,0.7-0.1,0.7-0.7c0-5.3,0-10.6,0-15.8c0-0.5-0.1-0.6-0.6-0.6
			c-5.1,0-10.2,0-15.3,0H75.6L75.5,42.9z"/>
		<path id="Path_122974" class="st1" d="M105.4,58c0-0.8,0.1-1.5,0.2-2.3c0.3-2.4,2.4-4.2,4.8-4.3c1.2-0.1,2.3-0.1,3.5,0
			c2.6,0.1,4.6,2.1,4.8,4.7c0.1,1.3,0.1,2.6,0,3.9c-0.2,2.5-2.2,4.5-4.7,4.6c-1.4,0.1-2.7,0.1-4.1-0.1c-2.5-0.3-4.4-2.4-4.5-5
			C105.4,59,105.5,58.5,105.4,58L105.4,58z M112,60.4L112,60.4c0.5,0,1,0,1.4,0c0.5,0,0.9-0.3,1-0.9c0,0,0,0,0,0c0,0,0-0.1,0-0.1
			c0-0.9,0-1.8,0-2.6c0.1-0.5-0.3-1-0.8-1c0,0,0,0,0,0c-0.1,0-0.1,0-0.2,0c-0.9,0-1.8,0-2.6,0c-0.7,0-1,0.3-1,1c0,0.8,0,1.7,0,2.5
			c-0.1,0.6,0.3,1,0.9,1.1c0.1,0,0.1,0,0.2,0C111.2,60.4,111.6,60.4,112,60.4L112,60.4z"/>
		<path id="Path_122975" class="st1" d="M70.9,58c0-0.9,0.1-1.7,0.2-2.5c0.4-2.2,2.3-3.9,4.5-4c1.2-0.1,2.5-0.1,3.8,0
			c2.7,0.2,4.8,2.4,4.8,5.2c0,0.9,0,1.8,0,2.7c0.1,2.7-1.9,5-4.5,5.2c-1.7,0.2-3.3,0.1-5-0.2c-2.1-0.5-3.6-2.4-3.7-4.6
			C71,59.2,71,58.6,70.9,58L70.9,58z M77.7,55.7L77.7,55.7c-0.5,0-1,0-1.5,0c-0.5,0-0.9,0.3-0.9,0.8c0,0,0,0,0,0c0,0.1,0,0.1,0,0.2
			c0,0.9,0,1.8,0,2.8c0,0.5,0.3,0.9,0.8,0.9c0,0,0,0,0,0c0,0,0.1,0,0.1,0c1,0,2,0,2.9,0c0.4,0,0.8-0.3,0.8-0.8c0,0,0,0,0,0
			c0,0,0,0,0-0.1c0-1,0-2,0-2.9c0-0.4-0.3-0.8-0.7-0.8h-0.1C78.6,55.7,78.2,55.7,77.7,55.7L77.7,55.7z"/>
		<path id="Path_122976" class="st1" d="M101.4,58c0,0.7,0,1.5,0,2.2c-0.3,2.4-2.3,4.2-4.7,4.4c-1.4,0.1-2.7,0.1-4.1-0.1
			c-2.4-0.3-4.3-2.3-4.3-4.8c0-1.2,0-2.4,0-3.6c0.2-2.6,2.3-4.6,4.9-4.7c1.3-0.1,2.5-0.1,3.8,0.1c2.5,0.3,4.4,2.3,4.5,4.9
			C101.4,56.9,101.4,57.4,101.4,58L101.4,58z M94.8,55.7L94.8,55.7l-1.2,0c0,0-0.1,0-0.1,0c-0.7,0-1,0.3-1,1c0,0.9,0,1.8,0,2.7
			c-0.1,0.5,0.3,0.9,0.7,1c0.1,0,0.1,0,0.2,0c1,0,1.9,0,2.9,0c0.4,0,0.8-0.3,0.9-0.8c0,0,0,0,0,0v-0.1c0-1,0-2,0-2.9
			c0-0.4-0.3-0.8-0.8-0.8c0,0-0.1,0-0.1,0C95.8,55.7,95.3,55.7,94.8,55.7L94.8,55.7z"/>
		<path id="Path_122977" class="st1" d="M112,98.9c-1,0-1.9-0.1-2.9-0.3c-2-0.5-3.4-2.1-3.6-4.2c-0.2-1.5-0.2-3,0-4.4
			c0.3-2.3,2.1-4.1,4.5-4.3c1.4-0.1,2.7-0.1,4.1,0c2.5,0.2,4.4,2.2,4.5,4.7c0.1,1.3,0.1,2.7,0,4c-0.3,2.5-2.5,4.4-5,4.4L112,98.9
			L112,98.9z M112,94.6c0.5,0,1,0,1.4,0c0.5,0,0.9-0.4,1-0.9c0,0,0-0.1,0-0.1c0-0.9,0-1.8,0-2.7c0-0.5-0.4-0.9-0.9-1
			c0,0-0.1,0-0.1,0c-0.9,0-1.8,0-2.7,0c-0.5,0-0.9,0.3-1,0.8v0.1c0,0.9,0,1.8,0,2.8c0,0.5,0.3,0.9,0.8,1c0.1,0,0.1,0,0.2,0
			C111.1,94.6,111.6,94.6,112,94.6L112,94.6z"/>
		<path id="Path_122978" class="st1" d="M77.6,81.8c-0.9,0-1.9-0.1-2.8-0.3C72.6,81,71.1,79,71,76.8c0-1,0-2.1,0-3.1
			c0-2.8,2.3-5.1,5.1-5.1c0,0,0,0,0,0h0c1.3-0.1,2.6,0,3.9,0.1c2.2,0.4,4,2.2,4.1,4.5c0.1,1.3,0.1,2.7,0,4c-0.2,2.5-2.2,4.4-4.7,4.5
			c-0.6,0-1.2,0-1.8,0L77.6,81.8z M77.6,77.4h1.3c0.7,0,1-0.3,1-1c0-0.9,0-1.7,0-2.6c0-0.7-0.3-1.1-1.1-1.1c-0.9,0-1.7,0-2.6,0
			c-0.5,0-0.9,0.3-1,0.8c0,0,0,0.1,0,0.1c0,0.9,0,1.8,0,2.7c0,0.5,0.3,0.9,0.8,0.9c0,0,0,0,0,0c0.1,0,0.1,0,0.2,0
			C76.7,77.5,77.1,77.4,77.6,77.4L77.6,77.4z"/>
		<path id="Path_122979" class="st1" d="M94.6,98.8c-1.3,0.2-2.7-0.1-3.9-0.7c-1.4-0.9-2.4-2.4-2.4-4.1c0-1.1,0-2.2,0-3.3
			c0-2.5,1.9-4.7,4.4-5c1.5-0.2,3-0.1,4.5,0c2.4,0.3,4.2,2.4,4.3,4.8c0,1.1,0,2.3,0,3.4c-0.1,2.6-2.2,4.7-4.9,4.8
			C96,98.9,95.4,98.8,94.6,98.8z M97.2,92.2c0-0.4,0-0.9,0-1.3c0-0.5-0.3-0.9-0.8-1c0,0,0,0,0,0c0,0-0.1,0-0.1,0c-0.9,0-1.8,0-2.7,0
			c-0.5-0.1-0.9,0.3-1,0.8c0,0,0,0,0,0c0,0,0,0.1,0,0.1c0,0.9,0,1.9,0,2.8c0,0.5,0.3,0.9,0.8,0.9c0,0,0.1,0,0.1,0c1,0,1.9,0,2.9,0
			c0.5,0,0.9-0.3,0.9-0.8v-0.1C97.2,93.2,97.2,92.7,97.2,92.2L97.2,92.2z"/>
		<path id="Path_122980" class="st1" d="M112,81.7c-1.3,0.2-2.6,0-3.7-0.5c-1.6-0.7-2.6-2.2-2.8-3.9c-0.1-1.5-0.1-3,0-4.5
			c0.4-2.4,2.5-4.2,4.9-4.3c1,0,1.9,0,2.9,0c2.8-0.1,5.1,2,5.3,4.8c0.1,1.3,0.1,2.7-0.1,4c-0.3,2.4-2.3,4.3-4.8,4.4
			C113.2,81.7,112.6,81.7,112,81.7z M112,77.4h1.4c0.7,0,1-0.3,1-1c0-0.9,0-1.8,0-2.7c0-0.5-0.4-0.9-0.9-1c0,0,0,0,0,0
			c0,0-0.1,0-0.1,0c-0.9,0-1.8,0-2.8,0c-0.5,0-0.9,0.4-1,0.9c0,0,0,0.1,0,0.1c0,0.9,0,1.8,0,2.7c0,0.5,0.3,0.9,0.8,1
			c0,0,0.1,0,0.1,0C111.1,77.5,111.5,77.4,112,77.4L112,77.4z"/>
		<path id="Path_122981" class="st1" d="M77.5,99c-1.2-0.1-2.3-0.3-3.5-0.6C72.2,97.7,71,95.9,71,94c-0.1-1.4,0-2.8,0.1-4.2
			c0.3-2.2,2.1-3.9,4.4-4c1.5-0.2,3-0.1,4.4,0.1c2.4,0.3,4.3,2.4,4.3,4.9c0,1.1,0,2.1,0,3.2c-0.1,2.8-2.4,5-5.1,5h-1.5L77.5,99z
			 M79.9,92.3L79.9,92.3v-1.4c0-0.5-0.3-0.9-0.8-0.9c0,0,0,0,0,0c0,0-0.1,0-0.1,0c-1,0-1.9,0-2.9,0c-0.5,0-0.9,0.3-0.9,0.8
			c0,0,0,0.1,0,0.1c0,0.9,0,1.9,0,2.8c0,0.5,0.3,0.9,0.8,0.9c0,0,0.1,0,0.1,0c1,0,1.9,0,2.9,0c0.5,0,0.9-0.3,0.9-0.8c0,0,0,0,0,0
			c0,0,0-0.1,0-0.1C79.9,93.2,79.9,92.8,79.9,92.3L79.9,92.3z"/>
		<path id="Path_122982" class="st1" d="M94.8,81.7c-1.3,0.2-2.7-0.1-3.9-0.7c-1.6-0.8-2.6-2.5-2.7-4.3c0-1.1,0-2.2,0-3.3
			c0.1-2.8,2.3-5,5.1-5c1.3,0,2.5,0,3.8,0.1c2.4,0.4,4.2,2.4,4.3,4.9c0,1,0,2.1,0,3.1c0,2.7-2.2,5-5,5
			C95.9,81.7,95.4,81.7,94.8,81.7z M97.2,75.2c0-0.5,0-0.9,0-1.4c0.1-0.5-0.3-0.9-0.8-1c-0.1,0-0.1,0-0.2,0c-0.9,0-1.8,0-2.6,0
			c-0.5-0.1-1,0.3-1,0.8c0,0.1,0,0.2,0,0.2c0,0.8,0,1.5,0,2.3c-0.2,1,0.4,1.4,1.3,1.4c0.8,0,1.6,0,2.4-0.1c0.5,0,0.9-0.3,0.9-0.8
			c0,0,0,0,0,0c0-0.1,0-0.1,0-0.2C97.2,76.1,97.2,75.6,97.2,75.2L97.2,75.2z"/>
	</g>
	<g id="Grupo_56650" transform="translate(440.612 1642.598)">
		<path id="Path_122972-2" class="st1" d="M129.4,59.9v46.8c0.2,1.2-0.6,2.3-1.8,2.5c-0.2,0-0.5,0-0.7,0c-6,0-12.1,0-18.1,0H68.3
			c-7.9,0-15.8,0-23.7,0c-0.4-0.1-0.8,0.2-1,0.6c-4.1,8.6-14.4,12.3-23,8.2c-2.5-1.2-4.6-2.9-6.3-5.1c-0.7-1-1.4-2.1-2-3.2
			c-0.1-0.3-0.5-0.6-0.9-0.5c-3,0-6,0-9.1,0c-1.2,0.2-2.3-0.7-2.4-1.9c0-0.2,0-0.4,0-0.6V13.2c-0.2-1.2,0.7-2.3,1.9-2.5
			c0.2,0,0.4,0,0.6,0c3,0,6,0,9,0c0.4,0,0.7-0.2,0.8-0.5c2.5-5.7,7.9-9.5,14.1-10.1c6.9-0.7,13.5,2.8,16.8,8.9
			c0.2,0.2,0.3,0.5,0.4,0.7c0.2,1,0.9,1.1,1.8,1.1c7.1,0,14.2,0,21.3,0h60.2c1.8,0,2.6,0.8,2.6,2.6c0,9.3,0,18.6,0,27.9
			C129.4,47.4,129.4,53.7,129.4,59.9L129.4,59.9z M125.1,105V15H45.2v90L125.1,105z M15,59.9L15,59.9l0,5.3c0,6.8,0,13.6,0,20.3
			c0,5.4,0,10.9,0,16.3c-0.1,2.7,0.6,5.3,2,7.6c2.5,4.3,7.4,6.6,12.3,6c6.7-0.6,11.8-6.3,11.8-13V17.9c0-0.8,0-1.7-0.2-2.5
			C40,8.7,34,3.8,27.2,4.3C22.4,4.5,18,7.5,16.1,12c-0.9,2-1.3,4.2-1.1,6.4C15,32.2,15,46,15,59.9L15,59.9z M10.8,104.9V15H5.2
			c-0.9,0-0.9,0-0.9,0.9V105L10.8,104.9z"/>
		<path id="Path_122973-2" class="st1" d="M94.8,47.2H73.7c-1.2,0.1-2.3-0.7-2.4-1.9c0-0.2,0-0.3,0-0.5c0-7,0-14,0-21
			c-0.1-1.2,0.7-2.2,1.9-2.3c0.1,0,0.3,0,0.4,0c9.8,0,19.6,0,29.4,0c4.3,0,8.7,0,13,0c1.2-0.2,2.3,0.7,2.5,1.9c0,0,0,0,0,0
			c0,0.2,0,0.4,0,0.6v20.7c0.2,1.2-0.7,2.3-1.9,2.5c-0.2,0-0.4,0-0.6,0c-6.2,0-12.5,0-18.7,0L94.8,47.2L94.8,47.2z M75.5,42.9h14.4
			c7.8,0,15.7,0,23.5,0c0.6,0,0.7-0.1,0.7-0.7c0-5.3,0-10.6,0-15.8c0-0.5-0.1-0.7-0.6-0.6c-5.1,0-10.2,0-15.3,0H75.5V42.9z"/>
		<path id="Path_122974-2" class="st1" d="M105.4,58c0-0.8,0.1-1.5,0.2-2.3c0.3-2.4,2.4-4.2,4.8-4.3c1.2-0.1,2.3-0.1,3.5,0
			c2.6,0.1,4.6,2.1,4.8,4.7c0.1,1.3,0.1,2.6,0,3.9c-0.2,2.5-2.2,4.5-4.7,4.6c-1.4,0.1-2.7,0.1-4.1-0.1c-2.5-0.3-4.4-2.4-4.4-5
			C105.4,59,105.4,58.5,105.4,58L105.4,58z M112,60.4L112,60.4c0.5,0,1,0,1.4,0c0.5,0,0.9-0.3,1-0.9c0,0,0,0,0,0c0,0,0-0.1,0-0.1
			c0-0.9,0-1.7,0-2.6c0-0.5-0.3-1-0.9-1c-0.1,0-0.1,0-0.2,0c-0.9,0-1.8,0-2.6,0c-0.7,0-1,0.3-1,1c0,0.8,0,1.7,0,2.5
			c-0.1,0.6,0.3,1,0.9,1.1c0.1,0,0.1,0,0.2,0C111.2,60.4,111.6,60.4,112,60.4L112,60.4z"/>
		<path id="Path_122975-2" class="st1" d="M70.9,58c0-0.9,0.1-1.7,0.2-2.5c0.4-2.2,2.3-3.9,4.5-4c1.2-0.1,2.5-0.1,3.7,0
			c2.7,0.2,4.8,2.4,4.8,5.2c0,0.9,0,1.8,0,2.7c0.1,2.7-1.9,5-4.5,5.2c-1.7,0.2-3.3,0.1-5-0.2c-2.1-0.5-3.6-2.4-3.7-4.6
			C71,59.2,71,58.6,70.9,58L70.9,58z M77.7,55.7L77.7,55.7c-0.5,0-1,0-1.5,0c-0.5,0-0.9,0.3-0.9,0.8c0,0,0,0,0,0c0,0.1,0,0.1,0,0.2
			c0,0.9,0,1.8,0,2.8c0,0.5,0.3,0.9,0.8,0.9c0,0,0,0,0,0c0,0,0.1,0,0.1,0c1,0,2,0,2.9,0c0.4,0,0.8-0.3,0.8-0.8c0,0,0,0,0,0v-0.1
			c0-1,0-2,0-2.9c0-0.4-0.3-0.8-0.7-0.8c0,0,0,0,0,0c0,0-0.1,0-0.1,0C78.6,55.7,78.2,55.7,77.7,55.7L77.7,55.7z"/>
		<path id="Path_122976-2" class="st1" d="M101.4,58c0,0.7,0,1.5,0,2.2c-0.3,2.4-2.2,4.2-4.7,4.4c-1.4,0.1-2.8,0.1-4.1-0.1
			c-2.4-0.3-4.3-2.3-4.3-4.7c0-1.2,0-2.4,0-3.6c0.2-2.6,2.3-4.6,4.9-4.7c1.3-0.1,2.5-0.1,3.8,0.1c2.5,0.3,4.4,2.3,4.5,4.9
			C101.4,56.9,101.4,57.4,101.4,58L101.4,58z M94.8,55.7L94.8,55.7l-1.2,0c0,0-0.1,0-0.1,0c-0.7,0-1,0.3-1,1c0,0.9,0,1.8,0,2.7
			c-0.1,0.5,0.3,0.9,0.8,1c0,0,0.1,0,0.1,0c1,0,1.9,0,2.9,0c0.4,0,0.8-0.3,0.9-0.8c0,0,0,0,0,0v-0.1c0-1,0-2,0-2.9
			c0-0.4-0.3-0.8-0.8-0.8c0,0-0.1,0-0.1,0C95.8,55.7,95.3,55.7,94.8,55.7L94.8,55.7z"/>
		<path id="Path_122977-2" class="st1" d="M112,98.9c-1,0-1.9-0.1-2.9-0.3c-2-0.5-3.4-2.1-3.6-4.2c-0.2-1.5-0.2-3,0-4.4
			c0.3-2.3,2.1-4.1,4.5-4.3c1.4-0.1,2.7-0.1,4.1,0c2.5,0.2,4.4,2.2,4.5,4.7c0.1,1.3,0.1,2.7-0.1,4c-0.3,2.5-2.5,4.4-5,4.4L112,98.9
			L112,98.9z M112,94.6c0.5,0,1,0,1.4,0c0.5,0,0.9-0.4,1-0.9c0,0,0,0,0,0c0,0,0-0.1,0-0.1c0-0.9,0-1.8,0-2.7c0-0.5-0.4-0.9-0.9-1
			c0,0-0.1,0-0.1,0c-0.9,0-1.8,0-2.7,0c-0.5,0-0.9,0.3-1,0.8c0,0,0,0,0,0v0.1c0,0.9,0,1.8,0,2.8c0,0.5,0.3,0.9,0.8,1
			c0.1,0,0.1,0,0.2,0C111.1,94.6,111.6,94.6,112,94.6L112,94.6z"/>
		<path id="Path_122978-2" class="st1" d="M77.6,81.8c-0.9,0-1.9-0.1-2.8-0.3C72.6,81,71.1,79,71,76.8c0-1,0-2.1,0-3.1
			c0-2.8,2.3-5.1,5.1-5.1c0,0,0,0,0,0h0c1.3-0.1,2.6,0,3.9,0.1c2.2,0.4,4,2.2,4.1,4.5c0.1,1.3,0.1,2.7,0,4c-0.2,2.5-2.2,4.4-4.7,4.5
			c-0.6,0-1.2,0-1.8,0L77.6,81.8z M77.6,77.4h1.3c0.7,0,1-0.3,1-1c0-0.9,0-1.7,0-2.6c0-0.7-0.3-1.1-1.1-1.1c-0.9,0-1.7,0-2.6,0
			c-0.5-0.1-0.9,0.3-1,0.8c0,0,0,0,0,0c0,0,0,0.1,0,0.1c0,0.9,0,1.8,0,2.7c0,0.5,0.3,0.9,0.8,0.9c0,0,0,0,0,0c0.1,0,0.1,0,0.2,0
			C76.7,77.5,77.1,77.4,77.6,77.4L77.6,77.4z"/>
		<path id="Path_122979-2" class="st1" d="M94.6,98.8c-1.3,0.2-2.7-0.1-3.9-0.7c-1.4-0.9-2.4-2.4-2.4-4.1c-0.1-1.1,0-2.2,0-3.3
			c0-2.5,1.9-4.7,4.4-5c1.5-0.2,3-0.1,4.5,0c2.4,0.3,4.2,2.4,4.3,4.8c0,1.1,0,2.3,0,3.4c-0.1,2.6-2.2,4.7-4.9,4.8
			C96,98.9,95.4,98.8,94.6,98.8z M97.2,92.2c0-0.4,0-0.9,0-1.3c0-0.5-0.3-0.9-0.8-1c0,0,0,0,0,0c0,0-0.1,0-0.1,0c-0.9,0-1.8,0-2.7,0
			c-0.5-0.1-0.9,0.3-1,0.8c0,0,0,0,0,0c0,0,0,0.1,0,0.1c0,0.9,0,1.9,0,2.8c0,0.5,0.3,0.9,0.8,0.9c0,0,0.1,0,0.1,0c1,0,1.9,0,2.9,0
			c0.5,0,0.9-0.3,0.9-0.8v-0.1C97.2,93.2,97.2,92.7,97.2,92.2L97.2,92.2z"/>
		<path id="Path_122980-2" class="st1" d="M112,81.7c-1.3,0.2-2.6,0-3.7-0.5c-1.6-0.7-2.6-2.2-2.8-3.9c-0.1-1.5-0.1-3,0-4.5
			c0.4-2.4,2.5-4.2,4.9-4.2c1,0,1.9,0,2.9,0c2.8-0.1,5.1,2,5.3,4.8c0.1,1.3,0.1,2.7-0.1,4c-0.3,2.4-2.3,4.3-4.8,4.4
			C113.2,81.7,112.6,81.7,112,81.7z M112,77.4h1.4c0.7,0,1-0.3,1-1c0-0.9,0-1.8,0-2.7c0-0.5-0.4-0.9-0.9-1c0,0,0,0,0,0
			c0,0-0.1,0-0.1,0c-0.9,0-1.8,0-2.8,0c-0.5,0-0.9,0.4-1,0.9c0,0,0,0.1,0,0.1c0,0.9,0,1.8,0,2.7c0,0.5,0.3,0.9,0.8,1c0,0,0,0,0,0
			c0,0,0.1,0,0.1,0C111.1,77.5,111.5,77.4,112,77.4L112,77.4z"/>
		<path id="Path_122981-2" class="st1" d="M77.5,99c-1.2-0.1-2.3-0.3-3.5-0.6C72.2,97.7,71,95.9,71,94c-0.1-1.4,0-2.8,0.1-4.2
			c0.3-2.2,2.1-3.9,4.3-4c1.5-0.2,3-0.1,4.4,0.1c2.4,0.3,4.3,2.4,4.3,4.9c0,1.1,0,2.1,0,3.2c-0.1,2.8-2.4,5-5.1,5h-1.5L77.5,99z
			 M79.9,92.3L79.9,92.3v-1.4c0-0.5-0.3-0.9-0.8-0.9c0,0,0,0,0,0c0,0-0.1,0-0.1,0c-1,0-1.9,0-2.9,0c-0.5,0-0.9,0.3-0.9,0.8
			c0,0,0,0.1,0,0.1c0,0.9,0,1.9,0,2.8c0,0.5,0.3,0.9,0.8,0.9c0,0,0,0,0,0c0,0,0.1,0,0.1,0c1,0,1.9,0,2.9,0c0.5,0,0.9-0.3,0.9-0.8
			c0,0,0,0,0,0c0,0,0-0.1,0-0.1C79.9,93.2,79.9,92.8,79.9,92.3L79.9,92.3z"/>
		<path id="Path_122982-2" class="st1" d="M94.8,81.7c-1.3,0.2-2.7-0.1-3.9-0.7c-1.6-0.8-2.6-2.5-2.7-4.3c0-1.1,0-2.2,0-3.3
			c0.1-2.8,2.3-5,5.1-5c1.3,0,2.5,0,3.8,0.1c2.4,0.4,4.2,2.4,4.3,4.9c0,1,0,2.1,0,3.1c0,2.7-2.2,5-5,5
			C95.9,81.7,95.4,81.7,94.8,81.7z M97.2,75.2c0-0.5,0-0.9,0-1.4c0.1-0.5-0.3-0.9-0.8-1c-0.1,0-0.1,0-0.2,0c-0.9,0-1.8,0-2.6,0
			c-0.5-0.1-1,0.3-1,0.8c0,0,0,0,0,0c0,0.1,0,0.2,0,0.2c0.1,0.8,0,1.5,0,2.3c-0.2,1,0.4,1.4,1.3,1.4c0.8,0,1.6,0,2.4-0.1
			c0.5,0,0.9-0.3,0.9-0.8c0,0,0-0.1,0-0.2C97.2,76.1,97.2,75.6,97.2,75.2L97.2,75.2z"/>
	</g>
	<g class="st2">
		<path class="st1" d="M745.6,1260.4H743v-5.5h-5.1v5.5h-2.6v-12.8h2.6v5.2h5.1v-5.2h2.6V1260.4z"/>
		<path class="st1" d="M747.9,1259.1c0-0.4,0.1-0.7,0.4-1s0.6-0.4,1-0.4c0.4,0,0.8,0.1,1,0.4s0.4,0.6,0.4,1c0,0.4-0.1,0.7-0.4,1
			c-0.3,0.2-0.6,0.4-1,0.4c-0.4,0-0.8-0.1-1-0.4C748,1259.8,747.9,1259.5,747.9,1259.1z"/>
		<path class="st1" d="M755.5,1252.8h1.4c0.6,0,1.1-0.2,1.4-0.5s0.5-0.8,0.5-1.3c0-0.5-0.2-0.9-0.5-1.2s-0.7-0.4-1.3-0.4
			c-0.5,0-0.9,0.1-1.2,0.4c-0.3,0.3-0.5,0.6-0.5,1h-2.5c0-0.7,0.2-1.3,0.5-1.8c0.4-0.5,0.9-0.9,1.5-1.2s1.4-0.4,2.1-0.4
			c1.4,0,2.4,0.3,3.2,1c0.8,0.6,1.2,1.5,1.2,2.7c0,0.6-0.2,1.1-0.5,1.6s-0.8,0.9-1.4,1.1c0.7,0.3,1.3,0.6,1.6,1.2s0.5,1.1,0.5,1.8
			c0,1.1-0.4,2-1.2,2.7s-1.9,1-3.3,1c-1.3,0-2.3-0.3-3.1-1s-1.2-1.6-1.2-2.7h2.5c0,0.5,0.2,0.9,0.5,1.2s0.8,0.5,1.3,0.5
			c0.6,0,1.1-0.2,1.4-0.5c0.3-0.3,0.5-0.7,0.5-1.3c0-1.3-0.7-1.9-2.1-1.9h-1.3V1252.8z"/>
		<path class="st1" d="M772,1260.4h-8.8v-1.7l4.1-4.4c0.6-0.6,1-1.2,1.3-1.6s0.4-0.9,0.4-1.3c0-0.6-0.1-1-0.4-1.3
			c-0.3-0.3-0.7-0.5-1.2-0.5c-0.6,0-1,0.2-1.4,0.6c-0.3,0.4-0.5,0.9-0.5,1.6H763c0-0.8,0.2-1.5,0.6-2.1s0.9-1.1,1.6-1.5
			c0.7-0.4,1.5-0.5,2.3-0.5c1.3,0,2.3,0.3,3.1,0.9s1.1,1.5,1.1,2.7c0,0.6-0.2,1.3-0.5,1.9s-0.9,1.4-1.7,2.3l-2.9,3.1h5.5V1260.4z"/>
		<path class="st1" d="M776.1,1252.8h1.4c0.6,0,1.1-0.2,1.4-0.5s0.5-0.8,0.5-1.3c0-0.5-0.2-0.9-0.5-1.2s-0.7-0.4-1.3-0.4
			c-0.5,0-0.9,0.1-1.2,0.4c-0.3,0.3-0.5,0.6-0.5,1h-2.5c0-0.7,0.2-1.3,0.5-1.8c0.4-0.5,0.9-0.9,1.5-1.2s1.4-0.4,2.1-0.4
			c1.4,0,2.4,0.3,3.2,1c0.8,0.6,1.2,1.5,1.2,2.7c0,0.6-0.2,1.1-0.5,1.6s-0.8,0.9-1.4,1.1c0.7,0.3,1.3,0.6,1.6,1.2s0.5,1.1,0.5,1.8
			c0,1.1-0.4,2-1.2,2.7s-1.9,1-3.3,1c-1.3,0-2.3-0.3-3.1-1s-1.2-1.6-1.2-2.7h2.5c0,0.5,0.2,0.9,0.5,1.2s0.8,0.5,1.3,0.5
			c0.6,0,1.1-0.2,1.4-0.5c0.3-0.3,0.5-0.7,0.5-1.3c0-1.3-0.7-1.9-2.1-1.9h-1.3V1252.8z"/>
		<path class="st1" d="M797.7,1249.7h-3.9v10.7h-2.6v-10.7h-3.9v-2.1h10.4V1249.7z"/>
		<path class="st1" d="M803.4,1260.5c-1.4,0-2.5-0.4-3.4-1.3s-1.3-2-1.3-3.4v-0.2c0-1,0.2-1.8,0.6-2.6s0.9-1.3,1.6-1.7
			s1.4-0.6,2.3-0.6c1.3,0,2.3,0.4,3.1,1.2s1.1,2,1.1,3.5v1h-6.1c0.1,0.6,0.3,1.1,0.7,1.5s0.9,0.6,1.6,0.6c1,0,1.7-0.4,2.3-1.1
			l1.2,1.4c-0.4,0.5-0.9,1-1.5,1.3C805,1260.4,804.2,1260.5,803.4,1260.5z M803.2,1252.7c-0.5,0-0.9,0.2-1.2,0.5
			c-0.3,0.3-0.5,0.8-0.6,1.5h3.5v-0.2c0-0.6-0.2-1-0.5-1.3C804.1,1252.9,803.7,1252.7,803.2,1252.7z"/>
		<path class="st1" d="M814.1,1253.2c-0.3,0-0.7-0.1-0.9-0.1c-1,0-1.6,0.3-1.9,1v6.2h-2.5v-9.5h2.4l0.1,1.1c0.5-0.9,1.2-1.3,2.1-1.3
			c0.3,0,0.5,0,0.8,0.1L814.1,1253.2z"/>
		<path class="st1" d="M817.7,1250.9l0.1,1.1c0.7-0.8,1.6-1.2,2.7-1.2c1.2,0,2.1,0.5,2.5,1.5c0.7-1,1.6-1.5,2.9-1.5
			c1,0,1.8,0.3,2.3,0.9c0.5,0.6,0.8,1.5,0.8,2.7v6.1h-2.5v-6.1c0-0.5-0.1-0.9-0.3-1.2s-0.6-0.4-1.1-0.4c-0.8,0-1.3,0.4-1.6,1.1
			l0,6.5h-2.5v-6.1c0-0.6-0.1-0.9-0.3-1.2s-0.6-0.4-1.1-0.4c-0.7,0-1.2,0.3-1.6,0.9v6.7h-2.5v-9.5H817.7z"/>
		<path class="st1" d="M830.9,1248.4c0-0.4,0.1-0.7,0.4-0.9s0.6-0.4,1-0.4c0.4,0,0.8,0.1,1,0.4s0.4,0.6,0.4,0.9
			c0,0.4-0.1,0.7-0.4,0.9s-0.6,0.4-1,0.4s-0.8-0.1-1-0.4S830.9,1248.8,830.9,1248.4z M833.6,1260.4h-2.5v-9.5h2.5V1260.4z"/>
		<path class="st1" d="M838.1,1250.9l0.1,1.1c0.7-0.8,1.6-1.3,2.7-1.3c1,0,1.8,0.3,2.2,0.9s0.7,1.5,0.8,2.7v6.1h-2.5v-6.1
			c0-0.5-0.1-0.9-0.4-1.2c-0.2-0.2-0.6-0.4-1.2-0.4c-0.7,0-1.3,0.3-1.6,0.9v6.7h-2.5v-9.5H838.1z"/>
		<path class="st1" d="M851.3,1260.4c-0.1-0.2-0.2-0.5-0.3-0.9c-0.6,0.7-1.4,1-2.4,1c-0.9,0-1.7-0.3-2.3-0.8s-0.9-1.2-0.9-2
			c0-1,0.4-1.8,1.1-2.3s1.8-0.8,3.2-0.8h1.2v-0.5c0-0.4-0.1-0.8-0.3-1.1s-0.6-0.4-1.1-0.4c-0.4,0-0.8,0.1-1,0.3s-0.4,0.5-0.4,0.8
			h-2.5c0-0.6,0.2-1.1,0.5-1.5s0.8-0.8,1.4-1.1s1.3-0.4,2.1-0.4c1.2,0,2.1,0.3,2.8,0.9c0.7,0.6,1,1.4,1,2.5v4.1c0,0.9,0.1,1.6,0.4,2
			v0.1H851.3z M849.2,1258.6c0.4,0,0.7-0.1,1-0.3c0.3-0.2,0.6-0.4,0.7-0.7v-1.6H850c-1.3,0-1.9,0.4-2,1.3l0,0.1
			c0,0.3,0.1,0.6,0.3,0.8S848.8,1258.6,849.2,1258.6z"/>
		<path class="st1" d="M858.1,1260.4h-2.5v-13.5h2.5V1260.4z"/>
	</g>
	<g class="st2">
		<path class="st1" d="M591.9,1713.3h-2.6v-5.5h-5.1v5.5h-2.6v-12.8h2.6v5.2h5.1v-5.2h2.6V1713.3z"/>
		<path class="st1" d="M594.1,1712.1c0-0.4,0.1-0.7,0.4-1s0.6-0.4,1-0.4c0.4,0,0.8,0.1,1,0.4s0.4,0.6,0.4,1c0,0.4-0.1,0.7-0.4,1
			c-0.3,0.2-0.6,0.4-1,0.4c-0.4,0-0.8-0.1-1-0.4C594.3,1712.8,594.1,1712.4,594.1,1712.1z"/>
		<path class="st1" d="M601.7,1705.8h1.4c0.6,0,1.1-0.2,1.4-0.5s0.5-0.8,0.5-1.3c0-0.5-0.2-0.9-0.5-1.2s-0.7-0.4-1.3-0.4
			c-0.5,0-0.9,0.1-1.2,0.4c-0.3,0.3-0.5,0.6-0.5,1H599c0-0.7,0.2-1.3,0.5-1.8c0.4-0.5,0.9-0.9,1.5-1.2s1.4-0.4,2.1-0.4
			c1.4,0,2.4,0.3,3.2,1c0.8,0.6,1.2,1.5,1.2,2.7c0,0.6-0.2,1.1-0.5,1.6s-0.8,0.9-1.4,1.1c0.7,0.3,1.3,0.6,1.6,1.2s0.5,1.1,0.5,1.8
			c0,1.1-0.4,2-1.2,2.7s-1.9,1-3.3,1c-1.3,0-2.3-0.3-3.1-1s-1.2-1.6-1.2-2.7h2.5c0,0.5,0.2,0.9,0.5,1.2s0.8,0.5,1.3,0.5
			c0.6,0,1.1-0.2,1.4-0.5c0.3-0.3,0.5-0.7,0.5-1.3c0-1.3-0.7-1.9-2.1-1.9h-1.3V1705.8z"/>
		<path class="st1" d="M618.2,1713.3h-8.8v-1.7l4.1-4.4c0.6-0.6,1-1.2,1.3-1.6s0.4-0.9,0.4-1.3c0-0.6-0.1-1-0.4-1.3
			c-0.3-0.3-0.7-0.5-1.2-0.5c-0.6,0-1,0.2-1.4,0.6c-0.3,0.4-0.5,0.9-0.5,1.6h-2.5c0-0.8,0.2-1.5,0.6-2.1s0.9-1.2,1.6-1.5
			c0.7-0.4,1.5-0.5,2.3-0.5c1.3,0,2.3,0.3,3.1,0.9s1.1,1.5,1.1,2.7c0,0.6-0.2,1.3-0.5,1.9s-0.9,1.4-1.7,2.3l-2.9,3.1h5.5V1713.3z"/>
		<path class="st1" d="M622.4,1705.8h1.4c0.6,0,1.1-0.2,1.4-0.5s0.5-0.8,0.5-1.3c0-0.5-0.2-0.9-0.5-1.2s-0.7-0.4-1.3-0.4
			c-0.5,0-0.9,0.1-1.2,0.4c-0.3,0.3-0.5,0.6-0.5,1h-2.5c0-0.7,0.2-1.3,0.5-1.8c0.4-0.5,0.9-0.9,1.5-1.2s1.4-0.4,2.1-0.4
			c1.4,0,2.4,0.3,3.2,1c0.8,0.6,1.2,1.5,1.2,2.7c0,0.6-0.2,1.1-0.5,1.6s-0.8,0.9-1.4,1.1c0.7,0.3,1.3,0.6,1.6,1.2s0.5,1.1,0.5,1.8
			c0,1.1-0.4,2-1.2,2.7s-1.9,1-3.3,1c-1.3,0-2.3-0.3-3.1-1s-1.2-1.6-1.2-2.7h2.5c0,0.5,0.2,0.9,0.5,1.2s0.8,0.5,1.3,0.5
			c0.6,0,1.1-0.2,1.4-0.5c0.3-0.3,0.5-0.7,0.5-1.3c0-1.3-0.7-1.9-2.1-1.9h-1.3V1705.8z"/>
		<path class="st1" d="M644,1702.6H640v10.7h-2.6v-10.7h-3.9v-2.1H644V1702.6z"/>
		<path class="st1" d="M649.7,1713.5c-1.4,0-2.5-0.4-3.4-1.3s-1.3-2-1.3-3.4v-0.2c0-1,0.2-1.8,0.6-2.6c0.4-0.8,0.9-1.3,1.6-1.7
			c0.7-0.4,1.4-0.6,2.3-0.6c1.3,0,2.3,0.4,3.1,1.2s1.1,2,1.1,3.5v1h-6.1c0.1,0.6,0.3,1.1,0.7,1.5s0.9,0.6,1.6,0.6
			c1,0,1.7-0.4,2.3-1.1l1.2,1.4c-0.4,0.5-0.9,1-1.5,1.3C651.2,1713.3,650.5,1713.5,649.7,1713.5z M649.4,1705.7
			c-0.5,0-0.9,0.2-1.2,0.5s-0.5,0.8-0.6,1.5h3.5v-0.2c0-0.6-0.2-1-0.5-1.3S649.9,1705.7,649.4,1705.7z"/>
		<path class="st1" d="M660.4,1706.2c-0.3,0-0.7-0.1-0.9-0.1c-1,0-1.6,0.3-1.9,1v6.2H655v-9.5h2.4l0.1,1.1c0.5-0.9,1.2-1.3,2.1-1.3
			c0.3,0,0.5,0,0.8,0.1L660.4,1706.2z"/>
		<path class="st1" d="M664,1703.8l0.1,1.1c0.7-0.8,1.6-1.2,2.7-1.2c1.2,0,2.1,0.5,2.5,1.5c0.7-1,1.6-1.5,2.9-1.5
			c1,0,1.8,0.3,2.3,0.9c0.5,0.6,0.8,1.5,0.8,2.7v6.1h-2.5v-6.1c0-0.5-0.1-0.9-0.3-1.2c-0.2-0.2-0.6-0.4-1.1-0.4
			c-0.8,0-1.3,0.4-1.6,1.1l0,6.5h-2.5v-6.1c0-0.6-0.1-0.9-0.3-1.2s-0.6-0.4-1.1-0.4c-0.7,0-1.2,0.3-1.6,0.9v6.7h-2.5v-9.5H664z"/>
		<path class="st1" d="M677.2,1701.3c0-0.4,0.1-0.7,0.4-0.9s0.6-0.4,1-0.4c0.4,0,0.8,0.1,1,0.4s0.4,0.6,0.4,0.9
			c0,0.4-0.1,0.7-0.4,0.9s-0.6,0.4-1,0.4s-0.8-0.1-1-0.4S677.2,1701.7,677.2,1701.3z M679.9,1713.3h-2.5v-9.5h2.5V1713.3z"/>
		<path class="st1" d="M684.3,1703.8l0.1,1.1c0.7-0.8,1.6-1.3,2.7-1.3c1,0,1.8,0.3,2.2,0.9s0.7,1.5,0.8,2.7v6.1h-2.5v-6.1
			c0-0.5-0.1-0.9-0.4-1.2c-0.2-0.2-0.6-0.4-1.2-0.4c-0.7,0-1.3,0.3-1.6,0.9v6.7h-2.5v-9.5H684.3z"/>
		<path class="st1" d="M697.5,1713.3c-0.1-0.2-0.2-0.5-0.3-0.9c-0.6,0.7-1.4,1-2.4,1c-0.9,0-1.7-0.3-2.3-0.8s-0.9-1.2-0.9-2
			c0-1,0.4-1.8,1.1-2.3s1.8-0.8,3.2-0.8h1.2v-0.5c0-0.4-0.1-0.8-0.3-1.1s-0.6-0.4-1.1-0.4c-0.4,0-0.8,0.1-1,0.3s-0.4,0.5-0.4,0.8
			h-2.5c0-0.6,0.2-1.1,0.5-1.5s0.8-0.8,1.4-1.1c0.6-0.3,1.3-0.4,2.1-0.4c1.2,0,2.1,0.3,2.8,0.9c0.7,0.6,1,1.4,1,2.5v4.1
			c0,0.9,0.1,1.6,0.4,2v0.1H697.5z M695.4,1711.5c0.4,0,0.7-0.1,1-0.3c0.3-0.2,0.6-0.4,0.7-0.7v-1.6h-0.9c-1.3,0-1.9,0.4-2,1.3
			l0,0.2c0,0.3,0.1,0.6,0.3,0.8S695.1,1711.5,695.4,1711.5z"/>
		<path class="st1" d="M704.4,1713.3h-2.5v-13.5h2.5V1713.3z"/>
	</g>
	<g class="st2">
		<path class="st1" d="M386,1552h-2.6v-5.5h-5.1v5.5h-2.6v-12.8h2.6v5.2h5.1v-5.2h2.6V1552z"/>
		<path class="st1" d="M388.3,1550.7c0-0.4,0.1-0.7,0.4-1s0.6-0.4,1-0.4c0.4,0,0.8,0.1,1,0.4s0.4,0.6,0.4,1c0,0.4-0.1,0.7-0.4,1
			c-0.3,0.2-0.6,0.4-1,0.4c-0.4,0-0.8-0.1-1-0.4C388.4,1551.4,388.3,1551.1,388.3,1550.7z"/>
		<path class="st1" d="M395.8,1544.4h1.4c0.6,0,1.1-0.2,1.4-0.5s0.5-0.8,0.5-1.3c0-0.5-0.2-0.9-0.5-1.2s-0.7-0.4-1.3-0.4
			c-0.5,0-0.9,0.1-1.2,0.4c-0.3,0.3-0.5,0.6-0.5,1h-2.5c0-0.7,0.2-1.3,0.5-1.8c0.4-0.5,0.9-0.9,1.5-1.2s1.4-0.4,2.1-0.4
			c1.4,0,2.4,0.3,3.2,1c0.8,0.6,1.2,1.5,1.2,2.7c0,0.6-0.2,1.1-0.5,1.6s-0.8,0.9-1.4,1.1c0.7,0.3,1.3,0.6,1.6,1.2s0.5,1.1,0.5,1.8
			c0,1.1-0.4,2-1.2,2.7s-1.9,1-3.3,1c-1.3,0-2.3-0.3-3.1-1s-1.2-1.6-1.2-2.7h2.5c0,0.5,0.2,0.9,0.5,1.2s0.8,0.5,1.3,0.5
			c0.6,0,1.1-0.2,1.4-0.5c0.3-0.3,0.5-0.7,0.5-1.3c0-1.3-0.7-1.9-2.1-1.9h-1.3V1544.4z"/>
		<path class="st1" d="M412.3,1552h-8.8v-1.7l4.1-4.4c0.6-0.6,1-1.2,1.3-1.6s0.4-0.9,0.4-1.3c0-0.6-0.1-1-0.4-1.3
			c-0.3-0.3-0.7-0.5-1.2-0.5c-0.6,0-1,0.2-1.4,0.6c-0.3,0.4-0.5,0.9-0.5,1.6h-2.5c0-0.8,0.2-1.5,0.6-2.1s0.9-1.1,1.6-1.5
			c0.7-0.4,1.5-0.5,2.3-0.5c1.3,0,2.3,0.3,3.1,0.9s1.1,1.5,1.1,2.7c0,0.6-0.2,1.3-0.5,1.9s-0.9,1.4-1.7,2.3l-2.9,3.1h5.5V1552z"/>
		<path class="st1" d="M416.5,1544.4h1.4c0.6,0,1.1-0.2,1.4-0.5s0.5-0.8,0.5-1.3c0-0.5-0.2-0.9-0.5-1.2s-0.7-0.4-1.3-0.4
			c-0.5,0-0.9,0.1-1.2,0.4c-0.3,0.3-0.5,0.6-0.5,1h-2.5c0-0.7,0.2-1.3,0.5-1.8c0.4-0.5,0.9-0.9,1.5-1.2s1.4-0.4,2.1-0.4
			c1.4,0,2.4,0.3,3.2,1c0.8,0.6,1.2,1.5,1.2,2.7c0,0.6-0.2,1.1-0.5,1.6s-0.8,0.9-1.4,1.1c0.7,0.3,1.3,0.6,1.6,1.2s0.5,1.1,0.5,1.8
			c0,1.1-0.4,2-1.2,2.7s-1.9,1-3.3,1c-1.3,0-2.3-0.3-3.1-1s-1.2-1.6-1.2-2.7h2.5c0,0.5,0.2,0.9,0.5,1.2s0.8,0.5,1.3,0.5
			c0.6,0,1.1-0.2,1.4-0.5c0.3-0.3,0.5-0.7,0.5-1.3c0-1.3-0.7-1.9-2.1-1.9h-1.3V1544.4z"/>
		<path class="st1" d="M438.1,1541.3h-3.9v10.7h-2.6v-10.7h-3.9v-2.1h10.4V1541.3z"/>
		<path class="st1" d="M443.8,1552.1c-1.4,0-2.5-0.4-3.4-1.3s-1.3-2-1.3-3.4v-0.2c0-1,0.2-1.8,0.6-2.6s0.9-1.3,1.6-1.7
			s1.4-0.6,2.3-0.6c1.3,0,2.3,0.4,3.1,1.2s1.1,2,1.1,3.5v1h-6.1c0.1,0.6,0.3,1.1,0.7,1.5s0.9,0.6,1.6,0.6c1,0,1.7-0.4,2.3-1.1
			l1.2,1.4c-0.4,0.5-0.9,1-1.5,1.3C445.3,1552,444.6,1552.1,443.8,1552.1z M443.5,1544.3c-0.5,0-0.9,0.2-1.2,0.5
			c-0.3,0.3-0.5,0.8-0.6,1.5h3.5v-0.2c0-0.6-0.2-1-0.5-1.3C444.5,1544.5,444.1,1544.3,443.5,1544.3z"/>
		<path class="st1" d="M454.5,1544.8c-0.3,0-0.7-0.1-0.9-0.1c-1,0-1.6,0.3-1.9,1v6.2h-2.5v-9.5h2.4l0.1,1.1c0.5-0.9,1.2-1.3,2.1-1.3
			c0.3,0,0.5,0,0.8,0.1L454.5,1544.8z"/>
		<path class="st1" d="M458.1,1542.4l0.1,1.1c0.7-0.8,1.6-1.2,2.7-1.2c1.2,0,2.1,0.5,2.5,1.5c0.7-1,1.6-1.5,2.9-1.5
			c1,0,1.8,0.3,2.3,0.9c0.5,0.6,0.8,1.5,0.8,2.7v6.1h-2.5v-6.1c0-0.5-0.1-0.9-0.3-1.2s-0.6-0.4-1.1-0.4c-0.8,0-1.3,0.4-1.6,1.1
			l0,6.5h-2.5v-6.1c0-0.6-0.1-0.9-0.3-1.2s-0.6-0.4-1.1-0.4c-0.7,0-1.2,0.3-1.6,0.9v6.7h-2.5v-9.5H458.1z"/>
		<path class="st1" d="M471.3,1540c0-0.4,0.1-0.7,0.4-0.9s0.6-0.4,1-0.4c0.4,0,0.8,0.1,1,0.4s0.4,0.6,0.4,0.9c0,0.4-0.1,0.7-0.4,0.9
			s-0.6,0.4-1,0.4s-0.8-0.1-1-0.4S471.3,1540.4,471.3,1540z M474,1552h-2.5v-9.5h2.5V1552z"/>
		<path class="st1" d="M478.4,1542.4l0.1,1.1c0.7-0.8,1.6-1.3,2.7-1.3c1,0,1.8,0.3,2.2,0.9s0.7,1.5,0.8,2.7v6.1h-2.5v-6.1
			c0-0.5-0.1-0.9-0.4-1.2c-0.2-0.2-0.6-0.4-1.2-0.4c-0.7,0-1.3,0.3-1.6,0.9v6.7H476v-9.5H478.4z"/>
		<path class="st1" d="M491.7,1552c-0.1-0.2-0.2-0.5-0.3-0.9c-0.6,0.7-1.4,1-2.4,1c-0.9,0-1.7-0.3-2.3-0.8s-0.9-1.2-0.9-2
			c0-1,0.4-1.8,1.1-2.3s1.8-0.8,3.2-0.8h1.2v-0.5c0-0.4-0.1-0.8-0.3-1.1s-0.6-0.4-1.1-0.4c-0.4,0-0.8,0.1-1,0.3s-0.4,0.5-0.4,0.8
			H486c0-0.6,0.2-1.1,0.5-1.5s0.8-0.8,1.4-1.1s1.3-0.4,2.1-0.4c1.2,0,2.1,0.3,2.8,0.9c0.7,0.6,1,1.4,1,2.5v4.1c0,0.9,0.1,1.6,0.4,2
			v0.1H491.7z M489.6,1550.2c0.4,0,0.7-0.1,1-0.3c0.3-0.2,0.6-0.4,0.7-0.7v-1.6h-0.9c-1.3,0-1.9,0.4-2,1.3l0,0.1
			c0,0.3,0.1,0.6,0.3,0.8S489.2,1550.2,489.6,1550.2z"/>
		<path class="st1" d="M498.5,1552h-2.5v-13.5h2.5V1552z"/>
	</g>
	<g class="st2">
		<path class="st1" d="M896.9,1318.2h5.6v2.1h-8.2v-12.8h2.6V1318.2z"/>
		<path class="st1" d="M911.4,1317.6h-4.6l-0.9,2.6h-2.8l4.8-12.8h2.4l4.8,12.8h-2.8L911.4,1317.6z M907.5,1315.5h3.2l-1.6-4.8
			L907.5,1315.5z"/>
		<path class="st1" d="M926.7,1320.3h-2.6l-5.1-8.4v8.4h-2.6v-12.8h2.6l5.1,8.4v-8.4h2.6V1320.3z"/>
		<path class="st1" d="M938.2,1316.7h-1.7l-0.6,3.6h-1.6l0.6-3.6h-2v-1.5h2.3l0.4-2.5h-2v-1.5h2.3l0.6-3.7h1.6l-0.6,3.7h1.7l0.6-3.7
			h1.6l-0.6,3.7h1.9v1.5h-2.2l-0.4,2.5h2v1.5h-2.2l-0.6,3.6h-1.6L938.2,1316.7z M936.8,1315.2h1.7l0.4-2.5h-1.7L936.8,1315.2z"/>
		<path class="st1" d="M950.1,1320.3h-2.5v-9.8l-3,0.9v-2.1l5.3-1.9h0.3V1320.3z"/>
	</g>
	<g class="st2">
		<path class="st1" d="M898.7,1672.7h5.6v2.1H896v-12.8h2.6V1672.7z"/>
		<path class="st1" d="M913.2,1672.2h-4.6l-0.9,2.6h-2.8l4.8-12.8h2.4l4.8,12.8H914L913.2,1672.2z M909.2,1670.1h3.2l-1.6-4.8
			L909.2,1670.1z"/>
		<path class="st1" d="M928.4,1674.9h-2.6l-5.1-8.4v8.4H918v-12.8h2.6l5.1,8.4v-8.4h2.6V1674.9z"/>
		<path class="st1" d="M940,1671.3h-1.7l-0.6,3.6H936l0.6-3.6h-2v-1.5h2.3l0.4-2.5h-2v-1.5h2.3l0.6-3.7h1.6l-0.6,3.7h1.7l0.6-3.7
			h1.6l-0.6,3.7h1.9v1.5h-2.2l-0.4,2.5h2v1.5h-2.2l-0.6,3.6h-1.6L940,1671.3z M938.5,1669.7h1.7l0.4-2.5h-1.7L938.5,1669.7z"/>
		<path class="st1" d="M954.5,1674.9h-8.8v-1.7l4.1-4.4c0.6-0.6,1-1.2,1.3-1.6c0.3-0.5,0.4-0.9,0.4-1.3c0-0.6-0.1-1-0.4-1.3
			c-0.3-0.3-0.7-0.5-1.2-0.5c-0.6,0-1,0.2-1.4,0.6c-0.3,0.4-0.5,0.9-0.5,1.6h-2.5c0-0.8,0.2-1.5,0.6-2.1c0.4-0.6,0.9-1.1,1.6-1.5
			c0.7-0.4,1.5-0.5,2.3-0.5c1.3,0,2.3,0.3,3.1,0.9c0.7,0.6,1.1,1.5,1.1,2.7c0,0.6-0.2,1.3-0.5,1.9s-0.9,1.4-1.7,2.3l-2.9,3.1h5.5
			V1674.9z"/>
	</g>
	<g class="st2">
		<path class="st1" d="M381.8,1260.4h-2.6v-5.5H374v5.5h-2.6v-12.8h2.6v5.2h5.1v-5.2h2.6V1260.4z"/>
		<path class="st1" d="M384.1,1259.1c0-0.4,0.1-0.7,0.4-1s0.6-0.4,1-0.4c0.4,0,0.8,0.1,1,0.4s0.4,0.6,0.4,1c0,0.4-0.1,0.7-0.4,1
			c-0.3,0.2-0.6,0.4-1,0.4c-0.4,0-0.8-0.1-1-0.4C384.2,1259.8,384.1,1259.5,384.1,1259.1z"/>
		<path class="st1" d="M391.7,1252.8h1.4c0.6,0,1.1-0.2,1.4-0.5s0.5-0.8,0.5-1.3c0-0.5-0.2-0.9-0.5-1.2s-0.7-0.4-1.3-0.4
			c-0.5,0-0.9,0.1-1.2,0.4c-0.3,0.3-0.5,0.6-0.5,1h-2.5c0-0.7,0.2-1.3,0.5-1.8c0.4-0.5,0.9-0.9,1.5-1.2s1.4-0.4,2.1-0.4
			c1.4,0,2.4,0.3,3.2,1c0.8,0.6,1.2,1.5,1.2,2.7c0,0.6-0.2,1.1-0.5,1.6s-0.8,0.9-1.4,1.1c0.7,0.3,1.3,0.6,1.6,1.2s0.5,1.1,0.5,1.8
			c0,1.1-0.4,2-1.2,2.7s-1.9,1-3.3,1c-1.3,0-2.3-0.3-3.1-1s-1.2-1.6-1.2-2.7h2.5c0,0.5,0.2,0.9,0.5,1.2s0.8,0.5,1.3,0.5
			c0.6,0,1.1-0.2,1.4-0.5c0.3-0.3,0.5-0.7,0.5-1.3c0-1.3-0.7-1.9-2.1-1.9h-1.3V1252.8z"/>
		<path class="st1" d="M408.2,1260.4h-8.8v-1.7l4.1-4.4c0.6-0.6,1-1.2,1.3-1.6s0.4-0.9,0.4-1.3c0-0.6-0.1-1-0.4-1.3
			c-0.3-0.3-0.7-0.5-1.2-0.5c-0.6,0-1,0.2-1.4,0.6c-0.3,0.4-0.5,0.9-0.5,1.6h-2.5c0-0.8,0.2-1.5,0.6-2.1s0.9-1.1,1.6-1.5
			c0.7-0.4,1.5-0.5,2.3-0.5c1.3,0,2.3,0.3,3.1,0.9s1.1,1.5,1.1,2.7c0,0.6-0.2,1.3-0.5,1.9s-0.9,1.4-1.7,2.3l-2.9,3.1h5.5V1260.4z"/>
		<path class="st1" d="M412.3,1252.8h1.4c0.6,0,1.1-0.2,1.4-0.5s0.5-0.8,0.5-1.3c0-0.5-0.2-0.9-0.5-1.2s-0.7-0.4-1.3-0.4
			c-0.5,0-0.9,0.1-1.2,0.4c-0.3,0.3-0.5,0.6-0.5,1h-2.5c0-0.7,0.2-1.3,0.5-1.8c0.4-0.5,0.9-0.9,1.5-1.2s1.4-0.4,2.1-0.4
			c1.4,0,2.4,0.3,3.2,1c0.8,0.6,1.2,1.5,1.2,2.7c0,0.6-0.2,1.1-0.5,1.6s-0.8,0.9-1.4,1.1c0.7,0.3,1.3,0.6,1.6,1.2s0.5,1.1,0.5,1.8
			c0,1.1-0.4,2-1.2,2.7s-1.9,1-3.3,1c-1.3,0-2.3-0.3-3.1-1s-1.2-1.6-1.2-2.7h2.5c0,0.5,0.2,0.9,0.5,1.2s0.8,0.5,1.3,0.5
			c0.6,0,1.1-0.2,1.4-0.5c0.3-0.3,0.5-0.7,0.5-1.3c0-1.3-0.7-1.9-2.1-1.9h-1.3V1252.8z"/>
		<path class="st1" d="M433.9,1249.7H430v10.7h-2.6v-10.7h-3.9v-2.1h10.4V1249.7z"/>
		<path class="st1" d="M439.6,1260.5c-1.4,0-2.5-0.4-3.4-1.3s-1.3-2-1.3-3.4v-0.2c0-1,0.2-1.8,0.6-2.6s0.9-1.3,1.6-1.7
			s1.4-0.6,2.3-0.6c1.3,0,2.3,0.4,3.1,1.2s1.1,2,1.1,3.5v1h-6.1c0.1,0.6,0.3,1.1,0.7,1.5s0.9,0.6,1.6,0.6c1,0,1.7-0.4,2.3-1.1
			l1.2,1.4c-0.4,0.5-0.9,1-1.5,1.3C441.1,1260.4,440.4,1260.5,439.6,1260.5z M439.3,1252.7c-0.5,0-0.9,0.2-1.2,0.5
			c-0.3,0.3-0.5,0.8-0.6,1.5h3.5v-0.2c0-0.6-0.2-1-0.5-1.3C440.3,1252.9,439.9,1252.7,439.3,1252.7z"/>
		<path class="st1" d="M450.3,1253.2c-0.3,0-0.7-0.1-0.9-0.1c-1,0-1.6,0.3-1.9,1v6.2H445v-9.5h2.4l0.1,1.1c0.5-0.9,1.2-1.3,2.1-1.3
			c0.3,0,0.5,0,0.8,0.1L450.3,1253.2z"/>
		<path class="st1" d="M453.9,1250.9l0.1,1.1c0.7-0.8,1.6-1.2,2.7-1.2c1.2,0,2.1,0.5,2.5,1.5c0.7-1,1.6-1.5,2.9-1.5
			c1,0,1.8,0.3,2.3,0.9c0.5,0.6,0.8,1.5,0.8,2.7v6.1h-2.5v-6.1c0-0.5-0.1-0.9-0.3-1.2s-0.6-0.4-1.1-0.4c-0.8,0-1.3,0.4-1.6,1.1
			l0,6.5h-2.5v-6.1c0-0.6-0.1-0.9-0.3-1.2s-0.6-0.4-1.1-0.4c-0.7,0-1.2,0.3-1.6,0.9v6.7h-2.5v-9.5H453.9z"/>
		<path class="st1" d="M467.1,1248.4c0-0.4,0.1-0.7,0.4-0.9s0.6-0.4,1-0.4c0.4,0,0.8,0.1,1,0.4s0.4,0.6,0.4,0.9
			c0,0.4-0.1,0.7-0.4,0.9s-0.6,0.4-1,0.4s-0.8-0.1-1-0.4S467.1,1248.8,467.1,1248.4z M469.8,1260.4h-2.5v-9.5h2.5V1260.4z"/>
		<path class="st1" d="M474.2,1250.9l0.1,1.1c0.7-0.8,1.6-1.3,2.7-1.3c1,0,1.8,0.3,2.2,0.9s0.7,1.5,0.8,2.7v6.1h-2.5v-6.1
			c0-0.5-0.1-0.9-0.4-1.2c-0.2-0.2-0.6-0.4-1.2-0.4c-0.7,0-1.3,0.3-1.6,0.9v6.7h-2.5v-9.5H474.2z"/>
		<path class="st1" d="M487.5,1260.4c-0.1-0.2-0.2-0.5-0.3-0.9c-0.6,0.7-1.4,1-2.4,1c-0.9,0-1.7-0.3-2.3-0.8s-0.9-1.2-0.9-2
			c0-1,0.4-1.8,1.1-2.3s1.8-0.8,3.2-0.8h1.2v-0.5c0-0.4-0.1-0.8-0.3-1.1s-0.6-0.4-1.1-0.4c-0.4,0-0.8,0.1-1,0.3s-0.4,0.5-0.4,0.8
			h-2.5c0-0.6,0.2-1.1,0.5-1.5s0.8-0.8,1.4-1.1s1.3-0.4,2.1-0.4c1.2,0,2.1,0.3,2.8,0.9c0.7,0.6,1,1.4,1,2.5v4.1c0,0.9,0.1,1.6,0.4,2
			v0.1H487.5z M485.4,1258.6c0.4,0,0.7-0.1,1-0.3c0.3-0.2,0.6-0.4,0.7-0.7v-1.6h-0.9c-1.3,0-1.9,0.4-2,1.3l0,0.1
			c0,0.3,0.1,0.6,0.3,0.8S485,1258.6,485.4,1258.6z"/>
		<path class="st1" d="M494.3,1260.4h-2.5v-13.5h2.5V1260.4z"/>
	</g>
	<rect id="Rectángulo_29311" x="770" y="1369" class="st1" width="137.7" height="84"/>
	<g class="st2">
		<path class="st3" d="M830.5,1405.8h-4.2v-20.6h4.2V1405.8z"/>
		<path class="st3" d="M838.7,1398.5v7.3h-4.2v-20.6h8c1.5,0,2.9,0.3,4.1,0.8c1.2,0.6,2.1,1.4,2.7,2.4c0.6,1,0.9,2.2,0.9,3.6
			c0,2-0.7,3.6-2.1,4.8c-1.4,1.2-3.3,1.7-5.7,1.7H838.7z M838.7,1395.1h3.8c1.1,0,2-0.3,2.6-0.8s0.9-1.3,0.9-2.3
			c0-1-0.3-1.8-0.9-2.4s-1.4-0.9-2.5-1h-3.9V1395.1z"/>
	</g>
	<g class="st2">
		<path class="st3" d="M803.3,1433.3h-3.4v7.5h-4.2v-20.6h7.7c2.4,0,4.3,0.5,5.6,1.6c1.3,1.1,2,2.6,2,4.6c0,1.4-0.3,2.6-0.9,3.5
			c-0.6,0.9-1.5,1.7-2.8,2.2l4.5,8.4v0.2h-4.6L803.3,1433.3z M799.9,1429.8h3.4c1.1,0,1.9-0.3,2.5-0.8c0.6-0.5,0.9-1.3,0.9-2.2
			c0-1-0.3-1.7-0.8-2.3c-0.6-0.6-1.4-0.8-2.5-0.8h-3.4V1429.8z"/>
		<path class="st3" d="M813.2,1433c0-1.5,0.3-2.9,0.9-4.1c0.6-1.2,1.4-2.1,2.5-2.8c1.1-0.7,2.4-1,3.8-1c2.1,0,3.8,0.6,5.1,1.9
			c1.3,1.3,2,3,2.2,5.2l0,1c0,2.4-0.7,4.2-2,5.7c-1.3,1.4-3.1,2.1-5.3,2.1s-4-0.7-5.3-2.1c-1.3-1.4-2-3.3-2-5.8V1433z M817.3,1433.3
			c0,1.5,0.3,2.6,0.8,3.3c0.5,0.8,1.3,1.2,2.4,1.2c1,0,1.8-0.4,2.3-1.1c0.6-0.8,0.8-2,0.8-3.7c0-1.4-0.3-2.5-0.8-3.3
			c-0.6-0.8-1.3-1.2-2.4-1.2c-1,0-1.8,0.4-2.3,1.2C817.6,1430.5,817.3,1431.7,817.3,1433.3z"/>
		<path class="st3" d="M839.4,1439.3c-1,1.2-2.4,1.8-4.2,1.8c-1.6,0-2.9-0.5-3.8-1.4c-0.9-0.9-1.3-2.3-1.3-4.1v-10h4.1v9.9
			c0,1.6,0.7,2.4,2.2,2.4c1.4,0,2.3-0.5,2.9-1.4v-10.9h4.1v15.3h-3.9L839.4,1439.3z"/>
		<path class="st3" d="M851.4,1421.7v3.8h2.6v3h-2.6v7.6c0,0.6,0.1,1,0.3,1.2c0.2,0.2,0.6,0.4,1.2,0.4c0.5,0,0.9,0,1.2-0.1v3.1
			c-0.8,0.2-1.6,0.4-2.5,0.4c-2.9,0-4.3-1.4-4.4-4.3v-8.3h-2.2v-3h2.2v-3.8H851.4z"/>
		<path class="st3" d="M863.3,1441.1c-2.2,0-4.1-0.7-5.5-2.1s-2.1-3.2-2.1-5.5v-0.4c0-1.5,0.3-2.9,0.9-4.1s1.4-2.1,2.5-2.8
			c1.1-0.7,2.3-1,3.7-1c2.1,0,3.7,0.7,4.9,2c1.2,1.3,1.8,3.2,1.8,5.6v1.7h-9.8c0.1,1,0.5,1.8,1.2,2.4c0.7,0.6,1.5,0.9,2.5,0.9
			c1.6,0,2.8-0.6,3.7-1.7l2,2.3c-0.6,0.9-1.4,1.5-2.5,2S864.6,1441.1,863.3,1441.1z M862.9,1428.5c-0.8,0-1.5,0.3-2,0.8
			c-0.5,0.6-0.8,1.3-1,2.4h5.7v-0.3c0-0.9-0.3-1.6-0.7-2.1C864.4,1428.8,863.7,1428.5,862.9,1428.5z"/>
		<path class="st3" d="M880.6,1429.3c-0.6-0.1-1-0.1-1.5-0.1c-1.5,0-2.6,0.5-3,1.6v10H872v-15.3h3.9l0.1,1.8c0.8-1.4,2-2.1,3.4-2.1
			c0.5,0,0.9,0.1,1.3,0.2L880.6,1429.3z"/>
	</g>
	<rect id="Rectángulo_29312" x="770" y="1518.6" class="st1" width="137.7" height="84"/>
	<g class="st2">
		<path class="st3" d="M830.5,1555.4h-4.2v-20.6h4.2V1555.4z"/>
		<path class="st3" d="M838.7,1548.1v7.3h-4.2v-20.6h8c1.5,0,2.9,0.3,4.1,0.8c1.2,0.6,2.1,1.4,2.7,2.4c0.6,1,0.9,2.2,0.9,3.6
			c0,2-0.7,3.6-2.1,4.8c-1.4,1.2-3.3,1.7-5.7,1.7H838.7z M838.7,1544.7h3.8c1.1,0,2-0.3,2.6-0.8s0.9-1.3,0.9-2.3
			c0-1-0.3-1.8-0.9-2.4s-1.4-0.9-2.5-1h-3.9V1544.7z"/>
	</g>
	<g class="st2">
		<path class="st3" d="M803.3,1582.8h-3.4v7.5h-4.2v-20.6h7.7c2.4,0,4.3,0.5,5.6,1.6c1.3,1.1,2,2.6,2,4.6c0,1.4-0.3,2.6-0.9,3.5
			c-0.6,0.9-1.5,1.7-2.8,2.2l4.5,8.4v0.2h-4.6L803.3,1582.8z M799.9,1579.4h3.4c1.1,0,1.9-0.3,2.5-0.8c0.6-0.5,0.9-1.3,0.9-2.2
			c0-1-0.3-1.7-0.8-2.3c-0.6-0.6-1.4-0.8-2.5-0.8h-3.4V1579.4z"/>
		<path class="st3" d="M813.2,1582.6c0-1.5,0.3-2.9,0.9-4.1c0.6-1.2,1.4-2.1,2.5-2.8c1.1-0.7,2.4-1,3.8-1c2.1,0,3.8,0.6,5.1,1.9
			c1.3,1.3,2,3,2.2,5.2l0,1c0,2.4-0.7,4.2-2,5.7c-1.3,1.4-3.1,2.1-5.3,2.1s-4-0.7-5.3-2.1c-1.3-1.4-2-3.3-2-5.8V1582.6z
			 M817.3,1582.9c0,1.5,0.3,2.6,0.8,3.3c0.5,0.8,1.3,1.2,2.4,1.2c1,0,1.8-0.4,2.3-1.1c0.6-0.8,0.8-2,0.8-3.7c0-1.4-0.3-2.5-0.8-3.3
			c-0.6-0.8-1.3-1.2-2.4-1.2c-1,0-1.8,0.4-2.3,1.2C817.6,1580,817.3,1581.2,817.3,1582.9z"/>
		<path class="st3" d="M839.4,1588.8c-1,1.2-2.4,1.8-4.2,1.8c-1.6,0-2.9-0.5-3.8-1.4c-0.9-0.9-1.3-2.3-1.3-4.1v-10h4.1v9.9
			c0,1.6,0.7,2.4,2.2,2.4c1.4,0,2.3-0.5,2.9-1.4v-10.9h4.1v15.3h-3.9L839.4,1588.8z"/>
		<path class="st3" d="M851.4,1571.3v3.8h2.6v3h-2.6v7.6c0,0.6,0.1,1,0.3,1.2c0.2,0.2,0.6,0.4,1.2,0.4c0.5,0,0.9,0,1.2-0.1v3.1
			c-0.8,0.2-1.6,0.4-2.5,0.4c-2.9,0-4.3-1.4-4.4-4.3v-8.3h-2.2v-3h2.2v-3.8H851.4z"/>
		<path class="st3" d="M863.3,1590.7c-2.2,0-4.1-0.7-5.5-2.1s-2.1-3.2-2.1-5.5v-0.4c0-1.5,0.3-2.9,0.9-4.1s1.4-2.1,2.5-2.8
			c1.1-0.7,2.3-1,3.7-1c2.1,0,3.7,0.7,4.9,2c1.2,1.3,1.8,3.2,1.8,5.6v1.7h-9.8c0.1,1,0.5,1.8,1.2,2.4c0.7,0.6,1.5,0.9,2.5,0.9
			c1.6,0,2.8-0.6,3.7-1.7l2,2.3c-0.6,0.9-1.4,1.5-2.5,2S864.6,1590.7,863.3,1590.7z M862.9,1578.1c-0.8,0-1.5,0.3-2,0.8
			c-0.5,0.6-0.8,1.3-1,2.4h5.7v-0.3c0-0.9-0.3-1.6-0.7-2.1C864.4,1578.3,863.7,1578.1,862.9,1578.1z"/>
		<path class="st3" d="M880.6,1578.9c-0.6-0.1-1-0.1-1.5-0.1c-1.5,0-2.6,0.5-3,1.6v10H872v-15.3h3.9l0.1,1.8c0.8-1.4,2-2.1,3.4-2.1
			c0.5,0,0.9,0.1,1.3,0.2L880.6,1578.9z"/>
	</g>
	<rect id="Rectángulo_29313" x="152.3" y="1369" class="st1" width="137.7" height="84"/>
	<g class="st2">
		<path class="st3" d="M197.8,1403.8h-4.2v-8.8h-8.3v8.8h-4.2v-20.6h4.2v8.4h8.3v-8.4h4.2V1403.8z"/>
		<path class="st3" d="M201.5,1401.8c0-0.7,0.2-1.2,0.7-1.6c0.4-0.4,1-0.6,1.6-0.6c0.7,0,1.2,0.2,1.7,0.6c0.4,0.4,0.7,0.9,0.7,1.6
			c0,0.6-0.2,1.2-0.7,1.6s-1,0.6-1.7,0.6c-0.7,0-1.2-0.2-1.7-0.6S201.5,1402.4,201.5,1401.8z"/>
		<path class="st3" d="M213.7,1391.7h2.2c1,0,1.8-0.3,2.3-0.8c0.5-0.5,0.8-1.2,0.8-2.1c0-0.8-0.2-1.5-0.7-1.9
			c-0.5-0.5-1.2-0.7-2-0.7c-0.8,0-1.4,0.2-2,0.6s-0.8,1-0.8,1.7h-4.1c0-1.1,0.3-2,0.9-2.9c0.6-0.9,1.4-1.5,2.4-2
			c1-0.5,2.2-0.7,3.4-0.7c2.2,0,3.9,0.5,5.1,1.6s1.9,2.5,1.9,4.3c0,0.9-0.3,1.8-0.9,2.6s-1.3,1.4-2.3,1.8c1.2,0.4,2,1,2.6,1.9
			c0.6,0.8,0.9,1.8,0.9,2.9c0,1.8-0.7,3.3-2,4.4c-1.3,1.1-3.1,1.7-5.3,1.7c-2.1,0-3.7-0.5-5-1.6c-1.3-1.1-2-2.5-2-4.3h4.1
			c0,0.8,0.3,1.4,0.9,1.9c0.6,0.5,1.3,0.7,2.1,0.7c1,0,1.7-0.3,2.3-0.8c0.6-0.5,0.8-1.2,0.8-2c0-2.1-1.1-3.1-3.4-3.1h-2.2V1391.7z"
			/>
		<path class="st3" d="M240.3,1403.8h-14.1v-2.8l6.7-7.1c0.9-1,1.6-1.9,2-2.6c0.4-0.7,0.7-1.5,0.7-2.1c0-0.9-0.2-1.6-0.7-2.2
			c-0.5-0.5-1.1-0.8-2-0.8c-0.9,0-1.7,0.3-2.2,1c-0.5,0.6-0.8,1.5-0.8,2.5h-4.1c0-1.3,0.3-2.4,0.9-3.4c0.6-1,1.4-1.9,2.5-2.4
			s2.3-0.9,3.7-0.9c2.1,0,3.8,0.5,4.9,1.5c1.2,1,1.8,2.5,1.8,4.3c0,1-0.3,2.1-0.8,3.1c-0.5,1.1-1.4,2.3-2.7,3.7l-4.7,4.9h8.9V1403.8
			z"/>
		<path class="st3" d="M247,1391.7h2.2c1,0,1.8-0.3,2.3-0.8c0.5-0.5,0.8-1.2,0.8-2.1c0-0.8-0.2-1.5-0.7-1.9c-0.5-0.5-1.2-0.7-2-0.7
			c-0.8,0-1.4,0.2-2,0.6s-0.8,1-0.8,1.7h-4.1c0-1.1,0.3-2,0.9-2.9c0.6-0.9,1.4-1.5,2.4-2c1-0.5,2.2-0.7,3.4-0.7
			c2.2,0,3.9,0.5,5.1,1.6s1.9,2.5,1.9,4.3c0,0.9-0.3,1.8-0.9,2.6s-1.3,1.4-2.3,1.8c1.2,0.4,2,1,2.6,1.9c0.6,0.8,0.9,1.8,0.9,2.9
			c0,1.8-0.7,3.3-2,4.4c-1.3,1.1-3.1,1.7-5.3,1.7c-2.1,0-3.7-0.5-5-1.6c-1.3-1.1-2-2.5-2-4.3h4.1c0,0.8,0.3,1.4,0.9,1.9
			c0.6,0.5,1.3,0.7,2.1,0.7c1,0,1.7-0.3,2.3-0.8c0.6-0.5,0.8-1.2,0.8-2c0-2.1-1.1-3.1-3.4-3.1H247V1391.7z"/>
	</g>
	<g class="st2">
		<path class="st3" d="M181,1436.2c-0.8,0.9-1.8,1.6-3.2,2.1s-2.9,0.8-4.6,0.8c-1.8,0-3.3-0.4-4.7-1.2c-1.3-0.8-2.4-1.9-3.1-3.4
			c-0.7-1.5-1.1-3.2-1.1-5.2v-1.4c0-2.1,0.3-3.8,1-5.3c0.7-1.5,1.7-2.7,3-3.5c1.3-0.8,2.8-1.2,4.6-1.2c2.4,0,4.4,0.6,5.7,1.7
			s2.2,2.9,2.4,5.1h-4.1c-0.2-1.2-0.6-2-1.3-2.6c-0.6-0.5-1.5-0.8-2.7-0.8c-1.4,0-2.5,0.5-3.3,1.6c-0.8,1.1-1.1,2.7-1.1,4.8v1.3
			c0,2.2,0.4,3.8,1.2,4.9s2,1.7,3.6,1.7c1.6,0,2.7-0.3,3.4-1v-3.6h-3.9v-3.1h8.1V1436.2z"/>
		<path class="st3" d="M193,1438.8c-0.2-0.4-0.3-0.8-0.4-1.4c-1,1.1-2.3,1.7-3.9,1.7c-1.5,0-2.7-0.4-3.7-1.3c-1-0.9-1.5-2-1.5-3.3
			c0-1.6,0.6-2.9,1.8-3.7c1.2-0.9,2.9-1.3,5.2-1.3h1.9v-0.9c0-0.7-0.2-1.3-0.5-1.7c-0.4-0.4-0.9-0.6-1.7-0.6c-0.7,0-1.2,0.2-1.6,0.5
			c-0.4,0.3-0.6,0.8-0.6,1.4h-4.1c0-0.9,0.3-1.7,0.8-2.5c0.5-0.8,1.3-1.3,2.3-1.8s2.1-0.6,3.4-0.6c1.9,0,3.4,0.5,4.5,1.4
			c1.1,0.9,1.7,2.3,1.7,4v6.6c0,1.5,0.2,2.6,0.6,3.3v0.2H193z M189.6,1436c0.6,0,1.2-0.1,1.7-0.4c0.5-0.3,0.9-0.6,1.1-1.1v-2.6h-1.5
			c-2,0-3.1,0.7-3.3,2.1l0,0.2c0,0.5,0.2,0.9,0.5,1.3S189,1436,189.6,1436z"/>
		<path class="st3" d="M204.6,1419.7v3.8h2.6v3h-2.6v7.6c0,0.6,0.1,1,0.3,1.2s0.6,0.4,1.2,0.4c0.5,0,0.9,0,1.2-0.1v3.1
			c-0.8,0.2-1.6,0.4-2.5,0.4c-2.9,0-4.3-1.4-4.4-4.3v-8.3h-2.2v-3h2.2v-3.8H204.6z"/>
		<path class="st3" d="M216.5,1439.1c-2.2,0-4.1-0.7-5.5-2.1c-1.4-1.4-2.1-3.2-2.1-5.5v-0.4c0-1.5,0.3-2.9,0.9-4.1s1.4-2.1,2.5-2.8
			c1.1-0.7,2.3-1,3.7-1c2.1,0,3.7,0.7,4.9,2c1.2,1.3,1.8,3.2,1.8,5.6v1.7h-9.8c0.1,1,0.5,1.8,1.2,2.4c0.7,0.6,1.5,0.9,2.5,0.9
			c1.6,0,2.8-0.6,3.7-1.7l2,2.3c-0.6,0.9-1.4,1.5-2.5,2S217.8,1439.1,216.5,1439.1z M216.1,1426.5c-0.8,0-1.5,0.3-2,0.8
			c-0.5,0.6-0.8,1.3-1,2.4h5.7v-0.3c0-0.9-0.3-1.6-0.7-2.1S216.9,1426.5,216.1,1426.5z"/>
		<path class="st3" d="M238.5,1433.2l2-9.8h4l-3.9,15.3h-3.4l-2.9-9.6l-2.9,9.6h-3.4l-3.9-15.3h4l2,9.7l2.8-9.7h3L238.5,1433.2z"/>
		<path class="st3" d="M255.3,1438.8c-0.2-0.4-0.3-0.8-0.4-1.4c-1,1.1-2.3,1.7-3.9,1.7c-1.5,0-2.7-0.4-3.7-1.3c-1-0.9-1.5-2-1.5-3.3
			c0-1.6,0.6-2.9,1.8-3.7c1.2-0.9,2.9-1.3,5.2-1.3h1.9v-0.9c0-0.7-0.2-1.3-0.5-1.7c-0.4-0.4-0.9-0.6-1.7-0.6c-0.7,0-1.2,0.2-1.6,0.5
			c-0.4,0.3-0.6,0.8-0.6,1.4h-4.1c0-0.9,0.3-1.7,0.8-2.5c0.5-0.8,1.3-1.3,2.3-1.8s2.1-0.6,3.4-0.6c1.9,0,3.4,0.5,4.5,1.4
			c1.1,0.9,1.7,2.3,1.7,4v6.6c0,1.5,0.2,2.6,0.6,3.3v0.2H255.3z M252,1436c0.6,0,1.2-0.1,1.7-0.4c0.5-0.3,0.9-0.6,1.1-1.1v-2.6h-1.5
			c-2,0-3.1,0.7-3.3,2.1l0,0.2c0,0.5,0.2,0.9,0.5,1.3S251.3,1436,252,1436z"/>
		<path class="st3" d="M267.7,1433l2.8-9.5h4.4l-6.2,17.7l-0.3,0.8c-0.9,2-2.4,3-4.5,3c-0.6,0-1.2-0.1-1.8-0.3v-3.1l0.6,0
			c0.8,0,1.4-0.1,1.7-0.4c0.4-0.2,0.7-0.6,0.9-1.2l0.5-1.3l-5.4-15.4h4.4L267.7,1433z"/>
	</g>
	<rect id="Rectángulo_29314" x="152.3" y="1655.9" class="st1" width="137.7" height="84"/>
	<g class="st2">
		<path class="st3" d="M197.2,1691.7h-4.1v-8.5h-8v8.5H181v-19.9h4.1v8.1h8v-8.1h4.1V1691.7z"/>
		<path class="st3" d="M200.7,1689.8c0-0.6,0.2-1.1,0.6-1.5s1-0.6,1.6-0.6c0.6,0,1.2,0.2,1.6,0.6s0.6,0.9,0.6,1.5
			c0,0.6-0.2,1.1-0.6,1.5c-0.4,0.4-1,0.6-1.6,0.6c-0.6,0-1.2-0.2-1.6-0.6C200.9,1690.9,200.7,1690.4,200.7,1689.8z"/>
		<path class="st3" d="M212.5,1680h2.1c1,0,1.7-0.3,2.2-0.8c0.5-0.5,0.7-1.2,0.7-2c0-0.8-0.2-1.4-0.7-1.9s-1.1-0.7-2-0.7
			c-0.8,0-1.4,0.2-1.9,0.6c-0.5,0.4-0.8,1-0.8,1.6h-4c0-1,0.3-2,0.8-2.8s1.3-1.5,2.4-1.9c1-0.5,2.1-0.7,3.3-0.7
			c2.1,0,3.8,0.5,4.9,1.5c1.2,1,1.8,2.4,1.8,4.2c0,0.9-0.3,1.8-0.8,2.5c-0.6,0.8-1.3,1.4-2.2,1.8c1.1,0.4,2,1,2.5,1.8
			c0.6,0.8,0.8,1.8,0.8,2.8c0,1.8-0.6,3.2-1.9,4.3c-1.3,1.1-3,1.6-5.1,1.6c-2,0-3.6-0.5-4.9-1.6c-1.3-1-1.9-2.4-1.9-4.2h4
			c0,0.7,0.3,1.4,0.8,1.8s1.3,0.7,2.1,0.7c0.9,0,1.7-0.2,2.2-0.7s0.8-1.2,0.8-2c0-2-1.1-3-3.3-3h-2.1V1680z"/>
		<path class="st3" d="M238.2,1691.7h-13.6v-2.7l6.4-6.9c0.9-1,1.5-1.8,2-2.5s0.6-1.4,0.6-2.1c0-0.9-0.2-1.6-0.7-2.1
			c-0.4-0.5-1.1-0.8-1.9-0.8c-0.9,0-1.6,0.3-2.1,0.9c-0.5,0.6-0.8,1.4-0.8,2.4h-4c0-1.2,0.3-2.3,0.9-3.3c0.6-1,1.4-1.8,2.5-2.4
			c1.1-0.6,2.3-0.9,3.6-0.9c2.1,0,3.6,0.5,4.8,1.5s1.7,2.4,1.7,4.2c0,1-0.3,2-0.8,3c-0.5,1-1.4,2.2-2.6,3.6l-4.5,4.8h8.6V1691.7z"/>
		<path class="st3" d="M244.6,1680h2.1c1,0,1.7-0.3,2.2-0.8c0.5-0.5,0.7-1.2,0.7-2c0-0.8-0.2-1.4-0.7-1.9s-1.1-0.7-2-0.7
			c-0.8,0-1.4,0.2-1.9,0.6c-0.5,0.4-0.8,1-0.8,1.6h-4c0-1,0.3-2,0.8-2.8s1.3-1.5,2.4-1.9c1-0.5,2.1-0.7,3.3-0.7
			c2.1,0,3.8,0.5,4.9,1.5c1.2,1,1.8,2.4,1.8,4.2c0,0.9-0.3,1.8-0.8,2.5c-0.6,0.8-1.3,1.4-2.2,1.8c1.1,0.4,2,1,2.5,1.8
			c0.6,0.8,0.8,1.8,0.8,2.8c0,1.8-0.6,3.2-1.9,4.3c-1.3,1.1-3,1.6-5.1,1.6c-2,0-3.6-0.5-4.9-1.6c-1.3-1-1.9-2.4-1.9-4.2h4
			c0,0.7,0.3,1.4,0.8,1.8s1.3,0.7,2.1,0.7c0.9,0,1.7-0.2,2.2-0.7s0.8-1.2,0.8-2c0-2-1.1-3-3.3-3h-2.1V1680z"/>
	</g>
	<g class="st2">
		<path class="st3" d="M194,1705.8l5.1,14.4l5.1-14.4h5.4v19.9h-4.1v-5.4l0.4-9.4l-5.4,14.8h-2.8l-5.4-14.8l0.4,9.4v5.4h-4.1v-19.9
			H194z"/>
		<path class="st3" d="M228.8,1719.1c-0.2,2.1-0.9,3.8-2.4,5.1c-1.4,1.2-3.3,1.8-5.6,1.8c-2.6,0-4.6-0.9-6-2.6s-2.2-4.1-2.2-7.1
			v-1.2c0-1.9,0.3-3.6,1-5.1c0.7-1.5,1.6-2.6,2.9-3.4c1.3-0.8,2.7-1.2,4.4-1.2c2.3,0,4.1,0.6,5.6,1.8c1.4,1.2,2.2,3,2.4,5.2h-4.1
			c-0.1-1.3-0.5-2.2-1.1-2.8s-1.6-0.9-2.8-0.9c-1.4,0-2.4,0.5-3.1,1.5c-0.7,1-1,2.5-1,4.6v1.5c0,2.2,0.3,3.7,1,4.7
			c0.7,1,1.7,1.5,3.1,1.5c1.3,0,2.2-0.3,2.8-0.9c0.6-0.6,1-1.5,1.1-2.7H228.8z"/>
		<path class="st3" d="M246.5,1705.8v13.1c0,2.2-0.7,3.9-2,5.2c-1.4,1.3-3.2,1.9-5.6,1.9c-2.3,0-4.2-0.6-5.5-1.8s-2.1-2.9-2.1-5.1
			v-13.3h4.1v13.1c0,1.3,0.3,2.3,0.9,2.9c0.6,0.6,1.5,0.9,2.6,0.9c2.3,0,3.5-1.2,3.5-3.6v-13.2H246.5z"/>
	</g>
	<path id="Trazado_123066" class="st0" d="M907.7,1411H940v143h-32.3"/>
	<rect id="Rectángulo_29315" x="466.3" y="1369" class="st1" width="184.4" height="84"/>
	<g class="st2">
		<path class="st3" d="M535,1403.8h-4.2v-8.8h-8.3v8.8h-4.2v-20.6h4.2v8.4h8.3v-8.4h4.2V1403.8z"/>
		<path class="st3" d="M538.7,1401.8c0-0.7,0.2-1.2,0.7-1.6c0.4-0.4,1-0.6,1.6-0.6c0.7,0,1.2,0.2,1.7,0.6c0.4,0.4,0.7,0.9,0.7,1.6
			c0,0.6-0.2,1.2-0.7,1.6s-1,0.6-1.7,0.6c-0.7,0-1.2-0.2-1.7-0.6S538.7,1402.4,538.7,1401.8z"/>
		<path class="st3" d="M550.9,1391.7h2.2c1,0,1.8-0.3,2.3-0.8c0.5-0.5,0.8-1.2,0.8-2.1c0-0.8-0.2-1.5-0.7-1.9
			c-0.5-0.5-1.2-0.7-2-0.7c-0.8,0-1.4,0.2-2,0.6c-0.5,0.4-0.8,1-0.8,1.7h-4.1c0-1.1,0.3-2,0.9-2.9c0.6-0.9,1.4-1.5,2.4-2
			c1-0.5,2.2-0.7,3.4-0.7c2.2,0,3.9,0.5,5.1,1.6c1.2,1,1.9,2.5,1.9,4.3c0,0.9-0.3,1.8-0.9,2.6c-0.6,0.8-1.3,1.4-2.3,1.8
			c1.2,0.4,2,1,2.6,1.9c0.6,0.8,0.9,1.8,0.9,2.9c0,1.8-0.7,3.3-2,4.4c-1.3,1.1-3.1,1.7-5.3,1.7c-2.1,0-3.7-0.5-5-1.6
			c-1.3-1.1-2-2.5-2-4.3h4.1c0,0.8,0.3,1.4,0.9,1.9c0.6,0.5,1.3,0.7,2.1,0.7c1,0,1.7-0.3,2.3-0.8c0.6-0.5,0.8-1.2,0.8-2
			c0-2.1-1.1-3.1-3.4-3.1h-2.2V1391.7z"/>
		<path class="st3" d="M577.5,1403.8h-14.1v-2.8l6.7-7.1c0.9-1,1.6-1.9,2-2.6c0.4-0.7,0.7-1.5,0.7-2.1c0-0.9-0.2-1.6-0.7-2.2
			c-0.5-0.5-1.1-0.8-2-0.8c-0.9,0-1.7,0.3-2.2,1c-0.5,0.6-0.8,1.5-0.8,2.5h-4.1c0-1.3,0.3-2.4,0.9-3.4c0.6-1,1.4-1.9,2.5-2.4
			c1.1-0.6,2.3-0.9,3.7-0.9c2.1,0,3.8,0.5,4.9,1.5c1.2,1,1.8,2.5,1.8,4.3c0,1-0.3,2.1-0.8,3.1c-0.5,1.1-1.4,2.3-2.7,3.7l-4.7,4.9
			h8.9V1403.8z"/>
		<path class="st3" d="M584.1,1391.7h2.2c1,0,1.8-0.3,2.3-0.8c0.5-0.5,0.8-1.2,0.8-2.1c0-0.8-0.2-1.5-0.7-1.9
			c-0.5-0.5-1.2-0.7-2-0.7c-0.8,0-1.4,0.2-2,0.6c-0.5,0.4-0.8,1-0.8,1.7h-4.1c0-1.1,0.3-2,0.9-2.9c0.6-0.9,1.4-1.5,2.4-2
			c1-0.5,2.2-0.7,3.4-0.7c2.2,0,3.9,0.5,5.1,1.6c1.2,1,1.9,2.5,1.9,4.3c0,0.9-0.3,1.8-0.9,2.6c-0.6,0.8-1.3,1.4-2.3,1.8
			c1.2,0.4,2,1,2.6,1.9c0.6,0.8,0.9,1.8,0.9,2.9c0,1.8-0.7,3.3-2,4.4c-1.3,1.1-3.1,1.7-5.3,1.7c-2.1,0-3.7-0.5-5-1.6
			c-1.3-1.1-2-2.5-2-4.3h4.1c0,0.8,0.3,1.4,0.9,1.9c0.6,0.5,1.3,0.7,2.1,0.7c1,0,1.7-0.3,2.3-0.8c0.6-0.5,0.8-1.2,0.8-2
			c0-2.1-1.1-3.1-3.4-3.1h-2.2V1391.7z"/>
	</g>
	<g class="st2">
		<path class="st3" d="M498.6,1436.2c-0.8,0.9-1.8,1.6-3.2,2.1s-2.9,0.8-4.6,0.8c-1.8,0-3.3-0.4-4.7-1.2c-1.3-0.8-2.4-1.9-3.1-3.4
			c-0.7-1.5-1.1-3.2-1.1-5.2v-1.4c0-2.1,0.3-3.8,1-5.3c0.7-1.5,1.7-2.7,3-3.5c1.3-0.8,2.8-1.2,4.6-1.2c2.4,0,4.4,0.6,5.7,1.7
			s2.2,2.9,2.4,5.1h-4.1c-0.2-1.2-0.6-2-1.3-2.6c-0.6-0.5-1.5-0.8-2.7-0.8c-1.4,0-2.5,0.5-3.3,1.6c-0.8,1.1-1.1,2.7-1.1,4.8v1.3
			c0,2.2,0.4,3.8,1.2,4.9s2,1.7,3.6,1.7c1.6,0,2.7-0.3,3.4-1v-3.6h-3.9v-3.1h8.1V1436.2z"/>
		<path class="st3" d="M510.6,1438.8c-0.2-0.4-0.3-0.8-0.4-1.4c-1,1.1-2.3,1.7-3.9,1.7c-1.5,0-2.7-0.4-3.7-1.3c-1-0.9-1.5-2-1.5-3.3
			c0-1.6,0.6-2.9,1.8-3.7c1.2-0.9,2.9-1.3,5.2-1.3h1.9v-0.9c0-0.7-0.2-1.3-0.5-1.7c-0.4-0.4-0.9-0.6-1.7-0.6c-0.7,0-1.2,0.2-1.6,0.5
			c-0.4,0.3-0.6,0.8-0.6,1.4h-4.1c0-0.9,0.3-1.7,0.8-2.5c0.5-0.8,1.3-1.3,2.3-1.8s2.1-0.6,3.4-0.6c1.9,0,3.4,0.5,4.5,1.4
			c1.1,0.9,1.7,2.3,1.7,4v6.6c0,1.5,0.2,2.6,0.6,3.3v0.2H510.6z M507.2,1436c0.6,0,1.2-0.1,1.7-0.4c0.5-0.3,0.9-0.6,1.1-1.1v-2.6
			h-1.5c-2,0-3.1,0.7-3.3,2.1l0,0.2c0,0.5,0.2,0.9,0.5,1.3S506.6,1436,507.2,1436z"/>
		<path class="st3" d="M522.2,1419.7v3.8h2.6v3h-2.6v7.6c0,0.6,0.1,1,0.3,1.2s0.6,0.4,1.2,0.4c0.5,0,0.9,0,1.2-0.1v3.1
			c-0.8,0.2-1.6,0.4-2.5,0.4c-2.9,0-4.3-1.4-4.4-4.3v-8.3h-2.2v-3h2.2v-3.8H522.2z"/>
		<path class="st3" d="M534.1,1439.1c-2.2,0-4.1-0.7-5.5-2.1c-1.4-1.4-2.1-3.2-2.1-5.5v-0.4c0-1.5,0.3-2.9,0.9-4.1s1.4-2.1,2.5-2.8
			c1.1-0.7,2.3-1,3.7-1c2.1,0,3.7,0.7,4.9,2c1.2,1.3,1.8,3.2,1.8,5.6v1.7h-9.8c0.1,1,0.5,1.8,1.2,2.4c0.7,0.6,1.5,0.9,2.5,0.9
			c1.6,0,2.8-0.6,3.7-1.7l2,2.3c-0.6,0.9-1.4,1.5-2.5,2S535.4,1439.1,534.1,1439.1z M533.7,1426.5c-0.8,0-1.5,0.3-2,0.8
			c-0.5,0.6-0.8,1.3-1,2.4h5.7v-0.3c0-0.9-0.3-1.6-0.7-2.1S534.5,1426.5,533.7,1426.5z"/>
		<path class="st3" d="M548.3,1432.7l-1.5,1.5v4.7h-4.1v-21.8h4.1v12.1l0.8-1l3.9-4.6h4.9l-5.5,6.4l6,8.9h-4.7L548.3,1432.7z"/>
		<path class="st3" d="M565.3,1439.1c-2.2,0-4.1-0.7-5.5-2.1s-2.1-3.2-2.1-5.5v-0.4c0-1.5,0.3-2.9,0.9-4.1s1.4-2.1,2.5-2.8
			c1.1-0.7,2.3-1,3.7-1c2.1,0,3.7,0.7,4.9,2c1.2,1.3,1.8,3.2,1.8,5.6v1.7h-9.8c0.1,1,0.5,1.8,1.2,2.4c0.7,0.6,1.5,0.9,2.5,0.9
			c1.6,0,2.8-0.6,3.7-1.7l2,2.3c-0.6,0.9-1.4,1.5-2.5,2S566.6,1439.1,565.3,1439.1z M564.8,1426.5c-0.8,0-1.5,0.3-2,0.8
			c-0.5,0.6-0.8,1.3-1,2.4h5.7v-0.3c0-0.9-0.3-1.6-0.7-2.1C566.4,1426.8,565.7,1426.5,564.8,1426.5z"/>
		<path class="st3" d="M581,1439.1c-2.2,0-4.1-0.7-5.5-2.1c-1.4-1.4-2.1-3.2-2.1-5.5v-0.4c0-1.5,0.3-2.9,0.9-4.1s1.4-2.1,2.5-2.8
			c1.1-0.7,2.3-1,3.7-1c2.1,0,3.7,0.7,4.9,2c1.2,1.3,1.8,3.2,1.8,5.6v1.7h-9.8c0.1,1,0.5,1.8,1.2,2.4c0.7,0.6,1.5,0.9,2.5,0.9
			c1.6,0,2.8-0.6,3.7-1.7l2,2.3c-0.6,0.9-1.4,1.5-2.5,2S582.3,1439.1,581,1439.1z M580.5,1426.5c-0.8,0-1.5,0.3-2,0.8
			c-0.5,0.6-0.8,1.3-1,2.4h5.7v-0.3c0-0.9-0.3-1.6-0.7-2.1C582.1,1426.8,581.4,1426.5,580.5,1426.5z"/>
		<path class="st3" d="M603.4,1431.3c0,2.4-0.5,4.3-1.6,5.7s-2.5,2.1-4.3,2.1c-1.5,0-2.8-0.5-3.8-1.6v7.2h-4.1v-21.2h3.8l0.1,1.5
			c1-1.2,2.3-1.8,3.9-1.8c1.9,0,3.4,0.7,4.4,2.1s1.6,3.3,1.6,5.8V1431.3z M599.3,1431c0-1.4-0.3-2.5-0.8-3.3
			c-0.5-0.8-1.2-1.2-2.2-1.2c-1.3,0-2.2,0.5-2.6,1.5v6.3c0.5,1,1.4,1.5,2.7,1.5C598.3,1435.8,599.3,1434.2,599.3,1431z"/>
		<path class="st3" d="M613,1439.1c-2.2,0-4.1-0.7-5.5-2.1c-1.4-1.4-2.1-3.2-2.1-5.5v-0.4c0-1.5,0.3-2.9,0.9-4.1s1.4-2.1,2.5-2.8
			c1.1-0.7,2.3-1,3.7-1c2.1,0,3.7,0.7,4.9,2c1.2,1.3,1.8,3.2,1.8,5.6v1.7h-9.8c0.1,1,0.5,1.8,1.2,2.4c0.7,0.6,1.5,0.9,2.5,0.9
			c1.6,0,2.8-0.6,3.7-1.7l2,2.3c-0.6,0.9-1.4,1.5-2.5,2S614.3,1439.1,613,1439.1z M612.5,1426.5c-0.8,0-1.5,0.3-2,0.8
			c-0.5,0.6-0.8,1.3-1,2.4h5.7v-0.3c0-0.9-0.3-1.6-0.7-2.1C614.1,1426.8,613.4,1426.5,612.5,1426.5z"/>
		<path class="st3" d="M630.2,1427.3c-0.6-0.1-1-0.1-1.5-0.1c-1.5,0-2.6,0.5-3,1.6v10h-4.1v-15.3h3.9l0.1,1.8c0.8-1.4,2-2.1,3.4-2.1
			c0.5,0,0.9,0.1,1.3,0.2L630.2,1427.3z"/>
	</g>
	<ellipse id="Elipse_4080" class="st4" cx="557.3" cy="1427.6" rx="151.2" ry="58"/>
</g>
</svg>
